<svg width="75" height="75" viewBox="0 0 75 75" fill="none" xmlns="http://www.w3.org/2000/svg">
<g clip-path="url(#clip0_1387_5240)">
<path d="M1.25 1.25V73.75H73.75V1.25H1.25Z" stroke="#727372" stroke-width="2.5"/>
<path d="M10.6904 29.0141C10.6911 29.0098 10.6909 29.0054 10.6898 29.0013C10.6886 28.9971 10.6865 28.9932 10.6836 28.99C10.6808 28.9868 10.6772 28.9842 10.6732 28.9826C10.6692 28.9809 10.6649 28.9802 10.6605 28.9804L10.4834 28.9931C10.4623 28.9944 10.4447 28.9872 10.4307 28.9716C10.2213 28.7424 9.69442 28.5399 9.43607 28.2562C9.28668 28.092 9.17877 27.8975 9.11234 27.6728C9.09118 27.6013 9.11149 27.5577 9.17327 27.5421L9.25452 27.5211C9.2723 27.5169 9.28647 27.5031 9.29705 27.4799C9.32498 27.4181 9.30996 27.3645 9.25198 27.3193C9.23421 27.3057 9.22532 27.2877 9.22532 27.2653C9.22448 27.2001 9.23971 27.1398 9.27103 27.0844C9.28034 27.0679 9.29451 27.0596 9.31356 27.0596H9.54144C9.56767 27.0596 9.5882 27.0489 9.60301 27.0273C9.63094 26.9858 9.63284 26.9422 9.60872 26.8965C9.60395 26.8875 9.59735 26.8797 9.58937 26.8734C9.58138 26.8672 9.57219 26.8627 9.56238 26.8603L9.32181 26.7994C9.30375 26.7945 9.2849 26.7808 9.26849 26.7607C9.25833 26.7484 9.23061 26.6953 9.18533 26.6013C9.09329 26.4109 8.96507 26.27 8.79432 26.1348C8.78871 26.1304 8.7841 26.1248 8.78078 26.1185C8.77746 26.1122 8.77549 26.1052 8.77502 26.098C8.77454 26.0909 8.77556 26.0837 8.77801 26.0769C8.78045 26.0701 8.78428 26.0639 8.78924 26.0586C9.00443 25.8307 9.12122 25.6225 9.20311 25.321C9.23485 25.2038 9.27166 25.0883 9.31356 24.9744C9.44241 24.6228 9.66649 24.6266 10.0315 24.605C10.4271 24.5813 10.8099 24.58 11.1798 24.6012C11.2267 24.6037 11.2485 24.5817 11.2451 24.5352L11.2407 24.4711C11.236 24.408 11.2022 24.3765 11.1391 24.3765H9.63221C9.61994 24.3765 9.61592 24.371 9.62015 24.36C9.78519 23.9216 9.85543 23.4715 9.83089 23.0098C9.80127 22.4508 9.73843 21.8863 9.64237 21.3163C9.60386 21.0895 9.49785 20.9102 9.32435 20.7786C9.30742 20.7659 9.29663 20.7492 9.29197 20.7285C9.24204 20.5093 9.21771 20.3756 9.21898 20.3273C9.23167 19.9014 9.55096 19.6735 9.74456 19.4545C9.79154 19.4008 9.82814 19.2996 9.85438 19.1511C9.9096 18.8343 10.1952 18.6426 10.5145 18.3811C10.6497 18.2707 10.863 18.2034 10.9563 18.0809C11.0029 18.0199 11.064 17.9232 11.1398 17.7908C11.1914 17.6998 11.2198 17.5978 11.2248 17.4848C11.2341 17.283 11.2746 17.0663 11.3461 16.8348C11.3952 16.677 11.4897 16.5657 11.6298 16.5009C11.9197 16.3668 12.0885 16.2868 12.1364 16.261C12.2278 16.2123 12.3429 16.1237 12.4817 15.995C12.5464 15.9354 12.5921 15.8454 12.6188 15.7253C12.6429 15.6165 12.6761 15.5008 12.7184 15.378C12.7256 15.3577 12.739 15.3433 12.7584 15.3349C12.8299 15.304 12.8748 15.2778 12.893 15.2562C13.0005 15.1258 13.0991 15.0397 13.1888 14.9978C13.5193 14.8434 13.8807 14.6576 14.273 14.4405C14.7347 14.1853 15.0554 13.942 15.2353 13.7105C15.551 13.3055 15.6712 12.8142 15.5958 12.2366C15.5903 12.1943 15.6075 12.1295 15.6472 12.0424C15.8457 11.6039 16.018 11.3056 16.1639 11.1473C16.3552 10.9408 16.5533 10.7688 16.7581 10.6313C17.0044 10.4658 17.1385 10.3757 17.1605 10.3609C17.3249 10.2485 17.5484 10.1603 17.7248 10.0879C17.9089 10.0126 18.068 9.88669 18.2022 9.71023C18.4595 9.37084 18.7157 8.97474 18.9709 8.52195C18.974 8.51624 18.9784 8.51134 18.9838 8.50761C18.9891 8.50389 18.9953 8.50144 19.0017 8.50046C19.0081 8.49948 19.0147 8.49999 19.0209 8.50195C19.0271 8.50392 19.0328 8.50728 19.0375 8.51179C19.2375 8.69968 19.4374 8.88503 19.7224 8.90979C20.1295 8.94491 20.4801 8.94935 20.7742 8.92312C20.8788 8.91423 21.0019 8.8772 21.1437 8.81203C21.1631 8.80315 21.1835 8.80082 21.2046 8.80505C21.3532 8.8334 21.4509 8.91762 21.4979 9.05769C21.5011 9.0671 21.5062 9.07578 21.513 9.0832C21.5198 9.09062 21.528 9.09663 21.5372 9.10085C21.5918 9.12497 21.6481 9.13619 21.7061 9.13449C21.7163 9.13414 21.7262 9.13113 21.7348 9.12578C21.7434 9.12042 21.7503 9.11292 21.755 9.10403C21.7761 9.0634 21.7818 9.0177 21.7721 8.96692C21.7679 8.94406 21.7774 8.93349 21.8007 8.93518C22.0224 8.95041 22.2272 8.93602 22.4151 8.89201C22.4566 8.88228 22.5137 8.85964 22.5865 8.82409C22.6276 8.8042 22.6707 8.76294 22.716 8.70031C22.9566 8.36897 23.4504 8.3969 23.7703 8.19123C23.9426 8.08078 24.0399 8.01752 24.0623 8.00144C24.1639 7.9278 24.359 7.87089 24.6476 7.83069C24.7657 7.81418 24.973 7.79493 25.2697 7.77292C25.4453 7.7598 25.6514 7.7287 25.8879 7.67961C26.2121 7.6119 26.6073 7.52642 27.0737 7.42317C27.2806 7.37746 27.5301 7.54631 27.6773 7.5844C27.9583 7.65591 28.2452 7.62523 28.5381 7.49236C28.7533 7.3946 29.1265 7.37429 29.4033 7.37746C29.4578 7.37831 29.6707 7.38127 30.0418 7.38635C30.121 7.38762 30.2081 7.39883 30.3033 7.41999C30.3241 7.42465 30.3414 7.43501 30.3554 7.4511C30.4449 7.55583 30.5388 7.52155 30.6353 7.44094C30.8808 7.23654 31.1563 7.12673 31.4618 7.1115C31.4834 7.11023 31.5026 7.11615 31.5196 7.12927C31.5826 7.17793 31.641 7.25665 31.6948 7.3654C31.7053 7.38614 31.722 7.39651 31.7449 7.39651H32.2261C32.2328 7.39648 32.2394 7.39812 32.2453 7.40128C32.2512 7.40445 32.2563 7.40902 32.2599 7.41459C32.2636 7.42016 32.2658 7.42653 32.2663 7.43314C32.2668 7.43974 32.2656 7.44635 32.2629 7.45237C32.2252 7.53615 32.17 7.61656 32.0972 7.69358C31.8712 7.93288 32.094 8.30866 32.1994 8.54543C32.2118 8.57346 32.217 8.60415 32.2145 8.63466C32.2119 8.66518 32.2017 8.69453 32.1848 8.71999C31.966 9.05049 31.8336 9.25383 31.7874 9.33C31.7235 9.43707 31.6799 9.55894 31.6567 9.69563C31.6313 9.8467 31.6802 9.94192 31.7963 10.0479C31.9931 10.2273 32.2318 10.3733 32.5123 10.4859C32.5513 10.5016 32.5676 10.5299 32.5612 10.571C32.5456 10.6768 32.5758 10.7282 32.652 10.7252C32.7197 10.7223 32.7789 10.6994 32.8297 10.6567C32.8462 10.6427 32.8642 10.6404 32.8837 10.6497C33.2802 10.8477 33.6987 10.958 34.1392 10.9804C34.4113 10.9944 34.6064 11.0024 34.7245 11.0045C34.9344 11.0087 35.0814 11.0227 35.1657 11.0464C35.438 11.1226 35.697 11.2616 35.8201 11.5257C35.8925 11.6793 35.9358 11.7751 35.9502 11.8132C36.0137 11.9776 36.1889 12.0735 36.34 12.0969C36.6654 12.1477 36.9735 12.1928 37.2642 12.2322C37.3835 12.2482 37.5018 12.2895 37.619 12.3559C37.8729 12.4998 38.1008 12.634 38.3027 12.7584C38.4317 12.8384 38.5547 12.8841 38.6715 12.8955C38.8572 12.9141 39.057 12.9183 39.2707 12.9082C39.4323 12.9006 39.5515 12.8589 39.6281 12.7831C39.9213 12.4937 39.9289 12.1027 39.8001 11.7135C39.7929 11.6911 39.7967 11.6708 39.8115 11.6526L40.2711 11.0788C40.2868 11.0593 40.3066 11.0434 40.3289 11.0322C40.3513 11.021 40.3757 11.0148 40.4006 11.014C40.5626 11.0081 40.6953 11.0016 40.7986 10.9944C40.8396 10.9918 40.9632 10.9694 41.1693 10.9271C41.4524 10.8693 41.7107 10.9563 41.95 11.0039C42.0245 11.0191 42.1094 11.0699 42.2046 11.1562C42.3906 11.3244 42.4845 11.4152 42.7454 11.5111C43.0509 11.6232 43.3586 11.7161 43.6683 11.7897C43.692 11.7952 43.7026 11.81 43.7001 11.8342L43.6874 11.9681C43.6865 11.9774 43.6876 11.9868 43.6905 11.9956C43.6935 12.0045 43.6982 12.0127 43.7045 12.0196C43.7108 12.0265 43.7184 12.0321 43.7269 12.0359C43.7355 12.0397 43.7447 12.0417 43.754 12.0417C43.8823 12.0417 43.9451 12.0062 43.9426 11.9351C43.9421 11.9218 43.9451 11.9086 43.9514 11.8966C43.9577 11.8845 43.9672 11.8739 43.9791 11.8654C43.991 11.8569 44.005 11.8507 44.0202 11.8474C44.0354 11.8441 44.0514 11.8437 44.067 11.8462C45.0331 12.0007 45.984 12.2176 46.9196 12.4968C47.0703 12.5421 47.273 12.5483 47.5277 12.5153C47.9175 12.4645 48.2418 12.0792 48.5783 11.989C48.6151 11.9793 48.6565 11.9799 48.7027 11.9909C48.8825 12.0341 49.1083 12.1151 49.38 12.2341C49.486 12.2804 49.6497 12.3128 49.7564 12.3185C50.2515 12.3464 50.7106 12.3456 51.1338 12.3159C51.1526 12.3145 51.1714 12.3186 51.1878 12.3279C51.2042 12.3372 51.2174 12.3511 51.2259 12.368C51.3638 12.6422 51.5289 12.92 51.721 13.2014C51.7743 13.2795 51.853 13.4941 51.8536 13.6223C51.8541 13.6777 51.8318 13.7478 51.787 13.8324C51.6778 14.0381 51.5703 14.2943 51.4645 14.6011C51.4619 14.6087 51.4577 14.6157 51.4522 14.6216C51.4467 14.6275 51.44 14.6321 51.4325 14.6352C51.4251 14.6382 51.417 14.6397 51.409 14.6394C51.4009 14.6391 51.393 14.6371 51.3858 14.6335C51.2153 14.5476 51.0699 14.438 50.9497 14.3047C50.8012 14.1396 50.5998 13.92 50.3454 13.6458C50.279 13.5738 50.2157 13.5311 50.1556 13.5176C50.0943 13.5036 50.023 13.5072 49.9417 13.5283C49.9201 13.5338 49.9072 13.5474 49.903 13.569C49.8313 13.9397 50.0649 14.2272 50.287 14.4862C50.5371 14.7782 50.7288 15.1036 50.8621 15.4625C50.9561 15.7147 51.0246 15.8713 51.0678 15.9322C51.1402 16.0342 51.2603 16.1954 51.4283 16.4159C51.6302 16.6812 51.8299 17.0149 52.0276 17.4169C52.2006 17.769 52.4074 18.237 52.6477 18.821C52.6558 18.8413 52.6774 18.9169 52.7125 19.0476C52.7366 19.1382 52.7793 19.2012 52.8407 19.2368C52.9499 19.2998 53.0916 19.3838 53.266 19.4888C53.3604 19.5455 53.4526 19.6441 53.5428 19.7846C53.8817 20.3119 54.1284 20.8785 54.2829 21.4845C54.4416 22.1053 54.3965 22.9571 55.0218 23.3342C55.4458 23.59 55.7835 23.8071 55.9428 24.3295C55.9453 24.3384 56.037 24.6486 56.2177 25.2601C56.2989 25.5356 56.4762 25.7414 56.7496 25.8777C56.9819 25.9928 57.1639 26.0715 57.2955 26.1138C57.4457 26.1621 57.6465 26.2641 57.8979 26.4198C58.0418 26.5082 58.2576 26.6978 58.5453 26.9885C58.7565 27.2014 58.9825 27.4384 59.2233 27.6995C59.2753 27.7558 59.3166 27.818 59.347 27.8861C59.3657 27.9276 59.4027 27.9665 59.4581 28.0029C59.4835 28.0198 59.5129 28.0598 59.5464 28.1229C59.7127 28.4371 59.7139 28.8173 59.667 29.1861C59.6632 29.2132 59.6689 29.2286 59.6841 29.2324L59.7984 29.2597C59.8183 29.2644 59.8348 29.2748 59.8479 29.2908C60.1174 29.618 60.4814 29.7915 60.9397 29.8113C61.3011 29.827 61.5964 29.7572 61.8258 29.6019C61.8431 29.5899 61.8638 29.5839 61.8848 29.5847C61.9576 29.5877 62.1127 29.5991 62.3501 29.619C62.5279 29.6338 62.738 29.6245 62.9804 29.5911C63.0156 29.5864 63.0725 29.5479 63.1512 29.4756C63.2418 29.3922 63.3361 29.3137 63.4343 29.2401C63.4512 29.2274 63.4701 29.221 63.4908 29.221C63.6324 29.2204 63.8323 29.2312 63.9802 29.2051C64.4732 29.1188 64.7938 29.0636 64.9419 29.0395C65.0942 29.0149 65.2715 28.965 65.4738 28.8897C65.6452 28.8258 65.8189 28.7629 65.9949 28.7011C66.0908 28.6681 66.2368 28.571 66.3796 28.5551C66.402 28.553 66.4122 28.5632 66.4101 28.5856C66.3724 29.0101 66.347 29.2949 66.3339 29.44C66.2971 29.853 66.2577 30.1359 66.2158 30.2887C66.0489 30.9025 65.7283 31.4592 65.376 32.0153C65.0307 32.5605 64.7121 33.1293 64.3877 33.7228C64.2189 34.0313 64.0132 34.352 63.7707 34.6851C63.5426 34.9982 63.312 35.3029 63.0788 35.5991C62.9485 35.765 62.8144 35.9127 62.6764 36.0422C62.5769 36.1353 62.4263 36.2663 62.2244 36.4351C61.7903 36.7988 61.1434 36.9899 60.7473 37.2121C60.592 37.2993 60.4141 37.4442 60.2135 37.6469C60.0912 37.7705 59.8946 37.9861 59.6238 38.2937C59.5011 38.4334 59.1321 38.8735 58.5168 39.614C58.4692 39.6718 58.353 39.7727 58.2902 39.8667C58.2635 39.9073 58.2349 39.9414 58.2045 39.9689C58.1418 40.0247 57.9489 40.2236 57.6256 40.5655C57.2688 40.9426 56.9925 41.3169 56.7966 41.6884C56.7475 41.7811 56.6499 41.9768 56.5039 42.2756C56.4942 42.2955 56.4781 42.3054 56.4557 42.3054H56.2722C56.246 42.3054 56.2335 42.3186 56.2348 42.3448C56.2386 42.4303 56.2684 42.4963 56.3243 42.5428C56.3408 42.5564 56.3438 42.5727 56.3332 42.5917C56.2439 42.7504 56.1946 42.849 56.1853 42.8875C56.096 43.2481 56.0492 43.4819 56.045 43.5889C56.0412 43.688 56.0706 43.8297 56.1332 44.0142C56.1929 44.1907 56.3143 44.3041 56.4976 44.3545C56.5175 44.36 56.5245 44.3724 56.5185 44.3919C56.476 44.5284 56.356 44.6731 56.3675 44.8312C56.4051 45.3301 56.4362 45.796 56.4608 46.2289C56.4811 46.584 56.6019 46.8965 56.8232 47.1665C56.9324 47.3002 57.0147 47.403 57.0701 47.475C57.0795 47.4872 57.0803 47.4999 57.0727 47.5131C57.0249 47.5956 56.9967 47.6538 56.9883 47.6876C56.9709 47.7558 56.9893 47.8012 57.0435 47.8241C57.0625 47.8321 57.075 47.8461 57.0809 47.866C57.1876 48.2392 57.2449 48.502 57.253 48.6544C57.2707 48.9929 57.2902 49.3315 57.3114 49.67C57.319 49.7872 57.3141 50.0481 57.2968 50.4527C57.2631 51.2512 56.9495 52.211 56.2786 52.6902C56.0518 52.8523 55.815 52.9847 55.5683 53.0876C55.2251 53.2302 54.8675 53.3696 54.4955 53.5059C54.4012 53.5406 54.2852 53.6165 54.1477 53.7338C54.0825 53.7896 53.9699 53.9462 53.81 54.2035C53.7859 54.242 53.7385 54.2822 53.6678 54.3241C53.6323 54.3448 53.5753 54.3664 53.497 54.3888C53.0883 54.5069 52.7436 54.7534 52.463 55.1283C52.3407 55.2921 52.2715 55.4406 52.2554 55.5739C52.2042 56.0047 52.2688 56.4173 52.4491 56.8117C52.5121 56.9501 52.6236 57.1716 52.7836 57.4763C52.8559 57.6134 52.8883 57.788 52.8547 57.9676C52.7844 58.3375 52.6435 58.6926 52.4319 59.0328C52.3617 59.1454 52.2851 59.2272 52.2021 59.2784C51.7836 59.537 51.4694 59.7092 51.2595 59.7951C51.1469 59.8413 50.972 59.8707 50.7345 59.8834C50.7117 59.8846 50.6732 59.9035 50.619 59.9399C50.4419 60.0605 50.3613 60.4388 50.3664 60.607C50.3778 60.9887 50.3298 61.3306 50.2223 61.6328C50.2159 61.6514 50.203 61.6582 50.1836 61.6531C50.1493 61.6434 50.0987 61.6423 50.0319 61.6499C50.0094 61.6529 49.997 61.6656 49.9944 61.688C49.9817 61.8095 50.024 61.8837 50.1214 61.9108C50.1328 61.9139 50.1425 61.9214 50.1485 61.9318C50.1544 61.9421 50.1561 61.9544 50.1531 61.966C50.1138 62.1167 50.057 62.2758 49.983 62.4434C49.884 62.6675 49.5901 62.7919 49.3793 62.896C49.088 63.0401 48.9959 63.3282 48.8068 63.6755C48.7386 63.8003 48.6489 63.9243 48.5376 64.0474C48.4699 64.1223 48.3455 64.2692 48.1644 64.488C48.012 64.672 47.8561 64.8367 47.6966 64.9818C47.672 65.0038 47.5586 65.1043 47.3563 65.2833C47.2552 65.3726 47.1485 65.4797 47.0364 65.6045C46.7144 65.9646 46.3705 66.2763 46.0049 66.5395C45.9025 66.6127 45.7834 66.6857 45.6475 66.7585C45.5367 66.8178 45.4055 66.8649 45.254 66.9001C44.3128 67.1189 43.7384 67.2384 43.5306 67.2587C42.9229 67.3171 42.3036 67.3651 41.6726 67.4028C41.6155 67.4062 41.5582 67.4096 41.5006 67.413C41.4393 67.4168 41.3828 67.4257 41.3311 67.4396C41.0002 67.531 40.678 67.6004 40.3644 67.6478C40.2709 67.6618 40.1831 67.68 40.101 67.7024C40.0921 67.705 40.0032 67.7295 39.8344 67.776C39.7713 67.7935 39.7046 67.7926 39.642 67.7735C39.2802 67.6639 39.0214 67.5915 38.8657 67.5564C38.7811 67.5378 38.6624 67.5207 38.5096 67.505C38.5022 67.5042 38.4952 67.5015 38.4892 67.4971C38.4833 67.4927 38.4786 67.4867 38.4758 67.4799C38.473 67.4731 38.4721 67.4657 38.4733 67.4585C38.4744 67.4513 38.4775 67.4445 38.4823 67.439C38.5509 67.3577 38.5849 67.2538 38.5845 67.1273C38.5845 67.0456 38.5432 66.9669 38.4607 66.8912C38.3549 66.7939 38.2576 66.706 38.1687 66.6278C38.126 66.5897 38.1313 66.5598 38.1846 66.5383C38.3924 66.454 38.5155 66.3171 38.554 66.1276C38.6213 65.7958 38.5574 65.5017 38.3623 65.2452C38.1243 64.9317 37.8431 64.5933 37.7644 64.2296C37.6723 63.8037 37.5847 63.3619 37.3873 63.0972C37.3057 62.9876 37.2269 62.8761 37.1512 62.7627C37.1394 62.7453 37.1235 62.7333 37.1036 62.7265C37.0833 62.7193 37.0697 62.7132 37.063 62.7081C36.7947 62.5062 36.5932 62.316 36.4587 62.1374C36.201 61.7963 36.0129 61.3658 35.8944 60.8457C35.8072 60.4623 35.6976 59.869 35.5656 59.0658C35.5017 58.6769 35.5048 58.2723 35.5751 57.8521C35.5933 57.7425 35.5799 57.6094 35.5351 57.4529C35.5067 57.3534 35.4079 57.1901 35.2387 56.9628C34.694 56.2303 34.2761 55.6203 33.985 55.1328C33.6596 54.5886 33.4321 54.037 33.3026 53.478C33.3009 53.4703 33.3008 53.4624 33.3023 53.4548C33.3039 53.4471 33.3072 53.4399 33.3118 53.4337C33.3165 53.4274 33.3224 53.4222 33.3293 53.4184C33.3361 53.4147 33.3437 53.4125 33.3515 53.4119L34.0428 53.3631C34.0796 53.3605 34.098 53.3406 34.098 53.3034V53.2088C34.098 53.1855 34.0863 53.1739 34.0631 53.1739H33.3325C33.2796 53.1739 33.252 53.1474 33.2499 53.0946C33.2394 52.8495 33.2542 52.6236 33.2944 52.4166C33.3528 52.1126 33.5851 51.7463 33.6524 51.5026C33.8466 50.8037 33.9075 50.5206 34.0586 50.1359C34.0992 50.0318 34.1697 49.9169 34.27 49.7912C34.3398 49.7041 34.4651 49.5382 34.6458 49.2936C35.0533 48.7422 35.1591 48.1315 34.9632 47.4616C34.8743 47.157 34.6832 46.7856 34.6445 46.4536C34.6123 46.1765 34.6003 45.9173 34.6083 45.676C34.6117 45.5724 34.5776 45.3779 34.5061 45.0927C34.4714 44.9535 34.3479 44.7027 34.1354 44.3405C34.0504 44.1945 33.978 44.0212 33.8828 43.8232C33.8731 43.8029 33.8771 43.7861 33.8949 43.773C33.9571 43.7273 33.992 43.6683 33.9996 43.5959C34.0021 43.5752 33.996 43.5576 33.9812 43.5432C33.9469 43.5094 33.9044 43.4939 33.8536 43.4969C33.8252 43.4986 33.818 43.4872 33.832 43.4626C33.8633 43.4072 33.8794 43.3632 33.8803 43.3306C33.8807 43.3086 33.8722 43.291 33.8549 43.2779C33.8409 43.2673 33.8134 43.258 33.7723 43.25C33.7525 43.2457 33.7372 43.2349 33.7266 43.2176C33.6276 43.0526 33.5038 42.8697 33.5203 42.6914C33.5225 42.6677 33.514 42.651 33.495 42.6412L33.4543 42.6209C33.4399 42.6133 33.4275 42.6008 33.4169 42.5835C33.2362 42.2868 33.05 42.0238 32.8583 41.7945C32.4051 41.2524 31.7436 40.5402 31.2352 39.8292C31.1552 39.7175 31.0653 39.5616 30.9654 39.3614C30.954 39.339 30.9572 39.3191 30.9749 39.3017L31.2498 39.0269C31.2568 39.0199 31.2612 39.0105 31.2625 39.0002C31.2769 38.8927 31.2843 38.7996 31.2847 38.7209C31.2851 38.6481 31.3114 38.5616 31.3634 38.4613C31.44 38.3132 31.4859 38.2262 31.5012 38.2004C31.516 38.1754 31.52 38.1572 31.5132 38.1458L31.4275 37.9998C31.3784 37.9169 31.4013 37.8845 31.4961 37.9027C31.5409 37.9112 31.5981 37.9112 31.6675 37.9027C31.6775 37.9014 31.6869 37.8975 31.695 37.8913C31.703 37.8852 31.7093 37.8771 31.7132 37.8678C31.7347 37.8166 31.7417 37.7681 31.7341 37.7224C31.7303 37.6996 31.717 37.6856 31.6941 37.6805C31.6014 37.659 31.5064 37.66 31.4091 37.6837C31.3782 37.6909 31.3655 37.6788 31.371 37.6475L31.5081 36.903C31.5099 36.8933 31.515 36.8846 31.5226 36.8783C31.5301 36.8721 31.5396 36.8687 31.5494 36.8687H32.0858C32.145 36.8687 32.1736 36.8391 32.1715 36.7798C32.171 36.773 32.1702 36.7622 32.1689 36.7474C32.1676 36.7301 32.1602 36.7137 32.148 36.7013C32.1358 36.6888 32.1196 36.6811 32.1023 36.6795L31.6364 36.6344C31.6321 36.6341 31.628 36.6328 31.6242 36.6308C31.6205 36.6287 31.6172 36.6259 31.6146 36.6224C31.6121 36.619 31.6102 36.6151 31.6093 36.6109C31.6083 36.6068 31.6082 36.6025 31.6091 36.5983C31.6112 36.5856 31.6325 36.4641 31.6732 36.2339C31.7227 35.9525 31.6742 35.6876 31.5278 35.4392C31.3831 35.1929 31.2142 35.1453 30.9622 35.0228C30.7775 34.9326 30.6747 34.7467 30.5674 34.5848C30.5471 34.5539 30.5187 34.5401 30.4824 34.5435C30.4248 34.5486 30.1406 34.5738 29.6299 34.6191C29.2317 34.6546 28.8521 34.6707 28.4911 34.6673C28.2833 34.6652 28.1212 34.5988 28.0049 34.468C27.8824 34.3296 27.829 34.1417 27.7383 33.9138C27.6464 33.6819 27.4827 33.5072 27.247 33.3895C26.9977 33.2651 26.8062 33.187 26.6725 33.1553C26.3081 33.0694 25.9781 33.0163 25.6823 32.996C25.5811 32.9892 25.4406 32.993 25.2608 33.0074C25.0551 33.0239 24.914 33.0239 24.8374 33.0074C24.7265 32.9841 24.6586 32.9733 24.6336 32.975C24.6125 32.9767 24.5981 32.9875 24.5905 33.0074C24.5566 33.0984 24.5056 33.1551 24.4375 33.1775C24.3194 33.2169 24.1821 33.2459 24.0255 33.2645C24.0051 33.267 23.9856 33.2749 23.969 33.2873C23.7811 33.4291 23.6565 33.5089 23.5951 33.5266C22.9164 33.7243 22.2124 33.9987 21.4833 34.3499C21.4287 34.3762 21.372 34.391 21.3132 34.3944C21.2934 34.3956 21.2742 34.3902 21.2586 34.3791L20.9228 34.143C20.9037 34.1294 20.8934 34.111 20.8917 34.0878L20.8758 33.8637C20.872 33.8121 20.8441 33.7863 20.792 33.7863H20.6613C20.6249 33.7863 20.6079 33.8044 20.6105 33.8408L20.6346 34.1804C20.638 34.2295 20.6153 34.2572 20.5667 34.2636C20.46 34.2776 20.3743 34.2627 20.3096 34.2192C20.032 34.0313 19.7275 33.9587 19.3962 34.0014C18.538 34.111 17.9318 34.2056 17.5776 34.2852C17.3952 34.3266 17.1472 34.4246 16.8336 34.5791C16.7998 34.596 16.7862 34.5856 16.793 34.548L16.8324 34.3347C16.8429 34.2776 16.819 34.2509 16.7606 34.2547L16.6337 34.2642C16.5723 34.2685 16.5437 34.301 16.548 34.362L16.5689 34.6552C16.5706 34.6772 16.5611 34.6844 16.5404 34.6768C16.3542 34.6087 16.2363 34.5554 16.1868 34.5169C16.0097 34.3779 15.8834 34.2776 15.7018 34.1811C15.318 33.978 15.0923 33.8476 15.0245 33.7901C14.8261 33.6204 14.672 33.4839 14.5624 33.3806C14.4171 33.2442 14.2927 33.1921 14.1149 33.1204C13.9124 33.0385 13.8052 32.8703 13.7023 32.6767C13.6917 32.6564 13.6884 32.6352 13.6922 32.6132L13.7093 32.5212C13.7144 32.4937 13.703 32.4799 13.675 32.4799C13.6077 32.4799 13.5493 32.4856 13.4846 32.4564C13.2083 32.3329 12.9131 32.211 12.5991 32.0908C12.5299 32.0648 12.4188 31.9759 12.3725 31.908C12.1865 31.635 11.9992 31.4027 11.9548 31.072C11.9519 31.0479 11.9624 31.0358 11.9866 31.0358C12.1313 31.0333 12.2068 30.9713 12.2132 30.8498C12.2137 30.8401 12.2122 30.8305 12.2087 30.8214C12.2053 30.8124 12.1999 30.8042 12.193 30.7974C12.1861 30.7906 12.1778 30.7853 12.1687 30.782C12.1595 30.7787 12.1498 30.7774 12.1402 30.7781L11.9669 30.7902C11.9457 30.7919 11.9305 30.783 11.9212 30.7635C11.7845 30.4753 11.6279 30.2551 11.4514 30.1027C11.0985 29.7972 10.8368 29.5151 10.6662 29.2566C10.6557 29.2405 10.6521 29.2231 10.6555 29.2045L10.6904 29.0141Z" fill="#727372"/>
</g>
<defs>
<clipPath id="clip0_1387_5240">
<rect width="75" height="75" fill="white"/>
</clipPath>
</defs>
</svg>
