<svg width="38" height="38" viewBox="0 0 38 38" fill="none" xmlns="http://www.w3.org/2000/svg">
<g clip-path="url(#clip0_665_9256)">
<path d="M19.687 0C22.8844 0.141502 25.7982 0.973774 28.4281 2.49682C31.0839 4.03355 33.2327 6.05071 34.8744 8.54829C36.7946 11.4681 37.8364 14.72 38 18.3039V19.6984C37.8364 23.2641 36.8098 26.4924 34.9201 29.3832C32.7382 32.7199 29.7591 35.151 25.9826 36.6763C24.0495 37.4576 21.9548 37.8988 19.6984 38H18.3119C13.9702 37.7824 10.1615 36.3286 6.88565 33.6386C6.2991 33.157 5.74374 32.6374 5.21958 32.0798C1.99852 28.6533 0.258659 24.5262 0 19.6984V18.313C0.204645 14.0117 1.60368 10.2665 4.19712 7.07736C6.06783 4.77606 8.32158 3.00995 10.9584 1.77904C13.2521 0.707888 15.7006 0.114875 18.3039 0H19.687ZM19.0514 14.0246C20.7456 14.0246 21.908 14.0212 22.5387 14.0144C24.2892 13.9969 26.0538 13.9889 27.8324 13.9904C27.8615 13.9904 27.89 13.9826 27.9149 13.968C27.9398 13.9533 27.9602 13.9323 27.9739 13.9071L28.9679 12.1326C28.9778 12.1145 28.9825 12.094 28.9815 12.0736C28.9805 12.0533 28.9738 12.0338 28.9622 12.0174C28.1573 10.8602 27.1961 9.88533 26.0785 9.09261C26.0374 9.0637 25.9956 9.0618 25.953 9.08691L23.5988 10.438C23.565 10.4575 23.5269 10.468 23.4881 10.4686C23.4494 10.4692 23.4112 10.4599 23.3774 10.4414C22.9286 10.1972 22.4736 10.0078 22.0126 9.87315C21.9784 9.8625 21.9563 9.83968 21.9464 9.80468L21.1682 7.09447C21.1552 7.04959 21.1263 7.02486 21.0814 7.0203L20.6478 6.97465C20.6166 6.97085 20.5896 6.95449 20.5668 6.92559C20.531 6.87842 20.4751 6.85712 20.399 6.86168C20.3686 6.86396 19.9194 6.86511 19.0514 6.86511C18.1826 6.86511 17.733 6.86396 17.7025 6.86168C17.6264 6.85712 17.5705 6.87842 17.5348 6.92559C17.512 6.95449 17.4849 6.97085 17.4538 6.97465L17.0201 7.0203C16.9752 7.02486 16.9463 7.04997 16.9334 7.09562L16.1563 9.80583C16.1464 9.84082 16.1243 9.86364 16.0901 9.87429C15.6291 10.0089 15.1741 10.1984 14.7253 10.4426C14.6915 10.461 14.6533 10.4704 14.6146 10.4698C14.5758 10.4692 14.5377 10.4586 14.5039 10.4392L12.1497 9.08919C12.1071 9.06408 12.0653 9.06599 12.0242 9.09489C10.9066 9.88761 9.94543 10.8625 9.14054 12.0196C9.12892 12.0361 9.12222 12.0556 9.12122 12.0759C9.12021 12.0963 9.12493 12.1167 9.13484 12.1349L10.1299 13.9094C10.1437 13.9346 10.1641 13.9556 10.189 13.9703C10.2139 13.9849 10.2423 13.9927 10.2714 13.9927C12.0501 13.9904 13.8147 13.998 15.5652 14.0155C16.1958 14.0223 17.3579 14.0254 19.0514 14.0246ZM19.0456 14.5256C19.4279 14.5256 19.8501 14.5621 20.2028 14.5632C22.8274 14.5716 25.2523 14.5693 27.4775 14.5564C27.5414 14.5556 27.6053 14.5241 27.6692 14.4617C27.6791 14.4518 27.6898 14.4339 27.7012 14.408C27.7309 14.3426 27.7099 14.3099 27.6384 14.3099C25.0138 14.3 22.1495 14.2958 19.0456 14.2974C15.9417 14.2966 13.0775 14.3012 10.4529 14.3111C10.3813 14.3111 10.3604 14.3438 10.3901 14.4092C10.4015 14.4351 10.4122 14.4529 10.422 14.4628C10.4859 14.5252 10.5499 14.5568 10.6138 14.5575C12.839 14.5705 15.2639 14.5724 17.8885 14.5632C18.2411 14.5621 18.6634 14.5256 19.0456 14.5256ZM17.318 14.828L10.4529 14.796C10.4432 14.796 10.4337 14.7987 10.4254 14.8037C10.4172 14.8087 10.4105 14.816 10.4061 14.8246L10.1368 15.3849C10.1291 15.4008 10.1333 15.4088 10.1493 15.4088C12.0223 15.4172 14.0216 15.4168 16.1471 15.4077C16.278 15.4069 16.402 15.3681 16.5192 15.2913C16.7733 15.1254 17.0418 14.9843 17.3248 14.8679C17.391 14.8413 17.3887 14.828 17.318 14.828ZM20.787 14.8736C21.1423 15.0182 21.4458 15.1795 21.6977 15.3575C21.7479 15.3932 21.838 15.4111 21.9681 15.4111C24.7852 15.4157 26.7784 15.4145 27.9477 15.4077C27.9516 15.4077 27.9554 15.4067 27.9589 15.4048C27.9623 15.403 27.9652 15.4002 27.9672 15.3969C27.9693 15.3936 27.9705 15.3898 27.9706 15.3859C27.9708 15.382 27.97 15.3781 27.9682 15.3746L27.7046 14.8645C27.6925 14.8409 27.6731 14.8291 27.6464 14.8291L20.7962 14.8246C20.7079 14.8246 20.7049 14.8409 20.787 14.8736ZM9.84577 16.1414C9.0637 16.4115 8.41173 16.5861 7.88985 16.6652C7.86246 16.6698 7.85447 16.6846 7.86589 16.7097C7.87121 16.7219 7.88224 16.7284 7.89898 16.7291C10.5289 16.7428 12.9268 16.7356 15.0927 16.7074C15.0998 16.7074 15.1068 16.7059 15.1131 16.7029C15.1194 16.7 15.125 16.6957 15.1292 16.6903L15.8482 15.8139C15.8573 15.804 15.855 15.7991 15.8413 15.7991L10.0512 15.7911C10.0131 15.7911 9.98955 15.8082 9.98042 15.8425L9.91994 16.0604C9.90853 16.1015 9.8838 16.1285 9.84577 16.1414ZM28.1987 16.0764C28.179 15.995 28.1459 15.9201 28.0995 15.8516C28.0892 15.8368 28.0755 15.8247 28.0594 15.8163C28.0433 15.808 28.0253 15.8036 28.007 15.8037L22.2511 15.798C22.2382 15.798 22.2359 15.8029 22.2443 15.8128L22.9632 16.6789C22.9769 16.6957 22.9948 16.7044 23.0168 16.7052C25.4802 16.7394 27.8693 16.7466 30.1843 16.7268C30.2018 16.7268 30.2117 16.7189 30.214 16.7029C30.2153 16.6946 30.2133 16.6861 30.2084 16.6792C30.2035 16.6724 30.1961 16.6678 30.1877 16.6664C29.5913 16.5599 28.9439 16.3807 28.2455 16.1289C28.234 16.1247 28.2237 16.1177 28.2155 16.1085C28.2074 16.0994 28.2016 16.0883 28.1987 16.0764ZM6.93015 17.8338L6.90733 17.8532C6.87766 17.8767 6.86282 17.9125 6.86282 17.9604L6.86511 18.5995C6.86511 18.6191 6.8728 18.638 6.8865 18.6519C6.90019 18.6658 6.91877 18.6736 6.93814 18.6736L14.4891 18.6782C14.5006 18.6785 14.5119 18.6743 14.5205 18.6665C14.5292 18.6587 14.5347 18.6478 14.5359 18.636C14.5868 18.1803 14.6983 17.7425 14.8702 17.3225C14.8728 17.3161 14.8738 17.3092 14.8731 17.3023C14.8724 17.2955 14.8701 17.2889 14.8663 17.2831C14.8624 17.2774 14.8572 17.2727 14.8512 17.2694C14.8451 17.2661 14.8383 17.2644 14.8314 17.2643L7.10018 17.2518C7.0553 17.2518 7.02981 17.2754 7.02372 17.3225L6.97009 17.7562C6.96553 17.7904 6.95221 17.8163 6.93015 17.8338ZM31.1383 17.8634L31.0847 17.3271C31.083 17.312 31.0759 17.2981 31.0646 17.2878C31.0532 17.2775 31.0385 17.2716 31.0231 17.2712C28.7864 17.2453 26.2143 17.248 23.3067 17.2792C23.297 17.2793 23.2875 17.2819 23.2791 17.2866C23.2706 17.2913 23.2634 17.298 23.2581 17.3061C23.2528 17.3142 23.2496 17.3234 23.2487 17.3331C23.2478 17.3427 23.2493 17.3524 23.253 17.3613C23.4151 17.7493 23.5185 18.1632 23.5634 18.6029C23.5657 18.6235 23.5756 18.6426 23.5914 18.6565C23.6072 18.6704 23.6277 18.6781 23.649 18.6782L31.1566 18.6736C31.1691 18.6736 31.1814 18.6711 31.1929 18.6663C31.2044 18.6615 31.2148 18.6544 31.2236 18.6454C31.2323 18.6365 31.2391 18.6259 31.2437 18.6143C31.2483 18.6027 31.2505 18.5903 31.2502 18.5778C31.2479 18.4233 31.2494 18.2514 31.2547 18.062C31.2555 18.0338 31.2536 18.0141 31.249 18.0026C31.2391 17.9791 31.2239 17.9619 31.2034 17.9513C31.1638 17.9315 31.1421 17.9022 31.1383 17.8634ZM6.96438 20.3682L7.03856 21.0586C7.04263 21.0957 7.05804 21.1307 7.08273 21.1589C7.10742 21.187 7.14019 21.207 7.17664 21.2161C8.24474 21.4786 9.07207 21.7037 9.65862 21.8917C9.89978 21.9685 10.1626 22.0077 10.4471 22.0092C11.9679 22.0198 13.6621 22.0183 15.5298 22.0046C15.5389 22.0046 15.5478 22.002 15.5555 21.997C15.5631 21.9921 15.5692 21.9851 15.5731 21.9769C15.5769 21.9686 15.5783 21.9594 15.5771 21.9504C15.5759 21.9414 15.5722 21.9329 15.5663 21.9259C14.9881 21.2313 14.6488 20.4443 14.5484 19.5649C14.5423 19.5116 14.5127 19.485 14.4594 19.485L7.02144 19.4816C6.98067 19.4816 6.94154 19.4976 6.9125 19.5262C6.88346 19.5548 6.86685 19.5937 6.86625 19.6345C6.86396 19.8018 6.86282 19.9791 6.86282 20.1662C6.86282 20.1898 6.86815 20.2104 6.8788 20.2279C6.88945 20.2438 6.90276 20.2602 6.91874 20.2769C6.94537 20.3036 6.96058 20.334 6.96438 20.3682ZM31.1942 20.1662L31.2262 20.1503C31.2437 20.1411 31.2524 20.1267 31.2524 20.1069L31.249 19.6584C31.2487 19.6108 31.2296 19.5653 31.1958 19.5317C31.162 19.4981 31.1163 19.4793 31.0687 19.4793L23.6536 19.4873C23.6133 19.4873 23.5885 19.5067 23.5794 19.5455C23.4961 19.9038 23.4037 20.3911 23.2644 20.7345C23.0872 21.1705 22.8407 21.571 22.525 21.9362C22.5197 21.9421 22.5162 21.9494 22.515 21.9573C22.5138 21.9651 22.5149 21.9732 22.5181 21.9804C22.5214 21.9876 22.5267 21.9938 22.5334 21.9981C22.5401 22.0024 22.5478 22.0047 22.5558 22.0046C24.4425 22.0168 26.1553 22.0183 27.6944 22.0092C27.9492 22.0077 28.2143 21.9639 28.4897 21.878C29.1044 21.6878 29.931 21.4622 30.9694 21.2013C30.9936 21.1952 31.0153 21.1817 31.0316 21.1625C31.0479 21.1433 31.0581 21.1194 31.0607 21.094L31.1486 20.2427C31.1524 20.2054 31.1676 20.1799 31.1942 20.1662ZM27.6111 23.447L27.716 23.2393C27.7358 23.199 27.7225 23.1789 27.6761 23.1789C25.2919 23.169 23.1496 23.169 21.2492 23.1789C20.9331 23.1811 20.7014 23.2895 20.3899 23.3854C19.3754 23.6958 18.2993 23.6285 17.2677 23.2473C17.1468 23.2032 17.0235 23.1804 16.898 23.1789C14.7435 23.1629 12.605 23.1674 10.4825 23.1926C10.4678 23.1927 10.4534 23.1967 10.4408 23.2043C10.4282 23.2119 10.4178 23.2227 10.4108 23.2356C10.4038 23.2486 10.4005 23.2632 10.401 23.2779C10.4016 23.2926 10.4061 23.3069 10.4141 23.3192C10.5065 23.4619 10.4951 23.5703 10.4026 23.7277C9.97586 24.4634 9.54983 25.2074 9.12456 25.9598C9.11216 25.9816 9.10583 26.0064 9.10623 26.0315C9.10663 26.0565 9.11375 26.0811 9.12685 26.1025C9.23411 26.2725 9.34138 26.511 9.58559 26.5121C15.9364 26.5296 22.2446 26.5296 28.5103 26.5121C28.5884 26.5119 28.6651 26.491 28.7326 26.4515C28.8 26.4121 28.856 26.3554 28.8949 26.2872C28.9338 26.219 28.9543 26.1416 28.9543 26.0628C28.9542 25.9839 28.9338 25.9063 28.8948 25.8377L27.6168 23.576C27.5924 23.5319 27.5905 23.4889 27.6111 23.447ZM10.9013 28.1268L11.9808 28.9701C12.0031 28.9874 12.0296 28.998 12.057 29.0007C12.0843 29.0033 12.1114 28.9979 12.1349 28.985L13.777 28.0766C13.8029 28.0629 13.801 28.0561 13.7713 28.0561L10.9219 28.0732C10.8618 28.0732 10.8549 28.0911 10.9013 28.1268ZM19.0514 31.249C19.7779 31.249 20.2172 31.2463 20.3694 31.241C20.396 31.2403 20.4302 31.2212 20.4721 31.184C20.4863 31.172 20.5044 31.1638 20.5246 31.16L21.0575 31.0778C21.0901 31.0727 21.1202 31.0593 21.1442 31.0392C21.1681 31.0191 21.1848 30.9933 21.1921 30.9649C21.5421 29.6518 21.7779 28.8035 21.8996 28.4201C21.9415 28.29 22.0834 28.1934 22.3253 28.1303C22.5193 28.0793 22.5159 28.0538 22.315 28.0538C21.2378 28.05 20.1499 28.0481 19.0514 28.0481C17.9528 28.0481 16.8649 28.0504 15.7877 28.055C15.5868 28.055 15.5834 28.0804 15.7774 28.1314C16.0193 28.1946 16.1612 28.2912 16.2031 28.4213C16.3248 28.8047 16.561 29.6529 16.9117 30.966C16.9191 30.9944 16.9358 31.0202 16.9597 31.0403C16.9836 31.0604 17.0137 31.0738 17.0464 31.079L17.5793 31.16C17.5995 31.1638 17.6176 31.172 17.6318 31.184C17.6736 31.2212 17.7078 31.2403 17.7345 31.241C17.8866 31.2463 18.3256 31.249 19.0514 31.249ZM25.9507 28.9701C25.9757 28.9841 26.0042 28.9903 26.0327 28.9881C26.0611 28.9858 26.0882 28.9752 26.1105 28.9576L27.19 28.1166C27.2394 28.0778 27.2326 28.0588 27.1694 28.0595L24.3622 28.0686C24.3189 28.0686 24.317 28.0797 24.3565 28.1017L25.9507 28.9701Z" fill="#111111"/>
</g>
<defs>
<clipPath id="clip0_665_9256">
<rect width="38" height="38" fill="white"/>
</clipPath>
</defs>
</svg>
