<svg width="75" height="75" viewBox="0 0 75 75" fill="none" xmlns="http://www.w3.org/2000/svg">
<g clip-path="url(#clip0_1387_5238)">
<path d="M1.25 1.25V73.75H73.75V1.25H1.25Z" stroke="#727372" stroke-width="2.5"/>
<path d="M63.1938 33.3307C63.3791 33.3175 63.5585 33.3635 63.732 33.4684C63.805 33.5122 63.9345 33.5382 64.0297 33.5446C64.2456 33.5585 64.4011 33.5748 64.4963 33.5935C64.5784 33.6091 64.623 33.6447 64.6302 33.7001C64.634 33.7289 64.6237 33.7765 64.5991 33.8429C64.4747 34.18 64.5261 34.4117 64.6683 34.7424C64.7166 34.8549 64.8022 34.9874 64.9254 35.1397C65.2309 35.5181 65.5035 35.8276 65.743 36.0684C65.7518 36.0774 65.757 36.0894 65.7575 36.102C65.7579 36.1147 65.7537 36.1272 65.7455 36.137C65.5183 36.4099 65.2859 36.5375 64.907 36.7705C64.8558 36.8018 64.8107 36.8477 64.7718 36.9082C64.667 37.0713 64.7083 37.3824 64.7413 37.5887C64.7807 37.8345 64.8078 37.9831 64.8226 38.0343C64.8547 38.1443 64.8617 38.289 64.8435 38.4685C64.8321 38.5802 64.8266 38.7442 64.827 38.9604C64.827 39.0395 64.8067 39.1959 64.7661 39.4295C64.7487 39.5302 64.7472 39.5996 64.7616 39.6377C64.8188 39.7907 64.992 39.8916 65.1361 39.9678C65.1552 39.9779 65.1694 39.9927 65.1787 40.0122C65.2113 40.0791 65.2294 40.1447 65.2333 40.209C65.2344 40.2284 65.2425 40.2466 65.2561 40.2604C65.2696 40.2742 65.2877 40.2825 65.3069 40.2839C65.6729 40.3118 65.9258 40.3351 66.0654 40.3537C66.2427 40.377 66.3919 40.4178 66.5129 40.4762C66.7465 40.5879 66.7732 40.918 66.9801 41.0342C67.0874 41.0945 67.2429 41.1529 67.2213 41.2932C67.215 41.3359 67.1951 41.3594 67.1617 41.3636C67.1397 41.3662 67.1257 41.3566 67.1198 41.3351C67.0893 41.2189 66.9192 40.9148 66.7592 41.0202C66.4249 41.2398 66.057 41.3886 65.6554 41.4665C65.5259 41.4914 65.4324 41.5744 65.3748 41.7153C65.3088 41.8759 65.2466 42.1298 65.3005 42.3094C65.3065 42.3297 65.3183 42.3458 65.3361 42.3577C65.4212 42.4167 65.4764 42.4408 65.5151 42.5291C65.5693 42.6526 65.6236 42.7927 65.6782 42.9493C65.6848 42.9682 65.6855 42.9887 65.6803 43.008C65.6751 43.0274 65.6642 43.0447 65.649 43.0578L65.0765 43.5561C65.06 43.5709 65.0488 43.5891 65.0428 43.6107C65.0069 43.7478 64.9781 43.8331 64.9565 43.8665C64.5947 44.4259 64.1863 45.0558 63.7314 45.7562C63.6267 45.9168 63.5841 46.0501 63.5219 46.2253C63.5149 46.2448 63.5026 46.2619 63.4864 46.2748C63.4039 46.3417 63.2716 46.403 63.0897 46.4589C63.0118 46.483 62.9781 46.5509 62.9887 46.6627C63.0031 46.8091 63.0476 46.9496 63.122 47.0841C63.1318 47.1023 63.1358 47.1218 63.1341 47.1425C63.121 47.3008 63.1646 47.4508 63.2649 47.5926C63.366 47.7356 63.4532 47.8624 63.5264 47.9728C63.5374 47.9897 63.5422 48.0081 63.541 48.028C63.5105 48.447 63.4893 48.688 63.4775 48.751C63.436 48.9643 63.315 49.1135 63.1144 49.1985C62.9561 49.2654 62.7953 49.3022 62.632 49.309C62.5019 49.3147 62.4244 49.368 62.3381 49.4524C62.1015 49.6843 61.9528 49.842 61.8919 49.9253C61.8351 50.0028 61.7497 50.0768 61.6354 50.1475C61.434 50.2715 61.2465 50.4799 61.073 50.7728C60.8432 51.1606 60.7118 51.3878 60.6401 51.782C60.5974 52.0165 60.5599 52.271 60.5277 52.5457C60.4994 52.792 60.4086 53.0012 60.2554 53.1734C60.2382 53.1932 60.2286 53.2184 60.2285 53.2446C60.2284 53.2707 60.2377 53.296 60.2548 53.3156L60.4071 53.4902C60.4194 53.5041 60.4262 53.5219 60.4262 53.5403C60.4279 53.6944 60.4831 53.8808 60.5919 54.0996C60.6388 54.1935 60.635 54.3228 60.5804 54.4874C60.496 54.7432 60.3367 55.1209 60.1234 55.284C59.7929 55.5375 59.4281 55.7506 59.0291 55.9232C58.8773 55.9893 58.7263 55.9842 58.5574 55.981C58.5278 55.9807 58.4991 55.9914 58.4771 56.0111C58.4551 56.0307 58.4414 56.0578 58.4387 56.087L58.4222 56.254C58.4212 56.2635 58.4182 56.2727 58.4134 56.2809C58.4086 56.2891 58.4021 56.2962 58.3943 56.3016C58.0395 56.551 57.769 56.9611 57.5348 57.3458C57.4608 57.4681 57.3647 57.5288 57.2466 57.5279C57.2221 57.5275 57.2085 57.5396 57.206 57.5641L57.1863 57.7666C57.1838 57.7895 57.1766 57.8106 57.1647 57.8301C56.9318 58.2021 56.483 58.2014 56.1472 58.4033C56.0918 58.4363 55.8597 58.5571 55.4509 58.7657C55.3121 58.8368 55.0817 58.9598 54.7596 59.1345C54.2933 59.3884 53.8126 59.6127 53.3174 59.8074C53.2645 59.8281 53.1795 59.9142 53.0623 60.0657C53.05 60.0818 53.0337 60.0894 53.0134 60.0886C52.9855 60.0873 52.9465 60.0805 52.8966 60.0683C52.8276 60.0509 52.7478 60.0615 52.6573 60.1C52.6382 60.108 52.619 60.108 52.5995 60.1C52.5398 60.075 52.4798 60.0626 52.4192 60.0626C52.3968 60.0626 52.3801 60.0725 52.3691 60.0924C52.2455 60.3196 52.1689 60.5363 52.1393 60.7424C52.13 60.8088 52.0959 60.8283 52.0371 60.8008L52.0174 60.7913C51.9548 60.7621 51.93 60.7138 51.9432 60.6465L52.0422 60.1419C52.057 60.0662 52.0267 60.037 51.9514 60.0543C51.5612 60.1436 51.1884 60.0947 50.833 59.9077C50.7407 59.859 50.6745 59.8802 50.6343 59.9711C50.6262 59.9902 50.6123 59.997 50.5924 59.9915C50.4358 59.9479 50.2727 59.9519 50.103 60.0035C49.8842 60.0704 49.7217 60.136 49.6155 60.2003C49.3823 60.3421 49.2245 60.4432 49.1419 60.5037C49.1347 60.5091 49.1258 60.5119 49.1167 60.5115C49.1076 60.5112 49.0988 60.5078 49.0918 60.5018C49.0546 60.4705 49.0116 60.4483 48.9629 60.4352C48.9414 60.4297 48.921 60.4322 48.902 60.4428C48.7564 60.5232 48.609 60.6286 48.4596 60.7589C48.2357 60.9548 48.0719 61.1116 47.9683 61.2293C47.9539 61.2458 47.9363 61.2496 47.9156 61.2407C47.7539 61.17 47.4799 61.0553 47.0936 60.8966C46.9526 60.8387 46.8428 60.8122 46.7641 60.8173C46.6126 60.827 46.4973 60.8425 46.4182 60.8636C46.3433 60.8839 46.2715 60.9303 46.203 61.0026C46.1887 61.0175 46.1709 61.0287 46.1512 61.0352C46.1316 61.0417 46.1105 61.0434 46.09 61.0401C45.9279 61.013 45.7434 61.0077 45.5365 61.0242C45.3613 61.0378 45.2428 61.0367 45.181 61.021C44.9918 60.9715 44.8052 60.8097 44.6618 60.6694C44.6165 60.6254 44.5395 60.5934 44.4307 60.5735C44.0283 60.5012 43.7593 60.4606 43.6239 60.4517C43.5359 60.4462 43.4623 60.4284 43.403 60.3983C43.3049 60.3488 43.2344 60.3122 43.1917 60.2885C43.1752 60.2795 43.157 60.2739 43.1384 60.2722C43.1198 60.2705 43.1014 60.2727 43.0844 60.2787C43.0674 60.2846 43.0524 60.2942 43.0404 60.3067C43.0284 60.3192 43.0198 60.3342 43.0152 60.3507C43.0033 60.3935 42.9644 60.4223 42.8984 60.4371C42.5844 60.5056 42.2245 60.5234 41.8187 60.4904C41.61 60.473 41.4272 60.4104 41.2702 60.3025C41.1077 60.1904 41.0239 60.1328 41.0188 60.1298C40.7074 59.9483 40.4184 59.7746 40.1518 59.6087C40.1323 59.5964 40.0836 59.5873 40.0058 59.5814C39.9736 59.5789 39.9687 59.5657 39.9912 59.542L40.1886 59.3313C40.206 59.3125 40.2169 59.2887 40.2198 59.2633C40.2227 59.238 40.2173 59.2124 40.2044 59.1904L39.9702 58.7841C39.9491 58.7477 39.944 58.7094 39.955 58.6692C40.0443 58.3396 40.1532 58.0192 40.2819 57.7082C40.3145 57.6299 40.3718 57.5497 40.4539 57.4676C40.6786 57.2417 40.8966 57.0614 41.1077 56.9268C41.1255 56.9154 41.1369 56.8995 41.142 56.8792C41.1581 56.8174 41.1602 56.7501 41.1483 56.6773C41.145 56.6549 41.1543 56.6414 41.1763 56.6367C41.3273 56.6063 41.4132 56.522 41.434 56.3841C41.4484 56.2901 41.4097 56.1863 41.3178 56.0724C41.3034 56.0546 41.3047 56.0381 41.3216 56.0229C41.3604 55.9886 41.4137 55.9543 41.4429 55.9029C41.5906 55.6418 41.6543 55.3619 41.6339 55.0631C41.6327 55.0424 41.6242 55.0253 41.6085 55.0117C41.4968 54.9127 41.2385 54.9229 41.1007 54.9298C41.0042 54.9345 40.9975 54.9121 41.0804 54.8626C41.1718 54.808 41.3119 54.7866 41.5006 54.7984C41.5072 54.799 41.5138 54.7981 41.52 54.7959C41.5262 54.7937 41.5319 54.7903 41.5368 54.7857C41.5416 54.7812 41.5455 54.7757 41.5481 54.7696C41.5507 54.7635 41.5521 54.7569 41.5521 54.7502C41.5525 54.0888 41.3917 53.5226 41.0696 53.0516C40.9664 52.9001 40.8942 52.7799 40.8532 52.691C40.7821 52.5374 40.7087 52.4155 40.6329 52.3254C40.539 52.2137 40.4964 52.1572 40.3327 52.1527C40.0487 52.1447 39.8511 52.1443 39.7398 52.1515C39.7261 52.1524 39.713 52.1575 39.7023 52.1661C39.6916 52.1748 39.6839 52.1865 39.6801 52.1997C39.6683 52.2408 39.6638 52.2831 39.6668 52.3267C39.6681 52.3466 39.6753 52.3639 39.6884 52.3787L39.8287 52.5399C39.8439 52.5577 39.8524 52.5782 39.8541 52.6015L39.8744 52.8891C39.8769 52.9246 39.868 52.9267 39.8477 52.8954C39.8363 52.8781 39.8221 52.8641 39.8052 52.8535C39.7874 52.8425 39.7671 52.8351 39.7442 52.8313C39.5792 52.8068 39.3867 52.7691 39.1666 52.7183C39.1353 52.7111 39.0602 52.7149 38.9413 52.7297C38.9214 52.7323 38.9104 52.7435 38.9083 52.7634L38.8879 52.9748C38.8872 52.9816 38.885 52.9883 38.8816 52.9943C38.8783 53.0003 38.8737 53.0056 38.8683 53.0098C38.8629 53.0141 38.8566 53.0172 38.85 53.019C38.8433 53.0209 38.8364 53.0214 38.8295 53.0205C38.5807 52.9879 38.2394 52.9519 37.8057 52.9126C37.3677 52.8726 37.0433 52.6364 36.6523 52.3787C36.5804 52.3309 36.3732 52.2452 36.0309 52.1216C35.8633 52.0611 35.6858 52.0256 35.4983 52.015C35.39 52.0091 35.1426 51.9909 34.7563 51.9604C34.5438 51.9439 34.3015 51.8959 34.0294 51.8163C33.3553 51.6204 32.9309 51.4829 32.7561 51.4037C32.7117 51.3834 32.6334 51.3388 32.5212 51.2698C32.3968 51.193 32.3333 51.1993 32.2121 51.205C32.198 51.2057 32.1842 51.2098 32.1719 51.2169C32.1597 51.224 32.1493 51.234 32.1416 51.2459C32.134 51.2579 32.1293 51.2716 32.128 51.2858C32.1267 51.3 32.1287 51.3143 32.134 51.3275L32.2083 51.5097C32.2189 51.5351 32.2113 51.5527 32.1854 51.5624C32.0928 51.5984 32.0126 51.6128 31.9449 51.6056C31.7401 51.5831 31.5526 51.6035 31.3825 51.6665C31.3431 51.6809 31.2786 51.6745 31.1889 51.6475C31.097 51.62 31.0346 51.6035 31.0016 51.598C30.8353 51.5713 30.6779 51.5673 30.5293 51.5859C30.4976 51.5901 30.4775 51.6077 30.469 51.6386C30.4136 51.84 30.3239 52.0347 30.1999 52.2226C30.1879 52.2409 30.1692 52.2538 30.1479 52.2584C30.1265 52.263 30.1041 52.2591 30.0856 52.2473C29.9428 52.1578 29.814 52.0524 29.6407 51.975C29.3745 51.8561 29.1263 51.7101 28.8961 51.537C28.8313 51.4881 28.7272 51.4672 28.6454 51.5008C28.4693 51.5736 28.2996 51.6166 28.1363 51.6297C28.1126 51.6318 28.0988 51.6445 28.095 51.6678C28.0899 51.6987 28.0819 51.7268 28.0709 51.7522C27.989 51.9344 27.5117 51.9763 27.3219 52.0093C27.2436 52.0228 27.1147 52.0637 26.9353 52.1318C26.7258 52.2113 26.4774 52.253 26.1901 52.2568C26.0377 52.259 25.9131 52.2323 25.8162 52.1769C25.589 52.0478 25.3861 51.9158 25.2075 51.7808C25.1902 51.7676 25.1703 51.7583 25.1491 51.7535C25.1279 51.7486 25.106 51.7483 25.0847 51.7526C25.0635 51.7568 25.0434 51.7656 25.0258 51.7782C25.0082 51.7908 24.9935 51.8071 24.9828 51.8258L24.9561 51.8715C24.9447 51.8914 24.9275 51.9024 24.9047 51.9045C24.8662 51.9084 24.8338 51.8982 24.8076 51.8741C24.7873 51.8555 24.7786 51.8324 24.7815 51.8049L24.812 51.4913C24.813 51.4818 24.812 51.4721 24.8092 51.4629C24.8064 51.4537 24.8018 51.4452 24.7956 51.4378C24.7895 51.4304 24.7819 51.4243 24.7734 51.4199C24.7649 51.4155 24.7556 51.4128 24.746 51.412C24.608 51.401 24.4678 51.4052 24.3251 51.4247C24.2803 51.431 24.2543 51.4331 24.2471 51.431C24.1929 51.4183 24.165 51.4115 24.1633 51.4107C23.8383 51.2681 23.5473 51.1695 23.2905 51.1149C23.1673 51.0889 22.9998 51.0229 22.8849 50.9505C22.5171 50.7194 22.1921 50.5254 21.9099 50.3684C21.785 50.299 21.7173 50.208 21.7067 50.0955C21.7042 50.0705 21.6904 50.0572 21.6655 50.0555C21.5677 50.0474 21.4795 50.0578 21.4008 50.0866C21.3709 50.0975 21.3379 50.0964 21.3088 50.0835C21.2796 50.0706 21.2567 50.0469 21.2446 50.0174L21.0548 49.5508C21.0482 49.5346 21.0375 49.5204 21.0237 49.5095C21.0099 49.4987 20.9935 49.4917 20.9761 49.4893C20.6202 49.4372 20.2734 49.4808 19.9357 49.62C19.8627 49.6499 19.8342 49.7108 19.7967 49.773C19.794 49.7777 19.7901 49.7816 19.7855 49.7843C19.7808 49.7871 19.7755 49.7887 19.7701 49.789C19.7646 49.7892 19.7592 49.7881 19.7542 49.7858C19.7492 49.7834 19.7448 49.7799 19.7415 49.7755C19.6799 49.693 19.6469 49.6118 19.6476 49.502C19.6495 49.163 19.626 48.9002 19.5028 48.6063C19.4343 48.4444 19.2959 48.4444 19.221 48.3035C18.9315 47.764 18.6497 47.1013 18.6446 46.5376C18.644 46.4202 18.4821 46.3446 18.3945 46.2983C18.3625 46.2815 18.3375 46.2538 18.324 46.2201C18.3105 46.1864 18.3094 46.1488 18.3209 46.1142L18.3825 45.9301C18.3937 45.8963 18.393 45.8595 18.3804 45.8261C18.3678 45.7927 18.3441 45.7647 18.3133 45.7467L18.0606 45.6013C18.0489 45.5945 18.0389 45.5851 18.0313 45.5738C18.0237 45.5626 18.0188 45.5498 18.0169 45.5364C18.015 45.523 18.0162 45.5093 18.0204 45.4965C18.0245 45.4837 18.0316 45.472 18.041 45.4623C18.3082 45.183 18.2168 44.8333 18.0594 44.5051C18.0238 44.4302 18.0029 44.3246 17.9965 44.1883C17.9953 44.1621 18.0046 44.1403 18.0245 44.123L18.4618 43.7421C18.4775 43.7286 18.4885 43.7118 18.4948 43.6919C18.5156 43.6289 18.5219 43.5434 18.5139 43.4355C18.5062 43.3263 18.4394 43.2823 18.3133 43.3035C18.2422 43.3149 18.1808 43.3477 18.1292 43.4019C18.1223 43.4093 18.1138 43.415 18.1043 43.4186C18.0949 43.4221 18.0847 43.4233 18.0746 43.4222C17.9967 43.4141 17.9386 43.3862 17.9 43.3384C17.8196 43.2381 17.7589 43.1022 17.7179 42.9309C17.7159 42.9224 17.716 42.9136 17.7182 42.9053C17.7204 42.8969 17.7247 42.8892 17.7306 42.8829C17.7365 42.8765 17.7438 42.8717 17.752 42.8689C17.7602 42.8661 17.769 42.8654 17.7775 42.8668C17.9058 42.8875 18.0092 42.8638 18.0879 42.7957C18.1044 42.7813 18.1146 42.7633 18.1184 42.7417C18.126 42.6981 18.129 42.6435 18.1273 42.5779C18.1248 42.4599 18.2377 42.2732 18.2663 42.2085C18.3019 42.1272 18.3198 42.0511 18.3203 41.98C18.3222 41.82 18.2593 41.3186 18.0422 41.3001C17.8611 41.2841 17.6766 41.287 17.4887 41.309C17.4693 41.3112 17.4508 41.3171 17.4335 41.3268L17.3002 41.4043C17.2871 41.4119 17.2737 41.4119 17.2602 41.4043L16.9162 41.2056C16.9013 41.197 16.8849 41.1916 16.8679 41.1896C16.8509 41.1875 16.8337 41.189 16.8173 41.1938C16.801 41.1986 16.7857 41.2067 16.7726 41.2175C16.7595 41.2284 16.7487 41.2418 16.741 41.257C16.6906 41.3552 16.6538 41.4669 16.6305 41.5921C16.6083 41.7115 16.5448 41.74 16.4471 41.7731C16.438 41.7762 16.4284 41.7771 16.419 41.7758C16.4096 41.7745 16.4007 41.7709 16.3931 41.7654C16.3271 41.7172 16.2662 41.6664 16.1995 41.6689C16.0916 41.6732 15.9991 41.678 15.9221 41.6835C15.8984 41.6852 15.8855 41.6977 15.8834 41.721L15.8586 41.9686C15.8581 41.9756 15.8558 41.9823 15.852 41.9882C15.8483 41.994 15.8431 41.9989 15.8371 42.0022L15.5349 42.1768C15.5171 42.1869 15.4983 42.1897 15.4784 42.185C15.3997 42.166 15.3187 42.1524 15.2353 42.1444C15.0449 42.126 14.9655 42.2561 14.7954 42.4008C14.7885 42.4066 14.7801 42.4104 14.7712 42.4118C14.7624 42.4133 14.7532 42.4123 14.7449 42.409C14.7365 42.4056 14.7291 42.4001 14.7236 42.393C14.7181 42.3859 14.7146 42.3774 14.7135 42.3685L14.6856 42.1476C14.6805 42.1061 14.6572 42.0845 14.6158 42.0828C14.4761 42.0786 14.3818 42.0318 14.3327 41.9425C14.2582 41.8071 14.2072 41.7005 14.1797 41.6226C14.1429 41.5198 14.1179 41.4083 14.1048 41.2881C14.0853 41.1091 14.0345 40.9595 13.9524 40.8393C13.9464 40.8305 13.9426 40.8204 13.9413 40.8099C13.9401 40.7994 13.9415 40.7888 13.9455 40.779C14.0551 40.4963 14.0318 40.2407 13.8756 40.0122C13.8612 39.9911 13.8627 39.9712 13.8801 39.9525C14.0519 39.7689 14.2544 39.639 14.4875 39.5628C14.6302 39.5162 14.6981 39.4111 14.6913 39.2473C14.6761 38.8703 14.667 38.6496 14.664 38.5853C14.645 38.1663 14.7015 37.6706 14.6843 37.2929C14.6805 37.2082 14.6934 37.1297 14.723 37.0574C14.7755 36.9283 14.8089 36.8543 14.8233 36.8352C15.007 36.5893 15.143 36.3191 15.2315 36.0246C15.2463 35.9759 15.3246 35.8911 15.4664 35.7701C15.482 35.757 15.5 35.75 15.5203 35.7491L15.6771 35.7453C15.6859 35.7451 15.6946 35.7431 15.7025 35.7394C15.7105 35.7357 15.7176 35.7303 15.7234 35.7237C15.8193 35.619 15.8796 35.506 15.9697 35.3645C16.0548 35.2299 16.0423 35.0981 15.9323 34.969C15.8853 34.914 15.898 34.8888 15.9704 34.8935C16.223 34.9104 16.3404 34.79 16.3227 34.5323C16.3176 34.4548 16.2971 34.3892 16.2611 34.3355C16.2323 34.2919 16.1758 34.2591 16.0916 34.2371C15.9105 34.1893 15.806 34.1635 15.778 34.1597C15.6765 34.1444 15.6695 34.1036 15.7571 34.0372C15.821 33.9885 15.8523 33.921 15.851 33.8347C15.8509 33.8249 15.8487 33.8152 15.8447 33.8063C15.8406 33.7974 15.8346 33.7894 15.8273 33.783C15.8199 33.7765 15.8113 33.7717 15.8019 33.7688C15.7925 33.7659 15.7827 33.765 15.7729 33.7661L15.5013 33.7998C15.4776 33.8027 15.4723 33.7943 15.4854 33.7744C15.5654 33.6512 15.6625 33.5262 15.7964 33.4544C15.9443 33.3751 16.1335 33.278 16.1227 33.0895C16.1217 33.0746 16.1158 33.0606 16.1059 33.0496C16.096 33.0387 16.0826 33.0314 16.0681 33.0292C15.9928 33.0177 15.9314 32.9961 15.884 32.9644C15.7603 32.8819 15.6777 32.8901 15.547 32.9371C15.5381 32.9403 15.5302 32.946 15.5244 32.9535C15.5185 32.9611 15.5149 32.9701 15.514 32.9796L15.4848 33.2723C15.4831 33.2905 15.4731 33.3015 15.4549 33.3053C15.4439 33.3078 15.4325 33.3065 15.4207 33.3015C15.4084 33.296 15.3986 33.2841 15.3915 33.2659C15.3656 33.2037 15.3453 33.1618 15.3305 33.1402C15.3119 33.1127 15.2943 33.0988 15.2778 33.0983L14.9027 33.0914C14.8849 33.0909 14.8817 33.0829 14.8932 33.0672C14.9224 33.0287 14.9518 32.9655 14.9814 32.8774C15.0614 32.6388 15.2994 32.376 15.4778 32.2046C15.6016 32.0859 15.6447 31.9843 15.7044 31.8707C15.7119 31.8565 15.7196 31.8438 15.7266 31.8344C15.7336 31.8249 15.7396 31.819 15.7437 31.8174L16.0833 31.7C16.1037 31.6928 16.1151 31.6796 16.1176 31.6606C16.1532 31.3652 16.1534 31.1454 16.1183 31.0011C16.0586 30.7586 15.7133 30.8037 15.5159 30.8398C15.4363 30.8547 15.3568 30.857 15.2772 30.8468C15.0785 30.8208 14.8894 30.7935 14.8449 31.0315C14.8191 31.1708 14.7791 31.2948 14.7249 31.4035C14.6902 31.4725 14.6329 31.5059 14.5529 31.5038C14.4497 31.5017 14.3443 31.4879 14.2368 31.4626C14.2157 31.4575 14.2055 31.4441 14.2063 31.4226C14.208 31.3561 14.2049 31.1894 14.1968 30.9224C14.1905 30.7154 14.113 30.6272 13.9474 30.5434C13.8299 30.4844 13.675 30.5656 13.531 30.6323C13.4823 30.6547 13.4645 30.6919 13.4776 30.744C13.5633 31.0779 13.6306 31.3889 13.4954 31.6993C13.4472 31.8102 13.4112 31.8064 13.3875 31.6879C13.3551 31.5298 13.3551 31.4168 13.3056 31.2683C13.2988 31.248 13.2777 31.1325 13.2421 30.9217C13.2096 30.7279 13.0957 30.6661 12.9006 30.7364C12.7242 30.8003 12.5375 30.9494 12.3408 31.1839C12.2904 31.2444 12.2451 31.2412 12.2049 31.1744L12.1814 31.1356C12.1357 31.0595 12.1353 30.9831 12.1802 30.9065C12.2944 30.7123 12.3932 30.4823 12.4766 30.2165C12.5318 30.0394 12.4652 29.9391 12.3706 29.7944C12.3647 29.7853 12.3564 29.778 12.3466 29.7734C12.3369 29.7688 12.326 29.767 12.3154 29.7684C12.2769 29.773 12.2401 29.7889 12.2049 29.816C12.1965 29.8227 12.1867 29.8255 12.1757 29.8242L12.1389 29.8204C12.1344 29.8199 12.1302 29.8181 12.1267 29.8153C12.1232 29.8125 12.1206 29.8087 12.1192 29.8044C12.1178 29.8001 12.1176 29.7955 12.1188 29.7911C12.1199 29.7868 12.1223 29.7828 12.1256 29.7798C12.2111 29.7036 12.2483 29.6107 12.2373 29.5011C12.2367 29.4949 12.2337 29.4891 12.229 29.485C12.2243 29.4809 12.2182 29.4787 12.2119 29.4789C11.9927 29.4853 11.8241 29.4664 11.706 29.4224C11.6857 29.4148 11.6713 29.4008 11.6628 29.3805C11.6379 29.3217 11.625 29.2508 11.6241 29.1679C11.6228 29.0532 11.6343 28.8755 11.6584 28.6347C11.6609 28.6122 11.6734 28.6006 11.6958 28.5998C12.0754 28.59 12.3321 28.5723 12.4658 28.5464C12.55 28.5304 12.6503 28.5348 12.7667 28.5598C12.8632 28.5809 12.9666 28.5919 13.0771 28.5928C13.1744 28.5936 13.2117 28.5467 13.1888 28.4519L13.1488 28.2855C13.1327 28.2178 13.09 28.1806 13.0206 28.1738L12.6531 28.1377C12.6355 28.1359 12.6193 28.1273 12.6079 28.1138C12.5966 28.1003 12.5909 28.0829 12.5921 28.0653C12.6055 27.8736 12.655 27.6286 12.5388 27.5099C12.3302 27.297 12.1379 27.1267 11.9618 26.9989C11.7873 26.8719 11.6419 26.8167 11.4089 26.8275C11.1474 26.8398 10.8833 26.8175 10.6167 26.7608C10.5158 26.7393 10.4415 26.7494 10.3717 26.8186C10.2964 26.8927 10.3002 26.9627 10.3832 27.0287L10.5736 27.1792C10.6239 27.2189 10.6459 27.2708 10.6396 27.3347L10.6377 27.3543C10.6318 27.417 10.6011 27.4335 10.5457 27.4039C10.42 27.3366 10.3195 27.2615 10.2441 27.1785C10.11 27.0308 9.97648 26.899 9.8436 26.7831C9.81017 26.7539 9.81546 26.7435 9.85947 26.752L10.1254 26.804C10.1466 26.8082 10.1656 26.8034 10.1826 26.7894C10.307 26.6874 10.3455 26.5651 10.2981 26.4225C10.295 26.4131 10.2949 26.403 10.2978 26.3937C10.3008 26.3843 10.3067 26.3762 10.3146 26.3705C10.5818 26.175 10.279 26.0131 10.1502 25.8912C10.1345 25.8768 10.1256 25.8591 10.1235 25.8379C10.1083 25.6913 10.1413 25.4881 9.98071 25.412C9.92485 25.3853 9.87703 25.3616 9.83725 25.3409C9.81779 25.3307 9.80467 25.3155 9.7979 25.2952C9.63074 24.7962 9.43206 24.3674 9.20185 24.0085C9.15869 23.9408 9.13224 23.8729 9.12251 23.8047C9.10939 23.7116 9.10093 23.6378 9.09712 23.5832C9.06919 23.1537 9.05374 22.9034 9.05078 22.8323C9.04316 22.6592 9.01015 22.499 8.95175 22.3518C8.84511 22.0822 8.76831 21.8939 8.72134 21.7868C8.71287 21.7678 8.7116 21.7481 8.71753 21.7278C8.71922 21.7219 8.73276 21.6757 8.75815 21.5894C8.77169 21.5424 8.7791 21.4952 8.78037 21.4479C8.78926 21.1398 8.79158 20.9362 8.78735 20.8372C8.78227 20.7208 8.80005 20.5856 8.84067 20.4316C8.88426 20.2653 8.90542 20.0545 8.90415 19.7994C8.90415 19.7791 8.9143 19.7697 8.93462 19.7714L9.13901 19.7917C9.16356 19.7943 9.16821 19.8051 9.15298 19.8241C9.08019 19.916 9.0421 20.0021 9.03872 20.0825C9.03703 20.1324 9.0292 20.2839 9.01523 20.537C9.00508 20.7139 9.07426 20.8347 9.2228 20.8994C9.24088 20.9074 9.26132 20.908 9.27979 20.9013C9.29827 20.8945 9.31334 20.8809 9.32182 20.8632C9.37007 20.7638 9.44285 20.6819 9.54018 20.6176C9.56896 20.5985 9.61657 20.5291 9.683 20.4094C9.6957 20.3869 9.70988 20.3859 9.72553 20.4062C9.756 20.4447 9.76637 20.4889 9.75664 20.5389C9.71136 20.7792 9.67645 20.9481 9.6519 21.0454C9.59858 21.2583 9.58292 21.4225 9.60493 21.538C9.62143 21.6243 9.68279 21.7126 9.78901 21.8027C10.0078 21.9889 10.1644 22.1199 10.2587 22.1956C10.3535 22.2718 10.4231 22.3405 10.4676 22.4019C10.5679 22.539 10.6206 22.6241 10.6256 22.6571C10.6451 22.7938 10.6648 22.9 10.6847 22.9757C10.7247 23.1281 10.8408 23.1338 10.9475 23.1827C11.0765 23.2406 11.2073 23.2434 11.3397 23.1909C11.3639 23.1816 11.3865 23.1844 11.4077 23.1992C11.4906 23.2567 11.5994 23.4006 11.7339 23.6308C11.7868 23.721 11.8829 23.784 12.0221 23.82C12.0632 23.8306 12.1535 23.8284 12.2932 23.8136C12.4095 23.8014 12.5012 23.8007 12.568 23.8117C12.678 23.8299 12.7639 23.8217 12.8257 23.787C13.0073 23.6848 13.1133 23.5883 13.2225 23.4937C13.2407 23.478 13.2593 23.4776 13.2783 23.4924C13.4319 23.6147 13.5443 23.7535 13.6154 23.9088C13.703 24.0999 13.6573 24.4014 13.6941 24.5525C13.7125 24.6274 13.7093 24.6477 13.7671 24.7175C14.0193 25.0226 14.3033 25.307 14.6189 25.5707C14.6841 25.6252 14.7556 25.6515 14.8335 25.6494C14.9909 25.646 15.1488 25.6066 15.307 25.5313C15.3339 25.5186 15.3642 25.5147 15.3934 25.5202C15.4225 25.5256 15.4492 25.5402 15.4695 25.5618C15.6697 25.7712 15.7778 25.8823 15.7939 25.895C15.887 25.9674 16.0099 26.0469 16.1627 26.1337C16.2241 26.1688 16.3385 26.1919 16.5061 26.2029C16.6953 26.2156 16.8958 26.2528 17.1079 26.3146C17.2763 26.3637 17.4523 26.4602 17.636 26.6041C18.1717 27.0247 18.6525 27.4513 19.0782 27.8837C19.195 28.0024 19.407 28.3363 19.5853 28.3839C19.6048 28.389 19.6349 28.3877 19.6755 28.3801C20.427 28.2375 21.1429 27.9768 21.8229 27.5981C21.8733 27.5702 22.0163 27.52 22.252 27.4477C22.6671 27.3207 23.1007 27.3144 23.5177 27.202C23.9904 27.0755 24.3186 26.994 24.5022 26.9576C24.6398 26.931 24.7581 26.9576 24.8571 27.0376C24.8827 27.0583 24.9144 27.0699 24.9471 27.0706C24.9799 27.0713 25.0119 27.061 25.038 27.0414C25.1338 26.9703 25.1903 26.8834 25.309 26.8554C25.3365 26.8487 25.4772 26.8099 25.7312 26.7393C25.759 26.7314 25.7835 26.7146 25.8007 26.6915C25.8179 26.6684 25.827 26.6403 25.8264 26.6117C25.8245 26.4841 25.8327 26.3394 25.8816 26.2188C25.9777 25.9835 26.0291 25.7478 26.0358 25.5116C26.0363 25.4892 26.0477 25.4773 26.0701 25.4761C26.3634 25.4575 26.5697 25.4232 26.689 25.3732C26.9349 25.2708 27.1924 25.1796 27.4615 25.0997C27.489 25.0917 27.5122 25.0734 27.5265 25.0486C27.5408 25.0237 27.5451 24.9943 27.5383 24.9664L27.4571 24.6293C27.4434 24.5722 27.4472 24.5125 27.4679 24.4579C27.6486 23.9734 27.8079 23.506 27.9458 23.0557C28.0969 22.5638 28.3146 22.0439 28.4784 21.6529C28.5267 21.5367 28.3438 21.3698 28.2543 21.2504C28.2404 21.2318 28.2404 21.2134 28.2543 21.1952C28.3284 21.0996 28.4171 20.9923 28.5203 20.8734C28.5732 20.8129 28.5997 20.7306 28.5997 20.6265C28.5997 20.6057 28.5931 20.5875 28.58 20.5719C28.4628 20.4301 28.3686 20.2638 28.2975 20.073C28.2461 19.9352 28.1337 19.8229 28.0658 19.7232C28.0585 19.7126 28.0538 19.7011 28.0525 19.6903C28.0511 19.6796 28.0531 19.6702 28.0582 19.6635L28.3445 19.3023C28.3559 19.2881 28.3722 19.2788 28.3902 19.2763C28.551 19.2526 28.657 19.2397 28.7082 19.2376C29.0104 19.2255 29.0675 18.9716 29.0643 18.6949C29.0584 18.1367 29.1572 17.6079 29.3607 17.1086C29.3761 17.0717 29.4014 17.0398 29.4337 17.0166C29.9191 16.667 30.3389 16.3594 30.6931 16.0936C30.9978 15.8647 31.2547 15.5938 31.4637 15.2811C31.545 15.1599 31.5494 15.0843 31.4796 14.9663C31.4661 14.9437 31.4604 14.9173 31.4634 14.8911C31.4663 14.865 31.4778 14.8405 31.4961 14.8215C31.5964 14.717 31.7206 14.5759 31.8687 14.3981C31.9 14.3605 31.984 14.2985 32.1207 14.2122C32.2015 14.1614 32.2783 14.0945 32.3511 14.0116C32.4497 13.8986 32.5435 13.8156 32.6323 13.7627C32.7453 13.6955 32.9167 13.7082 33.0475 13.6669C33.2459 13.6038 33.3964 13.5569 33.4988 13.526C33.999 13.3768 34.548 13.3584 34.9949 13.1432C35.259 13.0156 35.6538 12.8227 35.8811 12.5694C36.0372 12.3955 36.4022 12.5973 36.5768 12.6468C37.0042 12.767 37.4064 12.8601 37.7834 12.9261C37.8996 12.9464 37.998 13.0201 38.1167 13.0232C38.3994 13.0317 38.5469 13.0372 38.5591 13.0397C38.6209 13.0529 38.7168 13.0362 38.8467 12.9896C38.9262 12.9608 39.0551 12.9642 39.2333 12.9998C39.2544 13.004 39.2709 13.015 39.2828 13.0328C39.3886 13.1923 39.5244 13.2016 39.6903 13.0607C39.7838 12.9811 39.8384 12.9359 39.8541 12.9249C39.8723 12.9122 39.8911 12.9111 39.9105 12.9217C40.0013 12.9731 40.0953 13.0512 40.2248 13.0524C40.5713 13.0563 40.9406 13.1464 41.3324 13.3229C41.4094 13.3576 41.5207 13.3675 41.6663 13.3527C41.8625 13.333 41.9247 13.1229 42.1125 13.0848C42.2501 13.0565 42.3806 13.0125 42.5042 12.9528C42.5236 12.9433 42.5454 12.9404 42.5664 12.9445C42.7183 12.9754 42.8279 13.0605 42.8952 13.1997C42.9049 13.22 42.9088 13.2412 42.9066 13.2632L42.892 13.4111C42.8891 13.4407 42.9024 13.4559 42.932 13.4568C43.0129 13.4593 43.1021 13.4314 43.1999 13.373C43.2198 13.3612 43.2399 13.3603 43.2602 13.3705C43.4134 13.4454 43.5509 13.5014 43.6728 13.5387C43.7494 13.5624 43.874 13.6284 44.0467 13.7367C44.2718 13.8781 44.5302 14.0048 44.8217 14.1169C44.8852 14.1411 44.9887 14.1971 45.1321 14.2852C45.1478 14.2949 45.1601 14.308 45.1689 14.3245C45.1943 14.3723 45.2077 14.4297 45.2089 14.4965C45.2094 14.5194 45.2199 14.5357 45.2407 14.5454C45.3922 14.6169 45.5111 14.6607 45.5974 14.6768C45.7341 14.7026 45.8458 14.7686 45.9326 14.8749C45.9865 14.9409 45.9764 15.0063 45.9707 15.0989C45.969 15.1214 45.9766 15.14 45.9935 15.1548C46.0701 15.2221 46.1329 15.2544 46.182 15.2519C46.3962 15.2405 46.5866 15.2367 46.7533 15.2405C46.791 15.2413 46.8092 15.2606 46.8079 15.2982C46.8066 15.3499 46.8153 15.3894 46.8339 15.4169C46.8538 15.4461 46.8879 15.4555 46.9361 15.4449C46.9569 15.4402 47.0218 15.4169 47.131 15.3751C47.2085 15.3454 47.3087 15.3435 47.4319 15.3693C47.5114 15.3858 47.6786 15.4284 47.9334 15.4969C48.0984 15.542 48.1854 15.3795 48.358 15.4938C48.3869 15.5129 48.4212 15.5224 48.4558 15.5208C48.4903 15.5192 48.5235 15.5066 48.5503 15.4849C48.7573 15.3186 49.012 15.2451 49.3146 15.2646C49.3916 15.2697 49.4667 15.3012 49.5399 15.3592C49.6576 15.4531 49.7994 15.5335 49.9652 15.6004C50.0795 15.6467 50.188 15.6467 50.2744 15.5541C50.312 15.5134 50.3427 15.4853 50.3664 15.4696C50.3751 15.4638 50.3848 15.4597 50.395 15.4577C50.4053 15.4556 50.4158 15.4556 50.4261 15.4576C50.6292 15.4982 50.8101 15.5845 50.9688 15.7166C50.9988 15.7411 51.0894 15.78 51.2405 15.8334C51.2598 15.8399 51.2764 15.8532 51.2875 15.8708C51.3416 15.9584 51.367 16.0166 51.3636 16.0454C51.3425 16.2189 51.2904 16.3805 51.2075 16.5303C51.1027 16.7195 50.8545 16.8363 50.9028 17.0819C50.9091 17.1137 50.9278 17.1348 50.9586 17.1454L51.4169 17.2984C51.4216 17.3001 51.4237 17.3035 51.4233 17.3085L51.4068 17.4717C51.4047 17.495 51.4119 17.5146 51.4284 17.5307C51.5321 17.6335 51.5869 17.763 51.5928 17.9192C51.5939 17.9528 51.6041 17.9855 51.6223 18.0138C51.6405 18.0422 51.6661 18.0652 51.6962 18.0804C51.8619 18.1623 52.1945 18.0976 52.3881 18.0277C52.4736 17.9968 52.5557 17.9304 52.6344 17.8284C52.7119 17.7277 52.8291 17.5976 52.9861 17.438C53.0013 17.4228 53.018 17.4207 53.0362 17.4317C53.2034 17.5299 53.303 17.5823 53.3352 17.5891C53.433 17.6103 53.8568 17.6672 54.6066 17.7599C54.7368 17.7757 54.912 17.9236 55.0142 17.9719C55.1707 18.0459 55.3269 18.0863 55.4826 18.0931C55.6686 18.1014 55.6692 18.2144 55.8267 18.2696C55.9951 18.328 56.1707 18.3278 56.3535 18.2689C56.3733 18.2628 56.3945 18.2635 56.4138 18.2709C56.5484 18.3229 56.6195 18.4219 56.6271 18.5679C56.6339 18.7012 56.6349 18.8413 56.6303 18.9881C56.6293 19.0238 56.6419 19.0584 56.6654 19.0852C56.689 19.1119 56.7218 19.1287 56.7572 19.1322L57.2949 19.1855C57.3044 19.1865 57.3139 19.1853 57.3229 19.182C57.3319 19.1788 57.34 19.1736 57.3466 19.1668C57.3532 19.16 57.3583 19.1519 57.3613 19.1429C57.3643 19.134 57.3653 19.1245 57.3641 19.1151L57.3215 18.771C57.3165 18.7304 57.334 18.7139 57.3742 18.7215L57.6338 18.7723C57.6787 18.7812 57.6992 18.8085 57.6954 18.8542C57.6884 18.9342 57.6681 19.0472 57.6973 19.1291C57.7536 19.2873 57.8215 19.4689 57.9011 19.6737C57.9072 19.6892 57.9176 19.7026 57.931 19.7125C57.9444 19.7224 57.9604 19.7283 57.977 19.7295C57.9936 19.7308 58.0102 19.7273 58.025 19.7196C58.0397 19.7119 58.052 19.7001 58.0604 19.6857L58.4114 19.0776C58.4268 19.0509 58.4517 19.0311 58.4812 19.022C58.5106 19.0129 58.5424 19.0153 58.5701 19.0288C58.8583 19.1678 59.3496 19.3772 59.6289 19.6299C59.868 19.8461 60.0531 20.0509 60.1843 20.2443C60.3652 20.5116 60.3868 20.728 60.2815 21.0219C60.225 21.1806 60.2085 21.3609 60.2967 21.5164C60.3297 21.5748 60.3578 21.6379 60.3811 21.7056C60.3842 21.7146 60.385 21.7243 60.3834 21.7337C60.3818 21.7432 60.3778 21.7521 60.3718 21.7596C60.3658 21.7671 60.358 21.773 60.349 21.7768C60.3401 21.7805 60.3304 21.782 60.3208 21.7811L59.9412 21.7437C59.9253 21.742 59.9093 21.7446 59.8946 21.7511C59.88 21.7576 59.8674 21.7678 59.8579 21.7807C59.8484 21.7937 59.8424 21.8089 59.8406 21.8249C59.8387 21.8408 59.841 21.8571 59.8473 21.8719C59.9751 22.1728 60.0491 22.4508 60.0694 22.706C60.0716 22.7301 60.0785 22.7525 60.0904 22.7732L60.1196 22.8234C60.1242 22.8316 60.1263 22.8411 60.1255 22.8506C60.1247 22.8601 60.1211 22.8692 60.1151 22.8767C60.047 22.9639 60.0341 23.075 60.0764 23.21C60.2195 23.6623 60.3669 24.0756 60.5189 24.4497C60.5904 24.6253 60.678 24.7971 60.7816 24.9651C60.8451 25.0679 60.8974 25.1792 60.9384 25.299C60.9985 25.4725 61.0341 25.5905 61.0451 25.6532C61.1462 26.2219 61.2626 26.7534 61.3942 27.2477C61.4545 27.4731 61.464 27.6235 61.6817 27.7581C61.7524 27.8025 61.7463 27.8289 61.6633 27.8374C61.2615 27.878 61.1771 28.1872 60.9511 28.4417C60.8318 28.5763 60.9467 28.7604 61.0197 28.914C61.0789 29.0392 61.1075 29.1886 61.1054 29.3621C61.1033 29.5123 61.0624 29.6533 60.9829 29.7849C60.8843 29.9469 60.7609 30.0912 60.6128 30.2178C60.595 30.233 60.5743 30.2421 60.5506 30.2451L60.3005 30.2762C60.2898 30.2775 60.2797 30.282 60.2716 30.289C60.2635 30.296 60.2576 30.3052 60.2548 30.3155C60.218 30.4543 60.226 30.5819 60.2789 30.6983C60.3085 30.7639 60.3792 30.8282 60.4909 30.8913C60.628 30.9683 60.7205 31.0425 60.7683 31.1141C60.993 31.448 61.2292 31.7812 61.6348 31.9469C61.6881 31.9689 61.8104 32.0006 62.0017 32.0421C62.1041 32.0645 62.1957 32.1087 62.2765 32.1748C62.5846 32.4253 62.8533 32.7133 63.0827 33.0387C63.0992 33.0619 63.1218 33.1483 63.1506 33.2977C63.1552 33.3218 63.1696 33.3328 63.1938 33.3307Z" fill="#727372"/>
</g>
<defs>
<clipPath id="clip0_1387_5238">
<rect width="75" height="75" fill="white"/>
</clipPath>
</defs>
</svg>
