<svg width="30" height="30" viewBox="0 0 30 30" fill="none" xmlns="http://www.w3.org/2000/svg">
<g clip-path="url(#clip0_360_1907)">
<path d="M0.5 0.5V29.5H29.5V0.5H0.5Z" stroke="#727372"/>
<path d="M26.8785 18.9741C26.8761 19.1812 26.8562 19.38 26.8188 19.5705C26.8164 19.5832 26.8111 19.5948 26.8028 19.6051C26.7953 19.6148 26.7908 19.6231 26.7892 19.6301C26.7636 19.7494 26.7294 19.8628 26.6867 19.9704C26.6571 20.0456 26.6527 20.1711 26.6195 20.2175C26.5922 20.2554 26.5722 20.2948 26.5594 20.3356C26.5426 20.3899 26.5222 20.43 26.4982 20.456C26.463 20.4946 26.4493 20.5659 26.4093 20.631C26.2631 20.8688 26.0784 21.0564 25.8553 21.1939C25.8217 21.2144 25.793 21.2284 25.7693 21.236C25.7346 21.2466 25.7044 21.2588 25.6788 21.2726C25.5611 21.3357 25.4393 21.4085 25.3133 21.4909C25.301 21.4989 25.2906 21.5095 25.2829 21.5218C25.2752 21.5341 25.2702 21.5479 25.2685 21.5622C25.2497 21.7068 25.2697 21.8923 25.2661 22.0272C25.2602 22.2631 25.2582 22.4483 25.2601 22.5826C25.2694 23.3003 25.2684 23.8839 25.2569 24.3335C25.251 24.5707 25.1411 24.7613 24.927 24.9053C24.8956 24.9266 24.8111 24.9452 24.6737 24.961C24.6606 24.9623 24.6488 24.967 24.6384 24.975C24.6264 24.9839 24.6176 24.9884 24.612 24.9887C24.458 24.9957 24.3513 24.9992 24.2918 24.9992C23.191 24.9979 22.5305 24.9982 22.3104 25C22.2706 25.0005 22.2355 24.991 22.2051 24.9715C22.194 24.9646 22.1814 24.9603 22.1683 24.959C22.1006 24.9532 21.9829 24.9555 21.9073 24.8986C21.8456 24.8521 21.7857 24.8012 21.7275 24.7458C21.6816 24.7022 21.6559 24.6527 21.6503 24.5973C21.6468 24.5625 21.6316 24.4896 21.6046 24.3787C21.6006 24.3613 21.5945 24.3452 21.5862 24.3304C21.578 24.315 21.5738 24.2989 21.5738 24.282C21.5728 23.4326 21.5729 22.6517 21.5742 21.9395C21.5742 21.8097 21.577 21.6713 21.5414 21.547C21.5377 21.5335 21.529 21.5248 21.5154 21.5209C21.4359 21.4975 21.3841 21.4858 21.3601 21.4858C19.1545 21.4845 14.9248 21.4848 8.6709 21.4866C8.61699 21.4866 8.56322 21.4885 8.50958 21.4924C8.4402 21.4974 8.3987 21.527 8.38509 21.5813C8.38242 21.5925 8.38122 21.6364 8.38149 21.713C8.38496 22.5422 8.38322 23.3713 8.37628 24.2002C8.37548 24.2875 8.37428 24.4796 8.33185 24.54C8.3097 24.5712 8.29049 24.6166 8.27421 24.6761C8.26781 24.6997 8.24592 24.7291 8.20856 24.7642C8.19976 24.7725 8.18375 24.7972 8.16053 24.8382C8.15412 24.8497 8.14532 24.859 8.13411 24.8663C8.04738 24.9232 7.94237 24.9535 7.81908 24.9571C7.78065 24.9583 7.76224 24.9668 7.73222 24.9848C7.72048 24.9921 7.7078 24.9957 7.69419 24.9957C7.0644 24.9972 6.29998 24.9978 5.40094 24.9973C5.37291 24.9973 5.29739 24.9818 5.17437 24.9509C5.08471 24.928 5.01319 24.8993 4.95982 24.8647C4.82158 24.7751 4.7538 24.6422 4.75647 24.466C4.75674 24.4525 4.75327 24.44 4.74606 24.4286C4.71297 24.3758 4.69629 24.3323 4.69603 24.298C4.69176 23.3155 4.68922 22.445 4.68842 21.6865C4.68842 21.5602 4.64119 21.4748 4.54672 21.4301C4.47413 21.3955 4.43223 21.3738 4.42103 21.365C4.35778 21.3146 4.31282 21.2834 4.28613 21.2714C4.13562 21.2036 3.99899 21.1223 3.87623 21.0274C3.82633 20.9887 3.79377 20.9569 3.77856 20.9319C3.72893 20.8501 3.62685 20.7924 3.58562 20.6988C3.56241 20.6456 3.54373 20.6105 3.52958 20.5936C3.49236 20.548 3.4103 20.419 3.38828 20.3364C3.35199 20.1997 3.29728 20.0513 3.22416 19.8912C3.19961 19.8369 3.1808 19.7526 3.16772 19.6383C3.15678 19.5408 3.14157 19.4555 3.12209 19.3822C3.09567 19.2829 3.08166 19.209 3.08006 19.1604C3.07766 19.1027 3.06431 19.0283 3.04003 18.9371C3.01494 18.8435 3.00213 18.7205 3.0016 18.568C3 18.0826 2.9996 16.9982 3.0004 15.3149C3.00067 15.2034 3.01014 15.1161 3.02882 15.053C3.05631 14.9595 3.07966 14.8391 3.09887 14.6921C3.10367 14.6549 3.11502 14.609 3.1329 14.5545C3.15024 14.502 3.16065 14.4561 3.16412 14.4169C3.17533 14.2867 3.18854 14.2049 3.20375 14.1713C3.29555 13.97 3.39348 13.7888 3.49756 13.628C3.55947 13.5329 3.62939 13.4509 3.70731 13.382C3.75935 13.3363 3.8362 13.2595 3.93788 13.1517C3.98404 13.1026 4.02127 13.067 4.04956 13.0449C4.1032 13.0028 4.15403 12.9545 4.18085 12.8909C4.22195 12.7938 4.27732 12.6701 4.34697 12.5199C4.34964 12.5142 4.36432 12.4776 4.391 12.4103C4.39447 12.4015 4.46066 12.2168 4.58955 11.8561C4.65279 11.6795 4.74046 11.5185 4.78129 11.3615C4.79943 11.2908 4.83613 11.2037 4.89137 11.1003C4.93353 11.0216 4.96809 10.9343 4.99504 10.8384C5.02093 10.7454 5.05855 10.649 5.10792 10.5492C5.14528 10.4738 5.17277 10.3942 5.19038 10.3103C5.20666 10.232 5.23802 10.1524 5.28445 10.0713C5.33222 9.98817 5.36571 9.91217 5.38492 9.84331C5.42068 9.71624 5.46511 9.60074 5.51822 9.4968C5.54384 9.44691 5.56452 9.38532 5.58026 9.31205C5.59147 9.26112 5.61442 9.19953 5.64911 9.1273C5.70355 9.01452 5.74131 8.92267 5.7624 8.85173C5.80269 8.71609 5.84579 8.6024 5.89169 8.51068C5.93198 8.43116 5.96534 8.34333 5.99176 8.24719C6.01845 8.15105 6.05407 8.06504 6.09864 7.98916C6.14534 7.91017 6.1767 7.83325 6.19271 7.75842C6.20605 7.69527 6.24555 7.58653 6.31119 7.43218C6.34535 7.3524 6.36657 7.29732 6.37484 7.26691C6.39645 7.18662 6.41687 7.11101 6.45089 7.04279C6.51921 6.90534 6.56271 6.81062 6.58139 6.75865C6.62982 6.62496 6.70067 6.52985 6.78233 6.38837C6.81462 6.33276 6.84558 6.2856 6.8752 6.24688C7.01583 6.06525 7.18462 5.89284 7.38157 5.72965C7.45709 5.66703 7.56036 5.5983 7.69139 5.52346C7.80561 5.4585 7.91315 5.39562 8.01402 5.33481C8.11436 5.27427 8.2143 5.22893 8.31384 5.19878C8.39977 5.1728 8.50278 5.13356 8.62286 5.08107C8.69972 5.04755 8.7731 5.02923 8.84302 5.02612C8.89212 5.02378 8.94296 5.01884 8.99553 5.0113C9.04223 5.00481 9.0928 5.00156 9.14724 5.00156C15.7942 5.00182 19.7022 5.0013 20.8713 5C20.9746 5 21.0712 5.0126 21.1611 5.03781C21.3957 5.10303 21.6145 5.18163 21.8176 5.27362C22.133 5.41628 22.4435 5.62234 22.7491 5.8918C23.0058 6.11813 23.2278 6.4202 23.4152 6.79802C23.4312 6.83024 23.4422 6.86311 23.4484 6.89663C23.4556 6.93587 23.4597 6.9599 23.4608 6.96874C23.4637 6.99161 23.4712 7.0146 23.4832 7.03773C23.4885 7.0476 23.5198 7.11555 23.5769 7.24158C23.6014 7.29563 23.6274 7.36488 23.6549 7.44933C23.692 7.5634 23.7367 7.67332 23.789 7.77907C23.8117 7.82507 23.8257 7.85911 23.8311 7.88119C23.8393 7.91472 23.8483 7.95057 23.8579 7.98877C23.8637 8.01138 23.8823 8.05334 23.9135 8.11467C23.9423 8.17157 23.9415 8.24485 23.9768 8.29046C24.0098 8.33281 24.0335 8.38998 24.0476 8.46195C24.0578 8.51237 24.0782 8.57044 24.1089 8.63618C24.1969 8.82327 24.278 9.03882 24.3522 9.28281C24.3621 9.31556 24.3757 9.34518 24.3931 9.37168C24.4419 9.44574 24.4439 9.5272 24.4895 9.58684C24.5428 9.65738 24.5444 9.78601 24.6024 9.878C24.6222 9.90944 24.6347 9.94569 24.64 9.98674C24.6534 10.0865 24.6893 10.1893 24.7477 10.2951C24.8102 10.4078 24.8458 10.4934 24.8546 10.5519C24.8674 10.6357 24.9234 10.6864 24.9431 10.7815C24.9591 10.8614 25.0215 10.9199 25.0339 10.99C25.0555 11.1147 25.1172 11.2102 25.1552 11.3412C25.1686 11.3875 25.1819 11.4207 25.1952 11.441C25.2118 11.4657 25.2251 11.4975 25.2353 11.5365C25.2673 11.6604 25.3239 11.792 25.405 11.9313C25.4538 12.0147 25.4554 12.1414 25.5063 12.2283C25.5511 12.3055 25.5603 12.4224 25.6143 12.5121C25.632 12.5412 25.6454 12.5813 25.6548 12.6325C25.6716 12.7245 25.7196 12.7834 25.7701 12.873C25.7834 12.8969 25.8061 12.9252 25.8381 12.958C25.8725 12.9938 26.0204 13.1481 26.2816 13.4206C26.4229 13.568 26.5398 13.7348 26.6147 13.8899C26.628 13.9177 26.6724 14.0215 26.748 14.2013C26.7624 14.2356 26.7754 14.2787 26.7872 14.3304C26.7947 14.3647 26.8029 14.3934 26.812 14.4165C26.8221 14.4425 26.8298 14.4704 26.8348 14.5003C26.8567 14.6242 26.8686 14.7208 26.8704 14.7899C26.8715 14.832 26.8809 14.8864 26.8985 14.9532C26.9153 15.0167 26.9045 15.1103 26.9265 15.1918C26.9321 15.2125 26.9358 15.2362 26.9377 15.2627C26.9985 16.1683 27.0148 17.1018 26.9865 18.0632C26.9847 18.1238 26.9804 18.1736 26.9737 18.2129C26.9625 18.2758 26.9569 18.3249 26.9569 18.3602C26.9558 18.5457 26.9378 18.7383 26.9029 18.9379C26.9007 18.9498 26.8991 18.9559 26.8981 18.9562C26.8933 18.9575 26.8894 18.959 26.8865 18.9609C26.8811 18.9637 26.8785 18.9681 26.8785 18.9741ZM6.31119 10.3492C6.29945 10.3614 6.29158 10.3757 6.28758 10.3921C6.26623 10.4828 6.24048 10.5523 6.21032 10.6006C6.1887 10.6352 6.17216 10.6801 6.16068 10.7355C6.15374 10.7703 6.1372 10.8158 6.11105 10.8719C6.06088 10.9792 6.01298 11.1023 5.96734 11.241C5.94519 11.3086 5.91864 11.3751 5.88769 11.4406C5.82844 11.5653 5.79749 11.6303 5.79482 11.6355C5.7608 11.7029 5.7724 11.7785 5.73558 11.8452C5.70275 11.9047 5.6802 11.952 5.66793 11.9871C5.6307 12.0919 5.59147 12.1675 5.56665 12.2759C5.55518 12.3263 5.53103 12.395 5.4942 12.4821C5.46271 12.5559 5.45684 12.6399 5.47659 12.7342C5.48299 12.7654 5.49981 12.7917 5.52703 12.813C5.53663 12.8208 5.55945 12.8447 5.59548 12.8847C5.60455 12.8946 5.61549 12.9016 5.6283 12.9057C5.71263 12.9333 5.79949 12.9471 5.88889 12.9471C15.3483 12.9489 21.3993 12.9497 24.042 12.9494C24.1391 12.9494 24.224 12.9394 24.2966 12.9194C24.3578 12.9026 24.3851 12.8562 24.4347 12.8145C24.4448 12.806 24.4515 12.7953 24.4547 12.7826C24.4859 12.6599 24.4851 12.5513 24.4523 12.4567C24.4109 12.3382 24.3899 12.2772 24.3891 12.2735C24.3754 12.2169 24.3518 12.1569 24.3182 12.0935C24.2875 12.036 24.2675 11.9644 24.2582 11.8787C24.2566 11.8657 24.2513 11.8534 24.243 11.8432C24.1865 11.7738 24.1825 11.6916 24.1453 11.6304C24.1114 11.5751 24.09 11.5309 24.0812 11.4979C24.0484 11.3765 23.9913 11.2287 23.9099 11.0543C23.8719 10.9721 23.8627 10.8887 23.823 10.8068C23.799 10.7564 23.7751 10.6998 23.7514 10.6369C23.65 10.369 23.5791 10.1901 23.5388 10.1002C23.4969 10.0064 23.4744 9.94842 23.4712 9.92633C23.4624 9.86111 23.4449 9.80238 23.4188 9.75015C23.3799 9.67259 23.3703 9.5919 23.3171 9.51629C23.2915 9.48043 23.2741 9.44236 23.265 9.40208C23.2485 9.33011 23.2294 9.27177 23.2078 9.22708C23.1993 9.20967 23.1792 9.15939 23.1478 9.07624C23.1414 9.05883 23.1233 9.01894 23.0937 8.95658C23.071 8.9085 23.0577 8.85316 23.0537 8.79053C23.0529 8.77803 23.0488 8.76605 23.0417 8.75584C23.0035 8.70153 22.9792 8.65398 22.9688 8.61319C22.9558 8.56122 22.9353 8.51016 22.9076 8.46001C22.8833 8.41609 22.8673 8.36841 22.8596 8.31696C22.8526 8.26993 22.8355 8.22315 22.8083 8.17664C22.7995 8.16157 22.7637 8.07855 22.701 7.92758C22.684 7.88652 22.6685 7.83403 22.6546 7.77011C22.6458 7.72983 22.6275 7.67669 22.5998 7.61069C22.5445 7.47999 22.5053 7.36968 22.4821 7.27978C22.4535 7.1709 22.412 7.07683 22.3576 6.99758C22.2386 6.82504 22.1178 6.68706 21.9953 6.58364C21.9099 6.51115 21.8627 6.47087 21.8536 6.46281C21.7938 6.40851 21.7385 6.36641 21.6875 6.33653C21.6064 6.28872 21.5409 6.2487 21.491 6.21648C21.4424 6.18504 21.3934 6.16542 21.3441 6.15762C21.3115 6.15269 21.2583 6.13463 21.1843 6.10344C21.0813 6.05979 20.9072 6.02159 20.662 5.98885C20.6046 5.98132 20.5339 5.98197 20.4498 5.9908C20.3735 5.99886 20.3026 6.00288 20.2373 6.00288C19.8121 6.00262 19.5382 6.00249 19.4155 6.00249C19.3798 6.00249 19.351 5.98807 19.319 5.98768C18.99 5.98482 18.5236 5.98456 17.92 5.9869C17.888 5.98729 17.8615 6.00249 17.8335 6.00249C17.1997 6.00275 16.6596 6.00275 16.2131 6.00249C16.1767 6.00249 16.1503 5.98924 16.1179 5.98885C15.55 5.9795 15.0791 5.98132 14.7053 5.99431C14.6778 5.99509 14.6531 5.99613 14.6312 5.99743C14.5255 6.00288 13.9857 6.00483 13.0116 6.00327C12.9764 6.00327 12.9452 5.98768 12.914 5.98729C12.6095 5.98469 12.1433 5.98469 11.5154 5.98729C11.4833 5.98729 11.4569 6.00249 11.4289 6.00249C10.4986 6.00301 9.86042 6.00314 9.51431 6.00288C9.48095 6.00288 9.43985 5.99756 9.39102 5.9869C9.34805 5.97781 9.30536 5.97807 9.26292 5.98768C9.21569 5.99834 9.18287 6.00496 9.16445 6.00756C8.64354 6.07954 8.20523 6.30405 7.8495 6.68109C7.76384 6.7719 7.68378 6.89741 7.60293 6.97926C7.5657 7.01668 7.55769 7.0806 7.53408 7.1188C7.50632 7.16323 7.48991 7.19831 7.48484 7.22404C7.47363 7.27913 7.44548 7.35916 7.40038 7.46414C7.36676 7.5417 7.37396 7.61771 7.33433 7.69956C7.25321 7.8682 7.19103 8.03411 7.1478 8.1973C7.13952 8.229 7.12231 8.26798 7.09616 8.31423C7.07535 8.35087 7.06067 8.3918 7.05213 8.43701C7.04372 8.48144 7.0145 8.51068 7.00249 8.55589C6.98194 8.63306 6.94685 8.72739 6.89722 8.83886C6.84998 8.94488 6.81342 9.0457 6.78754 9.14133C6.76432 9.22682 6.72816 9.31517 6.67906 9.40637C6.61608 9.52408 6.56871 9.65765 6.53696 9.80706C6.53433 9.81962 6.5287 9.83137 6.52054 9.84136C6.50373 9.8624 6.49172 9.88462 6.48452 9.90801C6.47171 9.9501 6.4649 9.97219 6.4641 9.97427C6.40886 10.1081 6.3647 10.2223 6.33161 10.3169C6.32739 10.3289 6.32041 10.34 6.31119 10.3492ZM9.12603 16.8565C9.11855 16.7084 9.10494 16.614 9.0852 16.5735C9.04597 16.4927 9.02222 16.4415 9.01394 16.4199C8.9958 16.3726 8.96871 16.3221 8.93269 16.2683C8.83768 16.1267 8.71827 15.9835 8.57443 15.8388C8.52266 15.7865 8.46461 15.7484 8.4003 15.7242C8.36348 15.7104 8.2985 15.6781 8.20536 15.6271C8.13091 15.5863 8.05098 15.5598 7.96559 15.5476C7.7078 15.511 7.43694 15.5145 7.153 15.5581C7.09109 15.5678 7.03865 15.5882 6.99569 15.6193C6.93965 15.6601 6.88988 15.6898 6.84638 15.7082C6.76365 15.743 6.69 15.786 6.62542 15.8372C6.50667 15.9313 6.40686 16.0291 6.326 16.1307C6.28651 16.1803 6.26356 16.2143 6.25715 16.2324C6.25475 16.2395 6.23527 16.2757 6.19871 16.3412C6.15668 16.4168 6.15348 16.4971 6.09624 16.5669C6.08183 16.5843 6.07089 16.6213 6.06341 16.678C6.03433 16.8929 6.02058 17.059 6.02218 17.1765C6.02272 17.2178 6.03032 17.2539 6.045 17.2848C6.06795 17.3339 6.08023 17.3703 6.08183 17.394C6.08556 17.4454 6.10011 17.4993 6.12546 17.5557C6.15068 17.6126 6.15348 17.7132 6.20512 17.7857C6.24221 17.8379 6.26316 17.867 6.26796 17.873C6.31013 17.9252 6.34282 17.9671 6.36603 17.9985C6.45303 18.1165 6.54696 18.2107 6.64784 18.2811C6.72362 18.3341 6.79901 18.3807 6.874 18.421C6.94632 18.4597 7.02851 18.4912 7.12058 18.5153C7.24493 18.5481 7.30725 18.5645 7.30751 18.5645C7.4268 18.6081 7.73422 18.6147 7.80908 18.5886C7.93183 18.546 8.03364 18.5163 8.1145 18.4994C8.17934 18.4858 8.22698 18.467 8.2574 18.4428C8.25953 18.4413 8.3057 18.417 8.3959 18.37C8.46048 18.3362 8.52239 18.2906 8.58163 18.2331C8.65849 18.1583 8.7168 18.1045 8.75656 18.0718C8.77471 18.0567 8.80259 18.0229 8.84022 17.9704C8.86237 17.939 8.88799 17.903 8.91708 17.8625C8.96137 17.7999 8.99286 17.7426 9.01154 17.6906C9.03049 17.6378 9.05758 17.5769 9.0928 17.5078C9.10828 17.4771 9.12016 17.411 9.12843 17.3094C9.12923 17.2998 9.1327 17.2894 9.13884 17.2782C9.16686 17.2283 9.15885 17.0853 9.15565 16.9348C9.15525 16.92 9.15044 16.9036 9.14044 16.8919C9.13163 16.8818 9.12683 16.87 9.12603 16.8565ZM20.8885 16.7341C20.8861 16.7346 20.8843 16.7358 20.8829 16.7376C20.8747 16.7498 20.8704 16.7567 20.8701 16.7583C20.8533 16.9227 20.8505 17.0959 20.8617 17.2778C20.8638 17.3116 20.8757 17.3529 20.8973 17.4018C20.8992 17.4059 20.9129 17.4461 20.9386 17.5222C20.9989 17.7005 21.0929 17.871 21.2208 18.034C21.2459 18.0659 21.2789 18.0959 21.32 18.124C21.3555 18.1482 21.3916 18.1801 21.4281 18.2199C21.4788 18.2752 21.5279 18.3166 21.5754 18.3438C21.7406 18.4387 21.8297 18.4874 21.8428 18.49C21.9464 18.5116 22.0754 18.5446 22.2299 18.589C22.2747 18.6017 22.3764 18.6033 22.5349 18.5937C22.6128 18.589 22.6912 18.5734 22.7699 18.5469C22.8692 18.5134 22.9467 18.4926 23.0025 18.4845C23.0302 18.4807 23.052 18.471 23.0677 18.4557C23.076 18.4474 23.0981 18.4369 23.1341 18.4241C23.1686 18.4122 23.2003 18.3961 23.2294 18.3758C23.3426 18.2968 23.4125 18.2464 23.4392 18.2246C23.5037 18.1718 23.5719 18.0998 23.6437 18.0086C23.7008 17.9364 23.7363 17.8903 23.7502 17.8703C23.8118 17.7824 23.8437 17.7332 23.8459 17.7225C23.8709 17.5996 23.8976 17.4976 23.9259 17.4166C23.9638 17.3082 23.9824 17.216 23.9816 17.1398C23.9802 16.9805 23.9677 16.8313 23.9439 16.692C23.9365 16.6481 23.9258 16.616 23.9119 16.5957C23.8951 16.5716 23.8823 16.5383 23.8735 16.4959C23.8633 16.4479 23.8432 16.3984 23.813 16.3474C23.7258 16.2001 23.6344 16.0761 23.5388 15.9756C23.466 15.8992 23.4176 15.8498 23.3935 15.8275C23.3479 15.7854 23.2844 15.7507 23.203 15.7234C23.1779 15.7151 23.1221 15.6825 23.0357 15.6256C22.9796 15.5887 22.9215 15.5659 22.8612 15.5574C22.5652 15.5142 22.2958 15.511 22.053 15.5476C21.9833 15.558 21.9174 15.5787 21.8552 15.6096C21.8168 15.6286 21.7536 15.6577 21.6655 15.6969C21.57 15.74 21.4839 15.7972 21.4073 15.8684C21.3315 15.9388 21.2401 16.0425 21.1331 16.1794C21.0851 16.2408 21.0516 16.2943 21.0326 16.34C21.0089 16.3975 20.9805 16.454 20.9474 16.5096C20.934 16.5324 20.9163 16.6038 20.8941 16.7236C20.8937 16.7263 20.8929 16.7288 20.8919 16.7307C20.8909 16.7326 20.8897 16.7338 20.8885 16.7341Z" fill="#777777"/>
</g>
<defs>
<clipPath id="clip0_360_1907">
<rect width="30" height="30" fill="white"/>
</clipPath>
</defs>
</svg>
