<svg width="402" height="78" viewBox="0 0 402 78" fill="none" xmlns="http://www.w3.org/2000/svg"  preserveAspectRatio="none">
<g clip-path="url(#clip0_24_262)">
<path opacity="0.502" fill-rule="evenodd" clip-rule="evenodd" d="M-0.505005 -0.448273C96.1184 -0.448273 192.741 -0.448273 289.365 -0.448273C282.654 5.80921 275.92 12.0851 269.165 18.3793C179.614 19.2759 90.0609 19.5747 0.504995 19.2759C0.504995 27.3448 0.504995 35.4138 0.504995 43.4828C98.4756 43.3333 196.446 43.4828 294.415 43.931C294.079 44.2299 293.741 44.5288 293.405 44.8276C298.295 48.6016 302.84 52.6361 307.04 56.931C311.889 53.525 316.434 49.7894 320.675 45.7241C324.353 43.5652 328.393 42.9674 332.795 43.931C325.841 49.6531 319.445 55.7795 313.605 62.3104C317.318 66.1205 321.525 69.4078 326.23 72.1724C327.467 71.8476 328.645 71.3993 329.765 70.8276C339.894 61.5362 350.332 52.5707 361.075 43.931C362.085 43.3333 363.095 43.3333 364.105 43.931C352.106 54.1325 340.66 64.7417 329.765 75.7586C219.677 76.6552 109.587 76.954 -0.505005 76.6552C-0.505005 50.954 -0.505005 25.2529 -0.505005 -0.448273Z" fill="#171817"/>
<path opacity="0.508" fill-rule="evenodd" clip-rule="evenodd" d="M289.365 -0.448273C327.071 -0.448273 364.779 -0.448273 402.485 -0.448273C402.157 6.29294 402.493 12.8677 403.495 19.2759C403.495 27.3448 403.495 35.4138 403.495 43.4828C402.49 54.6798 402.153 66.0361 402.485 77.5517C268.155 77.5517 133.825 77.5517 -0.505005 77.5517C-0.505005 77.2529 -0.505005 76.954 -0.505005 76.6552C109.587 76.954 219.677 76.6552 329.765 75.7586C340.66 64.7417 352.106 54.1325 364.105 43.931C363.095 43.3333 362.085 43.3333 361.075 43.931C350.332 52.5707 339.894 61.5362 329.765 70.8276C328.645 71.3993 327.467 71.8476 326.23 72.1724C321.525 69.4078 317.318 66.1205 313.605 62.3103C319.445 55.7795 325.841 49.6531 332.795 43.931C328.393 42.9674 324.353 43.5652 320.675 45.7241C316.434 49.7894 311.889 53.525 307.04 56.931C302.84 52.6361 298.295 48.6016 293.405 44.8276C293.741 44.5288 294.079 44.2299 294.415 43.931C196.446 43.4828 98.4756 43.3333 0.504995 43.4828C0.504995 35.4138 0.504995 27.3448 0.504995 19.2759C90.0609 19.5747 179.614 19.2759 269.165 18.3793C275.92 12.0851 282.654 5.80921 289.365 -0.448273Z" fill="#1F1F1F"/>
</g>
<defs>
<clipPath id="clip0_24_262">
<rect width="404" height="78" fill="white"/>
</clipPath>
</defs>
</svg>
