<svg width="30" height="30" viewBox="0 0 30 30" fill="none" xmlns="http://www.w3.org/2000/svg">
<g clip-path="url(#clip0_360_1872)">
<path d="M0.5 0.5V29.5H29.5V0.5H0.5Z" stroke="#727372"/>
<path d="M8.06931 6.44356C8.06931 6.43741 8.06687 6.43152 8.06251 6.42717C8.05815 6.42282 8.05224 6.42038 8.04608 6.42038L4.36321 6.42004C4.35607 6.42004 4.34922 6.41724 4.34416 6.41226C4.33911 6.40728 4.33627 6.40053 4.33627 6.39349L4.33594 5.09197C4.33594 5.08752 4.33771 5.08324 4.34087 5.08009C4.34403 5.07694 4.34831 5.07517 4.35277 5.07517H19.1816C19.2015 5.07517 19.2115 5.06531 19.2115 5.0456L19.2109 2.38779C19.2109 2.38342 19.2126 2.37923 19.2157 2.37615C19.2188 2.37306 19.223 2.37132 19.2274 2.37132H21.8845C21.9005 2.37132 21.9084 2.37928 21.9084 2.39518L21.9081 5.0503C21.9081 5.06688 21.9164 5.07517 21.933 5.07517H26.6288C26.6389 5.07517 26.6439 5.08032 26.6439 5.09063V6.40727C26.6439 6.41578 26.6397 6.42004 26.6311 6.42004H24.24C24.2364 6.42004 24.233 6.42146 24.2305 6.42398C24.2279 6.4265 24.2265 6.42992 24.2265 6.43348L24.2258 7.07836C24.2258 7.08183 24.2272 7.08517 24.2297 7.08763C24.2322 7.09008 24.2355 7.09146 24.239 7.09146L25.2754 7.09214C25.2798 7.09214 25.284 7.09384 25.2871 7.09686C25.2902 7.09989 25.2919 7.10399 25.2919 7.10827V10.459C25.2919 10.4615 25.291 10.4639 25.2892 10.4657C25.2874 10.4674 25.285 10.4684 25.2825 10.4684L22.5991 10.4688C22.5883 10.4688 22.5829 10.4635 22.5829 10.453V7.10524C22.5829 7.09628 22.5874 7.0918 22.5964 7.0918H23.5406C23.5459 7.0918 23.5509 7.08971 23.5546 7.08599C23.5584 7.08228 23.5605 7.07723 23.5605 7.07197L23.5584 6.44087C23.5584 6.42698 23.5515 6.42004 23.5376 6.42004L21.9525 6.42038C21.9368 6.42038 21.929 6.42822 21.929 6.4439V18.5544C21.929 18.5623 21.9329 18.5662 21.9408 18.5662H24.6168C24.6278 18.5662 24.6333 18.5717 24.6333 18.5827L24.633 23.7669C24.633 23.7689 24.6322 23.7709 24.6308 23.7723C24.6294 23.7738 24.6275 23.7746 24.6255 23.7746L4.37837 23.7739C4.36692 23.7739 4.36119 23.7683 4.36119 23.7571L4.36153 14.5433C4.36153 14.5279 4.36927 14.5202 4.38476 14.5202H16.4924C16.5002 14.5202 16.5076 14.5232 16.5131 14.5287C16.5186 14.5342 16.5217 14.5416 16.5217 14.5494L16.5214 18.5507C16.5214 18.561 16.5265 18.5662 16.5368 18.5662H19.2048C19.2142 18.5662 19.2232 18.5625 19.2298 18.5559C19.2364 18.5492 19.2402 18.5403 19.2402 18.5309V6.46675C19.2402 6.45436 19.2353 6.44248 19.2265 6.43372C19.2178 6.42496 19.206 6.42004 19.1937 6.42004L8.75154 6.42038C8.74752 6.42038 8.74367 6.42193 8.74082 6.42471C8.73798 6.42748 8.73639 6.43124 8.73639 6.43516L8.73672 7.59285C8.73672 7.60636 8.73969 7.62003 8.74547 7.63308C8.75126 7.64612 8.75973 7.65826 8.7704 7.6688L10.5783 9.47271C10.5787 9.4729 10.5795 9.47307 10.5806 9.47319C10.5818 9.47331 10.5832 9.47338 10.5847 9.47338L11.4303 9.48077C11.4333 9.48077 11.4362 9.48201 11.4384 9.48422C11.4405 9.48642 11.4417 9.48941 11.4417 9.49253L11.442 12.1503C11.442 12.1555 11.44 12.1605 11.4363 12.1641C11.4327 12.1678 11.4277 12.1698 11.4225 12.1698L5.38352 12.1695C5.3705 12.1695 5.36399 12.163 5.36399 12.15L5.36534 9.51001C5.36534 9.48805 5.376 9.47696 5.39732 9.47674L6.20953 9.47439C6.21986 9.47439 6.22883 9.47058 6.23647 9.46296L8.05416 7.64897C8.06471 7.63844 8.06999 7.62567 8.06999 7.61066L8.06931 6.44356ZM7.18976 9.45053C7.18771 9.4526 7.18631 9.45522 7.18574 9.45808C7.18518 9.46094 7.18547 9.4639 7.18659 9.46659C7.1877 9.46929 7.18959 9.47159 7.19201 9.47322C7.19443 9.47484 7.19728 9.47572 7.2002 9.47573H9.57957C9.58249 9.47572 9.58534 9.47484 9.58776 9.47322C9.59018 9.47159 9.59207 9.46929 9.59319 9.46659C9.5943 9.4639 9.5946 9.46094 9.59403 9.45808C9.59346 9.45522 9.59207 9.4526 9.59001 9.45053L8.40033 8.26327C8.39755 8.26052 8.3938 8.25897 8.38989 8.25897C8.38598 8.25897 8.38222 8.26052 8.37945 8.26327L7.18976 9.45053Z" fill="#777777"/>
<path d="M24.6209 23.9759H4.37577C4.36833 23.9759 4.3623 23.9819 4.3623 23.9893V25.1729C4.3623 25.1803 4.36833 25.1864 4.37577 25.1864H24.6209C24.6284 25.1864 24.6344 25.1803 24.6344 25.1729V23.9893C24.6344 23.9819 24.6284 23.9759 24.6209 23.9759Z" fill="#777777"/>
<path d="M24.623 25.5224H4.37375C4.36743 25.5224 4.3623 25.5275 4.3623 25.5338V26.6509C4.3623 26.6572 4.36743 26.6623 4.37375 26.6623H24.623C24.6293 26.6623 24.6344 26.6572 24.6344 26.6509V25.5338C24.6344 25.5275 24.6293 25.5224 24.623 25.5224Z" fill="#777777"/>
</g>
<defs>
<clipPath id="clip0_360_1872">
<rect width="30" height="30" fill="white"/>
</clipPath>
</defs>
</svg>
