<svg width="36" height="34" viewBox="0 0 36 34" fill="none" xmlns="http://www.w3.org/2000/svg">
<path fill-rule="evenodd" clip-rule="evenodd" d="M0.453125 0.45C12.1198 0.45 23.7864 0.45 35.4531 0.45C35.4531 1.91667 35.4531 3.38334 35.4531 4.85C23.7864 4.85 12.1198 4.85 0.453125 4.85C0.453125 3.38334 0.453125 1.91667 0.453125 0.45Z" fill="#C6C7C6"/>
<path fill-rule="evenodd" clip-rule="evenodd" d="M0.453125 10.35C12.1198 10.35 23.7864 10.35 35.4531 10.35C35.4531 11.8167 35.4531 13.2834 35.4531 14.75C23.7864 14.75 12.1198 14.75 0.453125 14.75C0.453125 13.2834 0.453125 11.8167 0.453125 10.35Z" fill="#C6C7C6"/>
<path fill-rule="evenodd" clip-rule="evenodd" d="M0.453125 19.15C12.1198 19.15 23.7864 19.15 35.4531 19.15C35.4531 20.6166 35.4531 22.0834 35.4531 23.55C23.7864 23.55 12.1198 23.55 0.453125 23.55C0.453125 22.0834 0.453125 20.6166 0.453125 19.15Z" fill="#C6C7C6"/>
<path fill-rule="evenodd" clip-rule="evenodd" d="M0.453125 25.75C12.1198 25.75 23.7864 25.75 35.4531 25.75C35.4531 27.2166 35.4531 28.6834 35.4531 30.15C23.7864 30.15 12.1198 30.15 0.453125 30.15C0.453125 28.6834 0.453125 27.2166 0.453125 25.75Z" fill="#C6C7C6"/>
<path fill-rule="evenodd" clip-rule="evenodd" d="M0.453125 33.45C0.453125 33.0834 0.453125 32.7166 0.453125 32.35C12.1198 32.35 23.7864 32.35 35.4531 32.35C35.4531 32.7166 35.4531 33.0834 35.4531 33.45C23.7864 33.45 12.1198 33.45 0.453125 33.45Z" fill="#C6C7C6"/>
</svg>
