<svg width="105" height="64" viewBox="0 0 105 64" fill="none" xmlns="http://www.w3.org/2000/svg">
<path d="M33.6348 0.0366071L54.9999 21.0103L40.3651 35.3646L19 14.3909L33.6348 0.0366071Z" fill="#F9D323"/>
<path d="M19 14.336H54.9999V64H19V14.336Z" fill="#F9D323"/>
<path d="M33.5999 0H55V49.664H33.5999V0Z" fill="#F9D323"/>
<path d="M40 0H58V64H40V0Z" fill="#F9D323"/>
<path d="M71.1456 63.9634L48.0001 42.9897L63.8545 28.6354L87 49.6091L71.1456 63.9634Z" fill="#F9D323"/>
<path d="M87 49.664H48.0001V0H87V49.664Z" fill="#F9D323"/>
<path d="M71.1834 64H48V14.336H71.1834V64Z" fill="#F9D323"/>
<path d="M34.8218 2.03432L54.9999 21.6972L41.1781 35.1543L21 15.4915L34.8218 2.03432Z" fill="#161616"/>
<path d="M21 15.44H54.9999V62H21V15.44Z" fill="#161616"/>
<path d="M34.7888 2H55V48.56H34.7888V2Z" fill="#161616"/>
<path d="M40 2H58V62H40V2Z" fill="#161616"/>
<path d="M69.9587 61.9657L48.0001 42.3028L63.0415 28.8457L85 48.5085L69.9587 61.9657Z" fill="#161616"/>
<path d="M85 48.56H48.0001V2H85V48.56Z" fill="#161616"/>
<path d="M69.9946 62H48V15.44H69.9946V62Z" fill="#161616"/>
<path d="M67.9375 17C67.9536 17.0179 67.9745 17.0305 68.0001 17.0378V42.5263L64.2195 42.5323C64.2125 42.5323 64.2055 42.5309 64.199 42.5281C64.1925 42.5254 64.1866 42.5213 64.1817 42.5163C64.1767 42.5112 64.1727 42.5052 64.17 42.4985C64.1674 42.4919 64.166 42.4848 64.166 42.4776L64.1498 40.6266C64.1497 40.616 64.1517 40.6056 64.1558 40.5958C64.1599 40.5861 64.166 40.5772 64.1737 40.5697C64.1814 40.5622 64.1906 40.5563 64.2007 40.5522C64.2108 40.5482 64.2217 40.5461 64.2326 40.5461L65.9169 40.5471C65.9338 40.5471 65.95 40.5406 65.9619 40.529C65.9738 40.5175 65.9805 40.5018 65.9805 40.4855V19.0617C65.9805 19.012 65.9553 18.9872 65.9048 18.9872H44.119C44.1056 18.9872 44.0927 18.9923 44.0833 19.0014C44.0738 19.0106 44.0685 19.023 44.0685 19.0359L44.0675 20.9247C44.0675 20.9571 44.0506 20.9734 44.017 20.9734L42.1035 20.9744C42.0698 20.9744 42.053 20.9575 42.053 20.9237L42.0752 17H67.9375Z" fill="#F9D323"/>
<path d="M62.9481 48H37V22.4697L62.8966 22.4767C62.9316 22.4767 62.9491 22.4939 62.9491 22.5283L62.9481 48ZM60.9316 24.4996C60.9316 24.4933 60.9303 24.4871 60.9279 24.4813C60.9255 24.4756 60.9219 24.4703 60.9174 24.4659C60.9129 24.4614 60.9076 24.4579 60.9017 24.4555C60.8958 24.4531 60.8895 24.4519 60.8831 24.4519H39.068C39.0616 24.4519 39.0553 24.4531 39.0495 24.4555C39.0436 24.4579 39.0382 24.4614 39.0337 24.4659C39.0292 24.4703 39.0257 24.4756 39.0232 24.4813C39.0208 24.4871 39.0195 24.4933 39.0195 24.4996V45.9651C39.0195 45.9778 39.0247 45.9899 39.0337 45.9988C39.0428 46.0078 39.0552 46.0128 39.068 46.0128H60.8831C60.896 46.0128 60.9083 46.0078 60.9174 45.9988C60.9265 45.9899 60.9316 45.9778 60.9316 45.9651V24.4996Z" fill="#F9D323"/>
</svg>
