<svg width="20" height="21" viewBox="0 0 20 21" fill="none" xmlns="http://www.w3.org/2000/svg">
<g clip-path="url(#clip0_23_197)">
<path fill-rule="evenodd" clip-rule="evenodd" d="M-0.0143433 -0.0143642C6.98567 -0.0143642 13.9856 -0.0143642 20.9857 -0.0143642C20.9857 6.98565 20.9857 13.9856 20.9857 20.9856C13.9856 20.9856 6.98567 20.9856 -0.0143433 20.9856C-0.0143433 13.9856 -0.0143433 6.98565 -0.0143433 -0.0143642ZM0.560212 0.560191C7.17717 0.560191 13.7941 0.560191 20.4111 0.560191C20.4111 7.17714 20.4111 13.7941 20.4111 20.4111C13.7941 20.4111 7.17717 20.4111 0.560212 20.4111C0.560212 13.7941 0.560212 7.17714 0.560212 0.560191ZM5.50139 5.44391C8.83381 5.44391 12.1662 5.44391 15.4987 5.44391C15.4987 8.77633 15.4987 12.1088 15.4987 15.4412C12.1662 15.4412 8.83381 15.4412 5.50139 15.4412C5.50139 12.1088 5.50139 8.77633 5.50139 5.44391Z" fill="#727372"/>
<path opacity="0.979" fill-rule="evenodd" clip-rule="evenodd" d="M7.59849 1.22093C7.94914 1.21669 8.18376 1.37948 8.30232 1.7093C8.31189 2.48495 8.32148 3.2606 8.33105 4.03625C8.83157 4.06475 9.33431 4.07432 9.83926 4.06498C9.83446 3.27011 9.83926 2.47532 9.85362 1.68057C9.96833 1.3906 10.1838 1.23738 10.5 1.22093C10.8162 1.23738 11.0317 1.3906 11.1464 1.68057C11.1607 2.47532 11.1655 3.27011 11.1607 4.06498C11.6683 4.06498 12.1758 4.06498 12.6833 4.06498C12.6785 3.27971 12.6833 2.49447 12.6977 1.7093C12.7987 1.40742 13.0094 1.24463 13.3297 1.22093C13.6461 1.24109 13.8663 1.39431 13.9904 1.68057C14.0317 2.47443 14.0461 3.26922 14.0335 4.06498C14.7709 4.06018 15.5083 4.06498 16.2455 4.07934C16.6046 4.132 16.8105 4.33789 16.8632 4.69699C16.8776 5.43429 16.8824 6.17162 16.8776 6.90903C17.6731 6.89699 18.468 6.91136 19.262 6.95212C19.5491 7.07683 19.7023 7.29708 19.7216 7.61286C19.6979 7.9332 19.5351 8.14389 19.2332 8.24487C18.4576 8.25444 17.6819 8.26403 16.9063 8.2736C16.8778 8.77412 16.8682 9.27686 16.8776 9.78181C17.6628 9.77701 18.4481 9.78181 19.2332 9.79617C19.5402 9.89787 19.703 10.1133 19.7216 10.4425C19.6914 10.7626 19.5286 10.9781 19.2332 11.0889C18.4481 11.1033 17.6628 11.1081 16.8776 11.1033C16.8776 11.6108 16.8776 12.1183 16.8776 12.6259C17.6628 12.6211 18.4481 12.6259 19.2332 12.6402C19.5417 12.7431 19.7045 12.9586 19.7216 13.2866C19.6929 13.4254 19.6498 13.5595 19.5923 13.6888C19.5012 13.7944 19.3911 13.8757 19.262 13.933C18.4681 13.9743 17.6733 13.9886 16.8776 13.9761C16.8824 14.7135 16.8776 15.4508 16.8632 16.1881C16.8101 16.5476 16.6042 16.7535 16.2455 16.8057C15.5083 16.8201 14.7709 16.8249 14.0335 16.8201C14.0426 17.6117 14.0283 18.4065 13.9904 19.2045C13.8709 19.4991 13.6507 19.6524 13.3297 19.6642C13.0094 19.6405 12.7987 19.4777 12.6977 19.1758C12.6833 18.3906 12.6785 17.6054 12.6833 16.8201C12.1758 16.8201 11.6683 16.8201 11.1607 16.8201C11.1655 17.615 11.1607 18.4098 11.1464 19.2045C11.0893 19.3334 11.0078 19.4435 10.9022 19.5349C10.4926 19.7366 10.1527 19.6552 9.88235 19.2907C9.87278 19.2524 9.86319 19.2141 9.85362 19.1758C9.83926 18.3906 9.83446 17.6054 9.83926 16.8201C9.33172 16.8201 8.82422 16.8201 8.31668 16.8201C8.32148 17.6054 8.31668 18.3906 8.30232 19.1758C8.20129 19.4777 7.99062 19.6405 7.67031 19.6642C7.34899 19.6522 7.12873 19.499 7.00957 19.2045C6.96826 18.4107 6.9539 17.6159 6.96648 16.8201C6.22907 16.8249 5.49174 16.8201 4.75444 16.8057C4.39534 16.7531 4.18945 16.5472 4.13679 16.1881C4.12243 15.4508 4.11763 14.7135 4.12243 13.9761C3.32667 13.9886 2.53188 13.9743 1.73803 13.933C1.45079 13.8081 1.29758 13.5879 1.27838 13.2722C1.30202 12.952 1.4648 12.7413 1.76675 12.6402C2.5424 12.6307 3.31805 12.6211 4.0937 12.6115C4.1222 12.111 4.13177 11.6082 4.12243 11.1033C3.33716 11.1081 2.55192 11.1033 1.76675 11.0889C1.46978 10.9782 1.30699 10.7628 1.27838 10.4425C1.29483 10.1263 1.44805 9.91088 1.73803 9.79617C2.53277 9.78181 3.32756 9.77701 4.12243 9.78181C4.13177 9.27686 4.1222 8.77412 4.0937 8.2736C3.31805 8.26403 2.5424 8.25444 1.76675 8.24487C1.46493 8.14389 1.30214 7.9332 1.27838 7.61286C1.29771 7.29708 1.45092 7.07683 1.73803 6.95212C2.53611 6.92288 3.33092 6.90851 4.12243 6.90903C4.11763 6.17162 4.12243 5.43429 4.13679 4.69699C4.19069 4.33666 4.39658 4.1308 4.75444 4.07934C5.49174 4.06498 6.22907 4.06018 6.96648 4.06498C6.9539 3.26922 6.96826 2.47443 7.00957 1.68057C7.13046 1.42762 7.32675 1.2744 7.59849 1.22093ZM5.50136 5.44391C5.50136 8.77633 5.50136 12.1088 5.50136 15.4412C8.83379 15.4412 12.1662 15.4412 15.4986 15.4412C15.4986 12.1088 15.4986 8.77633 15.4986 5.44391C12.1662 5.44391 8.83379 5.44391 5.50136 5.44391Z" fill="#727372"/>
<path opacity="0.985" fill-rule="evenodd" clip-rule="evenodd" d="M7.97194 7.54104C9.65734 7.53624 11.3427 7.54104 13.028 7.5554C13.255 7.62179 13.3939 7.77023 13.4446 8.00068C13.4637 9.67646 13.4637 11.3523 13.4446 13.028C13.3823 13.2435 13.2435 13.3823 13.028 13.4446C11.3319 13.4587 9.6418 13.4635 7.95758 13.459C7.74105 13.3766 7.60701 13.2234 7.55539 12.9993C7.53623 11.3139 7.53623 9.6286 7.55539 7.94323C7.63786 7.74716 7.77671 7.61309 7.97194 7.54104Z" fill="#727372"/>
</g>
<defs>
<clipPath id="clip0_23_197">
<rect width="21" height="21" fill="white"/>
</clipPath>
</defs>
</svg>
