<svg xmlns="http://www.w3.org/2000/svg" version="1.1" width="693px" height="691px" style="shape-rendering:geometricPrecision; text-rendering:geometricPrecision; image-rendering:optimizeQuality; fill-rule:evenodd; clip-rule:evenodd" xmlns:xlink="http://www.w3.org/1999/xlink">
<g><path style="opacity:0.985" fill="#fefffe" d="M 328.5,-0.5 C 339.833,-0.5 351.167,-0.5 362.5,-0.5C 410.072,8.90539 438.572,37.5721 448,85.5C 454.179,125.399 449.679,164.066 434.5,201.5C 375.5,202.833 316.5,202.833 257.5,201.5C 238.779,156.31 236.279,110.31 250,63.5C 264.638,28.0288 290.805,6.69542 328.5,-0.5 Z"/></g>
<g><path style="opacity:0.972" fill="#fefffe" d="M 161.5,95.5 C 183.143,92.4645 203.477,96.1312 222.5,106.5C 222.367,139.377 228.367,171.044 240.5,201.5C 189.171,202.5 137.838,202.833 86.5,202.5C 84.3579,170.088 94.0246,141.921 115.5,118C 128.644,105.928 143.977,98.4277 161.5,95.5 Z"/></g>
<g><path style="opacity:0.972" fill="#fefffe" d="M 498.5,95.5 C 554.63,90.5046 589.463,115.171 603,169.5C 604.94,180.417 605.773,191.417 605.5,202.5C 554.162,202.833 502.829,202.5 451.5,201.5C 463.633,171.044 469.633,139.377 469.5,106.5C 478.725,101.428 488.392,97.7618 498.5,95.5 Z"/></g>
<g><path style="opacity:0.898" fill="#fefffe" d="M 86.5,208.5 C 138.838,208.167 191.171,208.5 243.5,209.5C 244.833,212.167 246.167,214.833 247.5,217.5C 194.171,218.5 140.837,218.833 87.5,218.5C 87.6576,215.098 87.3242,211.764 86.5,208.5 Z"/></g>
<g><path style="opacity:0.901" fill="#fefffe" d="M 260.5,208.5 C 317.504,208.167 374.504,208.5 431.5,209.5C 430.167,212.167 428.833,214.833 427.5,217.5C 373.167,218.833 318.833,218.833 264.5,217.5C 262.88,214.596 261.547,211.596 260.5,208.5 Z"/></g>
<g><path style="opacity:0.898" fill="#fefffe" d="M 448.5,208.5 C 500.838,208.167 553.171,208.5 605.5,209.5C 604.593,212.421 604.26,215.421 604.5,218.5C 551.163,218.833 497.829,218.5 444.5,217.5C 446.12,214.596 447.453,211.596 448.5,208.5 Z"/></g>
<g><path style="opacity:0.944" fill="#fefffe" d="M 88.5,222.5 C 142.501,222.333 196.501,222.5 250.5,223C 253.756,229.516 257.756,235.516 262.5,241C 205.643,242.496 148.643,242.996 91.5,242.5C 90.4997,235.832 89.4997,229.165 88.5,222.5 Z"/></g>
<g><path style="opacity:0.947" fill="#fefffe" d="M 267.5,222.5 C 319.838,222.167 372.171,222.5 424.5,223.5C 420.874,229.922 416.874,236.089 412.5,242C 368.167,242.667 323.833,242.667 279.5,242C 274.851,235.862 270.851,229.362 267.5,222.5 Z"/></g>
<g><path style="opacity:0.944" fill="#fefffe" d="M 441.5,222.5 C 495.5,222.5 549.5,222.5 603.5,222.5C 602.5,229.165 601.5,235.832 600.5,242.5C 543.832,242.667 487.166,242.5 430.5,242C 430.167,241.667 429.833,241.333 429.5,241C 434.382,235.401 438.382,229.235 441.5,222.5 Z"/></g>
<g><path style="opacity:0.952" fill="#fefffe" d="M 94.5,250.5 C 147.834,250.333 201.168,250.5 254.5,251C 224.5,260.333 194.5,269.667 164.5,279C 144.492,279.833 124.492,279.666 104.5,278.5C 100.171,269.511 96.8373,260.178 94.5,250.5 Z"/></g>
<g><path style="opacity:0.935" fill="#fefffe" d="M 271.5,250.5 C 321.168,250.333 370.834,250.5 420.5,251C 450.5,260.333 480.5,269.667 510.5,279C 400.833,279.667 291.167,279.667 181.5,279C 211.705,269.763 241.705,260.263 271.5,250.5 Z"/></g>
<g><path style="opacity:0.952" fill="#fefffe" d="M 437.5,251.5 C 490.664,250.501 543.997,250.168 597.5,250.5C 595.163,260.178 591.829,269.511 587.5,278.5C 567.508,279.666 547.508,279.833 527.5,279C 497.572,269.523 467.572,260.357 437.5,251.5 Z"/></g>
<g><path style="opacity:0.82" fill="#fefffe" d="M 112.5,293.5 C 118.319,292.347 124.319,292.181 130.5,293C 126.566,296.793 123.733,301.293 122,306.5C 118.323,302.454 115.156,298.121 112.5,293.5 Z"/></g>
<g><path style="opacity:0.976" fill="#fefffe" d="M 148.5,292.5 C 280.167,292.333 411.834,292.5 543.5,293C 547.993,296.834 550.826,301.667 552,307.5C 552.5,316.494 552.666,325.494 552.5,334.5C 414.833,334.5 277.167,334.5 139.5,334.5C 139.334,325.494 139.5,316.494 140,307.5C 141.805,301.887 144.638,296.887 148.5,292.5 Z"/></g>
<g><path style="opacity:0.82" fill="#fefffe" d="M 561.5,293.5 C 567.319,292.347 573.319,292.181 579.5,293C 576.948,297.938 573.782,302.438 570,306.5C 568.344,301.308 565.511,296.975 561.5,293.5 Z"/></g>
<g><path style="opacity:0.86" fill="#fefffe" d="M 120.5,308.5 C 121.239,308.369 121.906,308.536 122.5,309C 121.055,317.389 120.389,325.889 120.5,334.5C 94.1646,334.667 67.8312,334.5 41.5,334C 67.9997,325.633 94.3331,317.133 120.5,308.5 Z"/></g>
<g><path style="opacity:0.86" fill="#fefffe" d="M 569.5,309.5 C 596.417,316.829 623.417,324.995 650.5,334C 624.169,334.5 597.835,334.667 571.5,334.5C 571.629,325.956 570.962,317.623 569.5,309.5 Z"/></g>
<g><path style="opacity:0.986" fill="#fefffe" d="M -0.5,428.5 C -0.5,405.5 -0.5,382.5 -0.5,359.5C 0.248534,358.469 0.915201,357.302 1.5,356C 41.1653,355.5 80.8319,355.333 120.5,355.5C 120.5,379.833 120.5,404.167 120.5,428.5C 80.1667,428.5 39.8333,428.5 -0.5,428.5 Z"/></g>
<g><path style="opacity:0.987" fill="#fefffe" d="M 139.5,355.5 C 277.167,355.5 414.833,355.5 552.5,355.5C 552.5,379.833 552.5,404.167 552.5,428.5C 414.833,428.5 277.167,428.5 139.5,428.5C 139.5,404.167 139.5,379.833 139.5,355.5 Z"/></g>
<g><path style="opacity:0.986" fill="#fefffe" d="M 692.5,359.5 C 692.5,382.5 692.5,405.5 692.5,428.5C 652.167,428.5 611.833,428.5 571.5,428.5C 571.5,404.167 571.5,379.833 571.5,355.5C 611.168,355.333 650.835,355.5 690.5,356C 691.085,357.302 691.751,358.469 692.5,359.5 Z"/></g>
<g><path style="opacity:0.98" fill="#fefffe" d="M -0.5,459.5 C 39.8333,459.5 80.1667,459.5 120.5,459.5C 120.5,491.833 120.5,524.167 120.5,556.5C 80.1667,556.5 39.8333,556.5 -0.5,556.5C -0.5,524.167 -0.5,491.833 -0.5,459.5 Z"/></g>
<g><path style="opacity:0.98" fill="#fefffe" d="M 139.5,459.5 C 277.167,459.5 414.833,459.5 552.5,459.5C 552.5,491.833 552.5,524.167 552.5,556.5C 414.833,556.5 277.167,556.5 139.5,556.5C 139.5,524.167 139.5,491.833 139.5,459.5 Z"/></g>
<g><path style="opacity:0.98" fill="#fefffe" d="M 692.5,459.5 C 692.5,491.833 692.5,524.167 692.5,556.5C 652.167,556.5 611.833,556.5 571.5,556.5C 571.5,524.167 571.5,491.833 571.5,459.5C 611.833,459.5 652.167,459.5 692.5,459.5 Z"/></g>
<g><path style="opacity:0.973" fill="#fefffe" d="M -0.5,597.5 C 39.8333,597.5 80.1667,597.5 120.5,597.5C 120.333,617.169 120.5,636.836 121,656.5C 122.236,679.075 134.07,689.575 156.5,688C 148.523,683.683 143.023,677.183 140,668.5C 139.5,644.836 139.333,621.169 139.5,597.5C 277.167,597.5 414.833,597.5 552.5,597.5C 552.667,620.836 552.5,644.169 552,667.5C 549.408,676.751 543.908,683.584 535.5,688C 557.93,689.575 569.764,679.075 571,656.5C 571.5,636.836 571.667,617.169 571.5,597.5C 611.833,597.5 652.167,597.5 692.5,597.5C 692.5,622.167 692.5,646.833 692.5,671.5C 689.018,679.814 683.018,685.647 674.5,689C 626.332,689.167 578.332,689.667 530.5,690.5C 407.5,690.5 284.5,690.5 161.5,690.5C 113.668,689.667 65.6684,689.167 17.5,689C 8.98151,685.647 2.98151,679.814 -0.5,671.5C -0.5,646.833 -0.5,622.167 -0.5,597.5 Z"/></g>
</svg>
