<svg width="75" height="75" viewBox="0 0 75 75" fill="none" xmlns="http://www.w3.org/2000/svg">
<g clip-path="url(#clip0_1387_5243)">
<path d="M1.25 1.25V73.75H73.75V1.25H1.25Z" stroke="black" stroke-width="2.5"/>
<path d="M57.057 50.2569C57.0553 50.0737 57.138 49.9577 57.3052 49.9091C57.3298 49.902 57.3561 49.905 57.3785 49.9174C57.4009 49.9298 57.4174 49.9505 57.4245 49.9751C57.4461 50.0508 57.4512 50.1374 57.4398 50.2347C57.4372 50.2546 57.4258 50.2645 57.4055 50.2645H57.2024C57.1511 50.2645 57.1249 50.2901 57.1236 50.3413C57.116 50.6325 57.1619 50.8809 57.2614 51.0866C57.2704 51.1051 57.2721 51.1263 57.2662 51.1459C57.2603 51.1656 57.2473 51.1822 57.2296 51.1926C57.1615 51.2328 57.0822 51.277 56.9916 51.3252C56.8678 51.3906 56.6361 51.6432 56.6495 51.8172C56.6592 51.9429 56.6711 52.022 56.685 52.0546C56.7625 52.2302 56.904 52.3013 57.1097 52.2679C57.2988 52.2374 57.2385 52.0527 57.2557 51.9263C57.2567 51.9187 57.2592 51.9114 57.2632 51.9049C57.2671 51.8983 57.2723 51.8927 57.2785 51.8883L57.5185 51.7201C57.5274 51.7137 57.5378 51.7098 57.5487 51.7087C57.5597 51.7076 57.5707 51.7093 57.5807 51.7137C57.5907 51.7181 57.5994 51.7251 57.606 51.7339C57.6126 51.7426 57.6167 51.753 57.6181 51.7638L57.6429 51.9492C57.6463 51.9746 57.6395 51.997 57.6226 52.0165L57.5159 52.1377C57.5053 52.1498 57.4977 52.1642 57.4935 52.1798C57.4894 52.1954 57.4889 52.2117 57.4921 52.2275C57.4953 52.2432 57.5021 52.2581 57.5119 52.2708C57.5218 52.2835 57.5345 52.2938 57.5489 52.3009C57.7901 52.4177 57.9645 52.5036 58.072 52.5586C58.1964 52.6216 58.2802 52.6855 58.3233 52.7503C58.3885 52.8484 58.4173 52.9564 58.4097 53.074C58.409 53.0846 58.4105 53.0953 58.4142 53.1053C58.4178 53.1153 58.4235 53.1245 58.431 53.1321C58.4384 53.1398 58.4473 53.1458 58.4572 53.1498C58.4671 53.1538 58.4777 53.1556 58.4884 53.1553C58.5548 53.1527 58.6217 53.1618 58.689 53.1825C58.7049 53.1874 58.7192 53.1962 58.7308 53.2082C58.7423 53.2202 58.7506 53.2349 58.7549 53.251C58.7592 53.2671 58.7594 53.284 58.7554 53.3003C58.7514 53.3165 58.7434 53.3315 58.7321 53.3438C58.6505 53.4326 58.5751 53.5082 58.5062 53.5704C58.4973 53.578 58.4878 53.5808 58.4776 53.5786C58.4581 53.5748 58.4514 53.5634 58.4573 53.5444C58.4827 53.4635 58.4937 53.4007 58.4903 53.3558C58.4865 53.3089 58.4566 53.2767 58.4008 53.2594C58.3784 53.2522 58.3386 53.2534 58.2815 53.2632C58.2273 53.2725 58.1987 53.3044 58.1958 53.359C58.1913 53.4479 58.1818 53.5101 58.1177 53.5755C58.0919 53.6013 58.0115 53.6815 57.8765 53.816C57.8628 53.8296 57.8531 53.8466 57.8484 53.8653C57.8438 53.884 57.8444 53.9036 57.8502 53.922C57.8559 53.9403 57.8667 53.9567 57.8812 53.9694C57.8956 53.9821 57.9134 53.9905 57.9323 53.9938L58.4198 54.0782C58.4435 54.0824 58.4634 54.0755 58.4795 54.0573L58.9365 53.5367C58.9513 53.5198 58.9698 53.5135 58.9918 53.5177C59.0472 53.5283 59.1354 53.5471 59.2565 53.5742C59.3402 53.5932 59.4143 53.6381 59.4786 53.7088C59.6597 53.9085 59.8358 54.1087 60.0067 54.3093C60.0199 54.3249 60.0171 54.3361 59.9985 54.3429C59.7801 54.4235 59.5808 54.4699 59.5319 54.6616C59.5291 54.6729 59.529 54.6847 59.5316 54.6961C59.5342 54.7075 59.5395 54.7181 59.547 54.7271C59.5545 54.736 59.564 54.7431 59.5747 54.7477C59.5854 54.7523 59.5971 54.7543 59.6087 54.7536L60.1845 54.7142C60.1918 54.7137 60.1992 54.7148 60.206 54.7175C60.2129 54.7201 60.2191 54.7243 60.2241 54.7296C60.2291 54.735 60.2329 54.7414 60.2352 54.7484C60.2375 54.7554 60.2381 54.7628 60.2372 54.7701C60.213 54.9635 60.2331 55.1484 60.2975 55.3249C60.3047 55.3448 60.3083 55.3653 60.3083 55.3865V55.5642C60.3083 55.5934 60.3226 55.6059 60.3514 55.6016C60.4919 55.5817 60.6096 55.5356 60.7044 55.4633C60.7716 55.4116 60.7886 55.4254 60.7551 55.5045L60.6396 55.773C60.636 55.7814 60.6307 55.7888 60.6239 55.7948C60.6171 55.8009 60.609 55.8053 60.6003 55.8079C60.527 55.8291 60.4536 55.8264 60.38 55.7997C60.3601 55.7921 60.3487 55.7777 60.3457 55.7565L60.3305 55.6423C60.3289 55.6318 60.3237 55.6222 60.3156 55.6153C60.3076 55.6084 60.2973 55.6047 60.2867 55.6048C60.2118 55.6074 60.1305 55.6334 60.062 55.6093C59.861 55.5386 59.5874 55.5132 59.2412 55.5331C59.2192 55.5344 59.2078 55.5458 59.2069 55.5674C59.1989 55.7328 59.2579 55.874 59.384 55.9907C59.4951 56.0936 59.6056 56.0384 59.7852 56.0142C60.0345 55.98 60.1993 56.0705 60.2797 56.2859C60.3121 56.3722 60.2822 56.4459 60.2537 56.536C60.2469 56.5563 60.2355 56.5735 60.2194 56.5874C60.1364 56.6577 60.0732 56.7309 60.0296 56.8071C60.0233 56.8183 60.0204 56.8311 60.0211 56.844C60.0218 56.8569 60.0261 56.8693 60.0335 56.8798C60.0409 56.8904 60.0512 56.8986 60.063 56.9036C60.0749 56.9086 60.088 56.9101 60.1007 56.908C60.2458 56.8834 60.3508 56.8671 60.4155 56.8591C60.4879 56.8502 60.534 56.8678 60.5539 56.9118C60.5802 56.9702 60.611 57.029 60.6466 57.0883C60.6754 57.1361 60.6802 57.1981 60.6612 57.2743C60.6015 57.5159 60.4714 57.7209 60.2708 57.8893C60.2209 57.9317 60.1989 57.9837 60.2048 58.0455C60.2061 58.0593 60.2102 58.0728 60.2169 58.085C60.2236 58.0973 60.2327 58.108 60.2436 58.1167C60.2546 58.1254 60.2672 58.1317 60.2807 58.1354C60.2942 58.1391 60.3083 58.14 60.3222 58.1382L60.6663 58.0918C60.6887 58.0889 60.7115 58.0916 60.7327 58.0997C60.7538 58.1078 60.7727 58.121 60.7875 58.1382L60.9195 58.2892C60.9321 58.3038 60.9484 58.3149 60.9666 58.3212C60.9848 58.3276 61.0044 58.329 61.0234 58.3254C61.0424 58.3218 61.0601 58.3133 61.0749 58.3007C61.0896 58.2881 61.1008 58.2719 61.1074 58.2537C61.1172 58.2262 61.1413 58.1809 61.1798 58.1179C61.1938 58.0946 61.2122 58.0791 61.235 58.0715C61.2617 58.0622 61.2712 58.0711 61.2636 58.0982C61.2412 58.1807 61.2263 58.227 61.2191 58.2372C61.1684 58.3096 61.1821 58.3775 61.2604 58.4409C61.571 58.6923 61.9062 58.8745 62.2659 58.9875C62.2807 58.9921 62.2935 59.0017 62.3022 59.0146C62.311 59.0275 62.3152 59.043 62.3141 59.0586C62.3078 59.1652 62.2906 59.2515 62.3649 59.3455C62.546 59.5749 62.6797 59.7405 62.7661 59.8425C62.8025 59.8861 62.8264 59.9373 62.8378 59.9961C62.8784 60.209 62.8875 60.4197 62.8651 60.6283C62.864 60.6388 62.8671 60.6493 62.8738 60.6576C62.8804 60.6659 62.89 60.6713 62.9006 60.6728C63.053 60.6901 63.1895 60.6563 63.3101 60.5712C63.3176 60.566 63.3261 60.5624 63.3351 60.5608C63.3442 60.5592 63.3534 60.5595 63.3623 60.5618C63.3711 60.5641 63.3794 60.5683 63.3865 60.5741C63.3936 60.5799 63.3993 60.5871 63.4034 60.5953C63.4728 60.7384 63.5293 60.8696 63.5729 60.9889C63.5936 61.0456 63.5959 61.0983 63.5798 61.147C63.5399 61.2682 63.4504 61.3507 63.345 61.4516C63.2574 61.5361 63.2218 61.6338 63.2155 61.743C63.2148 61.7532 63.2164 61.7634 63.22 61.773C63.2236 61.7826 63.2291 61.7912 63.2363 61.7985C63.2435 61.8058 63.2522 61.8114 63.2617 61.8151C63.2712 61.8188 63.2815 61.8204 63.2917 61.8198C63.4008 61.8139 63.5454 61.8003 63.7252 61.7792C63.9201 61.7557 64.0121 61.8154 64.1734 61.9214C64.1907 61.9328 64.193 61.9493 64.1803 61.9709C64.1736 61.9827 64.1067 62.0496 63.9797 62.1715C63.8977 62.2502 63.8699 62.3608 63.8966 62.5034C63.9004 62.5238 63.9129 62.5339 63.934 62.5339H64.3606C64.3796 62.5339 64.3983 62.5388 64.4147 62.548C64.4312 62.5573 64.4449 62.5705 64.4546 62.5866C64.525 62.7009 64.7173 62.9027 64.7408 63.0487C64.7548 63.1346 64.7643 63.2307 64.7694 63.3369C64.7698 63.341 64.7692 63.3451 64.7676 63.349C64.7661 63.3529 64.7637 63.3563 64.7605 63.3591L64.3797 63.6905C64.3664 63.7019 64.3503 63.7095 64.3329 63.7123C64.3155 63.7151 64.2976 63.713 64.2813 63.7063C64.1128 63.6378 63.9353 63.6263 63.7487 63.6721C63.6598 63.6943 63.6395 63.7774 63.5989 63.8377C63.5481 63.913 63.5164 63.993 63.5037 64.0777C63.5024 64.0863 63.503 64.095 63.5053 64.1033C63.5077 64.1117 63.5119 64.1194 63.5175 64.126C63.5231 64.1325 63.53 64.1378 63.5378 64.1414C63.5456 64.145 63.5541 64.1469 63.5627 64.1469C63.6884 64.1469 63.8094 64.1447 63.9258 64.1405C64.1092 64.1342 64.1581 63.9901 64.3086 63.9628C64.3674 63.9522 64.4581 63.9473 64.5809 63.9482C64.663 63.9486 64.741 63.9841 64.8151 64.0548C64.8498 64.0878 64.9522 64.1689 65.1223 64.2979C65.1397 64.3115 65.1386 64.3235 65.1191 64.3341C64.864 64.4716 64.627 64.6259 64.4082 64.7969C64.3174 64.868 64.2337 64.8641 64.1257 64.8457C64.1179 64.8444 64.1098 64.8447 64.102 64.8467C64.0943 64.8488 64.0871 64.8524 64.0809 64.8575C64.0747 64.8625 64.0697 64.8689 64.0661 64.876C64.0626 64.8832 64.0606 64.8911 64.0604 64.8991C64.0599 64.9236 64.0595 65.022 64.0591 65.1942C64.0591 65.286 64.0464 65.3728 64.021 65.4545C63.9982 65.5277 63.9859 65.6174 63.9842 65.7236C63.9838 65.7407 63.9788 65.7573 63.9697 65.7716C63.9607 65.7859 63.9479 65.7974 63.9328 65.8049C63.7665 65.8865 63.6605 65.9339 63.6148 65.9471C63.5496 65.9657 63.5341 65.9458 63.5684 65.8874C63.6797 65.6986 63.699 65.5518 63.6262 65.4469C63.5233 65.2996 63.3532 65.3212 63.1996 65.3282C63.1763 65.3294 63.1634 65.3417 63.1609 65.365C63.1317 65.6616 63.1188 65.8527 63.1222 65.9382C63.1243 65.9877 63.1539 66.0442 63.211 66.1076C63.225 66.1233 63.2261 66.1398 63.2142 66.1572C63.1571 66.2376 63.0921 66.2976 63.0193 66.3374C62.9978 66.3489 62.9768 66.348 62.9565 66.3349L62.7946 66.2302C62.7726 66.2158 62.7665 66.1963 62.7762 66.1718C62.8202 66.06 62.8331 65.9625 62.8149 65.8791C62.8094 65.8542 62.7718 65.7865 62.702 65.676C62.6453 65.5854 62.6207 65.4968 62.6283 65.41C62.6317 65.3745 62.6277 65.3476 62.6163 65.3294C62.6006 65.3045 62.5723 65.292 62.5312 65.292C62.4927 65.2915 62.4624 65.3083 62.4404 65.3421C62.4167 65.3794 62.3964 65.4215 62.3795 65.4684C62.3768 65.4761 62.3721 65.4829 62.3658 65.4881C62.3596 65.4934 62.3521 65.4969 62.3441 65.4982C62.336 65.4996 62.3278 65.4988 62.3202 65.4959C62.3126 65.493 62.3059 65.4881 62.3008 65.4818C62.1891 65.3459 62.1059 65.1993 61.9637 65.2215C61.944 65.2245 61.9262 65.2348 61.9137 65.2503C61.9013 65.2658 61.8951 65.2854 61.8964 65.3053C61.9129 65.5448 61.9553 65.727 62.0234 65.8518C62.0374 65.8772 62.0304 65.8939 62.0025 65.902L61.6813 65.994C61.6726 65.9966 61.6636 65.9972 61.6547 65.996C61.6458 65.9947 61.6373 65.9915 61.6297 65.9866C61.6222 65.9817 61.6158 65.9752 61.611 65.9676C61.6062 65.9601 61.6031 65.9515 61.6019 65.9426L61.4883 65.1009C61.4798 65.0391 61.4485 65.0099 61.3943 65.0133C61.3931 65.0133 61.3918 65.0131 61.3905 65.0127C61.3784 65.0114 61.3661 65.013 61.3543 65.0173C61.3426 65.0216 61.3317 65.0285 61.3222 65.0377C61.3128 65.0469 61.3049 65.0581 61.2992 65.0707C61.2935 65.0833 61.29 65.097 61.289 65.1111C61.2716 65.3396 61.1959 65.4447 61.0617 65.4265C61.0103 65.4196 60.9729 65.4183 60.9265 65.4253C60.8952 65.4303 60.8884 65.4196 60.9062 65.3929C61.0858 65.1276 61.1646 65.0089 61.0858 64.7042C61.0819 64.6891 61.0736 64.6756 61.0621 64.6653C61.0506 64.655 61.0363 64.6485 61.0211 64.6464C60.9652 64.6384 60.9087 64.6536 60.8516 64.6921C60.8355 64.7027 60.6733 64.8231 60.3648 65.0533C60.2169 65.1637 60.0823 65.2279 59.9071 65.3085C59.8711 65.325 59.8542 65.3531 59.8563 65.3929C59.8699 65.6447 59.8959 65.8846 59.9344 66.1127C59.9522 66.2194 59.9494 66.2934 59.9261 66.3349C59.8889 66.4009 59.8438 66.4646 59.7909 66.526C59.7761 66.5433 59.7588 66.5461 59.7389 66.5342C59.6532 66.4834 59.5903 66.4555 59.492 66.5164C59.3426 66.6083 59.1661 66.7119 58.9626 66.8275C58.9397 66.8405 58.9229 66.8618 58.9155 66.8869C58.9082 66.9121 58.9109 66.939 58.9232 66.962C59.018 67.1406 59.0923 67.2862 59.146 67.3988C59.1676 67.4436 59.1631 67.4866 59.1327 67.5276C59.0438 67.6463 58.9822 67.7345 58.8426 67.7891C58.8335 67.7926 58.8237 67.7939 58.8139 67.7931C58.8042 67.7923 58.7948 67.7893 58.7865 67.7843C58.7781 67.7794 58.771 67.7726 58.7656 67.7646C58.7603 67.7565 58.7569 67.7473 58.7556 67.7377L58.6833 67.1982C58.6795 67.1728 58.667 67.1529 58.6458 67.1385C58.565 67.0852 58.4863 67.0025 58.4097 66.8903C58.4024 66.8796 58.3927 66.8706 58.3816 66.864C58.3704 66.8575 58.3579 66.8534 58.3449 66.8522L57.7279 66.7957C57.6945 66.7928 57.6778 66.808 57.6778 66.8414V67.0293C57.6778 67.0618 57.6702 67.0938 57.6557 67.1227C57.6411 67.1516 57.62 67.1766 57.594 67.1956L57.507 67.2597C57.4427 67.3076 57.4051 67.2917 57.3941 67.2121L57.3604 66.9639C57.3579 66.9432 57.3467 66.9301 57.3268 66.9246C57.265 66.9068 57.2235 66.9142 57.2024 66.9468C57.0953 67.1093 56.9764 67.2555 56.8456 67.3854C56.834 67.397 56.8194 67.4051 56.8035 67.4089C56.7875 67.4126 56.7709 67.4117 56.7555 67.4064L56.3448 67.2642C56.336 67.2612 56.328 67.2563 56.3215 67.2497C56.3149 67.2432 56.3098 67.2353 56.3067 67.2266C56.3036 67.2179 56.3025 67.2086 56.3035 67.1994C56.3045 67.1902 56.3075 67.1813 56.3124 67.1734C56.3894 67.0494 56.4309 66.918 56.4368 66.7792C56.4373 66.7693 56.4351 66.7594 56.4304 66.7506C56.4257 66.7419 56.4187 66.7345 56.4102 66.7294C56.4017 66.7243 56.3919 66.7215 56.382 66.7215C56.372 66.7214 56.3622 66.724 56.3537 66.7291L56.2147 66.8091C56.2008 66.8171 56.1853 66.8219 56.1693 66.823C56.1533 66.8242 56.1372 66.8217 56.1223 66.8157C56.1074 66.8097 56.0941 66.8004 56.0834 66.7884C56.0727 66.7765 56.0648 66.7623 56.0604 66.7469L55.9544 66.38C55.9514 66.3694 55.946 66.3598 55.9385 66.3518C55.931 66.3438 55.9217 66.3377 55.9114 66.334C55.9011 66.3303 55.89 66.3292 55.8792 66.3307C55.8683 66.3322 55.858 66.3362 55.849 66.3425L55.3101 66.7189C55.3059 66.7219 55.3009 66.7235 55.2958 66.7235C55.2906 66.7236 55.2855 66.722 55.2811 66.7191C55.2767 66.7161 55.2731 66.7119 55.2708 66.7069C55.2686 66.7019 55.2676 66.6964 55.2682 66.691L55.3101 66.2302C55.3113 66.2159 55.3085 66.2016 55.302 66.1889C55.2955 66.1762 55.2856 66.1656 55.2734 66.1582C55.2613 66.1509 55.2473 66.1471 55.2331 66.1474C55.219 66.1476 55.2052 66.1519 55.1933 66.1597L54.6823 66.4917C54.6053 66.5412 54.592 66.5279 54.6423 66.4517C54.7268 66.3235 54.8398 66.1622 54.834 66.0296C54.8264 65.8544 54.6354 65.829 54.5122 65.9204C54.3713 66.0245 54.2363 66.1375 54.1072 66.2594C54.0912 66.275 54.0723 66.2792 54.0507 66.272C53.5391 66.0977 53.1957 65.9807 53.0205 65.921C52.9304 65.8901 52.8125 65.9234 52.667 66.0207C52.6496 66.0325 52.6306 66.0397 52.6098 66.0423L52.5724 66.0473C52.5683 66.0477 52.5642 66.0468 52.5607 66.0447C52.5572 66.0426 52.5545 66.0395 52.5529 66.0357C52.5514 66.0319 52.5511 66.0278 52.552 66.0238C52.553 66.0198 52.5553 66.0163 52.5584 66.0137C52.8415 65.8 52.9676 65.5482 52.9367 65.2583C52.9346 65.2363 52.9223 65.2247 52.8999 65.2234C52.8259 65.2196 52.7541 65.2695 52.6847 65.3732C52.6756 65.3865 52.6618 65.3957 52.6461 65.3989C52.6305 65.4021 52.6143 65.399 52.6009 65.3904C52.5358 65.3476 52.4776 65.3055 52.4264 65.264C52.3515 65.2031 52.2778 64.9955 52.241 64.8908C52.2338 64.8705 52.2194 64.8605 52.1979 64.861C52.076 64.8648 51.9852 64.9987 51.7884 64.9416C51.763 64.9344 51.7527 64.9179 51.7573 64.8921L51.8227 64.5144C51.8239 64.507 51.8234 64.4995 51.8213 64.4924C51.8192 64.4853 51.8155 64.4788 51.8106 64.4733C51.8056 64.4678 51.7995 64.4635 51.7928 64.4607C51.7859 64.458 51.7786 64.4568 51.7713 64.4573C51.6934 64.4628 51.6202 64.4879 51.5517 64.5328C51.376 64.6466 51.2159 64.7575 51.0711 64.8654C50.9641 64.9454 50.9317 64.9219 50.974 64.7949C50.9791 64.7806 50.9808 64.7581 50.9791 64.7277C50.9781 64.7099 50.9726 64.6926 50.9631 64.6774C50.9537 64.6623 50.9406 64.6497 50.925 64.6409C50.9095 64.6321 50.8919 64.6273 50.874 64.6269C50.8561 64.6265 50.8383 64.6306 50.8223 64.6388L50.5145 64.7969C50.4451 64.8324 50.4239 64.8136 50.451 64.7404C50.5327 64.522 50.6008 64.329 50.6554 64.1615C50.689 64.0593 50.7715 63.9894 50.802 63.898C50.8261 63.8261 50.8003 63.7905 50.7246 63.7914C50.5754 63.7927 50.4383 63.8161 50.3221 63.9336C50.1723 64.0855 50.0494 64.2165 49.9533 64.3265C49.9486 64.3318 49.9427 64.336 49.9362 64.3387C49.9296 64.3414 49.9225 64.3426 49.9154 64.3421C49.9083 64.3417 49.9015 64.3397 49.8953 64.3362C49.8891 64.3327 49.8838 64.3279 49.8797 64.322L49.2951 63.4861C49.2765 63.4598 49.2788 63.4355 49.3021 63.4131C49.5373 63.1841 49.7274 62.915 49.8721 62.6056C49.8777 62.5939 49.8806 62.5811 49.8807 62.5682C49.8808 62.5553 49.8781 62.5425 49.8727 62.5307C49.8372 62.452 49.7743 62.444 49.6842 62.5066C49.6237 62.5489 49.5435 62.6365 49.4436 62.7694C49.4411 62.7726 49.4377 62.775 49.4338 62.7762C49.4298 62.7774 49.4255 62.7775 49.4214 62.7764C49.4142 62.7739 49.4089 62.7703 49.4055 62.7656C49.4047 62.7648 49.4043 62.7637 49.4043 62.7624C49.4068 62.7341 49.4299 62.6634 49.4734 62.5504C49.4976 62.4886 49.5016 62.4472 49.4855 62.426C49.477 62.4147 49.4659 62.4055 49.4531 62.399C49.4402 62.3926 49.4259 62.389 49.411 62.3886C49.3961 62.3882 49.381 62.3909 49.3667 62.3966C49.3524 62.4023 49.3393 62.4108 49.3281 62.4216L49.0386 62.704C48.9895 62.7514 48.9743 62.743 48.9929 62.6786C49.0805 62.3718 49.1038 62.0217 49.0628 61.6281C49.0564 61.5629 49.0204 61.5303 48.9548 61.5303H48.9072C48.8535 61.5303 48.8285 61.5572 48.8323 61.611C48.8429 61.7637 48.8467 61.9152 48.8438 62.0655C48.8421 62.1387 48.8283 62.193 48.8025 62.2286C48.7119 62.353 48.6279 62.4704 48.5505 62.5809C48.5425 62.5923 48.5312 62.6009 48.5182 62.6053C48.5051 62.6098 48.4911 62.6099 48.4781 62.6056C48.4684 62.6023 48.4621 62.5879 48.4591 62.5625C48.4293 62.28 48.4299 62.0712 48.2782 61.8439C48.2659 61.8257 48.249 61.8156 48.2274 61.8135C48.1889 61.8097 48.1546 61.8149 48.1246 61.8293C48.1038 61.8386 48.0945 61.8547 48.0966 61.8776C48.1161 62.1014 48.1269 62.346 48.129 62.6114C48.1303 62.7078 48.1658 62.7681 48.1842 62.8532C48.1889 62.8739 48.187 62.894 48.1785 62.9135C48.1396 63.0036 48.1127 63.0953 48.0979 63.1884C48.0949 63.2057 48.0628 63.2645 48.0014 63.3648C47.9879 63.3873 47.9737 63.3877 47.9589 63.3661L47.7856 63.1179C47.7716 63.098 47.7674 63.0762 47.7729 63.0525C47.797 62.9497 47.8078 62.8069 47.7132 62.7256C47.6155 62.6418 47.5232 62.546 47.4365 62.4381C47.4286 62.4281 47.4182 62.4205 47.4062 62.416C47.3942 62.4116 47.3812 62.4104 47.3686 62.4127C47.3119 62.4233 47.2681 62.4552 47.2372 62.5085C47.2266 62.5271 47.2109 62.5333 47.1902 62.5269C47.1491 62.5142 47.124 62.496 47.1147 62.4723C47.0867 62.4029 47.0882 62.3206 47.1191 62.2254C47.1775 62.043 47.2118 61.8695 47.2219 61.7049C47.2229 61.6889 47.2191 61.673 47.211 61.6592C47.203 61.6453 47.191 61.6342 47.1766 61.6271C47.1622 61.6201 47.1461 61.6174 47.1302 61.6195C47.1143 61.6216 47.0994 61.6284 47.0874 61.6389L46.9312 61.7741C46.8914 61.8088 46.8601 61.8022 46.8373 61.7544C46.7336 61.5378 46.6143 61.3541 46.4793 61.2034C46.4242 61.1421 46.373 61.107 46.3256 61.0981C46.1219 61.0594 45.9835 61.1768 45.8159 61.2187C45.8103 61.2201 45.8045 61.2202 45.7989 61.2189C45.7933 61.2175 45.788 61.2149 45.7836 61.2111C45.7792 61.2073 45.7758 61.2025 45.7735 61.1971C45.7713 61.1917 45.7704 61.1858 45.7709 61.18L45.8185 60.6563C45.8231 60.6085 45.8013 60.5862 45.7531 60.5896L45.6725 60.5947C45.6289 60.5981 45.6035 60.6212 45.5963 60.6639L45.5785 60.7661C45.5747 60.7894 45.5614 60.8042 45.5385 60.8105C45.459 60.8325 45.3875 60.8414 45.324 60.8372C45.2091 60.8289 45.1412 60.7483 45.0402 60.7096C45.0282 60.7049 45.0152 60.7028 45.0023 60.7035C44.9893 60.7043 44.9767 60.7077 44.9652 60.7138C44.9537 60.7198 44.9436 60.7282 44.9357 60.7384C44.9277 60.7486 44.922 60.7605 44.919 60.7731L44.8695 60.9838C44.8581 61.0329 44.8282 61.0642 44.78 61.0778L44.6207 61.1241C44.5585 61.1419 44.5464 61.1247 44.5845 61.0727C44.6831 60.9381 44.7427 60.8357 44.7635 60.7655C44.7813 60.7033 44.7548 60.6421 44.6841 60.582C44.5475 60.4669 44.4186 60.3632 44.2976 60.271C44.2658 60.2469 44.265 60.2217 44.295 60.1954C44.3983 60.104 44.4427 60.0387 44.4283 59.9993C44.4226 59.9842 44.4136 59.9705 44.4017 59.9591C44.3898 59.9477 44.3754 59.9389 44.3592 59.9331C44.3431 59.9274 44.3256 59.9248 44.3078 59.9256C44.29 59.9264 44.2722 59.9305 44.2557 59.9377C44.1249 59.9944 43.9518 60.074 43.7364 60.1764C43.6581 60.2136 43.5735 60.2282 43.4825 60.2202C43.4711 60.2191 43.4601 60.215 43.4508 60.2082C43.4414 60.2014 43.4341 60.1922 43.4296 60.1817C43.425 60.1711 43.4234 60.1595 43.4249 60.148C43.4264 60.1366 43.431 60.1258 43.4381 60.1167C43.5507 59.9754 43.6275 59.8239 43.6685 59.6622C43.6719 59.6482 43.672 59.6336 43.6688 59.6196C43.6655 59.6056 43.6589 59.5925 43.6496 59.5815C43.6404 59.5705 43.6286 59.5618 43.6153 59.5562C43.6021 59.5506 43.5877 59.5482 43.5733 59.5492C43.5162 59.5531 43.4641 59.5886 43.4286 59.6362C43.3075 59.7996 43.2307 59.8994 43.1982 59.9358C43.163 59.9748 43.1446 59.968 43.1429 59.9155C43.1395 59.797 43.1378 59.7156 43.1378 59.6711C43.1372 59.5385 43.0598 59.5131 42.9379 59.5048C42.8334 59.4972 42.7354 59.4756 42.644 59.4401C42.6296 59.4341 42.6197 59.424 42.6142 59.4096L42.4542 59.0091C42.4504 58.9995 42.4488 58.9892 42.4493 58.979C42.4498 58.9687 42.4525 58.9587 42.4572 58.9496C42.4619 58.9406 42.4685 58.9326 42.4765 58.9263C42.4845 58.92 42.4938 58.9156 42.5037 58.9132C42.6692 58.8726 42.8008 58.7681 42.8985 58.5996C42.9065 58.586 42.9116 58.5709 42.9135 58.5553C42.9154 58.5396 42.9142 58.5237 42.9098 58.5085C42.9054 58.4934 42.898 58.4792 42.888 58.4669C42.878 58.4547 42.8656 58.4445 42.8516 58.4371C42.7712 58.3948 42.6829 58.3663 42.5869 58.3514C42.5792 58.3502 42.5719 58.3467 42.5661 58.3415C42.5602 58.3364 42.5559 58.3297 42.5537 58.3222C42.5515 58.3147 42.5515 58.3068 42.5537 58.2994C42.5558 58.292 42.5601 58.2854 42.5659 58.2803C42.8063 58.0666 42.9722 57.8995 43.0636 57.7789C43.1486 57.6659 43.1205 57.6094 42.9792 57.6094H42.8865C42.7506 57.6094 42.6315 57.654 42.5291 57.7433L42.0308 58.1769C42.0249 58.1821 42.0173 58.1853 42.0094 58.1857C42.0014 58.1862 41.9936 58.184 41.987 58.1794L41.5033 57.8417C41.4881 57.8312 41.4822 57.817 41.4856 57.7992L41.6893 56.6192C41.6909 56.6099 41.6906 56.6003 41.6883 56.5911C41.686 56.582 41.6819 56.5734 41.6761 56.5659C41.6703 56.5584 41.663 56.5522 41.6546 56.5478C41.6463 56.5433 41.6372 56.5406 41.6277 56.5398C41.4862 56.529 41.4056 56.7144 41.3764 56.8477C41.3226 57.088 41.2632 57.2605 41.198 57.365C41.1637 57.4205 41.1077 57.4611 41.0298 57.4869C41.0211 57.4896 41.0117 57.489 41.0035 57.4851C40.9952 57.4812 40.9888 57.4744 40.9854 57.466L40.8114 57.0292C40.803 57.0085 40.8023 56.9875 40.8095 56.9664C40.837 56.8847 40.8609 56.81 40.8813 56.7423C40.9011 56.6759 40.9096 56.6071 40.9066 56.536C40.8961 56.2885 40.9062 56.0627 40.9371 55.8587C40.9388 55.8481 40.938 55.8372 40.9347 55.827C40.9314 55.8167 40.9258 55.8073 40.9183 55.7996C40.9108 55.7919 40.9016 55.7861 40.8914 55.7826C40.8812 55.7791 40.8703 55.778 40.8597 55.7794L40.7943 55.7883C40.7435 55.795 40.7156 55.8238 40.7105 55.8746C40.6978 55.9969 40.6646 56.203 40.6108 56.4929C40.6066 56.5144 40.5996 56.5134 40.5899 56.4897C40.5544 56.404 40.5067 56.2713 40.4363 56.1666C40.4227 56.1471 40.336 56.0174 40.176 55.7775C40.1633 55.7589 40.1561 55.7381 40.1544 55.7153L40.1322 55.3877C40.1318 55.3816 40.1327 55.3754 40.1351 55.3697C40.1375 55.364 40.1413 55.3589 40.146 55.3549C40.1508 55.3509 40.1564 55.348 40.1625 55.3465C40.1686 55.3451 40.175 55.3451 40.1811 55.3465L40.3665 55.3896C40.3893 55.3951 40.4086 55.3892 40.4242 55.3719C40.5161 55.2673 40.5588 55.1605 40.5525 55.0513C40.5517 55.0383 40.5477 55.0257 40.5409 55.0146C40.5341 55.0035 40.5246 54.9943 40.5134 54.9877C40.5022 54.9811 40.4895 54.9774 40.4765 54.9769C40.4635 54.9763 40.4506 54.979 40.4388 54.9846C40.2827 55.0604 40.1282 55.1048 39.9754 55.1179C39.9534 55.1201 39.9342 55.1139 39.9177 55.0995C39.8669 55.0564 39.8324 55.002 39.8142 54.9364C39.8079 54.9148 39.8161 54.9015 39.839 54.8964C39.8512 54.8939 40.0019 54.8467 40.2909 54.7549C40.4045 54.7193 40.5106 54.7231 40.6267 54.7269C40.767 54.7314 40.9016 54.8152 41.0361 54.8526C41.0507 54.8567 41.066 54.8566 41.0805 54.8524C41.095 54.8482 41.108 54.84 41.118 54.8287C41.1281 54.8175 41.1348 54.8037 41.1373 54.7888C41.1399 54.774 41.1383 54.7587 41.1326 54.7447L41.0311 54.4895C41.0213 54.465 41.0256 54.4434 41.0438 54.4248C41.2659 54.1891 41.541 54.1053 41.869 54.1734C41.8927 54.1785 41.9089 54.1922 41.9178 54.2147L42.0594 54.5701C42.067 54.5892 42.0615 54.6025 42.0429 54.6101C41.8685 54.6817 41.6976 54.783 41.53 54.9142C41.4018 55.0149 41.3237 55.0801 41.2958 55.1097C41.2238 55.1859 41.1684 55.2745 41.1294 55.3757C41.1036 55.4438 41.1271 55.4804 41.1999 55.4855C41.5143 55.5066 41.7837 55.4432 42.008 55.2951C42.1967 55.1698 42.3131 55.0974 42.3571 55.078C42.6127 54.9654 42.8704 54.8996 43.1302 54.8805C43.1402 54.8799 43.1498 54.8768 43.1583 54.8713C43.1667 54.8659 43.1737 54.8584 43.1785 54.8494C43.2022 54.8046 43.1903 54.7599 43.1429 54.7155C43.118 54.6922 43.0695 54.6651 42.9976 54.6343C42.9218 54.6021 42.8486 54.5522 42.7779 54.4845C42.7233 54.4328 42.6965 54.3526 42.6973 54.2439C42.6994 53.9582 42.7009 53.7854 42.7018 53.7253C42.7019 53.7024 42.6953 53.6801 42.6826 53.661C42.6699 53.642 42.6518 53.6273 42.6307 53.6186C42.4466 53.5442 42.2672 53.5478 42.0924 53.6294C42.0416 53.6527 41.9301 53.7111 41.7579 53.8046C41.7505 53.8087 41.7422 53.8109 41.7338 53.811C41.7253 53.8111 41.717 53.8091 41.7096 53.8053L41.41 53.6535C41.3838 53.6404 41.3696 53.6193 41.3675 53.5901L41.3421 53.2194C41.3404 53.1944 41.3277 53.1781 41.304 53.1705C41.2621 53.1574 41.2192 53.1542 41.1752 53.161C41.1544 53.1644 41.1385 53.1751 41.1275 53.1933C40.9435 53.4989 40.8254 53.7934 40.7733 54.0769C40.7695 54.0981 40.7579 54.1135 40.7384 54.1233C40.5569 54.2155 40.3952 54.2964 40.2535 54.3658C40.0834 54.4489 39.8644 54.4216 39.6847 54.48C39.6212 54.5003 39.6098 54.484 39.6504 54.4311C39.7425 54.3112 39.7736 54.2496 39.7736 54.0871C39.7727 53.8954 39.7711 53.7515 39.7685 53.6554C39.7647 53.5329 39.719 53.4637 39.6295 53.392C39.6088 53.3754 39.5826 53.3671 39.556 53.3686C39.5295 53.3701 39.5043 53.3814 39.4854 53.4003L39.2074 53.6789C39.203 53.6832 39.1978 53.6866 39.1921 53.6889C39.1864 53.6911 39.1802 53.6922 39.1741 53.6921C39.168 53.692 39.1619 53.6907 39.1563 53.6882C39.1507 53.6857 39.1456 53.6821 39.1414 53.6777C39.1045 53.6396 39.0988 53.5911 39.1242 53.5323C39.1318 53.5141 39.1987 53.3863 39.3248 53.1489C39.4099 52.9883 39.507 52.968 39.6498 52.8887C39.8282 52.789 39.9094 52.9242 39.9025 53.0975C39.9008 53.1394 39.9209 53.1597 39.9627 53.1584L40.3684 53.1476C40.3841 53.1468 40.3995 53.1413 40.4128 53.1318C40.5639 53.0192 40.6906 52.8838 40.793 52.7255C40.8057 52.7056 40.8121 52.684 40.8121 52.6608V51.9816C40.8121 51.9621 40.8023 51.9505 40.7829 51.9467C40.6147 51.9143 40.5899 52.0768 40.5144 52.1555C40.4987 52.1716 40.4856 52.1699 40.475 52.1504C40.3993 52.0133 40.2839 51.8242 40.1291 51.5829C40.0499 51.4598 40.0503 51.3269 40.1303 51.1843C40.1344 51.1769 40.1399 51.1704 40.1466 51.1651C40.1533 51.1599 40.1609 51.1561 40.1691 51.1539C40.1773 51.1517 40.1858 51.1512 40.1942 51.1524C40.2026 51.1536 40.2107 51.1564 40.2179 51.1608C40.3969 51.2675 40.5702 51.3068 40.7791 51.2205C40.7994 51.2124 40.8135 51.1983 40.8216 51.178C40.8565 51.0891 40.8444 51.0161 40.7708 50.9418C40.6642 50.8343 40.5647 50.7376 40.4725 50.6517C40.3773 50.5635 40.2071 50.6854 40.0859 50.7565C40.0647 50.7692 40.0425 50.7715 40.0192 50.7635L39.8453 50.7032C39.7624 50.6744 39.7209 50.704 39.7209 50.792V50.8701C39.7209 50.8942 39.7088 50.9063 39.6847 50.9063C39.5899 50.9046 39.4892 50.8794 39.3826 50.8307C39.364 50.8223 39.3508 50.8087 39.3432 50.7901L39.2175 50.4753C39.2099 50.4554 39.2148 50.4391 39.2321 50.4264L39.4118 50.3013C39.4209 50.2949 39.4322 50.2922 39.4434 50.294C39.4545 50.2958 39.4646 50.3018 39.4714 50.3109C39.5459 50.4082 39.6397 50.445 39.7526 50.4213C39.7618 50.4195 39.7698 50.4141 39.775 50.4064C39.7803 50.3987 39.7823 50.3892 39.7806 50.3801C39.7531 50.2256 39.7812 50.073 39.865 49.9224C39.8955 49.867 39.9075 49.8096 39.9012 49.7504C39.8996 49.7364 39.8945 49.723 39.8865 49.7114C39.8784 49.6998 39.8676 49.6904 39.855 49.6841C39.8424 49.6777 39.8284 49.6746 39.8143 49.6749C39.8002 49.6753 39.7865 49.6792 39.7742 49.6863C39.6172 49.7755 39.4513 49.8238 39.2766 49.831C39.2729 49.831 39.2692 49.8301 39.266 49.8281C39.2629 49.8262 39.2603 49.8234 39.2586 49.8201C39.257 49.8168 39.2563 49.8131 39.2567 49.8094C39.257 49.8057 39.2584 49.8022 39.2607 49.7992L39.5051 49.4876C39.5174 49.4719 39.5241 49.4541 39.5254 49.4343C39.5351 49.3035 39.4865 49.1818 39.3794 49.0693C39.3692 49.0591 39.3555 49.0534 39.3413 49.0534H38.8494C38.8274 49.0534 38.8183 49.0426 38.8221 49.021L38.871 48.7373C38.8742 48.719 38.8722 48.7002 38.8651 48.683C38.858 48.6659 38.8461 48.6511 38.8309 48.6405C38.8157 48.6298 38.7977 48.6238 38.7792 48.6231C38.7606 48.6224 38.7422 48.627 38.7262 48.6364C38.609 48.7049 38.5079 48.7769 38.4228 48.8522C38.0606 49.1759 37.6672 49.4125 37.2428 49.5618C37.1023 49.6114 36.9747 49.6308 36.86 49.6202C36.6751 49.6025 36.4497 49.5904 36.184 49.5841C36.1066 49.5824 36.0374 49.5883 35.9764 49.6018C35.9553 49.6069 35.9371 49.6171 35.9218 49.6323L35.732 49.8215C35.7063 49.8477 35.6717 49.8635 35.6349 49.8659L35.0224 49.9078C34.9775 49.9111 34.9325 49.9021 34.8922 49.8818L34.2962 49.5796C34.2929 49.578 34.2901 49.5756 34.2878 49.5727C34.2855 49.5699 34.2839 49.5665 34.283 49.5629C34.2821 49.5593 34.2819 49.5556 34.2826 49.5519C34.2832 49.5482 34.2846 49.5447 34.2867 49.5415C34.3755 49.407 34.4638 49.277 34.5514 49.1518C34.6409 49.0242 34.8338 49.0013 34.9449 48.8934C35.0448 48.797 35.1432 48.6994 35.2401 48.6008C35.2553 48.5856 35.2737 48.5782 35.2953 48.5786C35.5086 48.5849 35.6889 48.644 35.8641 48.6218C35.8971 48.6175 35.9686 48.5883 36.0786 48.5342C36.1671 48.4902 36.2606 48.4749 36.3592 48.4885C36.5928 48.521 36.8384 48.5318 37.0961 48.5208C37.3179 48.5115 37.48 48.4616 37.5824 48.371C37.7385 48.2335 37.8208 48.0666 37.8293 47.8702C37.83 47.8569 37.8273 47.8438 37.8214 47.8318C37.8156 47.8199 37.8069 47.8096 37.796 47.8019C37.7852 47.7942 37.7725 47.7893 37.7593 47.7877C37.746 47.7861 37.7326 47.7879 37.7201 47.7928L37.2015 47.9997C37.1842 48.0065 37.1687 48.0035 37.1552 47.9908C37.0342 47.8782 36.9722 47.7849 36.9692 47.7109C36.9628 47.5276 36.9303 47.3474 36.8714 47.1701C36.8682 47.1602 36.8627 47.1512 36.8553 47.1438C36.848 47.1365 36.839 47.1309 36.8291 47.1276C36.8192 47.1243 36.8086 47.1233 36.7983 47.1247C36.7879 47.1261 36.7779 47.1299 36.7692 47.1358L35.9612 47.6772C35.9045 47.7153 35.8833 47.7007 35.8977 47.6334C35.9405 47.435 35.9559 47.1997 35.944 46.9276C35.9434 46.9137 35.939 46.9002 35.9313 46.8885C35.9237 46.8769 35.913 46.8675 35.9005 46.8614C35.888 46.8552 35.8741 46.8525 35.8602 46.8535C35.8463 46.8546 35.833 46.8593 35.8215 46.8673L35.6083 47.0164C35.6026 47.0203 35.5961 47.0226 35.5893 47.0231C35.5825 47.0237 35.5756 47.0224 35.5695 47.0195C35.5634 47.0166 35.5582 47.0122 35.5544 47.0066C35.5506 47.0011 35.5484 46.9946 35.548 46.9879L35.5245 46.6464C35.523 46.6237 35.5162 46.6017 35.5046 46.5822C35.4929 46.5627 35.4769 46.5462 35.4576 46.5341C35.4384 46.522 35.4165 46.5146 35.3938 46.5125C35.3711 46.5103 35.3483 46.5136 35.3271 46.522L35.1817 46.5797C35.1702 46.5844 35.1577 46.5862 35.1454 46.5851C35.133 46.584 35.1211 46.58 35.1106 46.5733C35.1001 46.5667 35.0914 46.5576 35.0851 46.5469C35.0788 46.5362 35.0751 46.5242 35.0744 46.5118C35.066 46.3726 35.0588 46.2896 35.0528 46.263C35.0334 46.1788 34.9904 46.1352 34.924 46.1322C34.9054 46.1314 34.858 46.1472 34.7818 46.1798C34.6921 46.2183 34.6003 46.2276 34.5063 46.2077C34.4805 46.2022 34.4699 46.1866 34.4746 46.1608L34.5209 45.8916C34.5225 45.8825 34.522 45.8732 34.5194 45.8644C34.5168 45.8555 34.5122 45.8474 34.5059 45.8406C34.4996 45.8338 34.4919 45.8286 34.4832 45.8254C34.4746 45.8221 34.4653 45.8209 34.4562 45.8218C34.3859 45.8286 34.3138 45.8717 34.2397 45.9513C34.1479 46.0499 34.0425 46.1322 33.9236 46.1982C33.9058 46.2084 33.887 46.2111 33.8671 46.2065L33.5389 46.129C33.5198 46.1246 33.5026 46.1141 33.4899 46.0991C33.4773 46.0841 33.4697 46.0655 33.4685 46.0459L33.4494 45.7742C33.4482 45.7526 33.4369 45.7395 33.4158 45.7348C33.3324 45.7158 33.2632 45.7306 33.2082 45.7793C33.1515 45.8301 33.0965 45.8937 33.0432 45.9703C33.0377 45.9781 33.0306 45.9847 33.0225 45.9897C33.0144 45.9947 33.0054 45.998 32.996 45.9994C32.9866 46.0007 32.977 46.0002 32.9679 45.9977C32.9588 45.9952 32.9502 45.9909 32.9429 45.9849C32.7816 45.8554 32.628 45.7126 32.4693 45.7158C32.4567 45.716 32.4444 45.7195 32.4336 45.726C32.4227 45.7324 32.4137 45.7415 32.4075 45.7524C32.4013 45.7633 32.398 45.7756 32.3981 45.7881C32.3981 45.8006 32.4015 45.8129 32.4078 45.8237L32.8432 46.5772C32.8498 46.5889 32.8522 46.6025 32.85 46.6156C32.8478 46.6288 32.8412 46.6408 32.8312 46.6495L32.6293 46.8254C32.611 46.8411 32.5995 46.8634 32.5974 46.8875C32.5953 46.9115 32.6026 46.9355 32.6179 46.9542C32.7376 47.1002 32.8754 47.1387 33.0311 47.0698C33.0455 47.0633 33.0618 47.0621 33.077 47.0664C33.0922 47.0707 33.1054 47.0802 33.1143 47.0932L33.3041 47.3643C33.3131 47.377 33.3186 47.3919 33.3201 47.4075C33.3215 47.4231 33.3189 47.4389 33.3123 47.4532L33.0673 47.9991C33.0591 48.0175 33.0445 48.0328 33.026 48.0422C32.872 48.1218 32.7357 48.1914 32.6172 48.2511C32.5343 48.2929 32.4406 48.3071 32.336 48.2936C32.1752 48.2724 32.0633 48.2568 32.0002 48.2466C31.9329 48.2351 31.8719 48.2008 31.8276 48.1495L31.4467 47.7121C31.4419 47.7067 31.4383 47.7003 31.436 47.6935C31.4337 47.6866 31.4329 47.6793 31.4335 47.6721C31.434 47.6648 31.4361 47.6578 31.4395 47.6514C31.4428 47.645 31.4475 47.6393 31.4531 47.6347C31.5369 47.5649 31.6141 47.4965 31.6848 47.4297C31.7377 47.3797 31.7749 47.2964 31.7965 47.1796C31.8511 46.8846 31.8839 46.7046 31.8949 46.6394C31.8983 46.6186 31.8915 46.6021 31.8746 46.5899C31.8217 46.5522 31.7717 46.5556 31.7248 46.6C31.5695 46.7469 31.412 46.913 31.2525 47.0983C31.2195 47.1368 31.1958 47.1318 31.1814 47.0831C31.0523 46.6421 30.9829 46.4056 30.9732 46.3734C30.9478 46.2879 30.94 46.2113 30.9497 46.1436C30.9637 46.0421 30.9709 45.9638 30.9713 45.9088C30.9717 45.855 30.9453 45.8258 30.892 45.8212L30.2286 45.7602C30.2092 45.7585 30.2058 45.7503 30.2185 45.7355C30.3966 45.5247 30.4999 45.4069 30.5282 45.3819C30.7364 45.1997 30.6914 45.0252 30.6755 44.7376C30.6708 44.6619 30.6359 44.6058 30.5708 44.5694C30.3685 44.4573 30.1823 44.404 30.0122 44.4095C29.8865 44.4137 29.8215 44.4158 29.8173 44.4158C29.7437 44.415 29.6353 44.4158 29.4923 44.4183C29.4555 44.4192 29.4476 44.4044 29.4688 44.3739C29.5344 44.2817 29.564 44.2004 29.5577 44.1302C29.556 44.1107 29.5456 44.0976 29.5266 44.0908L29.1565 43.9632C29.1375 43.9569 29.1349 43.9465 29.1489 43.9321C29.2301 43.8466 29.2744 43.7612 29.2815 43.6757C29.2823 43.6657 29.2809 43.6558 29.2774 43.6464C29.2739 43.6371 29.2684 43.6287 29.2612 43.6217C29.2236 43.5845 29.0372 43.4139 28.702 43.1101C28.622 43.0373 28.5454 43.0028 28.4722 43.0066C28.2962 43.0147 28.1199 43.0337 27.9435 43.0638C27.9193 43.0676 27.9083 43.0574 27.9105 43.0333L27.9543 42.5578C27.9562 42.5357 27.9538 42.5133 27.9471 42.4921C27.9403 42.4709 27.9294 42.4512 27.915 42.4343C27.9006 42.4173 27.883 42.4034 27.8631 42.3933C27.8432 42.3833 27.8216 42.3773 27.7994 42.3757C27.6077 42.3617 27.456 42.3541 27.2503 42.2957C27.1851 42.2766 27.1001 42.2625 26.9951 42.2532C26.9173 42.2464 26.8373 42.2667 26.7552 42.3141C26.5385 42.4389 26.369 42.5475 26.2467 42.6397C26.2226 42.6575 26.1985 42.6617 26.1744 42.6524C26.1583 42.6465 26.1496 42.6349 26.1483 42.6175L26.1141 42.1199C26.1139 42.1171 26.1143 42.1143 26.1153 42.1117C26.1163 42.1091 26.1178 42.1067 26.1198 42.1048C26.1218 42.1029 26.1242 42.1014 26.1268 42.1005C26.1295 42.0996 26.1322 42.0993 26.135 42.0995L26.6358 42.1452C26.6469 42.1463 26.658 42.1449 26.6684 42.1412C26.6788 42.1375 26.6883 42.1315 26.6962 42.1237C26.7041 42.1159 26.7103 42.1065 26.7142 42.0961C26.7181 42.0856 26.7198 42.0745 26.719 42.0634L26.6904 41.6463C26.6892 41.6288 26.6813 41.6122 26.6682 41.6C26.4325 41.3863 26.1845 41.2619 25.9243 41.2267C25.8354 41.2149 25.7347 41.1935 25.6221 41.1626C25.529 41.1368 25.4228 41.1237 25.3035 41.1233C25.2777 41.1233 25.2669 41.1106 25.2711 41.0852L25.3028 40.903C25.3036 40.8985 25.3033 40.8938 25.3018 40.8894C25.3004 40.885 25.2979 40.8809 25.2946 40.8776L25.0826 40.6656C25.0585 40.6415 25.0295 40.6318 24.9956 40.6364L24.6643 40.6808C24.6448 40.6834 24.6266 40.68 24.6097 40.6707C24.316 40.5027 24.0985 40.3757 23.9571 40.2898C23.7278 40.1506 23.553 40.0114 23.4328 39.8722C23.3702 39.8002 23.3272 39.7124 23.304 39.6087C23.2703 39.4608 23.2538 39.3326 23.1891 39.2552C23.0869 39.1346 22.871 38.9625 22.7162 39.0781C22.6476 39.1293 22.5748 39.2044 22.4978 39.3034C22.464 39.347 22.4244 39.3529 22.3791 39.3212C22.0935 39.1225 21.7539 38.9536 21.4289 38.9397C21.2949 38.934 21.1705 39.0622 21.0747 39.12C21.026 39.1492 20.972 39.1654 20.9128 39.1688C20.705 39.1803 20.4987 39.1242 20.2939 39.0006C20.1534 38.916 20.0157 38.9175 19.8807 39.0051C19.6856 39.132 19.478 39.2731 19.258 39.4284C19.2211 39.4543 19.1915 39.4479 19.1691 39.4094C19.0849 39.2651 18.9691 39.2042 18.8219 39.2266C18.8157 39.2276 18.8099 39.2298 18.8046 39.2331C18.7993 39.2363 18.7947 39.2406 18.7911 39.2456C18.7875 39.2507 18.785 39.2563 18.7836 39.2623C18.7822 39.2683 18.7821 39.2745 18.7832 39.2805C18.7971 39.3601 18.7963 39.4409 18.7806 39.523C18.7444 39.7147 18.7755 39.8537 18.8714 40.0131C18.8828 40.0317 18.8837 40.0507 18.8739 40.0702L18.7882 40.239C18.765 40.2843 18.73 40.2972 18.6835 40.2778L18.4467 40.18C18.4385 40.1766 18.4312 40.1712 18.4255 40.1642C18.4198 40.1573 18.4159 40.1491 18.4142 40.1403C18.4124 40.1315 18.4128 40.1225 18.4154 40.1139C18.418 40.1053 18.4226 40.0975 18.429 40.0911L18.5915 39.9286C18.6121 39.9081 18.6271 39.8827 18.6351 39.8548C18.6431 39.8269 18.6438 39.7975 18.6372 39.7693C18.5775 39.5192 18.4129 39.3734 18.1433 39.332C18.1318 39.3302 18.1201 39.3311 18.109 39.3347C18.0979 39.3382 18.0878 39.3443 18.0795 39.3524C18.0712 39.3606 18.0649 39.3705 18.0611 39.3815C18.0573 39.3925 18.0561 39.4042 18.0576 39.4158L18.1382 40.0099C18.1404 40.0268 18.1368 40.0423 18.1274 40.0562C18.0314 40.2043 17.9499 40.4197 17.8831 40.7024C17.8585 40.8069 17.7781 40.913 17.6418 41.0204C17.6245 41.0344 17.611 41.0312 17.6012 41.0109C17.5555 40.9144 17.5236 40.7653 17.5054 40.5634C17.4999 40.4995 17.466 40.4018 17.4038 40.2701C17.3573 40.172 17.283 40.1381 17.181 40.1686C17.1624 40.1741 17.1508 40.1864 17.1461 40.2054L17.0153 40.7602C17.0115 40.7775 17.0024 40.7807 16.988 40.7697L16.4967 40.3844C16.4358 40.3366 16.3755 40.3374 16.3158 40.3869C16.2985 40.4018 16.289 40.4102 16.2873 40.4123C16.2327 40.491 16.2322 40.5543 16.286 40.6021L17.0388 41.2686C17.0429 41.2723 17.046 41.277 17.0479 41.2822C17.0497 41.2874 17.0501 41.2931 17.0492 41.2986C17.0482 41.3041 17.0459 41.3092 17.0424 41.3137C17.039 41.3181 17.0344 41.3216 17.0293 41.3239C16.9387 41.3619 16.8774 41.3825 16.8452 41.3854C16.6277 41.4032 16.3249 41.417 15.9369 41.4267C15.8852 41.428 15.8389 41.4347 15.7979 41.447C15.7454 41.4627 15.6927 41.4777 15.6398 41.4921C15.6169 41.4984 15.5954 41.495 15.5751 41.4819L14.7181 40.9284C14.7097 40.9231 14.7032 40.9152 14.6995 40.9058C14.6958 40.8965 14.6953 40.8861 14.6978 40.8764C14.7181 40.7983 14.7518 40.7202 14.7714 40.6218C14.8051 40.4536 14.8533 40.2625 15.0247 40.1426C15.1081 40.0837 15.2022 40.0046 15.3072 39.9052C15.3584 39.8569 15.3817 39.8074 15.377 39.7566C15.3719 39.7016 15.3421 39.6788 15.2875 39.6881C15.1415 39.7135 15.0315 39.7405 14.9574 39.7693C14.7518 39.8499 14.5931 39.8239 14.3296 39.8309C14.2958 39.8322 14.2668 39.8207 14.2427 39.7966L13.9888 39.5427C13.9763 39.5302 13.9608 39.5211 13.9438 39.5163C13.9268 39.5114 13.9089 39.511 13.8917 39.515C13.8745 39.519 13.8586 39.5273 13.8455 39.5392C13.8323 39.551 13.8225 39.566 13.8168 39.5827L13.7114 39.8868C13.7029 39.9121 13.6864 39.9297 13.6619 39.9394C13.5324 39.9932 13.3984 40.0177 13.2601 40.0131C13.2385 40.0122 13.2199 40.0044 13.2042 39.9896C13.0929 39.8851 13.0066 39.8008 12.9452 39.7369C12.8415 39.6286 12.7814 39.5304 12.7649 39.4424C12.74 39.3104 12.7442 39.1769 12.7776 39.0419C12.7967 38.9661 12.8536 38.8878 12.9484 38.807C13.1748 38.6149 13.2901 38.5167 13.2943 38.5125C13.31 38.496 13.3263 38.4949 13.3432 38.5093C13.3563 38.5203 13.3788 38.543 13.4105 38.5772C13.474 38.6458 13.5819 38.654 13.6517 38.6121C13.8421 38.4979 14.029 38.4314 14.2122 38.4128C14.2979 38.4046 14.4045 38.3443 14.475 38.3405C14.6206 38.3328 14.7594 38.2994 14.8914 38.2402C14.946 38.2152 14.9765 38.1885 14.9828 38.1602C14.9892 38.1297 14.9904 38.0976 14.9866 38.0637C14.9837 38.0404 14.9705 38.0288 14.9473 38.0288H14.0085C13.9839 38.0288 13.978 38.0182 13.9907 37.9971C14.1011 37.8075 14.2499 37.6611 14.4369 37.5578C14.5055 37.5197 14.6015 37.5021 14.7251 37.5051C14.9003 37.5089 15.1364 37.5394 15.2462 37.4486C15.2991 37.4046 15.3372 37.3314 15.3605 37.229C15.4024 37.0458 15.4307 36.8579 15.4456 36.6653C15.4463 36.655 15.4443 36.6446 15.4398 36.6353C15.4352 36.626 15.4282 36.6182 15.4195 36.6126L14.9917 36.3365C14.9812 36.3296 14.969 36.3258 14.9563 36.3254C14.9436 36.3251 14.9311 36.3283 14.92 36.3346L14.6794 36.4736C14.6629 36.4833 14.6538 36.4975 14.6521 36.5161L14.6267 36.7904C14.625 36.8111 14.6157 36.8274 14.5988 36.8392L14.2579 37.0773C14.2499 37.083 14.2405 37.0864 14.2306 37.087C14.2208 37.0877 14.2109 37.0857 14.2021 37.0811C14.1157 37.0371 14.0491 37.0134 14.0021 37.01C13.6854 36.9878 13.9291 37.4454 13.7234 37.6022C13.5679 37.7209 13.4962 37.7463 13.2943 37.745C13.2008 37.7442 13.1219 37.7484 13.0576 37.7577C13.0526 37.7585 13.0476 37.7578 13.0431 37.7557C13.0385 37.7536 13.0347 37.7502 13.032 37.7459C13.0294 37.7416 13.0279 37.7366 13.028 37.7315C13.028 37.7264 13.0295 37.7214 13.0322 37.7171C13.1299 37.5699 13.2258 37.4454 13.2093 37.2887C13.208 37.2768 13.2036 37.2654 13.1966 37.2557C13.1896 37.246 13.1802 37.2383 13.1694 37.2333C13.1585 37.2283 13.1465 37.2262 13.1346 37.2273C13.1227 37.2283 13.1112 37.2324 13.1014 37.2391L12.7078 37.5146C12.6966 37.5225 12.6833 37.5268 12.6696 37.527C12.6559 37.5273 12.6425 37.5234 12.631 37.5159L12.5561 37.4677C12.5256 37.4478 12.522 37.4241 12.5453 37.3966C12.6448 37.276 12.6685 37.13 12.6164 36.9586C12.6127 36.9464 12.6061 36.9353 12.5973 36.9262C12.5885 36.9171 12.5777 36.9101 12.5656 36.906C12.5536 36.9019 12.5408 36.9006 12.5283 36.9024C12.5157 36.9041 12.5037 36.9088 12.4933 36.916L11.7906 37.4074C11.7844 37.4116 11.7772 37.4142 11.7698 37.4148C11.7623 37.4154 11.7548 37.414 11.7481 37.4108C11.7413 37.4076 11.7355 37.4026 11.7313 37.3965C11.727 37.3903 11.7245 37.3831 11.7239 37.3756C11.7129 37.2068 11.6465 37.0714 11.5246 36.9694C11.4518 36.9084 11.3693 36.882 11.2771 36.89C11.2538 36.8921 11.1649 36.8934 11.0105 36.8938C11.0049 36.8938 10.9994 36.8927 10.9945 36.8905C10.9896 36.8883 10.9853 36.8851 10.9819 36.8811L10.7458 36.6095C10.7305 36.5925 10.724 36.5729 10.7261 36.5504L10.747 36.3263C10.7483 36.309 10.7428 36.294 10.7305 36.2813L10.3573 35.908C10.3436 35.8943 10.3347 35.8766 10.332 35.8575C10.3292 35.8383 10.3328 35.8189 10.342 35.802C10.3848 35.7254 10.4189 35.6461 10.4442 35.564C10.4662 35.4929 10.5177 35.4269 10.5985 35.3659C10.7779 35.231 10.9385 35.118 11.0803 35.027C11.0963 35.0167 11.1095 35.0025 11.1187 34.9858C11.1279 34.969 11.1328 34.9503 11.133 34.9311C11.1342 34.7911 11.0936 34.6641 11.0111 34.5503C10.9976 34.5322 10.9908 34.5099 10.9917 34.4873C10.9926 34.4647 11.0013 34.443 11.0162 34.4259L11.5176 33.8552C11.5282 33.8434 11.5413 33.8381 11.557 33.8393L11.7423 33.8565C11.7555 33.8575 11.7688 33.8549 11.7805 33.8488C11.7923 33.8427 11.802 33.8334 11.8087 33.822C11.8153 33.8106 11.8186 33.7976 11.8181 33.7845C11.8176 33.7714 11.8133 33.7587 11.8058 33.7479L11.6662 33.5486C11.6539 33.5313 11.6537 33.5137 11.6655 33.4959C11.8924 33.1629 12.0917 32.8785 12.2635 32.6428C12.3961 32.4613 12.5758 32.3153 12.7281 32.1451C12.7372 32.1351 12.7485 32.1273 12.7612 32.1223C12.7739 32.1173 12.7875 32.1154 12.8011 32.1166L13.2899 32.161C13.299 32.1618 13.3081 32.1607 13.3167 32.1578C13.3253 32.1549 13.3332 32.1503 13.3399 32.1442C13.3466 32.1381 13.3519 32.1307 13.3555 32.1224C13.3592 32.1142 13.361 32.1053 13.361 32.0963V31.5961C13.361 31.5895 13.3596 31.583 13.357 31.577C13.3544 31.571 13.3506 31.5656 13.3458 31.5612L13.2125 31.4444C13.1761 31.4126 13.1703 31.376 13.1953 31.3346C13.2965 31.1674 13.3642 30.9914 13.3984 30.8064C13.4327 30.6204 13.1522 30.4656 12.9414 30.3069C12.9054 30.2798 12.9031 30.2514 12.9344 30.2218L13.2835 29.8924C13.2966 29.8805 13.3046 29.8637 13.3058 29.8454C13.31 29.7764 13.281 29.729 13.2188 29.7032C13.0013 29.6122 12.8407 29.5466 12.737 29.5064C12.7296 29.5036 12.723 29.4993 12.7175 29.4936C12.712 29.488 12.7077 29.4812 12.7051 29.4738C12.7025 29.4663 12.7016 29.4584 12.7024 29.4506C12.7032 29.4427 12.7057 29.4351 12.7097 29.4284C12.7808 29.3052 12.8236 29.1702 12.8379 29.0234C12.8395 29.0077 12.8348 28.9921 12.8248 28.9799C12.8149 28.9676 12.8004 28.9598 12.7846 28.958C12.7288 28.9521 12.6814 28.9728 12.6424 29.0202C12.4787 29.2191 12.3001 29.4218 12.1067 29.6283C12.0991 29.6365 12.0898 29.6431 12.0796 29.6476C12.0693 29.652 12.0582 29.6543 12.047 29.6543H11.032C11.0134 29.6543 11.0041 29.645 11.0041 29.6264C11.0041 29.1228 11.0251 28.6556 11.0669 28.2248C11.0739 28.1525 11.119 28.075 11.1983 28.0357C11.2965 27.9874 11.3556 27.9589 11.3754 27.95C11.3853 27.9455 11.3937 27.9381 11.3995 27.9287C11.4054 27.9194 11.4085 27.9085 11.4084 27.8973L11.4262 26.3123C11.4264 26.3015 11.4294 26.291 11.4349 26.2817C11.4403 26.2724 11.4481 26.2647 11.4574 26.2593C11.4666 26.2539 11.4771 26.2511 11.4878 26.251C11.4985 26.251 11.509 26.2537 11.5183 26.259C11.6427 26.3288 11.7857 26.4009 11.9474 26.4754C12.0015 26.5004 12.0481 26.5144 12.087 26.5173C12.1043 26.5188 12.1216 26.5151 12.1367 26.5066C12.1518 26.4981 12.164 26.4852 12.1718 26.4697C12.1796 26.4541 12.1825 26.4366 12.1803 26.4193C12.1781 26.402 12.1708 26.3857 12.1594 26.3726L11.6255 25.7594C11.593 25.7217 11.601 25.698 11.6497 25.6883C11.8646 25.6456 12.0553 25.5999 12.2216 25.5512C12.3047 25.5271 12.3955 25.5449 12.4723 25.543C12.4861 25.5426 12.4996 25.5385 12.5113 25.5312C12.523 25.5239 12.5326 25.5137 12.539 25.5015C12.5454 25.4893 12.5485 25.4757 12.5478 25.462C12.5471 25.4483 12.5427 25.435 12.5352 25.4236C12.4717 25.3271 12.4146 25.2541 12.3638 25.2046C12.2489 25.0929 12.167 24.9196 12.1772 24.7609C12.1827 24.6733 12.1799 24.5999 12.1689 24.5407C12.1652 24.5189 12.154 24.4992 12.1372 24.4848C11.9806 24.3477 11.8257 24.2089 11.6725 24.0684C11.615 24.0155 11.5756 23.9706 11.5544 23.9338C11.4872 23.817 11.5189 23.5555 11.5157 23.4381C11.5106 23.2722 11.5974 23.1882 11.776 23.1861C11.8871 23.1848 12.0743 23.0559 12.2121 23.0896C12.2734 23.1044 12.3344 23.1173 12.3949 23.1283C12.4095 23.1311 12.4248 23.1281 12.4374 23.1198C12.45 23.1115 12.4591 23.0987 12.4628 23.0839C12.4848 22.9954 12.4564 22.9313 12.3777 22.8915C12.2838 22.8446 12.0853 22.7358 11.7823 22.5653C11.7629 22.5543 11.7591 22.5395 11.7709 22.5208C11.8797 22.3473 12.08 22.0065 12.372 21.4982C12.4203 21.4151 12.4361 21.3167 12.459 21.2329C12.4617 21.2229 12.4666 21.2136 12.4735 21.2059C12.4803 21.1981 12.4889 21.1921 12.4984 21.1882C12.508 21.1843 12.5183 21.1827 12.5285 21.1835C12.5387 21.1843 12.5486 21.1876 12.5574 21.1929C12.7068 21.2822 12.8354 21.33 12.9433 21.3364C12.96 21.3373 12.9767 21.3333 12.9911 21.3247C13.0054 21.3161 13.0169 21.3034 13.024 21.2883C13.0311 21.2731 13.0335 21.2561 13.0309 21.2396C13.0283 21.2231 13.0208 21.2077 13.0093 21.1954C12.8168 20.9919 12.6721 20.8391 12.5751 20.7371C12.5443 20.7041 12.5282 20.6851 12.5269 20.68C12.5083 20.6047 12.5343 20.5793 12.605 20.6038L13.3045 20.8451C13.3618 20.865 13.4123 20.9004 13.4505 20.9473C13.5372 21.0547 13.7241 21.2945 14.011 21.6664C14.1024 21.7851 14.0649 21.9311 14.0764 22.0765C14.078 22.095 14.0859 22.1122 14.0986 22.1254C14.1693 22.1999 14.2514 22.275 14.3449 22.3507C14.4179 22.4097 14.4655 22.4726 14.5709 22.4662C14.5807 22.4657 14.5903 22.4629 14.5989 22.4583C14.6076 22.4536 14.6152 22.4471 14.6212 22.4392C14.6271 22.4313 14.6313 22.4222 14.6335 22.4125C14.6357 22.4029 14.6357 22.3928 14.6337 22.3831C14.5863 22.1563 14.5161 21.8717 14.423 21.5293C14.3931 21.4208 14.4122 21.3465 14.4553 21.2462C14.4625 21.2297 14.4744 21.2157 14.4896 21.206C14.5047 21.1963 14.5224 21.1913 14.5404 21.1916C14.746 21.1959 14.9949 21.2084 15.2869 21.2291C15.4506 21.2411 15.6271 21.205 15.7858 21.2024C15.8091 21.202 15.8232 21.1904 15.8283 21.1675C15.8444 21.093 15.8349 21.0437 15.7998 21.0196C15.5459 20.8453 15.3836 20.7346 15.3129 20.6876C15.304 20.6816 15.2965 20.6737 15.291 20.6644C15.2855 20.6552 15.282 20.6448 15.2809 20.6341C15.2799 20.6234 15.2811 20.6126 15.2847 20.6024C15.2882 20.5923 15.294 20.583 15.3015 20.5753C15.3882 20.4864 15.4464 20.3732 15.476 20.2357C15.481 20.2128 15.4769 20.1889 15.4646 20.169C15.4523 20.1491 15.4327 20.1348 15.41 20.129C15.2018 20.0761 15.0639 20.0397 14.9961 20.0199C14.7683 19.9526 14.5429 19.9411 14.3411 19.9577C14.3224 19.9592 14.3036 19.9567 14.2861 19.9502C14.2685 19.9438 14.2526 19.9335 14.2395 19.9202L13.8129 19.4943C13.7617 19.4426 13.7723 19.4211 13.8447 19.4295C13.9577 19.4422 14.0415 19.4276 14.1443 19.3673C14.2581 19.3005 14.369 19.2433 14.4769 19.1959C14.4879 19.1912 14.4966 19.1823 14.5011 19.1712C14.5056 19.16 14.5056 19.1475 14.501 19.1363C14.3982 18.89 14.2681 18.6481 14.3442 18.4907C14.3478 18.4833 14.3532 18.4769 14.36 18.4722C14.3667 18.4676 14.3745 18.4647 14.3827 18.4639C14.3909 18.4632 14.3991 18.4645 14.4066 18.4679C14.4141 18.4712 14.4206 18.4765 14.4255 18.4831C14.5368 18.6367 14.6134 18.7438 14.6553 18.8043C14.6849 18.847 14.7073 18.8942 14.7226 18.9458C14.748 19.0322 14.7537 19.0893 14.8064 19.1363C14.9181 19.237 15.0429 19.3318 15.1809 19.4206C15.1952 19.4299 15.212 19.4348 15.2292 19.4348C15.2464 19.4348 15.2634 19.4299 15.278 19.4206C15.4087 19.3381 15.5071 19.2626 15.6366 19.241C15.8334 19.2088 16.0196 19.1949 16.1952 19.1991C16.2168 19.2 16.2367 19.2057 16.2549 19.2162C16.3738 19.2856 16.4584 19.3233 16.5088 19.3292C16.5786 19.3377 16.7731 19.3409 17.0921 19.3388C17.1929 19.3379 17.2709 19.3112 17.3264 19.2588C17.4749 19.1183 17.5388 18.9361 17.5181 18.7122C17.5113 18.6395 17.4738 18.6166 17.4057 18.6437L16.9811 18.8132C16.9591 18.8216 16.9373 18.8216 16.9157 18.8132C16.8154 18.7734 16.7379 18.7395 16.6834 18.7116C16.5082 18.624 16.232 18.6519 16.0683 18.6754C15.9003 18.6995 15.8053 18.7148 15.7833 18.7211C15.7096 18.7419 15.6227 18.7287 15.5224 18.6818C15.2727 18.5646 15.0615 18.4562 14.8889 18.3568C14.8703 18.3462 14.8597 18.3301 14.8571 18.3085L14.7987 17.8794C14.7973 17.8682 14.8003 17.8568 14.8072 17.8477C14.8141 17.8387 14.8243 17.8328 14.8356 17.8312L15.4525 17.748C15.4619 17.7468 15.4714 17.7476 15.4805 17.7503C15.4896 17.7531 15.498 17.7577 15.5052 17.7639L16.3399 18.4977C16.3528 18.509 16.3686 18.5163 16.3855 18.5189C16.4024 18.5215 16.4197 18.5192 16.4353 18.5122C16.451 18.5053 16.4643 18.494 16.4737 18.4797C16.4831 18.4654 16.4882 18.4488 16.4885 18.4317C16.4891 18.3257 16.4479 18.1797 16.5259 18.0832C16.5814 18.0151 16.6747 17.923 16.8059 17.8071C16.8583 17.7609 16.8649 17.7089 16.8255 17.6509C16.6865 17.4478 16.5831 17.5125 16.4085 17.569C16.3763 17.5792 16.3361 17.5777 16.2879 17.5646C16.0116 17.4893 15.6531 17.3818 15.2126 17.2421C15.1902 17.2349 15.1868 17.2227 15.2024 17.2053L15.7598 16.5705C15.7713 16.5575 15.7873 16.5493 15.8047 16.5477C15.822 16.546 15.8393 16.551 15.8531 16.5617L16.18 16.8181C16.1923 16.8277 16.2071 16.8335 16.2226 16.835C16.2382 16.8364 16.2538 16.8334 16.2677 16.8262C16.2815 16.8191 16.2931 16.8081 16.3009 16.7947C16.3088 16.7812 16.3126 16.7658 16.312 16.7502C16.3057 16.6137 16.3609 16.4417 16.4707 16.3439C16.4872 16.3287 16.5058 16.3251 16.5266 16.3331C16.728 16.4093 16.9201 16.4747 17.1029 16.5293C17.163 16.5471 17.2009 16.5475 17.2166 16.5306C17.2343 16.5115 17.243 16.4845 17.241 16.4545C17.2391 16.4246 17.2265 16.3937 17.2058 16.3674L16.7316 15.7707C16.7096 15.7429 16.679 15.7235 16.6452 15.7162C16.6114 15.7088 16.5767 15.714 16.5475 15.7307C16.2708 15.8911 16.0183 16.0289 15.7902 16.144C15.4094 16.3363 15.1771 16.707 14.8235 16.992C14.7058 17.0868 14.6155 17.1666 14.5524 17.2313C14.5463 17.2375 14.5387 17.2421 14.5303 17.2446C14.5219 17.2471 14.513 17.2475 14.5045 17.2458C14.4959 17.244 14.4879 17.2401 14.4812 17.2345C14.4745 17.2289 14.4693 17.2217 14.4661 17.2136L14.3163 16.8378C14.3116 16.826 14.3113 16.8128 14.3155 16.8007C14.3197 16.7886 14.3281 16.7783 14.3392 16.7718L14.468 16.6969C14.4876 16.6857 14.5035 16.6691 14.5137 16.649C14.524 16.6289 14.528 16.6062 14.5255 16.5838C14.5229 16.5614 14.5138 16.5403 14.4993 16.523C14.4848 16.5058 14.4655 16.4931 14.4439 16.4868C14.3597 16.4618 14.2689 16.4044 14.1716 16.3147C14.1675 16.3111 14.1644 16.3065 14.1627 16.3014C14.1609 16.2963 14.1604 16.2908 14.1614 16.2854C14.1623 16.28 14.1647 16.275 14.1681 16.2708C14.1716 16.2666 14.176 16.2634 14.1811 16.2614L14.3779 16.1833C14.3986 16.1749 14.4134 16.1607 14.4223 16.1408C14.4852 16.0031 14.2947 15.8202 14.2522 15.7536C14.2344 15.7261 14.2285 15.7058 14.2344 15.6927L14.3607 15.4127C14.3701 15.3924 14.3857 15.3814 14.4077 15.3797C14.5321 15.3708 14.6826 15.3905 14.859 15.4388C14.9587 15.4661 15.1098 15.4692 15.2316 15.4299C15.337 15.3952 15.458 15.3768 15.5947 15.3746C15.5993 15.3747 15.6039 15.3737 15.6081 15.3718C15.6123 15.37 15.616 15.3672 15.6191 15.3637C15.6221 15.3602 15.6244 15.3561 15.6258 15.3517C15.6272 15.3472 15.6276 15.3425 15.6271 15.3378C15.614 15.2181 15.5439 15.1375 15.417 15.096C15.4005 15.0909 15.2638 15.0412 15.0069 14.9468C14.9896 14.9409 14.9765 14.9299 14.9676 14.9138L14.821 14.6605C14.8163 14.6525 14.8137 14.6435 14.8133 14.6342C14.8129 14.6249 14.8147 14.6157 14.8187 14.6073C14.8226 14.5989 14.8285 14.5915 14.8358 14.5859C14.8432 14.5802 14.8518 14.5765 14.8609 14.5748C15.1343 14.5262 15.4098 14.5478 15.6874 14.6396C15.6995 14.6436 15.7105 14.6504 15.7194 14.6596C15.7283 14.6687 15.7348 14.6798 15.7385 14.6921C15.7422 14.7043 15.7428 14.7172 15.7405 14.7297C15.7381 14.7422 15.7327 14.754 15.7249 14.764L15.6284 14.8871C15.6049 14.9172 15.5926 14.9545 15.5936 14.9924C15.5945 15.0304 15.6086 15.0668 15.6335 15.0953C15.7185 15.1931 15.9483 15.4057 16.0905 15.2509C16.1698 15.1639 16.2847 15.0503 16.2911 14.9056C16.2978 14.7583 16.2955 14.6205 16.2841 14.4923C16.2714 14.3463 16.1584 14.2594 16.0689 14.1413C16.0563 14.1247 16.0401 14.1113 16.0214 14.102C16.0028 14.0928 15.9824 14.088 15.9616 14.088H15.1764C15.1686 14.0879 15.161 14.0857 15.1545 14.0815C15.1479 14.0773 15.1427 14.0714 15.1394 14.0643C15.1361 14.0573 15.1348 14.0495 15.1357 14.0417C15.1367 14.034 15.1398 14.0267 15.1447 14.0207C15.198 13.9559 15.2793 13.888 15.3884 13.8169C15.4231 13.7941 15.4477 13.7532 15.4621 13.6944C15.4649 13.6824 15.4645 13.6699 15.461 13.6581C15.4575 13.6463 15.451 13.6356 15.4421 13.6271C15.4333 13.6187 15.4223 13.6127 15.4105 13.6098C15.3986 13.6069 15.3862 13.6072 15.3745 13.6106L15.2088 13.6582C15.1787 13.6671 15.1673 13.6563 15.1745 13.6259L15.4297 12.5417C15.4339 12.5233 15.4442 12.5068 15.459 12.4951C15.4737 12.4833 15.4921 12.4769 15.5109 12.4769H15.8829C15.9113 12.4769 15.9235 12.463 15.9197 12.435L15.8347 11.8015C15.8317 11.7803 15.8337 11.7586 15.8405 11.7382C15.8474 11.7178 15.8588 11.6993 15.874 11.6841L16.6218 10.9364C16.6472 10.911 16.6692 10.9137 16.6878 10.9446C16.7572 11.0593 16.8666 11.0838 17.016 11.0182C17.0346 11.0102 17.0439 10.9962 17.0439 10.9764V10.5898C17.0439 10.542 17.0646 10.5064 17.1061 10.4831C17.3427 10.3515 17.5847 10.2466 17.8323 10.1683C17.8602 10.1598 17.9087 10.1611 17.9776 10.1721C18.0145 10.1785 18.0337 10.2002 18.0354 10.2375C18.0434 10.414 18.0464 10.5644 18.0443 10.6888C18.0426 10.8069 18.0178 10.9072 17.97 10.9897C17.9087 11.0963 17.8206 11.2453 17.706 11.4366C17.6751 11.4878 17.6474 11.5561 17.6228 11.6416C17.6197 11.6526 17.6189 11.6641 17.6206 11.6753C17.6223 11.6866 17.6264 11.6974 17.6326 11.7069C17.6388 11.7164 17.647 11.7245 17.6566 11.7305C17.6662 11.7365 17.677 11.7404 17.6882 11.7419C17.8456 11.7622 17.9167 11.6003 18.0303 11.4594C18.1973 11.2518 18.481 11.0989 18.6848 10.9535C18.7055 10.9387 18.7212 10.9178 18.7295 10.8936C18.7378 10.8695 18.7384 10.8434 18.7311 10.8189L18.5419 10.1613C18.5276 10.1122 18.5458 10.0841 18.5965 10.0769C18.7015 10.0617 18.8193 10.0765 18.9501 10.1213C19.0326 10.1499 19.112 10.2711 19.1856 10.3587C19.1986 10.3738 19.2146 10.3857 19.2326 10.3936C19.3578 10.4474 19.4315 10.4095 19.4535 10.28C19.4683 10.1945 19.4793 10.0784 19.4865 9.93153C19.4869 9.92487 19.4892 9.91847 19.4932 9.91311C19.4972 9.90776 19.5027 9.90369 19.5089 9.9014C19.5152 9.89911 19.522 9.89869 19.5285 9.90021C19.535 9.90173 19.5409 9.90511 19.5455 9.90995C19.5552 9.9201 19.6392 10.0111 19.7975 10.1829C19.8221 10.2096 19.8705 10.2206 19.9429 10.2159C19.9733 10.2142 19.9843 10.1986 19.9759 10.1689L19.9346 10.0255C19.9274 10.0005 19.9329 9.97871 19.9511 9.96009C20.0514 9.85768 20.0798 9.73327 20.0362 9.58685C20.0298 9.56612 20.03 9.54538 20.0368 9.52464C20.0973 9.33802 20.2143 9.24852 20.3878 9.25614C20.4606 9.25952 20.6159 9.25952 20.8538 9.25614C20.8641 9.25593 20.8744 9.25825 20.8837 9.26289C20.893 9.26754 20.901 9.27437 20.9071 9.2828C21.0163 9.43176 21.0768 9.52507 21.0886 9.56273C21.1695 9.81664 21.3059 10.0358 21.4981 10.2203C21.5197 10.2411 21.5343 10.268 21.5397 10.2974C21.5452 10.3268 21.5413 10.3571 21.5285 10.3841C21.4587 10.532 21.4035 10.6444 21.399 10.8088C21.392 11.0627 21.4251 11.2671 21.3647 11.4753C21.3229 11.6194 21.3502 11.8136 21.2752 11.9469C21.2215 12.0421 21.1807 12.1062 21.1527 12.1392C20.8222 12.5248 20.4958 12.9071 20.1733 13.2863C20.1204 13.3489 20.0853 13.4274 20.0679 13.5218C20.0661 13.5319 20.0668 13.5423 20.0698 13.5521C20.0728 13.5619 20.0781 13.5709 20.0853 13.5783C20.0924 13.5857 20.1013 13.5914 20.111 13.5948C20.1208 13.5982 20.1313 13.5993 20.1416 13.5979L20.332 13.5725C20.3506 13.57 20.3684 13.5725 20.3853 13.5802C20.5516 13.6534 20.6377 13.7733 20.6437 13.9401C20.6445 13.9642 20.6559 13.9809 20.6779 13.9902C20.7139 14.0063 20.763 13.9968 20.8252 13.9617C20.8709 13.9363 20.905 13.9473 20.9274 13.9947C20.9367 14.0141 20.9577 14.0383 20.9902 14.067C21.0025 14.0776 21.0167 14.0823 21.0328 14.081L21.3152 14.0619C21.3318 14.0609 21.3477 14.0554 21.3614 14.0462C21.3752 14.0369 21.3862 14.0242 21.3934 14.0092C21.4005 13.9943 21.4036 13.9777 21.4023 13.9612C21.4009 13.9447 21.3952 13.9289 21.3857 13.9153L21.0797 13.4786C21.0658 13.4583 21.0634 13.4367 21.0728 13.4139C21.2044 13.0965 21.318 12.8912 21.4136 12.7981C21.6383 12.5798 21.8497 12.3678 22.0478 12.1621C22.0664 12.1426 22.0852 12.1392 22.1043 12.1519L22.5022 12.4135C22.5087 12.4176 22.5149 12.4248 22.5203 12.4348C22.5257 12.4447 22.5302 12.4569 22.5334 12.4706C22.6015 12.7617 22.6449 12.9585 22.6635 13.0609C22.6838 13.1714 22.7107 13.2575 22.7441 13.3193C22.8101 13.4411 22.8736 13.5865 22.9625 13.6747C22.9781 13.6904 22.9972 13.6987 23.0196 13.6995C23.1207 13.7033 23.2157 13.6902 23.3046 13.6601C23.3262 13.6529 23.3363 13.6377 23.3351 13.6144L23.224 12.0034C23.2234 11.9937 23.22 11.9843 23.2143 11.9763C23.2086 11.9683 23.2007 11.9621 23.1916 11.9583L22.3886 11.627C22.3583 11.6143 22.3312 11.595 22.3094 11.5705C22.2875 11.546 22.2714 11.5169 22.2623 11.4854L22.0998 10.9218C22.0918 10.8938 22.1013 10.8744 22.1284 10.8634L22.6571 10.6526C22.7134 10.63 22.7759 10.6273 22.8342 10.645C23.0691 10.7161 23.2564 10.7859 23.396 10.8545C23.8331 11.069 24.1505 11.2271 24.3481 11.3286C24.3896 11.3498 24.4546 11.4014 24.543 11.4835C25.0216 11.9241 25.4615 12.3178 25.8627 12.6648C25.8748 12.6754 25.8895 12.6823 25.9054 12.6849C25.9212 12.6874 25.9375 12.6854 25.9523 12.6791C25.9671 12.6729 25.9799 12.6625 25.9892 12.6493C25.9985 12.6362 26.0039 12.6206 26.0049 12.6045C26.0083 12.5533 25.993 12.5008 25.9592 12.4471C25.7823 12.167 25.6401 11.9431 25.5326 11.7755C25.4336 11.6211 25.3562 11.5138 25.3003 11.4537C25.1632 11.306 25.0722 11.2034 25.0273 11.1458C24.8318 10.897 24.5208 10.6894 24.2802 10.5244C24.2091 10.4757 24.0703 10.3492 23.8638 10.1448C23.8444 10.1258 23.8484 10.115 23.8759 10.1124C23.9868 10.1023 24.0985 10.1095 24.211 10.134C24.3101 10.1556 24.4776 10.2106 24.7138 10.2991C24.7259 10.3037 24.7389 10.3058 24.7519 10.3052C24.7648 10.3047 24.7776 10.3016 24.7893 10.296C24.8011 10.2904 24.8115 10.2825 24.8202 10.2728C24.8288 10.2631 24.8353 10.2517 24.8395 10.2394C24.8416 10.2335 24.8344 10.2127 24.8179 10.1772C24.7189 9.95925 24.6495 9.80796 24.6097 9.72333C24.5864 9.67297 24.6006 9.63742 24.6522 9.61669L24.995 9.48021C25.0031 9.47692 25.0104 9.47184 25.0163 9.46535C25.0222 9.45885 25.0266 9.4511 25.0291 9.44269C25.0316 9.43427 25.0322 9.42539 25.0308 9.41672C25.0294 9.40805 25.026 9.39981 25.021 9.39261L24.6192 8.81815C24.592 8.7786 24.5526 8.74877 24.5068 8.73309L24.0238 8.56615C24.006 8.56022 23.9992 8.54816 24.0035 8.52997C24.0094 8.50542 24.0255 8.44787 24.0517 8.35731C24.1008 8.18719 24.0915 7.99274 24.0238 7.77396C23.9927 7.67303 24.0168 7.61654 24.079 7.54291C24.2965 7.28815 24.5699 6.96167 24.8991 6.56346C24.9147 6.54477 24.9358 6.53141 24.9593 6.52527C24.9829 6.51912 25.0078 6.52049 25.0305 6.52919C25.1854 6.58843 25.3545 6.63244 25.5377 6.66122C25.5673 6.66587 25.6206 6.68322 25.6977 6.71327C25.7531 6.73527 25.798 6.76765 25.8322 6.81039C26.0464 7.07699 26.2605 7.34296 26.4746 7.60829C26.4886 7.62564 26.4956 7.64532 26.4956 7.66732V7.97772C26.4956 7.99153 26.5011 8.00476 26.511 8.01453C26.5209 8.02429 26.5343 8.02977 26.5482 8.02977H27.1564C27.296 8.02977 27.3563 8.09896 27.3373 8.23734C27.3182 8.37572 27.2605 8.60931 27.3899 8.73817C27.5469 8.89348 27.6815 9.11311 27.7937 9.39706C27.7965 9.40444 27.7968 9.41254 27.7945 9.42004C27.7922 9.42754 27.7874 9.43398 27.781 9.43832L27.369 9.7265C27.3395 9.74734 27.3178 9.77744 27.3075 9.81197C27.2971 9.8465 27.2987 9.88346 27.3119 9.91693L27.5252 10.4514C27.5319 10.4679 27.529 10.4827 27.5163 10.4958C27.3432 10.6731 27.2188 10.7965 27.143 10.8659C27.0355 10.9641 27.0002 11.0714 27.037 11.1877C27.087 11.3456 27.1424 11.4986 27.2033 11.6467C27.23 11.712 27.2274 11.7876 27.2427 11.8517C27.2448 11.8608 27.2487 11.8694 27.2541 11.8771C27.2596 11.8847 27.2665 11.8911 27.2745 11.896C27.2824 11.9009 27.2913 11.9042 27.3006 11.9056C27.3098 11.9071 27.3193 11.9066 27.3284 11.9044C27.5268 11.8544 27.6121 11.7275 27.5842 11.5235C27.5778 11.477 27.5781 11.3919 27.5848 11.2683C27.5962 11.0671 27.7016 10.9332 27.8489 10.8196C27.9394 10.7497 27.9758 10.6592 27.9581 10.5479C27.9301 10.374 27.9206 10.1981 27.9136 10.061C27.9124 10.0403 27.9179 10.0215 27.9301 10.0045C28 9.9055 28.0361 9.86805 28.0533 9.75633C28.0804 9.5731 28.1752 9.44107 28.3377 9.36024C28.4346 9.312 28.464 9.33845 28.4259 9.43959C28.3853 9.54792 28.3713 9.65985 28.384 9.77538C28.3865 9.79976 28.3971 9.8226 28.4141 9.84022C28.4312 9.85783 28.4536 9.8692 28.4779 9.8725C28.6366 9.89344 28.7998 9.8909 28.8988 9.97406C28.9932 10.0536 29.0708 10.1311 29.1317 10.2064C29.1382 10.2142 29.1429 10.2233 29.1458 10.2331C29.1486 10.2429 29.1495 10.2533 29.1482 10.2635C29.1309 10.3947 29.0884 10.5219 29.0207 10.645C28.796 11.0542 28.6726 11.2796 28.6506 11.321C28.5727 11.4679 28.5346 11.6213 28.5363 11.7812C28.5365 11.8043 28.543 11.8269 28.5549 11.8467C28.5669 11.8665 28.5839 11.8827 28.6043 11.8936C28.9085 12.0582 29.1736 12.1856 29.3996 12.2757C29.4542 12.2973 29.4876 12.306 29.4999 12.3017C29.5168 12.2963 29.532 12.2868 29.5444 12.2739C29.5569 12.261 29.5661 12.2451 29.5716 12.2274C29.577 12.2096 29.5785 12.1905 29.5759 12.1715C29.5732 12.1525 29.5666 12.1341 29.5564 12.1177C29.4764 11.9882 29.4019 11.8822 29.333 11.7996C29.3114 11.7738 29.2947 11.7281 29.2828 11.6625C29.2705 11.5961 29.2669 11.5462 29.272 11.5127C29.2983 11.3316 29.367 11.1084 29.4783 10.8431C29.4872 10.8223 29.5012 10.8179 29.5202 10.8297C29.8304 11.0261 30.0327 11.1568 30.1271 11.222C30.1912 11.2664 30.2585 11.3388 30.3105 11.4029C30.3772 11.4861 30.3968 11.528 30.341 11.6238C30.2373 11.802 30.2026 11.9939 30.2369 12.1995C30.2403 12.2194 30.2513 12.2326 30.2699 12.2389C30.484 12.3134 30.6869 12.4154 30.8786 12.5449C30.901 12.5601 30.9442 12.5683 31.0081 12.5696C31.0386 12.57 31.0811 12.5654 31.1357 12.5556C31.2952 12.5265 31.4622 12.529 31.6365 12.5633C31.6475 12.5654 31.658 12.5698 31.6671 12.5763C31.6763 12.5828 31.6839 12.5912 31.6896 12.601C31.6952 12.6107 31.6987 12.6216 31.6999 12.6328C31.701 12.644 31.6998 12.6554 31.6962 12.6661C31.6577 12.7816 31.6393 12.9179 31.641 13.0749C31.641 13.0942 31.6478 13.1117 31.6605 13.1253C31.6733 13.1389 31.6915 13.1479 31.7128 13.1513C31.7342 13.1547 31.7577 13.1522 31.7806 13.1443C31.8035 13.1364 31.8247 13.1233 31.8416 13.1066C31.9372 13.0123 32.0239 12.9501 32.1018 12.92C32.1958 12.8832 32.2415 12.9151 32.2389 13.0159C32.2355 13.1386 32.2548 13.2577 32.2967 13.3732C32.3043 13.3931 32.3037 13.4128 32.2948 13.4323C32.2216 13.5931 32.1714 13.7194 32.1443 13.8112C32.0999 13.9606 32.1452 14.0476 32.2802 14.0721C32.3221 14.0797 32.3917 14.0751 32.489 14.0581C32.5106 14.0543 32.529 14.06 32.5442 14.0753C32.5938 14.1248 32.6249 14.2086 32.7036 14.2429C32.8187 14.2928 32.9535 14.2676 33.1079 14.1673C33.1481 14.1415 33.1843 14.1462 33.2165 14.1813C33.4107 14.395 33.6394 14.6301 33.9026 14.8865C34.1718 15.148 34.5044 15.3112 34.7729 15.5841C34.8575 15.67 34.9339 15.7589 35.0021 15.8507C35.03 15.888 35.066 15.9142 35.11 15.9294L35.4045 16.0316C35.4227 16.0375 35.4407 16.0371 35.4585 16.0304C35.4974 16.0151 35.5418 15.9819 35.5918 15.9307C35.6628 15.8575 35.6675 15.7891 35.6057 15.7257C35.5799 15.6994 35.4739 15.6214 35.2877 15.4914C35.2704 15.4792 35.2636 15.4625 35.2674 15.4413L35.2896 15.3105C35.2913 15.3005 35.2904 15.2902 35.287 15.2807C35.2835 15.2713 35.2776 15.2629 35.2699 15.2566C35.187 15.1863 35.0541 15.1083 34.8713 15.0223C34.774 14.9766 34.778 14.9432 34.8834 14.9221C34.9754 14.903 35.0814 14.896 35.2223 14.8922C35.3433 14.8893 35.4248 14.863 35.4667 14.8135C35.6203 14.6337 35.5795 14.5613 35.3442 14.5964C35.3328 14.5981 35.3025 14.5979 35.2534 14.5958C35.2286 14.5947 35.2046 14.5866 35.1842 14.5725C35.1639 14.5583 35.1479 14.5387 35.1382 14.5158C35.1285 14.493 35.1255 14.4679 35.1295 14.4434C35.1334 14.4189 35.1443 14.396 35.1607 14.3774L35.4007 14.1045C35.44 14.0596 35.4845 14.0533 35.534 14.0854L35.6336 14.1495C35.6781 14.1783 35.6798 14.2096 35.6387 14.2435C35.5422 14.3235 35.512 14.402 35.548 14.479C35.5567 14.4977 35.5702 14.5137 35.5873 14.5257C35.6044 14.5376 35.6245 14.5451 35.6461 14.5475C35.6677 14.5499 35.6901 14.5472 35.7113 14.5396C35.7325 14.532 35.7521 14.5197 35.7682 14.5037L35.9878 14.2879C36.0319 14.2443 36.0771 14.2431 36.1237 14.2841L36.2735 14.4161C36.2836 14.425 36.2916 14.436 36.2968 14.4483C36.3021 14.4607 36.3044 14.4741 36.3037 14.4875C36.3029 14.5009 36.2991 14.514 36.2926 14.5257C36.286 14.5374 36.2769 14.5475 36.2659 14.5552L35.7225 14.9354C35.7172 14.9391 35.7131 14.9443 35.7109 14.9503C35.7088 14.9564 35.7086 14.9629 35.7105 14.969L35.8165 15.3372C35.8224 15.3579 35.8361 15.3694 35.8577 15.3715L36.1662 15.3994C36.1899 15.4015 36.2119 15.4085 36.2322 15.4203C36.2784 15.4466 36.3234 15.4639 36.3674 15.4724C36.3886 15.4771 36.4081 15.4726 36.4258 15.4591C36.5401 15.3732 36.6658 15.2744 36.8029 15.1626C36.8786 15.1008 36.94 15.0708 36.987 15.0725C37.0708 15.075 37.1914 15.0973 37.2682 15.0674C37.3723 15.0268 37.4468 14.9891 37.4916 14.9544C37.5072 14.9422 37.5202 14.927 37.5297 14.9096C37.5392 14.8923 37.5451 14.8731 37.547 14.8534C37.5489 14.8337 37.5468 14.8138 37.5407 14.7949C37.5347 14.7761 37.5249 14.7586 37.5119 14.7437L37.239 14.4301C37.2337 14.4242 37.2302 14.4169 37.2287 14.4091C37.2272 14.4013 37.2278 14.3933 37.2304 14.3857C37.233 14.3782 37.2376 14.3715 37.2437 14.3662C37.2498 14.361 37.2571 14.3574 37.265 14.3558C37.3793 14.3349 37.4161 14.3222 37.5367 14.2708C37.8725 14.1286 38.2286 14.4822 38.4584 14.6834C38.4706 14.694 38.4848 14.7007 38.5009 14.7037L38.7707 14.75C38.7795 14.7517 38.7878 14.7556 38.7947 14.7614C38.8016 14.7672 38.8069 14.7747 38.81 14.7831C38.8131 14.7915 38.814 14.8007 38.8126 14.8095C38.8111 14.8184 38.8074 14.8268 38.8018 14.8338C38.7633 14.8808 38.7235 14.9229 38.6824 14.9601C38.6206 15.016 38.5938 15.0655 38.6018 15.1087C38.6158 15.1827 38.7055 15.2511 38.871 15.3137C38.9086 15.3277 38.9179 15.3524 38.8989 15.388C38.8841 15.4151 38.8669 15.4341 38.8475 15.4451C38.8266 15.4565 38.8046 15.4632 38.7844 15.4642C38.7643 15.4652 38.7468 15.4605 38.7345 15.4508L38.5053 15.2699C38.4751 15.2461 38.4372 15.2343 38.3988 15.2366C38.3604 15.2389 38.3242 15.2553 38.2971 15.2826L37.8103 15.7688C37.778 15.8011 37.7571 15.8429 37.7505 15.8881C37.744 15.9333 37.7523 15.9794 37.7741 16.0196C37.7982 16.0636 37.885 16.2174 38.0343 16.481C38.0445 16.4992 38.058 16.5849 38.075 16.7381C38.0775 16.7605 38.0707 16.7794 38.0546 16.7946C37.9857 16.8598 37.9182 16.8979 37.8522 16.9089C37.7959 16.9186 37.667 16.9302 37.4656 16.9438C37.4438 16.9452 37.4231 16.9542 37.4072 16.9692C37.3914 16.9841 37.3812 17.0041 37.3786 17.0257C37.3647 17.1355 37.4294 17.2174 37.4726 17.3056C37.5348 17.4309 37.5872 17.5276 37.63 17.5957C37.6884 17.6892 37.755 17.7457 37.8299 17.7652C37.9336 17.7914 38.0314 17.8115 38.1232 17.8255C38.1795 17.8344 38.2076 17.8105 38.2076 17.7537V17.1888C38.2076 17.1836 38.2086 17.1784 38.2106 17.1736C38.2126 17.1688 38.2154 17.1645 38.219 17.1609C38.2419 17.1376 38.2635 17.1389 38.2838 17.1647C38.3392 17.2345 38.4495 17.3689 38.6145 17.5678C38.7034 17.6744 38.8386 17.7163 38.9294 17.5855C38.9514 17.5534 38.9806 17.5064 39.017 17.4446C39.0262 17.429 39.0404 17.4169 39.0574 17.4103C39.0744 17.4036 39.0932 17.4027 39.1109 17.4078C39.149 17.4188 39.1752 17.4412 39.1896 17.4751C39.1989 17.4979 39.1996 17.5301 39.1915 17.5716C39.1668 17.7011 39.1433 17.8642 39.2772 17.9251C39.3733 17.9683 39.4401 17.9431 39.4778 17.8496C39.5152 17.7569 39.5787 17.6712 39.58 17.5303C39.5821 17.2688 39.5836 17.1217 39.5844 17.0891C39.5849 17.0629 39.5897 17.043 39.599 17.0295L39.9431 16.5236C39.9549 16.5062 39.9714 16.4975 39.9926 16.4975H40.3239C40.3527 16.4975 40.3741 16.5102 40.388 16.5356C40.4541 16.6575 40.4974 16.7603 40.5182 16.8441C40.5414 16.936 40.5338 17.0396 40.4953 17.1552C40.4132 17.4006 40.318 17.6251 40.2097 17.8286C40.1564 17.9289 40.1176 18.0432 40.098 18.1473C40.0953 18.1617 40.0967 18.1766 40.1021 18.1902C40.1075 18.2039 40.1165 18.2158 40.1283 18.2246C40.14 18.2333 40.154 18.2387 40.1686 18.2399C40.1832 18.2412 40.1979 18.2383 40.2109 18.2317C40.3117 18.1814 40.4054 18.1213 40.4921 18.0514C40.57 17.9897 40.6254 17.8976 40.6585 17.7753C40.7122 17.5752 40.7511 17.4078 40.7753 17.2732C40.7998 17.1348 40.8506 17.0261 40.9276 16.947C41.0287 16.842 41.1565 16.7671 41.311 16.7223C41.3939 16.6981 41.4756 16.7064 41.556 16.747C41.6428 16.7914 41.7731 16.8481 41.947 16.9171C42.0655 16.9645 42.1675 16.9831 42.253 16.973C42.6961 16.9201 42.9789 17.097 43.1017 17.5036C43.1071 17.522 43.1084 17.5414 43.1054 17.5603C43.1024 17.5793 43.0951 17.5973 43.0842 17.6131C43.0733 17.6288 43.059 17.642 43.0424 17.6515C43.0257 17.661 43.0072 17.6667 42.988 17.6681L42.6059 17.6941C42.5638 17.6969 42.5245 17.715 42.4955 17.7449C42.3055 17.9387 42.1768 18.0675 42.1095 18.1314C42.0697 18.1691 42.0065 18.1898 41.9197 18.1936C41.8338 18.1979 41.7691 18.2046 41.7255 18.214C41.5368 18.2554 41.362 18.3168 41.2012 18.398C41.1301 18.4336 41.1123 18.4818 41.1206 18.5523C41.1231 18.5764 41.1364 18.5895 41.1606 18.5916L41.3713 18.6113C41.3963 18.6134 41.4039 18.6261 41.3941 18.6494L41.2082 19.1014C41.2051 19.1085 41.2039 19.1163 41.2047 19.1241C41.2054 19.1318 41.208 19.1393 41.2122 19.1458C41.2165 19.1523 41.2223 19.1577 41.2291 19.1615C41.2359 19.1652 41.2435 19.1672 41.2513 19.1674C41.3034 19.1678 41.3601 19.1481 41.4214 19.1083C41.6859 18.9365 41.9144 18.7444 42.107 18.532C42.1214 18.5159 42.1396 18.5059 42.1616 18.5021C42.253 18.4856 42.3253 18.4875 42.4066 18.4336C42.5348 18.3477 42.6829 18.3216 42.8509 18.3555C42.8558 18.3565 42.8602 18.3588 42.8639 18.3622C42.8675 18.3655 42.8702 18.3697 42.8717 18.3744C42.8732 18.3791 42.8734 18.3841 42.8723 18.389C42.8712 18.3938 42.8689 18.3982 42.8655 18.4018C42.7868 18.4827 42.6992 18.5459 42.6027 18.5916C42.5938 18.5958 42.5858 18.6019 42.5794 18.6094C42.573 18.6169 42.5682 18.6258 42.5655 18.6353C42.5627 18.6449 42.562 18.6549 42.5634 18.6648C42.5648 18.6746 42.5682 18.6841 42.5735 18.6926C42.5765 18.6976 42.6353 18.7914 42.75 18.9738C42.7843 19.0288 42.8215 19.0612 42.8617 19.0709C42.936 19.0893 43.0153 19.062 43.049 18.9807C43.0718 18.9245 43.1048 18.8458 43.148 18.7446C43.1507 18.7384 43.1545 18.7328 43.1593 18.7282C43.1641 18.7235 43.1697 18.7198 43.1759 18.7173C43.1821 18.7148 43.1888 18.7136 43.1954 18.7137C43.202 18.7138 43.2086 18.7153 43.2147 18.718C43.3831 18.792 43.5492 18.8678 43.7129 18.9452C43.824 18.9972 43.8818 19.0728 43.9218 19.182C43.9271 19.1965 43.936 19.2094 43.9476 19.2196C43.9593 19.2298 43.9732 19.2369 43.9883 19.2403C44.0034 19.2437 44.0191 19.2433 44.034 19.2391C44.0488 19.2349 44.0624 19.227 44.0735 19.2162C44.2381 19.0571 44.3879 18.9073 44.5229 18.7668C44.5923 18.6945 44.6097 18.6075 44.575 18.5059C44.5606 18.464 44.5504 18.3629 44.5445 18.2025C44.5436 18.1814 44.5494 18.1619 44.5616 18.1441C44.576 18.1234 44.6268 18.0519 44.714 17.9296C44.783 17.8331 44.7952 17.7548 44.7508 17.6947C44.6791 17.5976 44.5756 17.47 44.5807 17.371C44.5836 17.3092 44.6126 17.2923 44.6676 17.3202L45.1494 17.5646C45.1642 17.572 45.1765 17.5833 45.1851 17.5973C45.1937 17.6114 45.1983 17.6276 45.1982 17.6441C45.1981 17.6606 45.1935 17.6768 45.1847 17.6909C45.176 17.705 45.1636 17.7164 45.1488 17.7239C44.9749 17.8115 44.8174 17.8521 44.8111 18.0089C44.8101 18.0322 44.8178 18.0549 44.8327 18.0728C44.8476 18.0906 44.8687 18.1023 44.8917 18.1054C45.0335 18.1249 45.171 18.1096 45.3043 18.0597C45.3293 18.0504 45.3494 18.0565 45.3646 18.0781L45.6674 18.5117C45.6792 18.5282 45.6775 18.543 45.6623 18.5561L45.2573 18.9084C45.2452 18.9191 45.2302 18.9261 45.2141 18.9287C45.1981 18.9313 45.1816 18.9293 45.1666 18.923C45.0415 18.8716 44.7102 18.7364 44.7311 19.0042C44.732 19.0123 44.733 19.0377 44.7343 19.0804C44.7351 19.102 44.7271 19.1193 44.7102 19.1325C44.5663 19.2429 44.4848 19.3085 44.4658 19.3292C44.3826 19.4187 44.4372 19.5184 44.4309 19.6231C44.4292 19.6451 44.4203 19.6635 44.4042 19.6784C44.3208 19.7533 44.2629 19.8347 44.2303 19.9227C44.2249 19.9369 44.2226 19.9521 44.2235 19.9673C44.2243 19.9825 44.2284 19.9973 44.2354 20.0108C44.2425 20.0243 44.2522 20.0361 44.2641 20.0455C44.2761 20.055 44.2898 20.0618 44.3046 20.0656C44.3769 20.0838 44.4505 20.1195 44.5254 20.1728C44.5329 20.1784 44.5387 20.1859 44.5421 20.1945C44.5456 20.2031 44.5466 20.2125 44.5451 20.2217L44.5001 20.4832C44.4983 20.4937 44.4989 20.5044 44.5016 20.5146C44.5044 20.5248 44.5094 20.5343 44.5162 20.5424C44.5231 20.5504 44.5316 20.557 44.5412 20.5614C44.5508 20.5659 44.5612 20.5683 44.5718 20.5683H44.9438C44.9633 20.5683 44.982 20.5761 44.9958 20.5899C45.0096 20.6037 45.0174 20.6224 45.0174 20.6419V21.0583C45.0174 21.0678 45.0206 21.0769 45.0265 21.0843C45.0324 21.0916 45.0406 21.0968 45.0498 21.099C45.2554 21.1459 45.4361 21.1318 45.5919 21.0564C45.6833 21.012 45.7524 20.9934 45.7994 21.0006C45.9581 21.0255 46.065 21.0361 46.12 21.0323C46.2359 21.0238 46.2952 20.9737 46.2977 20.8819C46.2987 20.8521 46.2893 20.8229 46.2711 20.7992C46.253 20.7755 46.2272 20.7587 46.1981 20.7517C45.9869 20.7014 45.7927 20.6165 45.6153 20.4972C45.5764 20.4705 45.5802 20.453 45.6268 20.4445C45.9319 20.3891 46.1955 20.2357 46.4177 19.9843C46.4583 19.938 46.4513 19.8847 46.4634 19.8358C46.4837 19.7516 46.5218 19.7425 46.5776 19.8085C46.6288 19.869 46.6875 19.9187 46.7535 19.9577C46.8671 20.0249 47.0226 19.9907 47.1527 20.011C47.1896 20.0165 47.2213 20.0326 47.248 20.0592L47.566 20.3772C47.5723 20.384 47.5725 20.391 47.5666 20.3982L47.0785 20.953C47.0688 20.964 47.0616 20.977 47.0572 20.991C47.0528 21.005 47.0514 21.0198 47.0531 21.0343C47.0548 21.0489 47.0595 21.063 47.0669 21.0756C47.0743 21.0883 47.0843 21.0993 47.0962 21.1078C47.1792 21.1675 47.2626 21.2386 47.3463 21.3211C47.5749 21.5465 47.2727 21.8683 47.0747 22.0987C47.0624 22.1131 47.0467 22.1195 47.0277 22.1178L46.8487 22.1019C46.837 22.1008 46.8253 22.1028 46.8148 22.1079C46.8043 22.1129 46.7954 22.1207 46.789 22.1305L46.4875 22.5976C46.4838 22.6034 46.4787 22.608 46.4725 22.611C46.4664 22.614 46.4595 22.6153 46.4526 22.6148L45.8851 22.5627C45.8835 22.5626 45.8819 22.5619 45.8807 22.5609C45.8794 22.5599 45.8785 22.5585 45.878 22.5569C45.8775 22.5554 45.8775 22.5537 45.878 22.5521C45.8785 22.5506 45.8794 22.5492 45.8807 22.5481L46.5846 21.9349C46.6128 21.9103 46.6349 21.8795 46.6493 21.8449C46.6636 21.8103 46.6697 21.7729 46.6671 21.7356L46.6367 21.2945C46.6354 21.2754 46.6263 21.2617 46.6094 21.2532C46.5358 21.2164 46.4797 21.2287 46.4412 21.29C46.2311 21.6245 46.127 21.8569 45.8318 22.0759C45.6202 22.2329 45.4289 22.3611 45.258 22.4605C45.1517 22.5219 45.1399 22.604 45.2224 22.7068L45.7023 23.3048C45.7108 23.3153 45.7089 23.3287 45.6966 23.3448C45.6386 23.4222 45.6175 23.4946 45.6331 23.5618C45.6357 23.5728 45.6406 23.5831 45.6473 23.5919C45.6541 23.6008 45.6627 23.6081 45.6725 23.6133C45.7694 23.6666 45.8202 23.7779 45.8248 23.9472C45.8307 24.1693 45.8743 24.3818 45.9556 24.5845C45.9629 24.6031 45.9651 24.6234 45.962 24.6431C45.9589 24.6629 45.9505 24.6814 45.9378 24.6968C45.8773 24.7692 45.7711 24.8877 45.6191 25.0523C45.5713 25.1043 45.5442 25.1583 45.5379 25.2141C45.5364 25.227 45.5383 25.2401 45.5434 25.252C45.5485 25.2639 45.5565 25.2743 45.5668 25.2822C45.5771 25.29 45.5893 25.2951 45.6021 25.2969C45.615 25.2986 45.6281 25.297 45.6401 25.2922C45.8039 25.2266 45.9543 25.2247 46.0914 25.2865C46.1112 25.2953 46.1336 25.2961 46.1539 25.2888C46.1743 25.2815 46.191 25.2665 46.2006 25.2472C46.2793 25.0878 46.4183 24.7419 46.5789 24.6632C46.6885 24.6098 46.7958 24.5608 46.9007 24.5159C46.9064 24.5134 46.9125 24.512 46.9187 24.5119C46.9249 24.5118 46.931 24.513 46.9367 24.5153C46.9424 24.5176 46.9476 24.521 46.9518 24.5254C46.9561 24.5298 46.9595 24.535 46.9617 24.5407L47.0055 24.6511C47.0137 24.6716 47.0272 24.6896 47.0446 24.7032C47.062 24.7168 47.0828 24.7255 47.1047 24.7284C47.1266 24.7313 47.1489 24.7284 47.1693 24.7198C47.1897 24.7112 47.2074 24.6974 47.2207 24.6797C47.3218 24.5447 47.4449 24.4368 47.5901 24.3559C47.6227 24.3377 47.6546 24.3386 47.6859 24.3585L47.7088 24.3737C47.7186 24.3801 47.7268 24.3888 47.7325 24.399C47.7382 24.4092 47.7413 24.4207 47.7415 24.4324C47.7418 24.4441 47.7392 24.4557 47.7339 24.4662C47.7286 24.4766 47.7209 24.4856 47.7113 24.4924L47.0969 24.9215C47.0766 24.9359 47.0647 24.9554 47.0613 24.9799C47.0366 25.1481 47.1267 25.2465 47.1927 25.3836C47.2029 25.4044 47.2008 25.4238 47.1864 25.442L46.7674 25.9771C46.7578 25.9893 46.7512 26.0036 46.748 26.0188C46.7448 26.034 46.7452 26.0497 46.7492 26.0647C46.7531 26.0797 46.7605 26.0936 46.7707 26.1053C46.7809 26.117 46.7937 26.1261 46.8081 26.132L46.9464 26.1891C46.955 26.1927 46.9626 26.1983 46.9685 26.2055C46.9744 26.2127 46.9784 26.2213 46.9801 26.2304C46.9945 26.3002 47.0213 26.3561 47.0607 26.398C47.0727 26.4108 47.0879 26.4201 47.1048 26.4249C47.1216 26.4297 47.1395 26.4299 47.1565 26.4253C47.1735 26.4207 47.1889 26.4117 47.2012 26.399C47.2135 26.3864 47.2222 26.3707 47.2264 26.3535L47.326 25.9295C47.34 25.8703 47.3662 25.8641 47.4047 25.9111C47.4987 26.0258 47.5878 26.0704 47.672 26.0451C47.6809 26.0424 47.6885 26.0368 47.6936 26.0293C47.6987 26.0217 47.701 26.0127 47.6999 26.0038L47.6225 25.317C47.6208 25.3011 47.6223 25.2861 47.6269 25.2732C47.6946 25.0874 47.8237 24.9329 48.0141 24.8098C48.0315 24.7988 48.0503 24.7944 48.0706 24.7965C48.3061 24.8219 48.3099 25.0313 48.3175 25.2326C48.318 25.2389 48.329 25.2903 48.3505 25.3868C48.3696 25.4706 48.3226 25.5341 48.3188 25.6077C48.3129 25.727 48.3065 25.8072 48.2998 25.8483C48.2629 26.073 48.3332 26.1094 48.5105 25.9575C48.6256 25.8589 48.7794 25.7698 48.972 25.6902C48.9914 25.6822 49.0039 25.668 49.0094 25.6477C49.0513 25.4998 48.9142 25.3785 48.833 25.2586C48.8199 25.2391 48.8179 25.2186 48.8273 25.197C48.8785 25.084 48.9434 24.9746 49.0221 24.8688C49.1459 24.7025 49.3503 24.6422 49.5763 24.5299C49.6009 24.5176 49.6281 24.5113 49.6556 24.5115C49.6832 24.5116 49.7103 24.5181 49.735 24.5305L49.8543 24.5914C49.8746 24.6016 49.8956 24.6029 49.9171 24.5952C50.4368 24.4107 50.853 24.2319 51.1657 24.0589C51.1716 24.0556 51.1782 24.054 51.1849 24.0544C51.1916 24.0548 51.1981 24.0571 51.2035 24.061C51.2089 24.065 51.2131 24.0704 51.2155 24.0767C51.2179 24.0829 51.2185 24.0897 51.2171 24.0963C51.174 24.3096 51.2165 24.4759 51.3447 24.5952C51.356 24.6059 51.3697 24.6137 51.3845 24.6181C51.3994 24.6225 51.4151 24.6233 51.4303 24.6205C51.4456 24.6178 51.46 24.6114 51.4723 24.6021C51.4847 24.5927 51.4947 24.5806 51.5015 24.5667C51.5853 24.3978 51.6274 24.2364 51.6278 24.0824C51.6283 23.9503 51.6302 23.8646 51.6336 23.8253C51.6391 23.7576 51.675 23.7165 51.7415 23.7021C51.8189 23.6852 51.9148 23.6835 52.029 23.6971C52.1001 23.7055 52.1274 23.7447 52.1109 23.8145L52.0296 24.1623C52.0228 24.1918 52.0265 24.2227 52.0403 24.2495C52.054 24.2764 52.0768 24.2974 52.1045 24.309L52.4016 24.4315C52.4131 24.4363 52.4257 24.4379 52.438 24.4362C52.4503 24.4345 52.462 24.4296 52.4718 24.4219C52.4815 24.4142 52.4891 24.404 52.4936 24.3924C52.4981 24.3808 52.4995 24.3682 52.4975 24.3559C52.4822 24.2569 52.4469 24.174 52.3915 24.1071C52.3293 24.0322 52.3185 23.9421 52.3661 23.8646C52.3783 23.8447 52.3959 23.8378 52.4188 23.8437C52.8377 23.9546 53.1843 24.0737 53.4585 24.2011C53.4776 24.2099 53.4862 24.225 53.4845 24.2461L53.4579 24.5343C53.4561 24.5526 53.4598 24.571 53.4685 24.5872C53.4772 24.6034 53.4905 24.6167 53.5067 24.6254C53.5229 24.6341 53.5413 24.6378 53.5596 24.636C53.5779 24.6343 53.5953 24.6271 53.6096 24.6156C53.8305 24.4378 53.9843 24.3119 54.0711 24.2379C54.121 24.1951 54.2033 24.1736 54.318 24.1731C54.3277 24.1731 54.3332 24.178 54.3345 24.1877L54.3377 24.2125C54.3385 24.2188 54.3358 24.2224 54.3294 24.2233C54.2126 24.2368 54.1441 24.2853 54.1237 24.3686C54.106 24.4423 54.1303 24.4882 54.1967 24.5064C54.2505 24.5212 54.282 24.529 54.2913 24.5299C54.3857 24.5417 54.4473 24.5371 54.476 24.5159C54.5577 24.4554 54.6358 24.3964 54.7103 24.3388C54.7142 24.3357 54.7188 24.3335 54.7236 24.3324C54.7285 24.3312 54.7336 24.3312 54.7385 24.3322C54.7434 24.3332 54.748 24.3353 54.752 24.3383C54.756 24.3413 54.7593 24.3452 54.7617 24.3496C54.8446 24.5007 54.9506 24.6363 55.0797 24.7565C55.2219 24.8898 55.3006 24.9863 55.3108 25.1653C55.3129 25.2015 55.3021 25.2373 55.2804 25.2663C55.2587 25.2954 55.2274 25.3158 55.1921 25.324C55.0736 25.351 54.9813 25.3606 54.9153 25.3525C54.8857 25.3487 54.7953 25.3187 54.6442 25.2624C54.5173 25.215 54.3819 25.1949 54.238 25.2021C54.2151 25.2034 54.2005 25.2148 54.1942 25.2364C54.1836 25.2702 54.1824 25.303 54.1904 25.3347C54.1959 25.3555 54.2183 25.3779 54.2577 25.402C54.4272 25.5068 54.6773 25.7143 54.7331 25.9257C54.745 25.9697 54.7405 26.0269 54.7198 26.0971C54.6754 26.2503 54.6392 26.3656 54.6112 26.4431C54.5854 26.5125 54.5473 26.5766 54.497 26.6354C54.453 26.6866 54.3891 26.7137 54.3053 26.7166C54.1034 26.7247 53.9371 26.7204 53.8064 26.7039C53.5207 26.6688 53.3749 26.6508 53.369 26.65C53.1993 26.6326 53.025 26.607 52.846 26.5732C52.733 26.552 52.613 26.5431 52.486 26.5465C52.415 26.5482 52.2988 26.5721 52.1376 26.6182C51.7364 26.7321 51.4275 26.8209 51.2108 26.8848C50.8858 26.9801 50.6124 27.1119 50.3907 27.2803C50.2959 27.3522 50.2485 27.4479 50.2485 27.5672V27.7392C50.2485 27.8603 50.298 27.8861 50.397 27.8167C50.5807 27.6876 50.8136 27.4889 51.0959 27.2206C51.1115 27.2059 51.1317 27.1971 51.153 27.1959C51.3325 27.1853 51.4702 27.2293 51.5663 27.3279C51.6814 27.4456 51.7787 27.6051 51.8583 27.8065C51.8659 27.826 51.8676 27.8461 51.8633 27.8668C51.8157 28.0979 51.7338 28.3283 51.8341 28.5587C51.8456 28.585 51.853 28.6118 51.8564 28.6393C51.8584 28.6562 51.8546 28.6732 51.8456 28.6876L51.6171 29.0405C51.6045 29.0599 51.5854 29.0741 51.5633 29.0805C51.5411 29.0869 51.5174 29.0851 51.4964 29.0754C51.4588 29.0581 51.4019 29.0401 51.3257 29.0215C51.1632 28.9821 51.0794 29.0995 51.1511 29.2493C51.1651 29.279 51.182 29.3433 51.2019 29.4423C51.207 29.4677 51.1966 29.4791 51.1708 29.4766L50.9125 29.4531C50.8909 29.4514 50.872 29.458 50.856 29.4728C50.6698 29.6429 50.5983 29.8551 50.6414 30.1095C50.6434 30.1216 50.6483 30.1331 50.6557 30.1429C50.6631 30.1527 50.6727 30.1607 50.6838 30.166C50.6948 30.1714 50.707 30.174 50.7193 30.1736C50.7316 30.1733 50.7436 30.17 50.7544 30.164C50.8972 30.0866 51.1505 29.9336 51.2895 29.9355C51.3196 29.9364 51.3543 29.9561 51.3936 29.9946C51.5553 30.1537 51.7074 30.3672 51.85 30.635C51.8597 30.6541 51.861 30.6736 51.8538 30.6934C51.8191 30.7925 51.7624 30.9613 51.6837 31.2C51.6752 31.2258 51.6723 31.3109 51.6748 31.4552C51.6749 31.4652 51.6788 31.4748 51.6857 31.4822C51.6927 31.4896 51.7021 31.4942 51.7123 31.4951C51.8748 31.5087 51.978 31.4467 52.022 31.3092C52.0838 31.117 52.1644 30.949 52.2639 30.8052C52.2652 30.8032 52.267 30.8016 52.2691 30.8005C52.2712 30.7994 52.2736 30.7988 52.2759 30.7988C52.2783 30.7988 52.2807 30.7994 52.2828 30.8005C52.2849 30.8016 52.2867 30.8032 52.288 30.8052L52.4727 31.0699C52.482 31.0831 52.4948 31.0934 52.5097 31.0996C52.5246 31.1059 52.5409 31.1077 52.5568 31.105C52.5727 31.1023 52.5875 31.0951 52.5995 31.0842C52.6115 31.0734 52.6201 31.0594 52.6244 31.0438C52.8352 30.2902 52.9905 29.7216 53.0903 29.3382C53.106 29.2773 53.1231 29.1766 53.1418 29.0361C53.1424 29.0316 53.1443 29.0275 53.1473 29.0241C53.1503 29.0208 53.1542 29.0184 53.1585 29.0173C53.1628 29.0161 53.1674 29.0163 53.1716 29.0177C53.1759 29.0191 53.1796 29.0217 53.1824 29.0253C53.3301 29.2144 53.4498 29.392 53.5417 29.5578C53.5819 29.6306 53.5698 29.6943 53.5055 29.7489C53.4192 29.8206 53.2858 29.9355 53.2865 30.0974C53.2869 30.152 53.2784 30.3141 53.2611 30.5836C53.2503 30.755 53.2002 30.9353 53.1925 31.106C53.1875 31.2241 53.1659 31.3066 53.1278 31.3536C53.0533 31.4463 52.9917 31.5195 52.9431 31.5732C52.9244 31.5938 52.9128 31.6199 52.9102 31.6477C52.9076 31.6755 52.914 31.7035 52.9285 31.7275C52.9809 31.8146 53.0616 31.8671 53.1703 31.8849C53.1927 31.8887 53.2073 31.8796 53.2141 31.8576C53.2509 31.7429 53.2909 31.6392 53.3341 31.5466C53.3383 31.5373 53.3754 31.4397 53.4452 31.2539C53.4972 31.1147 53.5821 30.9956 53.6997 30.8966C53.7704 30.8373 53.7962 30.7493 53.7772 30.6325C53.7602 30.5301 53.7255 30.3399 53.6731 30.0618C53.6686 30.0386 53.6699 30.0147 53.6768 29.9922C53.6838 29.9697 53.6963 29.9494 53.713 29.933C53.7516 29.8953 53.7949 29.856 53.8432 29.8149C54.0266 29.6588 53.9835 29.5058 53.9968 29.2951C54.0116 29.0572 53.9644 28.8327 53.8552 28.6216C53.8366 28.5847 53.8256 28.5308 53.8222 28.4597C53.821 28.4305 53.8349 28.4182 53.8641 28.4229L54.2869 28.4965C54.2976 28.4983 54.3086 28.4977 54.319 28.4945C54.3294 28.4914 54.339 28.4859 54.3469 28.4784C54.3548 28.471 54.3609 28.4618 54.3647 28.4516C54.3685 28.4415 54.3699 28.4305 54.3688 28.4197C54.3408 28.151 54.325 27.9942 54.3212 27.9493C54.3144 27.8592 54.3628 27.8137 54.4665 27.8129C54.6195 27.8122 54.6931 27.8199 54.8213 27.7088C55.0287 27.5302 55.3074 27.2964 55.6573 27.0074C55.7659 26.9172 55.7957 26.7953 55.8167 26.6671C55.8649 26.3734 55.9497 26.0897 56.0712 25.8159C56.076 25.8048 56.0839 25.7953 56.094 25.7886C56.104 25.7818 56.1158 25.7781 56.1279 25.7777C56.1401 25.7774 56.1521 25.7805 56.1626 25.7867C56.1731 25.7929 56.1817 25.8019 56.1874 25.8127C56.3977 26.2224 56.5524 26.5383 56.6514 26.7604C56.6763 26.8167 56.6886 26.9003 56.6882 27.0112C56.6882 27.0208 56.6863 27.0303 56.6826 27.0391C56.6789 27.048 56.6734 27.0559 56.6666 27.0626L56.3803 27.3489C56.3694 27.3597 56.3619 27.3733 56.3585 27.3883C56.3552 27.4033 56.3562 27.4189 56.3615 27.4333C56.3667 27.4478 56.376 27.4605 56.3882 27.4699C56.4005 27.4793 56.4151 27.4851 56.4305 27.4866L56.6653 27.5082C56.6735 27.509 56.6814 27.5115 56.6884 27.5156C56.6954 27.5196 56.7014 27.5251 56.706 27.5317C56.846 27.7285 56.9207 27.9381 56.93 28.1607C56.9343 28.2572 56.9419 28.3217 56.9529 28.3543C56.9753 28.4195 57.0104 28.4756 57.0583 28.5225C57.0698 28.534 57.0767 28.5494 57.0775 28.5655C57.0784 28.5816 57.0731 28.5973 57.0627 28.6095C56.9802 28.7079 56.8659 28.819 56.9637 28.9548C57.0597 29.0877 57.1507 29.2204 57.2366 29.3528C57.248 29.3705 57.2553 29.3904 57.2582 29.4112C57.261 29.4319 57.2593 29.4529 57.2531 29.4728C57.1909 29.6753 57.2296 29.8206 57.2595 30.0365C57.2823 30.1977 57.1021 30.2853 57.1224 30.4694C57.1266 30.5083 57.1562 30.5555 57.2112 30.6109C57.3775 30.7798 57.6194 30.9765 57.7178 31.1803C57.8456 31.4435 57.9177 31.6998 57.9342 31.949C57.9348 31.9577 57.9331 31.9664 57.9293 31.9742C57.9255 31.982 57.9198 31.9886 57.9127 31.9934L57.6353 32.1877C57.6232 32.1961 57.6131 32.207 57.6057 32.2197C57.5982 32.2324 57.5936 32.2465 57.5921 32.2611C57.5906 32.2756 57.5922 32.2904 57.5969 32.3042C57.6017 32.3181 57.6093 32.3307 57.6194 32.3413C57.8394 32.5719 57.8414 32.778 57.6251 32.9596C57.5045 33.0611 57.4417 33.1328 57.5661 33.2706C57.6334 33.3455 57.6562 33.395 57.6353 33.5029C57.5904 33.7327 57.5178 33.9502 57.4175 34.1555C57.4125 34.1656 57.4091 34.2045 57.4074 34.2722C57.4048 34.3573 57.5026 34.4506 57.5407 34.5084C57.5522 34.5261 57.5564 34.5476 57.5525 34.5683C57.5486 34.589 57.5369 34.6074 57.5197 34.6195C57.2024 34.8442 57.6499 35.1711 57.5159 35.437C57.5094 35.4497 57.5024 35.4608 57.4957 35.4691C57.489 35.4774 57.483 35.4823 57.4785 35.4834L56.9643 35.5767C56.936 35.5818 56.9218 35.5915 56.9218 35.6059C56.9218 35.6909 56.9465 35.7496 56.9961 35.7817C57.1882 35.9061 57.3503 36.049 57.4823 36.2102C57.4892 36.2185 57.4938 36.2285 57.4955 36.2392C57.4972 36.2498 57.496 36.2608 57.492 36.2708C57.4881 36.2809 57.4815 36.2897 57.473 36.2963C57.4644 36.303 57.4543 36.3072 57.4436 36.3086L56.9567 36.374C56.8771 36.385 56.835 36.4305 56.8304 36.5104C56.8196 36.6951 56.8583 36.8202 56.7904 36.9992C56.7688 37.0568 56.7563 37.13 56.7529 37.2188C56.7525 37.2256 56.7504 37.2323 56.7468 37.2382C56.7431 37.244 56.738 37.2489 56.732 37.2525L56.3822 37.4543C56.3623 37.4662 56.3414 37.4679 56.3194 37.4594C56.1552 37.3972 56.0344 37.3724 55.9569 37.3851C55.8778 37.3978 55.7075 37.4526 55.446 37.5495C55.3977 37.5673 55.3319 37.5644 55.2485 37.5407C55.1301 37.5072 55.0678 37.4901 55.0619 37.4892C54.8651 37.4575 54.6815 37.4933 54.5109 37.5965C54.4959 37.6055 54.4838 37.6187 54.4762 37.6345C54.4686 37.6503 54.4658 37.668 54.4682 37.6854C54.4705 37.7028 54.478 37.7191 54.4895 37.7323C54.5011 37.7455 54.5163 37.755 54.5332 37.7597C54.713 37.8104 54.8683 37.8443 54.9991 37.8612C55.0985 37.8743 55.1908 37.8989 55.2758 37.9348C55.4396 38.0038 55.5278 38.0411 55.5405 38.0466C55.5689 38.0588 55.6861 38.0677 55.8922 38.0732C56.075 38.0783 56.1385 38.1399 56.2832 38.2472C56.3006 38.2603 56.3097 38.2778 56.3105 38.2998C56.315 38.4293 56.1969 38.6134 56.3359 38.7353C56.4578 38.8411 56.5695 38.9261 56.6711 38.9905C56.6737 38.9921 56.6759 38.9944 56.6776 38.9971C56.6792 38.9998 56.6802 39.0029 56.6804 39.006C56.6807 39.0092 56.6802 39.0123 56.679 39.0152C56.6778 39.0181 56.676 39.0207 56.6736 39.0228L56.2375 39.4024C56.2224 39.4156 56.2101 39.4317 56.2013 39.4498C56.1925 39.4678 56.1874 39.4874 56.1863 39.5073C56.1851 39.5273 56.188 39.5473 56.1948 39.5662C56.2015 39.585 56.2119 39.6023 56.2254 39.617C56.4927 39.9071 56.6825 40.1184 56.8786 40.4403C57.0847 40.7792 57.2753 41.0668 57.4505 41.3029C57.6981 41.6374 57.8777 42.0621 58.0237 42.4017C58.1145 42.6124 58.0644 42.8321 58.1742 43.0403C58.2586 43.1983 58.3868 43.2897 58.5627 43.4567C58.5773 43.4706 58.586 43.4898 58.5868 43.51C58.5877 43.5303 58.5806 43.5501 58.5671 43.5652L58.4255 43.7264C58.4057 43.7489 58.3807 43.7588 58.3506 43.7563L58.2262 43.7449C58.2089 43.7432 58.1914 43.7466 58.1759 43.7546C58.1605 43.7626 58.1476 43.7749 58.1389 43.7901C58.1301 43.8052 58.1259 43.8225 58.1266 43.8401C58.1274 43.8576 58.1331 43.8745 58.1431 43.8889L58.4782 44.3682C58.4839 44.3765 58.4872 44.3862 58.4876 44.3962C58.4881 44.4062 58.4858 44.4162 58.4809 44.425C58.476 44.4337 58.4688 44.441 58.46 44.4458C58.4512 44.4507 58.4413 44.4531 58.4313 44.4526C58.3037 44.4463 58.0853 44.4412 58.039 44.5777C58.0339 44.5926 58.0323 44.6085 58.0343 44.6242C58.0362 44.6399 58.0417 44.6549 58.0502 44.6682C58.0587 44.6815 58.0701 44.6927 58.0836 44.701C58.097 44.7092 58.1121 44.7144 58.1278 44.716C58.2884 44.7325 58.5303 44.723 58.5481 44.9243C58.5582 45.0419 58.5743 45.1403 58.5963 45.2194C58.6604 45.4517 58.6458 45.6644 58.6928 45.8827C58.7161 45.9894 58.6945 45.9993 58.628 45.9126C58.515 45.7649 58.3752 45.6786 58.2085 45.6536C58.1805 45.6489 58.1653 45.6608 58.1628 45.6891L58.1443 45.8942C58.1427 45.9102 58.136 45.9252 58.1253 45.9367C58.0546 46.0163 57.9768 46.0795 57.8917 46.1265C57.8041 46.1756 57.748 46.2289 57.7235 46.2865C57.6837 46.3808 57.6632 46.46 57.6619 46.5239C57.6618 46.5309 57.6633 46.5379 57.6665 46.5442C57.6697 46.5505 57.6743 46.5559 57.6801 46.5599C57.6858 46.564 57.6924 46.5665 57.6993 46.5673C57.7063 46.5681 57.7132 46.5671 57.7197 46.5645L57.8676 46.5055C57.877 46.5018 57.8872 46.5007 57.897 46.5023C57.9068 46.5039 57.916 46.508 57.9234 46.5143C57.9886 46.5689 58.0326 46.6307 58.0555 46.6997C58.0707 46.7462 58.0608 46.8135 58.0256 46.9015C57.9973 46.9714 57.9795 47.0403 57.9723 47.1085C57.9651 47.1775 57.9962 47.2098 58.0656 47.2056C58.1845 47.1984 58.2969 47.159 58.4027 47.0875C58.4704 47.0418 58.5153 47.0583 58.5373 47.137C58.5445 47.162 58.5347 47.2031 58.5081 47.2602C58.3993 47.4959 58.3168 47.7018 58.2605 47.8778C58.2546 47.8969 58.2419 47.9081 58.2224 47.9115C57.988 47.9567 57.7995 47.9034 57.6568 47.7515C57.6496 47.7439 57.6441 47.7349 57.6406 47.725C57.6371 47.7152 57.6357 47.7047 57.6365 47.6944C57.6403 47.6419 57.659 47.5687 57.6924 47.4747C57.7296 47.3689 57.7392 47.2454 57.721 47.104C57.7184 47.082 57.7061 47.0693 57.6841 47.0659C57.5326 47.0452 57.4004 47.0659 57.2874 47.1282C57.21 47.1709 57.1503 47.1658 57.1084 47.1129C57.0923 47.0922 57.0942 47.0731 57.1141 47.0558L57.2208 46.9631C57.236 46.95 57.2467 46.9324 57.2513 46.9128C57.256 46.8932 57.2544 46.8726 57.2468 46.8539C57.2307 46.8129 57.2021 46.7465 57.1611 46.6546C57.1141 46.5499 56.9764 46.4477 56.8932 46.3563C56.8797 46.3415 56.8746 46.3239 56.878 46.3036L56.9173 46.0757C56.9197 46.0616 56.918 46.0472 56.9123 46.0341C56.9066 46.021 56.8972 46.0099 56.8853 46.002C56.8734 45.9941 56.8595 45.9899 56.8452 45.9898C56.831 45.9897 56.817 45.9937 56.805 46.0014C56.5591 46.1597 56.3052 46.2824 56.0433 46.3696C55.9519 46.4001 55.877 46.4547 55.9036 46.5537C55.9108 46.5795 55.9273 46.5954 55.9531 46.6013L56.4889 46.7276C56.5143 46.7335 56.5335 46.7477 56.5466 46.7701L56.8761 47.3408C56.9176 47.4132 56.9027 47.4711 56.8316 47.5147C56.7893 47.5405 56.7532 47.5865 56.7231 47.6525C56.7169 47.6662 56.7142 47.6812 56.7153 47.6963C56.7164 47.7113 56.7213 47.7258 56.7295 47.7385C56.7377 47.7512 56.749 47.7616 56.7623 47.7689C56.7756 47.7762 56.7905 47.78 56.8056 47.7801H56.951C56.9827 47.7801 57.0098 47.7913 57.0322 47.8137L57.5178 48.2993C57.5216 48.303 57.5243 48.3076 57.5257 48.3127C57.5271 48.3178 57.5272 48.3232 57.5259 48.3283C57.5246 48.3334 57.522 48.3381 57.5184 48.3419C57.5148 48.3457 57.5102 48.3486 57.5051 48.3501L57.0684 48.4758C57.0413 48.4834 57.0265 48.5014 57.024 48.5297C57.0181 48.6008 57.0155 48.6922 57.0164 48.8039C57.0172 48.9097 56.9819 49.0204 56.9104 49.1359C56.7834 49.3403 56.6425 49.1816 56.4698 49.261C56.3651 49.3086 56.3245 49.4057 56.4102 49.5079C56.5007 49.6158 56.5881 49.7129 56.6723 49.7992C56.678 49.8051 56.6825 49.8121 56.6854 49.8198C56.6883 49.8275 56.6897 49.8357 56.6893 49.8439C56.6889 49.8521 56.6869 49.8601 56.6833 49.8675C56.6798 49.8749 56.6747 49.8815 56.6685 49.8868L56.494 50.0392C56.482 50.0495 56.4729 50.0626 56.4674 50.0774C56.4619 50.0922 56.4603 50.1082 56.4626 50.1237C56.4649 50.1393 56.4712 50.1541 56.4808 50.1666C56.4904 50.1791 56.503 50.189 56.5174 50.1953C56.6749 50.2652 56.8653 50.349 57.0233 50.3026C57.0462 50.2958 57.0574 50.2806 57.057 50.2569Z" fill="#161616"/>
</g>
<defs>
<clipPath id="clip0_1387_5243">
<rect width="75" height="75" fill="white"/>
</clipPath>
</defs>
</svg>
