<svg width="30" height="30" viewBox="0 0 30 30" fill="none" xmlns="http://www.w3.org/2000/svg">
<g clip-path="url(#clip0_360_1635)">
<path d="M0.5 0.5V29.5H29.5V0.5H0.5Z" stroke="black"/>
<path opacity="0.979" fill-rule="evenodd" clip-rule="evenodd" d="M11.2524 2.91801C11.7103 2.91248 12.0166 3.12504 12.1714 3.5557C12.1839 4.56849 12.1964 5.58129 12.2089 6.59408C12.8625 6.63129 13.5189 6.64378 14.1782 6.63159C14.172 5.5937 14.1782 4.55591 14.197 3.51819C14.3468 3.13955 14.6281 2.9395 15.041 2.91801C15.4539 2.9395 15.7352 3.13955 15.885 3.51819C15.9037 4.55591 15.91 5.5937 15.9037 6.63159C16.5664 6.63159 17.2291 6.63159 17.8918 6.63159C17.8856 5.60623 17.8918 4.58092 17.9106 3.5557C18.0425 3.16151 18.3176 2.94895 18.7358 2.91801C19.149 2.94433 19.4365 3.14439 19.5986 3.51819C19.6525 4.55475 19.6713 5.59254 19.6548 6.63159C20.6177 6.62533 21.5805 6.63159 22.5432 6.65035C23.0121 6.7191 23.2809 6.98794 23.3497 7.45683C23.3684 8.41955 23.3747 9.3823 23.3684 10.3452C24.4072 10.3295 25.445 10.3482 26.4818 10.4014C26.8567 10.5643 27.0567 10.8519 27.082 11.2642C27.051 11.6825 26.8384 11.9576 26.4443 12.0894C25.4315 12.1019 24.4187 12.1144 23.4059 12.1269C23.3687 12.7805 23.3562 13.4369 23.3684 14.0963C24.3938 14.09 25.4191 14.0963 26.4443 14.115C26.8451 14.2478 27.0577 14.5291 27.082 14.959C27.0426 15.3769 26.83 15.6582 26.4443 15.803C25.4191 15.8218 24.3938 15.828 23.3684 15.8218C23.3684 16.4845 23.3684 17.1471 23.3684 17.8098C24.3938 17.8036 25.4191 17.8098 26.4443 17.8286C26.847 17.9629 27.0596 18.2442 27.082 18.6726C27.0445 18.8538 26.9882 19.0289 26.9132 19.1977C26.7942 19.3356 26.6504 19.4419 26.4818 19.5166C25.4452 19.5705 24.4075 19.5893 23.3684 19.5728C23.3747 20.5357 23.3684 21.4985 23.3497 22.4612C23.2803 22.9306 23.0115 23.1995 22.5432 23.2677C21.5805 23.2864 20.6177 23.2927 19.6548 23.2864C19.6667 24.32 19.648 25.3578 19.5986 26.3998C19.4426 26.7845 19.155 26.9846 18.7358 27C18.3176 26.9691 18.0425 26.7565 17.9106 26.3623C17.8918 25.3371 17.8856 24.3118 17.8918 23.2864C17.2291 23.2864 16.5664 23.2864 15.9037 23.2864C15.91 24.3243 15.9037 25.3621 15.885 26.3998C15.8104 26.5681 15.7041 26.7118 15.5661 26.8312C15.0314 27.0946 14.5875 26.9883 14.2345 26.5124C14.222 26.4624 14.2095 26.4123 14.197 26.3623C14.1782 25.3371 14.172 24.3118 14.1782 23.2864C13.5155 23.2864 12.8529 23.2864 12.1902 23.2864C12.1964 24.3118 12.1902 25.3371 12.1714 26.3623C12.0395 26.7565 11.7644 26.9691 11.3462 27C10.9266 26.9844 10.639 26.7844 10.4834 26.3998C10.4295 25.3633 10.4107 24.3255 10.4272 23.2864C9.46429 23.2927 8.50153 23.2864 7.53882 23.2677C7.06993 23.1989 6.80109 22.9301 6.73233 22.4612C6.71358 21.4985 6.70731 20.5357 6.71358 19.5728C5.67453 19.5893 4.63673 19.5705 3.60017 19.5166C3.22513 19.3536 3.02506 19.066 3 18.6538C3.03086 18.2357 3.24342 17.9606 3.63769 17.8286C4.65048 17.8161 5.66327 17.8036 6.67607 17.7911C6.71328 17.1375 6.72577 16.4811 6.71358 15.8218C5.68822 15.828 4.66291 15.8218 3.63769 15.803C3.24992 15.6585 3.03736 15.3771 3 14.959C3.02148 14.5461 3.22154 14.2648 3.60017 14.115C4.6379 14.0963 5.67569 14.09 6.71358 14.0963C6.72577 13.4369 6.71328 12.7805 6.67607 12.1269C5.66327 12.1144 4.65048 12.1019 3.63769 12.0894C3.24358 11.9576 3.03102 11.6825 3 11.2642C3.02524 10.8519 3.22529 10.5643 3.60017 10.4014C4.64226 10.3632 5.68008 10.3445 6.71358 10.3452C6.70731 9.3823 6.71358 8.41955 6.73233 7.45683C6.8027 6.98633 7.07154 6.71753 7.53882 6.65035C8.50153 6.63159 9.46429 6.62533 10.4272 6.63159C10.4107 5.59254 10.4295 4.55475 10.4834 3.51819C10.6413 3.1879 10.8976 2.98784 11.2524 2.91801ZM8.5141 8.43211C8.5141 12.7834 8.5141 17.1346 8.5141 21.4859C12.8654 21.4859 17.2166 21.4859 21.5679 21.4859C21.5679 17.1346 21.5679 12.7834 21.5679 8.43211C17.2166 8.43211 12.8654 8.43211 8.5141 8.43211Z" fill="#161616"/>
<path opacity="0.985" fill-rule="evenodd" clip-rule="evenodd" d="M11.7402 11.1704C13.9409 11.1641 16.1415 11.1704 18.3421 11.1892C18.6385 11.2759 18.8198 11.4697 18.886 11.7706C18.911 13.9587 18.911 16.1469 18.886 18.335C18.8047 18.6163 18.6234 18.7976 18.3421 18.8789C16.1274 18.8973 13.9206 18.9036 11.7214 18.8977C11.4387 18.7901 11.2637 18.59 11.1963 18.2975C11.1712 16.0968 11.1712 13.8962 11.1963 11.6956C11.3039 11.4396 11.4852 11.2645 11.7402 11.1704Z" fill="#161616"/>
</g>
<defs>
<clipPath id="clip0_360_1635">
<rect width="30" height="30" fill="white"/>
</clipPath>
</defs>
</svg>
