<svg width="75" height="76" viewBox="0 0 75 76" fill="none" xmlns="http://www.w3.org/2000/svg">
<g clip-path="url(#clip0_1387_5241)">
<path d="M1.25 1.75V74.25H73.75V1.75H1.25Z" stroke="#727372" stroke-width="2.5"/>
<path d="M32.0885 25.1851C32.0851 25.1762 32.0826 25.1697 32.0809 25.1654C32.0796 25.1608 32.0794 25.1559 32.0803 25.1508C32.1247 24.9409 32.1236 24.7334 32.0771 24.5281C32.0348 24.3419 32.0162 24.2084 32.0212 24.1276C32.0297 23.9888 32.0663 23.8584 32.131 23.7366C32.1526 23.6955 32.236 23.5929 32.3811 23.4287C32.5458 23.2425 32.6604 23.0288 32.7252 22.7876C32.7849 22.5659 32.8153 22.4533 32.8166 22.4499C32.8619 22.3335 32.9184 22.2299 32.9861 22.1389C33.0322 22.0767 33.0978 22.0595 33.1828 22.0875C33.3458 22.1408 33.5093 22.1935 33.6735 22.2455C33.8881 22.3136 34.0652 22.4326 34.2048 22.6022C34.2188 22.6192 34.2253 22.6384 34.2245 22.66C34.2215 22.8081 34.2499 22.9429 34.3096 23.0644C34.3184 23.0826 34.3201 23.1005 34.3146 23.1183L34.2969 23.1729C34.2955 23.1774 34.2954 23.1822 34.2967 23.1867C34.2981 23.1912 34.3007 23.1954 34.3043 23.1987C34.308 23.202 34.3126 23.2045 34.3176 23.2057C34.3227 23.207 34.328 23.2071 34.333 23.2059C34.5438 23.1583 34.6517 22.9114 34.7222 22.7235C34.7302 22.7028 34.7435 22.6867 34.7621 22.6752C34.8193 22.6401 34.8825 22.6386 34.9519 22.6708C34.9676 22.678 34.9795 22.6941 34.9875 22.719C34.9896 22.7254 35.0296 22.8521 35.1075 23.0993C35.1257 23.1577 35.1502 23.1951 35.1811 23.2116C35.2243 23.2349 35.2725 23.2451 35.3258 23.2421C35.5162 23.2315 35.6396 23.1433 35.6959 22.9774C35.7035 22.9558 35.7183 22.9427 35.7403 22.938C35.8884 22.9055 35.9896 22.8938 36.0437 22.9031C36.1538 22.9222 36.2272 22.933 36.264 22.9355C36.2856 22.9368 36.3027 22.9287 36.3154 22.9114C36.4022 22.792 36.421 22.6812 36.3719 22.5788C36.3313 22.4946 36.3106 22.4505 36.3097 22.4467C36.2564 22.2593 36.2822 22.1059 36.3871 21.9865C36.4714 21.8913 36.6125 21.8264 36.8105 21.7917C37.0128 21.7557 37.4908 21.7248 38.2445 21.699C38.2665 21.6981 38.2785 21.6869 38.2807 21.6653C38.2938 21.535 38.3018 21.4309 38.3048 21.353C38.3094 21.2337 38.3357 21.1326 38.3835 21.0496C38.4982 20.8503 38.6031 20.7219 38.6983 20.6643C38.8532 20.5708 38.956 20.5048 39.0068 20.4663C39.0809 20.4108 39.1651 20.3759 39.2595 20.3615C39.4478 20.3323 39.5749 20.3038 39.641 20.2758C39.7937 20.2107 39.9012 20.1804 39.9634 20.1851C39.9664 20.1855 40.0514 20.1859 40.2186 20.1863C40.2871 20.1863 40.3631 20.1571 40.4465 20.0987C40.5159 20.0505 40.6581 19.9646 40.873 19.841C40.9179 19.8148 40.9568 19.794 40.9898 19.7788C41.0186 19.7653 41.0611 19.7665 41.1174 19.7826C41.3891 19.8609 41.5865 19.9301 41.7097 19.9902C41.7291 19.9995 41.7473 19.9976 41.7642 19.9845C41.9369 19.8518 42.2073 19.8683 42.3711 19.7877C42.4925 19.7276 42.6186 19.6216 42.7494 19.4697C42.83 19.3757 42.8427 19.2285 42.9056 19.1117C42.9932 18.9479 43.0712 18.8616 43.2604 18.8057C43.3556 18.7778 43.4485 18.7463 43.5391 18.7111C43.8203 18.602 44.0691 18.6032 44.3509 18.7124C44.3712 18.72 44.3856 18.7338 44.3941 18.7537C44.4174 18.8104 44.4438 18.8906 44.4734 18.9942C44.5229 19.1682 44.6943 19.1605 44.8143 19.2139C44.8219 19.2168 44.8744 19.2509 44.9717 19.3161C45.0521 19.3698 45.1583 19.4001 45.2904 19.4068C45.4702 19.4166 45.6882 19.421 45.9442 19.4202C46.0521 19.4202 46.1934 19.4447 46.3682 19.4938C46.5815 19.5541 46.7967 19.7883 46.9103 19.8804C47.0652 20.0054 47.102 20.159 47.1185 20.3387C47.1265 20.4254 47.1037 20.5414 47.0499 20.6865C46.9835 20.8672 46.9427 20.9783 46.9274 21.0198C46.9093 21.0688 46.8754 21.1109 46.8309 21.1397L46.3028 21.4793C46.2876 21.4891 46.2747 21.5021 46.2652 21.5173C46.2556 21.5326 46.2497 21.5497 46.2478 21.5673C46.2458 21.5849 46.2481 21.6026 46.2542 21.619C46.2603 21.6353 46.2702 21.6499 46.2831 21.6615C46.331 21.7047 46.3985 21.7335 46.4856 21.7479C46.5038 21.7512 46.623 21.776 46.843 21.8221C46.9687 21.8488 47.0897 21.8598 47.2061 21.8551C47.6284 21.8386 47.9623 21.8486 48.2078 21.885C48.2674 21.8934 48.3597 21.9423 48.4845 22.0316C48.5205 22.057 48.5846 22.1215 48.6768 22.2252C48.7268 22.2815 48.7917 22.3318 48.8717 22.3763C48.9356 22.4118 49.0228 22.4294 49.1332 22.429C49.4802 22.4281 49.6607 22.4273 49.6747 22.4264C49.6975 22.4256 49.7143 22.4156 49.7248 22.3966C49.7782 22.2993 49.8076 22.1941 49.8131 22.0811C49.8135 22.0704 49.8162 22.0598 49.821 22.0503C49.8258 22.0408 49.8327 22.0324 49.841 22.0259C49.976 21.9201 50.1343 21.8439 50.3158 21.7974C50.3362 21.792 50.358 21.7948 50.3767 21.805C50.6391 21.951 50.9178 22.0168 51.2127 22.0024C51.316 21.9973 51.3941 22.0136 51.447 22.0513C51.6285 22.1795 51.7999 22.4067 51.6691 22.6257C51.6073 22.729 51.531 22.8075 51.44 22.8612C51.3862 22.8934 51.3809 22.9323 51.4241 22.978C51.5269 23.0864 51.6112 23.1682 51.6768 23.2237C51.7195 23.2601 51.777 23.3371 51.8494 23.4547C51.9463 23.6122 52.0699 23.7675 52.2201 23.9207C52.2353 23.9363 52.2506 23.9363 52.2658 23.9207C52.4567 23.7196 52.5836 23.5169 52.6467 23.3126C52.6704 23.2351 52.7205 23.2099 52.7971 23.237C52.9313 23.284 53.0601 23.3619 53.1837 23.4706C53.207 23.4909 53.2539 23.515 53.3246 23.543C53.3614 23.5574 53.4116 23.5495 53.475 23.5195C53.5948 23.4632 53.7399 23.4232 53.9105 23.3995C53.9312 23.3966 53.9509 23.3999 53.9695 23.4097C54.1466 23.5004 54.2901 23.602 54.4869 23.477C54.5046 23.4655 54.5239 23.4588 54.5446 23.4566C54.5971 23.4507 54.6394 23.4387 54.6716 23.4205C54.6895 23.4103 54.7029 23.3934 54.709 23.3735C54.7568 23.2161 54.7636 23.0468 54.7293 22.8657C54.727 22.8531 54.7295 22.8401 54.7363 22.8293C54.7432 22.8186 54.7539 22.8109 54.7662 22.8079C55.0019 22.747 55.212 22.6414 55.3965 22.4912C55.4134 22.4776 55.4324 22.47 55.4536 22.4683C55.8116 22.4442 56.0403 22.4499 56.1398 22.4855C56.3531 22.5616 56.567 22.635 56.7815 22.7057C56.9161 22.7501 57.0107 22.8638 57.1414 22.8625C57.4927 22.8583 57.7773 22.8746 57.9952 22.9114C58.0853 22.9266 58.1992 22.9774 58.3367 23.0637C58.3541 23.0745 58.3682 23.0899 58.3773 23.1082C58.4618 23.277 58.4884 23.4585 58.6484 23.5449C58.7436 23.5961 58.8367 23.631 58.9277 23.6496C59.0635 23.6769 59.0089 23.7785 59.0432 23.854C59.0946 23.9676 59.1962 23.9962 59.3174 23.9581C59.5339 23.8896 59.8367 23.7893 60.1255 23.788C60.1674 23.7876 60.2933 23.7823 60.5032 23.7721C60.6018 23.767 60.6798 23.7728 60.7374 23.7893C60.9291 23.8432 61.0916 23.8331 61.2401 23.9587C61.3607 24.0612 61.432 24.1339 61.454 24.1771C61.5044 24.2753 61.5649 24.4209 61.6356 24.6138C61.6859 24.7505 61.7932 24.8174 61.9574 24.8144C62.0518 24.8131 62.3112 24.8013 62.7356 24.7789C62.816 24.7742 62.9119 24.7945 63.0232 24.8398C63.1112 24.8753 63.1751 24.894 63.2149 24.8957C63.319 24.8999 63.3863 24.8954 63.4167 24.8823C63.6605 24.7738 63.8871 24.6982 64.0731 24.9617C64.1543 25.0764 64.2851 25.1483 64.4654 25.1775C64.4874 25.1813 64.4967 25.1722 64.4933 25.1502C64.4671 24.9924 64.4889 24.8337 64.5587 24.6741C64.6107 24.5554 64.6545 24.5129 64.7897 24.5167C65.0276 24.5231 65.2455 24.5402 65.4435 24.5681C65.6928 24.6028 65.8642 24.6212 65.9577 24.6233C66.2738 24.631 66.4966 24.6049 66.6801 24.6735C67.1314 24.8411 67.5072 24.9921 67.8461 25.2657C67.913 25.319 67.9549 25.3709 67.9718 25.4212C68.0416 25.6294 68.0397 25.8707 68.1845 26.0427C68.2498 26.1208 68.2994 26.1779 68.3171 26.2814C68.3865 26.6948 68.3901 27.1108 68.3279 27.5293C68.3032 27.6962 68.3082 27.8219 68.1216 27.8264C68.1081 27.8265 68.095 27.8308 68.0839 27.8386C68.0728 27.8464 68.0642 27.8574 68.0594 27.8702C67.9686 28.1019 67.9286 28.2783 67.7763 28.4142C67.6919 28.4891 67.5402 28.5735 67.4773 28.6662C67.3491 28.8553 67.4538 29.0572 67.5649 29.2381C67.6989 29.4564 67.7103 29.7142 67.6246 29.9541C67.6178 29.9734 67.6051 29.9902 67.5882 30.002C67.5714 30.0138 67.5513 30.0202 67.5307 30.0201H66.9746C66.9115 30.0201 66.8521 30.0347 66.7962 30.0639C66.5102 30.2112 66.2192 30.3661 65.9234 30.5286C65.7821 30.606 65.6556 30.697 65.5438 30.8015C65.3623 30.9712 65.2703 31.0571 65.2677 31.0592C64.9992 31.2706 64.8685 31.3296 64.7174 31.5188C64.7102 31.5276 64.7002 31.5338 64.6891 31.5362C64.678 31.5386 64.6665 31.5372 64.6564 31.5321L64.1804 31.2909C64.1538 31.2774 64.1245 31.2699 64.0948 31.2691C64.0651 31.2682 64.0355 31.2739 64.0083 31.2858C63.8401 31.3607 63.6764 31.5099 63.5056 31.5486C63.2246 31.6121 62.9881 31.632 62.7959 31.6083C62.7739 31.6058 62.7568 31.6138 62.7445 31.6324C62.6201 31.822 62.5592 32.0196 62.5617 32.2253C62.5664 32.5588 62.6023 32.9024 62.6696 33.2562C62.6794 33.3057 62.669 33.4491 62.6385 33.6865C62.6356 33.7085 62.6235 33.7227 62.6023 33.7291C62.4811 33.7665 62.3364 33.7976 62.2773 33.9176C62.2079 34.0589 62.2132 34.189 62.2932 34.308C62.3059 34.327 62.3082 34.3473 62.3002 34.3689C62.271 34.4463 62.235 34.4988 62.1923 34.5263C62.0103 34.6414 61.8846 34.7267 61.8152 34.7821C61.7989 34.7951 61.7859 34.8114 61.7771 34.8297C61.6523 35.0908 61.5457 35.2753 61.4572 35.3833C61.2541 35.6308 61.1754 35.8542 61.0084 36.1501C60.8849 36.3697 60.6985 36.4956 60.4492 36.5277C60.428 36.5307 60.4107 36.5239 60.3972 36.5074C60.2596 36.3398 60.1826 36.212 60.1661 36.124C60.1335 35.9526 60.0827 35.7 60.0138 35.3661C59.9592 35.1021 59.9266 34.8469 59.916 34.6006C59.894 34.0919 59.8826 33.7307 59.8817 33.517C59.8805 33.2244 60.0715 33.0251 60.1572 32.775C60.1915 32.6751 60.2425 32.5947 60.3102 32.5338C60.4452 32.4128 60.559 32.3144 60.6517 32.2386C60.8045 32.1142 60.9164 32.0146 60.9875 31.9397C61.1686 31.7492 61.3764 31.4769 61.6108 31.1227C61.6139 31.1179 61.6158 31.1125 61.6164 31.1068C61.6169 31.1012 61.6162 31.0955 61.6141 31.0903C61.612 31.0851 61.6087 31.0805 61.6045 31.077C61.6003 31.0735 61.5953 31.0711 61.5899 31.07L61.4528 31.0415C61.424 31.0355 61.4014 31.0438 61.3849 31.0662C61.3713 31.0844 61.3605 31.0954 61.3525 31.0992C61.3296 31.1106 61.3169 31.1039 61.3144 31.0789C61.308 31.0222 61.2746 30.8953 61.2141 30.6981C61.1824 30.5948 61.1297 30.5254 61.056 30.4898C60.9062 30.4175 60.7649 30.4399 60.632 30.5571C60.5038 30.6695 60.5184 30.8263 60.354 30.9221C60.1813 31.0237 60.0527 31.1748 59.9681 31.3753C59.9262 31.4725 59.956 31.5042 59.9731 31.6051C59.9879 31.6948 59.9759 31.7799 59.937 31.8603C59.9276 31.8798 59.9137 31.8948 59.8951 31.9054C59.788 31.9663 59.6342 32.0311 59.4336 32.0996C59.1547 32.1944 58.8972 32.19 58.6611 32.0863C58.6429 32.0782 58.6295 32.0651 58.6211 32.0469C58.5665 31.9295 58.5316 31.774 58.3697 31.8051C58.236 31.8309 58.1018 31.8563 57.9673 31.8813C57.7108 31.9282 57.3808 31.892 57.1459 31.9301C57.0503 31.9458 56.9487 31.939 56.8412 31.9098C56.6558 31.8599 56.4601 31.8417 56.254 31.8552C56.0325 31.8692 55.9417 32.1047 55.83 32.2462C55.8004 32.2839 55.7477 32.3237 55.672 32.3656C55.5924 32.4096 55.53 32.4754 55.4847 32.563C55.4056 32.7158 55.3647 32.7938 55.3622 32.7972C55.303 32.873 55.2348 32.9394 55.1578 32.9965C55.1527 33.0003 55.0899 33.0289 54.9693 33.0822C54.9003 33.1131 54.8487 33.1662 54.8144 33.2416C54.6498 33.6059 54.4103 33.8994 54.0958 34.122C54.0755 34.1364 54.0721 34.1539 54.0857 34.1747C54.098 34.1946 54.1174 34.2089 54.1441 34.2178C54.1539 34.2212 54.1628 34.2267 54.1704 34.2338C54.1779 34.2409 54.1839 34.2495 54.1879 34.2591C54.2399 34.3877 54.2708 34.4631 54.2806 34.4851C54.3263 34.5875 54.3952 34.6135 54.4875 34.5631C54.6068 34.4978 54.6824 34.4413 54.8074 34.4432C54.9699 34.4466 55.1404 34.4654 55.319 34.4997C55.3392 34.5034 55.3577 34.5136 55.3717 34.5289C55.4652 34.6317 55.5294 34.744 55.5641 34.8659C55.569 34.8835 55.5796 34.8988 55.5942 34.9092C55.6087 34.9195 55.6261 34.9242 55.6434 34.9224L56.0865 34.8767C56.1097 34.8742 56.126 34.8837 56.1353 34.9053C56.1785 35.0047 56.2164 35.1073 56.249 35.2131C56.2718 35.288 56.2758 35.394 56.261 35.5312C56.2352 35.7732 56.2373 35.9399 56.2674 36.0314C56.3275 36.215 56.4299 36.4814 56.5746 36.8305C56.647 37.0063 56.5917 37.2279 56.5975 37.3752C56.5983 37.3972 56.5877 37.4079 56.5657 37.4075C56.4675 37.4046 56.3816 37.3823 56.308 37.3409C56.2894 37.3303 56.2752 37.3345 56.2655 37.3536C56.144 37.5825 56.1083 37.8406 56.1582 38.128C56.1667 38.1779 56.1986 38.2484 56.254 38.3394C56.315 38.4401 56.3285 38.5533 56.2947 38.679C56.2892 38.6997 56.276 38.7134 56.2553 38.7202C56.2088 38.735 56.1711 38.7416 56.1423 38.7399C56.086 38.7378 56.0518 38.764 56.0395 38.8186C56.0128 38.9363 55.9637 39.0016 55.8922 39.0147C55.8856 39.016 55.8795 39.0191 55.8744 39.0236C55.8694 39.0281 55.8657 39.0339 55.8637 39.0403C55.8617 39.0467 55.8614 39.0536 55.863 39.0602C55.8645 39.0667 55.8679 39.0728 55.8725 39.0776C55.98 39.1885 56.1178 39.3357 56.2858 39.5194C56.4398 39.6878 56.6347 39.7534 56.8704 39.7162C56.8833 39.7141 56.8965 39.7154 56.9087 39.7199C56.921 39.7244 56.9319 39.732 56.9406 39.742C56.9492 39.752 56.9553 39.764 56.9582 39.777C56.9612 39.79 56.9609 39.8036 56.9574 39.8165L56.9193 39.9561C56.9165 39.9656 56.9159 39.9756 56.9174 39.9854C56.9189 39.9952 56.9226 40.0045 56.9282 40.0126C57.0026 40.1226 57.0151 40.2236 56.9656 40.3154C56.9381 40.3666 56.8693 40.4203 56.7593 40.4766C56.5617 40.5773 56.3719 40.7199 56.1899 40.9044C56.1751 40.9197 56.1599 40.9201 56.1442 40.9057C56.035 40.8042 55.8893 40.7582 55.7069 40.768C55.629 40.7718 55.5983 40.8118 55.6148 40.8879C55.6792 41.1795 55.7536 41.4023 55.8383 41.5564C55.8967 41.6621 55.9244 41.7571 55.9214 41.8414C55.9176 41.9463 55.9149 42.0472 55.9132 42.1441C55.9123 42.2097 55.8804 42.3166 55.8173 42.4647C55.7653 42.587 55.7287 42.6938 55.7075 42.7853C55.6656 42.9685 55.632 43.1001 55.6066 43.1801C55.5566 43.3358 55.5302 43.4539 55.5272 43.5343C55.5251 43.5808 55.5167 43.7029 55.5018 43.9005C55.4995 43.9309 55.4891 43.9601 55.4717 43.9851C55.4543 44.0101 55.4305 44.03 55.4028 44.0427C54.8743 44.2827 54.5089 44.4481 54.3066 44.5391C54.1244 44.6204 54.0343 44.7067 53.8908 44.8114C53.873 44.8241 53.8534 44.8303 53.8318 44.8298C53.6549 44.8273 53.4782 44.8749 53.3017 44.9727C53.2826 44.9831 53.2615 44.989 53.2402 44.9898C53.1407 44.9945 53.0531 45.0433 52.9774 45.1364C52.9695 45.1462 52.9593 45.1537 52.9477 45.1584C52.9361 45.1631 52.9234 45.1648 52.911 45.1632C52.8985 45.1617 52.8866 45.1571 52.8763 45.1497C52.8661 45.1424 52.8578 45.1326 52.8523 45.1212C52.8181 45.0484 52.7853 44.9902 52.7539 44.9466C52.7061 44.8789 52.6879 44.8861 52.6994 44.9682C52.729 45.1857 52.6799 45.4178 52.5521 45.6646C52.484 45.7953 52.3856 45.8618 52.2569 45.8639C52.0652 45.867 51.9827 45.6525 51.9979 45.5021C52.0125 45.3592 52.0329 45.2881 51.9618 45.1878C51.8843 45.0787 51.8337 45.0059 51.81 44.9695C51.7944 44.9453 51.7882 44.9161 51.7928 44.8877C51.7974 44.8594 51.8124 44.8337 51.8348 44.8159C52.102 44.6007 52.295 44.4604 52.474 44.1843C52.554 44.0607 52.6289 43.9369 52.6987 43.8129C52.7135 43.7867 52.736 43.7717 52.766 43.7679C52.8752 43.7548 52.9846 43.7446 53.0942 43.7374C53.2106 43.7302 53.3161 43.711 53.4109 43.6796C53.6756 43.594 53.8965 43.5362 54.0266 43.2893C54.08 43.1881 54.1221 43.0847 54.153 42.9789C54.1574 42.964 54.1674 42.9513 54.1808 42.9435C54.1943 42.9358 54.2102 42.9334 54.2253 42.937C54.3586 42.9674 54.4809 42.9528 54.5922 42.8932C54.6705 42.8517 54.7475 42.7673 54.8233 42.6399C54.9206 42.477 54.9993 42.3581 55.0594 42.2832C55.0721 42.2668 55.0786 42.2465 55.0778 42.226C55.0647 41.9514 55.0816 41.67 55.1286 41.3818C55.1832 41.0473 54.9959 40.5737 55.194 40.3059C55.2778 40.1922 55.4003 40.1027 55.4638 40.0012C55.5894 39.8002 55.6574 39.5733 55.6675 39.3207C55.6709 39.239 55.6912 39.1478 55.7285 39.0471C55.7361 39.0268 55.735 39.0069 55.7253 38.9875C55.6993 38.9354 55.6529 38.891 55.6339 38.8402C55.5894 38.7187 55.5784 38.607 55.6009 38.505C55.6821 38.135 55.6859 37.8804 55.672 37.5275C55.6599 37.2298 55.7621 36.8375 55.7748 36.5836C55.7799 36.4816 55.7481 36.3642 55.6796 36.2313C55.6677 36.2085 55.6544 36.2074 55.6396 36.2281C55.5698 36.3263 55.5306 36.4139 55.5222 36.4909C55.4993 36.705 55.4883 36.9355 55.4892 37.1822C55.4896 37.2782 55.4758 37.3711 55.4479 37.4608C55.4043 37.6005 55.3728 37.6908 55.3533 37.7319C55.2936 37.8571 55.1917 38.0309 55.0474 38.253C54.9653 38.3787 54.8829 38.5334 54.8004 38.717C54.6841 38.9752 54.5279 39.2219 54.332 39.4572C54.0738 39.7665 53.8953 40.0221 53.7962 40.224C53.7404 40.3382 53.6712 40.418 53.5887 40.4633C53.4185 40.5564 53.2984 40.6067 53.2281 40.6144C53.1693 40.6211 53.047 40.6131 52.8612 40.5902C52.7207 40.5733 52.6183 40.5835 52.554 40.6207C52.4723 40.6681 52.3993 40.7187 52.335 40.7724C52.2914 40.8088 52.2535 40.8835 52.2214 40.9965C52.1507 41.244 52.1058 41.3837 52.0868 41.4154C51.9857 41.5826 51.835 41.7555 51.6349 41.934C51.5629 41.9988 51.5595 42.0879 51.6247 42.2013C51.934 42.7425 52.0544 43.3316 51.9859 43.9685C51.9732 44.087 51.9226 44.1629 51.8342 44.1963C51.5811 44.2928 51.3549 44.3785 51.1556 44.4534C51.0942 44.4767 51.0066 44.4727 50.8928 44.4414C50.8721 44.4354 50.8571 44.423 50.8477 44.4039C50.7874 44.2839 50.7392 44.1633 50.7392 44.0186C50.7396 43.8024 50.7398 43.6187 50.7398 43.4676C50.7398 43.2563 50.6973 43.1236 50.5107 43.0423C50.4883 43.0326 50.4705 43.0174 50.4574 42.9966C50.3219 42.7821 50.2843 42.5523 50.3444 42.3073C50.3494 42.287 50.3448 42.269 50.3304 42.2533C50.2538 42.1704 50.1738 42.1166 50.0905 42.0921C50.0803 42.0891 50.0695 42.0883 50.0589 42.0897C50.0483 42.0911 50.0381 42.0947 50.0289 42.1003C49.9286 42.1626 49.8315 42.2889 49.721 42.3396C49.5934 42.3987 49.2748 42.438 49.2469 42.2114C49.2384 42.1412 49.2077 42.0352 49.1548 41.8934C49.1442 41.8651 49.1301 41.8619 49.1123 41.8839L49.0698 41.9378C49.0554 41.956 49.0384 41.9702 49.019 41.9804C48.8374 42.076 48.691 42.2398 48.5797 42.4717C48.57 42.4928 48.5723 42.5102 48.5867 42.5237L48.7283 42.6526C48.7439 42.667 48.7608 42.6735 48.779 42.6723C49.0033 42.6549 49.1354 42.6416 49.1751 42.6323C49.2771 42.6082 49.3618 42.6192 49.429 42.6653C49.5746 42.7639 49.6616 42.8327 49.6899 42.8716C49.7809 42.996 49.7892 43.1481 49.7147 43.328C49.7062 43.3474 49.6927 43.362 49.6741 43.3718C49.5619 43.4289 49.4204 43.5135 49.2494 43.6257C49.1749 43.6744 49.1231 43.7452 49.0939 43.8383C49.049 43.9818 49.0291 44.0719 49.0342 44.1087C49.0643 44.3246 49.1305 44.5224 49.2329 44.7022C49.3658 44.9354 49.4356 45.059 49.4424 45.073C49.5058 45.2067 49.5676 45.3415 49.6277 45.4773C49.6362 45.4963 49.6391 45.5164 49.6366 45.5376C49.6112 45.7712 49.5903 45.9934 49.5998 46.2174C49.6104 46.4544 49.6006 46.6605 49.5706 46.8357C49.5312 47.0638 49.4767 47.2252 49.4068 47.32C49.3582 47.386 49.3055 47.4643 49.2488 47.5549C49.2196 47.601 49.1643 47.6772 49.0831 47.7834C48.9443 47.9637 48.8666 48.178 48.8501 48.4264C48.848 48.4573 48.8269 48.5066 48.7867 48.5743C48.7642 48.612 48.7293 48.6511 48.6819 48.6917C48.4987 48.8479 48.3705 48.9736 48.2973 49.0688C48.1709 49.2326 48.0941 49.3284 47.9151 49.4173C47.5889 49.5785 47.2835 49.7006 46.9992 49.7835C46.9662 49.7929 46.9099 49.8284 46.8303 49.8902C46.7059 49.9867 46.5402 50.0076 46.3904 50.0482C46.2668 50.0821 46.1371 50.1875 46.0013 50.3644C45.9878 50.3826 45.9903 50.398 46.0089 50.4107C46.0694 50.4522 46.0957 50.5163 46.0876 50.603C46.0724 50.771 46.0644 50.8633 46.0635 50.8798C46.0572 50.9729 46.0256 51.0558 45.9689 51.1286C45.8115 51.3279 45.5405 51.4892 45.3126 51.2683C45.2453 51.2031 45.2146 51.1119 45.2205 50.9947C45.2341 50.731 45.3778 50.5512 45.6516 50.4551C45.7146 50.4331 45.7155 50.4092 45.6541 50.3834C45.547 50.3381 45.4647 50.2662 45.4072 50.1676C45.4024 50.1594 45.396 50.1524 45.3883 50.1468C45.3807 50.1412 45.372 50.1373 45.3628 50.1352C45.3536 50.1331 45.344 50.1329 45.3347 50.1347C45.3254 50.1364 45.3166 50.1401 45.3088 50.1454C45.2002 50.2203 45.0834 50.2818 45.0104 50.3758C44.9004 50.518 44.801 50.6265 44.7121 50.7014C44.6956 50.7158 44.6873 50.734 44.6873 50.756C44.6878 50.9938 44.7278 51.1671 44.8073 51.2759C44.9338 51.4485 45.1501 51.7511 45.456 52.1836C45.481 52.2191 45.5386 52.3654 45.6287 52.6222C45.6858 52.7839 45.7133 52.9375 45.7112 53.0831C45.707 53.3818 45.704 53.6082 45.7023 53.7623C45.7011 53.9087 45.6712 54.0286 45.6128 54.1222C45.5434 54.2335 45.459 54.3312 45.3596 54.4154C45.1306 54.6092 44.9451 54.8037 44.8029 54.9988C44.7724 55.0403 44.6702 55.1249 44.4963 55.2527C44.4396 55.2946 44.3852 55.3094 44.3331 55.2971C44.1573 55.2552 44.0507 55.2171 43.9847 55.0458C43.9561 54.9728 43.8894 54.821 43.8171 54.7411C43.6652 54.5722 43.5242 54.4224 43.3943 54.2917C43.2312 54.1273 43.242 53.8403 42.9893 53.7445C42.9723 53.738 42.9541 53.735 42.9358 53.7356C42.9176 53.7363 42.8997 53.7407 42.8831 53.7484C42.8665 53.7562 42.8516 53.7672 42.8394 53.7808C42.8271 53.7944 42.8177 53.8103 42.8116 53.8276C42.7447 54.0223 42.6821 54.232 42.6237 54.4567C42.6072 54.5214 42.6026 54.5917 42.6098 54.6674C42.6144 54.7131 42.636 54.7785 42.6745 54.8636C42.7524 55.0341 42.8222 55.247 42.884 55.5022C42.9119 55.6151 42.9868 55.7376 43.122 55.7891C43.1982 55.8178 43.2682 55.8788 43.3321 55.9719C43.3833 56.0468 43.444 56.1122 43.5143 56.168C43.6286 56.2594 43.7259 56.4283 43.8063 56.6746C43.8253 56.7338 43.8253 56.8259 43.8063 56.9507C43.7796 57.1272 43.8194 57.3218 43.9256 57.5347C44.0098 57.7031 44.0314 57.9001 43.9904 58.1256C43.9866 58.1468 43.9741 58.157 43.9529 58.1561C43.8023 58.151 43.6611 58.1271 43.5295 58.0844C43.3835 58.0361 43.2077 57.84 43.0706 57.7257C43.0027 57.6699 42.9405 57.5163 42.9106 57.3906C42.8878 57.2949 42.8541 57.204 42.8097 57.1176C42.7534 57.0076 42.7166 56.9198 42.6993 56.8542C42.6396 56.6346 42.5996 56.3007 42.5164 56.1299C42.4509 55.9949 42.384 55.8629 42.3159 55.7338C42.257 55.6238 42.1832 55.5235 42.0943 55.433C42.0296 55.3676 41.9902 55.2343 41.9909 55.1194C41.9917 54.6539 42.0002 54.2897 42.0163 54.027C42.0268 53.8509 42.0201 53.6948 41.9959 53.5585C41.9579 53.341 41.9196 53.1876 41.881 53.0983C41.84 53.0035 41.8146 52.895 41.8049 52.7727C41.7994 52.7071 41.7856 52.5953 41.7636 52.4375C41.7526 52.3596 41.7285 52.3065 41.6912 52.2782C41.6384 52.2375 41.5698 52.2356 41.4856 52.2725C41.417 52.3021 41.2954 52.3535 41.1206 52.4267C41.097 52.4366 41.0713 52.4407 41.0457 52.4388C41.0202 52.437 40.9954 52.4291 40.9733 52.4159C40.8959 52.3702 40.8132 52.3036 40.7251 52.216C40.6676 52.1588 40.6437 52.0759 40.6534 51.9671C40.6826 51.6574 40.6947 51.3933 40.548 51.1216C40.4795 50.9943 40.4365 50.8516 40.4192 50.6938C40.4166 50.6714 40.4075 50.6523 40.3919 50.6367C40.3144 50.5605 40.1976 50.5624 40.0878 50.4919C40.0696 50.4805 40.0584 50.4642 40.0542 50.4431C40.0233 50.278 39.9516 50.1121 39.839 49.9454C39.8293 49.931 39.8159 49.9257 39.799 49.9295C39.5235 49.9884 39.2455 50.0394 38.9649 50.0825C38.8348 50.1028 38.7447 50.3066 38.6793 50.4437C38.6446 50.5169 38.5961 50.58 38.5339 50.6329C38.316 50.8186 38.0426 51.091 37.7138 51.4498C37.4332 51.7558 37.2551 51.9841 37.1793 52.1347C37.1362 52.221 37.0759 52.2318 36.9794 52.2541C36.8825 52.2773 36.8 52.3376 36.7318 52.435C36.692 52.4912 36.6573 52.5907 36.6277 52.7333C36.6074 52.8332 36.6006 52.9362 36.6074 53.0424C36.6188 53.2236 36.6254 53.3514 36.6271 53.4258C36.6309 53.5752 36.6112 53.7026 36.5681 53.808C36.5266 53.9083 36.501 54.0035 36.4912 54.0936C36.4853 54.1486 36.4676 54.3177 36.4379 54.6008C36.4358 54.6215 36.443 54.6387 36.4595 54.6522C36.6478 54.802 36.7727 54.9956 36.834 55.233C36.8658 55.3562 36.9045 55.4393 36.9635 55.5548C37.0479 55.7211 37.0022 56.0062 36.9591 56.1801C36.954 56.2 36.9426 56.215 36.9248 56.2251C36.8012 56.2958 36.6787 56.3295 36.5573 56.3261C36.4519 56.3231 36.3791 56.2865 36.3389 56.2163C36.305 56.1583 36.2638 56.0565 36.2151 55.9109C36.1948 55.8508 36.1863 55.7461 36.1897 55.5967C36.1923 55.4719 36.1876 55.3585 36.1758 55.2565C36.1648 55.1647 36.1244 55.1492 36.0545 55.2102C35.9587 55.2927 35.9308 55.4171 35.8025 55.4723C35.6113 55.554 35.41 55.5464 35.1989 55.4495C35.1897 55.4453 35.1816 55.4391 35.175 55.4315C35.1684 55.4238 35.1636 55.4148 35.1608 55.405C35.0812 55.1435 35.0249 54.9235 34.9919 54.7449C34.9424 54.4745 34.8148 54.2866 34.7336 54.0251C34.7057 53.9362 34.6602 53.841 34.5971 53.7394C34.5857 53.7212 34.5793 53.7015 34.5781 53.6804C34.5666 53.4836 34.5355 53.3302 34.4848 53.2202C34.3633 52.9574 34.278 52.7075 34.2289 52.4705C34.1966 52.3144 34.0836 52.2064 34.0639 52.0585C34.0423 51.8982 34.0296 51.7484 34.0258 51.6091C34.0241 51.5406 34.014 51.4752 33.9954 51.413C33.9725 51.3387 33.942 51.2397 33.9389 51.154C33.9295 50.8612 33.9188 50.6324 33.9065 50.4678C33.901 50.3929 33.861 50.3593 33.7865 50.3669L33.3733 50.4088C33.3513 50.4113 33.3295 50.4075 33.3079 50.3974C33.1488 50.3212 33.0132 50.2177 32.901 50.087C32.7544 49.9162 32.7722 49.6553 32.6376 49.4681C32.5221 49.3075 32.4097 49.1361 32.2783 49.0123C32.1467 48.8887 32.0369 48.7491 31.9489 48.5934C31.926 48.5536 31.8917 48.5343 31.846 48.5356C31.7957 48.5369 31.3634 48.5544 30.5492 48.5883C30.4178 48.594 30.2388 48.5718 30.0865 48.5318C29.7648 48.4476 29.4904 48.4095 29.2632 48.4175C29.2533 48.4179 29.2435 48.415 29.2352 48.4093L29.1388 48.342C29.1151 48.3255 29.0981 48.3306 29.088 48.3572C29.0677 48.4106 29.0636 48.4702 29.0759 48.5362C29.0835 48.5798 29.1197 48.6213 29.1845 48.6606C29.4032 48.7935 29.5765 48.8934 29.7043 48.9603C29.7657 48.992 29.8277 49.061 29.8903 49.1672C29.9843 49.3263 30.0315 49.4063 30.0319 49.4071C30.1309 49.5895 30.1123 49.7814 29.976 49.9829C29.7919 50.255 29.6411 50.4733 29.5234 50.6379C29.4542 50.7344 29.4561 50.876 29.4098 50.9737C29.307 51.1908 29.1273 51.3482 28.8709 51.446C28.8017 51.4727 28.7547 51.4955 28.7274 51.5736C28.6163 51.8941 28.5148 51.9214 28.1885 51.9176C28.1445 51.9168 28.0806 51.954 27.9968 52.0294C27.9333 52.0865 27.8324 52.1798 27.694 52.3093C27.6631 52.3385 27.6322 52.3835 27.6014 52.4445C27.5245 52.5975 27.3246 52.654 27.1221 52.7352C27.0074 52.7809 26.8906 52.8438 26.7717 52.9237C26.6405 53.0122 26.4873 53.0822 26.3121 53.1338C26.1998 53.1669 26.109 53.269 25.9935 53.3008C25.8551 53.3389 25.7301 53.3706 25.6107 53.4512C25.3917 53.5998 25.0553 53.7496 24.8401 53.5077C24.7513 53.4074 24.7436 53.217 24.6821 53.085C24.6427 52.9999 24.6002 52.9314 24.5919 52.8317C24.5822 52.7111 24.579 52.5496 24.5824 52.3474C24.5843 52.2198 24.5583 52.0941 24.4859 51.9576C24.3395 51.6809 24.2447 51.5082 24.2016 51.4397C24.1245 51.3169 24.0663 51.2014 24.027 51.0931C23.9961 51.0076 23.9538 50.8847 23.9 50.7243C23.8933 50.7048 23.8818 50.6885 23.8658 50.6754C23.7655 50.5954 23.6696 50.5751 23.5934 50.4361C23.5359 50.3307 23.4766 50.2137 23.4157 50.0851C23.3768 50.0034 23.3535 49.8938 23.3459 49.7563C23.334 49.5425 23.2744 49.3153 23.1669 49.0745C23.158 49.0542 23.1428 49.0413 23.1212 49.0358C22.979 48.9998 22.8734 48.9156 22.8044 48.7832C22.7257 48.6321 22.6599 48.4876 22.607 48.3496C22.5414 48.1786 22.4765 48.0333 22.4121 47.9135C22.2615 47.6317 22.176 47.4675 22.1557 47.421C22.1468 47.4015 22.1322 47.3879 22.1119 47.3803C22.0059 47.3416 21.917 47.3778 21.8269 47.2813C21.6995 47.145 21.563 46.9392 21.4175 46.6637C21.2376 46.323 21.1705 46.0372 21.2162 45.8061C21.2205 45.7841 21.2336 45.7699 21.2556 45.7636L21.7114 45.6315C21.7351 45.6248 21.7567 45.612 21.7742 45.5945C21.7918 45.5769 21.8047 45.5552 21.8117 45.5313C21.9386 45.0996 22.0734 44.6896 22.216 44.3011C22.2634 44.172 22.2816 44.0749 22.2706 44.0097C22.2571 43.9314 22.2321 43.8337 22.1957 43.7165C22.1758 43.6526 22.1508 43.6504 22.1208 43.7101L21.8098 44.3233C21.7993 44.3441 21.7832 44.3616 21.7634 44.3738C21.7435 44.386 21.7207 44.3925 21.6974 44.3925C21.4972 44.3925 21.3665 44.3013 21.3051 44.1189C21.2971 44.0952 21.2986 44.0721 21.3096 44.0497L21.3578 43.9558C21.3692 43.9333 21.3671 43.912 21.3515 43.8917C21.2677 43.7808 21.1646 43.6976 21.0423 43.6422C21.0233 43.6333 21.0034 43.6316 20.9827 43.6371C20.7376 43.7044 20.5447 43.7596 20.3257 43.6752C20.1403 43.6037 19.9634 43.5051 19.795 43.3794C19.6981 43.3075 19.6253 43.2203 19.5766 43.1179C19.4742 42.9021 19.4015 42.6757 19.3583 42.4387C19.3409 42.3435 19.3113 42.229 19.2694 42.0953C19.2491 42.0314 19.2224 41.9175 19.1894 41.7538C19.1827 41.7212 19.1748 41.6945 19.166 41.6738C19.1578 41.6547 19.145 41.6379 19.1286 41.6252C19.1123 41.6124 19.0931 41.604 19.0728 41.6008C19.0525 41.5976 19.0318 41.5997 19.0128 41.6069C18.9937 41.6142 18.977 41.6263 18.9641 41.642L18.6746 42.0001C18.6621 42.0155 18.6535 42.0338 18.6495 42.0532C18.6455 42.0727 18.6463 42.0928 18.6518 42.1118L18.8498 42.7954C18.8566 42.8183 18.8505 42.8369 18.8314 42.8513C18.6588 42.9825 18.4997 43.1428 18.3541 43.3324C18.316 43.3819 18.2671 43.3974 18.2075 43.3788C18.0966 43.3445 18.0045 43.2825 17.9313 43.1928C17.8839 43.1344 17.7724 42.905 17.5968 42.5047C17.5879 42.4852 17.5742 42.4704 17.5556 42.4603C17.4561 42.4074 17.3816 42.3361 17.3321 42.2463C17.2551 42.1088 17.2111 42.0352 17.2001 42.0254C17.1074 41.9442 17.0075 41.9283 16.9005 41.9778C16.7177 42.0629 16.7888 42.2978 16.7246 42.3936C16.5922 42.5912 16.3931 42.7383 16.1273 42.8348C16.1074 42.842 16.0943 42.8557 16.088 42.876C16.0664 42.9446 16.0486 43.0398 16.0347 43.1617C16.03 43.2044 15.9894 43.2618 15.9128 43.3337C15.8971 43.3485 15.8785 43.3553 15.8569 43.354C15.5091 43.3337 15.3523 43.189 15.1485 42.9579C15.0419 42.8369 15.0523 42.7207 15.1796 42.6094C15.3136 42.4926 15.3935 42.5079 15.5725 42.5485C15.7025 42.5777 15.8315 42.5749 15.9598 42.5402C15.9801 42.5352 15.9932 42.5225 15.9991 42.5021C16.0292 42.3968 16.0336 42.2863 16.0124 42.1708C15.9902 42.0489 15.8779 42.0102 15.8036 41.929C15.5713 41.6742 15.4145 41.524 15.3332 41.4783C15.0624 41.3259 14.8354 41.1249 14.6521 40.8752C14.6208 40.8321 14.5836 40.7955 14.5404 40.7654C14.3652 40.641 14.2637 40.4195 14.1926 40.2208C14.1488 40.0996 14.0999 40.0589 13.9958 40.012C13.9759 40.0027 13.9566 40.0037 13.938 40.0151C13.6845 40.1683 13.4734 40.3389 13.3045 40.5268C13.2901 40.5424 13.2726 40.5509 13.2518 40.5522C13.0513 40.5655 12.838 40.5001 12.6018 40.4404C12.5079 40.4167 12.4461 40.4533 12.4165 40.5502C12.3898 40.6383 12.3767 40.718 12.3771 40.7896C12.3771 40.8827 12.3598 40.9569 12.3251 41.0124C12.2303 41.1634 12.1395 41.2673 12.0528 41.324C11.9495 41.3917 11.7834 41.4969 11.5545 41.6395C11.5151 41.6641 11.4855 41.7018 11.4707 41.7461C11.4165 41.9112 11.3789 42.1058 11.3577 42.3301C11.3484 42.4262 11.3148 42.5436 11.2568 42.6824C11.1558 42.9249 10.9362 43.1604 10.7528 43.3413C10.6372 43.4549 10.5033 43.5032 10.3224 43.5146C10.0782 43.5294 9.83829 43.6274 9.60258 43.8085C9.50144 43.8859 9.40855 43.9005 9.32391 43.8523C9.30572 43.8421 9.2397 43.7907 9.12587 43.698C9.02981 43.6193 8.95279 43.5235 8.89481 43.4105C8.88731 43.3963 8.87613 43.3844 8.86248 43.3761C8.84883 43.3679 8.83323 43.3635 8.81737 43.3635H8.32416C8.30004 43.3635 8.28311 43.3525 8.27338 43.3305C8.23148 43.2385 8.17562 43.128 8.16229 43.0087C8.14029 42.814 8.11067 42.6382 8.07343 42.4812C8.04338 42.3534 8.04232 42.2095 8.07025 42.0496C8.13415 41.6814 8.16504 41.3642 8.16293 41.098C8.15997 40.7532 8.15573 40.5094 8.15023 40.3668C8.14346 40.1747 8.20334 40.0316 8.32987 39.9377C8.40562 39.881 8.53998 39.8469 8.73295 39.8355C9.15232 39.811 9.41553 39.8065 9.5226 39.8222C9.80909 39.8649 10.1083 39.8787 10.4202 39.8634C10.4294 39.8629 10.4383 39.8595 10.4454 39.8538C10.4526 39.8481 10.4578 39.8404 10.4601 39.8317C10.5042 39.6734 10.549 39.5156 10.5947 39.3582C10.6332 39.2265 10.6188 39.0871 10.5516 38.9398C10.5219 38.8751 10.4364 38.7509 10.2951 38.5672C10.2236 38.4737 10.1335 38.3925 10.0247 38.3235C9.86029 38.22 9.67684 38.1388 9.62289 37.9769C9.56364 37.7987 9.54904 37.6219 9.57909 37.4462C9.58248 37.4251 9.59411 37.4101 9.614 37.4012C9.80401 37.3161 10.0031 37.26 10.2113 37.233C10.2995 37.2215 10.3319 37.2476 10.4024 37.2901C10.4235 37.3028 10.4335 37.2969 10.4322 37.2723C10.425 37.1255 10.4532 36.9985 10.5166 36.8915C10.5216 36.8833 10.5299 36.8768 10.5401 36.8731L10.7699 36.7969C10.7936 36.7893 10.816 36.7912 10.8372 36.8026C10.9239 36.8487 10.9883 36.8633 11.0302 36.8464C11.1575 36.7939 11.2858 36.7131 11.4148 36.6039C11.433 36.5887 11.4299 36.5819 11.4053 36.5836C11.3272 36.5893 11.2485 36.6312 11.14 36.6045C11.0371 36.5792 10.9527 36.5525 10.8664 36.576C10.7445 36.6094 10.6064 36.6365 10.4519 36.6572C10.3753 36.6674 10.2191 36.711 9.98344 36.788C9.81332 36.8439 9.6542 36.8857 9.50609 36.9137C9.48433 36.9178 9.46191 36.9168 9.44059 36.9107C9.41927 36.9047 9.39963 36.8938 9.38322 36.8788C9.3668 36.8639 9.35405 36.8453 9.34596 36.8246C9.33788 36.8039 9.33468 36.7816 9.33661 36.7594C9.34994 36.6147 9.46928 36.4313 9.57147 36.277C9.5829 36.2597 9.59898 36.2487 9.61972 36.244C9.65188 36.2372 9.67515 36.2235 9.68954 36.2027C9.70181 36.1841 9.70033 36.1668 9.6851 36.1507C9.592 36.0546 9.53106 35.9429 9.50228 35.8155C9.50033 35.8068 9.50087 35.7974 9.50386 35.7882C9.50686 35.779 9.51221 35.7703 9.51942 35.7628L9.73143 35.5515C9.73272 35.5502 9.73414 35.5465 9.7355 35.5407C9.73687 35.5349 9.73811 35.5273 9.73905 35.5191L9.77968 35.1643C9.78179 35.1431 9.79195 35.1272 9.81014 35.1167L10.0825 34.9599C10.099 34.9503 10.1118 34.9355 10.1189 34.9178C10.1261 34.9 10.1271 34.8805 10.1218 34.8621C10.0767 34.7041 9.9682 34.4083 9.77587 34.3841C9.68065 34.3719 9.61506 34.3602 9.57909 34.3492C9.55793 34.3429 9.54354 34.3503 9.53593 34.3714C9.45002 34.6135 9.40665 34.8316 9.4058 35.0259C9.40538 35.1245 9.39226 35.2275 9.36644 35.335C9.3292 35.4916 9.3072 35.5938 9.30043 35.6416C9.29408 35.6869 9.27588 35.7212 9.24584 35.7444C9.18871 35.7889 9.15507 35.8128 9.14491 35.8162C8.94348 35.8801 8.75897 35.9622 8.5914 36.0625C8.47121 36.1344 8.37663 36.1729 8.30765 36.178C8.16483 36.1888 8.00805 36.164 7.91981 36.0491C7.71098 35.7749 7.98202 35.5705 8.03153 35.3128C8.03576 35.2921 8.03301 35.2722 8.02328 35.2531C7.91876 35.0466 7.90373 34.8139 7.97821 34.5549C7.98456 34.5337 7.99725 34.5181 8.0163 34.5079C8.08104 34.4724 8.14918 34.4328 8.22069 34.3892C8.40287 34.2788 8.48348 33.9849 8.70121 33.9315C9.03594 33.8495 9.30022 33.9453 9.49403 34.2191C9.49869 34.225 9.50144 34.2235 9.50228 34.2147L9.54037 33.9062C9.54135 33.8991 9.54151 33.8925 9.54085 33.8869C9.54018 33.8814 9.53871 33.8771 9.53656 33.8744C9.45023 33.7644 9.36919 33.63 9.29345 33.4713C9.25324 33.3871 9.23864 33.2845 9.24965 33.1635C9.25853 33.0687 9.2689 32.9627 9.28075 32.8455C9.29514 32.7041 9.32772 32.5818 9.3785 32.4786C9.40813 32.4176 9.45806 32.2994 9.52831 32.1237C9.5338 32.1101 9.54307 32.0984 9.555 32.0899C9.56694 32.0815 9.58104 32.0767 9.59559 32.0761C9.72445 32.0698 10.0253 32.0234 10.2088 32.0907C10.2182 32.0943 10.2268 32.0999 10.2337 32.1071C10.2406 32.1144 10.2458 32.1231 10.2488 32.1326C10.2805 32.2308 10.2602 32.3351 10.1878 32.4456C10.1851 32.4497 10.1833 32.4543 10.1825 32.4592C10.1817 32.4641 10.182 32.4691 10.1834 32.4739C10.1847 32.4787 10.187 32.4832 10.1902 32.487C10.1934 32.4909 10.1973 32.4941 10.2018 32.4963L10.5541 32.6753C10.571 32.6838 10.5795 32.6973 10.5795 32.716V33.232C10.5795 33.2612 10.571 33.2877 10.5541 33.3114L10.4474 33.4637C10.4371 33.4787 10.4325 33.4968 10.4345 33.5148C10.4365 33.5328 10.4449 33.5494 10.4582 33.5615C10.6004 33.6901 10.6931 33.8109 10.7363 33.9239C10.7777 34.0327 10.8289 34.1218 10.8899 34.1912C10.9881 34.3025 11.0773 34.4673 11.1578 34.6856C11.2051 34.8143 11.2564 34.9137 11.3114 34.984C11.432 35.1395 11.597 35.2296 11.7144 35.4105C11.849 35.6179 11.827 35.7914 11.6484 35.9311C11.6302 35.9454 11.6247 35.9636 11.6319 35.9856C11.6503 36.0434 11.7119 36.0771 11.7741 36.058C11.9595 36.0022 12.0873 35.9198 12.1575 35.8111C12.3073 35.5788 12.4233 35.4103 12.5054 35.3058C12.7085 35.0451 12.9601 34.8596 13.2601 34.7491C13.3016 34.7335 13.3473 34.7246 13.3972 34.7225C13.4416 34.7199 13.5261 34.7326 13.5819 34.6977C13.6437 34.6584 13.6725 34.5959 13.6683 34.5105C13.6632 34.4131 13.6522 34.1647 13.6352 33.7652C13.6242 33.5079 13.6382 33.2697 13.6771 33.0505C13.6877 32.9904 13.7129 32.9377 13.7527 32.8924C13.7793 32.8615 13.8263 32.8317 13.8936 32.8029C13.9973 32.7585 14.0768 32.6887 14.1323 32.5935C14.1377 32.5844 14.1453 32.5768 14.1544 32.5716C14.1635 32.5664 14.1738 32.5636 14.1843 32.5636H14.4401C14.4565 32.5636 14.4726 32.5668 14.4877 32.5731C14.5028 32.5793 14.5165 32.5885 14.5281 32.6001C14.5397 32.6116 14.5488 32.6253 14.5551 32.6404C14.5613 32.6555 14.5645 32.6717 14.5645 32.688V33.2714C14.5645 33.2913 14.5711 33.3086 14.5842 33.3234L14.7512 33.5107C14.7565 33.5167 14.7643 33.5201 14.773 33.5202C14.7816 33.5204 14.7904 33.5172 14.7975 33.5113C14.9046 33.4229 14.9321 33.316 14.88 33.1908C14.8373 33.0888 14.7592 32.9758 14.6458 32.8518C14.6321 32.8372 14.6216 32.8199 14.6147 32.8012C14.6078 32.7824 14.6048 32.7625 14.6058 32.7426C14.613 32.5937 14.6024 32.4475 14.5741 32.304C14.5618 32.2418 14.5313 32.1885 14.4827 32.144C14.4662 32.1292 14.4469 32.1237 14.4249 32.1275C14.2505 32.1601 14.1441 32.245 14.1056 32.3821C14.0844 32.4587 14.0599 32.5076 14.032 32.5287C13.9592 32.5854 13.9092 32.6146 13.8822 32.6163C13.5686 32.6358 13.3077 32.6195 13.0995 32.5674C13.0144 32.5463 12.9421 32.479 12.8824 32.3656C12.7737 32.1586 12.681 32.0165 12.6044 31.939C12.5888 31.9234 12.5787 31.9029 12.5758 31.8806C12.5619 31.7693 12.5566 31.6726 12.5599 31.5905C12.5769 31.1944 12.5872 30.8233 12.5911 30.4772C12.5936 30.2469 12.6545 30.0466 12.7739 29.876C12.8894 29.711 13.0881 29.645 13.2188 29.492C13.3521 29.3365 13.5857 29.2978 13.7089 29.1911C13.8976 29.0286 14.0569 28.8424 14.1869 28.6325C14.2423 28.5424 14.291 28.4872 14.3329 28.4668C14.3929 28.4372 14.4509 28.4106 14.5068 28.3869C14.5271 28.3784 14.5434 28.3651 14.5557 28.3469C14.7812 28.0198 14.9154 27.8014 14.9581 27.6918C15.0275 27.5145 15.0954 27.3368 15.1619 27.1586C15.1936 27.0748 15.2363 26.9942 15.2901 26.9168C15.3701 26.8019 15.4329 26.6908 15.5027 26.6171C15.6263 26.4868 15.738 26.3552 15.8379 26.2223C15.8865 26.1576 15.9466 26.1043 16.0182 26.0624C16.1248 25.9989 16.213 25.9506 16.2556 25.851C16.326 25.6866 16.4352 25.4885 16.5387 25.3755C16.6459 25.2581 16.8599 25.1756 17.03 25.0931C17.1375 25.0414 17.2433 24.9805 17.3474 24.9103C17.5181 24.7954 17.6095 24.7287 17.7752 24.6741C18.0164 24.5941 18.192 24.5152 18.302 24.4374C18.5386 24.2694 18.7481 24.1346 18.9305 24.033C19.0032 23.9924 19.0872 23.974 19.1825 23.9778C19.3915 23.9862 19.637 23.9712 19.9188 23.9327C20.0743 23.9111 20.2654 23.9403 20.4361 24.0248C20.4865 24.0497 20.6742 24.1335 20.9992 24.2761C21.006 24.2791 21.0121 24.2836 21.0169 24.2893C21.0217 24.295 21.0252 24.3017 21.027 24.3089C21.0289 24.3161 21.029 24.3237 21.0275 24.331C21.026 24.3383 21.0228 24.3451 21.0182 24.351C20.9585 24.4276 20.9516 24.4998 20.9973 24.5675C21.0671 24.6709 21.2537 24.657 21.3622 24.7363C21.4744 24.8172 21.5671 24.8724 21.6403 24.902C21.7418 24.9433 21.8028 25.0442 21.9012 25.1089C21.9189 25.1208 21.9384 25.1265 21.9596 25.1261C22.0882 25.1235 22.1853 25.1223 22.2509 25.1223C22.3453 25.1223 22.438 25.1428 22.5289 25.1838C22.6813 25.2528 22.8374 25.3184 22.9974 25.3806C23.038 25.3963 23.1205 25.4657 23.245 25.5888C23.4474 25.7888 23.6233 25.8764 23.9013 25.9868C24.0414 26.0427 24.1343 26.1464 24.18 26.2979C24.2595 26.5598 24.3086 26.7521 24.3272 26.8749C24.3463 26.9993 24.4186 27.0615 24.5443 27.0615H24.7125C24.8374 27.0615 24.8947 26.9993 24.8846 26.8749C24.8693 26.6975 24.8814 26.5105 24.9207 26.3137C24.9557 26.1398 24.87 25.9735 24.9258 25.8034C24.9427 25.7513 24.977 25.7139 25.0287 25.691C25.268 25.5856 25.5771 25.5653 25.7155 25.8211C25.7426 25.8707 25.8081 26.0016 25.9122 26.2141C25.9482 26.2869 25.9338 26.3474 25.8691 26.3956L25.6952 26.5257C25.674 26.5418 25.6685 26.5619 25.6787 26.586C25.7062 26.6516 25.7385 26.6988 25.7758 26.7276C25.7842 26.7338 25.7938 26.7382 25.8039 26.7405C25.8141 26.7428 25.8246 26.7429 25.8348 26.7409C25.9979 26.7092 26.0208 26.6083 26.0798 26.4635C26.1035 26.4051 26.1367 26.3554 26.1795 26.3144C26.3212 26.1772 26.4727 26.0801 26.634 26.023C26.7152 25.9942 26.8073 25.9443 26.9101 25.8732C27.1555 25.7022 27.4219 25.5992 27.7093 25.5641C27.9492 25.5342 28.125 25.4238 28.3377 25.632C28.3533 25.6472 28.3715 25.6515 28.3923 25.6447C28.5611 25.5905 28.734 25.5552 28.9109 25.5387C29.1413 25.5177 29.3013 25.4504 29.5679 25.38C29.5877 25.3749 29.6068 25.377 29.625 25.3863L29.7875 25.4682C29.8044 25.4771 29.8216 25.4773 29.8389 25.4689C29.9379 25.4215 29.9917 25.3688 30.0001 25.3108C30.0264 25.139 30.0581 24.9962 30.0954 24.8823C30.1576 24.6919 30.6184 24.7033 30.8018 24.7141C30.95 24.7234 31.1266 24.7742 31.3319 24.8665C31.5587 24.9684 31.7506 25.0668 31.9076 25.1616C31.9436 25.1836 31.9988 25.198 32.0733 25.2048C32.0889 25.2061 32.094 25.1995 32.0885 25.1851ZM34.3808 26.3302C34.3827 26.3306 34.3862 26.3234 34.3906 26.3103C34.3951 26.2972 34.4001 26.2791 34.4046 26.2601C34.4091 26.2411 34.4127 26.2227 34.4146 26.209C34.4165 26.1952 34.4165 26.1873 34.4147 26.1868C34.4129 26.1864 34.4094 26.1936 34.405 26.2067C34.4005 26.2198 34.3955 26.2379 34.391 26.2569C34.3865 26.2759 34.3829 26.2943 34.381 26.308C34.3791 26.3218 34.3791 26.3297 34.3808 26.3302ZM33.989 26.9005C33.993 26.9036 34.0064 26.8941 34.0262 26.8741C34.0461 26.854 34.0708 26.8252 34.0949 26.7938C34.119 26.7624 34.1405 26.7311 34.1547 26.7067C34.1689 26.6823 34.1746 26.6669 34.1706 26.6638C34.1666 26.6608 34.1532 26.6703 34.1333 26.6903C34.1134 26.7103 34.0887 26.7392 34.0647 26.7706C34.0406 26.802 34.0191 26.8333 34.0049 26.8577C33.9907 26.882 33.985 26.8974 33.989 26.9005ZM22.9879 27.9025C23.0013 27.8989 23.0158 27.9004 23.0285 27.907C23.1153 27.9523 23.2054 28.0121 23.2989 28.0866C23.3548 28.1311 23.3971 28.1552 23.4259 28.159C23.486 28.1675 23.5281 28.1306 23.5522 28.0485C23.5797 27.9533 23.5918 27.8628 23.5884 27.7769C23.5878 27.761 23.5817 27.7459 23.5712 27.7341C23.5606 27.7222 23.5463 27.7145 23.5306 27.7121C23.4066 27.6926 23.2699 27.6838 23.1205 27.6855C23.0245 27.6867 22.9299 27.6698 22.8368 27.6347C22.7797 27.6127 22.6857 27.5873 22.555 27.5585C22.5338 27.5538 22.5146 27.5454 22.4972 27.5331L22.4299 27.4861C22.4054 27.4688 22.3851 27.473 22.369 27.4988C22.3313 27.5606 22.3205 27.6353 22.3366 27.7229C22.3384 27.7329 22.338 27.743 22.3355 27.7527C22.333 27.7623 22.3284 27.7712 22.322 27.7788C22.2276 27.8956 22.2084 28.0238 22.2642 28.1634C22.2926 28.2333 22.3116 28.2775 22.3214 28.2961C22.3463 28.3431 22.3832 28.3782 22.4318 28.4015C22.4373 28.4041 22.4433 28.4055 22.4494 28.4056C22.4555 28.4057 22.4615 28.4045 22.4671 28.402C22.4726 28.3995 22.4776 28.3959 22.4816 28.3913C22.4856 28.3867 22.4885 28.3813 22.4902 28.3754C22.5584 28.133 22.7242 27.9753 22.9879 27.9025ZM18.422 27.8568C18.4093 27.8553 18.3965 27.8569 18.3846 27.8616C18.3727 27.8662 18.3622 27.8738 18.3541 27.8835C18.1573 28.1171 18.0507 28.317 18.0024 28.6313C17.9828 28.7607 17.9612 28.981 17.8799 29.0915C17.8334 29.1541 17.8095 29.186 17.8082 29.1873C17.8049 29.1895 17.8028 29.1926 17.8023 29.1962C17.8017 29.1998 17.8028 29.2035 17.8052 29.2068C17.8077 29.2101 17.8113 29.2126 17.8156 29.2141C17.8199 29.2155 17.8244 29.2157 17.8285 29.2146C17.9229 29.1956 17.9885 29.1454 18.0253 29.0642C18.0384 29.0354 18.0968 28.9766 18.2005 28.8877C18.2762 28.823 18.3323 28.7631 18.3687 28.7081C18.4804 28.5409 18.6241 28.3911 18.7997 28.2586C18.8412 28.2269 18.8668 28.1892 18.8765 28.1457C18.8917 28.0784 18.8746 28.0299 18.8251 28.0003C18.696 27.922 18.5617 27.8742 18.422 27.8568ZM18.4004 32.4855C18.4085 32.4953 18.4188 32.5042 18.4315 32.5122C18.4493 32.5228 18.4571 32.5177 18.455 32.497C18.4525 32.4724 18.4375 32.435 18.4099 32.3846C18.4013 32.3694 18.3977 32.3516 18.3998 32.3338C18.4121 32.2238 18.4085 32.0897 18.389 31.9314C18.3827 31.8789 18.3894 31.8324 18.4093 31.7917C18.4224 31.7651 18.451 31.7251 18.495 31.6718C18.5085 31.6553 18.5066 31.6409 18.4893 31.6286C18.4669 31.613 18.3776 31.5495 18.2214 31.4382C18.2172 31.4352 18.1624 31.4007 18.057 31.3347C17.889 31.2302 17.793 31.0759 17.7688 30.872C17.7219 30.4772 17.7037 29.966 17.7142 29.3384C17.7147 29.3172 17.7049 29.3102 17.685 29.3174C17.4663 29.3983 17.3429 29.4548 17.315 29.4869C17.1999 29.6206 17.0793 29.7506 16.9532 29.8767C16.904 29.9254 16.8741 29.9903 16.8687 30.0595C16.8573 30.2034 16.8455 30.3591 16.8332 30.5267C16.8315 30.5495 16.8476 30.638 16.8814 30.792C16.8861 30.8127 16.8981 30.8278 16.9176 30.8371C17.0331 30.8923 17.1506 30.9355 17.2102 31.0421C17.3634 31.3184 17.3395 31.5795 17.1385 31.8254C17.0281 31.9608 16.9015 32.0931 16.7589 32.2221C16.6726 32.3008 16.6167 32.3916 16.6015 32.4976C16.5266 33.0291 16.4775 33.3454 16.4542 33.4466C16.4343 33.5333 16.3908 33.601 16.3235 33.6497C16.2922 33.6726 16.2196 33.6954 16.1058 33.7183C15.9081 33.758 15.7759 33.8727 15.709 34.0623C15.702 34.0816 15.6889 34.0981 15.6716 34.1093C15.4773 34.2316 15.3161 34.286 15.1879 34.2724C15.0643 34.2593 14.9308 34.2557 14.7873 34.2616C14.7636 34.2626 14.7403 34.2556 14.7211 34.2418C14.7018 34.228 14.6879 34.2081 14.6813 34.1855L14.5912 33.8751C14.5899 33.8701 14.5899 33.8648 14.5912 33.8598L14.6274 33.717C14.6413 33.6637 14.6346 33.6607 14.6071 33.7081C14.519 33.8588 14.4746 33.9516 14.4738 33.9868C14.4691 34.1459 14.5059 34.2568 14.5842 34.3194C14.6545 34.3752 14.7543 34.3953 14.8838 34.3797C15.0087 34.3645 15.1288 34.3539 15.2444 34.348C15.2664 34.3467 15.2871 34.3518 15.3066 34.3632C15.4547 34.4495 15.64 34.4906 15.8626 34.4863C15.9966 34.4838 16.0651 34.4146 16.1559 34.3194C16.1711 34.3033 16.1887 34.2912 16.2086 34.2832L16.6383 34.1112C16.6528 34.1056 16.6682 34.1028 16.6837 34.1031C16.6991 34.1035 16.7144 34.1069 16.7285 34.1131C16.9819 34.2257 17.238 34.2153 17.4965 34.082C17.5156 34.0718 17.5259 34.0562 17.5276 34.035C17.5534 33.6956 17.5702 33.4991 17.5778 33.4453C17.6099 33.2117 17.687 32.964 17.8088 32.702C17.8198 32.6787 17.8355 32.6561 17.8558 32.6341C17.8782 32.6095 17.9011 32.5949 17.9244 32.5903C18.0754 32.5607 18.2168 32.5211 18.3484 32.4716C18.3575 32.4683 18.3674 32.4678 18.3767 32.4703C18.3861 32.4728 18.3943 32.4781 18.4004 32.4855ZM19.7537 31.289L19.5487 31.3709C19.525 31.3802 19.5252 31.3893 19.5494 31.3982C19.6433 31.4312 19.718 31.4217 19.7734 31.3696C19.7963 31.348 19.8041 31.3275 19.7969 31.3081C19.7893 31.2869 19.7749 31.2806 19.7537 31.289ZM18.5769 32.6169C18.5562 32.6144 18.5509 32.6193 18.561 32.6315C18.5813 32.6565 18.5936 32.6698 18.5978 32.6715C18.6321 32.6842 18.6363 32.6775 18.6105 32.6512C18.5885 32.6284 18.5773 32.6169 18.5769 32.6169ZM27.654 41.0835C27.6485 41.0661 27.6113 40.9421 27.5423 40.7115C27.5127 40.6133 27.4558 40.5464 27.3716 40.5109C27.3221 40.4902 27.2876 40.4698 27.2681 40.45C27.1646 40.3459 27.1177 40.1599 27.0497 40.0209C26.9727 39.8639 26.9302 39.7557 26.9222 39.6965C26.9057 39.5717 26.9423 39.4305 27.032 39.2731C27.1272 39.1051 27.266 39.0076 27.4484 38.9805C27.5008 38.9727 27.5486 38.9464 27.5832 38.9063C27.6178 38.8662 27.6369 38.8151 27.6369 38.7621V38.691C27.6369 38.6051 27.5952 38.5732 27.5119 38.5952C27.0358 38.7225 26.6598 38.9278 26.3839 39.2109C26.2777 39.3201 26.2453 39.458 26.2868 39.6248C26.3621 39.9273 26.4156 40.1415 26.4474 40.2671C26.4626 40.3272 26.5223 40.437 26.6264 40.5966C26.7736 40.8219 26.8485 40.9952 26.9977 41.2834C27.0794 41.4412 27.0954 41.5968 27.0459 41.75C26.9858 41.9374 26.9397 42.0965 26.9076 42.2273C26.8784 42.346 26.7787 42.4742 26.8073 42.6316C26.8208 42.7057 26.8822 42.7766 26.9913 42.8443C27.0582 42.8862 27.1405 42.9497 27.2383 43.0347C27.4458 43.215 27.6788 43.1839 27.8559 43.0043C27.9253 42.934 27.9556 42.8633 27.9467 42.7922C27.9259 42.6225 27.9137 42.4981 27.9099 42.419C27.9022 42.2762 27.8546 42.174 27.788 42.0381C27.6629 41.783 27.6445 41.5208 27.6705 41.2269C27.6748 41.1787 27.6693 41.1308 27.654 41.0835ZM22.8662 38.7644C22.8546 38.7416 22.8233 38.73 22.7791 38.7321C22.735 38.7342 22.6815 38.7499 22.6307 38.7757C22.6055 38.7885 22.5816 38.8034 22.5605 38.8195C22.5394 38.8357 22.5215 38.8527 22.5077 38.8698C22.494 38.8868 22.4847 38.9035 22.4803 38.9188C22.476 38.9341 22.4767 38.9478 22.4824 38.9591C22.494 38.982 22.5253 38.9936 22.5695 38.9915C22.6137 38.9893 22.6671 38.9736 22.718 38.9478C22.7432 38.935 22.767 38.9201 22.7881 38.904C22.8092 38.8879 22.8271 38.8708 22.8409 38.8538C22.8546 38.8367 22.864 38.8201 22.8683 38.8047C22.8727 38.7894 22.8719 38.7757 22.8662 38.7644ZM21.7685 39.6736C21.4706 39.5551 21.2746 39.3565 21.1807 39.0776C21.1617 39.0217 21.1136 38.9561 21.0366 38.8808C21.0197 38.8643 21.0044 38.8656 20.9909 38.8846C20.9516 38.9405 20.8819 39.0338 20.7821 39.1646C20.678 39.3004 20.6659 39.4635 20.5694 39.6083C20.3739 39.9007 20.24 40.2238 20.1676 40.5775C20.1473 40.677 20.1805 40.7766 20.2673 40.8765C20.3252 40.9438 20.4069 40.9738 20.5123 40.9667C20.5982 40.9607 20.7112 40.9499 20.8513 40.9343C20.9253 40.9258 21.014 40.8884 21.1172 40.8219C21.234 40.7466 21.3764 40.6874 21.5444 40.6442C21.6282 40.623 21.7073 40.6163 21.7818 40.6239C21.9227 40.6383 21.9949 40.6455 21.9983 40.6455C22.1697 40.6476 22.3347 40.6774 22.4934 40.735C22.504 40.7388 22.6184 40.8008 22.8368 40.9209C23.1098 41.0708 23.3764 41.0492 23.7363 41.0416C23.8416 41.039 23.9129 41.0168 23.9502 40.9749C24.0094 40.9076 24.0198 40.8207 23.9813 40.714C23.9407 40.6017 23.8962 40.5344 23.7832 40.4684C23.6343 40.3812 23.5338 40.2591 23.4817 40.1021C23.4754 40.0826 23.464 40.0672 23.4474 40.0558L22.7429 39.5625C22.7213 39.5476 22.697 39.5375 22.6713 39.5327C22.6457 39.528 22.6194 39.5289 22.5943 39.5353C22.4576 39.5695 22.2901 39.6083 22.0916 39.6514C21.9282 39.6865 21.8205 39.6939 21.7685 39.6736ZM16.7919 41.1196L16.9963 41.5062C16.9998 41.5128 17.0052 41.518 17.012 41.521C17.0187 41.524 17.0262 41.5246 17.0335 41.5228C17.0408 41.521 17.0473 41.5169 17.0522 41.511C17.0571 41.5051 17.06 41.4979 17.0604 41.4903C17.0744 41.2813 17.0441 41.0911 16.9697 40.9197C16.9608 40.8989 16.9466 40.8831 16.9271 40.8721C16.8084 40.8061 16.7246 40.7667 16.6497 40.6988C16.5482 40.6061 16.4337 40.5204 16.3063 40.4417C16.2001 40.3761 16.1041 40.2919 16.0182 40.1891C15.9297 40.0837 15.7992 39.9225 15.6265 39.7054C15.5711 39.6355 15.5378 39.5977 15.5268 39.5918C15.3669 39.5008 15.3305 39.5372 15.4177 39.7009C15.5205 39.8933 15.6906 40.1084 15.8106 40.3167C15.8838 40.444 15.935 40.5312 15.9642 40.5782C16.0461 40.7102 16.1388 40.7394 16.2905 40.78C16.2909 40.7805 16.319 40.798 16.3749 40.8327L16.7557 41.072C16.7607 41.0751 16.7666 41.0809 16.7729 41.0892C16.7791 41.0974 16.7856 41.1078 16.7919 41.1196ZM27.4903 47.7028L27.51 47.6952C27.5294 47.6875 27.5381 47.6732 27.536 47.652C27.5245 47.5428 27.4867 47.4675 27.4224 47.426C27.2903 47.3401 27.2161 47.2826 27.1996 47.2534C27.112 47.0943 27.0178 46.9136 26.9171 46.7113C26.8756 46.6279 26.8212 46.552 26.7539 46.4834C26.7466 46.4758 26.7374 46.4702 26.7274 46.4671C26.7175 46.464 26.7069 46.4635 26.6968 46.4656C26.6325 46.4792 26.5764 46.5048 26.5286 46.5424C26.5204 46.549 26.514 46.5576 26.5102 46.5674C26.5064 46.5772 26.5053 46.5879 26.507 46.5983C26.5521 46.8744 26.7165 47.0883 26.9215 47.2908C27.0053 47.3742 27.0555 47.4468 27.072 47.5085C27.0885 47.5708 27.112 47.6554 27.1424 47.7625C27.1483 47.7832 27.1619 47.7955 27.183 47.7993C27.2901 47.8204 27.3811 47.7957 27.456 47.725C27.4662 47.7153 27.4776 47.7079 27.4903 47.7028ZM27.7385 47.7986C27.701 47.7859 27.6445 47.7466 27.6102 47.7168C27.5895 47.6981 27.5772 47.7028 27.5734 47.7307C27.5485 47.9351 27.5819 48.0974 27.6737 48.2176C27.6877 48.2362 27.6896 48.2559 27.6794 48.2766C27.6267 48.3858 27.5937 48.4715 27.6972 48.5718C27.7497 48.6221 27.8345 48.6585 27.9517 48.681C28.0715 48.7034 28.1676 48.6585 28.2399 48.5464C28.322 48.4199 28.388 48.3086 28.438 48.2125C28.4794 48.1325 28.5349 48.0771 28.6043 48.0462C28.7249 47.9925 28.8 47.9599 28.8296 47.9484C28.8347 47.9463 28.837 47.9417 28.8366 47.9345V47.9338C28.8365 47.9324 28.836 47.9311 28.8351 47.9299C28.8343 47.9287 28.8332 47.9277 28.8319 47.9269C28.8305 47.9262 28.829 47.9258 28.8274 47.9256C28.8258 47.9255 28.8242 47.9257 28.8226 47.9262C28.7279 47.9516 28.6565 47.9728 28.6087 47.9897C28.5406 48.013 28.468 48.0187 28.391 48.0068C28.1671 47.973 28.0385 47.9461 28.0051 47.9262C27.9103 47.8695 27.8214 47.827 27.7385 47.7986Z" fill="#727372"/>
</g>
<defs>
<clipPath id="clip0_1387_5241">
<rect width="75" height="75" fill="white" transform="translate(0 0.5)"/>
</clipPath>
</defs>
</svg>
