<?xml version="1.0" encoding="UTF-8"?>
<!DOCTYPE svg PUBLIC "-//W3C//DTD SVG 1.1//EN" "http://www.w3.org/Graphics/SVG/1.1/DTD/svg11.dtd">
<svg xmlns="http://www.w3.org/2000/svg" version="1.1" width="693px" height="691px" style="shape-rendering:geometricPrecision; text-rendering:geometricPrecision; image-rendering:optimizeQuality; fill-rule:evenodd; clip-rule:evenodd" xmlns:xlink="http://www.w3.org/1999/xlink">
<g><path style="opacity:0.984" fill="#fefffe" d="M 67.5,-0.5 C 109.167,-0.5 150.833,-0.5 192.5,-0.5C 196.189,2.02855 199.022,5.36188 201,9.5C 209.911,74.0503 218.745,138.55 227.5,203C 162.834,203.5 98.1675,203.667 33.5,203.5C 42.1282,140.215 50.2949,76.8813 58,13.5C 59.4441,7.59599 62.6108,2.92932 67.5,-0.5 Z"/></g>
<g><path style="opacity:0.901" fill="#fefffe" d="M 31.5,209.5 C 96.8333,209.5 162.167,209.5 227.5,209.5C 228.207,212.786 228.54,216.119 228.5,219.5C 162.833,219.5 97.1667,219.5 31.5,219.5C 31.5,216.167 31.5,212.833 31.5,209.5 Z"/></g>
<g><path style="opacity:0.945" fill="#fefffe" d="M 30.5,223.5 C 97.1667,223.5 163.833,223.5 230.5,223.5C 230.706,229.898 231.373,236.231 232.5,242.5C 164.17,243.5 95.8366,243.833 27.5,243.5C 28.5,236.833 29.5,230.167 30.5,223.5 Z"/></g>
<g><path style="opacity:0.96" fill="#fefffe" d="M 26.5,251.5 C 95.8333,251.5 165.167,251.5 234.5,251.5C 234.775,261.252 235.775,270.919 237.5,280.5C 165.833,280.5 94.1667,280.5 22.5,280.5C 23.7244,270.82 25.0577,261.153 26.5,251.5 Z"/></g>
<g><path style="opacity:0.819" fill="#fefffe" d="M 469.5,265.5 C 470.5,265.5 471.5,265.5 472.5,265.5C 472.5,270.5 472.5,275.5 472.5,280.5C 461.828,280.667 451.161,280.5 440.5,280C 450.506,275.664 460.173,270.83 469.5,265.5 Z"/></g>
<g><path style="opacity:0.819" fill="#fefffe" d="M 688.5,265.5 C 689.5,265.5 690.5,265.5 691.5,265.5C 691.5,270.5 691.5,275.5 691.5,280.5C 680.828,280.667 670.161,280.5 659.5,280C 669.506,275.664 679.173,270.83 688.5,265.5 Z"/></g>
<g><path style="opacity:0.97" fill="#fefffe" d="M 20.5,293.5 C 93.5,293.5 166.5,293.5 239.5,293.5C 241.561,307.442 243.228,321.442 244.5,335.5C 168.167,335.5 91.8333,335.5 15.5,335.5C 17.4488,321.634 19.1155,307.634 20.5,293.5 Z"/></g>
<g><path style="opacity:0.958" fill="#fefffe" d="M 410.5,293.5 C 431.167,293.5 451.833,293.5 472.5,293.5C 472.5,307.5 472.5,321.5 472.5,335.5C 423.166,335.667 373.832,335.5 324.5,335C 353.38,321.392 382.047,307.559 410.5,293.5 Z"/></g>
<g><path style="opacity:0.958" fill="#fefffe" d="M 629.5,293.5 C 650.167,293.5 670.833,293.5 691.5,293.5C 691.5,307.5 691.5,321.5 691.5,335.5C 642.166,335.667 592.832,335.5 543.5,335C 572.38,321.392 601.047,307.559 629.5,293.5 Z"/></g>
<g><path style="opacity:0.986" fill="#fefffe" d="M 12.5,356.5 C 90.8333,356.5 169.167,356.5 247.5,356.5C 248.648,361.095 249.481,365.762 250,370.5C 259.424,365.872 268.924,361.372 278.5,357C 343.166,356.5 407.832,356.333 472.5,356.5C 472.334,360.514 472.501,364.514 473,368.5C 481.091,364.538 489.258,360.705 497.5,357C 562.166,356.5 626.832,356.333 691.5,356.5C 691.5,380.833 691.5,405.167 691.5,429.5C 663.498,429.667 635.498,429.5 607.5,429C 600.426,419.132 590.759,414.632 578.5,415.5C 566.241,414.632 556.574,419.132 549.5,429C 527.167,429.667 504.833,429.667 482.5,429C 475.426,419.132 465.759,414.632 453.5,415.5C 441.241,414.632 431.574,419.132 424.5,429C 402.167,429.667 379.833,429.667 357.5,429C 350.426,419.132 340.759,414.632 328.5,415.5C 316.241,414.632 306.574,419.132 299.5,429C 202.501,429.5 105.501,429.667 8.5,429.5C 8.61405,405.04 9.94739,380.707 12.5,356.5 Z"/></g>
<g><path style="opacity:0.976" fill="#fefffe" d="M 7.5,460.5 C 103.833,460.5 200.167,460.5 296.5,460.5C 298.548,479.539 309.215,488.539 328.5,487.5C 347.318,488.669 357.985,480.003 360.5,461.5C 380.822,460.5 401.156,460.167 421.5,460.5C 423.548,479.539 434.215,488.539 453.5,487.5C 472.318,488.669 482.985,480.003 485.5,461.5C 505.822,460.5 526.156,460.167 546.5,460.5C 548.548,479.539 559.215,488.539 578.5,487.5C 597.318,488.669 607.985,480.003 610.5,461.5C 637.492,460.5 664.492,460.167 691.5,460.5C 691.5,492.833 691.5,525.167 691.5,557.5C 664.5,557.5 637.5,557.5 610.5,557.5C 615.023,521.854 599.689,507.354 564.5,514C 553.796,517.705 547.963,525.205 547,536.5C 546.5,543.492 546.334,550.492 546.5,557.5C 526.167,557.5 505.833,557.5 485.5,557.5C 490.023,521.854 474.689,507.354 439.5,514C 428.796,517.705 422.963,525.205 422,536.5C 421.5,543.492 421.334,550.492 421.5,557.5C 401.167,557.5 380.833,557.5 360.5,557.5C 365.023,521.854 349.689,507.354 314.5,514C 303.796,517.705 297.963,525.205 297,536.5C 296.5,543.492 296.334,550.492 296.5,557.5C 199.167,557.5 101.833,557.5 4.5,557.5C 4.97198,525.146 5.97198,492.813 7.5,460.5 Z"/></g>
<g><path style="opacity:0.978" fill="#fefffe" d="M 673.5,690.5 C 455.167,690.5 236.833,690.5 18.5,690.5C 9.5167,687.682 3.68337,681.682 1,672.5C 0.868045,647.825 1.36804,623.158 2.5,598.5C 232.167,598.5 461.833,598.5 691.5,598.5C 691.667,623.169 691.5,647.836 691,672.5C 688.317,681.682 682.483,687.682 673.5,690.5 Z"/></g>
</svg>
