<svg width="21" height="16" viewBox="0 0 21 16" fill="none" xmlns="http://www.w3.org/2000/svg">
<g clip-path="url(#clip0_23_156)">
<path opacity="0.994" fill-rule="evenodd" clip-rule="evenodd" d="M-0.0384521 -0.0361996C2.16668 -0.0361996 4.3718 -0.0361996 6.57693 -0.0361996C6.65386 0.156863 6.73078 0.349924 6.8077 0.542986C6.83804 0.821516 6.91496 1.08698 7.03847 1.33937C7.8537 3.95495 8.69985 6.56129 9.57693 9.15837C9.73901 8.86197 9.84155 8.54827 9.88462 8.21719C10.0455 7.87757 10.148 7.51558 10.1923 7.13122C10.9465 4.75138 11.6901 2.36224 12.4231 -0.0361996C14.6795 -0.0361996 16.9359 -0.0361996 19.1923 -0.0361996C19.1923 0.156863 19.1923 0.349924 19.1923 0.542986C19.1923 0.808448 19.1923 1.0739 19.1923 1.33937C19.1923 5.75566 19.1923 10.1719 19.1923 14.5882C18.4231 14.5882 17.6539 14.5882 16.8846 14.5882C16.5769 14.5882 16.2692 14.5882 15.9615 14.5882C15.6539 14.5882 15.3462 14.5882 15.0385 14.5882C15.0527 13.1864 15.104 11.7867 15.1923 10.3891C15.2082 9.13209 15.2595 7.87714 15.3462 6.62443C15.3756 5.56074 15.3756 4.4989 15.3462 3.43891C14.0235 7.1252 12.7159 10.8175 11.4231 14.5158C10.6555 14.5882 9.88632 14.6123 9.11539 14.5882C8.91024 14.5882 8.70516 14.5882 8.50001 14.5882C8.24362 14.5882 7.98716 14.5882 7.73078 14.5882C7.06728 12.6423 6.37497 10.7117 5.65386 8.79638C5.4214 7.85071 5.11371 6.93369 4.73078 6.04525C4.47861 5.15217 4.15809 4.28339 3.76924 3.43891C3.90135 7.15345 4.01673 10.8699 4.11539 14.5882C3.32052 14.5882 2.52565 14.5882 1.73078 14.5882C1.44872 14.5882 1.16668 14.5882 0.884625 14.5882C0.576932 14.5882 0.26924 14.5882 -0.0384521 14.5882C-0.0384521 9.71345 -0.0384521 4.83861 -0.0384521 -0.0361996Z" fill="#FCD523"/>
<path opacity="0.254" fill-rule="evenodd" clip-rule="evenodd" d="M6.80768 0.542986C7.03986 0.531067 7.27063 0.543133 7.49999 0.579185C7.63141 0.81757 7.70829 1.07096 7.73076 1.33937C7.49999 1.33937 7.26922 1.33937 7.03845 1.33937C6.91494 1.08698 6.83802 0.821516 6.80768 0.542986Z" fill="#060EFD"/>
<path opacity="0.269" fill-rule="evenodd" clip-rule="evenodd" d="M19.1923 0.542986C19.5 0.542986 19.8077 0.542986 20.1154 0.542986C20.1154 0.808448 20.1154 1.0739 20.1154 1.33937C19.8077 1.33937 19.5 1.33937 19.1923 1.33937C19.1923 1.0739 19.1923 0.808448 19.1923 0.542986Z" fill="#000BFF"/>
<path opacity="0.467" fill-rule="evenodd" clip-rule="evenodd" d="M7.03845 1.33937C7.26922 1.33937 7.49999 1.33937 7.73076 1.33937C8.50845 3.61549 9.22638 5.9081 9.88461 8.2172C9.84153 8.54827 9.73899 8.86197 9.57691 9.15837C8.69984 6.56129 7.85368 3.95495 7.03845 1.33937Z" fill="#6F0891"/>
<path opacity="0.252" fill-rule="evenodd" clip-rule="evenodd" d="M7.73077 1.33937C7.95754 1.31931 8.17547 1.34344 8.38462 1.41177C9.02331 3.30972 9.62585 5.21621 10.1923 7.13122C10.148 7.51558 10.0455 7.87757 9.88462 8.21719C9.22639 5.9081 8.50847 3.61549 7.73077 1.33937Z" fill="#FD0102"/>
<path opacity="0.467" fill-rule="evenodd" clip-rule="evenodd" d="M19.1923 1.33937C19.5 1.33937 19.8077 1.33937 20.1154 1.33937C20.1154 5.94872 20.1154 10.558 20.1154 15.1674C19.0385 15.1674 17.9616 15.1674 16.8846 15.1674C16.8846 14.9743 16.8846 14.7813 16.8846 14.5882C17.6539 14.5882 18.4231 14.5882 19.1923 14.5882C19.1923 10.1719 19.1923 5.75566 19.1923 1.33937Z" fill="#6B0693"/>
<path opacity="0.269" fill-rule="evenodd" clip-rule="evenodd" d="M20.1154 1.33937C20.3974 1.33937 20.6794 1.33937 20.9615 1.33937C20.9615 6.21418 20.9615 11.089 20.9615 15.9638C19.5769 15.9638 18.1923 15.9638 16.8077 15.9638C16.8077 15.6983 16.8077 15.4329 16.8077 15.1674C16.8333 15.1674 16.859 15.1674 16.8846 15.1674C17.9615 15.1674 19.0384 15.1674 20.1154 15.1674C20.1154 10.558 20.1154 5.94872 20.1154 1.33937Z" fill="#FE0000"/>
<path opacity="0.467" fill-rule="evenodd" clip-rule="evenodd" d="M4.73077 6.04525C4.87395 9.08445 4.97652 12.1252 5.03847 15.1674C3.9359 15.1674 2.83334 15.1674 1.73077 15.1674C1.73077 14.9743 1.73077 14.7813 1.73077 14.5882C2.52564 14.5882 3.32052 14.5882 4.11539 14.5882C4.01673 10.8699 3.90134 7.15345 3.76924 3.43891C4.15809 4.28339 4.4786 5.15217 4.73077 6.04525Z" fill="#6E0791"/>
<path opacity="0.467" fill-rule="evenodd" clip-rule="evenodd" d="M15.3461 6.62443C14.3179 9.45535 13.3179 12.303 12.3461 15.1674C11.3205 15.1674 10.2948 15.1674 9.2692 15.1674C9.23359 14.9704 9.18236 14.7773 9.11536 14.5882C9.88628 14.6123 10.6555 14.5882 11.423 14.5158C12.7158 10.8175 14.0235 7.1252 15.3461 3.43891C15.3756 4.4989 15.3756 5.56075 15.3461 6.62443Z" fill="#6D0892"/>
<path opacity="0.263" fill-rule="evenodd" clip-rule="evenodd" d="M4.73077 6.04525C5.1137 6.93369 5.4214 7.85072 5.65385 8.79638C5.75094 11.1861 5.8535 13.5752 5.96154 15.9638C4.55129 15.9638 3.14103 15.9638 1.73077 15.9638C1.73077 15.6983 1.73077 15.4329 1.73077 15.1674C2.83334 15.1674 3.9359 15.1674 5.03847 15.1674C4.97652 12.1252 4.87395 9.08445 4.73077 6.04525Z" fill="#FE0200"/>
<path opacity="0.263" fill-rule="evenodd" clip-rule="evenodd" d="M15.3461 6.62444C15.2595 7.87714 15.2081 9.13209 15.1923 10.3891C14.5277 12.2415 13.861 14.0998 13.1923 15.9638C11.9615 15.9638 10.7308 15.9638 9.5 15.9638C9.43869 15.6943 9.36176 15.4288 9.26923 15.1674C10.2948 15.1674 11.3205 15.1674 12.3461 15.1674C13.3179 12.303 14.3179 9.45535 15.3461 6.62444Z" fill="#FD0002"/>
<path opacity="0.261" fill-rule="evenodd" clip-rule="evenodd" d="M0.884644 14.5882C1.1667 14.5882 1.44874 14.5882 1.7308 14.5882C1.7308 14.7813 1.7308 14.9743 1.7308 15.1674C1.44874 15.1674 1.1667 15.1674 0.884644 15.1674C0.884644 14.9743 0.884644 14.7813 0.884644 14.5882Z" fill="#000BFF"/>
<path opacity="0.252" fill-rule="evenodd" clip-rule="evenodd" d="M8.5 14.5882C8.70515 14.5882 8.91023 14.5882 9.11538 14.5882C9.18238 14.7773 9.23362 14.9704 9.26923 15.1674C9.06408 15.1674 8.859 15.1674 8.65385 15.1674C8.61823 14.9704 8.567 14.7773 8.5 14.5882Z" fill="#090BFB"/>
<path opacity="0.265" fill-rule="evenodd" clip-rule="evenodd" d="M15.9615 14.5882C16.2692 14.5882 16.5769 14.5882 16.8846 14.5882C16.8846 14.7813 16.8846 14.9743 16.8846 15.1674C16.859 15.1674 16.8333 15.1674 16.8077 15.1674C16.5256 15.1674 16.2436 15.1674 15.9615 15.1674C15.9615 14.9743 15.9615 14.7813 15.9615 14.5882Z" fill="#0C0BFA"/>
</g>
<defs>
<clipPath id="clip0_23_156">
<rect width="21" height="16" fill="white"/>
</clipPath>
</defs>
</svg>
