<svg width="58" height="58" viewBox="0 0 58 58" fill="none" xmlns="http://www.w3.org/2000/svg">
<path d="M24.9542 0L25.0098 0.0200312C25.0268 0.026163 25.0414 0.037233 25.0518 0.0517546C25.0621 0.0662762 25.0677 0.0835542 25.0677 0.101269V9.90652C25.0677 9.9188 25.0653 9.93095 25.0605 9.94229C25.0557 9.95364 25.0487 9.96394 25.0398 9.97262C25.0309 9.9813 25.0204 9.98819 25.0089 9.99288C24.9973 9.99758 24.9849 10 24.9723 10H17.6473C17.6262 10 17.6059 9.99168 17.591 9.97686C17.5761 9.96204 17.5677 9.94194 17.5677 9.92099L17.578 0H24.9542Z" fill="#F7271F"/>
<path d="M40.0655 0.00446825L40.0677 9.91882C40.0677 9.94035 40.059 9.961 40.0435 9.97622C40.0279 9.99145 40.0068 10 39.9848 10H32.6916C32.609 10 32.5677 9.95959 32.5677 9.87878V0.114566C32.5677 0.0745304 32.5867 0.0474694 32.6245 0.0333828C32.7063 0.00298545 32.7995 -0.00665273 32.904 0.00446825H40.0655Z" fill="#F7271F"/>
<path d="M57.5 17.5993V39.9001C57.4324 40.5208 57.3652 40.9363 57.2984 41.1467C56.8318 42.609 55.918 43.6649 54.5567 44.3144C53.3118 44.9088 51.8929 44.7962 50.5648 44.7972C44.8482 44.8014 39.132 44.7951 33.4161 44.7783C32.5616 44.7751 31.5685 44.8057 30.6436 44.8036C23.4882 44.7916 19.6745 44.7878 19.2022 44.792C18.6333 44.7976 18.0643 44.7997 17.4954 44.7983C16.0459 44.7948 12.0277 44.7948 5.44063 44.7983C3.47418 44.799 1.95543 44.0612 0.884369 42.5848C0.649675 42.2608 0.467254 41.8579 0.368043 41.4886C0.200912 40.8679 0.0782313 40.1918 0 39.4603V17.7445C0.0192022 17.4661 0.0462276 17.1908 0.0810761 16.9187C0.169975 16.2173 0.408581 15.5682 0.796892 14.9714C1.6233 13.6991 2.79819 12.9357 4.32157 12.6811C4.71272 12.6159 5.26354 12.5868 5.97403 12.5938C6.26846 12.5966 10.5267 12.6029 18.7488 12.6127C20.9656 12.6155 23.0725 12.6131 25.0696 12.6054C26.8063 12.5984 29.4039 12.5966 32.8625 12.6001C43.9102 12.6106 50.3731 12.6176 52.2514 12.6211C54.0571 12.624 55.4845 13.3299 56.5335 14.7389C57.0576 15.4416 57.3613 16.2292 57.4445 17.1017C57.4609 17.2693 57.4794 17.4352 57.5 17.5993ZM27.6309 17.3079C27.6309 17.2948 27.6257 17.2822 27.6163 17.2729C27.6068 17.2637 27.5941 17.2585 27.5808 17.2585H6.98428C6.97098 17.2585 6.95823 17.2637 6.94882 17.2729C6.93942 17.2822 6.93414 17.2948 6.93414 17.3079V39.2762C6.93414 39.2827 6.93543 39.2892 6.93795 39.2951C6.94047 39.3011 6.94417 39.3066 6.94882 39.3112C6.95348 39.3158 6.95901 39.3194 6.96509 39.3219C6.97117 39.3244 6.97769 39.3257 6.98428 39.3257H15.4215C15.4346 39.3258 15.4473 39.3209 15.4567 39.312L27.616 27.7387C27.6208 27.734 27.6246 27.7285 27.6272 27.7223C27.6297 27.7162 27.631 27.7096 27.6309 27.7029V17.3079ZM28.8033 20.8816C28.8033 20.8906 28.8069 20.8991 28.8133 20.9054C28.8197 20.9117 28.8284 20.9153 28.8375 20.9153H32.7217C32.7307 20.9153 32.7394 20.9188 32.7458 20.9251C32.7522 20.9315 32.7558 20.94 32.7558 20.949V26.2964C32.7558 26.3009 32.7548 26.3054 32.753 26.3096C32.7511 26.3137 32.7485 26.3175 32.7451 26.3206L22.7194 35.8635C22.7131 35.8695 22.7047 35.8729 22.696 35.8729H20.2562C20.2475 35.873 20.239 35.8764 20.2327 35.8824L16.5641 39.373C16.5592 39.3777 16.5558 39.3836 16.5544 39.3902C16.553 39.3967 16.5536 39.4035 16.5561 39.4097C16.5586 39.4159 16.5629 39.4212 16.5685 39.425C16.5741 39.4288 16.5807 39.4308 16.5875 39.4309H24.389C24.3977 39.4308 24.4061 39.4274 24.4124 39.4214L36.5813 27.8386C36.5846 27.8355 36.5873 27.8318 36.5891 27.8276C36.591 27.8235 36.5919 27.819 36.592 27.8144V17.3973C36.592 17.3884 36.5884 17.3798 36.582 17.3735C36.5756 17.3672 36.5669 17.3637 36.5578 17.3637H28.8375C28.8284 17.3637 28.8197 17.3672 28.8133 17.3735C28.8069 17.3798 28.8033 17.3884 28.8033 17.3973V20.8816ZM37.7644 20.971C37.7644 20.9777 37.7657 20.9842 37.7683 20.9904C37.7708 20.9965 37.7746 21.0021 37.7794 21.0068C37.7841 21.0114 37.7898 21.0152 37.796 21.0177C37.8022 21.0202 37.8089 21.0215 37.8156 21.0215H39.6334C39.6401 21.0215 39.6468 21.0228 39.653 21.0254C39.6592 21.0279 39.6648 21.0316 39.6696 21.0363C39.6744 21.041 39.6781 21.0466 39.6807 21.0527C39.6833 21.0588 39.6846 21.0654 39.6846 21.072V39.4519C39.6846 39.4585 39.6859 39.4651 39.6885 39.4712C39.6911 39.4774 39.6948 39.4829 39.6996 39.4876C39.7044 39.4923 39.71 39.496 39.7162 39.4986C39.7224 39.5011 39.7291 39.5024 39.7358 39.5024H43.4706C43.4842 39.5024 43.4972 39.4971 43.5068 39.4876C43.5165 39.4781 43.5218 39.4653 43.5218 39.4519V21.071C43.5218 21.0576 43.5272 21.0448 43.5368 21.0353C43.5464 21.0258 43.5595 21.0205 43.5731 21.0205H52.1554C52.169 21.0205 52.182 21.0152 52.1916 21.0057C52.2012 20.9962 52.2066 20.9834 52.2066 20.97V17.5194C52.2066 17.506 52.2012 17.4931 52.1916 17.4837C52.182 17.4742 52.169 17.4689 52.1554 17.4689H37.8156C37.8089 17.4689 37.8022 17.4702 37.796 17.4727C37.7898 17.4752 37.7841 17.479 37.7794 17.4837C37.7746 17.4883 37.7708 17.4939 37.7683 17.5C37.7657 17.5062 37.7644 17.5127 37.7644 17.5194V20.971Z" fill="#F7271F"/>
<path d="M10.7725 35.6947V20.8801C10.7725 20.8612 10.7801 20.843 10.7937 20.8295C10.8073 20.8161 10.8258 20.8086 10.845 20.8086H23.7222C23.7415 20.8086 23.7599 20.8161 23.7735 20.8295C23.7871 20.843 23.7948 20.8612 23.7948 20.8801V26.1739C23.7947 26.1835 23.7928 26.1931 23.7889 26.2019C23.7851 26.2108 23.7794 26.2188 23.7724 26.2255L13.7701 35.7463C13.7567 35.759 13.7387 35.7662 13.72 35.7662H10.845C10.8258 35.7662 10.8073 35.7587 10.7937 35.7453C10.7801 35.7319 10.7725 35.7137 10.7725 35.6947Z" fill="#F7271F"/>
<path d="M25.0677 57.5H17.5757L17.5677 47.5889C17.5677 47.5653 17.5773 47.5427 17.5944 47.526C17.6114 47.5094 17.6345 47.5 17.6586 47.5H24.9825C25.0048 47.5 25.0262 47.5088 25.042 47.5244C25.0578 47.54 25.0666 47.5613 25.0666 47.5834L25.0677 57.5Z" fill="#F7271F"/>
<path d="M40.0677 57.5H32.5791L32.5677 47.6C32.5677 47.5333 32.6018 47.5 32.6699 47.5H39.9611C39.9746 47.5 39.9881 47.5026 40.0006 47.5077C40.0131 47.5128 40.0245 47.5202 40.0341 47.5296C40.0437 47.539 40.0513 47.5502 40.0565 47.5624C40.0617 47.5747 40.0643 47.5879 40.0643 47.6012L40.0677 57.5Z" fill="#F7271F"/>
</svg>
