<svg width="12" height="9" viewBox="0 0 12 9" fill="none" xmlns="http://www.w3.org/2000/svg">
<g clip-path="url(#clip0_404_5844)">
<path opacity="0.994" fill-rule="evenodd" clip-rule="evenodd" d="M-0.0219727 -0.0203857C1.2381 -0.0203857 2.49817 -0.0203857 3.75825 -0.0203857C3.8022 0.0882117 3.84616 0.196809 3.89011 0.305406C3.90745 0.462079 3.95141 0.611402 4.02198 0.75337C4.48783 2.22464 4.97135 3.6907 5.47253 5.15156C5.56515 4.98484 5.62374 4.80838 5.64836 4.62215C5.74027 4.43111 5.79886 4.22749 5.82418 4.01129C6.25517 2.67263 6.68005 1.32873 7.09891 -0.0203857C8.38827 -0.0203857 9.67767 -0.0203857 10.967 -0.0203857C10.967 0.0882117 10.967 0.196809 10.967 0.305406C10.967 0.454729 10.967 0.604047 10.967 0.75337C10.967 3.23753 10.967 5.7217 10.967 8.20586C10.5275 8.20586 10.0879 8.20586 9.64836 8.20586C9.47253 8.20586 9.29671 8.20586 9.12088 8.20586C8.94506 8.20586 8.76923 8.20586 8.59341 8.20586C8.60154 7.41732 8.63086 6.63 8.68132 5.84387C8.69038 5.13678 8.7197 4.43087 8.76923 3.72622C8.78607 3.1279 8.78607 2.53061 8.76923 1.93437C8.01345 4.0079 7.2662 6.08483 6.52748 8.16513C6.08888 8.20582 5.64932 8.21938 5.2088 8.20586C5.09157 8.20586 4.97438 8.20586 4.85715 8.20586C4.71064 8.20586 4.56409 8.20586 4.41759 8.20586C4.03844 7.11128 3.64284 6.02533 3.23077 4.94794C3.09794 4.416 2.92212 3.90018 2.7033 3.40043C2.55921 2.89807 2.37605 2.40938 2.15385 1.93437C2.22934 4.02379 2.29528 6.11427 2.35165 8.20586C1.89744 8.20586 1.44323 8.20586 0.989016 8.20586C0.827843 8.20586 0.666673 8.20586 0.5055 8.20586C0.329676 8.20586 0.153851 8.20586 -0.0219727 8.20586C-0.0219727 5.46379 -0.0219727 2.72169 -0.0219727 -0.0203857Z" fill="#20201E"/>
</g>
<defs>
<clipPath id="clip0_404_5844">
<rect width="12" height="9" fill="white"/>
</clipPath>
</defs>
</svg>
