<svg width="36" height="36" viewBox="0 0 36 36" fill="none" xmlns="http://www.w3.org/2000/svg">
<g clip-path="url(#clip0_1210_207)">
<path d="M18.3301 0C18.5969 0.0210951 18.864 0.0359654 19.1312 0.044611C19.2317 0.0480692 19.3472 0.0567147 19.4777 0.0705476C19.59 0.0826513 19.7045 0.0945821 19.8212 0.10634C21.9375 0.317637 23.9642 0.898617 25.9014 1.84928C27.7639 2.76294 29.4222 3.96813 30.8763 5.46484C32.367 6.99925 33.5506 8.7498 34.4273 10.7165C34.4285 10.7192 34.4289 10.7222 34.4287 10.7252C34.4284 10.7282 34.4273 10.7311 34.4257 10.7336C34.424 10.7361 34.4217 10.7382 34.419 10.7396C34.4163 10.7411 34.4133 10.7419 34.4102 10.7419H30.7085C30.6913 10.7419 30.6784 10.7345 30.6697 10.7196C30.2886 10.0643 30.041 9.66138 29.927 9.51095C29.0741 8.38357 28.1014 7.37187 27.0088 6.47585C26.7251 6.24311 26.4475 6.03994 26.1762 5.86634C24.835 5.00697 23.394 4.33245 21.8531 3.84277C21.5298 3.74006 21.1949 3.66104 20.8485 3.60571C18.9413 3.30242 17.0397 3.30294 15.1438 3.60726C14.7946 3.66329 14.4601 3.74231 14.1402 3.84432C12.6424 4.32225 11.2447 4.96997 9.94728 5.78749C9.54372 6.04202 9.15204 6.33164 8.77224 6.65637C7.71549 7.55896 6.80369 8.5283 6.03686 9.56438C5.90636 9.74075 5.67256 10.1251 5.33546 10.7175C5.32616 10.7338 5.31222 10.7419 5.29362 10.7419H1.58619C1.58351 10.7419 1.58087 10.7412 1.57853 10.7399C1.57618 10.7386 1.57419 10.7367 1.57275 10.7345C1.57132 10.7322 1.57047 10.7296 1.57029 10.7269C1.57011 10.7242 1.5706 10.7215 1.57173 10.7191C3.15738 7.15643 5.85041 4.19499 9.24587 2.29695C11.4134 1.08519 13.7379 0.3517 16.2191 0.0964842C16.3999 0.0781556 16.6406 0.0605187 16.9412 0.0435735C17.1829 0.0300865 17.4245 0.015562 17.6658 0H18.3301Z" fill="white"/>
<path d="M18.4669 8.3495C21.1386 8.34985 22.4906 8.34985 22.523 8.3495C23.2905 8.34431 23.9072 8.34172 24.5968 8.51083C25.355 8.69757 26.0104 9.14627 26.2057 9.94616C26.2642 10.1865 26.2898 10.4467 26.2826 10.7268C26.2825 10.7305 26.2807 10.734 26.2776 10.7366C26.2745 10.7392 26.2704 10.7407 26.2661 10.7409C26.202 10.7422 23.6023 10.7426 18.4669 10.7419C13.3316 10.7415 10.7319 10.7407 10.6678 10.7393C10.6635 10.7392 10.6594 10.7377 10.6563 10.7351C10.6532 10.7325 10.6514 10.729 10.6513 10.7253C10.644 10.4452 10.6697 10.1849 10.7282 9.9446C10.9235 9.14472 11.5789 8.69601 12.3376 8.50979C13.0272 8.34068 13.6439 8.34328 14.4114 8.34898C14.4434 8.34898 15.7953 8.34915 18.4669 8.3495Z" fill="white"/>
<path d="M1.21583 11.55L1.40952 11.1111C1.41074 11.1083 1.41277 11.1059 1.41534 11.1043C1.41792 11.1026 1.42092 11.1018 1.42398 11.1018H5.11024C5.11296 11.1018 5.11563 11.1025 5.11799 11.1039C5.12035 11.1053 5.1223 11.1072 5.12366 11.1096C5.12503 11.112 5.12574 11.1146 5.12574 11.1174C5.12574 11.1201 5.12503 11.1228 5.12367 11.1252L4.87161 11.564C4.87025 11.5664 4.8683 11.5683 4.86594 11.5697C4.86358 11.5711 4.86091 11.5718 4.85819 11.5718H1.22978C1.22723 11.5717 1.22473 11.5711 1.2225 11.5698C1.22027 11.5686 1.21838 11.5668 1.217 11.5646C1.21562 11.5625 1.21479 11.56 1.21459 11.5575C1.21438 11.5549 1.21481 11.5523 1.21583 11.55Z" fill="white"/>
<path d="M26.2656 11.103H10.6725C10.661 11.103 10.6518 11.1123 10.6518 11.1238V11.5512C10.6518 11.5627 10.661 11.572 10.6725 11.572H26.2656C26.277 11.572 26.2862 11.5627 26.2862 11.5512V11.1238C26.2862 11.1123 26.277 11.103 26.2656 11.103Z" fill="white"/>
<path d="M34.5905 11.1107L34.7836 11.55C34.7847 11.5524 34.7851 11.5549 34.7849 11.5575C34.7847 11.56 34.7839 11.5625 34.7825 11.5647C34.7811 11.5668 34.7792 11.5686 34.777 11.5698C34.7747 11.5711 34.7722 11.5718 34.7697 11.5718H31.1113C31.1083 11.5719 31.1053 11.571 31.1027 11.5693C31.1001 11.5677 31.0981 11.5653 31.0969 11.5625L30.9037 11.1231C30.9027 11.1208 30.9023 11.1182 30.9025 11.1156C30.9027 11.1131 30.9035 11.1106 30.9049 11.1085C30.9062 11.1063 30.9081 11.1045 30.9104 11.1033C30.9126 11.102 30.9151 11.1014 30.9176 11.1013H34.576C34.5791 11.1013 34.5821 11.1021 34.5846 11.1038C34.5872 11.1055 34.5892 11.1078 34.5905 11.1107Z" fill="white"/>
<path d="M0.796939 12.7956L1.10684 11.838C1.10793 11.8348 1.11003 11.832 1.11281 11.8301C1.1156 11.8281 1.11893 11.8271 1.12233 11.8272H4.72956C4.73229 11.8271 4.73499 11.8277 4.73741 11.829C4.73982 11.8302 4.74188 11.8321 4.74338 11.8344C4.74488 11.8367 4.74577 11.8393 4.74598 11.842C4.74618 11.8448 4.74569 11.8475 4.74454 11.85L4.32101 12.8076C4.31974 12.8103 4.3177 12.8127 4.31514 12.8143C4.31257 12.816 4.3096 12.8169 4.30655 12.8169H0.812434C0.809859 12.817 0.807309 12.8164 0.805 12.8152C0.802692 12.8141 0.800692 12.8124 0.799171 12.8103C0.797651 12.8082 0.796654 12.8058 0.796265 12.8032C0.795876 12.8007 0.796107 12.7981 0.796939 12.7956Z" fill="white"/>
<path d="M15.5818 11.8271H10.6791C10.6649 11.8271 10.6533 11.8388 10.6533 11.8531V12.791C10.6533 12.8053 10.6649 12.8169 10.6791 12.8169H15.5818C15.596 12.8169 15.6076 12.8053 15.6076 12.791V11.8531C15.6076 11.8388 15.596 11.8271 15.5818 11.8271Z" fill="white"/>
<path d="M26.2635 11.8271H21.3268C21.3157 11.8271 21.3066 11.8362 21.3066 11.8474V12.7967C21.3066 12.8078 21.3157 12.8169 21.3268 12.8169H26.2635C26.2746 12.8169 26.2836 12.8078 26.2836 12.7967V11.8474C26.2836 11.8362 26.2746 11.8271 26.2635 11.8271Z" fill="white"/>
<path d="M34.8875 11.8396L35.2077 12.793C35.2086 12.7957 35.2088 12.7986 35.2084 12.8015C35.208 12.8043 35.2069 12.807 35.2052 12.8093C35.2036 12.8116 35.2014 12.8135 35.1989 12.8149C35.1963 12.8162 35.1935 12.8169 35.1907 12.8169H31.694C31.6904 12.8169 31.687 12.8158 31.6841 12.8139C31.6811 12.812 31.6788 12.8092 31.6774 12.806L31.257 11.8526C31.2558 11.8498 31.2553 11.8468 31.2556 11.8438C31.2558 11.8408 31.2568 11.8379 31.2584 11.8354C31.2601 11.8329 31.2623 11.8308 31.2649 11.8293C31.2676 11.8279 31.2705 11.8272 31.2735 11.8271H34.8704C34.8742 11.8272 34.8779 11.8284 34.8809 11.8306C34.884 11.8329 34.8863 11.836 34.8875 11.8396Z" fill="white"/>
<path d="M0.314049 14.7154L0.642542 13.293C0.643363 13.2892 0.645447 13.2858 0.648451 13.2834C0.651455 13.2809 0.6552 13.2796 0.65907 13.2795H4.11083C4.1135 13.2796 4.11611 13.2802 4.11847 13.2815C4.12083 13.2827 4.12287 13.2845 4.12443 13.2866C4.12599 13.2888 4.12702 13.2913 4.12743 13.294C4.12785 13.2966 4.12765 13.2993 4.12685 13.3018L3.66561 14.7242C3.66453 14.7276 3.6624 14.7306 3.65952 14.7328C3.65665 14.7349 3.65318 14.7361 3.6496 14.7361H0.331093C0.328515 14.7362 0.325958 14.7357 0.323613 14.7346C0.321268 14.7335 0.319197 14.7319 0.317557 14.7299C0.315916 14.7279 0.314747 14.7256 0.31414 14.7231C0.313532 14.7205 0.313501 14.7179 0.314049 14.7154Z" fill="white"/>
<path d="M15.5838 13.2795H10.675C10.6622 13.2795 10.6518 13.29 10.6518 13.3029V14.7128C10.6518 14.7257 10.6622 14.7361 10.675 14.7361H15.5838C15.5967 14.7361 15.6071 14.7257 15.6071 14.7128V13.3029C15.6071 13.29 15.5967 13.2795 15.5838 13.2795Z" fill="white"/>
<path d="M26.2707 13.2795H21.3195C21.3121 13.2795 21.3061 13.2856 21.3061 13.293V14.7227C21.3061 14.7301 21.3121 14.7361 21.3195 14.7361H26.2707C26.2781 14.7361 26.2841 14.7301 26.2841 14.7227V13.293C26.2841 13.2856 26.2781 13.2795 26.2707 13.2795Z" fill="white"/>
<path d="M32.3215 14.7258C32.1892 14.2364 32.035 13.7595 31.8587 13.2951C31.858 13.2934 31.8578 13.2915 31.858 13.2897C31.8582 13.2879 31.8588 13.2861 31.8598 13.2846C31.8608 13.2831 31.8622 13.2818 31.8638 13.2809C31.8654 13.2801 31.8672 13.2796 31.869 13.2795H35.327C35.3349 13.2796 35.3426 13.2823 35.3488 13.2873C35.355 13.2923 35.3593 13.2993 35.3611 13.307L35.6828 14.704C35.688 14.7254 35.6796 14.7361 35.6575 14.7361H32.3349C32.3318 14.7361 32.3287 14.7351 32.3263 14.7332C32.3239 14.7313 32.3222 14.7287 32.3215 14.7258Z" fill="white"/>
<path d="M3.50964 15.7918C3.43216 16.3897 3.38654 16.98 3.37277 17.5627C3.37263 17.5698 3.36974 17.5765 3.36472 17.5815C3.3597 17.5864 3.35294 17.5892 3.34591 17.5892H0.043413C0.025852 17.5892 0.0172437 17.5804 0.0175881 17.5627C0.037215 16.841 0.0967846 16.1494 0.196297 15.4878C0.199396 15.4681 0.210759 15.4583 0.230386 15.4583H3.53495C3.53685 15.4582 3.53873 15.4586 3.54047 15.4594C3.54221 15.4602 3.54377 15.4613 3.54504 15.4627C3.54631 15.4642 3.54726 15.4658 3.54784 15.4677C3.54841 15.4695 3.5486 15.4714 3.54838 15.4733C3.54597 15.5051 3.53305 15.6113 3.50964 15.7918Z" fill="white"/>
<path d="M15.574 15.4578H10.6869C10.6684 15.4578 10.6533 15.4729 10.6533 15.4915V16.8059C10.6533 16.8246 10.6684 16.8397 10.6869 16.8397H15.574C15.5926 16.8397 15.6076 16.8246 15.6076 16.8059V15.4915C15.6076 15.4729 15.5926 15.4578 15.574 15.4578Z" fill="white"/>
<path d="M26.1782 17.5441C26.1756 17.5569 26.1687 17.5683 26.1586 17.5766C26.1485 17.5848 26.1359 17.5893 26.123 17.5892H20.9037C20.8776 17.5892 20.8736 17.5797 20.8919 17.5607C20.968 17.4815 21.0658 17.3764 21.1852 17.2453C21.2612 17.1618 21.2978 17.1141 21.2994 16.9968C21.3087 16.4449 21.3099 15.9473 21.303 15.5039C21.3023 15.4732 21.3173 15.4578 21.3479 15.4578H26.2511C26.271 15.4578 26.2812 15.4678 26.2815 15.4879C26.2857 15.74 26.2862 16.1259 26.2831 16.6457C26.2815 16.9797 26.2407 17.2557 26.1782 17.5441Z" fill="white"/>
<path d="M32.4904 15.7918C32.467 15.6113 32.454 15.5051 32.4516 15.4733C32.4514 15.4714 32.4516 15.4695 32.4522 15.4677C32.4527 15.4658 32.4537 15.4642 32.455 15.4627C32.4562 15.4613 32.4578 15.4602 32.4595 15.4594C32.4613 15.4586 32.4632 15.4582 32.4651 15.4583H35.7696C35.7892 15.4583 35.8006 15.4681 35.8037 15.4878C35.9032 16.1494 35.9628 16.841 35.9824 17.5627C35.9828 17.5804 35.9742 17.5892 35.9566 17.5892H32.6541C32.6471 17.5892 32.6403 17.5864 32.6353 17.5815C32.6303 17.5765 32.6274 17.5698 32.6272 17.5627C32.6135 16.98 32.5678 16.3897 32.4904 15.7918Z" fill="white"/>
<path d="M3.96516 22.4652H0.577954C0.569546 22.4652 0.561394 22.4624 0.554828 22.4572C0.548262 22.452 0.543669 22.4448 0.541799 22.4367C0.238442 21.2128 0.0654146 19.9827 0.0227174 18.7464C0.022373 18.7319 0.0292597 18.7246 0.0433773 18.7246L3.34432 18.7241C3.36464 18.7241 3.37514 18.7343 3.37583 18.7547C3.40992 19.5927 3.49635 20.4065 3.63511 21.1964C3.66955 21.3932 3.71999 21.5991 3.78645 21.8142C3.87012 22.0846 3.93537 22.2869 3.9822 22.4211C3.98668 22.4343 3.9853 22.4465 3.97807 22.458C3.97662 22.4602 3.97468 22.462 3.97242 22.4633C3.97017 22.4646 3.96767 22.4652 3.96516 22.4652Z" fill="white"/>
<path d="M19.8625 18.7251H25.5755C25.579 18.7251 25.5823 18.7262 25.5852 18.7281C25.5881 18.73 25.5904 18.7327 25.5918 18.7358C25.5932 18.739 25.5937 18.7425 25.5932 18.7459C25.5927 18.7494 25.5912 18.7526 25.5889 18.7552L22.2513 22.4605C22.2497 22.4624 22.2476 22.464 22.2453 22.465C22.243 22.4661 22.2404 22.4667 22.2379 22.4667H16.5249C16.5214 22.4667 16.5181 22.4656 16.5152 22.4637C16.5123 22.4618 16.51 22.4591 16.5086 22.456C16.5072 22.4528 16.5067 22.4493 16.5072 22.4459C16.5077 22.4425 16.5092 22.4392 16.5115 22.4366L19.8491 18.7313C19.8508 18.7294 19.8528 18.7278 19.8551 18.7268C19.8575 18.7257 19.86 18.7251 19.8625 18.7251Z" fill="white"/>
<path d="M32.0348 22.4652C32.0323 22.4652 32.0298 22.4646 32.0275 22.4633C32.0253 22.462 32.0233 22.4602 32.0219 22.458C32.0147 22.4465 32.0133 22.4343 32.0178 22.4211C32.0646 22.2869 32.1298 22.0846 32.2135 21.8142C32.28 21.5991 32.3304 21.3932 32.3649 21.1964C32.5036 20.4065 32.59 19.5927 32.6241 18.7547C32.6248 18.7343 32.6353 18.7241 32.6556 18.7241H35.9566C35.9707 18.7241 35.9776 18.7314 35.9772 18.7459C35.9346 19.9822 35.7615 21.2125 35.4582 22.4367C35.4563 22.4448 35.4517 22.452 35.4451 22.4572C35.4386 22.4624 35.4304 22.4652 35.422 22.4652H32.0348Z" fill="white"/>
<path d="M4.68929 24.1734C4.95512 24.7568 5.27225 25.3551 5.64068 25.9682C5.88034 26.3669 6.12946 26.7273 6.38806 27.0492C6.95552 27.7568 7.56619 28.4092 8.22008 29.0064C8.25486 29.0382 8.24866 29.0541 8.20149 29.0541C5.77256 29.0538 4.30966 29.0538 3.81279 29.0541C3.76045 29.0541 3.71982 29.0403 3.6909 29.0126C3.66507 28.9877 3.63546 28.953 3.60206 28.9084C2.515 27.448 1.66588 25.8593 1.05469 24.1423C1.05378 24.1397 1.0535 24.1369 1.05387 24.1342C1.05424 24.1315 1.05525 24.1289 1.05682 24.1267C1.05839 24.1245 1.06047 24.1226 1.06288 24.1214C1.0653 24.1201 1.06798 24.1195 1.0707 24.1194L4.63506 24.1184C4.65262 24.1184 4.66622 24.1274 4.67586 24.1454C4.67793 24.1492 4.6824 24.1585 4.68929 24.1734Z" fill="white"/>
<path d="M20.6522 24.2202C20.6033 24.2697 20.5616 24.3179 20.5272 24.365C20.4441 24.4791 20.4637 24.6503 20.4632 24.8085C20.4597 25.7878 20.459 27.192 20.4611 29.0211C20.4611 29.0425 20.4504 29.0533 20.4291 29.0533H15.5983C15.5693 29.0533 15.5549 29.0389 15.5549 29.0102C15.5556 26.4629 15.5573 25.0882 15.56 24.8863C15.5631 24.6366 15.584 24.3964 15.6225 24.1658C15.6247 24.1535 15.631 24.1424 15.6404 24.1345C15.6497 24.1265 15.6615 24.1222 15.6737 24.1222C17.2879 24.1167 18.9629 24.1168 20.6987 24.1227C20.7064 24.1228 20.7144 24.1252 20.7214 24.1295C20.7283 24.1338 20.7338 24.1398 20.7369 24.1465C20.74 24.1531 20.7405 24.16 20.7384 24.166C20.7362 24.172 20.7315 24.1766 20.725 24.1792C20.6987 24.1912 20.677 24.1953 20.6522 24.2202Z" fill="white"/>
<path d="M31.3107 24.1744C31.3176 24.1595 31.3221 24.1502 31.3241 24.1464C31.3338 24.1284 31.3474 24.1194 31.3649 24.1194L34.9283 24.1204C34.931 24.1204 34.9337 24.1211 34.9361 24.1224C34.9385 24.1236 34.9406 24.1254 34.9422 24.1277C34.9437 24.1299 34.9447 24.1325 34.9451 24.1352C34.9455 24.1379 34.9452 24.1407 34.9443 24.1432C34.3331 25.8596 33.4841 27.4476 32.3974 28.9073C32.364 28.9519 32.3344 28.9866 32.3086 29.0115C32.2797 29.0392 32.239 29.053 32.1867 29.053C31.6902 29.0527 30.228 29.0525 27.8001 29.0525C27.7529 29.0525 27.7467 29.0366 27.7815 29.0048C28.435 28.4079 29.0454 27.7559 29.6125 27.0487C29.8711 26.7271 30.1202 26.3669 30.3598 25.9681C30.7283 25.3553 31.0452 24.7574 31.3107 24.1744Z" fill="white"/>
<path d="M12.4228 31.6599C12.4295 31.6626 12.4353 31.6673 12.4393 31.6733C12.4434 31.6793 12.4455 31.6864 12.4455 31.6936V35.2355C12.4456 35.239 12.4447 35.2426 12.4431 35.2457C12.4415 35.2489 12.4392 35.2517 12.4363 35.2538C12.4334 35.2558 12.4301 35.2572 12.4266 35.2577C12.423 35.2582 12.4195 35.2579 12.4161 35.2567C10.3064 34.5571 8.38999 33.5069 6.66694 32.106C6.28164 31.7923 6.01822 31.5585 5.8767 31.4046C5.86499 31.3922 5.86758 31.3858 5.88445 31.3854C6.52938 31.3816 8.44973 31.3801 11.6455 31.3808C11.7605 31.3811 11.8493 31.3969 11.912 31.428C12.059 31.5013 12.2293 31.5786 12.4228 31.6599Z" fill="white"/>
<path d="M23.6236 31.6587C23.8158 31.5777 23.985 31.5008 24.1313 31.4278C24.1933 31.3967 24.2815 31.381 24.3958 31.3806C27.5726 31.3778 29.4816 31.378 30.1227 31.3811C30.1393 31.3815 30.1417 31.3879 30.13 31.4003C29.9895 31.5535 29.7279 31.7861 29.3454 32.098C27.6334 33.4917 25.729 34.5369 23.6324 35.2338C23.6291 35.2348 23.6256 35.2351 23.6222 35.2345C23.6188 35.234 23.6156 35.2327 23.6128 35.2306C23.61 35.2286 23.6077 35.226 23.606 35.2229C23.6044 35.2199 23.6036 35.2165 23.6035 35.213L23.6009 31.6924C23.6009 31.6851 23.6031 31.678 23.6071 31.672C23.6112 31.666 23.6169 31.6613 23.6236 31.6587Z" fill="white"/>
<path d="M20.394 36H15.6133L15.4991 35.9689C15.4823 35.9641 15.4738 35.953 15.4738 35.9357V31.9327C15.4738 31.9015 15.4893 31.886 15.5203 31.886H20.5288C20.5358 31.886 20.5425 31.8888 20.5474 31.8937C20.5524 31.8987 20.5551 31.9054 20.5551 31.9124V35.9352C20.5551 35.9528 20.5467 35.9637 20.5298 35.9679L20.394 36Z" fill="white"/>
</g>
<defs>
<clipPath id="clip0_1210_207">
<rect width="36" height="36" fill="white"/>
</clipPath>
</defs>
</svg>
