<svg width="37" height="36" viewBox="0 0 37 36" fill="none" xmlns="http://www.w3.org/2000/svg">
<g clip-path="url(#clip0_1005_368)">
<path opacity="0.986" fill-rule="evenodd" clip-rule="evenodd" d="M17.1359 -0.026123C18.0017 -0.026123 18.8675 -0.026123 19.7333 -0.026123C20.3527 0.0402588 20.976 0.12709 21.6034 0.234369C21.9969 1.61768 22.3951 2.99828 22.7982 4.37619C23.5587 4.61888 24.2946 4.92279 25.006 5.28791C26.1856 4.6444 27.3544 3.9758 28.5125 3.28213C28.6094 3.21433 28.7133 3.19696 28.8242 3.23003C30.552 4.45045 32.0065 5.93524 33.1878 7.68444C32.6636 8.64941 32.1268 9.60453 31.5774 10.5499C22.8329 10.6193 14.0882 10.6193 5.34367 10.5499C4.79359 9.60286 4.25679 8.64774 3.73328 7.68444C4.9146 5.93524 6.36912 4.45045 8.09691 3.23003C8.20782 3.19696 8.31172 3.21433 8.4086 3.28213C9.56668 3.9758 10.7355 4.6444 11.9151 5.28791C12.6265 4.92279 13.3624 4.61888 14.1229 4.37619C14.526 2.99828 14.9242 1.61768 15.3177 0.234369C15.9283 0.132001 16.5344 0.04517 17.1359 -0.026123Z" fill="#FEFFFE"/>
<path opacity="0.908" fill-rule="evenodd" clip-rule="evenodd" d="M5.55145 10.9667C14.1488 10.906 22.7549 10.8973 31.3696 10.9407C31.2896 11.0926 31.203 11.2402 31.1099 11.3835C27.2658 11.4443 23.4217 11.453 19.5774 11.4096C18.8329 11.3054 18.0882 11.3054 17.3437 11.4096C13.4994 11.453 9.65525 11.4443 5.81119 11.3835C5.7233 11.2412 5.63674 11.1023 5.55145 10.9667Z" fill="#FEFFFE"/>
<path opacity="0.945" fill-rule="evenodd" clip-rule="evenodd" d="M5.70728 11.6439C9.2571 11.6352 12.8069 11.6439 16.3566 11.6699C15.684 11.9117 15.0606 12.2417 14.4865 12.6598C11.4043 12.6946 8.32198 12.6946 5.23975 12.6598C5.38065 12.3139 5.53649 11.9753 5.70728 11.6439Z" fill="#FEFFFE"/>
<path opacity="0.945" fill-rule="evenodd" clip-rule="evenodd" d="M20.5645 11.6962C24.1055 11.6355 27.6553 11.6268 31.2138 11.6701C31.3897 11.9912 31.5455 12.3211 31.6813 12.66C28.5991 12.6948 25.5168 12.6948 22.4346 12.66C21.8649 12.235 21.2415 11.9138 20.5645 11.6962Z" fill="#FEFFFE"/>
<path opacity="0.949" fill-rule="evenodd" clip-rule="evenodd" d="M5.08393 13.1029C8.02772 13.0942 10.9714 13.1029 13.9151 13.1289C13.4651 13.5539 13.0841 14.0314 12.7722 14.5616C9.01478 14.6224 5.25721 14.6311 1.49951 14.5877C2.64752 14.308 3.78172 13.9867 4.90211 13.6239C4.97793 13.4546 5.03854 13.281 5.08393 13.1029Z" fill="#FEFFFE"/>
<path opacity="0.949" fill-rule="evenodd" clip-rule="evenodd" d="M23.006 13.1548C25.9411 13.0854 28.8848 13.0854 31.8372 13.1548C31.8978 13.3111 31.9583 13.4674 32.019 13.6237C33.1399 13.9867 34.274 14.308 35.4216 14.5875C31.6639 14.6309 27.9063 14.6222 24.1488 14.5614C23.8437 14.0298 23.4628 13.5609 23.006 13.1548Z" fill="#FEFFFE"/>
<path opacity="0.973" fill-rule="evenodd" clip-rule="evenodd" d="M0.720252 15.2909C4.61639 15.2822 8.51251 15.2909 12.4086 15.3169C12.0966 16.0042 11.9061 16.7249 11.8371 17.479C8.06222 17.479 4.28735 17.479 0.512459 17.479C0.50746 16.74 0.576724 16.0106 0.720252 15.2909Z" fill="#FEFFFE"/>
<path opacity="0.974" fill-rule="evenodd" clip-rule="evenodd" d="M24.5125 15.3429C28.3999 15.2822 32.296 15.2735 36.2008 15.3169C36.3426 16.028 36.4119 16.7487 36.4086 17.479C32.6337 17.479 28.8588 17.479 25.0839 17.479C25.0496 17.0372 24.9716 16.603 24.8502 16.1765C24.7718 15.8788 24.6593 15.6009 24.5125 15.3429Z" fill="#FEFFFE"/>
<path opacity="0.982" fill-rule="evenodd" clip-rule="evenodd" d="M0.512512 18.573C4.28741 18.573 8.06228 18.573 11.8372 18.573C12.005 20.0116 12.5591 21.2707 13.4995 22.3501C10.6424 22.3849 7.78524 22.3849 4.9281 22.3501C4.78704 22.2507 4.63119 22.1813 4.46056 22.1417C3.26453 21.8259 2.06972 21.5046 0.876149 21.1779C0.816548 21.1614 0.773258 21.1267 0.746278 21.0737C0.606195 20.2459 0.528273 19.4123 0.512512 18.573Z" fill="#FEFFFE"/>
<path opacity="0.982" fill-rule="evenodd" clip-rule="evenodd" d="M25.0839 18.573C28.8588 18.573 32.6337 18.573 36.4086 18.573C36.3928 19.4123 36.3149 20.2459 36.1748 21.0737C36.1479 21.1267 36.1045 21.1614 36.0449 21.1779C34.7999 21.5218 33.5532 21.8604 32.3047 22.1938C32.1863 22.2185 32.0824 22.2706 31.993 22.3501C29.1359 22.3849 26.2787 22.3849 23.4216 22.3501C24.362 21.2707 24.9161 20.0116 25.0839 18.573Z" fill="#FEFFFE"/>
<path opacity="0.975" fill-rule="evenodd" clip-rule="evenodd" d="M5.55146 24.0434C8.91936 23.9827 12.296 23.974 15.6813 24.0173C17.5344 24.815 19.3872 24.815 21.2398 24.0173C24.6164 23.9826 27.993 23.9826 31.3696 24.0173C31.2382 24.2017 31.1603 24.4014 31.1359 24.6164C31.8324 25.8223 32.5164 27.0379 33.1878 28.2633C33.0602 28.5448 32.8871 28.7966 32.6683 29.0188C23.1965 29.0535 13.7246 29.0535 4.25276 29.0188C4.06832 28.8165 3.90382 28.5994 3.75925 28.3675C3.72462 28.2981 3.72462 28.2286 3.75925 28.1591C4.43602 26.9749 5.11134 25.794 5.78523 24.6164C5.76543 24.4028 5.68751 24.2118 5.55146 24.0434Z" fill="#FEFFFE"/>
<path opacity="0.83" fill-rule="evenodd" clip-rule="evenodd" d="M6.22675 31.233C7.79371 31.1724 9.36945 31.1637 10.954 31.207C10.0377 31.7186 9.11989 32.231 8.20077 32.7439C8.05578 32.6798 7.91724 32.6016 7.78519 32.5094C7.2549 32.0898 6.73542 31.6643 6.22675 31.233Z" fill="#FEFFFE"/>
<path opacity="0.958" fill-rule="evenodd" clip-rule="evenodd" d="M19.7333 35.974C18.8848 35.974 18.0363 35.974 17.1878 35.974C16.5684 35.9076 15.9451 35.8208 15.3177 35.7135C14.9299 34.3816 14.5576 33.0444 14.2008 31.7019C14.1814 31.6542 14.1554 31.6107 14.1229 31.5717C13.7939 31.4501 13.4649 31.3285 13.1359 31.207C16.6856 31.1722 20.2354 31.1722 23.7852 31.207C23.4594 31.3364 23.1304 31.458 22.7982 31.5717C22.7657 31.6107 22.7397 31.6542 22.7203 31.7019C22.3635 33.0444 21.9912 34.3816 21.6034 35.7135C20.976 35.8208 20.3526 35.9076 19.7333 35.974Z" fill="#FEFFFE"/>
<path opacity="0.831" fill-rule="evenodd" clip-rule="evenodd" d="M26.019 31.233C27.5686 31.1724 29.1271 31.1637 30.6943 31.207C30.0734 31.7692 29.4153 32.2814 28.7203 32.7439C27.8171 32.239 26.9166 31.7354 26.019 31.233Z" fill="#FEFFFE"/>
</g>
<defs>
<clipPath id="clip0_1005_368">
<rect width="36" height="36" fill="white" transform="translate(0.486511)"/>
</clipPath>
</defs>
</svg>
