<svg width="37" height="36" viewBox="0 0 37 36" fill="none" xmlns="http://www.w3.org/2000/svg">
<g clip-path="url(#clip0_1216_298)">
<path d="M2.06564 10.6724C2.79047 9.05054 3.7286 7.56005 4.88005 6.20098C6.14272 4.71083 7.60923 3.45671 9.27959 2.43861C9.31161 2.4189 9.34364 2.4189 9.37566 2.43861C9.39735 2.45175 9.42025 2.48011 9.44435 2.52368C9.68504 2.95665 10.2441 3.90766 11.1214 5.37671C11.1309 5.39267 11.1339 5.41172 11.1296 5.42976C11.1254 5.4478 11.1143 5.46339 11.0987 5.47319C9.73859 6.33844 8.54117 7.39527 7.50645 8.64368C6.97135 9.28899 6.50582 9.95763 6.10983 10.6496C6.10307 10.6616 6.09325 10.6715 6.08136 10.6785C6.06948 10.6854 6.05595 10.689 6.04217 10.689H2.07649C2.07454 10.689 2.07261 10.6885 2.0709 10.6876C2.06918 10.6867 2.06772 10.6853 2.06664 10.6837C2.06557 10.682 2.06492 10.6801 2.06474 10.6782C2.06457 10.6762 2.06488 10.6743 2.06564 10.6724Z" fill="white"/>
<path d="M35.0157 10.6744C35.0165 10.6762 35.0168 10.6781 35.0166 10.6801C35.0164 10.6821 35.0158 10.6839 35.0147 10.6856C35.0136 10.6872 35.0122 10.6886 35.0104 10.6895C35.0087 10.6905 35.0068 10.691 35.0048 10.691L31.0392 10.6915C31.0254 10.6915 31.0119 10.6878 31 10.6809C30.9881 10.674 30.9783 10.664 30.9715 10.6521C30.5755 9.96007 30.1098 9.29143 29.5744 8.64612C28.5397 7.39771 27.3422 6.34088 25.9821 5.47564C25.9665 5.46583 25.9554 5.45024 25.9512 5.4322C25.9469 5.41416 25.9499 5.39511 25.9594 5.37915C26.8364 3.9101 27.3953 2.95909 27.636 2.52613C27.6601 2.48255 27.683 2.45419 27.7047 2.44105C27.7367 2.42134 27.7687 2.42134 27.8007 2.44105C29.4714 3.45915 30.9381 4.7131 32.2008 6.2029C33.3522 7.56198 34.2905 9.05247 35.0157 10.6744Z" fill="white"/>
<path d="M14.1124 10.6733C14.119 10.6844 14.1157 10.6899 14.1026 10.6899L10.5941 10.6905C10.5765 10.6905 10.5737 10.6841 10.5858 10.6713C10.9367 10.2992 11.291 9.96424 11.6487 9.66648C12.0213 9.35594 12.4188 9.067 12.8413 8.79968C12.9202 8.74954 12.9832 8.76458 13.0304 8.84481L14.1124 10.6733Z" fill="white"/>
<path d="M22.9663 10.6733L24.0478 8.84481C24.095 8.76458 24.158 8.74954 24.2369 8.79968C24.6594 9.067 25.0569 9.35594 25.4295 9.66648C25.7869 9.96424 26.141 10.299 26.4919 10.6707C26.504 10.6835 26.5012 10.6899 26.4836 10.6899H22.9761C22.963 10.6899 22.9597 10.6844 22.9663 10.6733Z" fill="white"/>
<path d="M1.71957 11.4967L1.90757 11.0589C1.90886 11.056 1.91096 11.0535 1.91362 11.0518C1.91627 11.05 1.91938 11.0491 1.92255 11.0491H5.85363C5.8565 11.0491 5.8593 11.0499 5.86176 11.0514C5.86422 11.0529 5.86626 11.055 5.86767 11.0575C5.86907 11.06 5.86981 11.0629 5.86979 11.0658C5.86977 11.0686 5.86901 11.0715 5.86757 11.074L5.61604 11.5118C5.61462 11.5143 5.61259 11.5163 5.61015 11.5178C5.60771 11.5192 5.60493 11.52 5.60209 11.5201H1.73506C1.73228 11.5201 1.72952 11.5195 1.72704 11.5182C1.72457 11.5169 1.72246 11.515 1.72092 11.5127C1.71937 11.5104 1.71843 11.5077 1.7182 11.5049C1.71796 11.5021 1.71843 11.4993 1.71957 11.4967Z" fill="white"/>
<path d="M14.3454 11.0574L14.5897 11.4952C14.5912 11.4977 14.5919 11.5006 14.5919 11.5035C14.5919 11.5064 14.5911 11.5093 14.5897 11.5118C14.5882 11.5144 14.5861 11.5165 14.5836 11.5179C14.581 11.5194 14.5782 11.5201 14.5752 11.5201H9.90558C9.90246 11.5201 9.89941 11.5192 9.89677 11.5175C9.89413 11.5159 9.89202 11.5135 9.89067 11.5107C9.88932 11.5079 9.88879 11.5047 9.88914 11.5016C9.8895 11.4985 9.89072 11.4955 9.89266 11.4931L10.249 11.0553C10.2506 11.0534 10.2526 11.0518 10.2548 11.0507C10.257 11.0496 10.2595 11.0491 10.262 11.0491H14.3309C14.3339 11.049 14.3367 11.0498 14.3393 11.0513C14.3418 11.0527 14.3439 11.0548 14.3454 11.0574Z" fill="white"/>
<path d="M22.4875 11.4967L22.7401 11.0569C22.7414 11.0545 22.7434 11.0525 22.7457 11.0512C22.7481 11.0498 22.7508 11.0491 22.7535 11.0491H26.8189C26.8211 11.0491 26.8234 11.0496 26.8254 11.0506C26.8275 11.0516 26.8293 11.053 26.8307 11.0548L27.1892 11.4947C27.191 11.4969 27.1922 11.4997 27.1926 11.5026C27.1929 11.5055 27.1925 11.5085 27.1912 11.5111C27.19 11.5138 27.188 11.516 27.1855 11.5176C27.1831 11.5192 27.1802 11.5201 27.1773 11.5201H22.5009C22.4982 11.5201 22.4955 11.5194 22.4932 11.518C22.4908 11.5166 22.4889 11.5147 22.4875 11.5123C22.4861 11.5099 22.4854 11.5073 22.4854 11.5045C22.4854 11.5018 22.4861 11.4991 22.4875 11.4967Z" fill="white"/>
<path d="M35.1696 11.0589L35.3597 11.4967C35.3608 11.4993 35.3613 11.5021 35.3611 11.5049C35.3608 11.5077 35.3599 11.5104 35.3584 11.5127C35.3568 11.515 35.3547 11.5169 35.3522 11.5182C35.3498 11.5195 35.347 11.5201 35.3442 11.5201H31.4684C31.4655 11.5201 31.4626 11.5194 31.4601 11.5179C31.4575 11.5164 31.4554 11.5143 31.4539 11.5118L31.2102 11.074C31.2087 11.0714 31.2079 11.0686 31.2079 11.0656C31.208 11.0627 31.2087 11.0598 31.2102 11.0573C31.2117 11.0548 31.2138 11.0527 31.2163 11.0512C31.2188 11.0498 31.2217 11.049 31.2246 11.0491H35.1547C35.1578 11.0491 35.1609 11.05 35.1636 11.0518C35.1663 11.0535 35.1684 11.056 35.1696 11.0589Z" fill="white"/>
<path d="M1.29142 12.7431L1.62146 11.7866C1.62254 11.7833 1.62461 11.7804 1.62739 11.7784C1.63016 11.7763 1.63351 11.7752 1.63695 11.7752H5.47816C5.48095 11.7751 5.4837 11.7757 5.48618 11.777C5.48865 11.7783 5.49076 11.7802 5.49231 11.7825C5.49385 11.7849 5.49479 11.7876 5.49502 11.7903C5.49526 11.7931 5.49479 11.7959 5.49365 11.7985L5.08252 12.755C5.08123 12.758 5.07913 12.7604 5.07648 12.7622C5.07382 12.7639 5.07072 12.7649 5.06754 12.7649H1.30691C1.30432 12.7649 1.30176 12.7642 1.29946 12.763C1.29716 12.7618 1.29518 12.7601 1.29367 12.7579C1.29216 12.7558 1.29117 12.7534 1.29078 12.7508C1.29039 12.7482 1.29061 12.7456 1.29142 12.7431Z" fill="white"/>
<path d="M9.63027 11.8407C9.65713 11.7978 9.69587 11.7762 9.74649 11.7758C11.1534 11.7748 12.7837 11.7746 14.6372 11.7753C14.6489 11.7753 14.6734 11.7847 14.7106 11.8033C14.7274 11.8116 14.7271 11.8198 14.7095 11.8277C14.6749 11.8443 14.615 11.8594 14.5716 11.8879C14.1873 12.141 13.8317 12.4199 13.5045 12.7246C13.4759 12.751 13.4385 12.7656 13.3997 12.7656H9.08279C9.08004 12.7657 9.07733 12.765 9.07495 12.7636C9.07256 12.7622 9.0706 12.7603 9.06927 12.7578C9.06794 12.7554 9.06729 12.7527 9.06739 12.75C9.0675 12.7472 9.06836 12.7445 9.06987 12.7422L9.63027 11.8407Z" fill="white"/>
<path d="M27.4464 11.8401L28.0068 12.7406C28.0083 12.7429 28.0092 12.7456 28.0093 12.7483C28.0094 12.7511 28.0088 12.7538 28.0074 12.7562C28.0061 12.7586 28.0041 12.7606 28.0017 12.762C27.9994 12.7633 27.9966 12.764 27.9939 12.764L23.6801 12.7655C23.6412 12.7655 23.6038 12.7509 23.5753 12.7245C23.2485 12.4202 22.893 12.1416 22.5087 11.8889C22.4653 11.8603 22.4054 11.8453 22.3713 11.8287C22.3537 11.8207 22.3532 11.8126 22.3697 11.8043C22.4069 11.7856 22.4314 11.7763 22.4431 11.7763C24.2953 11.7749 25.9243 11.7746 27.3302 11.7752C27.3808 11.7756 27.4196 11.7972 27.4464 11.8401Z" fill="white"/>
<path d="M35.4615 11.7892L35.7874 12.7374C35.7884 12.7405 35.7888 12.7439 35.7883 12.7471C35.7878 12.7504 35.7865 12.7535 35.7846 12.7562C35.7827 12.7589 35.7802 12.7611 35.7772 12.7626C35.7743 12.7641 35.771 12.7649 35.7677 12.7649H32.0159C32.0119 12.7648 32.0081 12.7636 32.0048 12.7614C32.0015 12.7592 31.9989 12.7561 31.9973 12.7524L31.5867 11.8042C31.5853 11.801 31.5847 11.7976 31.585 11.7941C31.5853 11.7907 31.5865 11.7873 31.5884 11.7845C31.5903 11.7816 31.5929 11.7792 31.5959 11.7776C31.599 11.776 31.6024 11.7751 31.6058 11.7751H35.4418C35.4462 11.7751 35.4504 11.7765 35.4539 11.779C35.4574 11.7815 35.4601 11.7851 35.4615 11.7892Z" fill="white"/>
<path d="M4.8914 13.2978C4.74265 13.7159 4.61215 14.1689 4.49989 14.6569C4.49576 14.6752 4.48423 14.6844 4.46529 14.6844H0.837397C0.815016 14.6844 0.806407 14.6733 0.811572 14.6512L1.13748 13.2688C1.14403 13.2414 1.16124 13.2278 1.18913 13.2278L4.88107 13.2283C4.88744 13.2284 4.89372 13.2302 4.89916 13.2336C4.9046 13.237 4.90895 13.2418 4.91169 13.2474C4.91443 13.253 4.91543 13.2592 4.91458 13.2652C4.91373 13.2712 4.91106 13.2768 4.9069 13.2812C4.90517 13.2826 4.90173 13.2857 4.89656 13.2905C4.89416 13.2926 4.89243 13.295 4.8914 13.2978Z" fill="white"/>
<path d="M12.9426 13.3386C12.61 13.7442 12.3283 14.1798 12.0976 14.6453C12.0917 14.657 12.0827 14.6668 12.0716 14.6736C12.0604 14.6805 12.0476 14.6842 12.0346 14.6842H8.26311C8.25871 14.6842 8.25437 14.6831 8.25046 14.6811C8.24655 14.6791 8.24318 14.6761 8.24065 14.6725C8.23812 14.6689 8.23649 14.6647 8.2359 14.6603C8.23531 14.656 8.23579 14.6515 8.23728 14.6473C8.40015 14.1729 8.58816 13.7107 8.8013 13.2608C8.80592 13.2509 8.81327 13.2425 8.82251 13.2366C8.83175 13.2307 8.84249 13.2276 8.85347 13.2276C11.1715 13.2262 12.544 13.2276 12.971 13.2317C12.9896 13.2321 13.0037 13.2367 13.0134 13.2457C13.0271 13.2592 13.0257 13.271 13.0092 13.281C12.9841 13.2962 12.9619 13.3154 12.9426 13.3386Z" fill="white"/>
<path d="M24.1356 13.3376C24.1163 13.3144 24.0941 13.2952 24.069 13.28C24.0525 13.27 24.0511 13.2582 24.0649 13.2447C24.0745 13.2357 24.0886 13.2312 24.1072 13.2312C24.5339 13.2271 25.9057 13.2262 28.2227 13.2286C28.2337 13.2286 28.2444 13.2318 28.2536 13.2377C28.2629 13.2435 28.2702 13.2519 28.2749 13.2618C28.4877 13.7117 28.6753 14.1739 28.8378 14.6484C28.8393 14.6526 28.8398 14.657 28.8392 14.6614C28.8386 14.6658 28.837 14.67 28.8345 14.6736C28.8319 14.6772 28.8286 14.6801 28.8247 14.6822C28.8208 14.6842 28.8164 14.6852 28.812 14.6852L25.0426 14.6832C25.0296 14.6831 25.0168 14.6795 25.0056 14.6726C24.9945 14.6658 24.9855 14.6559 24.9796 14.6443C24.7492 14.1788 24.4679 13.7432 24.1356 13.3376Z" fill="white"/>
<path d="M35.9366 13.2413L36.2703 14.6626C36.2709 14.6652 36.2709 14.6679 36.2704 14.6705C36.2698 14.6731 36.2687 14.6755 36.267 14.6776C36.2654 14.6797 36.2633 14.6814 36.2609 14.6826C36.2585 14.6838 36.2559 14.6844 36.2533 14.6844H32.6145C32.6108 14.6843 32.6072 14.6831 32.6042 14.6809C32.6013 14.6786 32.5991 14.6755 32.598 14.6719L32.1817 13.2506C32.1809 13.248 32.1807 13.2452 32.1811 13.2425C32.1816 13.2398 32.1827 13.2373 32.1843 13.235C32.1859 13.2328 32.188 13.231 32.1904 13.2298C32.1928 13.2285 32.1955 13.2278 32.1982 13.2278H35.9196C35.9235 13.2278 35.9273 13.2291 35.9304 13.2316C35.9335 13.234 35.9357 13.2374 35.9366 13.2413Z" fill="white"/>
<path d="M18.5352 14.348C18.54 14.348 18.5457 14.3478 18.5523 14.3475C19.0849 14.3361 19.592 14.4433 20.0734 14.6691C20.0789 14.6715 20.0785 14.6727 20.0723 14.6727C19.5613 14.68 19.0491 14.6838 18.5357 14.6842C18.0223 14.6845 17.51 14.6816 16.9986 14.6753C16.9924 14.6753 16.9921 14.6741 16.9976 14.6717C17.4786 14.4449 17.9855 14.3368 18.5182 14.3475C18.5247 14.3478 18.5304 14.348 18.5352 14.348Z" fill="white"/>
<path d="M4.32892 15.4737C4.21564 16.1107 4.14471 16.7899 4.11613 17.5113C4.11544 17.5286 4.10631 17.5372 4.08875 17.5372H0.552281C0.532999 17.5372 0.523529 17.5275 0.523874 17.5082C0.538336 16.7937 0.594979 16.1039 0.693802 15.4389C0.696901 15.4171 0.709641 15.4062 0.732023 15.4062H4.30723C4.32307 15.4062 4.33168 15.4142 4.33306 15.4301C4.33374 15.4405 4.33237 15.455 4.32892 15.4737Z" fill="white"/>
<path d="M11.7583 15.454C11.5717 15.9461 11.436 16.5373 11.3513 17.2275C11.3382 17.3347 11.3351 17.4267 11.342 17.5035C11.3441 17.526 11.3337 17.5372 11.311 17.5372H7.76058C7.74749 17.5372 7.74112 17.5306 7.74147 17.5175C7.76075 16.8162 7.85389 16.1212 8.02089 15.4327C8.02537 15.4151 8.03673 15.4063 8.05498 15.4063H11.7345C11.7401 15.4062 11.7455 15.4079 11.7501 15.4111C11.7546 15.4142 11.758 15.4187 11.7598 15.4239C11.7629 15.4329 11.7624 15.4429 11.7583 15.454Z" fill="white"/>
<path d="M18.5388 15.4062C20.0085 15.4062 20.845 15.4073 21.0485 15.4094C21.0662 15.4096 21.0837 15.4133 21.0999 15.4203C21.1162 15.4273 21.1308 15.4376 21.143 15.4503C21.6761 16.0113 22.0003 16.6915 22.1156 17.491C22.1197 17.5204 22.107 17.5351 22.0774 17.5351C21.8584 17.5365 20.6789 17.5372 18.5388 17.5372C16.3988 17.5372 15.2191 17.5367 14.9998 17.5356C14.9702 17.5353 14.9574 17.5204 14.9616 17.491C15.0769 16.6915 15.4011 16.0113 15.9341 15.4503C15.9464 15.4375 15.9612 15.4272 15.9775 15.4202C15.9938 15.4132 16.0114 15.4095 16.0292 15.4094C16.2327 15.4073 17.0692 15.4062 18.5388 15.4062Z" fill="white"/>
<path d="M25.321 15.4535C25.3169 15.4424 25.3163 15.4324 25.3194 15.4234C25.3213 15.4182 25.3247 15.4137 25.3292 15.4106C25.3337 15.4074 25.3392 15.4057 25.3447 15.4058L29.0243 15.4063C29.0425 15.4063 29.0539 15.4151 29.0584 15.4327C29.2254 16.1213 29.3185 16.8162 29.3378 17.5175C29.3381 17.5307 29.3318 17.5372 29.3187 17.5372L25.7683 17.5367C25.7455 17.5367 25.7352 17.5255 25.7373 17.503C25.7442 17.4262 25.7411 17.3342 25.728 17.227C25.6433 16.5368 25.5076 15.9456 25.321 15.4535Z" fill="white"/>
<path d="M36.5136 16.5677V17.5362L32.9884 17.5357C32.9685 17.5357 32.9587 17.5255 32.959 17.5051C32.9597 17.3826 32.9578 17.2817 32.9533 17.2021C32.9444 17.0348 32.9167 16.728 32.8702 16.2819C32.8564 16.1512 32.8357 16.0106 32.8082 15.8602C32.7844 15.7288 32.7662 15.587 32.7534 15.4348C32.7532 15.4311 32.7536 15.4274 32.7548 15.4238C32.756 15.4203 32.7579 15.4171 32.7604 15.4144C32.7629 15.4116 32.7659 15.4095 32.7692 15.408C32.7725 15.4065 32.7761 15.4057 32.7798 15.4058H36.37C36.3741 15.4058 36.3781 15.4074 36.3811 15.4102C36.3842 15.4131 36.3861 15.4171 36.3865 15.4213L36.5136 16.5677Z" fill="white"/>
<path d="M4.80049 22.4035C4.8009 22.4046 4.80103 22.4058 4.80086 22.4069C4.80069 22.4081 4.80024 22.4092 4.79953 22.4101C4.79882 22.4111 4.79788 22.4119 4.79679 22.4125C4.7957 22.413 4.79449 22.4133 4.79326 22.4134H1.08066C1.07592 22.4134 1.07131 22.4117 1.06757 22.4087C1.06382 22.4057 1.06116 22.4015 1.06 22.3968C0.755956 21.1857 0.579658 19.9535 0.531107 18.7003C0.530418 18.6826 0.538682 18.6738 0.555899 18.6738H4.10115C4.12043 18.6738 4.13059 18.6835 4.13162 18.7029C4.18809 19.7552 4.34494 20.77 4.60215 21.7473C4.66138 21.9721 4.72749 22.1908 4.80049 22.4035Z" fill="white"/>
<path d="M11.3864 18.7522C11.3909 18.9877 11.4468 19.301 11.5542 19.6921C11.8276 20.6877 12.2777 21.5871 12.9044 22.3901C12.9168 22.406 12.913 22.4139 12.893 22.4139H8.77651C8.76569 22.4139 8.75508 22.4108 8.74593 22.4049C8.73678 22.399 8.72947 22.3906 8.72486 22.3807C8.22488 21.3083 7.91344 20.2077 7.79051 19.079C7.78603 19.0392 7.77639 18.913 7.76159 18.7003C7.76137 18.697 7.76184 18.6936 7.76297 18.6905C7.76409 18.6874 7.76585 18.6845 7.76812 18.6821C7.7704 18.6796 7.77315 18.6777 7.7762 18.6764C7.77925 18.675 7.78254 18.6744 7.78586 18.6744L11.3296 18.6733C11.3519 18.6733 11.3695 18.686 11.3822 18.7112C11.3847 18.7157 11.386 18.7294 11.3864 18.7522Z" fill="white"/>
<path d="M18.5389 18.6734C20.7061 18.673 21.8725 18.6744 22.0382 18.6775C22.0433 18.6776 22.0483 18.6788 22.0529 18.6812C22.0574 18.6836 22.0613 18.6871 22.0642 18.6913C22.0672 18.6955 22.0691 18.7004 22.0697 18.7055C22.0704 18.7106 22.0699 18.7158 22.0681 18.7206C22.0461 18.786 22.0201 18.8705 21.9901 18.9743C21.8676 19.4017 21.6656 19.7961 21.3843 20.1575C20.821 20.8802 20.0843 21.3302 19.1742 21.5072C19.0492 21.5318 18.8374 21.5441 18.5389 21.5441C18.2403 21.5441 18.0288 21.5318 17.9041 21.5072C16.9937 21.3302 16.2568 20.8804 15.6935 20.158C15.4122 19.7966 15.2102 19.4022 15.0876 18.9748C15.0577 18.871 15.0317 18.7865 15.0096 18.7211C15.0079 18.7163 15.0074 18.7112 15.008 18.7061C15.0087 18.701 15.0105 18.6962 15.0134 18.692C15.0163 18.6878 15.0201 18.6843 15.0246 18.6819C15.029 18.6795 15.034 18.6782 15.0391 18.6781C15.2047 18.6749 16.3713 18.6734 18.5389 18.6734Z" fill="white"/>
<path d="M25.6919 18.7532C25.6922 18.7304 25.6936 18.7167 25.696 18.7122C25.7087 18.687 25.7263 18.6743 25.7487 18.6743L29.2908 18.6738C29.2942 18.6738 29.2974 18.6745 29.3005 18.6758C29.3035 18.6771 29.3063 18.6791 29.3086 18.6815C29.3108 18.6839 29.3126 18.6868 29.3137 18.69C29.3149 18.6931 29.3153 18.6964 29.3151 18.6998C29.3003 18.9124 29.2908 19.0387 29.2867 19.0784C29.1641 20.2069 28.8532 21.3071 28.3539 22.3791C28.3493 22.3891 28.342 22.3975 28.3328 22.4033C28.3237 22.4092 28.3131 22.4123 28.3023 22.4123L24.1873 22.4144C24.1673 22.4144 24.1635 22.4065 24.1759 22.3905C24.8019 21.5875 25.2515 20.6882 25.5245 19.6926C25.6316 19.3018 25.6874 18.9887 25.6919 18.7532Z" fill="white"/>
<path d="M36.5135 18.6753V19.3611C36.4326 20.3816 36.2689 21.3912 36.0223 22.3899C36.0207 22.3966 36.017 22.4025 36.0116 22.4067C36.0063 22.4109 35.9997 22.4132 35.9929 22.4133H32.3196C32.2955 22.4133 32.287 22.4017 32.2943 22.3785C32.6665 21.1823 32.8836 19.9576 32.9456 18.7043C32.9466 18.6864 32.9561 18.6774 32.974 18.6774L36.5135 18.6753Z" fill="white"/>
<path d="M5.43269 24.0722C6.3011 25.958 7.51797 27.5934 9.08331 28.9784C9.10053 28.9936 9.0976 29.0012 9.07453 29.0012H4.25869C4.25096 29.0012 4.24332 28.9994 4.23634 28.996C4.22936 28.9926 4.22323 28.9877 4.2184 28.9815C3.0852 27.4924 2.20406 25.8676 1.57496 24.107C1.57348 24.1026 1.57306 24.098 1.57374 24.0934C1.57441 24.0888 1.57616 24.0845 1.57883 24.0807C1.58151 24.077 1.58504 24.0739 1.58912 24.0718C1.59321 24.0697 1.59774 24.0686 1.60233 24.0686H5.4265C5.42775 24.0686 5.42899 24.069 5.43007 24.0696C5.43116 24.0702 5.43206 24.0711 5.43269 24.0722Z" fill="white"/>
<path d="M9.72376 24.136L9.70774 24.1308C9.70076 24.1285 9.69516 24.1237 9.69195 24.1174C9.68875 24.1111 9.68815 24.1036 9.69028 24.0964C9.69241 24.0892 9.69711 24.0827 9.70354 24.078C9.70997 24.0734 9.71769 24.071 9.7253 24.0712C11.3695 24.0677 12.9498 24.0672 14.4663 24.0696C14.5706 24.07 14.6451 24.085 14.6899 24.1147C14.7522 24.1555 14.8157 24.2038 14.8805 24.2595C14.887 24.2651 14.8921 24.2722 14.8952 24.2801C14.8984 24.2881 14.8995 24.2967 14.8986 24.3051C14.8951 24.3355 14.8758 24.3807 14.8407 24.4405C14.2571 25.4302 13.6941 26.3804 13.1518 27.2909C13.1463 27.3002 13.1376 27.307 13.1273 27.3102C13.117 27.3134 13.1058 27.3126 13.096 27.3081C13.0636 27.2928 13.017 27.2657 12.956 27.2266C11.6961 26.4143 10.6316 25.3965 9.76249 24.1734C9.74769 24.1523 9.73477 24.1398 9.72376 24.136Z" fill="white"/>
<path d="M27.3168 24.1723C26.448 25.3955 25.3839 26.4132 24.1243 27.2255C24.0634 27.2646 24.0167 27.2918 23.9843 27.307C23.9745 27.3115 23.9634 27.3123 23.9531 27.3091C23.9428 27.306 23.934 27.2991 23.9286 27.2899C23.3862 26.3797 22.8231 25.4299 22.2391 24.4405C22.204 24.3806 22.1847 24.3355 22.1812 24.3051C22.1803 24.2966 22.1814 24.2881 22.1846 24.2801C22.1877 24.2722 22.1928 24.2651 22.1993 24.2594C22.264 24.2038 22.3276 24.1555 22.3899 24.1147C22.4347 24.085 22.5092 24.0699 22.6135 24.0696C24.13 24.0668 25.7101 24.067 27.354 24.0701C27.3616 24.0699 27.3693 24.0723 27.3757 24.077C27.3822 24.0816 27.3869 24.0881 27.389 24.0953C27.3911 24.1026 27.3905 24.11 27.3873 24.1163C27.3841 24.1226 27.3785 24.1274 27.3715 24.1298L27.3555 24.1349C27.3445 24.1387 27.3316 24.1512 27.3168 24.1723Z" fill="white"/>
<path d="M35.48 24.1401C35.4731 24.1847 35.4663 24.2164 35.4594 24.235C34.823 25.9631 33.9572 27.5447 32.8619 28.9799C32.8567 28.9865 32.8501 28.9918 32.8426 28.9955C32.8351 28.9992 32.8269 29.0011 32.8185 29.0012H27.8901C27.8718 29.0012 27.8698 28.9953 27.8839 28.9835C29.4964 27.6327 30.7451 26.0031 31.63 24.0945C31.6336 24.087 31.6392 24.0807 31.6462 24.0763C31.6531 24.0719 31.6611 24.0696 31.6693 24.0696C32.7873 24.0671 34.0362 24.0673 35.416 24.0701C35.4694 24.0701 35.5045 24.0817 35.5213 24.1048C35.532 24.1197 35.5282 24.1271 35.51 24.1271H35.4955C35.4866 24.1271 35.4814 24.1315 35.48 24.1401Z" fill="white"/>
<path d="M10.8735 31.3543L9.59875 33.5719C9.58807 33.5902 9.57223 33.6018 9.55123 33.6067C9.48271 33.6212 9.41608 33.6091 9.35134 33.5704C8.29424 32.9354 7.30876 32.2025 6.3949 31.3715C6.36322 31.3424 6.3689 31.3279 6.41195 31.3279H10.8585C10.8785 31.3279 10.8835 31.3367 10.8735 31.3543Z" fill="white"/>
<path d="M30.7298 31.3422C30.35 31.6763 29.9879 31.9791 29.6436 32.2505C29.0445 32.7226 28.4114 33.1587 27.7444 33.5588C27.6725 33.602 27.6055 33.6174 27.5435 33.6049C27.5345 33.6033 27.526 33.5997 27.5186 33.5943C27.5111 33.5889 27.505 33.5819 27.5007 33.5738L26.2626 31.3547C26.2611 31.352 26.2602 31.3489 26.2603 31.3458C26.2603 31.3427 26.2611 31.3396 26.2627 31.3369C26.2643 31.3342 26.2665 31.332 26.2692 31.3305C26.2719 31.3289 26.275 31.3282 26.2781 31.3282C26.7832 31.3282 28.2582 31.3277 30.703 31.3267C30.7171 31.3267 30.7262 31.3289 30.7303 31.3334C30.7334 31.3365 30.7333 31.3395 30.7298 31.3422Z" fill="white"/>
</g>
<defs>
<clipPath id="clip0_1216_298">
<rect width="36" height="36" fill="white" transform="translate(0.51355)"/>
</clipPath>
</defs>
</svg>
