<?xml version="1.0" encoding="UTF-8"?>
<!DOCTYPE svg PUBLIC "-//W3C//DTD SVG 1.1//EN" "http://www.w3.org/Graphics/SVG/1.1/DTD/svg11.dtd">
<svg xmlns="http://www.w3.org/2000/svg" version="1.1" width="433px" height="498px" style="shape-rendering:geometricPrecision; text-rendering:geometricPrecision; image-rendering:optimizeQuality; fill-rule:evenodd; clip-rule:evenodd" xmlns:xlink="http://www.w3.org/1999/xlink">
<g><path style="opacity:0.995" fill="#fefefe" d="M 179.5,-0.5 C 194.833,-0.5 210.167,-0.5 225.5,-0.5C 260.142,1.12407 294.475,5.95741 328.5,14C 353.296,19.635 375.629,30.135 395.5,45.5C 398.5,49.1872 401.166,53.1872 403.5,57.5C 403.892,59.1789 404.392,60.8455 405,62.5C 405.667,76.8333 405.667,91.1667 405,105.5C 404.303,109.928 402.637,113.928 400,117.5C 388.297,129.868 374.463,139.035 358.5,145C 320.615,158.22 281.615,165.887 241.5,168C 183.648,172.268 126.648,167.268 70.5,153C 55.8995,148.86 41.8995,143.36 28.5,136.5C 14.6836,130.353 5.0169,120.353 -0.5,106.5C -0.5,91.8333 -0.5,77.1667 -0.5,62.5C 3.29027,51.5262 10.2903,43.0262 20.5,37C 41.7479,24.8033 64.4145,16.1367 88.5,11C 118.72,5.09771 149.053,1.26438 179.5,-0.5 Z"/></g>
<g><path style="opacity:0.407" fill="#1d0afc" d="M 395.5,45.5 C 405.414,50.0819 413.08,57.0819 418.5,66.5C 413.745,63.0751 408.745,60.0751 403.5,57.5C 401.166,53.1872 398.5,49.1872 395.5,45.5 Z"/></g>
<g><path style="opacity:0.753" fill="#6104a9" d="M 403.5,57.5 C 408.745,60.0751 413.745,63.0751 418.5,66.5C 419.167,66.5 419.5,66.8333 419.5,67.5C 420.32,69.8123 421.153,72.1457 422,74.5C 422.667,88.8333 422.667,103.167 422,117.5C 420.723,124.102 417.723,129.769 413,134.5C 400.828,144.507 387.328,152.34 372.5,158C 335.221,170.824 296.888,178.158 257.5,180C 196.373,184.684 136.373,178.684 77.5,162C 60.412,156.789 44.7453,148.956 30.5,138.5C 29.5,138.167 28.8333,137.5 28.5,136.5C 41.8995,143.36 55.8995,148.86 70.5,153C 126.648,167.268 183.648,172.268 241.5,168C 281.615,165.887 320.615,158.22 358.5,145C 374.463,139.035 388.297,129.868 400,117.5C 402.637,113.928 404.303,109.928 405,105.5C 405.667,91.1667 405.667,76.8333 405,62.5C 404.392,60.8455 403.892,59.1789 403.5,57.5 Z"/></g>
<g><path style="opacity:0.481" fill="#fd0003" d="M 419.5,67.5 C 425.816,72.1564 430.149,78.1564 432.5,85.5C 432.5,100.833 432.5,116.167 432.5,131.5C 426.971,144.032 417.971,153.365 405.5,159.5C 396.875,163.478 388.208,167.478 379.5,171.5C 378.833,171.5 378.5,171.833 378.5,172.5C 378.167,172.5 377.833,172.5 377.5,172.5C 376.508,172.328 375.842,172.662 375.5,173.5C 375.167,173.5 374.833,173.5 374.5,173.5C 373.508,173.328 372.842,173.662 372.5,174.5C 371.209,174.263 370.209,174.596 369.5,175.5C 277.222,199.32 184.889,199.487 92.5,176C 75.432,170.796 59.432,163.463 44.5,154C 38.5509,149.89 33.8842,144.723 30.5,138.5C 44.7453,148.956 60.412,156.789 77.5,162C 136.373,178.684 196.373,184.684 257.5,180C 296.888,178.158 335.221,170.824 372.5,158C 387.328,152.34 400.828,144.507 413,134.5C 417.723,129.769 420.723,124.102 422,117.5C 422.667,103.167 422.667,88.8333 422,74.5C 421.153,72.1457 420.32,69.8123 419.5,67.5 Z"/></g>
<g><path style="opacity:0.991" fill="#fefefe" d="M -0.5,159.5 C 1.19919,159.34 2.86586,159.506 4.5,160C 25.6461,172.832 48.3128,182.165 72.5,188C 157.761,206.903 243.094,207.236 328.5,189C 336.944,187.074 345.278,184.741 353.5,182C 359.214,180.491 364.548,178.325 369.5,175.5C 370.791,175.737 371.791,175.404 372.5,174.5C 373.492,174.672 374.158,174.338 374.5,173.5C 374.833,173.5 375.167,173.5 375.5,173.5C 376.492,173.672 377.158,173.338 377.5,172.5C 377.833,172.5 378.167,172.5 378.5,172.5C 379.167,172.5 379.5,172.167 379.5,171.5C 388.208,167.478 396.875,163.478 405.5,159.5C 405.5,166.167 405.5,172.833 405.5,179.5C 405.5,185.167 405.5,190.833 405.5,196.5C 406.423,209.488 401.756,219.988 391.5,228C 372.689,241.065 352.023,250.399 329.5,256C 250.465,273.829 171.131,275.162 91.5,260C 69.993,255.331 49.3264,248.164 29.5,238.5C 15.7461,232.08 5.74613,222.08 -0.5,208.5C -0.5,192.167 -0.5,175.833 -0.5,159.5 Z"/></g>
<g><path style="opacity:0.484" fill="#0d00fe" d="M 422.5,187.5 C 422.5,187.833 422.5,188.167 422.5,188.5C 416.959,191.437 411.292,194.104 405.5,196.5C 405.5,190.833 405.5,185.167 405.5,179.5C 409.806,177.012 414.139,174.512 418.5,172C 419.793,171.51 421.127,171.343 422.5,171.5C 422.5,176.833 422.5,182.167 422.5,187.5 Z"/></g>
<g><path style="opacity:0.481" fill="#fd0002" d="M 432.5,183.5 C 432.5,200.167 432.5,216.833 432.5,233.5C 430.459,238.569 427.626,243.236 424,247.5C 418.431,253.026 412.265,257.693 405.5,261.5C 404.749,260.427 403.749,260.26 402.5,261C 395.586,265.624 388.252,269.457 380.5,272.5C 379.833,272.5 379.5,272.833 379.5,273.5C 378.833,273.5 378.167,273.5 377.5,273.5C 376.833,273.5 376.5,273.833 376.5,274.5C 376.167,274.5 375.833,274.5 375.5,274.5C 374.833,274.5 374.5,274.833 374.5,275.5C 374.167,275.5 373.833,275.5 373.5,275.5C 372.209,275.263 371.209,275.596 370.5,276.5C 369.508,276.328 368.842,276.662 368.5,277.5C 303.088,294.312 236.755,299.145 169.5,292C 138.754,289.118 108.754,282.784 79.5,273C 66.1646,268.5 53.8313,262.166 42.5,254C 37.9207,249.926 33.9207,245.426 30.5,240.5C 54.414,255.759 80.414,266.259 108.5,272C 180.106,285.602 251.773,285.936 323.5,273C 344.101,269.013 364.101,263.013 383.5,255C 395.301,249.687 405.801,242.521 415,233.5C 417.503,230.498 419.503,227.165 421,223.5C 422.412,211.896 422.912,200.229 422.5,188.5C 422.5,188.167 422.5,187.833 422.5,187.5C 425.374,185.065 428.707,183.731 432.5,183.5 Z"/></g>
<g><path style="opacity:0.753" fill="#6103a8" d="M 422.5,188.5 C 422.912,200.229 422.412,211.896 421,223.5C 419.503,227.165 417.503,230.498 415,233.5C 405.801,242.521 395.301,249.687 383.5,255C 364.101,263.013 344.101,269.013 323.5,273C 251.773,285.936 180.106,285.602 108.5,272C 80.414,266.259 54.414,255.759 30.5,240.5C 29.6618,240.158 29.3284,239.492 29.5,238.5C 49.3264,248.164 69.993,255.331 91.5,260C 171.131,275.162 250.465,273.829 329.5,256C 352.023,250.399 372.689,241.065 391.5,228C 401.756,219.988 406.423,209.488 405.5,196.5C 411.292,194.104 416.959,191.437 422.5,188.5 Z"/></g>
<g><path style="opacity:0.991" fill="#fefefe" d="M -0.5,260.5 C 34.1327,279.256 71.1327,291.422 110.5,297C 167.739,304.889 225.073,305.556 282.5,299C 312.176,295.248 340.843,288.081 368.5,277.5C 369.492,277.672 370.158,277.338 370.5,276.5C 371.791,276.737 372.791,276.404 373.5,275.5C 373.833,275.5 374.167,275.5 374.5,275.5C 375.167,275.5 375.5,275.167 375.5,274.5C 375.833,274.5 376.167,274.5 376.5,274.5C 377.167,274.5 377.5,274.167 377.5,273.5C 378.167,273.5 378.833,273.5 379.5,273.5C 380.167,273.5 380.5,273.167 380.5,272.5C 388.252,269.457 395.586,265.624 402.5,261C 403.749,260.26 404.749,260.427 405.5,261.5C 405.5,267.833 405.5,274.167 405.5,280.5C 405.5,286.167 405.5,291.833 405.5,297.5C 405.893,303.678 405.06,309.678 403,315.5C 397.121,324.38 389.621,331.546 380.5,337C 348.683,353.04 315.017,363.04 279.5,367C 225.432,373.316 171.432,372.982 117.5,366C 86.4292,361.652 56.7625,352.819 28.5,339.5C 14.6836,333.353 5.0169,323.353 -0.5,309.5C -0.5,293.167 -0.5,276.833 -0.5,260.5 Z"/></g>
<g><path style="opacity:0.483" fill="#0d00fe" d="M 422.5,288.5 C 422.5,289.167 422.5,289.833 422.5,290.5C 416.937,293.116 411.27,295.449 405.5,297.5C 405.5,291.833 405.5,286.167 405.5,280.5C 411.057,277.554 416.723,274.888 422.5,272.5C 422.5,277.833 422.5,283.167 422.5,288.5 Z"/></g>
<g><path style="opacity:0.48" fill="#fd0002" d="M 432.5,284.5 C 432.5,301.167 432.5,317.833 432.5,334.5C 426.979,347.024 417.979,356.357 405.5,362.5C 405.44,361.957 405.107,361.624 404.5,361.5C 396.369,366.899 387.702,371.232 378.5,374.5C 377.833,374.5 377.5,374.833 377.5,375.5C 377.167,375.5 376.833,375.5 376.5,375.5C 375.833,375.5 375.5,375.833 375.5,376.5C 375.167,376.5 374.833,376.5 374.5,376.5C 373.508,376.328 372.842,376.662 372.5,377.5C 372.167,377.5 371.833,377.5 371.5,377.5C 370.508,377.328 369.842,377.662 369.5,378.5C 302.446,395.737 234.446,400.571 165.5,393C 134.722,389.805 104.722,383.139 75.5,373C 59.7762,367.397 45.9429,358.897 34,347.5C 32.5787,345.595 31.412,343.595 30.5,341.5C 52.6738,356.58 77.0071,366.746 103.5,372C 187.576,389.905 271.243,388.238 354.5,367C 373.144,361.676 390.477,353.676 406.5,343C 414.05,337.465 419.217,330.298 422,321.5C 422.5,311.172 422.666,300.839 422.5,290.5C 422.5,289.833 422.5,289.167 422.5,288.5C 425.588,286.625 428.922,285.292 432.5,284.5 Z"/></g>
<g><path style="opacity:0.753" fill="#6205a8" d="M 422.5,290.5 C 422.666,300.839 422.5,311.172 422,321.5C 419.217,330.298 414.05,337.465 406.5,343C 390.477,353.676 373.144,361.676 354.5,367C 271.243,388.238 187.576,389.905 103.5,372C 77.0071,366.746 52.6738,356.58 30.5,341.5C 29.5,341.167 28.8333,340.5 28.5,339.5C 56.7625,352.819 86.4292,361.652 117.5,366C 171.432,372.982 225.432,373.316 279.5,367C 315.017,363.04 348.683,353.04 380.5,337C 389.621,331.546 397.121,324.38 403,315.5C 405.06,309.678 405.893,303.678 405.5,297.5C 411.27,295.449 416.937,293.116 422.5,290.5 Z"/></g>
<g><path style="opacity:0.991" fill="#fefefe" d="M -0.5,361.5 C 23.8684,375.463 49.8684,385.63 77.5,392C 165.078,410.815 252.411,409.815 339.5,389C 349.897,386.285 359.897,382.785 369.5,378.5C 370.492,378.672 371.158,378.338 371.5,377.5C 371.833,377.5 372.167,377.5 372.5,377.5C 373.492,377.672 374.158,377.338 374.5,376.5C 374.833,376.5 375.167,376.5 375.5,376.5C 376.167,376.5 376.5,376.167 376.5,375.5C 376.833,375.5 377.167,375.5 377.5,375.5C 378.167,375.5 378.5,375.167 378.5,374.5C 387.702,371.232 396.369,366.899 404.5,361.5C 405.107,361.624 405.44,361.957 405.5,362.5C 405.5,369.167 405.5,375.833 405.5,382.5C 405.5,388.167 405.5,393.833 405.5,399.5C 406.322,408.864 403.822,417.198 398,424.5C 387.951,434.115 376.451,441.615 363.5,447C 330.006,459.834 295.339,467.834 259.5,471C 195.291,477.498 131.958,472.832 69.5,457C 56.38,453.24 43.7133,448.406 31.5,442.5C 31.1667,442.5 30.8333,442.5 30.5,442.5C 16.4468,435.78 6.11343,425.447 -0.5,411.5C -0.5,394.833 -0.5,378.167 -0.5,361.5 Z"/></g>
<g><path style="opacity:0.483" fill="#0d00fe" d="M 422.5,390.5 C 422.5,390.833 422.5,391.167 422.5,391.5C 416.985,394.423 411.318,397.09 405.5,399.5C 405.5,393.833 405.5,388.167 405.5,382.5C 411.078,379.213 416.745,376.213 422.5,373.5C 422.5,379.167 422.5,384.833 422.5,390.5 Z"/></g>
<g><path style="opacity:0.481" fill="#fd0002" d="M 432.5,385.5 C 432.5,402.5 432.5,419.5 432.5,436.5C 424.934,450.894 413.601,461.394 398.5,468C 373.146,478.923 346.813,486.59 319.5,491C 299.764,493.928 280.097,496.094 260.5,497.5C 240.5,497.5 220.5,497.5 200.5,497.5C 165.058,495.697 130.058,490.197 95.5,481C 75.9377,475.883 57.9377,467.55 41.5,456C 36.8397,452.187 33.173,447.687 30.5,442.5C 30.8333,442.5 31.1667,442.5 31.5,442.5C 41.693,450.77 53.0263,457.27 65.5,462C 106.246,476.215 148.246,483.882 191.5,485C 243.577,487.628 294.91,482.961 345.5,471C 364.097,466.356 381.763,459.356 398.5,450C 420.89,436.762 428.89,417.262 422.5,391.5C 422.5,391.167 422.5,390.833 422.5,390.5C 425.592,388.287 428.926,386.621 432.5,385.5 Z"/></g>
<g><path style="opacity:0.753" fill="#6102a8" d="M 422.5,391.5 C 428.89,417.262 420.89,436.762 398.5,450C 381.763,459.356 364.097,466.356 345.5,471C 294.91,482.961 243.577,487.628 191.5,485C 148.246,483.882 106.246,476.215 65.5,462C 53.0263,457.27 41.693,450.77 31.5,442.5C 43.7133,448.406 56.38,453.24 69.5,457C 131.958,472.832 195.291,477.498 259.5,471C 295.339,467.834 330.006,459.834 363.5,447C 376.451,441.615 387.951,434.115 398,424.5C 403.822,417.198 406.322,408.864 405.5,399.5C 411.318,397.09 416.985,394.423 422.5,391.5 Z"/></g>
</svg>
