<svg width="715" height="913" viewBox="0 0 715 913" fill="none" xmlns="http://www.w3.org/2000/svg">
<g clip-path="url(#clip0_1388_4869)">
<path d="M262.379 476.301L264.58 476.931C264.296 477.186 264.563 477.264 265.382 477.164L270.234 478.372C270.548 478.752 271.17 478.877 272.099 478.747L276.277 479.753C276.791 480.223 277.398 480.35 278.097 480.135L280.148 480.713C280.388 480.973 280.762 481.031 281.272 480.886L282.657 481.253C284.739 486.136 284.569 490.571 282.148 494.558C279.25 499.33 274.33 501.829 268.774 501.251C261.166 500.471 255.774 493.83 256.56 486.123C257.005 481.701 258.944 478.427 262.379 476.301Z" fill="#E11D24"/>
<g filter="url(#filter0_d_1388_4869)">
<path d="M445.255 476.279C447.712 477.985 449.404 480.211 450.332 482.958C451.216 485.554 451.323 488.195 450.654 490.882C449.476 495.609 446.429 498.868 441.511 500.659C439.225 501.495 436.829 501.635 434.323 501.08C432.116 500.589 430.072 499.524 428.19 497.883C423.278 493.596 422.162 488.04 424.843 481.217L426.535 480.827C427.029 481.072 427.483 481.004 427.898 480.624C428.362 480.374 428.909 480.221 429.538 480.166C430.167 480.341 430.731 480.229 431.23 479.829C431.659 479.594 432.151 479.453 432.705 479.408C433.289 479.468 433.806 479.331 434.255 478.996L439.063 477.885C439.697 478.065 440.206 477.97 440.59 477.6C441.079 477.32 441.639 477.15 442.268 477.09C442.802 477.27 443.239 477.192 443.578 476.857C443.878 476.632 444.437 476.439 445.255 476.279Z" fill="#E11D24"/>
</g>
<path d="M512.5 465.654V504.119C511.786 508.006 511.105 511.898 510.456 515.795C509.857 519.392 509.323 523.299 508.853 527.516C507.665 538.191 506.479 548.867 505.296 559.542C505.102 561.288 504.665 562.972 503.986 564.592C501.919 569.52 500.324 573.319 499.201 575.991C499.101 576.226 498.939 576.404 498.714 576.524C496.767 577.539 494.81 578.552 492.843 579.563C491.446 580.283 489.194 580.893 486.089 581.394C477.922 582.704 468.197 584.283 456.915 586.129C456.895 586.134 456.386 586.164 455.387 586.219C454.684 586.254 453.997 586.386 453.328 586.616C451.566 587.222 449.03 587.597 445.72 587.742C445.466 587.752 445.258 587.857 445.099 588.057C438.958 595.901 431.018 605.954 421.279 618.215C420.794 618.826 419.876 619.804 418.523 621.149C418.407 621.266 418.314 621.404 418.251 621.556C418.188 621.708 418.156 621.871 418.156 622.035V631.565C418.156 631.678 418.132 631.79 418.085 631.892C418.039 631.994 417.971 632.085 417.887 632.157C417.013 632.923 416.469 633.471 416.254 633.801C415.266 635.302 414.709 635.099 414.584 633.193L414.247 627.963C414.157 626.572 413.753 626.432 413.034 627.543C413.014 627.578 412.999 627.98 412.989 628.751C412.954 631.182 412.862 633.303 412.712 635.114C412.532 637.24 411.804 639.044 410.526 640.524C409.742 641.435 409.325 641.282 409.275 640.067L408.886 630.327C408.885 630.294 408.877 630.263 408.862 630.235C408.847 630.206 408.825 630.182 408.799 630.164C408.773 630.145 408.742 630.133 408.71 630.129C408.679 630.125 408.646 630.128 408.616 630.139L408.287 630.251C408.181 630.287 408.088 630.353 408.021 630.441C407.954 630.53 407.916 630.636 407.912 630.747C407.782 634.329 407.693 637.79 407.643 641.132C407.628 641.993 407.133 643.336 406.16 645.162C406.035 645.397 405.845 645.557 405.591 645.642L403.24 646.43C403.133 646.467 403.019 646.475 402.908 646.456C402.798 646.436 402.696 646.388 402.611 646.317C400.986 644.967 399.443 643.743 399.443 641.32C399.443 638.813 399.356 636.39 399.181 634.048C399.101 632.963 398.797 632.895 398.267 633.846C398.143 634.066 398.073 634.569 398.058 635.354C397.993 638.526 397.93 641.52 397.871 644.336C397.846 645.257 397.711 645.907 397.466 646.287C397.082 646.883 396.727 647.475 396.403 648.066C396.028 648.741 395.202 649.246 393.924 649.582C392.102 650.057 389.791 650.56 386.99 651.09C386.601 651.163 386.201 651.15 385.817 651.052C385.433 650.954 385.075 650.774 384.768 650.523C384.46 650.273 384.21 649.958 384.035 649.601C383.861 649.244 383.765 648.854 383.755 648.456L383.501 636.922C383.491 636.502 383.316 636.295 382.976 636.3H382.954C382.56 636.305 382.362 636.505 382.362 636.9C382.362 641.377 382.283 645.447 382.123 649.109C382.093 649.859 381.449 650.917 380.191 652.283C379.996 652.488 379.759 652.613 379.479 652.658L375.548 653.303C375.406 653.326 375.26 653.31 375.127 653.256C374.994 653.201 374.878 653.112 374.792 652.996L371.662 648.719C371.242 648.138 371.018 647.493 370.988 646.783C370.933 645.567 370.893 642.986 370.868 639.039C370.861 638.071 370.583 637.155 370.359 636.232C370.349 636.077 370.334 635.924 370.314 635.774C370.279 635.924 370.237 636.072 370.187 636.217C369.747 637.498 369.533 638.441 369.543 639.046C369.593 641.817 369.548 644.531 369.408 647.188C369.389 647.601 369.23 647.998 368.959 648.313L364.481 653.423C364.424 653.49 364.354 653.543 364.275 653.579C364.196 653.615 364.111 653.634 364.024 653.634H356.708C355.709 653.634 355.21 653.133 355.21 652.133V638.063C355.21 637.233 354.801 636.885 353.982 637.02L353.211 637.14C352.597 637.245 352.29 637.608 352.29 638.228V651.945C352.29 653.076 351.723 653.641 350.59 653.641H343.544C343.319 653.641 343.134 653.559 342.989 653.393L338.774 648.568C338.254 647.978 337.992 647.285 337.987 646.49C337.947 641.242 337.91 638.518 337.875 638.318C337.715 637.458 337.593 636.847 337.508 636.487C337.418 636.122 337.318 636.117 337.209 636.472C336.799 637.773 336.595 638.513 336.595 638.693C336.605 639.239 336.592 641.752 336.557 646.235C336.547 647.365 336.24 648.283 335.636 648.989C335.541 649.094 334.54 650.467 332.633 653.108C332.474 653.333 332.256 653.421 331.982 653.371L327.908 652.583C327.649 652.533 327.436 652.405 327.272 652.2C326.089 650.76 325.465 649.712 325.4 649.056C325.19 646.99 325.098 642.911 325.123 636.817C325.123 636.728 325.098 636.639 325.05 636.564C325.002 636.488 324.933 636.428 324.851 636.39C324.77 636.353 324.679 636.34 324.59 636.353C324.502 636.367 324.419 636.405 324.351 636.465L324.059 636.72C324.02 636.752 323.988 636.794 323.968 636.841C323.947 636.888 323.937 636.939 323.939 636.99C324.054 642.863 323.972 646.81 323.692 648.831C323.597 649.511 322.993 650.242 321.88 651.022C321.671 651.167 321.441 651.22 321.191 651.18C318.056 650.675 315.345 650.082 313.059 649.401C312.23 649.156 311.656 648.799 311.337 648.328C310.758 647.468 310.353 646.84 310.124 646.445C309.724 645.734 309.525 644.686 309.525 643.301C309.53 640.199 309.48 637.268 309.375 634.506C309.31 632.765 308.958 632.698 308.319 634.304C308.304 634.339 308.289 634.769 308.274 635.594C308.234 637.395 308.117 639.881 307.922 643.053C307.912 643.208 307.849 643.354 307.742 643.466L305.084 646.235C304.889 646.44 304.657 646.502 304.388 646.422L301.962 645.709C301.737 645.639 301.565 645.504 301.445 645.304C300.411 643.578 299.89 642.375 299.88 641.695C299.835 638.688 299.785 635.562 299.73 632.315C299.71 631.255 299.518 630.542 299.153 630.176C298.814 629.836 298.634 629.909 298.614 630.394L298.195 640.014C298.14 641.23 297.726 641.382 296.952 640.472C295.599 638.896 294.863 636.922 294.743 634.551C294.548 630.689 294.443 628.693 294.428 628.563C294.364 627.888 294.269 627.42 294.144 627.16C293.759 626.389 293.49 626.435 293.335 627.295C293.076 628.736 292.968 630.559 293.013 632.765C293.028 633.366 292.798 633.986 292.324 634.626C292.14 634.876 291.962 634.871 291.793 634.611C291.074 633.541 290.382 632.763 289.718 632.278C289.474 632.092 289.351 631.847 289.351 631.542V621.84C289.351 621.605 289.272 621.399 289.112 621.224C288.041 620.054 286.753 618.928 285.817 617.742C276.846 606.407 269.023 596.502 262.349 588.027C262.194 587.832 261.992 587.734 261.742 587.734C258.712 587.699 255.744 587.189 252.839 586.204C252.367 586.039 251.648 586.301 251.094 586.211C235.773 583.72 225.574 582.062 220.497 581.236C218.026 580.831 216.094 580.278 214.701 579.578C213.399 578.922 211.434 577.919 208.808 576.569C208.581 576.457 208.403 576.265 208.307 576.028C206.494 571.636 204.874 567.812 203.447 564.555C202.798 563.074 202.366 561.296 202.151 559.22C202.046 558.214 200.718 546.185 198.168 523.133C197.768 519.522 196.712 513.211 195 504.201V465.811C195.734 462.88 196.44 459.941 197.119 456.994C197.763 454.213 198.317 451.246 198.782 448.095C198.846 447.654 199.173 445.448 199.763 441.476C200.102 439.165 200.307 436.944 200.377 434.813C200.661 426.363 200.751 419.167 201.432 411.258C201.877 406.075 202.541 398.419 203.424 388.289C203.439 388.139 203.519 388.064 203.664 388.064C207.353 388.064 211.06 388.043 214.784 388.003C216.187 387.988 217.794 388.286 219.606 388.896C283.66 410.448 317.862 421.956 322.21 423.422C325.275 424.457 327.801 424.963 329.788 424.938C336.053 424.858 351.716 424.813 376.776 424.803C378.009 424.803 379.175 424.768 380.273 424.697C381.367 424.622 382.497 424.387 383.665 423.992C409.759 415.188 444.565 403.479 488.081 388.866C489.644 388.341 491.241 388.076 492.873 388.071C497.641 388.051 501.24 388.066 503.671 388.116C503.931 388.121 504.071 388.254 504.091 388.514C504.7 395.627 505.371 403.369 506.105 411.738C506.704 418.559 506.921 427.737 507.064 433.417C507.143 436.579 507.425 439.72 507.91 442.842C508.169 444.508 508.636 447.634 509.31 452.222C509.649 454.513 510.713 458.99 512.5 465.654ZM209.976 466.877C209.977 466.869 209.98 466.862 209.984 466.856C209.987 466.849 209.993 466.844 209.999 466.839L223.433 456.371C223.439 456.367 223.447 456.364 223.454 456.362C223.462 456.361 223.47 456.362 223.478 456.364L303.287 476.97C303.294 476.972 303.301 476.973 303.308 476.972C303.316 476.971 303.323 476.969 303.329 476.966C303.335 476.962 303.341 476.957 303.345 476.952C303.35 476.946 303.353 476.939 303.354 476.932L303.377 476.842C303.379 476.835 303.38 476.828 303.379 476.821C303.379 476.813 303.376 476.806 303.373 476.8C303.369 476.794 303.365 476.788 303.359 476.784C303.353 476.779 303.346 476.776 303.339 476.774L222.736 454.856C222.729 454.853 222.721 454.853 222.713 454.854C222.705 454.856 222.698 454.859 222.691 454.863L207.745 466.839C207.739 466.844 207.733 466.849 207.73 466.856C207.726 466.862 207.723 466.869 207.722 466.877L207.73 510.362C207.73 510.369 207.731 510.376 207.734 510.382C207.736 510.389 207.74 510.394 207.745 510.399L219 521.678C219.005 521.683 219.01 521.687 219.017 521.689C219.023 521.692 219.03 521.693 219.037 521.693C219.044 521.693 219.051 521.692 219.057 521.689C219.064 521.687 219.07 521.683 219.075 521.678C219.08 521.673 219.083 521.667 219.086 521.661C219.089 521.654 219.09 521.647 219.09 521.64C219.09 521.633 219.089 521.626 219.086 521.62C219.083 521.613 219.08 521.608 219.075 521.603L209.984 510.377C209.976 510.369 209.971 510.358 209.969 510.347L209.976 466.877ZM484.12 456.334C484.125 456.333 484.13 456.333 484.135 456.334C484.141 456.336 484.145 456.338 484.15 456.341L497.509 466.937C497.513 466.94 497.517 466.945 497.52 466.95C497.522 466.955 497.524 466.961 497.524 466.967V510.219C497.524 510.227 497.521 510.235 497.516 510.242L488.77 521.318C488.766 521.323 488.763 521.329 488.762 521.335C488.761 521.341 488.762 521.348 488.764 521.354C488.767 521.36 488.77 521.365 488.775 521.369C488.78 521.374 488.786 521.376 488.792 521.378L488.95 521.408C488.957 521.409 488.964 521.408 488.97 521.406C488.977 521.403 488.983 521.398 488.987 521.393L499.763 510.167C499.767 510.16 499.77 510.152 499.77 510.144V466.809C499.77 466.803 499.769 466.798 499.766 466.793C499.764 466.787 499.76 466.783 499.755 466.779L484.741 454.878C484.737 454.875 484.732 454.872 484.727 454.871C484.722 454.87 484.717 454.87 484.711 454.871L406.025 476.272C406.02 476.273 406.015 476.274 406.011 476.277C406.007 476.28 406.003 476.284 406.001 476.288C405.998 476.292 405.996 476.297 405.995 476.302C405.994 476.307 405.994 476.312 405.995 476.317L406.04 476.459C406.041 476.464 406.043 476.469 406.046 476.473C406.048 476.477 406.052 476.481 406.056 476.484C406.06 476.487 406.065 476.489 406.07 476.49C406.075 476.49 406.08 476.49 406.085 476.489L484.12 456.334ZM282.657 481.254L281.272 480.887L280.148 480.714L278.097 480.136L276.277 479.754L272.099 478.748L270.234 478.373L265.382 477.165C265.157 477.035 264.89 476.957 264.58 476.932L262.379 476.302L226.158 466.239C225.914 466.169 225.717 466.237 225.567 466.442L219.412 475.056C219.105 475.48 218.94 475.99 218.94 476.512V503.901C218.94 504.211 219.042 504.484 219.247 504.719L229.131 516.012C229.356 516.267 229.633 516.43 229.962 516.5C233.282 517.235 238.666 518.441 246.115 520.117C248.391 520.627 250.69 520.885 253.011 520.89C260.659 520.9 272.451 520.895 288.385 520.875C290.742 520.875 292.848 520.632 294.705 520.147C300.736 518.581 307.555 516.865 315.163 514.999C315.412 514.936 315.635 514.794 315.8 514.594L322.801 506.182C322.961 505.988 323.048 505.744 323.048 505.492V494.259C323.048 494.013 322.944 493.828 322.734 493.703C319.913 492.047 317.819 490.812 316.451 489.996C315.009 489.141 313.481 488.518 311.868 488.128C302.104 485.792 292.367 483.5 282.657 481.254ZM445.256 476.279C444.437 476.439 443.878 476.632 443.579 476.857C443.159 476.837 442.722 476.915 442.268 477.09C441.639 477.15 441.08 477.32 440.591 477.6L439.063 477.885L434.256 478.996L432.706 479.408C432.152 479.453 431.66 479.593 431.23 479.829C430.626 479.844 430.062 479.956 429.538 480.166C428.909 480.221 428.363 480.374 427.898 480.624L426.535 480.827L424.843 481.217C415.687 483.403 406.325 485.607 396.755 487.828C394.284 488.398 392.449 489.061 391.251 489.816C389.604 490.857 387.447 492.147 384.781 493.688C384.681 493.748 384.597 493.833 384.539 493.934C384.482 494.036 384.451 494.15 384.452 494.266V505.589C384.452 505.93 384.564 506.23 384.789 506.49L391.925 514.647C392.11 514.857 392.337 514.994 392.606 515.059C401.348 517.24 408.047 518.921 412.705 520.102C414.721 520.612 416.793 520.87 418.92 520.875C436.762 520.885 448.745 520.875 454.871 520.845C457.147 520.835 459.406 520.575 461.648 520.064C466.979 518.839 472.323 517.638 477.68 516.463C477.924 516.407 478.132 516.282 478.301 516.087L488.253 504.711C488.453 504.486 488.553 504.221 488.553 503.916V476.047C488.553 475.751 488.465 475.484 488.291 475.244L481.843 466.434C481.786 466.355 481.705 466.295 481.613 466.263C481.521 466.231 481.421 466.228 481.327 466.254L445.256 476.279ZM403.906 476.977C403.037 477.042 402.224 477.25 401.465 477.6C401.415 477.625 401.417 477.63 401.472 477.615L403.906 476.977C404.575 476.932 405.194 476.774 405.763 476.504C405.798 476.484 405.798 476.462 405.763 476.437C405.748 476.427 405.733 476.417 405.718 476.407C405.648 476.367 405.571 476.362 405.486 476.392L403.906 476.977ZM304.433 477.247C305.261 477.517 305.803 477.652 306.058 477.652C306.113 477.652 306.115 477.64 306.065 477.615C305.476 477.335 304.967 477.15 304.538 477.06C303.279 476.794 303.245 476.857 304.433 477.247ZM400.714 477.791C400.71 477.777 400.684 477.769 400.638 477.768C400.591 477.766 400.525 477.772 400.443 477.784C400.361 477.796 400.265 477.814 400.161 477.837C400.056 477.86 399.944 477.888 399.832 477.919C399.607 477.982 399.393 478.053 399.239 478.118C399.085 478.183 399.003 478.235 399.011 478.264C399.015 478.278 399.041 478.286 399.087 478.288C399.134 478.289 399.2 478.284 399.282 478.272C399.363 478.26 399.459 478.242 399.564 478.218C399.669 478.195 399.781 478.167 399.892 478.136C400.118 478.073 400.331 478.002 400.486 477.937C400.64 477.872 400.722 477.82 400.714 477.791ZM308.356 478.275C308.367 478.278 308.378 478.277 308.387 478.272C308.396 478.267 308.402 478.258 308.406 478.248C308.409 478.237 308.409 478.225 308.406 478.214C308.402 478.203 308.395 478.192 308.386 478.185C308.132 478.05 307.845 477.983 307.525 477.983C307.515 477.981 307.505 477.983 307.497 477.988C307.488 477.994 307.482 478.003 307.48 478.013C307.478 478.023 307.48 478.033 307.486 478.041C307.492 478.05 307.5 478.056 307.51 478.058L308.356 478.275ZM311.135 479.528C311.19 479.528 311.242 479.526 311.292 479.521C311.414 479.517 311.493 479.478 311.512 479.411C311.532 479.345 311.491 479.256 311.398 479.161C311.305 479.067 311.166 478.974 311.008 478.9C310.85 478.827 310.684 478.778 310.543 478.763C310.493 478.758 310.441 478.755 310.386 478.755C310.242 478.754 310.143 478.792 310.111 478.863C310.08 478.935 310.118 479.032 310.217 479.135C310.316 479.237 310.469 479.336 310.641 479.41C310.813 479.484 310.991 479.526 311.135 479.528ZM311.037 478.943C311.142 478.978 311.249 478.981 311.359 478.951C311.239 478.901 311.132 478.898 311.037 478.943ZM353.743 593.025C354.851 593.025 356.94 593.007 360.01 592.972C360.077 592.971 360.143 592.983 360.204 593.008C360.266 593.032 360.322 593.068 360.37 593.115C360.417 593.161 360.455 593.216 360.48 593.276C360.506 593.337 360.519 593.402 360.519 593.467V596.251C360.519 596.361 360.562 596.466 360.638 596.543C360.714 596.621 360.816 596.664 360.924 596.664H378.289C378.553 596.664 378.753 596.549 378.888 596.319L390.996 575.293C391.246 574.863 391.246 574.433 390.996 574.002C379.604 554.237 372.386 541.728 369.34 536.475C369.315 536.435 369.238 536.228 369.108 535.853C368.919 535.317 368.335 535.095 367.356 535.185C366.792 535.235 366.51 534.977 366.51 534.412V505.679C366.51 505.566 366.487 505.453 366.443 505.349C366.4 505.244 366.336 505.15 366.255 505.072L356.491 495.662C356.316 495.492 356.109 495.402 355.869 495.392C355.43 495.367 354.721 495.354 353.743 495.354C352.764 495.354 352.053 495.367 351.608 495.392C351.369 495.402 351.162 495.492 350.987 495.662L341.222 505.072C341.142 505.15 341.078 505.244 341.034 505.349C340.99 505.453 340.968 505.566 340.968 505.679L340.975 534.412C340.975 534.977 340.693 535.235 340.129 535.185C339.15 535.095 338.566 535.317 338.377 535.853C338.247 536.228 338.17 536.435 338.145 536.475C335.099 541.728 327.883 554.24 316.496 574.01C316.247 574.44 316.247 574.87 316.496 575.301L328.605 596.319C328.739 596.549 328.939 596.664 329.204 596.664H346.569C346.676 596.664 346.779 596.621 346.855 596.543C346.931 596.466 346.973 596.361 346.973 596.251V593.467C346.973 593.402 346.986 593.338 347.011 593.278C347.037 593.218 347.074 593.163 347.12 593.117C347.167 593.071 347.222 593.035 347.283 593.01C347.344 592.985 347.409 592.972 347.475 592.972C350.55 593.007 352.639 593.025 353.743 593.025ZM326.568 535.177C324.611 538.479 318.58 548.497 308.476 565.23C308.436 565.3 308.456 565.34 308.536 565.35C308.591 565.355 308.646 565.31 308.701 565.215C310.353 562.604 316.746 552.536 327.878 535.012C328.173 534.547 328.338 534.042 328.372 533.496L329.391 516.943C329.391 516.908 329.358 516.888 329.294 516.883H329.286C329.206 516.878 329.161 516.908 329.151 516.973C328.442 524.192 327.981 529.137 327.766 531.808C327.681 532.849 327.282 533.972 326.568 535.177ZM380.932 535.267C380.238 534.097 379.849 533.006 379.764 531.996C379.554 529.399 379.1 524.589 378.401 517.566C378.391 517.506 378.346 517.478 378.266 517.483H378.259C378.199 517.488 378.169 517.506 378.169 517.536L379.18 533.639C379.215 534.169 379.375 534.659 379.659 535.11C390.507 552.144 396.737 561.929 398.35 564.465C398.405 564.56 398.46 564.605 398.515 564.6C398.589 564.59 398.607 564.55 398.567 564.48C388.717 548.216 382.839 538.479 380.932 535.267ZM232.072 544.448C232.075 544.437 232.052 544.421 232.004 544.4C231.957 544.379 231.886 544.354 231.796 544.326C231.706 544.298 231.599 544.268 231.48 544.237C231.361 544.206 231.233 544.175 231.104 544.146C230.974 544.117 230.845 544.091 230.725 544.068C230.604 544.045 230.494 544.027 230.401 544.014C230.307 544.001 230.233 543.993 230.181 543.992C230.129 543.991 230.101 543.995 230.099 544.006C230.097 544.016 230.12 544.033 230.167 544.054C230.215 544.074 230.285 544.1 230.375 544.128C230.465 544.156 230.573 544.186 230.691 544.217C230.81 544.248 230.938 544.278 231.068 544.308C231.197 544.337 231.326 544.363 231.447 544.386C231.567 544.409 231.677 544.427 231.771 544.44C231.864 544.453 231.939 544.461 231.99 544.462C232.042 544.463 232.07 544.459 232.072 544.448ZM475.022 544.557L437.932 550.095C437.723 550.13 437.561 550.235 437.446 550.41C425.794 567.539 414.981 583.452 405.007 598.15C405.017 598.195 405.004 598.23 404.969 598.255C404.959 598.26 404.957 598.265 404.962 598.27C404.967 598.27 404.972 598.272 404.977 598.277C404.992 598.287 405.004 598.285 405.014 598.27L438.06 552.068C438.261 551.789 438.562 551.598 438.898 551.536L475.022 544.557C475.775 544.492 476.359 544.379 476.774 544.219C477.378 543.989 477.363 543.942 476.729 544.077C476.225 544.187 475.656 544.347 475.022 544.557ZM269.343 551.941C284.329 572.922 295.369 588.35 302.463 598.225C302.523 598.315 302.556 598.317 302.561 598.232C302.561 598.207 302.546 598.172 302.516 598.127C285.483 573.089 274.665 557.196 270.062 550.448C269.996 550.353 269.911 550.272 269.813 550.21C269.716 550.148 269.607 550.107 269.493 550.087L233.19 544.445C233.12 544.43 233.073 544.462 233.048 544.542V544.55C233.044 544.564 233.044 544.58 233.049 544.595C233.054 544.61 233.063 544.626 233.075 544.64C233.088 544.654 233.104 544.666 233.122 544.676C233.14 544.687 233.161 544.695 233.182 544.7L268.789 551.581C269.018 551.626 269.203 551.746 269.343 551.941Z" fill="url(#paint0_linear_1388_4869)" fill-opacity="0.75"/>
<path d="M353.743 501.408C353.768 501.408 353.795 501.411 353.825 501.416C353.88 501.426 353.942 501.466 354.012 501.536C355.924 503.407 357.966 505.453 360.138 507.674C360.283 507.82 360.373 508.013 360.392 508.222C360.492 509.517 360.534 510.986 360.519 512.627C360.445 519.715 360.437 525.658 360.497 530.456C360.557 534.948 360.41 539.946 360.055 545.449C359.836 548.805 358.992 563.003 357.524 588.041C357.521 588.123 357.487 588.201 357.43 588.259C357.373 588.318 357.297 588.352 357.217 588.356C356.119 588.411 354.966 588.438 353.758 588.438C352.55 588.443 351.396 588.416 350.298 588.356C350.218 588.352 350.142 588.318 350.085 588.259C350.028 588.201 349.995 588.123 349.991 588.041C348.513 563.003 347.662 548.805 347.438 545.449C347.083 539.946 346.936 534.948 346.996 530.456C347.051 525.658 347.041 519.715 346.966 512.627C346.951 510.986 346.993 509.517 347.093 508.222C347.112 508.013 347.202 507.82 347.348 507.674C349.519 505.453 351.559 503.407 353.466 501.536C353.535 501.466 353.598 501.426 353.653 501.416C353.683 501.411 353.713 501.408 353.743 501.408Z" fill="url(#paint1_linear_1388_4869)" fill-opacity="0.75"/>
<path d="M276.494 680.858C276.474 681.083 276.491 681.278 276.546 681.443C276.356 682.689 276.444 683.872 276.808 684.992C276.908 685.293 277.108 685.39 277.407 685.285C277.767 685.16 278.121 685.167 278.471 685.308C278.59 685.358 278.967 685.24 279.601 684.955C286.55 681.778 290.344 680.05 290.983 679.77C291.665 679.469 291.807 679.027 292.324 678.622C292.443 678.527 292.537 678.403 292.596 678.263C292.655 678.122 292.678 677.969 292.662 677.817C292.646 677.665 292.593 677.519 292.506 677.394C292.419 677.268 292.303 677.167 292.166 677.098C291.463 676.738 291.123 676.228 291.148 675.567C291.148 675.51 291.134 675.453 291.106 675.404C291.079 675.354 291.039 675.312 290.991 675.282C290.806 675.162 290.659 675.187 290.549 675.357C290.434 675.542 290.267 675.63 290.047 675.62C289.992 675.615 289.93 675.607 289.86 675.597C289.848 675.598 289.837 675.596 289.825 675.592C289.814 675.588 289.804 675.582 289.795 675.574C289.787 675.566 289.78 675.556 289.775 675.545C289.77 675.535 289.767 675.523 289.766 675.511C289.766 675.499 289.768 675.488 289.772 675.476C289.776 675.465 289.782 675.455 289.79 675.446C289.798 675.438 289.808 675.431 289.819 675.426C289.829 675.421 289.841 675.418 289.853 675.417C290.022 675.382 290.157 675.335 290.257 675.275C290.507 675.12 290.532 674.93 290.332 674.705C290.252 674.614 290.21 674.569 290.205 674.569C290.145 674.524 290.062 674.504 289.957 674.509C289.214 674.549 288.767 674.272 288.617 673.676C288.432 672.961 288.328 672.573 288.303 672.513C282.197 659.076 274.756 642.7 265.98 623.385C265.87 623.14 265.91 622.925 266.1 622.74C266.989 621.89 267.248 621.007 266.879 620.091C265.92 617.705 264.395 614.321 262.303 609.938C262.189 609.698 262.221 609.481 262.401 609.286C263.694 607.89 263.644 606.359 262.251 604.693C262.096 604.508 261.909 604.466 261.689 604.566C261.605 604.606 261.532 604.626 261.472 604.626C261.39 604.619 261.31 604.587 261.244 604.532C261.177 604.477 261.127 604.403 261.098 604.318C260.941 603.823 261.09 603.53 260.806 602.907C256.877 594.278 254.703 589.5 254.284 588.575C254.179 588.345 254.251 588.25 254.501 588.29L261.278 589.273C261.472 589.298 261.632 589.39 261.757 589.55L285.899 620.106C286.163 620.441 286.301 620.822 286.311 621.247L286.513 629.531C286.518 629.615 286.546 629.695 286.595 629.764L289.942 633.996C290.078 634.166 290.152 634.378 290.152 634.596V649.582C290.152 650.362 290.407 651.047 290.916 651.638C292.593 653.579 295.494 656.885 299.617 661.558C300.426 662.478 301.277 663.066 302.171 663.321C303.509 663.706 305.173 664.232 307.165 664.897C307.18 664.902 307.196 664.903 307.211 664.9C307.227 664.897 307.241 664.89 307.254 664.879C307.266 664.869 307.276 664.856 307.283 664.84C307.29 664.825 307.293 664.809 307.293 664.792C307.293 664.752 307.263 664.724 307.203 664.709L301.662 662.751C301.119 662.56 300.648 662.204 300.316 661.734C299.983 661.263 299.804 660.701 299.804 660.124V649.101C299.804 648.841 299.889 648.613 300.059 648.418C300.598 647.788 301.402 647.543 302.47 647.683C304.567 647.958 306.085 648.801 307.023 650.212C307.662 651.177 308.007 652.713 308.056 654.819C308.146 658.581 308.124 661.973 307.989 664.994C307.979 665.135 308.034 665.222 308.154 665.257L309.644 665.7C309.719 665.72 309.754 665.682 309.749 665.587C309.399 659.784 309.364 655.715 309.644 653.378C309.709 652.808 310.133 652.035 310.917 651.06C311.032 650.915 311.182 650.86 311.366 650.895L320.726 652.711C320.981 652.756 321.201 652.873 321.385 653.063C322.139 653.829 322.708 654.492 323.093 655.052C323.537 655.692 323.774 656.445 323.804 657.311C323.929 661.178 323.936 664.929 323.827 668.566C323.822 668.762 323.889 668.953 324.014 669.103C324.14 669.254 324.315 669.353 324.508 669.384C324.663 669.409 324.753 669.424 324.778 669.429C324.844 669.44 324.912 669.437 324.977 669.421C325.041 669.404 325.101 669.375 325.152 669.334C325.203 669.293 325.243 669.242 325.271 669.184C325.298 669.127 325.311 669.065 325.309 669.002C325.105 663.504 325.11 659.904 325.324 658.203C325.434 657.303 326.041 656.072 327.144 654.512C327.214 654.415 327.309 654.339 327.417 654.294C327.526 654.249 327.644 654.236 327.758 654.256C329.87 654.632 331.295 654.877 332.034 654.992C333.202 655.177 334.053 655.567 334.587 656.162C335.181 656.828 335.763 657.466 336.332 658.076C336.517 658.276 336.609 658.511 336.609 658.781V670.697C336.609 670.804 336.643 670.908 336.705 670.994C336.767 671.081 336.854 671.145 336.953 671.178L337.38 671.32C337.442 671.34 337.508 671.346 337.572 671.336C337.636 671.327 337.697 671.302 337.75 671.265C337.802 671.228 337.845 671.178 337.875 671.122C337.904 671.065 337.919 671.002 337.919 670.938V659.314C337.92 658.269 338.318 657.264 339.034 656.503C339.749 655.743 340.727 655.286 341.768 655.224C343.655 655.112 346.448 655.277 349.601 655.254C351.154 655.239 351.977 656.095 352.072 657.821C352.282 661.563 352.392 665.585 352.402 669.887C352.407 670.667 352.798 671.058 353.577 671.058H354.056C354.845 671.058 355.24 670.662 355.24 669.872V657.25C355.24 656.719 355.45 656.21 355.825 655.834C356.2 655.458 356.709 655.247 357.239 655.247H365.663C366.603 655.246 367.507 655.611 368.185 656.264C368.863 656.917 369.264 657.808 369.302 658.751L369.767 670.727C369.771 670.807 369.798 670.884 369.842 670.95C369.887 671.016 369.949 671.069 370.021 671.103L370.321 671.238C370.359 671.255 370.401 671.263 370.443 671.26C370.485 671.257 370.525 671.244 370.561 671.222C370.596 671.199 370.626 671.169 370.647 671.132C370.668 671.096 370.679 671.055 370.68 671.013C370.8 667.191 370.892 663.421 370.957 659.704C370.995 657.656 371.878 657.348 373.106 655.99C373.486 655.57 374.13 655.277 375.038 655.112C377.674 654.622 379.259 654.336 379.793 654.256C379.903 654.238 380.016 654.253 380.118 654.298C380.221 654.343 380.308 654.418 380.37 654.512C381.423 656.087 381.985 657.19 382.055 657.821C382.255 659.547 382.337 663.259 382.302 668.957C382.302 669.222 382.434 669.354 382.699 669.354H383.335C383.625 669.354 383.762 669.212 383.747 668.927C383.553 665.485 383.55 661.468 383.74 656.875C383.765 656.245 383.967 655.672 384.346 655.157C385.095 654.151 385.836 652.891 387.252 652.666C390.367 652.165 393.187 651.525 395.713 650.745C395.953 650.67 396.163 650.722 396.342 650.902C397.286 651.883 397.765 652.626 397.78 653.131C397.88 656.953 397.927 660.77 397.922 664.582C397.922 664.977 397.848 665.36 397.698 665.73L397.181 665.865L390.397 667.778C389.808 667.758 389.194 667.856 388.555 668.071C388.32 668.031 388.178 668.079 388.128 668.214C388.263 668.239 388.4 668.186 388.54 668.056C389.169 668.106 389.788 668.014 390.397 667.778L397.181 665.865C397.361 665.86 397.533 665.815 397.698 665.73L399.21 665.287C399.455 665.212 399.57 665.047 399.555 664.792C399.435 662.451 399.385 660.114 399.405 657.783C399.435 654.457 399.592 652.378 399.877 651.548C400.701 649.156 402.672 647.833 405.793 647.578C406.031 647.558 406.27 647.588 406.496 647.666C406.723 647.744 406.93 647.868 407.106 648.03C407.282 648.192 407.422 648.389 407.518 648.608C407.615 648.827 407.664 649.064 407.665 649.304V659.997C407.665 660.619 407.472 661.226 407.112 661.733C406.752 662.239 406.244 662.622 405.658 662.826L401.105 664.424C401.025 664.454 400.988 664.497 400.993 664.552C400.993 664.567 400.995 664.582 401 664.597C401.005 664.627 401.025 664.637 401.06 664.627C402.343 664.302 403.766 663.861 405.328 663.306C406.422 662.916 407.328 662.298 408.046 661.453C409.374 659.887 412.3 656.52 416.823 651.352C417.151 650.975 417.334 650.493 417.339 649.994C417.364 645.972 417.382 640.955 417.392 634.941C417.392 634.721 417.479 634.411 417.654 634.011C417.759 633.771 417.933 633.503 418.178 633.208C418.892 632.323 419.508 631.522 420.028 630.807C420.507 630.141 420.779 629.206 420.844 628C420.974 625.534 421.073 623.383 421.143 621.547C421.168 620.937 421.37 620.394 421.75 619.919L445.63 589.693C445.79 589.493 445.994 589.373 446.244 589.333L452.968 588.23C453.238 588.185 453.318 588.29 453.208 588.545C451.016 593.407 448.845 598.19 446.693 602.892C446.431 603.463 446.536 603.995 446.326 604.416C446.274 604.518 446.186 604.597 446.08 604.637C445.975 604.677 445.859 604.676 445.757 604.633C445.712 604.613 445.655 604.573 445.585 604.513C445.546 604.482 445.497 604.466 445.447 604.469C445.397 604.472 445.35 604.493 445.315 604.528C444.467 605.374 444.117 606.557 444.267 608.078C444.281 608.21 444.322 608.338 444.388 608.453C444.454 608.568 444.543 608.667 444.649 608.745C444.829 608.875 444.991 609.04 445.136 609.241C445.275 609.431 445.3 609.626 445.21 609.826L440.485 620.271C440.392 620.478 440.339 620.701 440.33 620.924C440.321 621.148 440.356 621.368 440.432 621.569C440.509 621.769 440.626 621.946 440.774 622.087C440.923 622.229 441.1 622.331 441.294 622.387C441.399 622.417 441.476 622.62 441.526 622.995C441.551 623.195 441.519 623.398 441.429 623.603C432.867 642.363 425.174 659.317 418.35 674.464C418.332 674.5 418.304 674.529 418.271 674.548C418.237 674.567 418.2 674.574 418.163 674.569L417.721 674.502C417.522 674.477 417.362 674.547 417.242 674.712L416.126 676.273C415.991 676.463 415.822 676.618 415.617 676.738C414.993 677.093 414.741 677.496 414.861 677.946C414.962 678.319 415.14 678.664 415.384 678.956C415.627 679.248 415.929 679.48 416.269 679.635L428.437 685.195C428.686 685.31 428.939 685.318 429.193 685.217C429.468 685.112 429.73 685.077 429.979 685.112C429.82 685.277 429.87 685.418 430.129 685.533C430.798 685.047 431.118 684.314 431.088 683.334C431.058 682.373 431.038 681.4 431.028 680.415C431.023 680.18 430.94 679.977 430.781 679.807C430.541 679.547 430.534 679.172 430.758 678.682C432.96 673.899 440.51 657.263 453.41 628.773C453.51 628.548 453.672 628.488 453.897 628.593C455.384 629.298 456.52 628.916 457.304 627.445C457.718 626.675 459.196 623.388 461.737 617.585C461.842 617.35 462.021 617.207 462.276 617.157C462.775 617.052 463.135 617.03 463.354 617.09C463.799 617.21 464.173 617.095 464.478 616.744C465.251 615.859 465.568 614.854 465.429 613.728C465.394 613.468 465.431 613.22 465.541 612.985L477.881 585.798C477.969 585.609 477.986 585.391 477.929 585.179C477.872 584.967 477.744 584.773 477.567 584.628C477.487 584.568 477.39 584.523 477.275 584.493C476.896 584.403 476.623 584.535 476.459 584.89L464.201 611.889C464.121 612.075 463.988 612.125 463.804 612.04L448.176 604.918C448.116 604.891 448.062 604.852 448.017 604.803C447.972 604.755 447.937 604.698 447.914 604.636C447.891 604.574 447.88 604.508 447.883 604.442C447.885 604.376 447.901 604.311 447.929 604.251L455.2 588.23C455.251 588.119 455.328 588.022 455.426 587.947C455.524 587.873 455.639 587.823 455.761 587.802L488.073 582.519C488.348 582.474 488.465 582.589 488.425 582.864L482.569 623.355C482.529 623.629 482.446 623.895 482.322 624.143C475.583 637.665 469.517 649.824 464.126 660.62C461.714 665.457 459.323 669.845 456.952 673.782C449.838 685.608 440.877 700.635 430.069 718.865C429.126 720.456 427.928 721.951 426.475 723.352C420.764 728.84 414.404 734.986 407.395 741.789C407.056 742.119 406.644 742.359 406.197 742.487L388.929 747.5H318.765C313.218 745.874 307.667 744.263 302.111 742.667C301.082 742.372 300.251 741.919 299.617 741.309C293.088 735.036 286.89 729.033 281.024 723.3C279.486 721.799 278.208 720.181 277.19 718.445C276.187 716.744 267.248 701.736 250.375 673.421C247.584 668.729 245.18 664.344 243.164 660.267C236.864 647.5 231.145 636.034 226.008 625.869C225.319 624.514 224.855 622.995 224.615 621.314C222.089 603.59 220.419 591.869 219.606 586.151C219.591 586.031 219.416 585.446 219.082 584.395C218.927 583.915 218.892 583.41 218.977 582.879C219.022 582.594 219.184 582.474 219.463 582.519L251.58 587.779C251.95 587.84 252.212 588.04 252.367 588.38L259.533 604.168C259.698 604.528 259.6 604.788 259.241 604.948L243.785 611.995C243.541 612.11 243.363 612.045 243.253 611.799L230.988 584.785C230.893 584.58 230.733 584.46 230.509 584.425C229.86 584.33 229.57 584.763 229.64 585.723C229.65 585.833 229.678 585.939 229.722 586.039L241.936 612.933C242.035 613.158 242.075 613.393 242.055 613.638C241.951 615.029 242.365 616.152 243.298 617.007C243.453 617.142 243.633 617.202 243.838 617.187L245.133 617.09C245.383 617.07 245.557 617.175 245.657 617.405C248.068 622.848 249.564 626.159 250.143 627.34C250.896 628.866 252.035 629.271 253.557 628.556C253.782 628.446 253.947 628.506 254.051 628.736L276.786 678.809C276.886 679.029 276.905 679.259 276.846 679.499L276.494 680.858ZM316.4 667.742C316.405 667.728 316.342 667.694 316.215 667.643C316.088 667.591 315.9 667.523 315.661 667.442C315.423 667.36 315.138 667.268 314.825 667.169C314.511 667.071 314.173 666.968 313.832 666.868C313.142 666.664 312.477 666.48 311.984 666.357C311.49 666.233 311.208 666.18 311.199 666.209C311.195 666.223 311.258 666.257 311.385 666.308C311.512 666.36 311.7 666.428 311.938 666.509C312.177 666.591 312.461 666.683 312.775 666.782C313.089 666.88 313.427 666.983 313.768 667.084C314.458 667.287 315.123 667.471 315.616 667.594C316.11 667.718 316.392 667.771 316.4 667.742ZM316.825 667.696C316.965 667.731 317.105 667.723 317.244 667.673C317.085 667.623 316.945 667.631 316.825 667.696ZM288.535 667.981C288.531 667.977 288.527 667.973 288.524 667.969C288.521 667.965 288.518 667.962 288.516 667.959C288.515 667.956 288.514 667.953 288.515 667.952C288.516 667.951 288.517 667.95 288.52 667.951C288.53 667.946 288.52 667.954 288.49 667.974C288.484 667.977 288.479 667.983 288.477 667.99C288.474 667.998 288.473 668.007 288.473 668.016C288.474 668.026 288.476 668.037 288.481 668.047C288.485 668.058 288.49 668.069 288.497 668.079L295.843 678.119C296.003 678.339 296.013 678.569 295.873 678.809C295.297 679.792 294.772 680.64 293.746 681.15C286.228 684.897 281.878 687.081 280.695 687.701C280.085 688.021 279.319 688.206 278.396 688.257C277.377 688.317 276.564 688.119 275.954 687.664C275.48 687.309 275.001 686.331 274.517 684.73C273.174 680.267 271.819 675.81 270.451 671.358C270.426 671.293 270.383 671.268 270.323 671.283H270.316C270.251 671.308 270.221 671.343 270.226 671.388L273.573 690.185C273.623 690.465 273.783 690.65 274.052 690.74L277.205 691.798C277.465 691.888 277.717 691.868 277.961 691.738L296.734 681.916C297.111 681.718 297.438 681.437 297.689 681.093C297.94 680.749 298.109 680.351 298.183 679.932C298.257 679.512 298.233 679.081 298.115 678.671C297.996 678.262 297.785 677.886 297.498 677.571C294.653 674.454 291.665 671.258 288.535 667.981ZM319.259 668.266C318.63 667.981 318.136 667.823 317.776 667.793C316.922 667.723 316.915 667.773 317.754 667.943L319.281 668.259C319.291 668.259 319.296 668.254 319.296 668.244L319.304 668.229C319.306 668.234 319.306 668.239 319.305 668.245C319.303 668.25 319.3 668.255 319.296 668.259C319.291 668.262 319.285 668.265 319.279 668.266C319.272 668.268 319.265 668.268 319.259 668.266ZM418.964 667.981C415.834 671.258 412.846 674.454 410.001 677.571C409.714 677.886 409.503 678.262 409.384 678.671C409.266 679.081 409.242 679.512 409.316 679.932C409.39 680.351 409.559 680.749 409.81 681.093C410.061 681.437 410.388 681.718 410.765 681.916L429.538 691.738C429.782 691.868 430.034 691.888 430.294 691.798L433.446 690.74C433.716 690.65 433.876 690.465 433.926 690.185L437.273 671.388C437.278 671.343 437.248 671.308 437.183 671.283H437.176C437.116 671.268 437.073 671.293 437.048 671.358C435.68 675.81 434.325 680.267 432.982 684.73C432.498 686.331 432.019 687.309 431.544 687.664C430.935 688.119 430.122 688.317 429.103 688.257C428.18 688.206 427.413 688.021 426.804 687.701C425.621 687.081 421.271 684.897 413.752 681.15C412.727 680.64 412.202 679.792 411.626 678.809C411.486 678.569 411.496 678.339 411.656 678.119L419.002 668.079C419.009 668.069 419.014 668.058 419.018 668.047C419.022 668.037 419.025 668.026 419.026 668.016C419.026 668.007 419.025 667.998 419.022 667.99C419.02 667.983 419.015 667.977 419.009 667.974C418.979 667.954 418.969 667.946 418.979 667.951C418.982 667.95 418.983 667.951 418.984 667.952C418.985 667.953 418.984 667.956 418.982 667.959C418.981 667.962 418.978 667.965 418.975 667.969C418.972 667.973 418.968 667.977 418.964 667.981ZM322.287 668.811C322.289 668.802 322.281 668.79 322.261 668.776C322.242 668.762 322.213 668.746 322.176 668.73C322.138 668.713 322.093 668.697 322.043 668.681C321.992 668.665 321.938 668.649 321.882 668.636C321.77 668.609 321.661 668.59 321.579 668.585C321.496 668.579 321.447 668.587 321.443 668.607C321.44 668.616 321.449 668.628 321.468 668.642C321.487 668.656 321.516 668.672 321.554 668.688C321.591 668.704 321.637 668.721 321.687 668.737C321.737 668.753 321.792 668.768 321.847 668.782C321.959 668.809 322.068 668.827 322.151 668.833C322.233 668.838 322.282 668.831 322.287 668.811ZM386.218 668.596C386.148 668.606 385.949 668.659 385.619 668.754C383.448 669.364 383.682 669.644 386.323 669.594C386.493 669.594 386.688 669.567 386.907 669.512C387.048 669.477 387.147 669.397 387.184 669.291C387.22 669.184 387.19 669.058 387.101 668.939C387.011 668.82 386.869 668.718 386.705 668.654C386.54 668.591 386.366 668.57 386.218 668.596ZM379.157 669.895C378.937 670.005 378.94 670.057 379.164 670.052C379.514 670.047 379.793 670.022 380.003 669.977C380.562 669.857 380.557 669.804 379.988 669.819C379.519 669.829 379.242 669.855 379.157 669.895ZM328.949 670.15C329.72 670.345 330.334 670.555 331.06 670.6C331.085 670.6 331.098 670.587 331.098 670.562C331.098 670.552 331.098 670.542 331.098 670.532C331.098 670.522 331.095 670.517 331.09 670.517L329.038 670.09C329.013 670.085 328.996 670.082 328.986 670.082C328.971 670.087 328.956 670.092 328.941 670.097C328.881 670.112 328.884 670.13 328.949 670.15ZM378.877 670.06C378.872 670.036 378.728 670.042 378.477 670.074C378.226 670.107 377.888 670.164 377.537 670.234C377.186 670.303 376.852 670.38 376.607 670.445C376.363 670.511 376.228 670.561 376.232 670.585C376.237 670.608 376.381 670.603 376.632 670.57C376.883 670.538 377.221 670.48 377.572 670.411C377.923 670.341 378.257 670.265 378.502 670.199C378.746 670.133 378.881 670.083 378.877 670.06ZM345.61 684.437L340.293 736.769C340.288 736.83 340.258 736.886 340.21 736.925C340.163 736.964 340.101 736.984 340.039 736.979L310.737 734.42C310.707 734.415 310.692 734.428 310.692 734.458C310.692 734.468 310.692 734.478 310.692 734.488C310.682 734.558 310.71 734.598 310.775 734.608L341.529 738.473C341.559 738.476 341.589 738.473 341.618 738.463C341.647 738.453 341.674 738.436 341.698 738.414C341.722 738.391 341.741 738.364 341.756 738.332C341.771 738.301 341.78 738.267 341.783 738.232L345.685 684.437C345.799 684.382 345.844 684.312 345.819 684.227C345.76 684.022 345.692 684.022 345.617 684.227C345.592 684.287 345.59 684.357 345.61 684.437ZM395.841 734.511C396.055 734.611 396.255 734.598 396.44 734.473C396.245 734.368 396.045 734.38 395.841 734.511L367.595 736.919C367.351 736.944 367.216 736.832 367.191 736.582L361.987 684.482C361.982 684.417 361.947 684.387 361.882 684.392L361.679 684.415C361.665 684.415 361.657 684.422 361.657 684.437L365.708 738.262C365.71 738.293 365.718 738.324 365.732 738.351C365.746 738.379 365.766 738.404 365.79 738.423C365.814 738.443 365.841 738.458 365.871 738.466C365.901 738.475 365.932 738.477 365.963 738.473L395.841 734.511ZM295.48 690.883C295.394 690.703 295.24 690.566 295.053 690.5C294.865 690.434 294.66 690.446 294.481 690.532L288.165 693.578C288.076 693.621 287.997 693.68 287.931 693.754C287.866 693.827 287.815 693.913 287.783 694.006C287.75 694.099 287.737 694.198 287.742 694.296C287.748 694.394 287.772 694.491 287.815 694.579L287.834 694.62C287.921 694.799 288.074 694.937 288.262 695.003C288.449 695.069 288.655 695.057 288.834 694.971L295.15 691.925C295.238 691.882 295.317 691.822 295.383 691.749C295.449 691.675 295.499 691.59 295.532 691.497C295.564 691.404 295.578 691.305 295.572 691.207C295.567 691.108 295.542 691.012 295.5 690.923L295.48 690.883ZM419.645 694.537C419.727 694.367 419.737 694.171 419.675 693.992C419.612 693.814 419.481 693.668 419.311 693.586L412.977 690.545C412.806 690.463 412.611 690.453 412.433 690.516C412.255 690.578 412.109 690.709 412.028 690.88L412.008 690.92C411.927 691.091 411.916 691.287 411.979 691.465C412.042 691.644 412.172 691.79 412.342 691.871L418.677 694.913C418.847 694.994 419.043 695.005 419.221 694.942C419.399 694.879 419.544 694.748 419.626 694.578L419.645 694.537ZM298.106 696.283C298.02 696.104 297.866 695.967 297.678 695.901C297.491 695.836 297.285 695.848 297.106 695.934L290.755 699.011C290.667 699.054 290.588 699.114 290.522 699.187C290.457 699.261 290.406 699.347 290.374 699.44C290.342 699.533 290.328 699.631 290.334 699.73C290.339 699.828 290.364 699.924 290.407 700.013L290.42 700.04C290.507 700.219 290.66 700.357 290.848 700.422C291.036 700.488 291.241 700.476 291.42 700.389L297.771 697.313C297.859 697.27 297.939 697.21 298.004 697.136C298.07 697.063 298.12 696.977 298.152 696.884C298.185 696.791 298.198 696.692 298.193 696.594C298.187 696.495 298.162 696.399 298.119 696.31L298.106 696.283ZM417.115 699.997C417.155 699.916 417.178 699.827 417.183 699.737C417.188 699.646 417.176 699.556 417.146 699.47C417.117 699.384 417.071 699.305 417.011 699.238C416.95 699.17 416.878 699.114 416.796 699.075L410.222 695.876C410.058 695.796 409.868 695.785 409.696 695.845C409.523 695.904 409.381 696.031 409.301 696.195L409.282 696.236C409.242 696.317 409.219 696.406 409.214 696.496C409.208 696.587 409.221 696.678 409.25 696.763C409.28 696.849 409.326 696.928 409.386 696.996C409.446 697.064 409.519 697.119 409.6 697.158L416.175 700.357C416.339 700.437 416.529 700.449 416.701 700.389C416.874 700.329 417.016 700.203 417.095 700.038L417.115 699.997ZM300.622 701.658C300.579 701.572 300.52 701.494 300.448 701.431C300.375 701.367 300.291 701.319 300.199 701.288C300.108 701.257 300.012 701.244 299.916 701.25C299.819 701.257 299.725 701.282 299.639 701.325L293.369 704.43C293.283 704.473 293.205 704.532 293.142 704.605C293.079 704.678 293.03 704.762 292.999 704.854C292.968 704.945 292.956 705.042 292.962 705.138C292.968 705.235 292.994 705.329 293.036 705.415L293.056 705.456C293.099 705.542 293.158 705.619 293.231 705.683C293.303 705.747 293.387 705.795 293.479 705.826C293.57 705.857 293.666 705.87 293.763 705.864C293.859 705.857 293.953 705.832 294.039 705.789L300.309 702.684C300.396 702.641 300.473 702.582 300.536 702.509C300.6 702.436 300.648 702.352 300.679 702.26C300.71 702.169 300.723 702.072 300.716 701.976C300.71 701.879 300.685 701.785 300.642 701.699L300.622 701.658ZM414.477 705.435C414.561 705.268 414.575 705.074 414.516 704.897C414.457 704.719 414.33 704.572 414.163 704.489L407.829 701.31C407.662 701.226 407.469 701.212 407.292 701.272C407.114 701.331 406.968 701.458 406.884 701.625L406.857 701.679C406.774 701.846 406.76 702.04 406.819 702.217C406.878 702.395 407.005 702.542 407.172 702.625L413.506 705.804C413.673 705.888 413.866 705.901 414.043 705.842C414.22 705.783 414.367 705.656 414.45 705.489L414.477 705.435ZM300.8 707.376C299.233 708.187 298.04 708.907 297.221 709.538C296.522 710.078 296.614 710.328 297.498 710.288C298.736 710.233 300.134 709.693 301.691 708.667C301.901 708.527 302.023 708.332 302.058 708.082C302.103 707.732 302.046 707.389 301.886 707.054C301.796 706.859 301.657 706.809 301.467 706.904C301.422 706.929 301.342 706.984 301.227 707.069C300.993 707.244 300.85 707.346 300.8 707.376ZM406.744 707.354C406.694 707.324 406.556 707.221 406.332 707.046C406.222 706.961 406.144 706.906 406.1 706.881C405.92 706.786 405.783 706.834 405.688 707.024C405.528 707.349 405.468 707.682 405.508 708.022C405.538 708.267 405.653 708.459 405.852 708.6C407.355 709.625 408.71 710.175 409.919 710.25C410.777 710.305 410.87 710.063 410.196 709.523C409.412 708.897 408.261 708.174 406.744 707.354Z" fill="url(#paint2_linear_1388_4869)" fill-opacity="0.75"/>
<path d="M260.686 605.897L243.665 613.67C243.462 613.763 243.372 614.003 243.465 614.207L244.036 615.463C244.129 615.667 244.368 615.757 244.572 615.664L261.593 607.89C261.796 607.798 261.886 607.557 261.793 607.354L261.222 606.097C261.129 605.894 260.889 605.804 260.686 605.897Z" fill="url(#paint3_linear_1388_4869)" fill-opacity="0.75"/>
<path d="M463.785 613.64L446.818 605.892C446.596 605.79 446.334 605.888 446.233 606.111L445.692 607.299C445.591 607.521 445.689 607.784 445.911 607.885L462.878 615.634C463.1 615.735 463.362 615.637 463.463 615.415L464.004 614.226C464.105 614.004 464.007 613.741 463.785 613.64Z" fill="url(#paint4_linear_1388_4869)" fill-opacity="0.75"/>
<path d="M259.84 609.463L246.962 615.344C246.755 615.439 246.663 615.684 246.758 615.891L251.838 627.062C251.932 627.27 252.177 627.361 252.384 627.267L265.262 621.385C265.469 621.291 265.56 621.046 265.466 620.839L260.386 609.668C260.291 609.46 260.047 609.369 259.84 609.463Z" fill="url(#paint5_linear_1388_4869)" fill-opacity="0.75"/>
<path d="M460.567 615.357L447.634 609.451C447.438 609.362 447.207 609.448 447.118 609.644L442.019 620.856C441.93 621.052 442.016 621.284 442.212 621.373L455.145 627.279C455.34 627.369 455.571 627.282 455.66 627.086L460.759 615.874C460.849 615.678 460.762 615.446 460.567 615.357Z" fill="url(#paint6_linear_1388_4869)" fill-opacity="0.75"/>
<path d="M263.855 623.632L255.638 627.385C255.461 627.466 255.383 627.675 255.463 627.852L278.349 678.176C278.43 678.354 278.639 678.432 278.816 678.351L287.033 674.598C287.21 674.517 287.288 674.308 287.208 674.131L264.322 623.807C264.241 623.63 264.032 623.551 263.855 623.632Z" fill="url(#paint7_linear_1388_4869)" fill-opacity="0.75"/>
<path d="M451.8 627.353L443.603 623.627C443.419 623.543 443.201 623.625 443.117 623.809L420.331 674.146C420.248 674.331 420.329 674.549 420.514 674.633L428.711 678.359C428.895 678.443 429.113 678.361 429.197 678.176L451.983 627.839C452.066 627.654 451.985 627.436 451.8 627.353Z" fill="url(#paint8_linear_1388_4869)" fill-opacity="0.75"/>
<path d="M292.496 652.794L290.871 650.738C290.827 650.683 290.803 650.614 290.803 650.543V636.563C290.803 636.498 290.824 636.434 290.861 636.381C290.899 636.327 290.953 636.287 291.015 636.265C291.076 636.244 291.143 636.242 291.206 636.261C291.269 636.279 291.324 636.317 291.365 636.368L292.99 638.424C293.033 638.48 293.057 638.549 293.057 638.619V652.599C293.057 652.665 293.037 652.729 292.999 652.782C292.961 652.835 292.907 652.876 292.846 652.897C292.784 652.919 292.717 652.92 292.654 652.902C292.591 652.883 292.536 652.846 292.496 652.794Z" fill="url(#paint9_linear_1388_4869)" fill-opacity="0.75"/>
<path d="M414.472 638.558L415.91 636.547C415.964 636.473 416.04 636.417 416.127 636.389C416.214 636.36 416.308 636.36 416.395 636.388C416.483 636.417 416.559 636.472 416.613 636.546C416.667 636.621 416.696 636.711 416.696 636.803V650.415C416.696 650.506 416.667 650.595 416.614 650.67L415.176 652.681C415.122 652.755 415.046 652.811 414.959 652.839C414.872 652.868 414.778 652.868 414.69 652.84C414.603 652.811 414.527 652.756 414.473 652.682C414.419 652.607 414.39 652.518 414.39 652.426V638.814C414.39 638.722 414.418 638.633 414.472 638.558Z" fill="url(#paint10_linear_1388_4869)" fill-opacity="0.75"/>
<path d="M409.193 644.382L412.436 640.667C412.473 640.625 412.522 640.594 412.576 640.58C412.631 640.566 412.688 640.569 412.741 640.588C412.794 640.608 412.84 640.643 412.872 640.69C412.905 640.736 412.922 640.791 412.922 640.848V654.917C412.922 654.983 412.898 655.047 412.855 655.097L409.613 658.812C409.576 658.855 409.527 658.885 409.472 658.899C409.418 658.913 409.36 658.91 409.307 658.891C409.254 658.871 409.208 658.836 409.176 658.79C409.144 658.743 409.126 658.688 409.126 658.632V644.562C409.126 644.496 409.15 644.432 409.193 644.382Z" fill="url(#paint11_linear_1388_4869)" fill-opacity="0.75"/>
<path d="M295.215 640.832L298.255 644.299C298.309 644.362 298.338 644.442 298.338 644.524V658.399C298.338 658.469 298.316 658.538 298.276 658.597C298.236 658.655 298.179 658.699 298.113 658.724C298.047 658.748 297.974 658.752 297.906 658.734C297.838 658.716 297.777 658.678 297.731 658.624L294.691 655.157C294.637 655.094 294.608 655.014 294.608 654.932V641.057C294.608 640.987 294.63 640.917 294.67 640.859C294.71 640.801 294.767 640.757 294.833 640.732C294.899 640.708 294.971 640.704 295.04 640.722C295.108 640.74 295.169 640.778 295.215 640.832Z" fill="url(#paint12_linear_1388_4869)" fill-opacity="0.75"/>
<g filter="url(#filter1_d_1388_4869)">
<mask id="mask0_1388_4869" style="mask-type:alpha" maskUnits="userSpaceOnUse" x="197" y="260" width="313" height="150">
<path d="M358.525 260C381.941 260.891 403.846 266.27 424.239 276.136C442.904 285.166 459.17 297.146 473.036 312.077C489.559 329.874 501.562 350.275 509.044 373.28C509.052 373.307 509.054 373.335 509.05 373.363C509.046 373.39 509.035 373.416 509.019 373.439C509.003 373.461 508.983 373.48 508.958 373.492C508.934 373.504 508.908 373.51 508.881 373.51C506.055 373.52 499.973 373.525 490.636 373.525C489.055 373.525 487.8 373.822 486.375 374.297C450.948 386.248 415.554 398.149 380.192 410H326.762L218.85 374.037C218.186 373.816 217.489 373.703 216.786 373.703H197.791C197.745 373.703 197.699 373.692 197.658 373.671C197.616 373.65 197.581 373.62 197.554 373.582C197.527 373.545 197.509 373.502 197.503 373.457C197.496 373.413 197.501 373.367 197.517 373.324C209.843 336.79 231.788 307.993 263.349 286.933C267.412 284.225 271.66 281.693 276.094 279.337C298.452 267.47 322.44 261.025 348.058 260H358.525Z" fill="#B4B4B4"/>
</mask>
<g mask="url(#mask0_1388_4869)">
<g filter="url(#filter2_d_1388_4869)">
<path d="M203.899 437.814L201.673 405.982L235.939 394.887C236.037 394.853 236.094 394.787 236.11 394.69L238.239 382.35C238.274 382.141 238.212 381.969 238.051 381.833L211.244 359.449C211.137 359.36 211.064 359.239 211.034 359.105C211.005 358.971 211.022 358.832 211.082 358.71L224.589 331.018C224.806 330.576 225.154 330.41 225.634 330.518L259.689 337.956C259.852 337.991 259.986 337.944 260.092 337.818L267.757 328.639C267.875 328.497 267.903 328.34 267.84 328.165L255.766 295.523C255.72 295.394 255.718 295.255 255.76 295.126C255.802 294.997 255.886 294.887 255.998 294.812L281.87 277.359C281.955 277.303 282.057 277.276 282.159 277.284C282.262 277.291 282.36 277.333 282.437 277.402L308.108 300.643C308.172 300.701 308.25 300.741 308.335 300.758C308.42 300.775 308.508 300.769 308.589 300.74L320.788 296.229C320.925 296.178 321.046 296.091 321.14 295.977C321.233 295.863 321.295 295.726 321.32 295.58L327.069 262.241C327.105 262.032 327.221 261.891 327.417 261.818L327.879 261.634L328.255 261.608L357.645 259.553L358.295 259.508L358.881 259.632C359.132 259.683 359.296 259.827 359.372 260.065L369.629 292.092C369.683 292.267 369.8 292.371 369.981 292.404L383.603 294.965C383.714 294.985 383.808 294.951 383.885 294.863L405.546 268.924C405.622 268.832 405.726 268.768 405.841 268.743C405.957 268.717 406.077 268.732 406.183 268.784L434.331 282.514C434.531 282.614 434.608 282.771 434.563 282.985L427.4 315.756C427.382 315.845 427.387 315.936 427.416 316.022C427.445 316.107 427.496 316.182 427.565 316.24L438.117 325.053C438.135 325.068 438.156 325.079 438.178 325.084C438.2 325.088 438.223 325.086 438.243 325.078L469.598 313.479C469.849 313.388 470.048 313.452 470.196 313.671L487.633 339.523C487.802 339.773 487.784 340.012 487.58 340.242L465.367 364.776C465.302 364.846 465.259 364.934 465.242 365.028C465.226 365.121 465.236 365.218 465.273 365.305C467.174 369.806 468.726 374.335 469.93 378.89C469.946 378.95 469.98 379.004 470.028 379.046C470.076 379.088 470.136 379.115 470.2 379.125L502.843 384.75C503.154 384.806 503.321 384.992 503.343 385.307L505.519 416.434C505.538 416.703 505.42 416.879 505.164 416.961L473.675 427.043C473.442 427.119 473.311 427.277 473.282 427.517C472.739 432.075 471.839 436.72 470.584 441.451C470.53 441.657 470.583 441.83 470.744 441.97L496.164 463.193C496.26 463.272 496.326 463.382 496.352 463.503C496.378 463.625 496.362 463.752 496.307 463.863L482.631 491.898C482.58 492.004 482.495 492.089 482.39 492.14C482.285 492.191 482.166 492.205 482.053 492.179L449.457 485.059C449.417 485.049 449.375 485.051 449.336 485.063C449.297 485.076 449.262 485.099 449.235 485.129L440.082 495.245C440.011 495.322 439.962 495.416 439.941 495.519C439.921 495.621 439.929 495.726 439.964 495.824L451.623 527.34C451.645 527.398 451.646 527.461 451.628 527.519C451.61 527.578 451.572 527.629 451.522 527.664L425.512 545.208C425.4 545.285 425.266 545.321 425.13 545.312C424.995 545.303 424.866 545.248 424.766 545.157L400.027 522.759C399.821 522.571 399.586 522.519 399.321 522.602L386.341 526.762C386.171 526.815 386.069 526.93 386.035 527.106L380.29 560.479C380.266 560.604 380.202 560.719 380.108 560.804C380.013 560.889 379.893 560.94 379.766 560.949L348.618 563.127C348.316 563.148 348.119 563.015 348.026 562.728L337.61 530.197C337.591 530.142 337.559 530.092 337.515 530.053C337.471 530.014 337.418 529.987 337.36 529.974L324.393 527.14C324.193 527.094 324.025 527.152 323.889 527.313L301.771 553.799C301.688 553.899 301.574 553.968 301.447 553.995C301.321 554.023 301.189 554.007 301.074 553.951L273.067 540.287C272.958 540.233 272.869 540.145 272.815 540.035C272.761 539.926 272.746 539.801 272.771 539.682L280.24 505.487C280.249 505.447 280.248 505.405 280.235 505.366C280.223 505.327 280.2 505.292 280.169 505.265L271.221 497.165C271.088 497.041 270.935 497.011 270.761 497.073L238.037 509.174C237.856 509.241 237.658 509.246 237.474 509.186C237.29 509.127 237.131 509.007 237.024 508.846L219.749 483.244C219.676 483.134 219.642 483.003 219.652 482.872C219.661 482.741 219.714 482.616 219.801 482.518L243.343 456.523C243.384 456.476 243.412 456.419 243.424 456.358C243.437 456.297 243.434 456.234 243.415 456.174L239.606 444.284C239.58 444.2 239.531 444.126 239.465 444.069C239.399 444.011 239.319 443.974 239.232 443.959L203.899 437.814ZM360.796 503.45C385.205 501.743 407.936 490.41 423.989 471.943C440.042 453.476 448.102 429.389 446.395 404.98C444.688 380.571 433.354 357.84 414.888 341.787C396.421 325.734 372.334 317.675 347.925 319.381C323.516 321.088 300.784 332.422 284.732 350.888C268.679 369.355 260.619 393.442 262.326 417.851C264.033 442.26 275.366 464.992 293.833 481.045C312.3 497.097 336.387 505.157 360.796 503.45Z" fill="#F7271F"/>
<path d="M203.899 437.814L201.673 405.982L235.939 394.887C236.037 394.853 236.094 394.787 236.11 394.69L238.239 382.35C238.274 382.141 238.212 381.969 238.051 381.833L211.244 359.449C211.137 359.36 211.064 359.239 211.034 359.105C211.005 358.971 211.022 358.832 211.082 358.71L224.589 331.018C224.806 330.576 225.154 330.41 225.634 330.518L259.689 337.956C259.852 337.991 259.986 337.944 260.092 337.818L267.757 328.639C267.875 328.497 267.903 328.34 267.84 328.165L255.766 295.523C255.72 295.394 255.718 295.255 255.76 295.126C255.802 294.997 255.886 294.887 255.998 294.812L281.87 277.359C281.955 277.303 282.057 277.276 282.159 277.284C282.262 277.291 282.36 277.333 282.437 277.402L308.108 300.643C308.172 300.701 308.25 300.741 308.335 300.758C308.42 300.775 308.508 300.769 308.589 300.74L320.788 296.229C320.925 296.178 321.046 296.091 321.14 295.977C321.233 295.863 321.295 295.726 321.32 295.58L327.069 262.241C327.105 262.032 327.221 261.891 327.417 261.818L327.879 261.634L328.255 261.608L357.645 259.553L358.295 259.508L358.881 259.632C359.132 259.683 359.296 259.827 359.372 260.065L369.629 292.092C369.683 292.267 369.8 292.371 369.981 292.404L383.603 294.965C383.714 294.985 383.808 294.951 383.885 294.863L405.546 268.924C405.622 268.832 405.726 268.768 405.841 268.743C405.957 268.717 406.077 268.732 406.183 268.784L434.331 282.514C434.531 282.614 434.608 282.771 434.563 282.985L427.4 315.756C427.382 315.845 427.387 315.936 427.416 316.022C427.445 316.107 427.496 316.182 427.565 316.24L438.117 325.053C438.135 325.068 438.156 325.079 438.178 325.084C438.2 325.088 438.223 325.086 438.243 325.078L469.598 313.479C469.849 313.388 470.048 313.452 470.196 313.671L487.633 339.523C487.802 339.773 487.784 340.012 487.58 340.242L465.367 364.776C465.302 364.846 465.259 364.934 465.242 365.028C465.226 365.121 465.236 365.218 465.273 365.305C467.174 369.806 468.726 374.335 469.93 378.89C469.946 378.95 469.98 379.004 470.028 379.046C470.076 379.088 470.136 379.115 470.2 379.125L502.843 384.75C503.154 384.806 503.321 384.992 503.343 385.307L505.519 416.434C505.538 416.703 505.42 416.879 505.164 416.961L473.675 427.043C473.442 427.119 473.311 427.277 473.282 427.517C472.739 432.075 471.839 436.72 470.584 441.451C470.53 441.657 470.583 441.83 470.744 441.97L496.164 463.193C496.26 463.272 496.326 463.382 496.352 463.503C496.378 463.625 496.362 463.752 496.307 463.863L482.631 491.898C482.58 492.004 482.495 492.089 482.39 492.14C482.285 492.191 482.166 492.205 482.053 492.179L449.457 485.059C449.417 485.049 449.375 485.051 449.336 485.063C449.297 485.076 449.262 485.099 449.235 485.129L440.082 495.245C440.011 495.322 439.962 495.416 439.941 495.519C439.921 495.621 439.929 495.726 439.964 495.824L451.623 527.34C451.645 527.398 451.646 527.461 451.628 527.519C451.61 527.578 451.572 527.629 451.522 527.664L425.512 545.208C425.4 545.285 425.266 545.321 425.13 545.312C424.995 545.303 424.866 545.248 424.766 545.157L400.027 522.759C399.821 522.571 399.586 522.519 399.321 522.602L386.341 526.762C386.171 526.815 386.069 526.93 386.035 527.106L380.29 560.479C380.266 560.604 380.202 560.719 380.108 560.804C380.013 560.889 379.893 560.94 379.766 560.949L348.618 563.127C348.316 563.148 348.119 563.015 348.026 562.728L337.61 530.197C337.591 530.142 337.559 530.092 337.515 530.053C337.471 530.014 337.418 529.987 337.36 529.974L324.393 527.14C324.193 527.094 324.025 527.152 323.889 527.313L301.771 553.799C301.688 553.899 301.574 553.968 301.447 553.995C301.321 554.023 301.189 554.007 301.074 553.951L273.067 540.287C272.958 540.233 272.869 540.145 272.815 540.035C272.761 539.926 272.746 539.801 272.771 539.682L280.24 505.487C280.249 505.447 280.248 505.405 280.235 505.366C280.223 505.327 280.2 505.292 280.169 505.265L271.221 497.165C271.088 497.041 270.935 497.011 270.761 497.073L238.037 509.174C237.856 509.241 237.658 509.246 237.474 509.186C237.29 509.127 237.131 509.007 237.024 508.846L219.749 483.244C219.676 483.134 219.642 483.003 219.652 482.872C219.661 482.741 219.714 482.616 219.801 482.518L243.343 456.523C243.384 456.476 243.412 456.419 243.424 456.358C243.437 456.297 243.434 456.234 243.415 456.174L239.606 444.284C239.58 444.2 239.531 444.126 239.465 444.069C239.399 444.011 239.319 443.974 239.232 443.959L203.899 437.814ZM360.796 503.45C385.205 501.743 407.936 490.41 423.989 471.943C440.042 453.476 448.102 429.389 446.395 404.98C444.688 380.571 433.354 357.84 414.888 341.787C396.421 325.734 372.334 317.675 347.925 319.381C323.516 321.088 300.784 332.422 284.732 350.888C268.679 369.355 260.619 393.442 262.326 417.851C264.033 442.26 275.366 464.992 293.833 481.045C312.3 497.097 336.387 505.157 360.796 503.45Z" fill="black" fill-opacity="0.36"/>
</g>
<path d="M444.528 410.564C444.528 434.636 434.965 457.722 417.944 474.743C400.922 491.765 377.836 501.327 353.764 501.327C329.692 501.327 306.606 491.765 289.585 474.743C272.563 457.722 263 434.636 263 410.564C263 386.491 272.563 363.405 289.585 346.384C306.606 329.362 329.692 319.8 353.764 319.8C377.836 319.8 400.922 329.362 417.944 346.384C434.965 363.405 444.528 386.491 444.528 410.564ZM387.012 410.913C387.012 402.183 383.544 393.81 377.37 387.637C371.197 381.463 362.824 377.995 354.093 377.995C345.363 377.995 336.99 381.463 330.817 387.637C324.643 393.81 321.175 402.183 321.175 410.913C321.175 415.236 322.027 419.517 323.681 423.511C325.335 427.504 327.76 431.133 330.817 434.19C333.873 437.247 337.502 439.672 341.496 441.326C345.49 442.98 349.771 443.832 354.093 443.832C358.416 443.832 362.697 442.98 366.691 441.326C370.685 439.672 374.313 437.247 377.37 434.19C380.427 431.133 382.852 427.504 384.506 423.511C386.16 419.517 387.012 415.236 387.012 410.913Z" fill="url(#paint13_linear_1388_4869)"/>
</g>
</g>
</g>
<defs>
<filter id="filter0_d_1388_4869" x="336.923" y="387.279" width="200.664" height="198.133" filterUnits="userSpaceOnUse" color-interpolation-filters="sRGB">
<feFlood flood-opacity="0" result="BackgroundImageFix"/>
<feColorMatrix in="SourceAlpha" type="matrix" values="0 0 0 0 0 0 0 0 0 0 0 0 0 0 0 0 0 0 127 0" result="hardAlpha"/>
<feOffset dy="-2.5"/>
<feGaussianBlur stdDeviation="43.25"/>
<feComposite in2="hardAlpha" operator="out"/>
<feColorMatrix type="matrix" values="0 0 0 0 1 0 0 0 0 0.0366666 0 0 0 0 0.0366666 0 0 0 1 0"/>
<feBlend mode="normal" in2="BackgroundImageFix" result="effect1_dropShadow_1388_4869"/>
<feBlend mode="normal" in="SourceGraphic" in2="effect1_dropShadow_1388_4869" result="shape"/>
</filter>
<filter id="filter1_d_1388_4869" x="-69" y="-74" width="843" height="920.5" filterUnits="userSpaceOnUse" color-interpolation-filters="sRGB">
<feFlood flood-opacity="0" result="BackgroundImageFix"/>
<feColorMatrix in="SourceAlpha" type="matrix" values="0 0 0 0 0 0 0 0 0 0 0 0 0 0 0 0 0 0 127 0" result="hardAlpha"/>
<feOffset/>
<feGaussianBlur stdDeviation="130.75"/>
<feColorMatrix type="matrix" values="0 0 0 0 0.968627 0 0 0 0 0.152941 0 0 0 0 0.121569 0 0 0 1 0"/>
<feBlend mode="normal" in2="BackgroundImageFix" result="effect1_dropShadow_1388_4869"/>
<feBlend mode="normal" in="SourceGraphic" in2="effect1_dropShadow_1388_4869" result="shape"/>
</filter>
<filter id="filter2_d_1388_4869" x="197.673" y="259.508" width="311.848" height="311.621" filterUnits="userSpaceOnUse" color-interpolation-filters="sRGB">
<feFlood flood-opacity="0" result="BackgroundImageFix"/>
<feColorMatrix in="SourceAlpha" type="matrix" values="0 0 0 0 0 0 0 0 0 0 0 0 0 0 0 0 0 0 127 0" result="hardAlpha"/>
<feOffset dy="4"/>
<feGaussianBlur stdDeviation="2"/>
<feComposite in2="hardAlpha" operator="out"/>
<feColorMatrix type="matrix" values="0 0 0 0 0 0 0 0 0 0 0 0 0 0 0 0 0 0 0.25 0"/>
<feBlend mode="normal" in2="BackgroundImageFix" result="effect1_dropShadow_1388_4869"/>
<feBlend mode="normal" in="SourceGraphic" in2="effect1_dropShadow_1388_4869" result="shape"/>
</filter>
<linearGradient id="paint0_linear_1388_4869" x1="353.75" y1="388.003" x2="353.75" y2="653.641" gradientUnits="userSpaceOnUse">
<stop stop-color="#8E8E8E"/>
<stop offset="0.5" stop-color="#ADA4A4"/>
<stop offset="1" stop-color="#7E7A7A"/>
</linearGradient>
<linearGradient id="paint1_linear_1388_4869" x1="353.743" y1="501.408" x2="353.743" y2="588.439" gradientUnits="userSpaceOnUse">
<stop stop-color="#8E8E8E"/>
<stop offset="0.5" stop-color="#ADA4A4"/>
<stop offset="1" stop-color="#7E7A7A"/>
</linearGradient>
<linearGradient id="paint2_linear_1388_4869" x1="353.682" y1="582.51" x2="353.682" y2="747.5" gradientUnits="userSpaceOnUse">
<stop stop-color="#8E8E8E"/>
<stop offset="0.5" stop-color="#ADA4A4"/>
<stop offset="1" stop-color="#7E7A7A"/>
</linearGradient>
<linearGradient id="paint3_linear_1388_4869" x1="252.175" y1="609.783" x2="253.085" y2="611.776" gradientUnits="userSpaceOnUse">
<stop stop-color="#8E8E8E"/>
<stop offset="0.5" stop-color="#ADA4A4"/>
<stop offset="1" stop-color="#7E7A7A"/>
</linearGradient>
<linearGradient id="paint4_linear_1388_4869" x1="455.301" y1="609.766" x2="454.392" y2="611.758" gradientUnits="userSpaceOnUse">
<stop stop-color="#8E8E8E"/>
<stop offset="0.5" stop-color="#ADA4A4"/>
<stop offset="1" stop-color="#7E7A7A"/>
</linearGradient>
<linearGradient id="paint5_linear_1388_4869" x1="253.401" y1="612.404" x2="258.842" y2="624.317" gradientUnits="userSpaceOnUse">
<stop stop-color="#8E8E8E"/>
<stop offset="0.5" stop-color="#ADA4A4"/>
<stop offset="1" stop-color="#7E7A7A"/>
</linearGradient>
<linearGradient id="paint6_linear_1388_4869" x1="454.1" y1="612.404" x2="448.659" y2="624.318" gradientUnits="userSpaceOnUse">
<stop stop-color="#8E8E8E"/>
<stop offset="0.5" stop-color="#ADA4A4"/>
<stop offset="1" stop-color="#7E7A7A"/>
</linearGradient>
<linearGradient id="paint7_linear_1388_4869" x1="259.746" y1="625.509" x2="283.005" y2="676.438" gradientUnits="userSpaceOnUse">
<stop stop-color="#8E8E8E"/>
<stop offset="0.5" stop-color="#ADA4A4"/>
<stop offset="1" stop-color="#7E7A7A"/>
</linearGradient>
<linearGradient id="paint8_linear_1388_4869" x1="447.702" y1="625.49" x2="424.532" y2="676.46" gradientUnits="userSpaceOnUse">
<stop stop-color="#8E8E8E"/>
<stop offset="0.5" stop-color="#ADA4A4"/>
<stop offset="1" stop-color="#7E7A7A"/>
</linearGradient>
<linearGradient id="paint9_linear_1388_4869" x1="291.93" y1="636.248" x2="291.93" y2="652.914" gradientUnits="userSpaceOnUse">
<stop stop-color="#8E8E8E"/>
<stop offset="0.5" stop-color="#ADA4A4"/>
<stop offset="1" stop-color="#7E7A7A"/>
</linearGradient>
<linearGradient id="paint10_linear_1388_4869" x1="415.543" y1="636.367" x2="415.543" y2="652.861" gradientUnits="userSpaceOnUse">
<stop stop-color="#8E8E8E"/>
<stop offset="0.5" stop-color="#ADA4A4"/>
<stop offset="1" stop-color="#7E7A7A"/>
</linearGradient>
<linearGradient id="paint11_linear_1388_4869" x1="411.024" y1="640.571" x2="411.024" y2="658.908" gradientUnits="userSpaceOnUse">
<stop stop-color="#8E8E8E"/>
<stop offset="0.5" stop-color="#ADA4A4"/>
<stop offset="1" stop-color="#7E7A7A"/>
</linearGradient>
<linearGradient id="paint12_linear_1388_4869" x1="296.473" y1="640.711" x2="296.473" y2="658.745" gradientUnits="userSpaceOnUse">
<stop stop-color="#8E8E8E"/>
<stop offset="0.5" stop-color="#ADA4A4"/>
<stop offset="1" stop-color="#7E7A7A"/>
</linearGradient>
<linearGradient id="paint13_linear_1388_4869" x1="353.764" y1="319.8" x2="353.764" y2="501.327" gradientUnits="userSpaceOnUse">
<stop stop-color="#F7271F"/>
<stop offset="0.62" stop-color="#911712"/>
</linearGradient>
<clipPath id="clip0_1388_4869">
<rect width="715" height="912.5" fill="white"/>
</clipPath>
</defs>
</svg>
