<svg width="20" height="25" viewBox="0 0 20 25" fill="none" xmlns="http://www.w3.org/2000/svg">
<g clip-path="url(#clip0_361_2008)">
<path d="M20 13.0106V20.2186L19.9866 20.2342C19.9797 20.242 19.9712 20.246 19.961 20.246C13.3149 20.2466 6.6688 20.2469 0.022831 20.2469C0.0108574 20.2469 0.00324708 20.238 0 20.2202V13.01C0.0243531 12.7678 0.058346 12.5906 0.101979 12.4782C0.242821 12.114 0.474074 11.8273 0.795738 11.6182C0.953019 11.516 1.1242 11.4467 1.30928 11.4105C1.3589 11.4008 1.41522 11.3825 1.47367 11.38C1.69508 11.3709 1.93668 11.3688 2.19848 11.3738C2.20221 11.3739 2.20591 11.3732 2.20938 11.3718C2.21285 11.3704 2.21601 11.3683 2.21868 11.3656C2.22134 11.363 2.22346 11.3598 2.2249 11.3563C2.22635 11.3527 2.22709 11.349 2.22709 11.3452C2.22648 10.9167 2.22679 9.75489 2.22801 7.85978C2.22801 7.58926 2.25774 7.21166 2.3172 6.727C2.35921 6.38496 2.44942 5.9883 2.58782 5.53702C2.77879 4.91471 3.05713 4.31749 3.42283 3.74535C3.87499 3.03764 4.43886 2.39554 5.11446 1.81904C6.10137 0.977211 7.21502 0.43171 8.4554 0.182539C8.59787 0.153932 8.74592 0.129782 8.89954 0.110089C9.09396 0.0854204 9.24292 0.0699768 9.34642 0.0637579C9.44607 0.0579536 9.58468 0.0473814 9.76225 0.0320415C9.76936 0.0314196 9.77463 0.0278955 9.77808 0.0214693C9.78092 0.0162869 9.78265 0.0129702 9.78326 0.0115191C9.78373 0.0104144 9.78446 0.00947306 9.78538 0.00881036C9.7863 0.00814765 9.78736 0.00779228 9.78843 0.00778775L10.207 0.00747681C10.2102 0.00747681 10.2136 0.00975707 10.217 0.0143176L10.2265 0.0267554C10.2285 0.0296576 10.2307 0.0312123 10.2332 0.0314196C10.402 0.0459304 10.5525 0.0582645 10.6846 0.0684221C10.9939 0.0926758 11.2405 0.122734 11.4244 0.158596C11.5007 0.173522 11.6362 0.203269 11.831 0.247838C11.9707 0.279761 12.1045 0.315313 12.2326 0.354492C13.1482 0.634342 13.9838 1.08221 14.7391 1.69809C15.2761 2.1361 15.7535 2.62522 16.1714 3.16544C16.8287 4.01556 17.2872 4.96436 17.5467 6.01183C17.5473 6.0139 17.5769 6.15673 17.6353 6.44031C17.6672 6.59496 17.6898 6.73903 17.7032 6.87253C17.7485 7.32692 17.7713 7.65321 17.7717 7.85138C17.7731 8.54044 17.7736 9.70679 17.7732 11.3505C17.7732 11.3537 17.7738 11.3569 17.7751 11.3599C17.7763 11.3629 17.7781 11.3656 17.7804 11.3679C17.7826 11.3702 17.7853 11.372 17.7883 11.3732C17.7912 11.3745 17.7944 11.3751 17.7976 11.375C18.1066 11.3688 18.3565 11.3715 18.547 11.3831C18.6103 11.3868 18.7124 11.4099 18.8533 11.4524C18.9482 11.481 19.0427 11.5227 19.1367 11.5774C19.488 11.7822 19.7417 12.0809 19.8977 12.4733C19.9416 12.5838 19.9756 12.7629 20 13.0106ZM5.59422 11.3756H14.4021C14.4154 11.3756 14.4281 11.3703 14.4374 11.3607C14.4468 11.3511 14.4521 11.3382 14.4521 11.3246V7.96923C14.4521 6.76347 13.9834 5.60709 13.1491 4.75449C12.3149 3.90189 11.1834 3.4229 10.0037 3.4229H9.99269C8.8129 3.4229 7.68144 3.90189 6.8472 4.75449C6.01296 5.60709 5.54429 6.76347 5.54429 7.96923V11.3246C5.54429 11.3382 5.54955 11.3511 5.55891 11.3607C5.56828 11.3703 5.58098 11.3756 5.59422 11.3756Z" fill="#E8CB9A"/>
<path d="M20 20.3007V21.486L0 21.4863V20.3334C0.00162354 20.3116 0.0144089 20.3007 0.0383562 20.3007C6.69224 20.2999 13.3461 20.2999 20 20.3007Z" fill="#E8CB9A"/>
<path d="M20 21.7967V22.7923H0V21.797L20 21.7967Z" fill="#E8CB9A"/>
<path d="M18.1973 25H1.78272C1.72224 24.9954 1.66146 24.9922 1.60037 24.9904C1.58475 24.9897 1.57369 24.9875 1.56719 24.9835C1.55806 24.9781 1.55227 24.9738 1.54984 24.9705C1.54781 24.9682 1.5404 24.9661 1.52762 24.9642C1.33462 24.9346 1.18546 24.9003 1.08013 24.8613C0.887536 24.7898 0.703163 24.6696 0.527009 24.5006C0.271301 24.2552 0.10986 23.9626 0.042686 23.6228C0.0398448 23.6083 0.0457301 23.6011 0.060342 23.6011L19.9538 23.6004C19.9549 23.6004 19.956 23.6006 19.957 23.6011C19.958 23.6016 19.9589 23.6023 19.9596 23.6031C19.9603 23.604 19.9608 23.605 19.9611 23.6061C19.9613 23.6072 19.9613 23.6084 19.9611 23.6095C19.931 23.7615 19.8929 23.898 19.8174 24.0414C19.6177 24.4215 19.319 24.6958 18.9212 24.8641C18.8601 24.8898 18.7129 24.923 18.4795 24.9636C18.4698 24.9653 18.4607 24.9689 18.4524 24.9745C18.439 24.9838 18.4226 24.9888 18.4031 24.9894C18.3343 24.9917 18.2657 24.9952 18.1973 25Z" fill="#E8CB9A"/>
</g>
<defs>
<clipPath id="clip0_361_2008">
<rect width="20" height="25" fill="white"/>
</clipPath>
</defs>
</svg>
