<svg xmlns="http://www.w3.org/2000/svg" fill="#C6C7C6" version="1.1" viewBox="0 0 693 691" width="693px" height="691px" style="shape-rendering:geometricPrecision; text-rendering:geometricPrecision; image-rendering:optimizeQuality; fill-rule:evenodd; clip-rule:evenodd" xmlns:xlink="http://www.w3.org/1999/xlink">
<path style="opacity:0.986"  d="M 320.5,-0.5 C 337.167,-0.5 353.833,-0.5 370.5,-0.5C 382.423,0.774162 394.423,2.44083 406.5,4.5C 414.074,31.0518 421.741,57.5518 429.5,84C 444.139,88.6583 458.306,94.4917 472,101.5C 494.707,89.1481 517.207,76.3147 539.5,63C 541.365,61.6986 543.365,61.3653 545.5,62C 578.76,85.4254 606.76,113.925 629.5,147.5C 619.408,166.022 609.075,184.355 598.5,202.5C 430.167,203.833 261.833,203.833 93.5,202.5C 82.9111,184.323 72.5777,165.99 62.5,147.5C 85.2404,113.925 113.24,85.4254 146.5,62C 148.635,61.3653 150.635,61.6986 152.5,63C 174.793,76.3147 197.293,89.1481 220,101.5C 233.694,94.4917 247.861,88.6583 262.5,84C 270.259,57.5518 277.926,31.0518 285.5,4.5C 297.254,2.5351 308.921,0.86843 320.5,-0.5 Z"/>
<path style="opacity:0.908"  d="M 97.5,210.5 C 262.999,209.334 428.666,209.167 594.5,210C 592.959,212.916 591.293,215.749 589.5,218.5C 515.502,219.667 441.502,219.833 367.5,219C 353.167,217 338.833,217 324.5,219C 250.498,219.833 176.498,219.667 102.5,218.5C 100.808,215.769 99.1417,213.102 97.5,210.5 Z"/>
<path style="opacity:0.945"  d="M 100.5,223.5 C 168.834,223.333 237.167,223.5 305.5,224C 292.551,228.641 280.551,234.975 269.5,243C 210.167,243.667 150.833,243.667 91.5,243C 94.2124,236.361 97.2124,229.861 100.5,223.5 Z"/>
<path style="opacity:0.945"  d="M 386.5,224.5 C 454.665,223.335 522.999,223.168 591.5,224C 594.886,230.162 597.886,236.495 600.5,243C 541.167,243.667 481.833,243.667 422.5,243C 411.534,234.843 399.534,228.676 386.5,224.5 Z"/>
<path style="opacity:0.949"  d="M 88.5,251.5 C 145.168,251.333 201.834,251.5 258.5,252C 249.837,260.157 242.503,269.323 236.5,279.5C 164.169,280.667 91.8356,280.833 19.5,280C 41.5992,274.632 63.4325,268.465 85,261.5C 86.4595,258.252 87.6262,254.919 88.5,251.5 Z"/>
<path style="opacity:0.949"  d="M 433.5,252.5 C 490.001,251.169 546.668,251.169 603.5,252.5C 604.667,255.5 605.833,258.5 607,261.5C 628.577,268.469 650.41,274.635 672.5,280C 600.164,280.833 527.831,280.667 455.5,279.5C 449.627,269.295 442.294,260.295 433.5,252.5 Z"/>
<path style="opacity:0.973"  d="M 4.5,293.5 C 79.5007,293.333 154.501,293.5 229.5,294C 223.494,307.192 219.827,321.025 218.5,335.5C 145.833,335.5 73.1667,335.5 0.5,335.5C 0.403759,321.315 1.73709,307.315 4.5,293.5 Z"/>
<path style="opacity:0.974"  d="M 462.5,294.5 C 537.332,293.334 612.332,293.168 687.5,294C 690.23,307.65 691.564,321.483 691.5,335.5C 618.833,335.5 546.167,335.5 473.5,335.5C 472.838,327.021 471.338,318.687 469,310.5C 467.491,304.786 465.325,299.452 462.5,294.5 Z"/>
<path style="opacity:0.982"  d="M 0.5,356.5 C 73.1667,356.5 145.833,356.5 218.5,356.5C 221.731,384.113 232.397,408.28 250.5,429C 195.5,429.667 140.5,429.667 85.5,429C 82.7846,427.092 79.7846,425.759 76.5,425C 53.4763,418.937 30.4763,412.77 7.5,406.5C 6.35268,406.182 5.51935,405.516 5,404.5C 2.30339,388.61 0.803393,372.61 0.5,356.5 Z"/>
<path style="opacity:0.982"  d="M 473.5,356.5 C 546.167,356.5 618.833,356.5 691.5,356.5C 691.197,372.61 689.697,388.61 687,404.5C 686.481,405.516 685.647,406.182 684.5,406.5C 660.533,413.1 636.533,419.6 612.5,426C 610.221,426.473 608.221,427.473 606.5,429C 551.5,429.667 496.5,429.667 441.5,429C 459.603,408.28 470.269,384.113 473.5,356.5 Z"/>
<path style="opacity:0.975"  d="M 97.5,461.5 C 162.332,460.335 227.332,460.168 292.5,461C 328.171,476.311 363.838,476.311 399.5,461C 464.5,460.333 529.5,460.333 594.5,461C 591.97,464.539 590.47,468.373 590,472.5C 603.408,495.645 616.575,518.978 629.5,542.5C 627.044,547.903 623.711,552.736 619.5,557C 437.167,557.667 254.833,557.667 72.5,557C 68.9496,553.117 65.7829,548.951 63,544.5C 62.3333,543.167 62.3333,541.833 63,540.5C 76.0277,517.769 89.0277,495.102 102,472.5C 101.619,468.4 100.119,464.734 97.5,461.5 Z"/>
<path style="opacity:0.83"  d="M 110.5,599.5 C 140.664,598.336 170.997,598.169 201.5,599C 183.86,608.821 166.193,618.655 148.5,628.5C 145.709,627.27 143.042,625.77 140.5,624C 130.292,615.946 120.292,607.779 110.5,599.5 Z"/>
<path style="opacity:0.958"  d="M 370.5,690.5 C 354.167,690.5 337.833,690.5 321.5,690.5C 309.577,689.226 297.577,687.559 285.5,685.5C 278.035,659.936 270.868,634.269 264,608.5C 263.626,607.584 263.126,606.75 262.5,606C 256.167,603.667 249.833,601.333 243.5,599C 311.833,598.333 380.167,598.333 448.5,599C 442.229,601.485 435.895,603.818 429.5,606C 428.874,606.75 428.374,607.584 428,608.5C 421.132,634.269 413.965,659.936 406.5,685.5C 394.423,687.559 382.423,689.226 370.5,690.5 Z"/>
<path style="opacity:0.831"  d="M 491.5,599.5 C 521.331,598.336 551.331,598.169 581.5,599C 569.547,609.791 556.88,619.624 543.5,628.5C 526.113,618.809 508.78,609.143 491.5,599.5 Z"/>
</svg>
