<svg width="75" height="75" viewBox="0 0 75 75" fill="none" xmlns="http://www.w3.org/2000/svg">
<g clip-path="url(#clip0_1387_5242)">
<path d="M1.25 1.25V73.75H73.75V1.25H1.25Z" stroke="#727372" stroke-width="2.5"/>
<path d="M33.2564 13.8568C33.2926 13.8935 33.3697 13.9348 33.4877 13.9806C34.0153 14.1866 34.5489 14.2367 35.0886 14.1309C35.2171 14.1058 35.3046 14.1063 35.3509 14.1324C35.6351 14.2941 35.7999 14.7464 35.837 15.0485C35.8558 15.2033 35.9269 15.3279 36.0562 15.3959C36.0701 15.4033 36.086 15.406 36.1015 15.4037C36.117 15.4014 36.1314 15.3941 36.1423 15.383C36.2164 15.3075 36.2842 15.2275 36.3457 15.1429C36.447 15.0032 36.295 14.6679 36.2315 14.4889C36.2211 14.4598 36.2172 14.4288 36.2199 14.3982C36.2226 14.3675 36.232 14.3379 36.2474 14.3114L36.4719 13.924C36.476 13.9167 36.4784 13.9085 36.4788 13.9001C36.4792 13.8917 36.4777 13.8833 36.4743 13.8757C36.4709 13.868 36.4658 13.8613 36.4593 13.856C36.4529 13.8508 36.4453 13.8472 36.4371 13.8455L36.1136 13.7783C36.0693 13.7692 36.0657 13.7518 36.103 13.7262C36.2701 13.6106 36.6594 13.4135 36.8574 13.5185C36.8902 13.5361 36.9216 13.5736 36.9519 13.631C37.0501 13.8153 37.1189 13.9165 37.3245 14.0025C37.4651 14.0622 37.6352 14.1158 37.7781 14.2246C38.095 14.4652 38.4518 14.5991 38.8484 14.6263C39.0762 14.6419 39.3465 14.5637 39.6595 14.3915C39.6801 14.3799 39.7008 14.3799 39.7215 14.3915L40.0215 14.5652C40.0372 14.5743 40.0548 14.5796 40.0729 14.5806C40.091 14.5817 40.109 14.5785 40.1257 14.5713C40.1423 14.5641 40.157 14.5531 40.1686 14.5392C40.1802 14.5252 40.1883 14.5088 40.1924 14.4912C40.2211 14.3693 40.1972 14.2724 40.1206 14.2004C40.1026 14.1839 40.0791 14.1747 40.0548 14.1747H39.8575C39.8298 14.1747 39.8129 14.1614 39.8069 14.1347C39.763 13.9414 39.8855 13.8462 39.9996 13.7209C40.0108 13.7086 40.0168 13.6925 40.0165 13.6758C40.0162 13.6592 40.0097 13.6432 39.9981 13.631C39.9054 13.5343 39.8122 13.4357 39.7184 13.335C39.6171 13.2267 39.5947 13.1112 39.6512 12.9883C39.6874 12.9075 39.7154 12.8275 39.7592 12.7693C39.7787 12.744 39.8068 12.7267 39.8383 12.721C39.8697 12.7153 39.9022 12.7215 39.9293 12.7384C40.1395 12.8693 40.3355 13.0296 40.5174 13.2194C40.6429 13.3508 40.664 13.56 40.4683 13.6378C40.367 13.6781 40.3002 13.6952 40.268 13.6891C40.0855 13.6549 40.0624 13.701 40.1984 13.8273C40.3504 13.9686 40.5832 14.0486 40.4804 14.3394C40.4033 14.5564 40.4607 14.729 40.6527 14.8574C40.6742 14.8718 40.6991 14.8805 40.7249 14.8825C40.7507 14.8846 40.7767 14.8799 40.8002 14.8691C40.8237 14.8583 40.8441 14.8416 40.8593 14.8206C40.8745 14.7996 40.884 14.7751 40.887 14.7494C40.8981 14.6558 40.9263 14.5032 40.9717 14.2918C40.9999 14.1619 41.0624 14.0501 41.1592 13.9565C41.2997 13.8195 41.3937 13.7297 41.4411 13.6869C41.4803 13.6517 41.5047 13.603 41.5093 13.5506C41.5139 13.4981 41.4985 13.4459 41.466 13.4044C41.3391 13.2428 41.2814 13.0827 41.2929 12.9241C41.2985 12.8476 41.268 12.7902 41.2015 12.752L40.5983 12.4046C40.5705 12.3885 40.5471 12.3659 40.5299 12.3388C40.5128 12.3117 40.5026 12.2809 40.5 12.249C40.493 12.1619 40.4854 11.9927 40.4773 11.7415C40.4652 11.3813 40.6255 11.0596 40.8107 10.8028C40.8263 10.7812 40.8437 10.7792 40.8628 10.7968C41.1591 11.0687 41.4008 11.381 41.5877 11.734C41.6895 11.9263 41.7062 12.1058 41.6376 12.2724C41.6059 12.3484 41.5915 12.4041 41.5945 12.4393C41.6165 12.7112 41.8886 12.6795 42.0768 12.6847C42.0949 12.6852 42.1122 12.6919 42.1259 12.7038C42.1395 12.7156 42.1486 12.7319 42.1516 12.7497C42.1935 12.9944 42.2932 13.237 42.451 13.4777C42.52 13.5834 42.6195 13.6547 42.7495 13.6914C42.766 13.696 42.7834 13.6968 42.8002 13.6937C42.817 13.6906 42.833 13.6838 42.8468 13.6737C42.8606 13.6636 42.872 13.6505 42.88 13.6354C42.888 13.6203 42.8925 13.6035 42.8932 13.5864C42.9022 13.3818 42.8916 13.1635 42.9892 12.9944C42.9925 12.9887 42.997 12.9838 43.0025 12.9801C43.008 12.9764 43.0142 12.974 43.0208 12.973C43.0273 12.9721 43.034 12.9726 43.0403 12.9746C43.0466 12.9766 43.0524 12.98 43.0572 12.9846C43.1837 13.1084 43.3011 13.2871 43.4094 13.5207C43.4724 13.6562 43.5798 13.9008 43.7314 14.2548C43.7667 14.3368 43.8607 14.4292 44.0134 14.5319C44.0345 14.5465 44.0577 14.5498 44.0829 14.5418C44.1893 14.5065 44.251 14.4642 44.2681 14.4149C44.3654 14.1375 44.4326 13.7911 44.4699 13.3757C44.5087 12.9488 44.4523 12.6123 44.3006 12.3661C44.286 12.3424 44.2888 12.3207 44.3089 12.3011C44.4258 12.1909 44.5642 12.1247 44.7239 12.1025C44.7567 12.098 44.7867 12.105 44.8139 12.1236C44.9202 12.1977 45.1311 12.316 45.4465 12.4786C45.5458 12.5299 45.5919 12.6291 45.5849 12.7761C45.5788 12.8985 45.4171 13.1039 45.5418 13.2632C45.5871 13.3206 45.7575 13.5323 46.0528 13.8983C46.0748 13.9256 46.0892 13.9582 46.0945 13.993C46.0998 14.0277 46.0958 14.0633 46.083 14.0962C45.9928 14.3217 45.8666 14.5365 45.7043 14.7404C45.6978 14.7484 45.6888 14.7542 45.6787 14.7568C45.6686 14.7594 45.658 14.7586 45.6484 14.7547L45.2243 14.5795C45.2024 14.5705 45.1789 14.5663 45.1552 14.567C45.1315 14.5678 45.1081 14.5736 45.0867 14.584C44.8917 14.6777 44.9832 14.8461 45.1064 14.9548C45.1709 15.0117 45.2286 15.0721 45.2795 15.1361C45.287 15.1462 45.2772 15.1522 45.25 15.1542C45.2082 15.1572 45.0235 15.1623 44.6959 15.1693C44.6795 15.1697 44.6634 15.1734 44.6485 15.1802C44.6336 15.1871 44.6203 15.1969 44.6095 15.2091C44.5986 15.2213 44.5904 15.2356 44.5854 15.2511C44.5803 15.2666 44.5786 15.283 44.5803 15.2992C44.6065 15.566 44.5488 15.8188 44.4072 16.0574C44.394 16.0799 44.3737 16.0974 44.3495 16.1073C44.3253 16.1171 44.2986 16.1187 44.2734 16.1118C43.9937 16.0348 43.68 15.9326 43.3323 15.8052C43.2225 15.7649 43.1297 15.7611 43.0542 15.7938C43.0342 15.8023 43.0167 15.8156 43.0031 15.8325C42.9895 15.8494 42.9803 15.8694 42.9764 15.8907C42.9724 15.912 42.9738 15.934 42.9803 15.9546C42.9869 15.9753 42.9985 15.994 43.0141 16.0091C43.0937 16.0856 43.2008 16.1432 43.3354 16.182C43.5687 16.249 43.8269 16.3172 44.1101 16.3867C44.1908 16.4063 44.2691 16.4383 44.3452 16.4826C44.4624 16.5513 44.4314 16.6532 44.4132 16.7877C44.3898 16.9546 44.2893 17.2891 44.1101 17.3495C44.0436 17.3717 43.8695 17.4155 43.5878 17.4809C43.5077 17.5001 43.4404 17.5743 43.386 17.7037C43.2973 17.9172 43.2429 18.0423 43.2227 18.079C43.2106 18.1012 43.1927 18.1165 43.1691 18.1251C43.1182 18.1432 43.0521 18.1447 42.971 18.1296C42.9453 18.1246 42.9241 18.1322 42.9075 18.1523C42.8969 18.1644 42.8921 18.1785 42.8932 18.1946C42.8954 18.2384 43.03 18.3615 43.1479 18.4831C43.228 18.5661 43.2154 18.6313 43.1101 18.6787C42.9846 18.7353 42.7964 18.8199 42.711 18.98C42.6661 19.063 42.5719 19.2025 42.4283 19.3984C42.3335 19.5277 42.2524 19.6737 42.1849 19.8364C41.9213 20.4752 41.7397 21.0577 41.6399 21.5839C41.5623 21.9947 41.5971 22.376 41.7442 22.728C41.7956 22.8518 41.9075 22.9543 42.0798 23.0353C42.1126 23.0509 42.166 23.0547 42.2401 23.0467C42.2728 23.0426 42.3313 23.0371 42.4154 23.03C42.5878 23.0157 42.7004 23.1781 42.7594 23.3238C42.8733 23.6062 42.9788 23.9237 43.0761 24.2761C43.0831 24.3018 43.0799 24.3262 43.0663 24.3493L43.0058 24.4551C42.9932 24.4762 42.9909 24.4986 42.999 24.5223C43.0201 24.5852 43.0655 24.6101 43.135 24.597C43.2968 24.5653 43.509 24.4843 43.7715 24.3539C43.8007 24.3393 43.8655 24.3242 43.9658 24.3086C44.0293 24.299 44.0935 24.303 44.1585 24.3207C44.5339 24.4223 44.803 24.5145 44.9658 24.597C45.7413 24.9892 46.4088 25.2994 46.9681 25.5274C47.142 25.5984 47.3735 25.6546 47.6628 25.6958C47.7984 25.715 48.0196 25.7077 48.3265 25.6739C48.5245 25.6523 48.746 25.6405 48.9909 25.6385C49.0811 25.6379 49.1348 25.682 49.1519 25.7706C49.2114 26.0822 49.3028 26.4483 49.4263 26.8686C49.5079 27.1466 49.6394 27.4051 49.8209 27.6442C49.8929 27.7399 50.0383 27.8761 50.257 28.0528C50.4525 28.2109 50.6118 28.3453 50.7347 28.456C50.8234 28.5361 50.9491 28.6934 51.1119 28.928C51.2077 29.0665 51.3394 29.0806 51.5072 28.9703C51.5637 28.9336 51.7355 28.7798 52.0228 28.5089C52.0414 28.4918 52.053 28.4706 52.0575 28.4455C52.1513 27.9403 52.028 27.5189 51.83 27.0136C51.6118 26.4568 51.2986 25.9871 50.8904 25.6045C50.8843 25.5988 50.8793 25.592 50.8757 25.5844C50.8722 25.5769 50.8702 25.5687 50.8699 25.5603C50.8695 25.552 50.8708 25.5436 50.8737 25.5358C50.8766 25.5279 50.881 25.5207 50.8867 25.5146C51.0635 25.3238 51.1971 25.1753 51.2873 25.069C51.5312 24.7816 51.7065 24.441 51.8134 24.0473C51.832 23.9798 51.8812 23.9035 51.9608 23.8185C52.0364 23.7384 52.1921 23.7044 52.251 23.6266C52.2574 23.6181 52.2604 23.6076 52.2595 23.5971C52.2585 23.5866 52.2536 23.5769 52.2457 23.57C51.9958 23.3465 51.7653 23.0832 51.5541 22.7801C51.352 22.4896 51.2059 22.302 51.1157 22.2175C50.8768 21.9929 50.6294 21.816 50.3734 21.6866C50.2278 21.6131 50.1716 21.4935 50.2049 21.3278C50.3258 20.7222 50.291 20.189 50.1005 19.7284C50.0728 19.6624 50.0423 19.6085 50.0091 19.5668C49.9282 19.4663 49.8194 19.4316 49.771 19.2987C49.642 18.9467 49.4742 18.5666 49.2675 18.1583C49.2514 18.1261 49.26 18.1027 49.2933 18.0881C49.4686 18.0133 49.6568 17.971 49.8579 17.968C50.2515 17.962 50.6183 17.9041 50.9585 17.7943C51.0376 17.7687 51.1207 17.7747 51.2079 17.8125C51.4533 17.9192 51.6907 18.0176 51.92 18.1077C51.9578 18.1228 52.0671 18.1752 52.248 18.2648C52.5443 18.4128 52.9026 18.4506 53.2276 18.4884C53.273 18.4934 53.3405 18.5276 53.4302 18.5911C53.6041 18.7134 53.6154 18.8539 53.4642 19.0125C53.4572 19.0198 53.452 19.0286 53.4489 19.0383C53.4459 19.048 53.4452 19.0583 53.4468 19.0683C53.4484 19.0783 53.4523 19.0879 53.4582 19.0961C53.4641 19.1044 53.4719 19.1111 53.4809 19.1159C53.622 19.1899 53.7245 19.3037 53.7885 19.4573C53.8573 19.6226 53.9813 19.7042 54.1219 19.7654C54.1352 19.7712 54.147 19.7801 54.1561 19.7915C54.1652 19.8028 54.1714 19.8162 54.1742 19.8304C54.1769 19.8446 54.1762 19.8593 54.1719 19.8731C54.1677 19.8869 54.1601 19.8994 54.1498 19.9096L53.9677 20.0916C53.9596 20.0997 53.9541 20.1099 53.9517 20.121C53.9493 20.1321 53.9502 20.1437 53.9543 20.1543C53.9584 20.1649 53.9655 20.1742 53.9747 20.1809C53.9839 20.1876 53.9948 20.1914 54.0062 20.1921C54.2063 20.2011 54.3937 20.1611 54.5686 20.072C54.6048 20.0533 54.6465 20.0483 54.686 20.0579C54.7256 20.0675 54.7604 20.091 54.784 20.1241L55.013 20.4413C55.0179 20.4481 55.0242 20.4539 55.0314 20.4581C55.0387 20.4624 55.0468 20.465 55.0552 20.4659C55.0636 20.4668 55.0721 20.4658 55.08 20.4631C55.088 20.4604 55.0953 20.4561 55.1015 20.4503C55.1947 20.3637 55.3169 20.3335 55.4681 20.3597C55.4889 20.3631 55.5102 20.3584 55.5275 20.3466C55.5449 20.3347 55.5569 20.3167 55.5611 20.2963L55.6767 19.7427C55.6818 19.7185 55.6926 19.6972 55.7092 19.6785C55.8322 19.5446 55.9032 19.4535 55.9224 19.4051C55.9839 19.245 55.9924 19.0087 55.9481 18.696C55.9445 18.6714 55.9335 18.6505 55.9148 18.6333C55.8415 18.5669 55.71 18.4687 55.6805 18.335C55.6508 18.2026 55.6379 18.0977 55.6419 18.0201C55.646 17.9436 55.6752 17.9323 55.7296 17.9862C56.0025 18.2565 56.3124 18.4211 56.8793 18.7715C57.0602 18.8838 57.1225 19.0215 57.066 19.1846C57.0524 19.2234 57.0663 19.2428 57.1076 19.2428H57.2233C57.2505 19.2428 57.2747 19.2513 57.2958 19.2685C57.4233 19.3722 57.5765 19.4452 57.7554 19.4875C57.794 19.4967 57.83 19.5142 57.861 19.5389C57.8919 19.5636 57.9171 19.5947 57.9346 19.6302C58.0691 19.9066 58.2913 19.9466 58.5725 19.9859C58.5967 19.9889 58.6143 20.0012 58.6254 20.0229C58.7015 20.1654 58.7446 20.2877 58.7547 20.3899C58.7638 20.4805 58.7774 20.5409 58.7955 20.5712C58.7966 20.5725 58.8034 20.5775 58.8145 20.5851C58.8256 20.5927 58.8403 20.6025 58.856 20.6127L59.2997 20.9004C59.318 20.9123 59.3386 20.9202 59.3603 20.9235C59.3819 20.9269 59.404 20.9257 59.4252 20.92L59.5809 20.877C59.62 20.8662 59.6616 20.8686 59.6992 20.8839C59.7369 20.8992 59.7683 20.9265 59.7887 20.9616L59.9921 21.3135C60.0037 21.3337 60.0222 21.3491 60.0441 21.3568C60.066 21.3646 60.0899 21.3642 60.1115 21.3558C60.2899 21.2878 60.4562 21.1594 60.6459 21.1443C60.7646 21.1345 60.85 21.0635 60.9914 21.0552C61.1526 21.0452 61.3088 21.0497 61.46 21.0688C61.4691 21.0701 61.4779 21.0733 61.4857 21.0782C61.4934 21.0832 61.5 21.0898 61.505 21.0975C61.51 21.1053 61.5132 21.114 61.5144 21.1232C61.5156 21.1323 61.5149 21.1416 61.5122 21.1504C61.4149 21.4545 61.3577 21.6521 61.3406 21.7432C61.2882 22.0241 61.3522 22.0538 61.5326 21.8323C61.6031 21.7462 61.7233 21.6284 61.8931 21.4789C61.935 21.4416 61.9801 21.4374 62.0284 21.466C62.1715 21.5511 62.2857 21.6672 62.3709 21.8142C62.3796 21.8294 62.3923 21.8418 62.4077 21.8501C62.4232 21.8583 62.4406 21.8621 62.458 21.861C62.4755 21.8599 62.4923 21.854 62.5066 21.8438C62.5208 21.8337 62.5319 21.8198 62.5387 21.8036L62.6679 21.4902C62.6719 21.4807 62.678 21.4722 62.6856 21.4653C62.6933 21.4584 62.7023 21.4532 62.7121 21.4502C62.7219 21.4471 62.7323 21.4463 62.7424 21.4478C62.7525 21.4492 62.7622 21.4529 62.7707 21.4585C62.9431 21.5718 63.0375 21.7002 63.1524 21.9025C63.3167 22.193 63.4991 22.4463 63.6997 22.6623C63.8826 22.8594 63.5833 23.4469 63.485 23.5859C63.3792 23.7359 63.2754 23.8842 63.1736 24.0307C62.9771 24.3146 62.9499 24.6892 62.8811 24.9641C62.8055 25.2699 62.4699 25.5063 62.1743 25.6724C61.8024 25.8804 61.2758 26.1537 60.5945 26.4926C60.2649 26.6557 59.9707 26.8337 59.7116 27.0265C59.4864 27.1936 59.3614 27.4287 59.3367 27.7318C59.3125 28.0271 59.1666 28.3465 59.0124 28.6358C58.7262 29.1705 58.5478 29.54 58.4773 29.7444C58.3342 30.1582 58.2956 30.5794 58.3616 31.0078C58.3624 31.0135 58.3648 31.0187 58.3685 31.0231C58.3721 31.0274 58.3769 31.0307 58.3824 31.0324C58.3879 31.0342 58.3938 31.0345 58.3994 31.0332C58.4051 31.032 58.4103 31.0292 58.4145 31.0252C58.4795 30.9613 58.536 30.8759 58.5839 30.7692C58.8857 30.0996 59.1752 29.5219 59.4524 29.036C59.6328 28.7209 59.7908 28.4915 59.9263 28.3481C60.1747 28.0868 60.4713 27.944 60.816 27.9199C61.0543 27.9033 61.2 28.008 61.2529 28.234C61.2801 28.3513 61.2521 28.4598 61.169 28.5595C60.9997 28.7624 60.8125 28.9494 60.6074 29.1206C60.5429 29.174 60.5459 29.2231 60.6164 29.2679C60.6275 29.2744 60.6593 29.2759 60.7117 29.2724C60.8079 29.2649 60.9652 29.25 61.1834 29.2278C61.4925 29.1961 61.3958 29.437 61.5152 29.6077C61.7737 29.9767 62.1025 30.2365 62.5016 30.3871C62.7002 30.4621 62.9247 30.4787 63.1751 30.4369C63.609 30.3636 63.8834 29.9 64.3694 30.0646C64.3904 30.0717 64.4092 30.084 64.4241 30.1004C64.439 30.1168 64.4494 30.1368 64.4544 30.1583C64.4594 30.1799 64.4588 30.2024 64.4526 30.2236C64.4465 30.2449 64.435 30.2642 64.4193 30.2798C64.1033 30.5925 63.7708 30.9119 63.5168 31.2804C63.3701 31.4934 63.2598 31.6449 63.1857 31.7351C63.0043 31.9556 62.9756 32.1066 62.931 32.4125C62.9012 32.6154 62.8455 32.7873 62.7639 32.9283C62.6979 33.042 62.611 33.0519 62.5031 32.9577C62.0889 32.5982 62.2386 32.1059 62.4676 31.6686C62.5155 31.5775 62.5596 31.5085 62.5999 31.4617C62.7065 31.3393 62.9068 31.2857 63.1093 31.1966C63.1529 31.1778 63.19 31.1466 63.216 31.1068C63.2421 31.0671 63.256 31.0206 63.256 30.9731V30.9142C63.256 30.8321 63.2169 30.8039 63.1388 30.8296C62.9932 30.8764 62.87 30.9363 62.7692 31.0093C62.7556 31.0191 62.7399 31.0254 62.7234 31.0277C62.7069 31.0301 62.69 31.0284 62.6743 31.0228C62.6585 31.0173 62.6444 31.008 62.633 30.9958C62.6216 30.9836 62.6134 30.9688 62.609 30.9527L62.5598 30.7752C62.5552 30.7592 62.5463 30.7448 62.5341 30.7336C62.5219 30.7223 62.5068 30.7146 62.4905 30.7113C62.4742 30.7081 62.4573 30.7093 62.4417 30.715C62.426 30.7207 62.4122 30.7305 62.4018 30.7435C62.2456 30.9399 62.0627 31.1823 61.8531 31.4707C61.784 31.5659 61.6213 31.69 61.3648 31.8431C61.2988 31.8828 61.2519 31.9291 61.2242 31.982C61.141 32.1421 61.144 32.3974 61.1176 32.5378C61.1131 32.562 61.1016 32.5843 61.0843 32.602C60.9901 32.6967 60.878 32.7948 60.748 32.8965C60.7157 32.9212 60.593 33.0715 60.3798 33.3474C60.3486 33.3877 60.2516 33.5014 60.0888 33.6887C59.9563 33.8413 59.8694 34.0137 59.828 34.206C59.7232 34.6899 59.7114 35.1342 59.7925 35.5389C59.8651 35.8984 60.0881 35.9686 60.3814 36.1061C60.3849 36.1078 60.3881 36.1104 60.3904 36.1135C60.3928 36.1167 60.3944 36.1204 60.3951 36.1243C60.3957 36.1283 60.3955 36.1323 60.3943 36.1361C60.3931 36.1398 60.391 36.1433 60.3882 36.1461C60.2319 36.2981 60.0563 36.3998 59.8613 36.4512C59.8366 36.4577 59.8182 36.4721 59.8061 36.4942C59.727 36.6408 59.6728 36.7231 59.6436 36.7412C59.3322 36.9335 59.0744 37.0974 58.8703 37.2328C58.5121 37.4707 58.2694 37.6874 58.2278 38.1194C58.1991 38.4117 58.3692 38.6782 58.3412 38.9629C58.3195 39.1774 58.2513 39.3841 58.1364 39.583C58.1327 39.5893 58.1277 39.5948 58.1218 39.5991C58.1158 39.6035 58.1091 39.6065 58.1019 39.6081C58.0947 39.6096 58.0873 39.6097 58.08 39.6082C58.0728 39.6068 58.066 39.6038 58.06 39.5996C57.9678 39.5341 57.9106 39.4979 57.8884 39.4908C57.6561 39.4188 57.5992 39.4865 57.7176 39.694C57.8406 39.9089 57.9487 40.1806 58.0419 40.5088C58.0847 40.6598 58.0527 40.7895 57.9459 40.8977C57.9403 40.9036 57.9328 40.9072 57.9247 40.9079C57.9166 40.9086 57.9086 40.9063 57.9021 40.9015C57.7045 40.7525 57.5372 40.5906 57.4001 40.4159C57.3462 40.347 57.3266 40.2264 57.3412 40.0542C57.3472 39.9842 57.349 39.8531 57.3465 39.6607C57.3462 39.6377 57.3397 39.6151 57.3275 39.5955C57.3154 39.5759 57.2982 39.5599 57.2776 39.5494C57.2571 39.5388 57.2341 39.534 57.2111 39.5356C57.188 39.5371 57.1659 39.5449 57.1469 39.558C57.0451 39.628 56.9567 39.7181 56.8816 39.8284C56.8362 39.8948 56.8383 39.9918 56.8876 40.1191C56.9637 40.3175 57.059 40.5219 57.1734 40.7323C57.1778 40.7405 57.1802 40.7496 57.1804 40.7589C57.1806 40.7681 57.1785 40.7771 57.1744 40.7849C57.1703 40.7926 57.1643 40.7989 57.157 40.8029C57.1498 40.807 57.1416 40.8087 57.1333 40.8079L56.645 40.7656C56.5593 40.758 56.5223 40.8006 56.5339 40.8932C56.5339 40.8942 56.5414 40.9121 56.5566 40.9468C56.5954 41.039 56.6647 41.0878 56.7644 41.0933C57.1011 41.1125 57.3261 41.2849 57.4394 41.6106C57.4475 41.6343 57.4495 41.6585 57.4455 41.6831C57.3744 42.0947 57.6655 42.0426 57.8779 42.2427C57.9479 42.3092 58.0094 42.3907 58.0623 42.4874C58.0683 42.4983 58.0707 42.5109 58.0689 42.5233C58.0671 42.5356 58.0614 42.5472 58.0525 42.5561L57.673 42.9352C57.6595 42.9487 57.6509 42.9662 57.6484 42.985C57.646 43.0039 57.6498 43.023 57.6594 43.0394C57.735 43.1708 57.8491 43.2136 58.0018 43.1678C58.0573 43.1512 58.0998 43.1454 58.1296 43.1505C58.2173 43.1661 58.2636 43.2192 58.2687 43.3098C58.2698 43.3295 58.2664 43.3493 58.2587 43.3675C58.2509 43.3857 58.2391 43.4019 58.2241 43.4148C58.1318 43.4953 58.0094 43.5892 57.8567 43.6965C57.769 43.7584 57.698 43.8792 57.6647 43.9449C57.6516 43.9706 57.6503 43.9948 57.6609 44.0174C57.6781 44.0562 57.7189 44.0786 57.7834 44.0846C57.8554 44.0912 57.8713 44.1244 57.831 44.1843C57.7761 44.2664 57.7199 44.3409 57.6624 44.4078C57.4064 44.7059 57.1829 44.9611 56.992 45.1736C56.738 45.456 56.5205 45.7158 56.3396 45.9529C55.6916 46.8043 55.1342 47.7223 54.6676 48.7071C54.6575 48.7293 54.6578 48.7512 54.6684 48.7728C55.5734 50.5817 56.0388 51.5121 56.0645 51.564C56.5082 52.4506 56.809 53.3379 56.3086 54.2449C56.286 54.2872 56.2535 54.297 56.2111 54.2743C56.1212 54.2268 56.0494 54.118 55.9821 54.0599C55.8647 53.9592 55.7261 53.8381 55.5664 53.6966C55.4893 53.6287 55.3597 53.4268 55.1778 53.091C55.0841 52.918 54.9594 52.8606 54.7961 52.847C54.7387 52.8424 54.6849 52.8175 54.6441 52.7768C54.6034 52.7362 54.5785 52.6823 54.5739 52.625L54.5338 52.1183C54.5316 52.0914 54.522 52.0657 54.5061 52.044C54.4902 52.0223 54.4687 52.0054 54.4439 51.9952L54.3282 51.9476C54.305 51.938 54.2927 51.9207 54.2912 51.8955C54.2826 51.7772 54.2748 51.6692 54.2677 51.5715C54.2456 51.2876 54.1269 51.0552 53.9117 50.8745C53.6396 50.6469 53.4101 50.48 53.2231 50.3738C52.9606 50.2248 52.7116 50.222 52.4763 50.3655C52.3654 50.4335 52.2183 50.5284 52.0349 50.6502C52.0033 50.6713 51.9657 50.6815 51.9278 50.6794C51.8898 50.6772 51.8537 50.6627 51.8247 50.6381C51.6713 50.5075 51.5828 50.4176 51.3976 50.3678C50.8927 50.2303 50.3961 50.2681 49.8738 50.3474C49.7165 50.3715 49.488 50.4325 49.1882 50.5301C48.8097 50.653 48.3748 50.76 47.8835 50.8511C47.8346 50.8601 47.7689 50.8954 47.6862 50.9568C47.6646 50.9729 47.6631 50.991 47.6817 51.0112C47.7638 51.1003 47.8737 51.1743 48.0113 51.2332C48.0349 51.2433 48.0677 51.273 48.1095 51.3223C48.1312 51.348 48.1486 51.3853 48.1617 51.4341C48.2101 51.6083 48.3161 51.7669 48.4799 51.9099C48.4834 51.913 48.4862 51.9168 48.488 51.9211C48.4898 51.9254 48.4905 51.9301 48.4902 51.9347C48.49 51.9393 48.4886 51.9438 48.4863 51.9477C48.484 51.9517 48.4807 51.955 48.4769 51.9574L48.4474 51.9763C48.4305 51.987 48.4104 51.9916 48.3905 51.9894C48.3706 51.9872 48.352 51.9783 48.3378 51.9642L47.9629 51.5897C47.9445 51.5712 47.9218 51.5575 47.8968 51.5499C47.8719 51.5423 47.8454 51.5409 47.8198 51.5459C47.7941 51.5509 47.77 51.5621 47.7496 51.5786C47.7292 51.595 47.7132 51.6162 47.7029 51.6403C47.6631 51.7319 47.5812 51.8074 47.4572 51.8668C47.3594 51.9136 47.2801 51.9426 47.2191 51.9537C47.1022 51.9743 47.014 51.966 46.9545 51.9287C46.8074 51.8366 46.6597 51.7447 46.5116 51.6531C46.3808 51.573 46.275 51.5511 46.117 51.5912C45.8776 51.6511 45.7202 51.6858 45.6446 51.6954C45.4329 51.7226 44.7839 51.7847 43.6974 51.8819C43.638 51.8875 43.5752 51.9267 43.5092 51.9997C43.488 52.0234 43.4487 52.0833 43.3913 52.1795C43.2462 52.4231 43.032 52.6064 42.7488 52.7292C42.5336 52.8224 42.4074 52.874 42.3701 52.884C42.2658 52.9117 42.1788 52.9664 42.1093 53.0479C41.9763 53.2027 41.7374 53.3356 41.6172 53.4973C41.457 53.7127 41.3899 53.964 41.4162 54.2509C41.4539 54.6562 41.4708 55.0764 41.4668 55.5113C41.4645 55.7862 41.426 55.9327 41.2544 56.1616C41.1561 56.293 41.1012 56.4047 41.0896 56.4969C40.9944 57.2374 40.9672 58.0115 41.008 58.819C41.0196 59.0516 41.0654 59.2357 41.1455 59.3711C41.5028 59.9773 41.9362 60.6579 42.4457 61.4131C42.6044 61.6487 42.7652 61.8589 42.9279 62.0437C43.0786 62.2149 43.2429 62.3125 43.4208 62.3367C43.5583 62.3553 43.6626 62.3835 43.7337 62.4213C43.9685 62.5461 44.1404 62.6428 44.2492 62.7113C44.3248 62.7581 44.4019 62.786 44.4805 62.7951C44.538 62.8017 44.6153 62.7916 44.7126 62.7649C45.3475 62.5912 46.1435 62.2627 46.9137 62.234C47.0478 62.229 47.1488 62.2048 47.2168 62.1615C47.811 61.7824 48.0453 60.9222 48.1912 60.3007C48.2652 59.9876 48.452 59.7527 48.7513 59.5961C49.0133 59.4597 49.2711 59.3515 49.5246 59.2714C50.0713 59.0987 50.6145 58.9852 51.1542 58.9308C51.2621 58.9197 51.2946 58.9638 51.2518 59.063C51.1338 59.3356 50.9706 59.7343 50.8988 60.0447C50.8035 60.4586 50.7458 60.8923 50.7257 61.3459C50.7206 61.4547 50.6901 61.5468 50.6342 61.6223C50.6186 61.6429 50.5989 61.6485 50.5752 61.6389L50.4354 61.5808C50.4102 61.5702 50.3843 61.5682 50.3575 61.5747C50.2588 61.5974 50.2013 61.657 50.1852 61.7537C50.1756 61.8106 50.1933 61.8763 50.2381 61.9508C50.3349 62.1117 50.3916 62.1721 50.387 62.3541C50.3785 62.6909 50.2925 63.0697 50.1293 63.4906C50.0522 63.6885 49.8942 63.9052 49.7846 64.1205C49.776 64.1376 49.7744 64.1575 49.7802 64.1758C49.786 64.1941 49.7987 64.2095 49.8156 64.2186C49.9607 64.2967 50.1099 64.3259 50.2631 64.3062C50.957 64.2171 51.641 64.0789 52.3153 63.8916C52.6413 63.8005 53.0147 63.7414 53.4355 63.7142C53.9173 63.6829 54.3736 63.7852 54.8044 64.0208C55.1106 64.1884 55.1672 64.6279 55.1219 64.9549C54.9994 65.8461 54.9344 66.3112 54.9269 66.3505C54.8896 66.5448 54.8677 66.6949 54.8611 66.8006C54.8571 66.8666 54.849 66.9194 54.8369 66.9592C54.7613 67.2001 54.7152 67.2764 54.9034 67.4856C55.2214 67.8385 55.5948 68.2143 56.0237 68.6131C56.2867 68.8577 56.6019 68.9614 56.9693 68.9242C57.3931 68.8814 57.7768 68.753 58.1205 68.539C58.5975 68.2415 58.9815 67.9455 59.4841 67.9168C60.0246 67.8851 61.2416 67.8435 61.1629 68.7097C61.1574 68.7711 61.1163 68.8182 61.0397 68.8509C60.8598 68.928 60.7255 68.9979 60.6368 69.0609C60.6134 69.0776 60.5859 69.0878 60.5572 69.0905C60.5285 69.0931 60.4996 69.088 60.4734 69.0758C60.4472 69.0636 60.4247 69.0447 60.4081 69.021C60.3916 68.9973 60.3815 68.9696 60.3791 68.9408L60.3564 68.6516C60.3543 68.625 60.3461 68.5993 60.3325 68.5764C60.3188 68.5535 60.3001 68.534 60.2778 68.5194C60.0503 68.3699 59.5794 68.1584 59.311 68.2944C58.9401 68.4811 58.6295 68.7387 58.379 69.0669C58.28 69.1961 58.4077 69.486 58.4599 69.5986C58.5219 69.7337 58.4826 69.8508 58.3541 69.9127C58.2029 69.9852 58.0699 70.0577 57.9262 69.9301C57.7992 69.8176 57.7667 69.7609 57.5793 69.7224C57.4664 69.6998 57.2863 69.6512 57.0388 69.5767C56.8146 69.5087 56.5755 69.4941 56.3215 69.5329C56.1915 69.5525 56.1083 69.6197 56.0002 69.6877C55.9791 69.7013 55.9566 69.7038 55.933 69.6952C55.679 69.6061 55.4054 69.5495 55.3207 69.4105C55.2678 69.3237 55.1861 69.1923 55.0954 69.1281C54.7004 68.8477 54.2997 68.6793 53.8936 68.6229C53.7479 68.6027 53.5726 68.6249 53.3675 68.6893C53.3561 68.6929 53.344 68.6933 53.3324 68.6904C53.3207 68.6874 53.3101 68.6813 53.3017 68.6727C53.1384 68.5066 53.1778 68.2981 53.1717 68.0127C53.1717 67.9878 53.1628 67.964 53.1468 67.9455C53.0062 67.7823 52.8663 67.6567 52.7272 67.5686C52.1482 67.2041 51.7295 66.9386 51.471 66.7719C51.4589 66.7643 51.4487 66.7541 51.4411 66.7421C51.4335 66.73 51.4286 66.7165 51.4268 66.7025C51.425 66.6884 51.4263 66.6741 51.4307 66.6607C51.435 66.6472 51.4423 66.6349 51.4521 66.6246C51.5035 66.5693 51.539 66.5146 51.5586 66.4608C51.5672 66.4371 51.5662 66.414 51.5556 66.3913C51.5128 66.3007 51.4301 66.2289 51.3077 66.1761C51.2351 66.1444 51.1336 66.1481 51.0031 66.1874C50.613 66.3047 50.0897 66.3568 49.4331 66.3437C48.3834 66.3226 47.3882 66.0424 46.4473 65.5032C46.084 65.2948 45.6768 65.0589 45.2258 64.7956C45.0376 64.6853 44.7164 64.5041 44.4548 64.5524C43.9922 64.6385 43.4281 64.7556 42.7624 64.9036C42.58 64.9444 42.3839 64.9381 42.1743 64.8847C40.9775 64.5796 39.7532 64.1859 38.5015 63.7036C38.1711 63.5767 37.8529 63.4098 37.5294 63.2497C37.3142 63.143 37.0733 63.0368 36.8068 62.931C36.4621 62.7936 36.1461 62.6743 35.8558 62.5044C35.4845 62.2869 35.0753 61.9815 34.6283 61.5883C34.3693 61.3602 34.148 61.1022 33.9646 60.8143C33.9389 60.7735 33.9387 60.7324 33.9639 60.6912C34.0062 60.6224 34.0636 60.5416 34.0788 60.448C34.1261 60.1585 34.1549 59.9896 34.1649 59.9413C34.1952 59.7978 34.1904 59.6681 34.1506 59.5523C34.0175 59.1677 33.9011 58.9001 33.8013 58.7496C33.5252 58.3337 33.2445 57.97 32.9593 57.6583C32.8373 57.5249 32.5841 57.2624 32.1996 56.8707C32.1462 56.8168 32.056 56.6761 31.929 56.4485C31.6909 56.0241 31.4067 55.7681 31.025 55.4909C30.9474 55.4346 30.8894 55.3633 30.8511 55.2772C30.8408 55.2547 30.8384 55.2294 30.8443 55.2055C30.8957 54.9875 30.8632 54.805 30.7468 54.658C30.6994 54.5981 30.5727 54.4606 30.3666 54.2456C30.1927 54.0639 30.0317 53.8618 29.8836 53.6392C29.811 53.5305 29.8246 53.4376 29.8269 53.3024C29.8276 53.2714 29.8194 53.2408 29.8031 53.2144C29.7869 53.188 29.7634 53.1669 29.7354 53.1536C29.4376 53.0109 29.2607 52.8599 29.0415 52.591C28.6928 52.1616 28.4693 51.8885 28.3711 51.7717C28.3544 51.752 28.3449 51.7294 28.3423 51.7037C28.298 51.1982 28.2332 50.7577 28.1481 50.3821C27.9674 49.5854 27.3582 49.0802 26.6318 48.7857C26.6123 48.7778 26.5912 48.7745 26.5703 48.7762C26.5493 48.7778 26.5291 48.7842 26.5111 48.795C26.4931 48.8058 26.4779 48.8206 26.4667 48.8382C26.4555 48.8559 26.4486 48.8759 26.4466 48.8967C26.3831 49.5476 26.4622 50.1687 26.6839 50.7597C26.8283 51.1426 27.1382 51.5693 27.4164 52.0035C27.5076 52.146 27.5948 52.3187 27.6779 52.5216C27.8649 52.9777 28.1443 53.5028 28.5162 54.0969C28.5908 54.2162 28.69 54.4337 28.814 54.7494C29.0302 55.3029 29.071 56.0475 29.3703 56.5127C29.4117 56.5767 29.492 56.6562 29.6115 56.7514C29.91 56.99 30.0658 57.0791 30.2033 57.3925C30.2577 57.5159 30.2258 57.6264 30.1073 57.724L30.0884 57.7323C29.9539 57.7897 29.8546 57.7527 29.7906 57.6213C29.6641 57.3631 29.5175 57.1551 29.3507 56.9975C28.8881 56.561 28.5636 56.2499 28.3771 56.0641C28.2834 55.9705 28.2128 55.8718 28.1655 55.7681C28.1357 55.7021 28.1345 55.5863 28.1617 55.4207C28.2146 55.0982 28.2486 54.9057 28.1284 54.6278C28.0317 54.4052 27.8555 54.181 27.6001 53.9549C27.3385 53.7246 27.0188 53.7178 26.7383 53.5161C26.5907 53.4104 26.377 53.2042 26.0973 52.8976C26.0747 52.873 26.08 52.8599 26.1132 52.8584C26.2604 52.8518 26.406 52.8735 26.5501 52.9233C26.5581 52.926 26.5666 52.9268 26.5749 52.9257C26.5833 52.9246 26.5913 52.9216 26.5983 52.9169C26.6053 52.9122 26.6111 52.906 26.6153 52.8988C26.6196 52.8915 26.6221 52.8834 26.6227 52.875C26.631 52.7564 26.6371 52.6718 26.6756 52.5661C26.7567 52.3411 26.7399 52.1329 26.625 51.9416C26.4617 51.6687 26.2155 51.317 25.8865 50.8866C25.6345 50.5573 25.4523 50.1792 25.34 49.7523C25.1502 49.0318 24.9265 47.9164 24.5841 47.0389C24.4233 46.6266 24.1925 46.2797 23.8917 45.9983C23.5976 45.7219 23.2484 45.5368 22.7616 45.2317C22.6445 45.1577 22.5681 45.0339 22.5349 44.8927C22.3706 44.1959 22.1398 43.4362 21.8425 42.6135C21.7843 42.4519 21.7472 42.2495 21.7245 42.0924C21.7114 42.0033 21.7437 41.9409 21.8213 41.9052C21.9286 41.8563 22.003 41.7891 22.0443 41.7035C22.0544 41.6819 22.0554 41.66 22.0473 41.6378C21.9657 41.4143 21.7215 41.2617 21.4932 41.1182C21.4388 41.084 21.3783 40.9982 21.3118 40.8607C21.2216 40.6729 21.1538 40.422 21.1085 40.1078C21.0652 39.8077 21.0322 39.5062 21.0095 39.2031C20.9944 39.0022 21.007 38.8132 21.0473 38.636C21.0639 38.565 21.1324 38.3905 21.2529 38.1126C21.4348 37.6947 21.5489 37.2593 21.5953 36.8061C21.629 36.4784 21.7228 36.0877 21.8765 35.6341C22.0347 35.1694 22.2527 34.633 22.5303 34.0248C22.7639 33.5128 23.0148 32.9026 23.0451 32.3339C23.0685 31.9012 23.0194 31.4692 23.1154 31.0214C23.1204 30.9978 23.1343 30.9904 23.1569 30.9995C23.4709 31.1309 23.7526 31.2895 24.002 31.4753C24.0152 31.4852 24.0243 31.4994 24.0276 31.5154C24.031 31.5315 24.0283 31.5481 24.0202 31.5621L23.8652 31.8302C23.8552 31.8472 23.8501 31.8667 23.8506 31.8865C23.8511 31.9062 23.8571 31.9255 23.8679 31.942C23.8788 31.9585 23.8941 31.9716 23.912 31.9799C23.93 31.9882 23.9499 31.9913 23.9695 31.9888C24.1343 31.9692 24.2623 31.8821 24.3535 31.7275C24.5863 31.3348 24.5523 30.998 24.3996 30.5894C24.377 30.529 24.3608 30.4475 24.3513 30.3448C24.3397 30.2189 24.3258 30.0457 24.3097 29.8252C24.3041 29.7451 24.2598 29.6513 24.1766 29.5435C24.0869 29.4267 23.9703 29.4043 23.8267 29.4763C23.8154 29.4819 23.803 29.4849 23.7905 29.4851C23.7781 29.4852 23.7659 29.4825 23.7549 29.4771C23.6944 29.4489 23.6568 29.4046 23.6422 29.3441C23.6362 29.3195 23.6405 29.2966 23.6551 29.2754C23.6868 29.2281 23.7082 29.1795 23.7193 29.1297C23.7249 29.106 23.7206 29.0844 23.7065 29.0647C23.5772 28.885 23.3618 28.7158 23.1736 28.5791C23.1071 28.5313 23.0393 28.4407 22.9702 28.3073C22.8906 28.1537 22.7636 27.9257 22.5893 27.6231C22.5132 27.4902 22.5086 27.3346 22.5757 27.1564C22.6251 27.025 22.744 26.8422 22.9325 26.6081C22.9823 26.5457 22.9733 26.4938 22.9052 26.4525C22.8886 26.443 22.8604 26.4397 22.8206 26.4427C22.8093 26.4435 22.7981 26.4421 22.7874 26.4385C22.7768 26.4349 22.767 26.4291 22.7586 26.4216C22.7503 26.4142 22.7436 26.4051 22.7389 26.3949C22.7342 26.3848 22.7317 26.3738 22.7314 26.3627C22.7268 26.1633 22.7241 25.8074 22.7231 25.2948C22.7226 25.1977 22.7001 25.1083 22.6558 25.0267C22.6498 25.0156 22.6417 25.0058 22.6318 24.9979C22.622 24.99 22.6106 24.9842 22.5984 24.9807C22.5863 24.9773 22.5735 24.9763 22.5609 24.9779C22.5483 24.9794 22.5361 24.9834 22.525 24.9897L22.3005 25.1189C22.2738 25.1345 22.2582 25.1269 22.2537 25.0962C22.1967 24.7312 22.2005 24.367 22.265 24.0035C22.2695 23.9783 22.2816 23.9577 22.3013 23.9415C22.3471 23.9038 22.4295 23.8479 22.5485 23.7739C22.6641 23.7022 22.6792 23.5405 22.5817 23.4409C22.5172 23.3744 22.4378 23.3356 22.3436 23.3246C22.3189 23.322 22.3104 23.309 22.3179 23.2853C22.3774 23.0955 22.4124 22.9699 22.423 22.9085C22.4452 22.7826 22.427 22.657 22.3686 22.5316C22.3101 22.4078 22.2756 22.3129 22.265 22.2469C22.204 21.8874 22.1156 21.5041 21.9997 21.0968C21.9931 21.0726 21.9941 21.0487 22.0027 21.025C22.0758 20.8312 22.1133 20.7063 22.1153 20.6504C22.1259 20.3806 22.1625 20.1261 22.2249 19.887C22.2347 19.8495 22.2305 19.8098 22.2133 19.7752C22.1961 19.7406 22.1669 19.7135 22.1312 19.6989L21.9793 19.6362C21.949 19.6236 21.9344 19.601 21.9354 19.5683L21.9483 19.1816C21.9538 19.0195 21.9165 19.0089 21.8364 19.1499C21.7795 19.2491 21.7215 19.3286 21.6626 19.3885C21.6036 19.4484 21.5474 19.4568 21.494 19.4135C21.4733 19.3963 21.4648 19.3742 21.4683 19.347C21.4948 19.1355 21.6399 18.9052 21.3602 18.733C21.3375 18.7189 21.3154 18.7199 21.2937 18.7361C21.0904 18.8916 21.1591 19.0147 21.1297 19.1831C21.1256 19.2088 21.1118 19.2161 21.0881 19.205C21.0246 19.1758 20.9805 19.1315 20.9558 19.0721C20.7865 18.6633 20.6469 18.2321 20.537 17.7785C20.5263 17.7334 20.5293 17.6871 20.5455 17.6478C20.5617 17.6085 20.5901 17.5788 20.6255 17.564C20.6431 17.5565 20.6794 17.5215 20.7343 17.459C20.7442 17.4479 20.7517 17.4349 20.7564 17.4208C20.7611 17.4067 20.7629 17.3917 20.7617 17.3769C20.7605 17.362 20.7563 17.3475 20.7494 17.3343C20.7425 17.321 20.733 17.3093 20.7215 17.2997C20.5907 17.1909 20.4214 17.1343 20.28 17.0195C20.2614 17.0039 20.246 16.9873 20.2339 16.9697C20.05 16.6887 19.9177 16.5231 19.8371 16.4728C19.4279 16.2185 19.2011 16.068 19.1568 16.0212C19.0868 15.9482 19.0293 15.8427 18.9845 15.7047C18.9338 15.5492 18.8514 15.4057 18.7872 15.2735C18.6995 15.093 18.772 14.828 18.7305 14.7102C18.6171 14.3859 18.3901 14.2389 18.0494 14.2691C17.9995 14.2732 17.9406 14.3192 17.8725 14.4073C17.8725 14.4078 17.8599 14.4745 17.8347 14.6075C17.8075 14.7514 17.7272 14.8516 17.5936 14.908C17.5699 14.9181 17.5457 14.9198 17.5211 14.9133C17.1371 14.8076 16.7392 14.7804 16.3275 14.8317C16.2973 14.8358 16.2877 14.8237 16.2988 14.7955C16.3845 14.5785 16.4366 14.4398 16.4553 14.3794C16.4981 14.244 16.5727 14.1362 16.679 14.0562C16.814 13.9545 16.97 13.8676 17.1469 13.7956C17.1746 13.7846 17.2013 13.7866 17.227 13.8017L17.6866 14.0667C17.7035 14.0764 17.7226 14.0814 17.742 14.0814C17.7614 14.0814 17.7805 14.0762 17.7973 14.0665C17.8142 14.0568 17.8281 14.0429 17.8379 14.0261C17.8476 14.0093 17.8528 13.9902 17.8529 13.9708V13.8402C17.8529 13.8295 17.8553 13.819 17.8599 13.8094C17.8644 13.7997 17.8711 13.7912 17.8793 13.7843C17.966 13.7118 18.0182 13.6355 18.0358 13.5555C18.0429 13.5243 18.0303 13.5066 17.998 13.5026C17.6256 13.4603 17.3177 13.4601 17.0743 13.5019C16.6787 13.5693 16.1479 13.6761 15.4817 13.8221C15.3194 13.8578 15.1856 13.9311 15.0803 14.0418C15.0617 14.0615 15.0523 14.0846 15.0523 14.1113V14.4013C15.0523 14.4388 15.0386 14.475 15.0139 14.5032C14.9891 14.5314 14.955 14.5497 14.9178 14.5546C14.4995 14.6105 14.0604 14.6434 13.6003 14.6535C12.9114 14.6681 12.533 14.6747 12.4649 14.6732C12.2971 14.6686 12.0895 14.6913 11.8421 14.7411C11.7302 14.7633 11.5188 14.7779 11.2079 14.7849C11.0552 14.7884 11.0111 14.7127 11.0756 14.5576L11.1157 14.4896C11.1988 14.3497 11.3218 14.2767 11.4845 14.2706C11.8 14.2591 12.1051 14.2744 12.3999 14.3167C12.6101 14.3469 12.7612 14.3479 12.8535 14.3197C13.0021 14.2744 13.1324 14.1813 13.2442 14.0403C13.3357 13.9255 13.3939 13.7956 13.5028 13.7194C13.6605 13.6091 13.8336 13.5585 14.0221 13.5676C14.031 13.568 14.0399 13.5666 14.0483 13.5635C14.0566 13.5604 14.0643 13.5556 14.0708 13.5495C14.0773 13.5433 14.0825 13.536 14.086 13.5278C14.0896 13.5196 14.0915 13.5108 14.0916 13.5019C14.0921 13.4696 14.0803 13.4402 14.0561 13.4135C14.0223 13.3762 14.0039 13.3556 14.0009 13.3516C13.8336 13.1265 13.6106 12.9924 13.3319 12.9491C13.3047 12.945 13.2959 12.9299 13.3055 12.9038C13.4 12.6409 13.4204 12.3056 13.1316 12.1652C13.0722 12.1365 13.0218 12.1005 12.9804 12.0572C12.9613 12.0365 12.9615 12.0164 12.9812 11.9968C13.2206 11.7632 13.3836 11.5754 13.4703 11.4334C13.6602 11.1228 13.593 10.8605 13.2684 10.6465C13.1984 10.6002 13.1908 10.5456 13.2458 10.4826C13.3602 10.3522 13.4413 10.1619 13.4892 9.91171C13.4937 9.88653 13.505 9.86514 13.5232 9.84752C13.6376 9.73373 13.7555 9.54368 13.8769 9.27735C13.957 9.10315 14.108 8.97956 14.3297 8.90655C14.7323 8.77415 15.0521 8.70089 15.2889 8.6868C15.4109 8.67924 15.5505 8.72833 15.7077 8.83406C15.7309 8.84966 15.8863 8.87106 16.1741 8.89825C16.1998 8.90076 16.2224 8.91033 16.2421 8.92694C16.2975 8.97528 16.3424 9.04274 16.3766 9.12933C16.3811 9.14079 16.3882 9.15101 16.3974 9.15916C16.4066 9.1673 16.4176 9.17313 16.4296 9.17616C16.611 9.22298 16.7516 9.18824 16.8513 9.07194C17.0695 8.81568 17.2215 8.66313 17.3071 8.6143C17.3293 8.60171 17.353 8.59466 17.3782 8.59315C17.4951 8.58661 17.5828 8.54155 17.6412 8.45797C17.6471 8.44966 17.6501 8.43971 17.6498 8.42963C17.6496 8.41954 17.646 8.40988 17.6397 8.40209C17.5641 8.30694 17.4981 8.2508 17.4417 8.23368C17.2507 8.17679 17.1099 8.10857 17.0191 8.02903C16.7689 7.80927 16.5429 7.51701 16.4114 7.16963C16.4018 7.14496 16.4081 7.12507 16.4303 7.10997C16.5311 7.03999 16.6389 6.95138 16.7538 6.84414C16.9408 6.67045 17.0441 6.47209 17.0637 6.24906C17.0647 6.23809 17.0681 6.22747 17.0736 6.21791C17.079 6.20836 17.0865 6.20011 17.0955 6.19372C17.1045 6.18734 17.1147 6.18297 17.1256 6.18092C17.1364 6.17887 17.1475 6.17918 17.1582 6.18184C17.4062 6.24327 17.6677 6.3208 17.9428 6.41444C18.0235 6.44213 18.09 6.4809 18.1424 6.53074C18.1487 6.53671 18.1537 6.54387 18.1571 6.55181C18.1606 6.55976 18.1625 6.56832 18.1626 6.57703C18.1628 6.58573 18.1612 6.59439 18.158 6.60252C18.1548 6.61064 18.15 6.61807 18.1439 6.62438C18.0507 6.72105 18.0184 6.82677 18.0472 6.94156C18.0993 7.15075 18.4334 7.43696 18.6027 7.5729C18.6119 7.58028 18.6232 7.58455 18.6349 7.58509C18.6466 7.58564 18.6581 7.58242 18.6677 7.57592C18.8759 7.43545 19.0442 7.26025 19.1727 7.05031C19.2483 6.92646 19.28 6.86906 19.221 6.73086C19.1686 6.60601 19.1266 6.48593 19.0948 6.37064C19.0883 6.34698 19.0928 6.32533 19.1084 6.30569C19.2954 6.07058 19.3949 5.91703 19.407 5.84503C19.4166 5.78764 19.4576 5.59179 19.5302 5.2575C19.5796 5.03245 19.7308 4.95492 19.9837 5.0249C20.1689 5.07625 20.3148 5.1563 20.5234 5.16536C21.0566 5.18802 21.5205 5.18827 21.915 5.16612C21.9382 5.16461 22.0015 5.17065 22.1048 5.18424C22.1305 5.18726 22.1539 5.19633 22.1751 5.21143C22.3187 5.31212 22.4734 5.34485 22.6392 5.3096C22.6623 5.30471 22.6863 5.30681 22.708 5.31565L23.426 5.61168C23.4532 5.62298 23.4774 5.64018 23.4969 5.66201C23.5164 5.68385 23.5306 5.70975 23.5387 5.73779C23.5573 5.80324 23.6044 5.98021 23.68 6.26869C23.8015 6.73086 24.0114 7.11299 24.3097 7.41506C24.9008 8.01317 25.222 8.33035 25.631 8.87484C25.7282 9.00473 25.8635 9.21694 26.0369 9.51146C26.1961 9.78333 26.3549 10.0562 26.5131 10.3301C26.5902 10.464 26.6648 10.5682 26.7368 10.6427C26.7692 10.6764 26.8126 10.6975 26.859 10.702C26.9055 10.7066 26.9519 10.6944 26.9901 10.6676C27.116 10.58 27.2715 10.462 27.4564 10.3135C27.4882 10.2883 27.5164 10.2752 27.5411 10.2742C27.5638 10.2732 27.5832 10.2795 27.5993 10.2931C27.6205 10.3097 27.6258 10.3306 27.6152 10.3558L27.5449 10.5264C27.5405 10.5377 27.54 10.5499 27.5434 10.5612C27.5665 10.6357 27.6381 10.6765 27.758 10.6835C28.1188 10.7057 28.4527 10.6838 28.7596 10.6178C28.8997 10.5881 28.9281 10.6317 28.845 10.7485C28.8354 10.762 28.8279 10.8212 28.8223 10.9259C28.8213 10.9531 28.8342 10.9687 28.8609 10.9727C29.0292 10.9979 29.1393 11.0002 29.1912 10.9795C29.3434 10.9191 29.5011 10.8816 29.6644 10.867C29.7339 10.861 29.7846 10.8315 29.8413 10.8066C29.8659 10.7956 29.8927 10.79 29.9197 10.7903C29.9468 10.7905 29.9734 10.7966 29.9978 10.8081C30.0222 10.8196 30.0438 10.8362 30.0612 10.8568C30.0785 10.8774 30.0912 10.9015 30.0983 10.9274L30.2502 11.4749C30.2548 11.4916 30.2632 11.5069 30.2746 11.5198C30.2861 11.5327 30.3004 11.5428 30.3163 11.5494C30.3323 11.5559 30.3496 11.5587 30.3668 11.5576C30.384 11.5565 30.4007 11.5515 30.4157 11.5429L30.6327 11.4175C30.6412 11.4125 30.6511 11.41 30.661 11.4104C30.6709 11.4108 30.6805 11.4139 30.6887 11.4196C30.6969 11.4252 30.7033 11.433 30.7071 11.4422C30.711 11.4513 30.7122 11.4614 30.7105 11.4712C30.6899 11.599 30.7481 11.6892 30.8851 11.7415C30.9703 11.7742 31.0552 11.7858 31.1399 11.7763C31.2422 11.7647 31.2948 11.7591 31.2978 11.7596C31.5735 11.7682 31.7801 11.8339 31.9177 11.9568C32.3692 12.362 32.9081 12.7114 33.5345 13.0049C33.6157 13.0432 33.6751 13.0943 33.7129 13.1582C33.7324 13.1913 33.7404 13.2299 33.7356 13.2679C33.7309 13.3059 33.7136 13.3412 33.6865 13.3682L33.2564 13.7979C33.2372 13.817 33.2372 13.8367 33.2564 13.8568ZM42.7525 18.1135C42.7681 18.0732 42.7315 18.0145 42.6506 17.9503C42.5697 17.8862 42.4511 17.8218 42.321 17.7714C42.2566 17.7464 42.1913 17.7256 42.1288 17.7102C42.0664 17.6948 42.0079 17.6851 41.9569 17.6815C41.9059 17.678 41.8632 17.6808 41.8314 17.6897C41.7996 17.6986 41.7792 17.7134 41.7715 17.7334C41.7558 17.7737 41.7925 17.8324 41.8734 17.8966C41.9543 17.9608 42.0729 18.0251 42.2029 18.0756C42.2674 18.1005 42.3327 18.1213 42.3951 18.1367C42.4576 18.1521 42.516 18.1619 42.5671 18.1654C42.6181 18.1689 42.6607 18.1662 42.6926 18.1573C42.7244 18.1484 42.7447 18.1335 42.7525 18.1135Z" fill="#727372"/>
</g>
<defs>
<clipPath id="clip0_1387_5242">
<rect width="75" height="75" fill="white"/>
</clipPath>
</defs>
</svg>
