<svg width="30" height="30" viewBox="0 0 30 30" fill="none" xmlns="http://www.w3.org/2000/svg">
<g clip-path="url(#clip0_360_1849)">
<path d="M0.5 0.5V29.5H29.5V0.5H0.5Z" stroke="#727372"/>
<path d="M3.0126 8.64005C3.00332 8.57895 3.00276 8.50218 3.01094 8.40975C3.01647 8.34843 3.02089 8.28115 3.0242 8.20791C3.02752 8.13027 3.02995 8.06221 3.0315 8.00376C3.03282 7.96052 3.04288 7.89942 3.06167 7.82044C3.07924 7.74831 3.11008 7.62919 3.09118 7.55838C3.08024 7.51636 3.06764 7.49882 3.07924 7.45481C3.09339 7.40143 3.13605 7.24161 3.20723 6.97536C3.22579 6.90521 3.24635 6.8558 3.2689 6.82712C3.34416 6.73017 3.36372 6.67623 3.39986 6.56506C3.44595 6.42476 3.49701 6.33774 3.60908 6.11042C3.67805 5.97078 3.73331 5.86567 3.77486 5.79508C4.03945 5.34618 4.3614 4.93918 4.74071 4.5741C4.79177 4.52513 4.87366 4.45421 4.98639 4.36134C5.11736 4.25314 5.21252 4.16281 5.3216 4.08638C5.54309 3.93152 5.77618 3.78681 6.02087 3.65225C6.08188 3.61872 6.15924 3.58166 6.25296 3.54107C6.32414 3.51041 6.40084 3.47258 6.48307 3.42758C6.53789 3.39736 6.69339 3.34552 6.94958 3.27206C6.9498 3.27184 7.00804 3.25177 7.12431 3.21184C7.30203 3.15096 7.47975 3.12813 7.67305 3.08941C7.81805 3.06029 7.94261 3.04176 8.04672 3.03382C8.28876 3.01485 8.42448 3.00459 8.45388 3.00305C8.60839 2.99445 8.84601 3.00404 9.16674 3.03184C9.20785 3.03537 9.27604 3.03768 9.37131 3.03879C9.49035 3.04044 9.59843 3.0871 9.72078 3.10463C10.0039 3.145 10.3163 3.2168 10.5885 3.33063C10.6568 3.35931 10.706 3.37773 10.736 3.38589C10.7723 3.39603 10.8207 3.41589 10.8813 3.44545C11.2033 3.60339 11.401 3.70332 11.4744 3.74523C11.9647 4.02582 12.3976 4.36355 12.7731 4.75841C14.671 6.7541 16.5473 8.72333 18.4021 10.6661C18.4958 10.7642 18.5916 10.8679 18.6896 10.9771C18.7053 10.9948 18.7172 11.012 18.7254 11.0287C18.7278 11.0336 18.7291 11.039 18.7292 11.0444C18.7293 11.0499 18.7283 11.0553 18.7261 11.0603C18.7239 11.0653 18.7207 11.0698 18.7166 11.0734C18.7125 11.077 18.7077 11.0797 18.7025 11.0813C18.674 11.0902 18.2983 11.2011 17.5755 11.4142C17.1763 11.5318 16.8614 11.6391 16.6309 11.7362C16.5966 11.7507 16.5156 11.7837 16.3878 11.8351C16.2806 11.8783 16.1997 11.9131 16.1451 11.9393C15.904 12.0547 15.7398 12.1357 15.6524 12.1822C15.1107 12.4714 14.6171 12.795 14.1717 13.153C13.7128 13.5221 13.2829 13.9272 12.8819 14.3684C12.7318 14.5334 12.5897 14.7021 12.4555 14.8746C12.1434 15.275 11.9269 15.5684 11.806 15.7548C11.6338 16.0202 11.5044 16.225 11.4177 16.3693C11.2004 16.7317 11.014 17.072 10.8584 17.39C10.8089 17.4913 10.7336 17.6393 10.6326 17.8341C10.4871 18.1145 10.3757 18.3444 10.2984 18.524C10.2972 18.5266 10.2955 18.529 10.2933 18.5309C10.2912 18.5327 10.2886 18.5341 10.2858 18.5348C10.283 18.5356 10.2801 18.5357 10.2773 18.5351C10.2745 18.5345 10.2718 18.5333 10.2695 18.5316C10.2229 18.4959 10.179 18.4574 10.1379 18.4161C10.1341 18.4126 10.0141 18.2865 9.77781 18.0379C8.15824 16.3343 6.53722 14.6321 4.91478 12.9313C4.58852 12.5894 4.34957 12.3247 4.19794 12.1372C4.16434 12.0957 4.08123 11.9783 3.9486 11.7848C3.85422 11.6472 3.7774 11.5248 3.71817 11.4179C3.51348 11.0488 3.35157 10.6625 3.23243 10.2591C3.19396 10.1292 3.16667 10.0226 3.15053 9.93945C3.12555 9.81195 3.10168 9.7043 3.07891 9.6165C3.06742 9.5715 3.06034 9.52363 3.05769 9.4729C3.05438 9.40319 3.05062 9.35323 3.04642 9.323C3.01569 9.10263 3.00022 8.90212 3 8.72145C3 8.6963 3.01691 8.66818 3.0126 8.64005ZM4.72114 8.60862C4.72247 8.64457 4.72103 8.67083 4.71683 8.68737C4.71374 8.69928 4.71296 8.72421 4.71451 8.76215C4.75054 9.64628 5.03922 10.4302 5.58055 11.1138C5.66543 11.2212 5.81331 11.3855 6.02419 11.6068C7.25473 12.8997 8.43598 14.1387 9.56793 15.324C9.66519 15.4257 9.74786 15.5172 9.81594 15.5986C9.81855 15.6017 9.82181 15.6042 9.82549 15.6059C9.82917 15.6076 9.83318 15.6085 9.83724 15.6084C9.84129 15.6084 9.84529 15.6075 9.84895 15.6057C9.8526 15.604 9.85582 15.6014 9.85838 15.5983C9.89772 15.5504 9.9206 15.5213 9.92701 15.5109C10.1737 15.1174 10.3963 14.7795 10.5948 14.4971C10.8974 14.0665 11.2856 13.5922 11.7596 13.0743C12.0891 12.7143 12.4575 12.3801 12.7775 12.1001C13.0034 11.9025 13.3166 11.6586 13.7171 11.3686C14.1886 11.0269 14.7353 10.7083 15.3574 10.4129C15.3936 10.3957 15.4352 10.379 15.482 10.3627C15.5428 10.3417 15.596 10.3102 15.6415 10.268C15.6484 10.2616 15.6482 10.2553 15.6412 10.2492C15.5501 10.1717 15.4674 10.0855 15.3932 9.99041C15.3733 9.9646 15.3394 9.94143 15.3189 9.91993C12.9104 7.39327 11.6945 6.11781 11.671 6.09354C11.4584 5.87207 11.2935 5.71379 11.1763 5.61872C10.7884 5.30393 10.3633 5.06768 9.90115 4.90996C9.7756 4.86716 9.66265 4.83562 9.56229 4.81532C9.36137 4.77451 9.24643 4.75113 9.21747 4.74517C9.17702 4.73701 9.12198 4.73304 9.05235 4.73326C8.98957 4.73326 8.93442 4.7315 8.8869 4.72797C8.68575 4.71275 8.48273 4.71341 8.27782 4.72995C8.15083 4.74021 8.04307 4.77198 7.91841 4.78488C7.85894 4.79128 7.76997 4.81036 7.6515 4.84212C7.31198 4.93345 6.99677 5.06602 6.70588 5.23985C6.56684 5.32301 6.49092 5.36812 6.4781 5.37518C6.41068 5.41313 6.33862 5.46397 6.26192 5.52772C6.12907 5.63824 6.03601 5.71776 5.98274 5.76629C5.67173 6.04997 5.42284 6.36112 5.23606 6.69973C5.10653 6.93488 5.02795 7.08819 5.00032 7.15966C4.91677 7.37628 4.84117 7.63945 4.77353 7.94916C4.75739 8.02217 4.74822 8.08736 4.74601 8.14471C4.74535 8.16501 4.7396 8.23041 4.72877 8.34093C4.72037 8.42652 4.71783 8.51575 4.72114 8.60862Z" fill="#777777"/>
<path d="M17.4066 13.0733C17.7143 12.9438 18.0426 12.8271 18.3914 12.7232C18.8355 12.5908 19.2817 12.4961 19.7302 12.439C19.7413 12.4374 19.7512 12.44 19.7601 12.4466C19.8043 12.4783 19.865 12.5349 19.9421 12.6163C20.5376 13.2437 22.2418 15.0343 25.0548 17.9883C25.5809 18.5409 25.9737 19.1375 26.2332 19.778C26.2968 19.9352 26.3453 20.1218 26.3874 20.2343C26.428 20.3435 26.4579 20.4532 26.4769 20.5632C26.4946 20.6652 26.5108 20.74 26.5256 20.7879C26.5437 20.8457 26.5556 20.9201 26.5611 21.0109C26.5651 21.0782 26.5794 21.1929 26.6042 21.3551C26.6128 21.4115 26.6171 21.4657 26.6171 21.5175C26.6175 21.6032 26.6211 21.6677 26.6161 21.7369C26.6137 21.7707 26.6153 21.8014 26.6208 21.8292C26.6241 21.846 26.6189 21.9205 26.6052 22.0529C26.5983 22.1206 26.5944 22.1949 26.5933 22.2756C26.591 22.4201 26.5866 22.5022 26.58 22.5221C26.5446 22.6269 26.5326 22.734 26.5439 22.8434C26.5498 22.8992 26.5472 22.9482 26.5359 22.9903C26.512 23.0805 26.4725 23.2269 26.4172 23.4294C26.4026 23.4837 26.3832 23.5302 26.3588 23.569C26.3098 23.6476 26.2849 23.6877 26.2842 23.6895C26.2441 23.7672 26.2113 23.8827 26.1699 23.9684C26.0284 24.2598 25.914 24.4763 25.8267 24.6179C25.4547 25.2199 24.9788 25.7349 24.399 26.1629C24.3406 26.2059 24.2106 26.2923 24.0091 26.4223C23.7853 26.5665 23.6215 26.633 23.3313 26.7717C23.1596 26.8538 22.9311 26.9136 22.773 26.9729C22.6762 27.0093 22.5841 27.0362 22.4968 27.0536C22.1924 27.1143 21.9988 27.1486 21.9159 27.1565C21.701 27.177 21.5823 27.1888 21.5598 27.1919C21.5096 27.1988 21.4546 27.2009 21.3947 27.1982C21.3571 27.1967 21.3018 27.1991 21.2289 27.2055C21.1725 27.2103 20.9865 27.1984 20.6709 27.1697C20.6395 27.1669 20.608 27.1668 20.5764 27.1694C20.5286 27.1732 20.4974 27.1729 20.4826 27.1688C20.3356 27.1282 20.1836 27.0984 20.0267 27.0794C20.0061 27.077 19.9246 27.0579 19.7823 27.0222C19.7032 27.0023 19.6238 26.9758 19.5442 26.9428C19.347 26.861 19.1417 26.8177 18.9487 26.7082C18.7773 26.6112 18.4577 26.4706 18.2445 26.3194C17.9885 26.138 17.8234 26.0325 17.6208 25.8399C17.4826 25.7082 17.3218 25.5699 17.1805 25.422C13.7539 21.8277 11.9343 19.9149 11.7217 19.6837C11.696 19.656 11.6453 19.605 11.5695 19.5309C11.5629 19.5246 11.5586 19.5165 11.557 19.5075C11.5555 19.4986 11.5568 19.4894 11.5609 19.4812C11.6285 19.3443 11.6709 19.1914 11.7373 19.0782C11.8102 18.9541 11.8473 18.7894 11.9315 18.6418C11.981 18.5557 12.0032 18.4657 12.0512 18.3863C12.1113 18.2871 12.1912 18.1091 12.2605 17.9926C12.3372 17.8638 12.3963 17.7591 12.4378 17.6786C12.5011 17.5566 12.5605 17.4525 12.6162 17.3662C12.8693 16.9753 13.0284 16.7342 13.0933 16.6429C13.2052 16.486 13.3768 16.2636 13.6083 15.9755C13.7769 15.7653 13.9194 15.5967 14.0356 15.4699C14.4733 14.9923 14.9536 14.5575 15.4766 14.1655C15.5168 14.1355 15.6362 14.0504 15.8347 13.9101C15.9231 13.8477 16.0198 13.7858 16.1248 13.7245C16.2614 13.6446 16.3571 13.5874 16.412 13.5527C16.4533 13.5267 16.49 13.5321 16.522 13.5689C16.8764 13.9766 17.2975 14.4409 17.7853 14.962C20.0023 17.3305 21.3336 18.7483 21.779 19.2155C21.9372 19.3814 22.1194 19.4263 22.3254 19.3502C22.4277 19.3123 22.5111 19.252 22.5754 19.1695C22.6514 19.0714 22.6866 18.9694 22.6808 18.8635C22.6729 18.7163 22.6252 18.597 22.5379 18.5055C22.36 18.3186 22.1187 18.0642 21.8141 17.7421C21.2646 17.1617 19.861 15.6909 17.6033 13.3297C17.5208 13.2437 17.4533 13.1654 17.4007 13.0948C17.3994 13.093 17.3985 13.091 17.3982 13.0889C17.3978 13.0868 17.3979 13.0847 17.3984 13.0826C17.399 13.0805 17.4001 13.0786 17.4015 13.077C17.4029 13.0754 17.4047 13.0741 17.4066 13.0733Z" fill="#777777"/>
</g>
<defs>
<clipPath id="clip0_360_1849">
<rect width="30" height="30" fill="white"/>
</clipPath>
</defs>
</svg>
