<svg width="24" height="24" viewBox="0 0 24 24" fill="none" xmlns="http://www.w3.org/2000/svg">
<g clip-path="url(#clip0_360_1627)">
<path d="M12.304 0C12.5559 0.0123829 12.8077 0.0258248 13.0593 0.0403259C13.2647 0.05222 13.4382 0.119022 13.5799 0.240733C13.6722 0.320081 13.7466 0.405784 13.8033 0.497841C13.9078 0.667699 13.96 0.897678 13.96 1.08758C13.9597 1.84815 13.9593 2.33523 13.959 2.54884C13.959 2.56937 13.969 2.58208 13.9889 2.58697C14.183 2.63487 14.3515 2.67878 14.4944 2.7187C15.2299 2.92415 15.9328 3.2031 16.6032 3.55552C16.9154 3.71951 17.2186 3.91039 17.5108 4.08024C17.5163 4.08346 17.5227 4.0849 17.529 4.08438C17.5354 4.08385 17.5414 4.08139 17.5463 4.07731C17.609 4.02485 17.6479 3.99153 17.6631 3.97735C17.9728 3.69124 18.2127 3.4642 18.3826 3.29621C18.5095 3.17075 18.6349 3.05955 18.7588 2.96261C18.9471 2.81499 19.229 2.73116 19.4724 2.76342C19.5612 2.77532 19.6564 2.8101 19.758 2.86778C19.9062 2.95218 20.0483 3.06045 20.1843 3.19259C20.202 3.20969 20.409 3.41589 20.8054 3.81116C20.9195 3.92505 21.0433 4.06224 21.1769 4.22273C21.3449 4.4246 21.4669 4.62452 21.4595 4.89434C21.4571 4.98819 21.4489 5.0677 21.435 5.13287C21.4016 5.28945 21.3315 5.42517 21.2249 5.54004C21.1553 5.61483 21.1036 5.66908 21.0696 5.70281C20.7287 6.03976 20.3948 6.37181 20.0678 6.69898C20.0604 6.70615 20.0596 6.71397 20.0653 6.72244C20.2202 6.95104 20.3676 7.19625 20.5073 7.45809C20.8404 8.08228 21.1058 8.74208 21.3035 9.43747C21.3358 9.55153 21.3721 9.69621 21.4122 9.87153C21.4712 10.1293 21.5043 10.2749 21.5117 10.3085C21.5135 10.3163 21.5181 10.3217 21.5256 10.3246C21.5563 10.3357 21.5813 10.3411 21.6006 10.3408C21.9127 10.3349 22.2053 10.3382 22.4783 10.3505C22.6045 10.3563 22.7295 10.3593 22.8532 10.3596C22.9185 10.3599 23.0438 10.3615 23.2289 10.3645C23.3081 10.3658 23.3767 10.3838 23.4346 10.4185C23.538 10.4804 23.6477 10.5642 23.7638 10.67C23.8689 10.7661 23.9362 10.883 23.9656 11.0207C23.9798 11.0865 23.9913 11.1697 24.0001 11.2702V12.7017C23.9905 12.8778 23.9762 13.037 23.9572 13.1792C23.9375 13.329 23.881 13.4659 23.7878 13.5901C23.7629 13.6231 23.6835 13.6864 23.5495 13.78C23.4427 13.8546 23.3081 13.9036 23.1456 13.9271C23.0044 13.9475 22.8709 13.9571 22.745 13.9562C22.4255 13.9537 22.103 13.9389 21.7776 13.9117C21.6864 13.904 21.5981 13.8886 21.5129 13.8653C21.4541 13.8493 21.3713 13.8156 21.2646 13.7643C21.1214 13.6954 21.0386 13.6556 21.0162 13.6451C20.7184 13.5026 20.4312 13.3907 20.1544 13.3092C19.7873 13.2014 19.4367 13.1375 19.1029 13.1176C18.9331 13.1077 18.6642 13.0997 18.2962 13.0937C18.113 13.0906 17.9541 13.0736 17.8196 13.0429C17.6816 13.0112 17.5625 12.9528 17.4623 12.8676C17.3873 12.8039 17.3207 12.7378 17.2625 12.6692C17.2328 12.6342 17.2198 12.599 17.2171 12.5516C17.2121 12.456 17.2129 12.3403 17.2196 12.2046C17.225 12.0964 17.2256 11.9979 17.2213 11.9091C17.2159 11.797 17.2102 11.6981 17.2042 11.6124C17.1754 11.2016 17.0998 10.8042 16.9774 10.4202C16.9318 10.2771 16.8736 10.1256 16.8025 9.96562C16.5682 9.43739 16.2576 8.95764 15.8704 8.52635C15.3878 7.98868 14.8064 7.5613 14.126 7.24424C13.5752 6.98745 12.9727 6.84611 12.3187 6.8202C11.8985 6.80358 11.6193 6.7965 11.402 6.7569C11.3358 6.74485 11.2905 6.7257 11.2664 6.69947C11.1875 6.6136 11.1378 6.5121 11.1172 6.39495C11.086 6.21817 11.0706 6.05189 11.0709 5.89613C11.0716 5.66167 11.0695 5.44187 11.0646 5.23674C11.058 4.95976 11.0358 4.67593 10.9977 4.38525C10.938 3.93018 10.8091 3.49515 10.6245 3.07894C10.5259 2.85637 10.4647 2.72008 10.4408 2.67006C10.3829 2.54851 10.355 2.39715 10.3573 2.21597C10.3599 2.02387 10.3602 1.61532 10.358 0.990305C10.3579 0.916008 10.3732 0.820611 10.4041 0.704114C10.455 0.512016 10.5564 0.391283 10.7053 0.248554C10.7882 0.169206 10.886 0.105499 10.9985 0.0574338C11.0433 0.0382077 11.0875 0.0272912 11.1309 0.0246843C11.2547 0.0175153 11.3783 0.00928717 11.5017 0H12.304Z" fill="#777777"/>
<path d="M12.8848 24H11.7497C11.5239 23.9886 11.2981 23.9786 11.0723 23.9702C10.9033 23.9638 10.7731 23.9443 10.6815 23.9115C10.5206 23.8541 10.3979 23.7487 10.282 23.6209C10.1936 23.5238 10.133 23.4066 10.1003 23.2692C10.0682 23.1337 10.049 22.9618 10.0428 22.7536C10.0405 22.6773 10.0399 22.2762 10.0411 21.5501C10.0411 21.5262 10.0367 21.5035 10.0281 21.4822C10.0251 21.4749 10.0198 21.4704 10.0119 21.4688C9.6031 21.3861 9.21355 21.2785 8.84327 21.1459C8.23233 20.9269 7.6422 20.6545 7.0729 20.3286C6.88286 20.2201 6.63453 20.049 6.50204 19.9596C6.46971 19.9378 6.44082 19.9379 6.41535 19.9601C6.23494 20.1163 6.05135 20.2902 5.86457 20.4816C5.68531 20.6657 5.49698 20.8428 5.29494 21.0051C5.17641 21.1004 5.00547 21.2129 4.84408 21.2371C4.55837 21.2801 4.3089 21.2154 4.09567 21.043C3.97747 20.9475 3.86686 20.8501 3.76384 20.7507C3.52253 20.518 3.28253 20.2775 3.04384 20.0292C2.91894 19.8992 2.80702 19.7605 2.70808 19.613C2.6049 19.4594 2.55176 19.305 2.54865 19.1499C2.54604 19.0213 2.568 18.8907 2.61453 18.7579C2.65739 18.6357 2.75437 18.5071 2.84449 18.4069C2.97282 18.2645 3.04269 18.1876 3.05412 18.1762C3.37951 17.8536 3.63371 17.6001 3.81673 17.4156C3.82522 17.4072 3.8471 17.377 3.88237 17.3252C3.88694 17.3185 3.88882 17.3112 3.888 17.3032C3.88571 17.2809 3.8782 17.2602 3.86547 17.2411C3.59314 16.8315 3.35314 16.3486 3.14645 15.8713C2.83935 15.1617 2.61837 14.4382 2.48351 13.7008C2.48195 13.6921 2.47764 13.6841 2.4712 13.678C2.46476 13.672 2.45655 13.6681 2.44776 13.667C2.41951 13.6633 2.39543 13.6614 2.37551 13.6614C1.67265 13.6626 1.29127 13.6626 1.23135 13.6617C1.03233 13.6581 0.880163 13.6472 0.774857 13.6292C0.649469 13.6077 0.526612 13.5506 0.406286 13.4581C0.213796 13.31 0.0783673 13.1391 0 12.9453V11.3611C0.00767347 11.2448 0.0142857 11.1282 0.0198367 11.0114C0.0356735 10.6868 0.176898 10.4305 0.44351 10.2423C0.593714 10.1364 0.754041 10.08 0.92449 10.0732C1.38833 10.0546 1.87494 10.0766 2.40318 10.0978C2.42914 10.0991 2.472 10.1059 2.50506 10.1193C2.60237 10.1594 2.79788 10.2525 3.09159 10.3987C3.472 10.5879 3.86865 10.7222 4.28155 10.8017C4.42049 10.8284 4.58237 10.85 4.76718 10.8665C4.9822 10.8859 5.16661 10.899 5.32041 10.9058C5.64416 10.9202 5.86073 10.9327 5.97012 10.9435C6.09943 10.956 6.20931 10.9744 6.29975 10.9987C6.46775 11.0441 6.66196 11.1857 6.7369 11.3374C6.76873 11.4024 6.77951 11.5205 6.78269 11.6033C6.80245 12.1115 6.8151 12.415 6.82065 12.5137C6.84384 12.923 6.93412 13.3372 7.09151 13.7562C7.29804 14.3065 7.57927 14.8022 7.93518 15.2434C8.64735 16.1262 9.55902 16.725 10.6702 17.04C10.9628 17.1228 11.2391 17.1699 11.4992 17.1815C12.0269 17.2051 12.3205 17.219 12.3801 17.223C12.5368 17.2335 12.64 17.2486 12.6896 17.2685C12.736 17.2869 12.7788 17.3288 12.818 17.3941C12.9093 17.5466 12.9171 17.7138 12.9296 17.9352C12.9461 18.2274 12.9549 18.5443 12.9561 18.8859C12.9567 19.0979 12.9705 19.3149 12.9975 19.5368C13.014 19.6736 13.0446 19.8336 13.0893 20.0165C13.2077 20.4995 13.375 20.9558 13.5913 21.3857C13.6271 21.4564 13.649 21.5479 13.657 21.6604C13.6689 21.8239 13.6716 21.9888 13.6651 22.1548C13.6639 22.1875 13.6566 22.4045 13.643 22.8056C13.638 22.956 13.6248 23.1057 13.6036 23.2548C13.5736 23.4645 13.4669 23.6367 13.2835 23.7712C13.1408 23.8762 13.0079 23.9524 12.8848 24Z" fill="#777777"/>
<path d="M17.7198 14.4071C18.1817 14.4618 18.8618 14.4582 19.4307 14.5454C19.74 14.5928 20.0535 14.6955 20.3711 14.8534C20.6555 14.9948 20.9138 15.1543 21.1462 15.3319C21.6933 15.7502 22.1109 16.2637 22.3991 16.8726C22.6738 17.453 22.8097 18.065 22.8066 18.7088C22.8063 18.7928 22.8 18.9251 22.7569 19.0089C22.6548 19.2073 22.4959 19.3215 22.28 19.3513C22.2296 19.3583 22.1669 19.3519 22.092 19.332C22.0378 19.3177 21.9842 19.2883 21.9313 19.244C21.8859 19.2059 21.8305 19.1568 21.765 19.0966C21.5959 18.9412 21.4328 18.7861 21.2757 18.6313C21.0063 18.3654 20.8116 18.1831 20.553 17.9643C20.4112 17.8443 20.2694 17.7544 20.0821 17.7304C19.8656 17.7031 19.6513 17.7137 19.4392 17.7622C19.269 17.8011 19.1221 17.8959 18.9837 18.0105C18.641 18.2948 18.3187 18.6167 18.0169 18.9761C17.9442 19.0628 17.8848 19.154 17.8386 19.2496C17.7284 19.4786 17.7061 19.7577 17.745 20.009C17.7728 20.1885 17.8512 20.3616 17.9804 20.5283C18.0587 20.6295 18.2155 20.8028 18.4506 21.0482C18.7128 21.3219 18.9341 21.5503 19.1145 21.7335C19.1339 21.7532 19.2288 21.8644 19.3991 22.0671C19.4513 22.1291 19.4841 22.1888 19.4975 22.246C19.52 22.3427 19.5158 22.4337 19.4848 22.5187C19.4347 22.6566 19.3409 22.7727 19.2034 22.8672C19.1768 22.8855 19.1287 22.8984 19.0591 22.9061C18.9073 22.9227 18.7748 22.9291 18.6617 22.9251C18.3869 22.9155 18.1776 22.9039 18.0338 22.8902C17.1926 22.81 16.4509 22.4913 15.8086 21.9341C15.3622 21.5467 14.973 21.0799 14.712 20.5489C14.6305 20.3832 14.569 20.2324 14.5276 20.0965C14.4144 19.7269 14.3467 19.342 14.3245 18.9417C14.3064 18.617 14.2985 18.2443 14.3008 17.8238C14.3014 17.729 14.292 17.6102 14.2726 17.4675C14.228 17.1402 14.0894 16.8152 13.8847 16.5727C13.6178 16.2567 13.2511 15.9062 12.9984 15.6372C12.8627 15.4928 12.7355 15.3613 12.6166 15.2427C9.87017 12.5022 8.46788 11.1029 8.40976 11.0449C8.11221 10.7482 7.79041 10.4498 7.49213 10.1932C7.36135 10.0807 7.22911 9.9781 7.09539 9.88523C6.82747 9.69965 6.53751 9.59904 6.22551 9.5834C5.75123 9.55961 5.46356 9.5447 5.36249 9.53867C4.96984 9.51488 4.59204 9.45737 4.22911 9.36613C3.87817 9.2779 3.53629 9.13346 3.23041 8.93623C2.99531 8.7847 2.78911 8.62584 2.6118 8.45965C2.46951 8.32645 2.25376 8.11578 2.11833 7.9425C1.74413 7.46478 1.48756 6.95757 1.34862 6.42087C1.24837 6.0339 1.19776 5.64735 1.19678 5.2612C1.19629 5.05867 1.27678 4.89704 1.43825 4.77631C1.61629 4.64311 1.87368 4.61207 2.05686 4.75749C2.19939 4.8704 2.33841 4.99268 2.47392 5.12433C2.85237 5.49158 3.12804 5.75268 3.30094 5.90763C3.49074 6.07749 3.70894 6.22608 3.96315 6.27252C4.32674 6.339 4.64829 6.27252 4.9278 6.07309C5.04029 5.9926 5.16298 5.89093 5.29588 5.76808C5.58813 5.49761 5.83825 5.22812 6.04625 4.95961C6.10878 4.87879 6.16315 4.78283 6.20935 4.67171C6.30731 4.4361 6.30878 4.13965 6.24609 3.89061C6.19319 3.68042 6.04527 3.48466 5.90764 3.32922C5.70241 3.09802 5.49523 2.87684 5.25498 2.64173C5.1149 2.50454 4.96437 2.34731 4.80339 2.17004C4.72013 2.07814 4.65384 1.99513 4.60453 1.92099C4.50584 1.77215 4.47327 1.66266 4.52666 1.49158C4.59523 1.27211 4.75205 1.13623 4.99711 1.08393C5.04462 1.07382 5.16331 1.07032 5.35319 1.07342C5.6789 1.07863 6.0047 1.10625 6.33058 1.15627C6.49498 1.18168 6.65009 1.22046 6.79588 1.2726C7.10821 1.38437 7.42445 1.53737 7.74462 1.73158C8.02135 1.89957 8.28176 2.11056 8.52584 2.36458C9.26429 3.13329 9.65409 4.05036 9.69523 5.11578C9.70127 5.26942 9.69678 5.49737 9.68176 5.79961C9.67131 6.008 9.69033 6.25012 9.73882 6.52596C9.78045 6.76303 9.86837 7.00278 10.0026 7.24523C10.0382 7.30959 10.1071 7.40189 10.2095 7.52213C10.3618 7.70087 10.5554 7.90722 10.7902 8.1412C10.9775 8.32767 11.1565 8.53199 11.3302 8.70527C13.5236 10.8933 14.9237 12.2904 15.5304 12.8967C15.6241 12.9904 15.7476 13.1092 15.9009 13.253C16.0227 13.3676 16.204 13.5434 16.4446 13.7805C16.6335 13.9665 16.8409 14.1165 17.0667 14.2304C17.2376 14.3168 17.4553 14.3757 17.7198 14.4071Z" fill="#777777"/>
</g>
<defs>
<clipPath id="clip0_360_1627">
<rect width="24" height="24" fill="white"/>
</clipPath>
</defs>
</svg>
