<?xml version="1.0" encoding="UTF-8"?>
<!DOCTYPE svg PUBLIC "-//W3C//DTD SVG 1.1//EN" "http://www.w3.org/Graphics/SVG/1.1/DTD/svg11.dtd">
<svg xmlns="http://www.w3.org/2000/svg" version="1.1" width="693px" height="691px" style="shape-rendering:geometricPrecision; text-rendering:geometricPrecision; image-rendering:optimizeQuality; fill-rule:evenodd; clip-rule:evenodd" xmlns:xlink="http://www.w3.org/1999/xlink">
<g><path style="opacity:0.983" fill="#fefffe" d="M 17.5,-0.5 C 46.8333,-0.5 76.1667,-0.5 105.5,-0.5C 108.022,1.36056 110.522,3.36056 113,5.5C 119.788,28.9797 126.121,52.6464 132,76.5C 135.421,80.4583 139.588,83.2916 144.5,85C 320.5,85.3333 496.5,85.6667 672.5,86C 680.502,88.0029 686.002,92.8362 689,100.5C 690.551,107.418 690.884,114.418 690,121.5C 686.65,144.934 682.65,168.267 678,191.5C 677.579,195.645 676.412,199.478 674.5,203C 480.834,203.5 287.167,203.667 93.5,203.5C 82.4745,157.732 70.9745,112.065 59,66.5C 45.2415,65.6759 31.4082,65.1759 17.5,65C 10.0657,62.5649 4.89902,57.7316 2,50.5C 0.400278,39.239 0.0669442,27.9056 1,16.5C 4.01911,8.31563 9.51911,2.64896 17.5,-0.5 Z"/></g>
<g><path style="opacity:0.905" fill="#fefffe" d="M 95.5,209.5 C 288.5,209.5 481.5,209.5 674.5,209.5C 674.309,212.985 673.309,216.151 671.5,219C 480.5,219.667 289.5,219.667 98.5,219C 97.4024,215.873 96.4024,212.707 95.5,209.5 Z"/></g>
<g><path style="opacity:0.951" fill="#fefffe" d="M 99.5,223.5 C 290.167,223.5 480.833,223.5 671.5,223.5C 670.5,230.165 669.5,236.832 668.5,243.5C 480.5,243.667 292.5,243.5 104.5,243C 102.446,236.616 100.779,230.116 99.5,223.5 Z"/></g>
<g><path style="opacity:0.965" fill="#fefffe" d="M 106.5,251.5 C 293.167,251.5 479.833,251.5 666.5,251.5C 664.816,261.09 662.816,270.59 660.5,280C 478.167,280.5 295.834,280.667 113.5,280.5C 111.323,270.792 108.99,261.125 106.5,251.5 Z"/></g>
<g><path style="opacity:0.975" fill="#fefffe" d="M 117.5,293.5 C 297.835,293.167 478.168,293.5 658.5,294.5C 655.833,307.833 653.167,321.167 650.5,334.5C 476.168,335.5 301.835,335.833 127.5,335.5C 124.165,321.494 120.832,307.494 117.5,293.5 Z"/></g>
<g><path style="opacity:0.984" fill="#fefffe" d="M 133.5,356.5 C 304.5,356.5 475.5,356.5 646.5,356.5C 642.152,380.923 637.486,405.256 632.5,429.5C 472.5,429.667 312.5,429.5 152.5,429C 145.314,405.091 138.981,380.924 133.5,356.5 Z"/></g>
<g><path style="opacity:0.953" fill="#fefffe" d="M 160.5,460.5 C 315.833,460.5 471.167,460.5 626.5,460.5C 623.755,469.08 618.088,474.913 609.5,478C 465.5,478.667 321.5,478.667 177.5,478C 168.912,474.913 163.245,469.08 160.5,460.5 Z"/></g>
<g><path style="opacity:0.957" fill="#fefffe" d="M 185.5,496.5 C 312.167,496.333 438.834,496.5 565.5,497C 600.429,502.872 625.596,521.706 641,553.5C 641.49,554.793 641.657,556.127 641.5,557.5C 464.167,557.5 286.833,557.5 109.5,557.5C 119.438,533.059 136.438,515.226 160.5,504C 168.723,500.7 177.057,498.2 185.5,496.5 Z"/></g>
<g><path style="opacity:0.959" fill="#fefffe" d="M 213.5,690.5 C 204.833,690.5 196.167,690.5 187.5,690.5C 143.022,683.199 115.188,657.532 104,613.5C 103.088,608.536 102.588,603.536 102.5,598.5C 125.167,598.5 147.833,598.5 170.5,598.5C 174.195,613.957 184.028,622.624 200,624.5C 216.335,622.988 226.168,614.322 229.5,598.5C 252.167,598.5 274.833,598.5 297.5,598.5C 294.026,641.808 272.026,671.308 231.5,687C 225.251,687.569 219.251,688.736 213.5,690.5 Z"/></g>
<g><path style="opacity:0.96" fill="#fefffe" d="M 564.5,690.5 C 555.833,690.5 547.167,690.5 538.5,690.5C 493.566,683.074 465.733,657.074 455,612.5C 454.171,607.863 453.671,603.196 453.5,598.5C 476.176,598.167 498.843,598.5 521.5,599.5C 528.963,620.565 543.296,627.732 564.5,621C 573.287,616.099 578.954,608.766 581.5,599C 603.833,598.333 626.167,598.333 648.5,599C 645.289,642.704 622.956,672.037 581.5,687C 575.637,687.872 569.97,689.039 564.5,690.5 Z"/></g>
</svg>
