<svg width="48" height="51" viewBox="0 0 48 51" fill="none" xmlns="http://www.w3.org/2000/svg">
<path d="M47.4493 4.67095V7.383C47.4262 7.532 47.4071 7.68377 47.3917 7.83831C47.3736 8.01571 47.3439 8.16575 47.3028 8.28841C46.8285 9.68273 45.8719 10.6425 44.4329 11.1678C43.757 11.4142 43.0592 11.4849 42.3121 11.4849C24.1931 11.487 11.69 11.4838 4.80284 11.4755C3.70427 11.4734 2.71207 11.1644 1.82624 10.5483C0.989235 9.96617 0.427047 9.18238 0.139675 8.19693C0.0873623 8.01745 0.0608572 7.87642 0.0601597 7.77386C0.0601597 7.67961 0.0493484 7.58501 0.0277258 7.49007C0.00959067 7.41315 0.000523128 7.31821 0.000523128 7.20525C-0.000174376 6.41384 -0.000174376 5.66991 0.000523128 4.97344C0.000523128 4.80712 0.0123807 4.6505 0.0360958 4.50359C0.0542309 4.39201 0.065391 4.28668 0.069576 4.18758C0.0730635 4.10303 0.0936399 3.99943 0.131305 3.87677C0.517025 2.62659 1.30311 1.70975 2.48957 1.12625C2.91504 0.916961 3.374 0.767273 3.86644 0.677183C4.18938 0.618278 4.66543 0.588825 5.29458 0.588825C17.7506 0.58536 30.2066 0.585013 42.6626 0.587785C43.8205 0.587785 44.872 0.942602 45.8171 1.65223C46.8006 2.39097 47.3446 3.39721 47.4493 4.67095ZM9.80184 6.03165C9.80184 5.32147 9.51789 4.64037 9.01245 4.13819C8.50701 3.63602 7.82149 3.3539 7.10669 3.3539C6.39189 3.3539 5.70637 3.63602 5.20093 4.13819C4.69549 4.64037 4.41154 5.32147 4.41154 6.03165C4.41154 6.74184 4.69549 7.42294 5.20093 7.92511C5.70637 8.42729 6.39189 8.70941 7.10669 8.70941C7.82149 8.70941 8.50701 8.42729 9.01245 7.92511C9.51789 7.42294 9.80184 6.74184 9.80184 6.03165Z" fill="white"/>
<path d="M23.736 13.6075C35.9214 13.6068 42.2272 13.6093 42.6533 13.6148C45.0608 13.6439 47.305 15.2541 47.4389 17.7853C47.4424 17.8449 47.4441 18.2597 47.4441 19.0296C47.4441 19.8002 47.4424 20.2153 47.4389 20.2749C47.305 22.8061 45.0608 24.4163 42.6544 24.4454C42.2282 24.4509 35.9221 24.4537 23.736 24.4537C11.5499 24.4544 5.24376 24.452 4.81759 24.4464C2.4112 24.4173 0.166984 22.8071 0.0320171 20.2759C0.029227 20.2163 0.027832 19.8012 0.027832 19.0306C0.027832 18.2607 0.029227 17.8459 0.0320171 17.7863C0.166984 15.2551 2.4112 13.645 4.81759 13.6148C5.24376 13.61 11.5499 13.6075 23.736 13.6075ZM9.83648 19.0348C9.83648 18.3158 9.549 17.6262 9.03728 17.1178C8.52556 16.6094 7.83152 16.3238 7.10784 16.3238C6.38416 16.3238 5.69013 16.6094 5.17841 17.1178C4.66669 17.6262 4.37921 18.3158 4.37921 19.0348C4.37921 19.7538 4.66669 20.4433 5.17841 20.9518C5.69013 21.4602 6.38416 21.7458 7.10784 21.7458C7.83152 21.7458 8.52556 21.4602 9.03728 20.9518C9.549 20.4433 9.83648 19.7538 9.83648 19.0348Z" fill="white"/>
<path d="M0.0300293 32.0337C0.0300293 31.2631 0.0317731 30.8479 0.0352606 30.7883C0.169181 28.2572 2.4134 26.647 4.81979 26.6179C5.24596 26.613 11.5514 26.6099 23.7361 26.6085C35.9208 26.6078 42.2259 26.6102 42.6513 26.6158C45.0577 26.6439 47.3019 28.254 47.4369 30.7852C47.4404 30.8448 47.4421 31.2596 47.4421 32.0295C47.4421 32.8001 47.4404 33.2152 47.4369 33.2748C47.303 35.806 45.0588 37.4162 42.6524 37.4453C42.2262 37.4509 35.9208 37.454 23.7361 37.4547C11.5514 37.4554 5.24631 37.4533 4.82083 37.4484C2.41445 37.4193 0.170228 35.8091 0.0352606 33.278C0.0317731 33.2184 0.0300293 32.8036 0.0300293 32.0337ZM9.83763 32.0378C9.83763 31.3185 9.55004 30.6287 9.03812 30.1201C8.52621 29.6115 7.8319 29.3258 7.10795 29.3258C6.38399 29.3258 5.68969 29.6115 5.17777 30.1201C4.66586 30.6287 4.37827 31.3185 4.37827 32.0378C4.37827 32.394 4.44887 32.7466 4.58605 33.0757C4.72323 33.4047 4.9243 33.7037 5.17777 33.9555C5.43125 34.2074 5.73216 34.4072 6.06334 34.5434C6.39452 34.6797 6.74948 34.7499 7.10795 34.7499C7.46641 34.7499 7.82137 34.6797 8.15255 34.5434C8.48373 34.4072 8.78465 34.2074 9.03812 33.9555C9.2916 33.7037 9.49266 33.4047 9.62984 33.0757C9.76702 32.7466 9.83763 32.394 9.83763 32.0378Z" fill="white"/>
<path d="M23.7349 40.1632C24.7951 40.1625 25.7803 40.1643 26.6906 40.1684C26.7025 40.1684 26.714 40.1731 26.7224 40.1815C26.7308 40.1899 26.7356 40.2013 26.7356 40.2131V45.5052C26.7356 45.5517 26.7589 45.5749 26.8057 45.5749H31.0221C31.0404 45.5749 31.058 45.5821 31.0709 45.595C31.0839 45.6078 31.0911 45.6253 31.0911 45.6435V50.4044C31.0911 50.4118 31.0897 50.4191 31.0868 50.4259C31.084 50.4327 31.0798 50.4389 31.0746 50.4441C31.0694 50.4493 31.0631 50.4534 31.0563 50.4563C31.0494 50.4591 31.0421 50.4605 31.0346 50.4605C30.7466 50.4647 28.3144 50.4675 23.7381 50.4688C19.161 50.4695 16.7285 50.4678 16.4404 50.4637C16.4254 50.4637 16.4111 50.4577 16.4005 50.4472C16.3899 50.4367 16.3839 50.4224 16.3839 50.4075L16.3818 45.6466C16.3818 45.6284 16.3891 45.611 16.4021 45.5981C16.415 45.5852 16.4326 45.578 16.4509 45.578L20.6673 45.5759C20.714 45.5759 20.7374 45.5527 20.7374 45.5063L20.7353 40.2142C20.7353 40.2023 20.74 40.1909 20.7485 40.1826C20.7569 40.1742 20.7684 40.1695 20.7803 40.1695C21.6905 40.1653 22.6754 40.1632 23.7349 40.1632Z" fill="white"/>
</svg>
