<svg width="15" height="16" viewBox="0 0 15 16" fill="none" xmlns="http://www.w3.org/2000/svg">
<g clip-path="url(#clip0_23_115)">
<path opacity="0.994" fill-rule="evenodd" clip-rule="evenodd" d="M0.407958 -0.0308876C1.70503 -0.0308876 3.0021 -0.0308876 4.29917 -0.0308876C4.32291 0.118669 4.36475 0.262814 4.4247 0.401545C4.48746 0.525097 4.55022 0.648649 4.61298 0.772201C5.18068 2.03408 5.76645 3.29019 6.3703 4.54054C6.43306 4.62291 6.49582 4.62291 6.55859 4.54054C6.66026 4.36116 6.74392 4.17583 6.80963 3.98456C7.01505 3.60079 7.20334 3.20954 7.37449 2.81081C7.81382 1.86358 8.25315 0.916343 8.69248 -0.0308876C10.0105 -0.0308876 11.3285 -0.0308876 12.6465 -0.0308876C12.5469 0.103195 12.4632 0.24734 12.3954 0.401545C12.2892 0.506858 12.2056 0.630413 12.1444 0.772201C10.8769 2.98917 9.60076 5.20281 8.31591 7.41313C8.69191 7.44395 9.06848 7.45427 9.44562 7.44402C9.94771 7.44402 10.4498 7.44402 10.9519 7.44402C11.5795 7.44402 12.2071 7.44402 12.8347 7.44402C12.8347 7.58814 12.8347 7.73232 12.8347 7.87645C12.8347 8 12.8347 8.12355 12.8347 8.2471C12.8347 8.49421 12.8347 8.74131 12.8347 8.98842C11.2657 8.98842 9.69666 8.98842 8.12762 8.98842C8.12762 9.89449 8.12762 10.8005 8.12762 11.7066C8.42053 11.7066 8.71338 11.7066 9.00628 11.7066C9.42472 11.7066 9.84308 11.7066 10.2615 11.7066C10.5335 11.7066 10.8055 11.7066 11.0774 11.7066C11.0774 11.8507 11.0774 11.9949 11.0774 12.139C11.0774 12.2625 11.0774 12.3861 11.0774 12.5097C11.0774 12.6744 11.0774 12.8391 11.0774 13.0039C10.0941 13.0039 9.11091 13.0039 8.12762 13.0039C8.12762 13.7246 8.12762 14.4453 8.12762 15.166C7.73016 15.166 7.33262 15.166 6.93516 15.166C6.51672 15.166 6.09834 15.166 5.67992 15.166C5.38704 15.166 5.09415 15.166 4.80126 15.166C4.80126 14.713 4.80126 14.26 4.80126 13.8069C4.80126 13.6834 4.80126 13.5598 4.80126 13.4363C4.80126 13.2922 4.80126 13.148 4.80126 13.0039C4.48746 13.0039 4.17365 13.0039 3.85984 13.0039C3.44143 13.0039 3.02302 13.0039 2.60461 13.0039C2.31172 13.0039 2.01884 13.0039 1.72595 13.0039C1.72595 12.5714 1.72595 12.139 1.72595 11.7066C2.75105 11.7066 3.77616 11.7066 4.80126 11.7066C4.80126 11.0682 4.80126 10.4298 4.80126 9.79151C4.80126 9.66795 4.80126 9.5444 4.80126 9.42085C4.80126 9.27673 4.80126 9.13254 4.80126 8.98842C3.90168 8.98842 3.0021 8.98842 2.10252 8.98842C1.68411 8.98842 1.2657 8.98842 0.847289 8.98842C0.554402 8.98842 0.261515 8.98842 -0.0313721 8.98842C-0.0313721 8.47364 -0.0313721 7.9588 -0.0313721 7.44402C1.49597 7.45433 3.02316 7.44402 4.55022 7.41313C3.17666 4.92516 1.79591 2.44382 0.407958 -0.0308876Z" fill="#FEFEFE"/>
<path opacity="0.258" fill-rule="evenodd" clip-rule="evenodd" d="M4.42468 0.401545C4.65575 0.391334 4.88588 0.40163 5.11506 0.432433C5.18657 0.542419 5.24933 0.655674 5.30334 0.772202C5.07322 0.772202 4.84309 0.772202 4.61297 0.772202C4.55021 0.64865 4.48744 0.525097 4.42468 0.401545Z" fill="#050FFF"/>
<path opacity="0.259" fill-rule="evenodd" clip-rule="evenodd" d="M12.3954 0.401544C12.7725 0.39128 13.1491 0.401576 13.5251 0.432432C13.4209 0.524334 13.3582 0.637591 13.3368 0.772201C13.3159 0.772201 13.295 0.772201 13.2741 0.772201C12.8975 0.772201 12.5209 0.772201 12.1443 0.772201C12.2055 0.630412 12.2892 0.506857 12.3954 0.401544Z" fill="#0810FF"/>
<path opacity="0.467" fill-rule="evenodd" clip-rule="evenodd" d="M4.61298 0.772202C4.8431 0.772202 5.07323 0.772202 5.30335 0.772202C5.77342 1.86204 6.27552 2.93283 6.80963 3.98456C6.74392 4.17583 6.66026 4.36116 6.55858 4.54054C6.49582 4.62291 6.43306 4.62291 6.3703 4.54054C5.76645 3.29019 5.18068 2.03408 4.61298 0.772202Z" fill="#6F0C93"/>
<path opacity="0.263" fill-rule="evenodd" clip-rule="evenodd" d="M5.30334 0.772201C5.6596 0.76194 6.01525 0.772238 6.37029 0.803089C6.69891 1.48083 7.03362 2.15007 7.37447 2.81081C7.20332 3.20954 7.01504 3.60079 6.80962 3.98456C6.27551 2.93283 5.77342 1.86204 5.30334 0.772201Z" fill="#FD0102"/>
<path opacity="0.467" fill-rule="evenodd" clip-rule="evenodd" d="M12.1444 0.772202C12.5209 0.772202 12.8975 0.772202 13.2741 0.772202C11.9979 2.99614 10.7218 5.22008 9.44563 7.44402C9.06849 7.45427 8.69192 7.44395 8.31592 7.41313C9.60077 5.20281 10.8769 2.98917 12.1444 0.772202Z" fill="#6D0A93"/>
<path opacity="0.263" fill-rule="evenodd" clip-rule="evenodd" d="M13.2741 0.7722C13.295 0.7722 13.3159 0.7722 13.3368 0.7722C13.8185 0.761921 14.2997 0.772219 14.7803 0.803088C13.4955 3.0134 12.2194 5.22705 10.9519 7.44402C10.4498 7.44402 9.94771 7.44402 9.44562 7.44402C10.7217 5.22008 11.9979 2.99614 13.2741 0.7722Z" fill="#FE0001"/>
<path opacity="0.271" fill-rule="evenodd" clip-rule="evenodd" d="M12.8347 7.87645C13.1276 7.87645 13.4205 7.87645 13.7134 7.87645C13.7134 8 13.7134 8.12355 13.7134 8.2471C13.4205 8.2471 13.1276 8.2471 12.8347 8.2471C12.8347 8.12355 12.8347 8 12.8347 7.87645Z" fill="#000BFF"/>
<path opacity="0.467" fill-rule="evenodd" clip-rule="evenodd" d="M12.8347 8.2471C13.1276 8.2471 13.4205 8.2471 13.7134 8.2471C13.7134 8.63833 13.7134 9.02962 13.7134 9.42085C12.1444 9.42085 10.5753 9.42085 9.00629 9.42085C9.00629 10.1827 9.00629 10.9447 9.00629 11.7066C8.71338 11.7066 8.42053 11.7066 8.12762 11.7066C8.12762 10.8005 8.12762 9.89449 8.12762 8.98842C9.69666 8.98842 11.2657 8.98842 12.8347 8.98842C12.8347 8.74131 12.8347 8.49421 12.8347 8.2471Z" fill="#6D0692"/>
<path opacity="0.268" fill-rule="evenodd" clip-rule="evenodd" d="M13.7134 8.2471C14.1318 8.2471 14.5502 8.2471 14.9686 8.2471C14.9686 8.76188 14.9686 9.27673 14.9686 9.79151C13.3996 9.79151 11.8306 9.79151 10.2615 9.79151C10.2615 10.4298 10.2615 11.0682 10.2615 11.7066C9.84309 11.7066 9.42472 11.7066 9.00629 11.7066C9.00629 10.9447 9.00629 10.1827 9.00629 9.42085C10.5753 9.42085 12.1444 9.42085 13.7134 9.42085C13.7134 9.02962 13.7134 8.63833 13.7134 8.2471Z" fill="#FE0000"/>
<path opacity="0.271" fill-rule="evenodd" clip-rule="evenodd" d="M0.84729 8.98842C1.2657 8.98842 1.68411 8.98842 2.10252 8.98842C2.10252 9.13254 2.10252 9.27673 2.10252 9.42085C1.68411 9.42085 1.2657 9.42085 0.84729 9.42085C0.84729 9.27673 0.84729 9.13254 0.84729 8.98842Z" fill="#000BFF"/>
<path opacity="0.467" fill-rule="evenodd" clip-rule="evenodd" d="M2.10254 8.98842C3.00212 8.98842 3.9017 8.98842 4.80128 8.98842C4.80128 9.13254 4.80128 9.27673 4.80128 9.42085C3.9017 9.42085 3.00212 9.42085 2.10254 9.42085C2.10254 9.27673 2.10254 9.13254 2.10254 8.98842Z" fill="#6A0794"/>
<path opacity="0.271" fill-rule="evenodd" clip-rule="evenodd" d="M2.10254 9.42085C3.00212 9.42085 3.9017 9.42085 4.80128 9.42085C4.80128 9.5444 4.80128 9.66795 4.80128 9.79151C3.9017 9.79151 3.00212 9.79151 2.10254 9.79151C2.10254 9.66795 2.10254 9.5444 2.10254 9.42085Z" fill="#FE0000"/>
<path opacity="0.271" fill-rule="evenodd" clip-rule="evenodd" d="M11.0774 12.139C11.3703 12.139 11.6631 12.139 11.9561 12.139C11.9561 12.2625 11.9561 12.3861 11.9561 12.5097C11.6631 12.5097 11.3703 12.5097 11.0774 12.5097C11.0774 12.3861 11.0774 12.2625 11.0774 12.139Z" fill="#000BFF"/>
<path opacity="0.467" fill-rule="evenodd" clip-rule="evenodd" d="M11.0774 12.5097C11.3703 12.5097 11.6631 12.5097 11.956 12.5097C11.956 12.8185 11.956 13.1274 11.956 13.4363C10.9728 13.4363 9.98953 13.4363 9.00625 13.4363C9.00625 14.157 9.00625 14.8777 9.00625 15.5985C8.31587 15.5985 7.6255 15.5985 6.93512 15.5985C6.93512 15.4543 6.93512 15.3101 6.93512 15.166C7.33259 15.166 7.73012 15.166 8.12759 15.166C8.12759 14.4453 8.12759 13.7246 8.12759 13.0039C9.11087 13.0039 10.0941 13.0039 11.0774 13.0039C11.0774 12.8391 11.0774 12.6744 11.0774 12.5097Z" fill="#6D0692"/>
<path opacity="0.267" fill-rule="evenodd" clip-rule="evenodd" d="M11.956 12.5097C12.3745 12.5097 12.7928 12.5097 13.2113 12.5097C13.2113 12.9421 13.2113 13.3745 13.2113 13.8069C12.228 13.8069 11.2448 13.8069 10.2615 13.8069C10.2615 14.5277 10.2615 15.2484 10.2615 15.9691C9.15267 15.9691 8.04393 15.9691 6.93512 15.9691C6.93512 15.8456 6.93512 15.722 6.93512 15.5985C7.6255 15.5985 8.31587 15.5985 9.00625 15.5985C9.00625 14.8777 9.00625 14.157 9.00625 13.4363C9.98953 13.4363 10.9728 13.4363 11.956 13.4363C11.956 13.1274 11.956 12.8185 11.956 12.5097Z" fill="#FE0000"/>
<path opacity="0.271" fill-rule="evenodd" clip-rule="evenodd" d="M2.60461 13.0039C3.02303 13.0039 3.44143 13.0039 3.85984 13.0039C3.85984 13.148 3.85984 13.2922 3.85984 13.4363C3.44143 13.4363 3.02303 13.4363 2.60461 13.4363C2.60461 13.2922 2.60461 13.148 2.60461 13.0039Z" fill="#000BFF"/>
<path opacity="0.467" fill-rule="evenodd" clip-rule="evenodd" d="M3.8598 13.0039C4.17361 13.0039 4.48742 13.0039 4.80122 13.0039C4.80122 13.148 4.80122 13.2922 4.80122 13.4363C4.48742 13.4363 4.17361 13.4363 3.8598 13.4363C3.8598 13.2922 3.8598 13.148 3.8598 13.0039Z" fill="#6A0794"/>
<path opacity="0.271" fill-rule="evenodd" clip-rule="evenodd" d="M3.8598 13.4363C4.17361 13.4363 4.48742 13.4363 4.80122 13.4363C4.80122 13.5598 4.80122 13.6834 4.80122 13.807C4.48742 13.807 4.17361 13.807 3.8598 13.807C3.8598 13.6834 3.8598 13.5598 3.8598 13.4363Z" fill="#FE0000"/>
<path opacity="0.267" fill-rule="evenodd" clip-rule="evenodd" d="M5.67993 15.166C6.09834 15.166 6.51673 15.166 6.93516 15.166C6.93516 15.3101 6.93516 15.4543 6.93516 15.5985C6.51673 15.5985 6.09834 15.5985 5.67993 15.5985C5.67993 15.4543 5.67993 15.3101 5.67993 15.166Z" fill="#000BFF"/>
</g>
<defs>
<clipPath id="clip0_23_115">
<rect width="15" height="16" fill="white"/>
</clipPath>
</defs>
</svg>
