<svg width="75" height="76" viewBox="0 0 75 76" fill="none" xmlns="http://www.w3.org/2000/svg">
<g clip-path="url(#clip0_1387_5239)">
<path d="M1.25 1.75V74.25H73.75V1.75H1.25Z" stroke="#727372" stroke-width="2.5"/>
<path d="M22.2855 58.4973V58.0942C22.2855 58.0865 22.2872 58.0788 22.2904 58.0717C22.2936 58.0646 22.2983 58.0583 22.3041 58.0532C22.3099 58.048 22.3167 58.0441 22.3241 58.0418C22.3315 58.0395 22.3393 58.0387 22.3471 58.0396L22.759 58.0872C22.7628 58.0877 22.7658 58.0862 22.7679 58.0828C22.7721 58.0773 22.7747 58.0718 22.7755 58.0663C22.7759 58.0604 22.7734 58.0561 22.7679 58.0536C22.6655 58.0109 22.5563 57.9836 22.4404 57.9717C22.3128 57.9584 22.2944 57.9362 22.2385 57.8403C22.1915 57.7597 22.2385 57.6619 22.2747 57.5648C22.298 57.5026 22.3327 57.4571 22.3788 57.4284C22.4465 57.3856 22.5222 57.3196 22.606 57.2303C22.686 57.1457 22.693 57.0767 22.627 57.0234C22.6202 57.0179 22.5696 56.9963 22.4753 56.9586C22.4554 56.9506 22.4351 56.9497 22.4143 56.9561C22.2633 57.0022 22.1135 56.9948 21.9649 56.9339C21.9341 56.9211 21.9002 56.9177 21.8674 56.9242C21.8347 56.9306 21.8046 56.9466 21.7808 56.9701C21.6863 57.0646 21.598 57.2011 21.4628 57.0513C21.3327 56.9091 21.374 56.8234 21.4222 56.6336C21.4238 56.627 21.4274 56.621 21.4324 56.6165L21.9224 56.1861C21.9257 56.1831 21.9284 56.1795 21.9301 56.1754C21.9319 56.1713 21.9327 56.1668 21.9326 56.1624C21.9325 56.158 21.9314 56.1537 21.9294 56.1498C21.9274 56.1459 21.9246 56.1424 21.9211 56.1398C21.8494 56.0852 21.7796 56.0185 21.8411 55.9221C21.9249 55.7919 22.1331 55.8072 22.2334 55.7894C22.2559 55.7856 22.2565 55.7794 22.2353 55.771C22.1558 55.7392 22.0809 55.6927 22.0106 55.6313C22.0065 55.6279 22.0032 55.6236 22.0008 55.6187C21.9985 55.6139 21.9971 55.6086 21.9969 55.6032C21.9966 55.5978 21.9975 55.5924 21.9994 55.5873C22.0014 55.5822 22.0043 55.5775 22.0081 55.5736C22.182 55.3958 22.2702 55.3463 22.3039 55.1172C22.3051 55.1097 22.3084 55.1025 22.3134 55.0962L22.4473 54.9293C22.4526 54.9228 22.4551 54.9145 22.4543 54.9061C22.4534 54.8978 22.4493 54.8902 22.4429 54.8848L22.0989 54.6087C22.0855 54.5981 22.0749 54.5844 22.068 54.5688C22.0611 54.5532 22.0581 54.5361 22.0592 54.5191C22.0604 54.502 22.0656 54.4854 22.0745 54.4707C22.0834 54.4561 22.0956 54.4437 22.1103 54.4348C22.2161 54.3701 22.299 54.2621 22.3591 54.1111C22.367 54.0911 22.3799 54.0738 22.3966 54.0609C22.5595 53.9319 22.6816 53.7979 22.7628 53.6591C22.7742 53.6392 22.7916 53.6276 22.8149 53.6242C22.9194 53.6081 23.0191 53.6337 23.1138 53.701C23.1748 53.7442 23.2127 53.8258 23.2275 53.946C23.2347 54.004 23.2668 54.1944 23.324 54.5173C23.3286 54.5431 23.336 54.544 23.3462 54.5199C23.4071 54.3789 23.4511 54.2492 23.4782 54.1307C23.5226 53.9397 23.6286 53.7886 23.7423 53.6261C23.755 53.6079 23.7583 53.588 23.7524 53.5664C23.7435 53.5339 23.7203 53.4953 23.6826 53.4509C23.6761 53.4433 23.6717 53.4342 23.6696 53.4243C23.6675 53.4145 23.6678 53.4042 23.6705 53.3944C23.6864 53.3379 23.7416 53.2713 23.7569 53.1989C23.8127 52.9332 23.8663 52.6672 23.9175 52.401C23.9327 52.3244 23.9524 52.2711 23.9765 52.241C24.0091 52.2008 24.0421 52.1545 24.0755 52.102C24.0854 52.0863 24.0899 52.0677 24.0885 52.0491C24.087 52.0304 24.0795 52.0127 24.0673 51.9986L23.9143 51.8246C23.8991 51.8073 23.8952 51.7876 23.9029 51.7656C23.9092 51.7457 23.9308 51.7131 23.9676 51.6679C23.9734 51.6607 23.9768 51.6519 23.9771 51.6426C23.9775 51.6333 23.9748 51.6241 23.9695 51.6164C23.9526 51.5923 23.9295 51.5836 23.9003 51.5904C23.7416 51.626 23.5804 51.6985 23.4166 51.8081C23.398 51.8208 23.3923 51.838 23.3995 51.8596C23.4312 51.9573 23.4507 52.0409 23.4579 52.1103C23.4693 52.2226 23.4077 52.3039 23.3328 52.3883C23.2668 52.4626 23.2567 52.5572 23.2675 52.6308C23.2954 52.8193 23.2935 53.2713 23.0808 53.362C22.8326 53.4674 22.6676 53.3881 22.4892 53.2122C22.4663 53.1893 22.4504 53.1603 22.4434 53.1287C22.4364 53.0971 22.4387 53.0642 22.4499 53.0339C22.5392 52.7935 22.5925 52.5265 22.6098 52.2328C22.6225 52.0208 22.6816 51.834 22.7869 51.6723C22.8373 51.5957 22.8654 51.5295 22.8714 51.4736C22.8987 51.2115 22.8949 50.9277 22.8942 50.6675C22.8942 50.4758 23.0047 50.246 23.0224 50.0638C23.0313 49.9754 23.0645 49.8886 23.1221 49.8036C23.1847 49.7109 23.241 49.5831 23.2909 49.4202C23.3221 49.3211 23.324 49.2215 23.2948 49.1155C23.211 48.8099 23.1714 48.5099 23.1761 48.2154C23.1777 48.1079 23.1693 48.0275 23.1507 47.9742C23.1094 47.8561 23.0637 47.7628 23.0707 47.6618C23.0853 47.4581 23.2103 47.333 23.3341 47.2105C23.3815 47.1636 23.4179 47.1052 23.4433 47.0353C23.4928 46.8995 23.5491 46.7994 23.6121 46.7351C23.8013 46.5402 23.7911 46.3187 23.9562 46.0978C24.0774 45.9347 24.113 45.7461 24.2253 45.5836C24.4056 45.3221 24.4392 45.0295 24.5808 44.7483C24.6409 44.6285 24.6834 44.4766 24.7084 44.2925C24.7266 44.1588 24.7541 44.0572 24.7909 43.9878C24.8398 43.8971 24.9172 43.7358 24.9299 43.5911C24.982 42.9987 24.9384 42.3916 24.7992 41.77C24.7886 41.7243 24.7839 41.6307 24.7852 41.4894C24.7856 41.417 24.8152 41.3307 24.8741 41.2304C24.9966 41.0209 25.0353 40.7848 25.0035 40.5195C25.001 40.5013 24.9845 40.3714 24.954 40.1297C24.9513 40.1082 24.9545 40.0863 24.9631 40.0665C24.9717 40.0466 24.9854 40.0294 25.0029 40.0167C25.1521 39.9063 25.2308 39.7603 25.2562 39.5699C25.2955 39.2749 25.3353 39.0849 25.3755 38.9998C25.4563 38.8276 25.5471 38.5961 25.6478 38.3054C25.6961 38.1658 25.7202 38.0494 25.7202 37.9563C25.7196 37.5564 25.6853 37.2904 25.8027 37.0041C25.8744 36.8296 25.9284 36.6683 25.917 36.4881C25.9064 36.3188 25.9028 36.1017 25.9062 35.8368C25.9066 35.7873 25.8937 35.6976 25.8675 35.5677C25.8442 35.4504 25.8571 35.3305 25.9062 35.2077C25.9223 35.1675 25.958 35.1206 26.0135 35.0668C26.1379 34.9475 26.1284 34.8631 26.1201 34.6847C26.1093 34.4651 26.2001 34.2213 26.2604 34.0112C26.2663 33.9905 26.2661 33.9697 26.2597 33.949C26.2286 33.8449 26.1868 33.7713 26.1823 33.6513C26.1755 33.463 26.1597 33.0855 26.1347 32.5189C26.1292 32.3957 26.1097 32.2764 26.0763 32.1609C26.0255 31.9861 25.9921 31.867 25.976 31.8035C25.9443 31.6797 25.8744 31.594 25.8497 31.4601C25.8135 31.2601 25.5837 31.2633 25.3723 31.2221C25.3405 31.2159 25.3116 31.1994 25.2902 31.1751C25.2687 31.1509 25.2559 31.1203 25.2536 31.0881C25.2473 30.9961 25.2092 30.9142 25.1178 30.8679C24.9672 30.7917 24.8059 30.6988 24.6341 30.5892C24.2183 30.3226 23.7651 30.2686 23.3151 30.0465C23.0806 29.9305 22.8441 29.8277 22.6054 29.738C22.4118 29.665 22.1846 29.5183 22.0557 29.4511C21.6736 29.2517 21.4863 29.1565 21.2038 28.8925C21.0215 28.7224 20.8454 28.578 20.6757 28.4596C20.491 28.3313 20.5113 28.0552 20.6548 27.9194C20.6633 27.9111 20.6687 27.8999 20.6698 27.888C20.671 27.876 20.6679 27.864 20.6611 27.854C20.4136 27.4922 20.1554 27.1373 19.8867 26.7895C19.7724 26.641 19.6004 26.4994 19.4773 26.3299C19.3852 26.203 19.356 26.0824 19.3002 25.9141C19.2816 25.857 19.2555 25.8022 19.2221 25.7497C19.1561 25.6461 19.0844 25.5246 19.0069 25.3854C18.9638 25.3084 18.8863 25.1759 18.7746 24.988C18.6586 24.7925 18.589 24.6552 18.5658 24.5761C18.4684 24.2464 18.3002 23.9781 18.0611 23.7712C17.9722 23.6946 17.8967 23.6328 17.8345 23.5858C17.7088 23.4912 17.6136 23.297 17.5292 23.1656C17.2613 22.7448 16.8068 22.487 16.3815 22.2547C16.3646 22.2454 16.3572 22.231 16.3593 22.2116L16.3879 21.9659C16.39 21.9447 16.3874 21.9242 16.3803 21.9043C16.3248 21.7516 16.2537 21.5933 16.167 21.4295C16.0887 21.2823 16.0895 21.1291 16.1695 20.97C16.2144 20.8815 16.3504 20.7531 16.5777 20.5847C16.8383 20.3917 17.0982 20.1968 17.3572 20C17.402 19.9662 17.416 19.916 17.3991 19.8496C17.3931 19.8276 17.379 19.8166 17.3565 19.8166C17.0679 19.8145 16.8077 19.7121 16.5758 19.5094C16.5617 19.497 16.5518 19.4806 16.5472 19.4624L16.4761 19.185C16.471 19.1643 16.4717 19.1435 16.478 19.1228C16.5263 18.9666 16.5417 18.8088 16.5243 18.6493C16.5218 18.6253 16.525 18.601 16.5337 18.5785C16.5425 18.556 16.5564 18.5359 16.5745 18.5198C16.718 18.3915 16.9293 18.196 17.0214 17.9536C17.0497 17.8778 17.0982 17.7686 17.1667 17.626C17.2226 17.5092 17.2169 17.3823 17.248 17.2775C17.2529 17.2609 17.2583 17.2456 17.2635 17.2342C17.2687 17.2228 17.2733 17.216 17.2765 17.2147L18.1373 16.8453C18.1538 16.8381 18.1673 16.8224 18.1779 16.7983C18.1872 16.7771 18.2139 16.7117 18.2579 16.6021C18.2799 16.5484 18.3108 16.5037 18.3506 16.4682C18.4052 16.4206 18.4788 16.3762 18.508 16.3127C18.5359 16.2513 18.5531 16.1728 18.5594 16.0772C18.5607 16.0556 18.5687 16.037 18.5835 16.0213C18.6534 15.946 18.7147 15.9009 18.7676 15.8861C18.9369 15.8383 19.0983 15.789 19.2519 15.7382C19.2967 15.7233 19.3364 15.6958 19.3662 15.6589L19.8086 15.1079C19.8159 15.0985 19.8196 15.0867 19.8187 15.0748C19.8179 15.063 19.8127 15.0519 19.8042 15.0438L19.6061 14.8559C19.5926 14.8432 19.5877 14.8246 19.5915 14.8C19.6061 14.708 19.6449 14.5544 19.643 14.4166C19.6379 13.9892 19.6262 13.5737 19.608 13.17C19.6038 13.0828 19.5765 13.0037 19.5262 12.9326C19.392 12.7438 19.3171 12.638 19.3014 12.6152C19.2477 12.5373 19.2276 12.4743 19.2411 12.426C19.2926 12.2407 19.4849 12.1258 19.6785 11.9912C19.7015 11.9753 19.7177 11.9513 19.724 11.924C19.7304 11.8967 19.7264 11.8679 19.7128 11.8433C19.6552 11.7384 19.6374 11.5987 19.6595 11.4244C19.6624 11.4015 19.6753 11.3878 19.6982 11.3831C19.8141 11.3581 19.9049 11.3873 19.9705 11.4707C20.0065 11.5164 20.0352 11.5426 20.0568 11.5494C20.0983 11.5629 20.137 11.5558 20.173 11.5278C20.1816 11.5212 20.1879 11.5118 20.1908 11.5012L20.2472 11.2885C20.2544 11.2627 20.2699 11.2441 20.2936 11.2327C20.5263 11.1188 20.7716 10.9479 21.0293 10.7198C21.1198 10.6398 21.174 10.5528 21.1918 10.4589C21.2447 10.1808 21.3524 9.94831 21.5149 9.76127C21.6298 9.62987 21.8678 9.62353 22.0766 9.6102C22.3502 9.59306 22.5216 9.43563 22.7901 9.39311C23.0872 9.34571 23.486 9.24499 23.9867 9.09096C24.1593 9.03764 24.259 8.9932 24.3834 8.84975C24.6557 8.53681 25.2835 8.31019 25.4758 8.85419C25.483 8.87535 25.4815 8.89587 25.4714 8.91576C25.4354 8.9877 25.4096 9.03404 25.3939 9.05477C25.3235 9.14872 25.1553 9.17665 25.055 9.22172C24.9674 9.26065 24.9454 9.32265 24.9889 9.4077C25.0169 9.46356 25.0427 9.50313 25.0664 9.52641C25.1421 9.60131 25.2225 9.62099 25.3076 9.58544C25.6918 9.42463 26.0168 9.31778 26.2826 9.26488C26.3059 9.26065 26.3099 9.24944 26.2947 9.23124C26.1533 9.06493 26.1738 8.91428 26.3562 8.77929C26.4988 8.67349 26.6351 8.68153 26.765 8.80341C26.8209 8.85631 26.8626 8.91068 26.8901 8.96654C26.958 9.10556 27.1268 9.16522 27.2601 9.19823C27.4785 9.25346 27.6594 9.31312 27.8955 9.39882C28.0866 9.46864 28.1951 9.64511 28.2872 9.81205C28.3006 9.83604 28.3206 9.85564 28.3448 9.86848C28.369 9.88132 28.3964 9.88686 28.4237 9.88441C28.9344 9.83744 29.4647 9.82898 30.0144 9.85902C30.0812 9.86283 30.1741 9.91996 30.293 10.0304C30.3663 10.099 30.482 10.1493 30.6403 10.1815C30.7202 10.198 30.8417 10.1878 31.0046 10.151C31.1341 10.1218 31.326 10.0848 31.5804 10.0399C31.7041 10.0183 31.7898 9.89394 31.9034 9.85775C32.0283 9.8184 32.1309 9.79555 32.2113 9.7892C32.4936 9.76846 32.8789 9.76317 33.3672 9.77333C33.5327 9.77672 33.6804 9.82453 33.8103 9.91679C33.8141 9.91941 33.817 9.92304 33.8188 9.92725C33.8207 9.93146 33.8213 9.9361 33.8206 9.94064C33.82 9.94519 33.8181 9.94946 33.8151 9.95298C33.8122 9.9565 33.8083 9.95914 33.8039 9.96059L33.2822 10.1409C33.2791 10.1419 33.2765 10.1438 33.2745 10.1463C33.2725 10.1488 33.2712 10.1517 33.2708 10.1549C33.2704 10.1581 33.2709 10.1613 33.2722 10.1642C33.2736 10.1671 33.2757 10.1696 33.2784 10.1713C33.432 10.2653 33.5335 10.3298 33.583 10.3649C33.6613 10.4204 33.7527 10.4542 33.8573 10.4665C34.0447 10.4889 34.283 10.5522 34.572 10.6563C34.6998 10.702 34.8115 10.7809 34.9072 10.8931C35.003 11.0054 35.0341 11.185 35.0843 11.3748C35.0876 11.3866 35.0947 11.3969 35.1045 11.404C35.1143 11.4112 35.1262 11.4148 35.1382 11.4142C35.3312 11.4047 35.441 11.3793 35.5787 11.4364C35.6845 11.4804 35.7931 11.5164 35.9044 11.5443C35.9928 11.5668 36.1189 11.6237 36.2827 11.7151C36.6248 11.9061 36.8464 11.9829 37.0565 12.3397C37.1098 12.4311 37.1111 12.4711 37.1117 12.5606C37.1121 12.5855 37.1214 12.6094 37.1379 12.6281C37.1545 12.6467 37.1771 12.6588 37.2018 12.6621C37.4976 12.7015 37.7983 12.8344 38.1038 13.0608C38.1724 13.1116 38.2426 13.1672 38.3146 13.2277C38.3628 13.2683 38.431 13.2961 38.519 13.3109C38.7615 13.3511 38.9855 13.3877 39.1912 13.4207C39.367 13.4493 39.4902 13.3452 39.6546 13.342C40.0748 13.3352 40.3353 13.3335 40.436 13.3369C40.6061 13.3424 40.7614 13.3735 40.9019 13.4302C41.1676 13.5377 41.466 13.6395 41.7969 13.7355C42.0673 13.8142 42.291 13.8991 42.4679 13.9901C42.7319 14.1259 42.9429 14.2436 43.1007 14.343C43.3476 14.4979 43.54 14.5849 43.8117 14.6978C43.8235 14.7028 43.8339 14.7104 43.8422 14.7201C43.8505 14.7298 43.8563 14.7413 43.8593 14.7537C43.8808 14.8417 43.9229 14.952 43.9856 15.0844C44.0713 15.2672 44.1563 15.5548 44.1919 15.7078C44.2306 15.8715 44.3195 16.0061 44.3975 16.1749C44.45 16.2879 44.5052 16.3582 44.5632 16.3857C44.6525 16.4276 44.7378 16.4619 44.819 16.4885C44.8399 16.4951 44.8573 16.5091 44.8679 16.5279C44.9136 16.6053 44.9394 16.6965 44.9453 16.8015C44.9549 16.9709 44.7479 17.2255 44.6603 17.3308C44.6558 17.3364 44.6527 17.343 44.6516 17.35C44.6504 17.3571 44.6511 17.3643 44.6536 17.371C44.6561 17.3777 44.6603 17.3836 44.6659 17.3882C44.6714 17.3927 44.678 17.3957 44.6851 17.3969C44.8269 17.4197 44.9417 17.4713 45.0298 17.5517C45.1144 17.6296 45.1925 17.6836 45.264 17.7136C45.4853 17.8059 45.7227 17.8596 45.9762 17.8748C46.0418 17.8787 46.1283 17.9163 46.2358 17.9878C46.2544 18.0001 46.265 18.0172 46.2676 18.0392L46.3145 18.481C46.3149 18.4849 46.3163 18.4886 46.3186 18.4917C46.321 18.4948 46.3242 18.4971 46.3279 18.4985C46.3316 18.4999 46.3356 18.5003 46.3395 18.4995C46.3434 18.4988 46.3471 18.497 46.3501 18.4944C46.4292 18.4216 46.5054 18.3594 46.5786 18.3078C46.747 18.1888 46.9294 18.1285 47.1258 18.1268C47.229 18.1256 47.3767 18.1681 47.5688 18.2544C47.8794 18.3937 48.2341 18.498 48.6327 18.5674C48.744 18.5864 48.8208 18.6099 48.8631 18.6378C48.9336 18.6835 49.0364 18.7661 49.1551 18.7902C49.277 18.8147 49.397 18.8424 49.515 18.8733C49.7118 18.9241 49.8508 19.0401 49.9321 19.2212C49.9807 19.3287 50.0349 19.4376 50.0946 19.5481C50.1574 19.6642 50.2552 19.635 50.3504 19.5684C50.4964 19.466 50.6625 19.4417 50.8487 19.4954C51.0911 19.5646 51.2657 19.6535 51.4917 19.675C51.5624 19.6818 51.7818 19.7275 52.1499 19.8121C52.2303 19.8303 52.3797 19.8439 52.5981 19.8528C52.9032 19.8655 53.2083 19.8722 53.5134 19.8731C53.8426 19.8748 54.0748 19.8947 54.2097 19.9328C54.4577 20.003 54.6788 20.0997 54.8731 20.2228C55.094 20.3633 55.2305 20.4486 55.2825 20.4787C55.431 20.5654 55.5624 20.6585 55.6767 20.7579C55.8447 20.9048 55.9882 21.0104 56.1071 21.0747C56.2793 21.1674 56.478 21.2651 56.7031 21.368C56.8356 21.428 56.9837 21.4537 57.1474 21.4448C57.5226 21.4238 57.9104 21.5273 58.2729 21.6422C58.2936 21.6489 58.308 21.6627 58.316 21.6834C58.3491 21.7672 58.3522 21.8516 58.3916 21.9431C58.4762 22.1419 58.5401 22.2924 58.5833 22.3944C58.6375 22.523 58.6641 22.6625 58.6633 22.8127C58.6628 22.9655 58.666 23.1402 58.6728 23.337C58.6848 23.6937 58.5465 24.0092 58.3979 24.3222C58.3425 24.439 58.2443 24.5746 58.1034 24.729C57.7103 25.159 57.2702 25.5415 56.7831 25.8767C56.5893 26.0096 56.3745 26.2184 56.1388 26.5032C56.0779 26.5768 56.0231 26.6769 55.9744 26.8035C55.9338 26.9097 55.8752 27.0091 55.7986 27.1018C55.6983 27.2224 55.576 27.317 55.4317 27.3855C55.3682 27.4156 55.2302 27.4882 55.0178 27.6033C54.8985 27.6676 54.8382 27.7634 54.8369 27.8908C54.8322 28.3986 54.831 28.9073 54.8331 29.4168C54.8356 29.8694 54.7931 30.2071 54.7233 30.607C54.6928 30.7822 54.631 30.9533 54.5379 31.1205C54.4038 31.3609 54.3363 31.4821 54.3354 31.4842C54.2394 31.75 54.2106 31.9918 54.2491 32.2098C54.2525 32.2309 54.2478 32.25 54.2351 32.2669C54.0786 32.4768 53.9688 32.6238 53.9057 32.708C53.8828 32.7385 53.7806 32.8911 53.5991 33.1657C53.4624 33.3722 53.3058 33.5516 53.1294 33.704C53.1133 33.718 53.1025 33.7353 53.097 33.756C53.0208 34.0347 53.0005 34.2886 52.8393 34.3895C52.5465 34.5728 52.2716 34.7793 52.0147 35.0091C51.9491 35.0679 51.8266 35.1102 51.6472 35.136C51.4724 35.1606 50.9674 35.1832 50.132 35.2039C50.1011 35.2044 50.0499 35.2126 49.9784 35.2287C49.9319 35.2389 49.8838 35.257 49.8343 35.2833C49.5326 35.4428 49.2662 35.57 49.0351 35.6648C48.9399 35.7037 48.752 35.7611 48.4715 35.8368C47.9326 35.9828 47.4857 36.3529 47.1162 36.5928C46.8052 36.7953 46.4929 37.0695 46.2923 37.286C46.2104 37.3729 46.1393 37.5297 46.1406 37.677C46.1415 37.8141 46.1385 37.9728 46.1317 38.1531C46.1288 38.2242 46.1423 38.3325 46.1723 38.4781C46.1986 38.6037 46.1848 38.7607 46.1311 38.9491C46.1019 39.0502 46.1292 39.1109 46.213 39.1312C46.2887 39.1499 46.293 39.1786 46.2257 39.2176C45.9832 39.3578 45.9597 39.7533 45.7705 39.8384C45.589 39.9196 45.4328 39.978 45.3097 40.1323C45.1734 40.3032 45.0731 40.4243 45.0088 40.4953C44.9166 40.5973 44.8302 40.7277 44.7498 40.8864C44.5869 41.2097 44.4849 41.4301 44.4439 41.5478C44.4363 41.5685 44.4234 41.585 44.4052 41.5973C44.2052 41.73 44.1259 41.9496 43.9627 42.0969C43.6949 42.3385 43.5006 42.4879 43.38 42.545C43.0694 42.6914 42.8218 42.9062 42.6373 43.1893C42.5146 43.3772 42.4524 43.4724 42.4507 43.4749C42.0119 44.0475 41.5506 44.5418 41.0669 44.9577C40.9002 45.1012 40.7445 45.1926 40.5997 45.232C40.4609 45.2692 40.3137 45.2819 40.1579 45.2701C39.9392 45.2527 39.8285 45.244 39.826 45.244C39.327 45.222 39.0067 45.199 38.8649 45.1748C38.7676 45.1583 38.5645 45.0959 38.2556 44.9876C38.1582 44.9533 38.0774 44.9324 38.0131 44.9247C37.8702 44.9076 37.6779 44.9152 37.53 44.8486C37.4826 44.8274 37.4126 44.7908 37.3199 44.7388C37.2433 44.696 37.1898 44.6945 37.1593 44.7343C37.1504 44.746 37.1447 44.7598 37.1425 44.7745C37.1403 44.7893 37.1418 44.8046 37.1467 44.8194C37.1516 44.8342 37.16 44.8482 37.1711 44.8601C37.1821 44.8721 37.1957 44.8818 37.2107 44.8886C37.3345 44.9438 37.4227 44.9552 37.5249 45.0326C37.6062 45.094 37.7056 45.1539 37.8233 45.2123C37.8948 45.2483 37.9581 45.2944 38.0131 45.3507C38.1445 45.4865 38.2105 45.5163 38.2238 45.6693C38.228 45.7176 38.2234 45.7673 38.2098 45.8185C38.1933 45.8811 38.1735 45.9793 38.1502 46.113C38.1468 46.1333 38.1514 46.1513 38.1641 46.167C38.2831 46.3151 38.4274 46.4258 38.5971 46.499C38.778 46.5764 38.7634 46.824 38.764 46.9846C38.764 47.0057 38.7576 47.0248 38.745 47.0417C38.5723 47.2647 38.3979 47.4847 38.2219 47.7018C37.9902 47.9881 37.8874 48.2668 37.5541 48.4477C37.5199 48.4659 37.3861 48.5179 37.153 48.6038C36.9619 48.6743 36.6813 48.7035 36.4401 48.7784C35.9844 48.92 35.5413 48.8692 35.1103 48.9822C35.0701 48.9927 34.9527 49.015 34.758 49.0488C34.6361 49.07 34.5176 49.0757 34.4025 49.066C34.2574 49.0541 34.0329 49.0401 33.729 49.0241C33.7162 49.0234 33.7035 49.0261 33.6921 49.0321C33.6808 49.038 33.6713 49.047 33.6646 49.0579C33.6579 49.0688 33.6542 49.0814 33.6541 49.0942C33.6539 49.107 33.6572 49.1196 33.6637 49.1307L33.842 49.4398C33.8461 49.4463 33.8475 49.4543 33.8458 49.462C33.8039 49.6559 33.7314 49.8336 33.6281 49.9952C33.524 50.159 33.5672 50.4428 33.5907 50.696C33.5966 50.7578 33.5769 50.8046 33.5316 50.8363C33.3374 50.9715 33.1654 51.0483 32.9242 51.0877C32.7388 51.1177 32.6451 51.133 32.643 51.1334C32.4005 51.1873 32.0336 51.122 31.8381 51.0407C31.6231 50.951 31.4856 50.8977 31.4255 50.8807C31.3112 50.8486 31.2175 50.8784 31.1443 50.9702C31.0744 51.0578 31.0632 51.1433 31.1106 51.2267C31.1557 51.3067 31.2135 51.3873 31.2014 51.5009C31.1912 51.5987 31.1513 51.8596 31.2509 51.9427C31.3131 51.9948 31.4115 52.0542 31.5461 52.1211C31.5718 52.1338 31.6003 52.1398 31.629 52.1387C31.6577 52.1376 31.6857 52.1294 31.7105 52.1147C31.8774 52.017 32.3484 51.8246 32.396 52.1268C32.4185 52.2656 32.421 52.4133 32.4036 52.5699C32.3943 52.6549 32.3448 52.7156 32.2551 52.752C32.2052 52.7723 32.1114 52.802 31.9739 52.8409C31.888 52.8654 31.8027 52.9103 31.7181 52.9755C31.5137 53.1333 31.3844 53.23 31.3303 53.2656C31.2262 53.3337 31.1513 53.4086 31.1055 53.4903C31.037 53.6126 31.0078 53.7194 31.018 53.8108C31.0408 54.0156 31.0112 54.2179 30.9291 54.4177C30.916 54.4507 30.8637 54.5235 30.7723 54.636C30.6729 54.7587 30.6089 54.8872 30.5806 55.0213C30.5628 55.1051 30.4998 55.1426 30.3914 55.1337C30.2103 55.1189 30.0341 55.1316 29.8627 55.1718C29.7459 55.1993 29.6009 55.29 29.4279 55.4441C29.3001 55.5579 29.1706 55.677 29.0394 55.8014C28.8769 55.9557 28.7652 56.0884 28.8788 56.2991C28.9977 56.5204 29.1384 56.6755 29.3009 56.7644C29.3855 56.8109 29.463 56.8632 29.5332 56.9212C29.751 57.1002 29.8576 57.1249 30.1686 57.1573C30.3028 57.1708 30.4268 57.232 30.5406 57.3408C30.6316 57.4275 30.6532 57.5308 30.6054 57.6505C30.5068 57.8989 30.4134 58.1454 30.3254 58.39C30.3183 58.4099 30.3067 58.4279 30.2915 58.4424C30.2763 58.457 30.2579 58.4677 30.2378 58.4738C29.9716 58.5546 29.7457 58.6685 29.5599 58.8153C29.3445 58.9854 29.1534 59.127 28.9867 59.24C28.9186 59.2861 28.8775 59.3466 28.8636 59.4215C28.8039 59.7393 28.7277 60.04 28.635 60.3235C28.6283 60.3447 28.616 60.3618 28.5982 60.3749C28.4154 60.5091 28.2464 60.6024 28.091 60.6549C27.8917 60.7226 27.7593 60.7808 27.6937 60.8294C27.5422 60.9428 27.444 61.1066 27.3992 61.3207C27.3452 61.5759 27.3312 61.6343 27.4201 61.873C27.553 62.2289 27.6359 62.4593 27.6689 62.5642C27.6985 62.6578 27.725 62.7187 27.7483 62.7471C27.863 62.888 27.955 62.9976 28.0244 63.0759C28.0324 63.0848 28.0369 63.0962 28.0373 63.1082C28.0376 63.1202 28.0337 63.1319 28.0263 63.1412C27.9408 63.2492 27.8276 63.2923 27.6867 63.2707C27.5081 63.2428 27.345 63.2386 27.1973 63.258C27.1503 63.2644 27.1425 63.2851 27.1738 63.3202C27.1878 63.3355 27.203 63.3478 27.2195 63.3571C27.2658 63.383 27.3078 63.397 27.3363 63.3958C27.4988 63.3903 27.659 63.4144 27.8168 63.4681C27.8591 63.4824 27.894 63.5127 27.9139 63.5526C27.9618 63.6469 28.0297 63.739 28.1177 63.8287C28.1704 63.8826 28.2091 63.9601 28.2351 64.0521C28.2466 64.0932 28.2191 64.1387 28.1526 64.1886C28.1293 64.2064 28.1253 64.228 28.1406 64.2533C28.2908 64.4988 28.4897 64.7442 28.7372 64.9897C28.8337 65.0857 28.9846 65.185 29.1898 65.2874C29.4166 65.4004 29.6843 65.5616 29.9928 65.7711C30.1147 65.854 30.2226 65.9042 30.3165 65.9215C30.3952 65.9355 30.5326 65.9626 30.7285 66.0028C30.8571 66.029 30.9545 66.0823 31.0205 66.1627C31.0345 66.1805 31.0359 66.1991 31.0249 66.2186C30.9132 66.4192 30.7391 66.5241 30.5025 66.5334C30.1538 66.5466 29.8443 66.5804 29.5739 66.635C29.521 66.646 29.485 66.6562 29.4659 66.6655C29.4342 66.6807 29.4232 66.7055 29.4329 66.7397C29.4795 66.9022 29.4444 66.9847 29.3276 66.9873C29.2751 66.9886 29.1539 66.9879 28.9638 66.9854C28.7819 66.9824 28.6073 66.9302 28.4402 66.8286C28.3847 66.7952 28.3295 66.7998 28.2745 66.8426C28.2668 66.8483 28.2616 66.8566 28.2597 66.866C28.2578 66.8754 28.2595 66.8851 28.2643 66.8933C28.3462 67.0336 28.4529 67.0438 28.609 67.052C28.6615 67.055 28.7169 67.0742 28.7753 67.1098C28.8557 67.1585 28.9361 67.2073 29.0165 67.2564C29.0555 67.2801 29.1173 67.3758 29.2019 67.5433C29.212 67.5637 29.2101 67.5827 29.1962 67.6005C29.1054 67.7204 28.8096 67.6614 28.6947 67.6367C28.6177 67.6202 28.5309 67.5774 28.4345 67.5084C28.415 67.4945 28.3291 67.4363 28.1767 67.3339C27.9698 67.1949 27.7121 67.1999 27.5071 67.0742C27.4893 67.0632 27.4726 67.0647 27.4569 67.0787L27.2735 67.2399C27.2547 67.2565 27.2301 67.2651 27.2051 67.2638C27.18 67.2625 27.1565 67.2514 27.1395 67.2329C26.9872 67.0666 26.8336 67.012 26.5835 66.8749C26.5649 66.8648 26.5522 66.8498 26.5454 66.8299C26.4832 66.6471 26.4743 66.4268 26.2344 66.3754C25.9855 66.3216 25.7701 66.3386 25.5882 66.4262C25.4997 66.4689 25.4322 66.4871 25.3857 66.4807C25.2875 66.4672 25.2162 66.4412 25.1718 66.4027C25.157 66.3899 25.1457 66.3737 25.1391 66.3554C25.1324 66.3371 25.1304 66.3173 25.1335 66.298C25.1365 66.2787 25.1444 66.2605 25.1565 66.2451C25.1685 66.2296 25.1842 66.2174 25.2022 66.2097L25.2987 66.1678C25.3249 66.1568 25.3294 66.1401 25.312 66.1177C25.2613 66.0521 25.2443 65.9535 25.2613 65.8219C25.2761 65.7046 25.2247 65.6401 25.107 65.6283C24.9297 65.6105 24.7388 65.6484 24.5345 65.7419C24.4359 65.7872 24.3643 65.8028 24.3199 65.7888C24.2217 65.758 24.1547 65.7036 24.1187 65.6257C24.0734 65.5284 24.0156 65.4727 23.9454 65.4588C23.719 65.4122 23.5237 65.3665 23.3595 65.3217C23.3358 65.3153 23.3295 65.3013 23.3405 65.2798C23.3881 65.1852 23.4128 65.0728 23.3468 64.9725C23.2507 64.8278 23.1304 64.7322 22.9856 64.6856C22.9636 64.6789 22.9475 64.6649 22.9374 64.6437C22.8824 64.5282 22.919 64.4415 23.0472 64.3835C23.0506 64.3818 23.0514 64.3795 23.0497 64.3765L23.0389 64.3575C23.0326 64.3465 23.0239 64.3445 23.0129 64.3517C22.9541 64.389 22.8946 64.4097 22.8346 64.4139C22.7931 64.4165 22.7417 64.3907 22.6803 64.3365C22.4996 64.1778 22.3547 64.0054 22.2455 63.8192C22.2412 63.8118 22.2387 63.8035 22.2382 63.795C22.2377 63.7864 22.2392 63.7779 22.2426 63.7701C22.246 63.7622 22.2512 63.7553 22.2577 63.7498C22.2643 63.7443 22.2721 63.7405 22.2804 63.7386C22.5191 63.6814 22.6111 63.8319 22.818 63.8909C22.9979 63.9425 23.1691 64.0075 23.3316 64.0858C23.3654 64.1023 23.43 64.1025 23.5252 64.0864C23.5451 64.083 23.5487 64.0735 23.536 64.0578C23.3904 63.8831 23.201 63.74 22.9679 63.6287C22.9479 63.6194 22.9307 63.6052 22.9179 63.5872C22.9051 63.5693 22.8972 63.5484 22.8949 63.5265L22.8771 63.3564C22.8767 63.3544 22.8759 63.3525 22.8748 63.3509C22.8737 63.3492 22.8723 63.3479 22.8707 63.3469L22.5356 63.1533C22.5136 63.1406 22.492 63.1415 22.4708 63.1558C22.349 63.2403 22.2004 63.359 22.0716 63.1863C21.9747 63.0564 21.8989 62.9148 21.8443 62.7617C21.8407 62.7518 21.839 62.7414 21.8395 62.731C21.8399 62.7207 21.8424 62.7106 21.8469 62.7014C21.9116 62.5617 21.9899 62.4701 22.0817 62.4265C22.1642 62.3876 22.4006 62.3215 22.7908 62.2285C22.8034 62.2255 22.8047 62.2202 22.7946 62.2126C22.7497 62.1787 22.7152 62.1542 22.6911 62.1389C22.5667 62.0607 22.5138 61.9458 22.5324 61.7943C22.5426 61.7134 22.5288 61.7084 22.4911 61.779L22.3521 62.0406C22.3428 62.0575 22.3291 62.0693 22.3109 62.0761L21.5815 62.3275C21.5779 62.3287 21.574 62.329 21.5703 62.3284C21.5665 62.3279 21.5629 62.3264 21.5598 62.3242C21.5567 62.3219 21.5542 62.319 21.5524 62.3156C21.5507 62.3122 21.5498 62.3084 21.5498 62.3046C21.5502 62.2433 21.5549 62.1918 21.5638 62.1504C21.5777 62.0856 21.6266 61.9817 21.7104 61.8387C21.7739 61.7308 21.8945 61.6749 21.9903 61.5842C22.0054 61.5699 22.0145 61.5504 22.0157 61.5296C22.0221 61.4439 22.0017 61.3753 22.0335 61.2846C22.0885 61.1305 22.1382 60.9304 22.1826 60.6841C22.186 60.6646 22.1829 60.6464 22.1731 60.6295C22.123 60.5431 22.0436 60.4727 22.0176 60.3654C21.9918 60.2592 21.97 60.1263 21.9522 59.9668C21.9501 59.949 21.9431 59.9336 21.9313 59.9204L21.6659 59.6177C21.6499 59.5995 21.6298 59.5893 21.6056 59.5872C21.4601 59.5745 21.3302 59.5419 21.2159 59.4894C21.193 59.4789 21.1875 59.4624 21.1994 59.4399C21.2559 59.3358 21.2464 59.1892 21.2984 59.0597C21.3966 58.8147 21.4609 58.5394 21.4914 58.2339C21.5214 57.9372 21.681 57.7984 21.97 57.8175C22.1287 57.8283 22.1388 57.8962 22.2277 57.9908C22.243 58.0068 22.2482 58.0257 22.2436 58.0472C22.2106 58.1996 22.2182 58.3507 22.2664 58.5005C22.2791 58.5402 22.2855 58.5392 22.2855 58.4973ZM25.1083 10.1472L24.7554 10.3935C24.7538 10.3946 24.7524 10.396 24.7514 10.3976C24.7503 10.3992 24.7496 10.401 24.7492 10.4029C24.7489 10.4047 24.7489 10.4067 24.7493 10.4086C24.7497 10.4104 24.7505 10.4122 24.7515 10.4138L25.0543 10.8474C25.0875 10.8948 25.139 10.9266 25.1976 10.9356C25.2561 10.9447 25.3169 10.9303 25.3666 10.8956L25.3685 10.8943C25.4182 10.8596 25.4526 10.8075 25.4643 10.7494C25.476 10.6913 25.4639 10.632 25.4307 10.5846L25.1286 10.151C25.1275 10.1494 25.1261 10.1481 25.1245 10.147C25.1229 10.146 25.1211 10.1453 25.1192 10.1449C25.1173 10.1445 25.1154 10.1446 25.1135 10.145C25.1116 10.1454 25.1099 10.1461 25.1083 10.1472ZM44.4393 17.5728C44.4351 17.5579 44.4185 17.5472 44.3932 17.5429C44.3679 17.5386 44.3359 17.5412 44.3043 17.5501C44.2886 17.5545 44.2736 17.5603 44.2599 17.5672C44.2462 17.5741 44.2343 17.5819 44.2247 17.5903C44.2151 17.5986 44.208 17.6073 44.204 17.6158C44.1999 17.6243 44.1989 17.6325 44.2009 17.6398C44.2051 17.6547 44.2217 17.6655 44.247 17.6698C44.2723 17.674 44.3043 17.6714 44.3359 17.6626C44.3516 17.6582 44.3666 17.6523 44.3803 17.6455C44.394 17.6386 44.4059 17.6307 44.4155 17.6224C44.4251 17.6141 44.4322 17.6054 44.4362 17.5969C44.4403 17.5884 44.4413 17.5802 44.4393 17.5728ZM46.1755 18.6608C46.1736 18.657 46.1703 18.6539 46.1658 18.6518C46.1613 18.6496 46.1557 18.6484 46.1493 18.6483C46.1429 18.6481 46.1358 18.649 46.1285 18.6508C46.1211 18.6526 46.1136 18.6554 46.1065 18.659C46.092 18.6662 46.0797 18.6762 46.0722 18.6867C46.0646 18.6972 46.0626 18.7075 46.0664 18.7152C46.0683 18.719 46.0716 18.722 46.0761 18.7242C46.0806 18.7263 46.0862 18.7275 46.0926 18.7277C46.099 18.7279 46.1061 18.727 46.1134 18.7251C46.1207 18.7233 46.1282 18.7205 46.1354 18.7169C46.1498 18.7097 46.1622 18.6998 46.1697 18.6892C46.1772 18.6787 46.1793 18.6685 46.1755 18.6608ZM31.5397 52.7895C31.6265 52.8145 31.7069 52.8236 31.7809 52.8168C31.8029 52.8147 31.8072 52.8047 31.7936 52.7869C31.7348 52.712 31.6696 52.6528 31.5981 52.6092C31.5964 52.6084 31.5945 52.6075 31.5924 52.6067C31.5903 52.6063 31.5884 52.606 31.5867 52.606C31.5029 52.6048 31.4162 52.62 31.3264 52.6517C31.3057 52.6598 31.304 52.6706 31.3214 52.6841C31.3802 52.729 31.453 52.7641 31.5397 52.7895ZM23.3931 54.9636C23.4194 54.9166 23.3976 54.8559 23.3278 54.7814C23.3091 54.7615 23.2956 54.7645 23.2871 54.7903C23.2609 54.8732 23.2571 54.9813 23.2757 55.1146C23.2795 55.1409 23.2901 55.1407 23.3075 55.114C23.3125 55.1064 23.3411 55.0562 23.3931 54.9636ZM23.1119 56.136C23.1187 56.1283 23.1238 56.1205 23.1272 56.1125C23.1356 56.0917 23.1304 56.0757 23.1113 56.0642C23.0436 56.024 23.0028 56.0122 22.9888 56.0287C22.9744 56.0452 22.992 56.0839 23.0415 56.1449C23.0555 56.1622 23.0722 56.1652 23.0916 56.1537C23.0988 56.1491 23.1056 56.1432 23.1119 56.136ZM22.4245 58.7468L22.4518 58.9943C22.4521 58.9967 22.4533 58.9989 22.4552 59.0005C22.4571 59.002 22.4595 59.0028 22.4619 59.0026L22.4664 59.0019C22.4868 58.9997 22.505 58.9845 22.5169 58.9596C22.5288 58.9347 22.5334 58.9022 22.5299 58.8693L22.528 58.8515C22.5243 58.8187 22.5128 58.7882 22.4959 58.7665C22.479 58.7449 22.4582 58.7339 22.4378 58.736H22.4334C22.4321 58.736 22.4308 58.7364 22.4296 58.737C22.4284 58.7376 22.4274 58.7384 22.4266 58.7394C22.4257 58.7404 22.4251 58.7416 22.4248 58.7429C22.4244 58.7441 22.4243 58.7455 22.4245 58.7468ZM23.1351 62.6529C23.1406 62.6509 23.1449 62.6459 23.1479 62.6381C23.1509 62.6303 23.1524 62.6199 23.1524 62.6074C23.1523 62.5949 23.1508 62.5806 23.1478 62.5653C23.1448 62.5501 23.1404 62.5341 23.1348 62.5184C23.1293 62.5027 23.1227 62.4875 23.1155 62.4737C23.1083 62.4599 23.1005 62.4478 23.0927 62.438C23.0849 62.4283 23.0772 62.4211 23.07 62.4169C23.0628 62.4126 23.0562 62.4115 23.0507 62.4134C23.0452 62.4153 23.0409 62.4203 23.0379 62.4282C23.0349 62.436 23.0334 62.4464 23.0334 62.4589C23.0335 62.4714 23.035 62.4857 23.038 62.5009C23.0411 62.5162 23.0455 62.5322 23.051 62.5479C23.0565 62.5636 23.0631 62.5788 23.0703 62.5926C23.0775 62.6064 23.0853 62.6185 23.0931 62.6282C23.1009 62.638 23.1086 62.6452 23.1158 62.6494C23.123 62.6536 23.1296 62.6548 23.1351 62.6529ZM24.4373 63.6006C24.4373 63.5968 24.4341 63.593 24.4279 63.5894C24.4216 63.5858 24.4124 63.5826 24.4008 63.5798C24.3892 63.5771 24.3754 63.5749 24.3602 63.5734C24.3451 63.5718 24.3288 63.571 24.3124 63.571C24.2792 63.5709 24.2474 63.5738 24.2239 63.5792C24.2005 63.5846 24.1873 63.592 24.1872 63.5997C24.1872 63.6036 24.1904 63.6074 24.1967 63.611C24.203 63.6145 24.2122 63.6178 24.2238 63.6205C24.2354 63.6233 24.2492 63.6255 24.2643 63.627C24.2795 63.6285 24.2958 63.6293 24.3122 63.6294C24.3453 63.6295 24.3772 63.6265 24.4006 63.6211C24.4241 63.6157 24.4373 63.6084 24.4373 63.6006ZM26.002 64.0191L26.1372 63.8528C26.1398 63.8498 26.1417 63.8462 26.1429 63.8424C26.144 63.8386 26.1444 63.8346 26.144 63.8306C26.1436 63.8266 26.1424 63.8228 26.1405 63.8193C26.1385 63.8158 26.1359 63.8128 26.1328 63.8103L26.1245 63.8039C26.1098 63.792 26.093 63.7828 26.0751 63.7769C26.0572 63.771 26.0387 63.7685 26.0204 63.7697C26.0022 63.7708 25.9847 63.7755 25.9689 63.7834C25.9531 63.7914 25.9394 63.8024 25.9284 63.816L25.9227 63.823C25.9008 63.8503 25.8915 63.886 25.897 63.9223C25.9025 63.9586 25.9222 63.9925 25.9519 64.0166L25.9601 64.0236C25.9663 64.0285 25.9742 64.0308 25.982 64.03C25.9899 64.0292 25.9971 64.0253 26.002 64.0191ZM24.9566 64.1613L24.8195 64.2299C24.8144 64.2324 24.8142 64.2364 24.8188 64.2419V64.2426C24.8226 64.2472 24.8267 64.2485 24.8309 64.2464C24.9388 64.1947 25.0545 64.1509 25.1781 64.115C25.217 64.104 25.242 64.0578 25.253 63.9766C25.256 63.9533 25.2458 63.9417 25.2225 63.9417C25.1121 63.9408 25.0366 63.9992 24.9959 64.1169C24.9887 64.1372 24.9756 64.152 24.9566 64.1613ZM25.9785 64.2984C25.9375 64.262 25.9276 64.2115 25.9487 64.1467C25.958 64.1175 25.9481 64.108 25.9189 64.1181L25.8998 64.1251C25.8911 64.128 25.8832 64.1331 25.8769 64.1398C25.8706 64.1466 25.866 64.1549 25.8637 64.1638L25.6542 64.9478C25.6472 64.9737 25.6316 64.9965 25.61 65.0124C25.5885 65.0283 25.5622 65.0364 25.5355 65.0354C25.3611 65.0278 25.2084 65.0438 25.0772 65.0836C25.0501 65.0917 25.0492 65.102 25.0746 65.1147C25.2689 65.2121 25.3855 65.262 25.4244 65.2645C25.479 65.2679 25.5304 65.2436 25.5786 65.1915C25.6548 65.1103 25.7086 65.0072 25.7399 64.8824C25.7634 64.7872 25.8503 64.6913 25.9538 64.7148C26.03 64.7322 26.1082 64.7582 26.1887 64.7929C26.2098 64.8022 26.2217 64.8181 26.2242 64.8405L26.2782 65.3432C26.2788 65.3487 26.2807 65.3539 26.2839 65.3584C26.287 65.3629 26.2913 65.3666 26.2962 65.3691C26.3011 65.3715 26.3066 65.3727 26.3121 65.3725C26.3176 65.3723 26.3229 65.3708 26.3277 65.368L26.3499 65.3553C26.359 65.35 26.366 65.3415 26.3695 65.3315C26.373 65.3215 26.3728 65.3106 26.3689 65.3007C26.2801 65.0633 26.2832 64.8145 26.5644 64.7161C26.6453 64.6882 26.7172 64.6676 26.7803 64.6545C26.8044 64.6499 26.8067 64.6401 26.7872 64.6253C26.6939 64.5561 26.4902 64.5841 26.3251 64.591C26.3048 64.5919 26.2873 64.5851 26.2724 64.5707C26.1823 64.4836 26.0843 64.3928 25.9785 64.2984ZM24.6522 64.9497C24.6538 64.9463 24.6534 64.9421 24.6511 64.9372C24.6487 64.9324 24.6445 64.927 24.6387 64.9215C24.6329 64.9159 24.6255 64.9103 24.617 64.9049C24.6086 64.8995 24.5992 64.8944 24.5894 64.89C24.5696 64.8811 24.5494 64.8753 24.5332 64.8738C24.517 64.8724 24.5061 64.8754 24.503 64.8823C24.5014 64.8858 24.5018 64.89 24.5042 64.8949C24.5065 64.8997 24.5107 64.9051 24.5165 64.9106C24.5224 64.9162 24.5297 64.9218 24.5382 64.9272C24.5467 64.9326 24.5561 64.9377 24.5659 64.9421C24.5857 64.951 24.6059 64.9568 24.6221 64.9583C24.6383 64.9597 24.6491 64.9566 24.6522 64.9497Z" fill="#727372"/>
</g>
<defs>
<clipPath id="clip0_1387_5239">
<rect width="75" height="75" fill="white" transform="translate(0 0.5)"/>
</clipPath>
</defs>
</svg>
