<svg width="30" height="30" viewBox="0 0 30 30" fill="none" xmlns="http://www.w3.org/2000/svg">
<g clip-path="url(#clip0_360_1922)">
<path d="M0.5 0.5V29.5H29.5V0.5H0.5Z" stroke="#727372"/>
<path d="M20.1175 17.186C20.12 17.1871 20.1222 17.1898 20.1241 17.1942C20.126 17.1982 20.1268 17.2024 20.1265 17.2068C20.1231 17.2694 20.1265 17.3427 20.1364 17.4268C20.1452 17.5013 20.1496 17.575 20.1498 17.6479C20.1502 17.8092 20.1503 17.9055 20.1503 17.937C20.1503 17.9814 20.1454 18.0428 20.1356 18.1211C20.1278 18.183 20.124 18.2447 20.1244 18.3061C20.1244 18.3117 20.123 18.317 20.1204 18.3221C20.1187 18.3256 20.1169 18.329 20.1152 18.3323C20.1133 18.3361 20.1121 18.3396 20.1118 18.3428C20.0903 18.558 20.0442 18.7675 19.9735 18.9713C19.9695 18.9828 19.9726 18.9919 19.9827 18.9985C20.043 19.0387 20.0863 19.0906 20.1448 19.1444C20.7777 19.7241 21.1407 20.058 21.2339 20.1461C21.3038 20.2124 21.3251 20.2846 21.2976 20.3628C21.2852 20.3981 21.2455 20.4511 21.1785 20.5217C20.8024 20.9183 20.5108 21.2242 20.3038 21.4392C20.1889 21.5586 20.0853 21.5368 19.962 21.4374C19.8711 21.3641 19.8041 21.3097 19.7611 21.274C19.4734 21.0362 19.1302 20.7537 18.7315 20.4265C18.7247 20.4209 18.7176 20.4206 18.7103 20.4257C18.3259 20.6835 17.8997 20.8352 17.4316 20.8808C17.3256 20.8911 17.2659 20.8971 17.2524 20.8986C17.1972 20.9053 17.1372 20.9083 17.0725 20.9078C16.9663 20.9068 16.9046 20.9066 16.8873 20.9073C16.8784 20.9076 16.8738 20.9124 16.8737 20.9215C16.8733 20.9295 16.8683 20.9502 16.8587 20.9836C16.4249 22.4733 16.1216 23.5168 15.9488 24.1142C15.9483 24.1159 15.9414 24.1353 15.9281 24.1724C15.9202 24.1939 15.9138 24.2135 15.9089 24.2312C15.8916 24.2954 15.8573 24.3387 15.8061 24.3613C15.7169 24.4004 15.6377 24.3912 15.5685 24.3335C14.593 23.5207 13.6824 22.7637 12.8366 22.0625C12.7845 22.0195 12.745 21.9791 12.718 21.9416C12.6948 21.909 12.6739 21.8598 12.6553 21.7939C12.4871 21.1939 12.3452 20.6783 12.2296 20.2471C12.2288 20.2439 12.2261 20.2405 12.2218 20.2369C12.2155 20.2318 12.2129 20.2251 12.2142 20.2169C12.2161 20.2024 12.2105 20.1797 12.1974 20.1487C12.1937 20.1403 12.1869 20.1174 12.1769 20.08C12.0491 19.6023 11.9122 19.1105 11.7664 18.6046C11.7612 18.5864 11.7554 18.5749 11.7491 18.5702C11.154 18.1192 10.6018 17.6668 10.0924 17.2131C9.93695 17.0746 9.80667 16.9535 9.70158 16.8498C8.71148 15.8726 7.81651 14.8364 7.01666 13.7412C6.54522 13.0956 6.11417 12.4233 5.72352 11.7241C5.36959 11.091 5.05868 10.4322 4.79078 9.74797C4.74724 9.63676 4.70256 9.51444 4.65674 9.38101C4.57386 9.13987 4.53145 9.01677 4.52953 9.01169C4.49788 8.92653 4.46011 8.80404 4.41621 8.64421C4.35886 8.43612 4.29424 8.18177 4.22237 7.88118C4.19055 7.74828 4.17026 7.65289 4.16152 7.59501C4.15015 7.51894 4.1429 7.47409 4.13975 7.46045C4.12873 7.41341 4.12331 7.38123 4.12349 7.36392C4.12375 7.31303 4.10067 7.28234 4.10014 7.23539C4.09962 7.18695 4.09323 7.13922 4.08099 7.09218C4.0733 7.06297 4.06823 7.00378 4.06578 6.9146C4.06561 6.90778 4.06368 6.90122 4.06001 6.89493C4.05791 6.89125 4.05573 6.88784 4.05345 6.8847C4.04926 6.87928 4.04733 6.87324 4.04768 6.8666C4.05065 6.80644 4.04803 6.75276 4.03981 6.70555C4.0288 6.64189 4.02372 6.58821 4.0246 6.54449C4.02547 6.50812 4.0211 6.44867 4.01148 6.36613C4.00379 6.2995 4.0002 6.2404 4.00073 6.18881C4.003 5.92914 4.00283 5.75602 4.0002 5.66946C3.99732 5.57372 4.02591 5.47719 4.02381 5.37594C4.02224 5.31588 4.04217 5.25896 4.05424 5.18315C4.05756 5.16182 4.07855 5.13489 4.11719 5.10236C4.13608 5.0861 4.16615 5.07421 4.20742 5.06669C4.28559 5.05235 4.35422 5.04265 4.41333 5.03757C4.42435 5.03653 4.43615 5.02944 4.4469 5.02446C4.45127 5.02236 4.456 5.0214 4.46107 5.02157C4.51982 5.02367 4.57893 5.02131 4.63838 5.01449C4.71672 5.00557 4.7753 5.00094 4.81412 5.00059C4.86641 5.00007 5.06786 4.99989 5.41847 5.00007C5.49488 5.00007 5.55967 5.00348 5.61283 5.0103C5.69782 5.02131 5.76313 5.02481 5.80877 5.02079C5.83412 5.01851 5.87128 5.02332 5.92025 5.03521C5.96379 5.04597 6.01913 5.0402 6.07212 5.04728C6.21743 5.06599 6.35637 5.08444 6.48891 5.10263C6.63213 5.12204 6.77019 5.14538 6.90309 5.17266C7.92729 5.38337 8.92919 5.71746 9.90879 6.17491C10.3279 6.37076 10.7199 6.57011 11.0847 6.77296C11.6222 7.07215 12.1646 7.41078 12.7117 7.78885C14.3987 8.95486 15.9379 10.3127 17.3293 11.8624C17.33 11.8631 17.3446 11.8827 17.3731 11.9211C17.42 11.9843 17.468 11.9841 17.541 11.9964C17.7973 12.04 18.0285 12.0804 18.2345 12.1176C19.4788 12.3418 20.302 12.4887 20.704 12.5583C20.7845 12.5721 20.8527 12.6085 20.9086 12.6676C21.054 12.8207 21.8888 13.6966 23.4131 15.2956C23.4648 15.35 23.4788 15.4243 23.4551 15.5186C23.4467 15.5515 23.4197 15.5838 23.3743 15.6156C23.3687 15.6195 23.331 15.6354 23.2612 15.6634C23.1715 15.6991 23.0919 15.7291 23.0225 15.7536C22.8711 15.8066 22.7908 15.8347 22.7817 15.8378C21.4339 16.3306 20.5348 16.6595 20.0845 16.8246C20.0797 16.8264 20.0755 16.8293 20.0727 16.8328C20.0699 16.8363 20.0686 16.8403 20.069 16.844L20.0866 17.0087C20.0869 17.0122 20.0882 17.0155 20.0903 17.0184C20.0985 17.03 20.1026 17.0411 20.1026 17.0517C20.1026 17.0983 20.1042 17.1387 20.1073 17.1732C20.1078 17.1797 20.1112 17.1839 20.1175 17.186ZM12.0796 14.9607C12.2074 14.9603 12.3279 14.9505 12.441 14.9313C12.6425 14.8969 12.8348 14.8294 13.0178 14.7288C13.554 14.4345 13.8969 13.9873 14.0466 13.3871C14.0537 13.3583 14.0521 13.3323 14.0657 13.305C14.0699 13.2963 14.0726 13.2758 14.0739 13.2437C14.0749 13.2179 14.0801 13.1822 14.0893 13.1364C14.1005 13.0797 14.1025 12.9605 14.0954 12.7786C14.0938 12.7411 14.0736 12.7073 14.0749 12.6682C14.076 12.6412 14.073 12.6135 14.066 12.585C14.0357 12.4605 14.0184 12.3913 14.0141 12.3773C13.8324 11.8046 13.4771 11.3868 12.9483 11.124C12.7317 11.0165 12.4931 10.9521 12.2325 10.9309C12.1876 10.9275 12.1335 10.9257 12.0702 10.9257C12.0069 10.9261 11.9527 10.9281 11.9078 10.9317C11.6472 10.9541 11.4089 11.0196 11.1928 11.1282C10.6652 11.3935 10.3119 11.8129 10.1331 12.3865C10.1287 12.4004 10.1116 12.4698 10.0819 12.5945C10.0751 12.623 10.0723 12.6507 10.0735 12.6776C10.0751 12.7167 10.0549 12.7505 10.0536 12.788C10.0473 12.9699 10.0498 13.0892 10.0612 13.1458C10.0708 13.1916 10.0761 13.2274 10.0772 13.2531C10.0786 13.2853 10.0814 13.3057 10.0856 13.3145C10.0995 13.3415 10.0979 13.3675 10.1053 13.3963C10.2577 13.9958 10.6028 14.4414 11.1403 14.7333C11.3237 14.8329 11.5163 14.8995 11.7179 14.9329C11.8312 14.9516 11.9518 14.9609 12.0796 14.9607Z" fill="#777777"/>
<path d="M25.3881 23.5531L21.7951 19.985C21.775 19.9651 21.7596 19.9409 21.7501 19.9142C21.7406 19.8875 21.7373 19.859 21.7404 19.8308C21.7434 19.8026 21.7528 19.7755 21.7677 19.7514C21.7827 19.7273 21.8029 19.707 21.8269 19.6918L22.8719 19.0287C22.9077 19.0059 22.9502 18.996 22.9924 19.0003C23.0346 19.0047 23.0741 19.0232 23.1045 19.0528L25.6507 21.5347C25.6687 21.5523 25.683 21.5732 25.6928 21.5964C25.7025 21.6195 25.7076 21.6444 25.7076 21.6695L25.7094 23.4191C25.7094 23.4563 25.6984 23.4927 25.6778 23.5237C25.6572 23.5547 25.6278 23.5789 25.5934 23.5932C25.5591 23.6075 25.5213 23.6114 25.4847 23.6042C25.4482 23.5971 25.4146 23.5793 25.3881 23.5531Z" fill="#777777"/>
<path d="M25.7034 25.8887C25.6805 25.932 25.6483 25.966 25.6069 25.9907C25.5998 25.995 25.5918 25.9972 25.5835 25.9972C25.1147 26.0009 24.8257 26.0009 24.7164 25.9972C24.6889 25.9962 24.6555 25.9767 24.6162 25.9388C24.3659 25.6969 23.8807 25.1786 23.4445 24.7432C23.3819 24.6806 23.2014 24.4964 22.9031 24.1905C22.0768 23.3435 21.4838 22.7371 21.1239 22.3715C21.0258 22.2716 21.015 22.1735 21.0916 22.0772C21.3314 21.7755 21.6142 21.4287 21.9402 21.0366C21.9881 20.9791 22.0375 20.9772 22.0884 21.0308C24.1284 23.1815 25.2641 24.3781 25.4954 24.6204C25.5382 24.6654 25.5966 24.7302 25.6704 24.8151C25.6947 24.8428 25.7081 24.8785 25.7081 24.9155V25.87C25.7081 25.8767 25.7066 25.8829 25.7034 25.8887Z" fill="#777777"/>
<path d="M21.1719 25.9456L18.9896 23.8603C18.9641 23.836 18.9461 23.805 18.9377 23.7708C18.9293 23.7367 18.9308 23.7008 18.9421 23.6675L19.4093 22.292C19.4193 22.2625 19.4366 22.236 19.4595 22.215C19.4825 22.194 19.5104 22.1792 19.5407 22.1718C19.5709 22.1645 19.6025 22.165 19.6326 22.1731C19.6626 22.1813 19.6901 22.1969 19.7125 22.2186L23.2895 25.6812C23.3159 25.7068 23.334 25.7397 23.3415 25.7757C23.3491 25.8117 23.3457 25.8491 23.3319 25.8831C23.3181 25.9172 23.2944 25.9463 23.2639 25.9669C23.2334 25.9874 23.1975 25.9983 23.1607 25.9983L21.2994 25.9967C21.2519 25.9967 21.2063 25.9784 21.1719 25.9456Z" fill="#777777"/>
</g>
<defs>
<clipPath id="clip0_360_1922">
<rect width="30" height="30" fill="white"/>
</clipPath>
</defs>
</svg>
