<svg width="19" height="19" viewBox="0 0 19 19" fill="none" xmlns="http://www.w3.org/2000/svg">
<path d="M9.77595 0C9.85626 0.0279365 9.96353 0.0753968 10.0978 0.142381C11.2815 0.733016 12.4648 1.32444 13.6476 1.91667C13.8099 1.9981 13.9765 2.07381 14.1324 2.165C14.1817 2.19373 14.2207 2.23794 14.2495 2.29762C14.2621 2.32381 14.2785 2.39881 14.2785 2.42786C14.279 4.25183 14.2791 6.14833 14.2787 8.11738C14.2787 8.14738 14.2749 8.17714 14.2671 8.20667C14.2667 8.20839 14.2667 8.2102 14.2673 8.2119C14.2678 8.21359 14.2689 8.21509 14.2703 8.21622C14.2717 8.21735 14.2735 8.21806 14.2753 8.21827C14.2771 8.21847 14.279 8.21816 14.2807 8.21738C14.3936 8.16214 14.5052 8.16405 14.6153 8.22309C14.6898 8.26309 14.7651 8.30151 14.8412 8.33833C14.9772 8.40429 15.1355 8.49357 15.2896 8.56024C15.313 8.57048 15.3243 8.58643 15.347 8.59643C15.4014 8.62071 15.4572 8.64722 15.5143 8.67595C16.2806 9.05992 17.0474 9.44294 17.8146 9.825C17.8991 9.86691 17.9797 9.91214 18.0671 9.95333C18.1365 9.98619 18.2 10.0174 18.2576 10.0469C18.4274 10.1339 18.5879 10.2135 18.739 10.2857C18.8605 10.3436 18.9324 10.4124 18.9691 10.5343C18.9713 10.5419 18.9761 10.5475 18.9833 10.5512L19 10.5595V16.3748L18.9751 16.3767C18.9677 16.3771 18.9631 16.381 18.9614 16.3883C18.9388 16.4839 18.8833 16.5558 18.7948 16.604C17.3628 17.386 15.9211 18.1726 14.4697 18.964C14.4407 18.9799 14.4098 18.9881 14.377 18.9886C14.3182 18.9894 14.2676 18.9876 14.2251 18.9833C14.159 18.9767 14.1001 18.9176 14.0385 18.8871C13.9812 18.8587 13.9206 18.8272 13.8567 18.7926C12.5334 18.0777 11.2102 17.3628 9.887 16.6479C9.79365 16.5974 9.73297 16.5564 9.70497 16.525C9.65234 16.4663 9.62602 16.3944 9.62602 16.3095C9.62618 16.0032 9.6253 15.6899 9.62337 15.3698C9.62337 15.3605 9.62723 15.3524 9.62723 15.3443C9.62771 15.1892 9.62675 15.036 9.62433 14.8845C9.62071 14.6383 9.62844 14.3888 9.62578 14.1576C9.62256 13.8854 9.62361 13.6146 9.62892 13.3452C9.62964 13.305 9.62071 13.2662 9.62144 13.2257C9.62562 12.9856 9.62683 12.7486 9.62506 12.5148C9.62393 12.3571 9.62401 12.1994 9.6253 12.0417C9.62675 11.884 9.62659 11.7264 9.62482 11.5688C9.62256 11.3764 9.62377 11.1297 9.62844 10.8286C9.6286 10.8156 9.62216 10.8093 9.60912 10.8098C9.52961 10.8128 9.47103 10.8004 9.43337 10.7726C9.42113 10.7636 9.41502 10.7666 9.41502 10.7817C9.41421 12.5885 9.41405 14.429 9.41454 16.3031C9.41454 16.451 9.33969 16.5481 9.2115 16.6152C9.17062 16.6365 9.13078 16.6577 9.092 16.6788C8.77895 16.8493 8.45544 17.0249 8.12147 17.2057C7.19296 17.7086 6.24513 18.221 5.27799 18.7431C5.20677 18.7814 5.14038 18.8224 5.06651 18.8581C5.0084 18.8859 4.94917 18.919 4.88882 18.9576C4.81712 19.0033 4.72079 18.9864 4.63967 18.9864C4.59283 18.9864 4.55348 18.9593 4.51654 18.934C4.49063 18.9163 4.46246 18.8999 4.43205 18.885C4.40002 18.8691 4.36413 18.8505 4.32437 18.829C2.91703 18.0689 1.5443 17.3271 0.206175 16.6038C0.112503 16.5532 0.0550445 16.4771 0.0337992 16.3755C0.0331124 16.372 0.0316842 16.3687 0.0296057 16.3658C0.0275272 16.3629 0.0248442 16.3604 0.0217281 16.3586L0 16.3452V10.5602C0.0230157 10.5482 0.0362939 10.5356 0.0398348 10.5226C0.0557687 10.4648 0.0836129 10.4156 0.123367 10.3748C0.149924 10.3473 0.19676 10.3179 0.263875 10.2864C1.283 9.81056 2.3134 9.32802 3.35506 8.83881C3.38194 8.82611 3.40978 8.81302 3.43859 8.79952C3.91822 8.57254 4.34948 8.37175 4.73238 8.19714C4.77149 8.17921 4.83176 8.17389 4.9132 8.18119C4.9227 8.18198 4.92745 8.1777 4.92745 8.16833C4.92696 6.25643 4.92696 4.33452 4.92745 2.40262C4.92745 2.30571 5.0076 2.19762 5.08003 2.15714C5.12187 2.13365 5.16782 2.11024 5.21788 2.0869C6.02632 1.70976 6.86261 1.31833 7.72675 0.912619C8.34318 0.623413 8.95953 0.334206 9.57581 0.045C9.60558 0.0310317 9.64976 0.0160317 9.70835 0H9.77595ZM6.24707 2.55881C6.24522 2.55972 6.24367 2.56111 6.24256 2.56282C6.24146 2.56454 6.24085 2.56652 6.2408 2.56855C6.24075 2.57058 6.24126 2.57258 6.24228 2.57435C6.2433 2.57612 6.24479 2.57758 6.24658 2.57857L7.29001 3.14143C7.29165 3.14228 7.29347 3.14273 7.29532 3.14273C7.29718 3.14273 7.299 3.14228 7.30063 3.14143L10.8945 1.2931C10.8963 1.29214 10.8978 1.29072 10.8989 1.28898C10.8999 1.28724 10.9005 1.28525 10.9005 1.28321C10.9005 1.28118 10.8999 1.27919 10.8989 1.27745C10.8978 1.27571 10.8963 1.27429 10.8945 1.27333L9.98092 0.815476C9.97934 0.814701 9.9776 0.814297 9.97584 0.814297C9.97408 0.814297 9.97235 0.814701 9.97077 0.815476L6.24707 2.55881ZM13.2061 2.45714C13.2081 2.45605 13.2097 2.45444 13.2109 2.45248C13.212 2.45053 13.2126 2.4483 13.2125 2.44605C13.2125 2.44379 13.2118 2.44159 13.2106 2.43969C13.2094 2.43778 13.2076 2.43625 13.2056 2.43524L11.5989 1.63095C11.5971 1.63003 11.5952 1.62955 11.5931 1.62955C11.5911 1.62955 11.5891 1.63003 11.5873 1.63095L7.95924 3.49714C7.9572 3.49817 7.95549 3.49973 7.95429 3.50165C7.95309 3.50356 7.95244 3.50577 7.95242 3.50802C7.95239 3.51028 7.95299 3.5125 7.95415 3.51444C7.95531 3.51638 7.95699 3.51798 7.959 3.51905L9.59512 4.40262C9.59697 4.40362 9.59905 4.40414 9.60116 4.40414C9.60327 4.40414 9.60534 4.40362 9.60719 4.40262L13.2061 2.45714ZM7.5254 5.1781C7.40823 5.12492 7.28872 5.07056 7.16689 5.015C7.15401 5.00897 7.14186 5.00183 7.13043 4.99357C7.10388 4.97405 7.06839 4.96929 7.03748 4.95524C6.93255 4.90698 6.83083 4.85746 6.73232 4.80667C6.72832 4.80459 6.72497 4.80147 6.72263 4.79765C6.72029 4.79384 6.71905 4.78946 6.71905 4.785L6.71929 3.73857C6.71928 3.72912 6.71671 3.71987 6.71187 3.71178C6.70703 3.7037 6.70008 3.69708 6.69177 3.69262L5.60874 3.10833C5.60724 3.10751 5.60555 3.1071 5.60383 3.10713C5.60211 3.10717 5.60042 3.10766 5.59894 3.10855C5.59745 3.10943 5.59622 3.11069 5.59536 3.1122C5.59449 3.11371 5.59403 3.11541 5.59402 3.11714V8.02548C5.59402 8.03333 5.59617 8.04104 5.60025 8.04779C5.60433 8.05454 5.61018 8.06007 5.61719 8.06381L9.25327 10.0295C9.2554 10.0307 9.25781 10.0313 9.26025 10.0312C9.26268 10.0312 9.26507 10.0305 9.26717 10.0293C9.26927 10.0281 9.271 10.0263 9.2722 10.0242C9.27341 10.0222 9.27404 10.0198 9.27403 10.0174L9.27379 5.10833C9.27378 5.10271 9.27226 5.09718 9.26938 5.09233C9.26649 5.08747 9.26235 5.08346 9.25737 5.08071C8.86192 4.8669 8.43895 4.63841 7.98845 4.39524C7.86162 4.32683 7.73632 4.25786 7.61255 4.18833C7.59453 4.17833 7.57787 4.17175 7.56258 4.16857C7.5489 4.16587 7.54206 4.17143 7.54206 4.18524V5.16762C7.54206 5.17968 7.53651 5.18317 7.5254 5.1781ZM5.75094 9.35881C5.75343 9.35759 5.75553 9.3557 5.75699 9.35337C5.75846 9.35103 5.75924 9.34834 5.75924 9.3456C5.75924 9.34285 5.75846 9.34016 5.75699 9.33782C5.75553 9.33549 5.75343 9.3336 5.75094 9.33238L4.84536 8.8781C4.84332 8.87705 4.84105 8.87649 4.83875 8.87644C4.83645 8.8764 4.83417 8.87689 4.83208 8.87786L1.11706 10.6167C1.11459 10.6178 1.11248 10.6196 1.11097 10.6219C1.10946 10.6241 1.10861 10.6268 1.10851 10.6295C1.10841 10.6322 1.10907 10.6349 1.1104 10.6372C1.11174 10.6396 1.11371 10.6415 1.1161 10.6429L2.14842 11.2024C2.15056 11.2035 2.15296 11.2042 2.1554 11.2042C2.15784 11.2043 2.16025 11.2037 2.16243 11.2026L5.75094 9.35881ZM15.3516 9.35786C15.3539 9.35668 15.3559 9.35489 15.3573 9.35268C15.3586 9.35048 15.3594 9.34794 15.3594 9.34536C15.3594 9.34277 15.3586 9.34024 15.3573 9.33803C15.3559 9.33583 15.3539 9.33404 15.3516 9.33286L14.4446 8.87881C14.4427 8.87783 14.4405 8.87729 14.4383 8.87725C14.4362 8.87721 14.434 8.87766 14.432 8.87857L10.7182 10.6179C10.7158 10.6189 10.7137 10.6207 10.7122 10.6229C10.7108 10.6251 10.7099 10.6276 10.7099 10.6303C10.7098 10.6329 10.7105 10.6355 10.7118 10.6378C10.7132 10.64 10.7151 10.6419 10.7175 10.6431L11.7501 11.2019C11.7521 11.203 11.7545 11.2036 11.7568 11.2036C11.7592 11.2036 11.7615 11.203 11.7636 11.2019L15.3516 9.35786ZM8.3052 10.6307C8.30706 10.6297 8.30861 10.6283 8.30968 10.6265C8.31075 10.6247 8.3113 10.6226 8.31128 10.6205C8.31125 10.6184 8.31065 10.6164 8.30954 10.6146C8.30842 10.6129 8.30684 10.6114 8.30496 10.6105L6.69611 9.80524C6.69447 9.8044 6.69265 9.80397 6.6908 9.80397C6.68895 9.80397 6.68713 9.8044 6.68549 9.80524L3.05545 11.6721C3.05357 11.6731 3.05198 11.6745 3.05087 11.6763C3.04975 11.6781 3.04915 11.6801 3.04913 11.6822C3.0491 11.6843 3.04966 11.6863 3.05073 11.6881C3.0518 11.6899 3.05335 11.6914 3.05521 11.6924L4.69327 12.5771C4.69497 12.5781 4.69688 12.5785 4.69882 12.5785C4.70076 12.5785 4.70267 12.5781 4.70437 12.5771L8.3052 10.6307ZM17.9066 10.6312C17.9086 10.6301 17.9103 10.6285 17.9114 10.6265C17.9125 10.6246 17.9131 10.6223 17.9131 10.6201C17.913 10.6178 17.9123 10.6156 17.9111 10.6137C17.9099 10.6118 17.9082 10.6103 17.9061 10.6093L16.298 9.80476C16.2962 9.80384 16.2942 9.80336 16.2922 9.80336C16.2902 9.80336 16.2882 9.80384 16.2864 9.80476L12.6573 11.6717C12.6553 11.6727 12.6536 11.6743 12.6524 11.6762C12.6512 11.6781 12.6505 11.6803 12.6505 11.6825C12.6505 11.6848 12.6511 11.687 12.6522 11.689C12.6534 11.6909 12.6551 11.6925 12.6571 11.6936L14.2947 12.5776C14.2965 12.5786 14.2986 12.5791 14.3007 12.5791C14.3028 12.5791 14.3049 12.5786 14.3067 12.5776L17.9066 10.6312ZM12.2474 12.301C12.2471 12.3019 12.2467 12.3027 12.2462 12.3033C12.2443 12.306 12.2433 12.3092 12.2433 12.3129C12.2488 12.6225 12.2479 12.9251 12.2406 13.2205C12.2406 13.2235 12.2397 13.2264 12.2382 13.229C12.2367 13.2316 12.2345 13.2338 12.2319 13.2354C12.2293 13.237 12.2264 13.2379 12.2233 13.2381C12.2202 13.2383 12.2171 13.2377 12.2143 13.2364L11.4352 12.8752C11.43 12.8728 11.4255 12.869 11.4224 12.8641C11.4193 12.8593 11.4176 12.8536 11.4176 12.8479L11.4179 11.7843C11.4179 11.776 11.4142 11.7699 11.407 11.766L10.3418 11.1914C10.3359 11.1883 10.3307 11.1842 10.3264 11.1793C10.3225 11.1748 10.3179 11.1719 10.3124 11.1705C10.3103 11.1699 10.3082 11.1699 10.3061 11.1703C10.3039 11.1707 10.302 11.1716 10.3003 11.1729C10.2986 11.1742 10.2972 11.1759 10.2962 11.1779C10.2953 11.1798 10.2948 11.1819 10.2948 11.184L10.2945 16.1064C10.2945 16.1093 10.2953 16.1121 10.2969 16.1146C10.2984 16.1171 10.3006 16.1191 10.3032 16.1205L13.9502 18.0931C13.9518 18.094 13.9537 18.0944 13.9556 18.0944C13.9575 18.0943 13.9593 18.0938 13.9609 18.0929C13.9625 18.0919 13.9638 18.0906 13.9648 18.089C13.9657 18.0874 13.9661 18.0856 13.9661 18.0838V13.1617C13.9661 13.1544 13.9629 13.1489 13.9564 13.1452C13.8686 13.094 13.7602 13.0339 13.6312 12.965C13.1629 12.7144 12.718 12.4747 12.2966 12.246C12.2858 12.24 12.2797 12.2369 12.2727 12.2262C12.2668 12.2171 12.261 12.2173 12.2554 12.2267C12.2409 12.251 12.2382 12.274 12.2474 12.2957C12.2482 12.2975 12.2482 12.2992 12.2474 12.301ZM2.62137 13.2364C2.61687 13.2379 2.6089 13.2359 2.59747 13.2305C2.35975 13.1203 2.10336 13.0009 1.8283 12.8721C1.8239 12.8701 1.82018 12.8668 1.81757 12.8627C1.81497 12.8586 1.81358 12.8539 1.81357 12.849L1.81381 11.7967C1.81381 11.7888 1.81166 11.7811 1.80758 11.7744C1.8035 11.7676 1.79764 11.7621 1.79064 11.7583L0.705197 11.1724C0.703652 11.1715 0.701901 11.1711 0.70012 11.1711C0.698339 11.1711 0.696591 11.1716 0.69505 11.1725C0.693509 11.1734 0.69223 11.1747 0.691341 11.1763C0.690453 11.1779 0.689986 11.1796 0.689987 11.1814V16.0921C0.689984 16.0989 0.691797 16.1055 0.695236 16.1112C0.698675 16.117 0.703615 16.1218 0.709543 16.125L4.33982 18.0874C4.34321 18.0892 4.347 18.09 4.35083 18.09C4.35467 18.0899 4.35841 18.0888 4.36169 18.0869C4.36497 18.085 4.36768 18.0823 4.36956 18.079C4.37144 18.0758 4.37242 18.0721 4.37241 18.0683V13.1764C4.3724 13.1691 4.37038 13.1619 4.36656 13.1555C4.36274 13.1492 4.35725 13.144 4.35069 13.1405L2.66048 12.2271C2.64889 12.221 2.64382 12.2243 2.64527 12.2371C2.64592 12.2435 2.64415 12.2495 2.63996 12.2552C2.63791 12.2581 2.6365 12.2613 2.63584 12.2648C2.63517 12.2682 2.63526 12.2718 2.6361 12.2752C2.64318 12.3065 2.64568 12.3429 2.64358 12.3843C2.6423 12.4111 2.64141 12.4383 2.64093 12.4657C2.63948 12.5522 2.63924 12.638 2.6402 12.7231C2.641 12.7933 2.64141 12.8592 2.64141 12.9205C2.64157 13.0122 2.64205 13.1071 2.64286 13.205C2.64293 13.2121 2.64088 13.219 2.63702 13.2246C2.63315 13.2303 2.62767 13.2344 2.62137 13.2364Z" fill="#C6C7C6"/>
</svg>
