<svg width="38" height="38" viewBox="0 0 38 38" fill="none" xmlns="http://www.w3.org/2000/svg">
<g clip-path="url(#clip0_665_9247)">
<path d="M19.687 0C22.8844 0.141502 25.7982 0.973774 28.4281 2.49682C31.0839 4.03355 33.2327 6.05071 34.8744 8.54829C36.7946 11.4681 37.8364 14.72 38 18.3039V19.6972C37.8357 23.2835 36.8086 26.5121 34.9189 29.3832C33.3472 31.7705 31.3745 33.6968 29.001 35.162C26.1831 36.9011 23.0819 37.8471 19.6972 38H18.3119C13.9702 37.7824 10.1615 36.3286 6.88565 33.6386C6.2991 33.157 5.74374 32.6374 5.21958 32.0798C1.99852 28.6541 0.258659 24.5269 0 19.6984V18.313C0.186386 14.421 1.39295 10.9306 3.6197 7.84192C5.49916 5.23441 8.0576 3.13243 10.9584 1.7779C13.2521 0.707507 15.7006 0.114875 18.3039 0H19.687ZM17.0852 24.797L22.5946 30.0759C22.6052 30.0861 22.6182 30.0935 22.6324 30.0973C22.6466 30.1012 22.6615 30.1014 22.6758 30.098C22.6901 30.0946 22.7034 30.0877 22.7143 30.0778C22.7252 30.068 22.7335 30.0556 22.7384 30.0417L29.438 10.5909C29.4799 10.4692 29.4365 10.4038 29.3079 10.3947C29.2463 10.3909 29.1485 10.4057 29.0147 10.4392C27.9884 10.7001 26.9686 10.9637 25.9553 11.23C25.9005 11.2444 25.8176 11.2558 25.7065 11.2642C25.6684 11.2672 25.6361 11.2825 25.6095 11.3098C25.5829 11.3372 25.5308 11.3563 25.4532 11.3669C25.3603 11.3798 25.3101 11.3874 25.3025 11.3897C17.186 13.4575 10.6434 15.1251 5.67489 16.3925C5.66527 16.395 5.65629 16.3995 5.64852 16.4058C5.64075 16.412 5.63436 16.4199 5.62975 16.4288C5.62513 16.4377 5.6224 16.4474 5.62173 16.4575C5.62106 16.4676 5.62245 16.4777 5.62583 16.4872C5.63039 16.4994 5.63724 16.5142 5.64637 16.5317C5.65473 16.5469 5.67033 16.5618 5.69315 16.5762C9.1607 18.7284 11.5373 20.2043 12.823 21.0038C12.8465 21.0186 12.8667 21.0381 12.8826 21.061C12.8985 21.0839 12.9097 21.1099 12.9154 21.1374L14.0657 26.8385C14.0689 26.854 14.076 26.8684 14.0863 26.8803C14.0967 26.8923 14.1099 26.9014 14.1249 26.9069C14.1398 26.9124 14.1559 26.914 14.1717 26.9116C14.1875 26.9092 14.2025 26.9029 14.2152 26.8933L17.0041 24.7913C17.0315 24.77 17.0585 24.7719 17.0852 24.797Z" fill="#111111"/>
<path d="M15.3255 23.3546L14.8337 20.9262C14.8231 20.8737 14.8406 20.8311 14.8862 20.7984L29.0033 10.7438C29.0672 10.6989 29.0706 10.7028 29.0135 10.7552C24.7921 14.6724 20.5508 18.6238 16.2898 22.6094C15.9691 22.9095 15.6793 23.1184 15.4168 23.3831C15.41 23.3901 15.4014 23.395 15.392 23.3973C15.3825 23.3996 15.3726 23.3993 15.3632 23.3964C15.3538 23.3935 15.3454 23.388 15.3387 23.3807C15.3321 23.3733 15.3275 23.3643 15.3255 23.3546Z" fill="#111111"/>
</g>
<defs>
<clipPath id="clip0_665_9247">
<rect width="38" height="38" fill="white"/>
</clipPath>
</defs>
</svg>
