<svg width="18" height="18" viewBox="0 0 18 18" fill="none" xmlns="http://www.w3.org/2000/svg">
<g clip-path="url(#clip0_219_2763)">
<path d="M5.48711 3.0954L2.76614 0.374708C2.76409 0.372632 2.76259 0.370082 2.76176 0.367284C2.76093 0.364485 2.76081 0.361526 2.7614 0.358669C2.762 0.355812 2.76329 0.353146 2.76516 0.350908C2.76703 0.34867 2.76943 0.34693 2.77214 0.345842C3.03846 0.240729 3.29443 0.163845 3.54006 0.115192C3.6813 0.0870524 3.84569 0.0633611 4.03322 0.0441175C4.47737 -0.00163138 4.94058 0.036765 5.35912 0.12799C6.13322 0.296462 6.81646 0.652559 7.40884 1.19628C7.75468 1.51407 7.9728 1.88796 8.11386 2.34C8.19083 2.58636 8.2472 2.821 8.28297 3.04394C8.36321 3.54245 8.40651 4.03217 8.41286 4.51307C8.41313 4.53976 8.42457 4.56536 8.42484 4.59504C8.42575 4.90711 8.45044 5.22826 8.49891 5.55849C8.51017 5.63528 8.53622 5.70282 8.57707 5.76109C8.58941 5.7787 8.60321 5.79513 8.61846 5.81038C11.6726 8.86267 14.5907 11.7803 17.3728 14.5634C17.6776 14.8682 17.8678 15.2274 17.9433 15.6409C17.982 15.8526 17.9851 16.063 17.9526 16.2722C17.9201 16.4809 17.8654 16.666 17.7887 16.8274C17.5868 17.2528 17.2753 17.5689 16.8541 17.7759C16.6462 17.8779 16.4078 17.9421 16.1387 17.9684C15.976 17.9844 15.7983 17.9735 15.6055 17.9357C15.2074 17.8577 14.857 17.6672 14.5544 17.3644C11.6384 14.4477 8.72403 11.5326 5.81117 8.61903C5.72811 8.53598 5.64179 8.51011 5.51843 8.49186C5.22179 8.44775 4.90499 8.42506 4.56805 8.42379C4.56151 8.42379 4.55516 8.42197 4.54899 8.41834C4.54318 8.41507 4.53692 8.41344 4.5302 8.41344C4.05383 8.40708 3.56793 8.36487 3.0725 8.28681C2.79129 8.2427 2.51552 8.17416 2.24521 8.08121C1.81822 7.93416 1.47782 7.71958 1.17365 7.383C0.616855 6.76648 0.261303 6.05655 0.106991 5.25322C0.0432696 4.92127 0.00950256 4.54847 0.0310154 4.19964C0.0624224 3.69041 0.167173 3.21431 0.345267 2.77135C0.346422 2.76855 0.348246 2.76608 0.350576 2.76416C0.352905 2.76223 0.355666 2.76091 0.358611 2.76032C0.361555 2.75972 0.36459 2.75987 0.367442 2.76075C0.370294 2.76163 0.372874 2.76321 0.374949 2.76536L3.09673 5.48769C3.10345 5.49422 3.11108 5.49577 3.11961 5.49232C3.53707 5.32893 3.90687 5.04872 4.24345 4.74046C4.57214 4.43982 4.87985 4.11277 5.13719 3.75686C5.28968 3.5459 5.40823 3.3345 5.49283 3.12263C5.49683 3.11229 5.49492 3.10321 5.48711 3.0954Z" fill="#C6C7C6"/>
<path d="M15.4076 2.35852C15.3803 2.37631 15.3554 2.39656 15.3327 2.41925C13.884 3.86851 12.425 5.32766 10.9558 6.79671C10.9533 6.79917 10.9504 6.80112 10.9472 6.80246C10.9439 6.80379 10.9405 6.80448 10.937 6.80448C10.9336 6.80448 10.9301 6.80379 10.927 6.80246C10.9238 6.80112 10.9209 6.79917 10.9185 6.79671L10.0667 5.94518C10.0618 5.94026 10.059 5.93359 10.059 5.9266C10.059 5.91962 10.0618 5.91289 10.0667 5.90787C11.5212 4.4528 12.9765 2.99783 14.4327 1.54294C14.4675 1.50808 14.5146 1.46315 14.5253 1.4155C14.5505 1.30203 14.5142 1.2227 14.4163 1.17749C14.2914 1.12004 14.2094 1.20554 14.1296 1.2856C12.7023 2.71598 11.258 4.16079 9.7968 5.62004C9.78942 5.6274 9.77942 5.63154 9.76896 5.63154C9.75851 5.63154 9.74844 5.6274 9.74097 5.62004L9.43897 5.31831C9.42429 5.30367 9.41264 5.28628 9.40468 5.26715C9.39671 5.24801 9.3926 5.22749 9.39258 5.20678C9.39255 5.18606 9.39661 5.16555 9.40453 5.14642C9.41244 5.12729 9.42406 5.10991 9.4387 5.09529C10.8244 3.71047 12.2079 2.32675 13.589 0.944121C13.7641 0.768932 13.8974 0.646027 13.9891 0.575407C14.562 0.134075 15.2259 -0.0221424 15.9808 0.106753C16.024 0.114196 16.1077 0.13698 16.2319 0.175104C16.9451 0.394045 17.4943 0.931322 17.7715 1.61429C17.8244 1.74464 17.8657 1.88878 17.8954 2.04672C17.9221 2.18796 17.9358 2.32585 17.9366 2.46037C17.9402 3.17057 17.6984 3.76911 17.2111 4.25601C15.7559 5.71035 14.2925 7.1735 12.8211 8.64545C12.8175 8.64907 12.8132 8.65194 12.8085 8.65389C12.8038 8.65585 12.7988 8.65686 12.7937 8.65686C12.7886 8.65686 12.7836 8.65585 12.7789 8.65389C12.7742 8.65194 12.7699 8.64907 12.7664 8.64545L12.3775 8.25686C12.3743 8.25373 12.3718 8.25 12.3701 8.24588C12.3684 8.24175 12.3675 8.23732 12.3675 8.23284C12.3675 8.22836 12.3684 8.22391 12.3701 8.21976C12.3718 8.21561 12.3743 8.21184 12.3775 8.20866C13.8217 6.76212 15.2693 5.31513 16.7204 3.86769C16.8201 3.7683 16.895 3.66563 16.7901 3.53383C16.7228 3.44914 16.5878 3.44016 16.5118 3.51613C15.0288 4.99825 13.5567 6.46984 12.0957 7.9309C12.0928 7.93376 12.0894 7.93604 12.0857 7.93759C12.0819 7.93914 12.0779 7.93994 12.0739 7.93994C12.0698 7.93994 12.0658 7.93914 12.0621 7.93759C12.0584 7.93604 12.055 7.93376 12.0521 7.9309L11.2379 7.11613C11.2351 7.11339 11.2329 7.11012 11.2314 7.10651C11.2299 7.1029 11.2291 7.09903 11.2291 7.09511C11.2291 7.09119 11.2299 7.0873 11.2314 7.08366C11.2329 7.08003 11.2351 7.07672 11.2379 7.07392C12.6881 5.62303 14.1375 4.17368 15.5862 2.72588C15.6431 2.66896 15.7049 2.61368 15.7047 2.52654C15.7044 2.37541 15.5366 2.27492 15.4076 2.35852Z" fill="#C6C7C6"/>
<path d="M3.37689 13.4175L6.31762 10.4781C6.32292 10.4729 6.33006 10.47 6.3375 10.47C6.34493 10.47 6.35208 10.4729 6.35737 10.4781L7.52424 11.6455C7.52668 11.648 7.52861 11.6509 7.52993 11.654C7.53125 11.6572 7.53193 11.6606 7.53193 11.6641C7.53193 11.6675 7.53125 11.6709 7.52993 11.6741C7.52861 11.6773 7.52668 11.6801 7.52424 11.6826L4.58107 14.6249C4.57308 14.6329 4.57163 14.6421 4.57671 14.6524C4.70851 14.9189 4.75462 15.1894 4.71504 15.4637C4.67855 15.7155 4.57671 15.9561 4.40951 16.1856C3.99423 16.7555 3.35973 17.1632 2.70346 17.4949C2.37849 17.6592 2.0391 17.8046 1.68527 17.9311C1.67675 17.9342 1.66751 17.9348 1.65863 17.9327C1.64975 17.9307 1.64161 17.9262 1.63517 17.9197C1.13393 17.4182 0.618797 16.9032 0.0897799 16.3746C0.0681762 16.353 0.0626392 16.3278 0.0731687 16.2991C0.254349 15.7986 0.471656 15.3282 0.72509 14.888C1.01374 14.3867 1.36639 13.915 1.8315 13.5776C2.09892 13.3835 2.44666 13.2566 2.77399 13.2721C2.97042 13.2813 3.16167 13.3314 3.34775 13.4224C3.35865 13.4278 3.36836 13.4262 3.37689 13.4175Z" fill="#C6C7C6"/>
</g>
<defs>
<clipPath id="clip0_219_2763">
<rect width="18" height="18" fill="white"/>
</clipPath>
</defs>
</svg>
