<svg width="20" height="20" viewBox="0 0 20 20" fill="none" xmlns="http://www.w3.org/2000/svg">
<g filter="url(#filter0_d_219_2734)">
<path d="M11.725 17.6429H5.54689L5.54975 9.72877C5.54975 9.70235 5.54011 9.67702 5.52295 9.65834C5.5058 9.63966 5.48253 9.62916 5.45826 9.62916H0.282158C0.188767 9.62916 0.174948 9.59285 0.240704 9.52022L8.58451 0.38594C8.61882 0.34755 8.6536 0.34755 8.68886 0.38594L17.0527 9.54356C17.0592 9.55044 17.0637 9.55927 17.0656 9.56894C17.0675 9.57861 17.0667 9.58868 17.0633 9.59786C17.06 9.60704 17.0542 9.61492 17.0467 9.62049C17.0392 9.62607 17.0303 9.62908 17.0212 9.62916H11.7751C11.7614 9.62916 11.7483 9.63506 11.7387 9.64557C11.729 9.65608 11.7236 9.67033 11.7236 9.68519L11.725 17.6429Z" fill="#1E1E1E"/>
</g>
<defs>
<filter id="filter0_d_219_2734" x="0.199951" y="0.357147" width="19.7667" height="19.1857" filterUnits="userSpaceOnUse" color-interpolation-filters="sRGB">
<feFlood flood-opacity="0" result="BackgroundImageFix"/>
<feColorMatrix in="SourceAlpha" type="matrix" values="0 0 0 0 0 0 0 0 0 0 0 0 0 0 0 0 0 0 127 0" result="hardAlpha"/>
<feOffset dx="2" dy="1"/>
<feGaussianBlur stdDeviation="0.45"/>
<feComposite in2="hardAlpha" operator="out"/>
<feColorMatrix type="matrix" values="0 0 0 0 0 0 0 0 0 0 0 0 0 0 0 0 0 0 0.33 0"/>
<feBlend mode="normal" in2="BackgroundImageFix" result="effect1_dropShadow_219_2734"/>
<feBlend mode="normal" in="SourceGraphic" in2="effect1_dropShadow_219_2734" result="shape"/>
</filter>
</defs>
</svg>
