<svg width="30" height="30" viewBox="0 0 30 30" fill="none" xmlns="http://www.w3.org/2000/svg">
<g clip-path="url(#clip0_360_1889)">
<path d="M0.5 0.5V29.5H29.5V0.5H0.5Z" stroke="#727372"/>
<path d="M23.5136 7.96947C23.5199 7.76906 23.5212 7.54472 23.5175 7.29645C23.5161 7.19706 23.5262 7.12935 23.5478 7.0933C23.5893 7.02364 23.6614 6.99299 23.7643 7.00134C23.8386 7.00725 23.8955 7.01937 23.9351 7.0377C24.0581 7.09513 24.1903 7.16998 24.3315 7.26224C24.6715 7.48403 25.0019 7.72222 25.3227 7.9768C25.3305 7.98311 25.3393 7.98627 25.3491 7.98627C25.8409 7.98729 26.2565 7.98729 26.5959 7.98627C26.67 7.98596 26.7015 7.98169 26.7655 8.02201C27.0352 8.19309 27.199 8.48026 27.2516 8.79187C27.2663 8.87904 27.275 8.98545 27.2776 9.11112C27.2778 9.12476 27.2782 9.64849 27.2789 10.6823C27.2788 10.685 27.2779 10.6877 27.2761 10.6897C27.2744 10.6918 27.272 10.6932 27.2694 10.6936C27.1688 10.7103 27.0739 10.7361 26.9847 10.7709C26.7567 10.8599 26.5999 11.0151 26.5142 11.2365C26.4811 11.3214 26.4646 11.4447 26.4646 11.6064C26.4644 11.9983 26.4655 12.2582 26.4679 12.3861C26.4692 12.4555 26.4658 12.5003 26.4578 12.5205C26.3887 12.6919 26.2203 12.7621 26.0501 12.8211C25.9889 12.8421 25.9142 12.8587 25.826 12.8709C25.6331 12.8978 25.4154 12.9112 25.1727 12.9112C24.0364 12.9112 22.2892 12.9113 19.931 12.9115C19.8788 12.9115 19.8032 12.9049 19.7045 12.8917C19.6053 12.8786 19.5159 12.8817 19.4363 12.9008C19.2028 12.957 19.0444 13.0972 18.9609 13.3212C18.9123 13.4511 18.8871 13.5902 18.8853 13.7385C18.8824 13.9607 18.8815 14.7 18.8825 15.9564C18.8827 16.0067 18.8718 16.0521 18.8498 16.0924C18.7108 16.3466 18.4907 16.5525 18.213 16.627C18.1281 16.6496 17.9611 16.6609 17.7119 16.6609C15.5197 16.6607 14.2637 16.661 13.9439 16.6618C13.8353 16.662 13.741 16.6531 13.661 16.6349C13.4522 16.5877 13.2218 16.5431 12.9698 16.5011C12.7853 16.4706 12.6554 16.4649 12.5801 16.484C12.4291 16.5225 12.3005 16.5976 12.1944 16.7092C12.1005 16.8078 12.0209 16.9268 11.9556 17.0663C11.8587 17.2734 11.792 17.4895 11.7557 17.7146C11.751 17.7439 11.7322 17.8181 11.6994 17.9373C11.6775 18.0167 11.6547 18.0897 11.6308 18.1563C11.5283 18.4427 11.4195 18.7243 11.3042 19.001C11.3035 19.0026 11.3025 19.004 11.301 19.005C11.2996 19.006 11.2979 19.0065 11.2962 19.0065L4.32672 19.0056C4.31488 19.0056 4.31141 19.0002 4.31631 18.9894C4.64162 18.2656 5.25427 16.9078 6.15427 14.9159C6.18815 14.8412 6.21253 14.7787 6.22743 14.7286C6.25723 14.6299 6.27662 14.5651 6.28559 14.5343C6.36335 14.2673 6.39855 13.9915 6.39121 13.7067C6.38876 13.6086 6.36998 13.4897 6.33488 13.3502C6.30998 13.251 6.2608 13.146 6.18733 13.0353C6.13059 12.9495 6.05151 12.8677 5.95008 12.7899C5.59641 12.5187 5.18672 12.372 4.721 12.35C4.55753 12.3424 4.40723 12.3775 4.2508 12.3873C4.10723 12.3961 3.89141 12.3494 3.80233 12.2226C3.7607 12.1632 3.73529 12.0983 3.72611 12.028C3.71468 11.9398 3.71702 11.8636 3.73315 11.7992C3.75917 11.6962 3.77172 11.6144 3.8057 11.5337C3.87243 11.3753 3.94835 11.2562 4.03345 11.1766C4.04284 11.1678 4.11488 11.0998 4.24957 10.9725C4.39223 10.8377 4.46427 10.6769 4.4657 10.4901C4.46998 9.93291 4.47141 9.49686 4.46998 9.18199C4.46998 9.15287 4.46468 9.05857 4.45406 8.8991C4.44447 8.75633 4.45539 8.62772 4.48682 8.51326C4.55315 8.2713 4.68978 8.11071 4.89672 8.03148C4.97794 8.00053 5.14559 7.98505 5.39968 7.98505C12.0946 7.9879 18.127 7.988 23.497 7.98535C23.5076 7.98535 23.5131 7.98006 23.5136 7.96947ZM14.7713 15.1172C14.6754 15.2068 14.5654 15.2457 14.4413 15.2339C14.272 15.2177 14.1184 15.0479 14.0351 14.9046C13.9496 14.758 13.8808 14.5939 13.8288 14.4124C13.7249 14.0505 13.6448 13.6642 13.5885 13.2534C13.5881 13.2507 13.587 13.2481 13.5854 13.246C13.5837 13.2438 13.5815 13.2422 13.579 13.2411C13.5765 13.2401 13.5738 13.2397 13.5711 13.24C13.5684 13.2403 13.5658 13.2414 13.5637 13.243C13.3755 13.3823 13.2331 13.5602 13.1366 13.7767C12.974 14.1409 12.9351 14.5123 13.02 14.8912C13.1035 15.2631 13.3033 15.5437 13.6197 15.7331C13.7085 15.7863 13.7689 15.8128 13.8009 15.8128C14.1993 15.8135 15.1795 15.8134 16.7415 15.8125C16.897 15.8125 17.0688 15.796 17.2129 15.7728C17.398 15.7433 17.5652 15.6877 17.7144 15.606C17.9063 15.5009 18.0453 15.3344 18.0453 15.1191C18.0449 14.425 18.0451 14.054 18.0459 14.0061C18.05 13.8045 18.0375 13.6541 18.0086 13.5549C17.9228 13.2635 17.741 13.0539 17.4523 12.9531C17.3109 12.9038 17.1828 12.879 17.0681 12.8788C15.5016 12.8784 14.6491 12.8787 14.5105 12.8798C14.5058 12.8797 14.5012 12.8814 14.4977 12.8846C14.4941 12.8878 14.4918 12.8921 14.4912 12.8969C14.4492 13.2429 14.4429 13.5866 14.4725 13.9279C14.4729 13.9326 14.4805 13.9745 14.4952 14.0535C14.5013 14.0871 14.5118 14.128 14.5267 14.1763C14.6245 14.4946 14.7082 14.8007 14.778 15.0946C14.7791 15.0987 14.779 15.103 14.7778 15.1069C14.7766 15.1109 14.7744 15.1145 14.7713 15.1172Z" fill="#777777"/>
<path d="M4.1996 19.2516L11.1878 19.2513C11.1897 19.2513 11.1917 19.2518 11.1934 19.2528C11.1951 19.2537 11.1966 19.2551 11.1977 19.2568C11.1987 19.2584 11.1994 19.2603 11.1995 19.2623C11.1996 19.2643 11.1993 19.2663 11.1985 19.2681L10.379 21.0769C10.3781 21.079 10.3766 21.0807 10.3747 21.082C10.3728 21.0832 10.3705 21.0839 10.3683 21.0839L3.38042 21.0842C3.37844 21.0842 3.3765 21.0837 3.37477 21.0827C3.37304 21.0818 3.37158 21.0804 3.37052 21.0787C3.36946 21.0771 3.36883 21.0752 3.36868 21.0732C3.36854 21.0712 3.36889 21.0692 3.3697 21.0674L4.18889 19.2586C4.18982 19.2565 4.19132 19.2548 4.19322 19.2535C4.19512 19.2523 4.19733 19.2516 4.1996 19.2516Z" fill="#777777"/>
<path d="M10.1257 22.5234C10.1465 22.634 10.1959 22.7407 10.2739 22.8436C10.3244 22.9099 10.4211 22.9517 10.4652 23.0037C10.5172 23.065 10.549 23.1274 10.5604 23.1909C10.5714 23.2525 10.569 23.3203 10.5531 23.3944C10.5049 23.6195 10.3837 23.8148 10.1894 23.9804C10.079 24.0745 9.95377 24.1202 9.81377 24.1175C9.72826 24.1159 9.52275 24.0927 9.19724 24.0479C8.84255 23.9992 8.3499 23.9215 7.71929 23.8148C6.51929 23.6119 5.34724 23.4056 4.20316 23.1958C4.0801 23.1734 3.97612 23.1424 3.89122 23.1027C3.69184 23.0102 3.51377 22.8953 3.35704 22.7581C3.17724 22.6006 3.065 22.4239 3.02031 22.228C2.975 22.0294 3.00551 21.8257 3.11184 21.6167C3.11633 21.6078 3.12357 21.6033 3.13357 21.6033H10.1037C10.1064 21.6033 10.1091 21.6039 10.1116 21.605C10.1141 21.6062 10.1163 21.6079 10.118 21.61C10.1198 21.6122 10.121 21.6147 10.1217 21.6174C10.1224 21.62 10.1225 21.6228 10.122 21.6256C10.068 21.9237 10.0692 22.223 10.1257 22.5234Z" fill="#777777"/>
</g>
<defs>
<clipPath id="clip0_360_1889">
<rect width="30" height="30" fill="white"/>
</clipPath>
</defs>
</svg>
