<svg width="297" height="262" viewBox="0 0 297 262" fill="none" xmlns="http://www.w3.org/2000/svg">
<path d="M155.595 127.517C155.602 127.522 155.611 127.525 155.62 127.527C155.63 127.528 155.639 127.528 155.648 127.526C155.657 127.524 155.666 127.52 155.674 127.514C155.681 127.508 155.688 127.501 155.693 127.493L177.271 90.3149C177.321 90.2283 177.296 90.1849 177.195 90.1849C155.247 90.2018 136.135 90.2013 119.861 90.1832C119.678 90.1821 119.569 90.1877 119.532 90.2001C119.502 90.2098 119.475 90.2259 119.452 90.2472C119.429 90.2685 119.411 90.2945 119.4 90.3234C119.389 90.3522 119.384 90.383 119.386 90.4137C119.389 90.4444 119.398 90.4741 119.413 90.5006L140.682 127.551C140.686 127.558 140.691 127.564 140.698 127.569C140.704 127.574 140.711 127.578 140.719 127.58C140.727 127.582 140.735 127.583 140.743 127.582C140.75 127.581 140.758 127.578 140.765 127.574C141.424 127.192 142.12 126.861 142.853 126.582C146.277 125.278 149.714 125.217 153.163 126.398C154.134 126.73 154.945 127.103 155.595 127.517Z" stroke="#8E7C2B" stroke-width="2"/>
<path d="M156.397 140.503C156.397 138.346 155.54 136.277 154.013 134.752C152.486 133.226 150.416 132.369 148.257 132.369C146.098 132.369 144.027 133.226 142.5 134.752C140.974 136.277 140.116 138.346 140.116 140.503C140.116 142.661 140.974 144.73 142.5 146.255C144.027 147.781 146.098 148.638 148.257 148.638C150.416 148.638 152.486 147.781 154.013 146.255C155.54 144.73 156.397 142.661 156.397 140.503Z" stroke="#8E7C2B" stroke-width="2"/>
<path d="M155.911 153.475L177.585 190.589C177.62 190.647 177.654 190.647 177.688 190.589L206.548 140.591C206.553 140.583 206.555 140.575 206.555 140.566C206.555 140.557 206.553 140.548 206.549 140.54C206.545 140.532 206.538 140.526 206.531 140.522C206.523 140.517 206.515 140.515 206.506 140.515L163.311 140.74C163.239 140.74 163.201 140.776 163.196 140.848C163.162 141.329 163.147 141.905 163.093 142.29C162.414 147.072 160.031 150.752 155.946 153.329C155.923 153.344 155.906 153.368 155.899 153.395C155.892 153.422 155.897 153.451 155.911 153.475Z" stroke="#8E7C2B" stroke-width="2"/>
<path d="M119.337 190.614C119.338 190.617 119.34 190.62 119.343 190.622C119.345 190.623 119.348 190.625 119.351 190.625C119.354 190.626 119.358 190.626 119.361 190.624C119.364 190.623 119.367 190.622 119.369 190.619C119.428 190.555 119.481 190.48 119.53 190.395C119.538 190.382 126.559 178.075 140.593 153.473C140.608 153.445 140.613 153.413 140.605 153.382C140.597 153.351 140.577 153.324 140.55 153.308C137.703 151.561 135.653 149.146 134.4 146.063C133.704 144.349 133.34 142.537 133.307 140.628C133.306 140.614 133.3 140.601 133.29 140.591C133.28 140.581 133.266 140.576 133.251 140.576L90.6763 140.79C90.6744 140.79 90.6725 140.791 90.6708 140.792C90.6691 140.793 90.6677 140.794 90.6667 140.796C90.6657 140.798 90.6651 140.8 90.6651 140.802C90.665 140.804 90.6653 140.806 90.6662 140.807C90.6943 140.87 90.7225 140.939 90.7507 141.013C90.7518 141.019 100.197 157.383 119.087 190.104C119.173 190.251 119.256 190.421 119.337 190.614Z" stroke="#8E7C2B" stroke-width="2"/>
<path d="M148.527 82.0979C159.686 82.0979 170.867 82.0996 182.071 82.103C182.108 82.103 182.144 82.1127 182.177 82.131C182.209 82.1494 182.236 82.1758 182.255 82.2077C193.458 101.607 204.662 121.019 215.866 140.443C215.872 140.453 215.875 140.477 215.876 140.515C215.875 140.553 215.872 140.578 215.866 140.588C204.661 160.01 193.455 179.421 182.25 198.819C182.231 198.851 182.204 198.878 182.172 198.896C182.139 198.914 182.103 198.924 182.066 198.924C170.862 198.926 159.681 198.927 148.522 198.926C137.362 198.926 126.181 198.924 114.978 198.921C114.941 198.921 114.904 198.911 114.872 198.893C114.84 198.874 114.813 198.848 114.794 198.816C103.59 179.416 92.3867 160.005 81.1823 140.581C81.1766 140.571 81.1738 140.547 81.1738 140.508C81.1738 140.47 81.1766 140.446 81.1823 140.436C92.3889 121.014 103.594 101.603 114.799 82.2043C114.818 82.1724 114.845 82.146 114.877 82.1276C114.909 82.1093 114.946 82.0996 114.983 82.0996C126.186 82.0974 137.368 82.0968 148.527 82.0979ZM155.594 127.517C155.602 127.522 155.611 127.525 155.62 127.527C155.629 127.528 155.639 127.528 155.648 127.526C155.657 127.524 155.666 127.52 155.673 127.514C155.681 127.508 155.688 127.501 155.692 127.493L177.271 90.3149C177.321 90.2283 177.296 90.1849 177.194 90.1849C155.246 90.2018 136.135 90.2012 119.861 90.1832C119.678 90.1821 119.569 90.1877 119.531 90.2001C119.502 90.2098 119.475 90.2259 119.452 90.2472C119.429 90.2685 119.411 90.2945 119.4 90.3233C119.389 90.3522 119.384 90.383 119.386 90.4137C119.389 90.4444 119.398 90.4741 119.413 90.5006L140.682 127.551C140.686 127.558 140.691 127.564 140.698 127.569C140.704 127.574 140.711 127.578 140.719 127.58C140.727 127.582 140.735 127.583 140.742 127.582C140.75 127.581 140.758 127.578 140.765 127.574C141.424 127.192 142.12 126.861 142.853 126.582C146.277 125.278 149.714 125.217 153.163 126.398C154.134 126.73 154.945 127.103 155.594 127.517ZM156.397 140.503C156.397 138.346 155.539 136.277 154.013 134.752C152.486 133.226 150.415 132.369 148.256 132.369C146.097 132.369 144.027 133.226 142.5 134.752C140.974 136.277 140.116 138.346 140.116 140.503C140.116 142.661 140.974 144.73 142.5 146.255C144.027 147.781 146.097 148.638 148.256 148.638C150.415 148.638 152.486 147.781 154.013 146.255C155.539 144.73 156.397 142.661 156.397 140.503ZM155.91 153.475L177.585 190.589C177.62 190.647 177.654 190.647 177.688 190.589L206.548 140.591C206.553 140.583 206.555 140.575 206.555 140.566C206.555 140.557 206.553 140.548 206.549 140.54C206.545 140.532 206.538 140.526 206.531 140.522C206.523 140.517 206.515 140.515 206.506 140.515L163.311 140.74C163.239 140.74 163.201 140.776 163.196 140.848C163.162 141.329 163.147 141.905 163.093 142.29C162.414 147.072 160.031 150.752 155.946 153.329C155.922 153.344 155.906 153.368 155.899 153.395C155.892 153.422 155.896 153.451 155.91 153.475ZM119.337 190.614C119.338 190.617 119.34 190.62 119.342 190.622C119.345 190.623 119.348 190.625 119.351 190.625C119.354 190.626 119.358 190.625 119.361 190.624C119.364 190.623 119.367 190.622 119.369 190.619C119.428 190.555 119.481 190.48 119.53 190.395C119.538 190.382 126.558 178.075 140.592 153.473C140.608 153.445 140.612 153.413 140.605 153.382C140.597 153.351 140.577 153.324 140.55 153.308C137.703 151.561 135.653 149.146 134.4 146.063C133.704 144.349 133.339 142.537 133.307 140.628C133.306 140.614 133.3 140.601 133.29 140.591C133.279 140.581 133.266 140.576 133.251 140.576L90.6762 140.79C90.6743 140.79 90.6724 140.791 90.6707 140.792C90.669 140.793 90.6676 140.794 90.6666 140.796C90.6656 140.798 90.665 140.8 90.6649 140.802C90.6648 140.804 90.6652 140.806 90.6661 140.807C90.6942 140.87 90.7224 140.939 90.7505 141.013C90.7517 141.019 100.197 157.383 119.087 190.104C119.173 190.251 119.256 190.421 119.337 190.614Z" fill="#1F1F1F"/>
<g filter="url(#filter0_d_665_9200)">
<path d="M155.595 127.517C154.945 127.103 154.134 126.73 153.163 126.398C149.714 125.217 146.277 125.278 142.853 126.582C142.12 126.861 141.424 127.192 140.765 127.574C140.758 127.578 140.75 127.581 140.743 127.582C140.735 127.583 140.727 127.582 140.719 127.58C140.711 127.578 140.704 127.574 140.698 127.569C140.691 127.564 140.686 127.558 140.682 127.551L119.413 90.5006C119.398 90.4741 119.389 90.4444 119.386 90.4137C119.384 90.383 119.389 90.3522 119.4 90.3234C119.411 90.2945 119.429 90.2685 119.452 90.2472C119.475 90.2259 119.502 90.2098 119.532 90.2001C119.569 90.1877 119.678 90.1821 119.861 90.1832C136.135 90.2013 155.247 90.2018 177.195 90.1849C177.296 90.1849 177.321 90.2283 177.271 90.3149L155.693 127.493C155.688 127.501 155.681 127.508 155.674 127.514C155.666 127.52 155.657 127.524 155.648 127.526C155.639 127.528 155.63 127.528 155.62 127.527C155.611 127.525 155.602 127.522 155.595 127.517Z" fill="#F9D323"/>
<path d="M148.257 148.638C152.753 148.638 156.397 144.996 156.397 140.503C156.397 136.011 152.753 132.369 148.257 132.369C143.761 132.369 140.116 136.011 140.116 140.503C140.116 144.996 143.761 148.638 148.257 148.638Z" fill="#F9D323"/>
<path d="M155.911 153.475C155.897 153.451 155.892 153.422 155.899 153.395C155.906 153.368 155.923 153.344 155.946 153.329C160.031 150.752 162.414 147.072 163.093 142.29C163.147 141.905 163.162 141.329 163.196 140.848C163.201 140.776 163.239 140.74 163.311 140.74L206.506 140.515C206.515 140.515 206.523 140.517 206.531 140.522C206.538 140.526 206.545 140.532 206.549 140.54C206.553 140.548 206.555 140.557 206.555 140.566C206.555 140.575 206.553 140.583 206.548 140.591L177.688 190.589C177.654 190.647 177.62 190.647 177.585 190.589L155.911 153.475Z" fill="#F9D323"/>
<path d="M119.337 190.614C119.256 190.421 119.173 190.251 119.087 190.104C100.197 157.383 90.7518 141.019 90.7507 141.013C90.7225 140.939 90.6943 140.87 90.6662 140.807C90.6653 140.806 90.665 140.804 90.6651 140.802C90.6651 140.8 90.6657 140.798 90.6667 140.796C90.6677 140.794 90.6691 140.793 90.6708 140.792C90.6725 140.791 90.6744 140.79 90.6763 140.79L133.251 140.576C133.266 140.576 133.28 140.581 133.29 140.591C133.3 140.601 133.306 140.614 133.307 140.628C133.34 142.537 133.704 144.349 134.4 146.063C135.653 149.146 137.703 151.561 140.55 153.308C140.577 153.324 140.597 153.351 140.605 153.382C140.613 153.413 140.608 153.445 140.593 153.473C126.559 178.075 119.538 190.382 119.53 190.395C119.481 190.48 119.428 190.555 119.369 190.619C119.367 190.622 119.364 190.623 119.361 190.624C119.358 190.625 119.354 190.626 119.351 190.625C119.348 190.625 119.345 190.624 119.343 190.622C119.34 190.62 119.338 190.617 119.337 190.614Z" fill="#F9D323"/>
</g>
<defs>
<filter id="filter0_d_665_9200" x="0.565041" y="0.083107" width="296.09" height="280.65" filterUnits="userSpaceOnUse" color-interpolation-filters="sRGB">
<feFlood flood-opacity="0" result="BackgroundImageFix"/>
<feColorMatrix in="SourceAlpha" type="matrix" values="0 0 0 0 0 0 0 0 0 0 0 0 0 0 0 0 0 0 127 0" result="hardAlpha"/>
<feOffset/>
<feGaussianBlur stdDeviation="45.05"/>
<feComposite in2="hardAlpha" operator="out"/>
<feColorMatrix type="matrix" values="0 0 0 0 0.976471 0 0 0 0 0.827451 0 0 0 0 0.137255 0 0 0 0.78 0"/>
<feBlend mode="normal" in2="BackgroundImageFix" result="effect1_dropShadow_665_9200"/>
<feBlend mode="normal" in="SourceGraphic" in2="effect1_dropShadow_665_9200" result="shape"/>
</filter>
</defs>
</svg>
