<svg width="17" height="19" viewBox="0 0 17 19" fill="none" xmlns="http://www.w3.org/2000/svg">
<g clip-path="url(#clip0_219_2784)">
<path d="M9.25653 0.52641C9.45164 0.567265 9.63598 0.619658 9.80954 0.683589C9.90591 0.719145 10.0038 0.757606 10.1032 0.798974C10.1056 0.799948 10.1077 0.801641 10.1091 0.803835C10.1106 0.806028 10.1114 0.808622 10.1114 0.811282C10.1107 1.18667 10.111 1.6112 10.1124 2.08487C10.1127 2.18179 10.1191 2.27974 10.1315 2.37872C10.1648 2.64564 10.5361 2.7141 10.6687 2.49923C10.6957 2.45547 10.7109 2.37889 10.7143 2.26949C10.7251 1.9006 10.731 1.53444 10.7318 1.17103C10.7318 1.16931 10.7322 1.16762 10.7331 1.16614C10.7339 1.16466 10.7352 1.16346 10.7367 1.16266C10.7382 1.16186 10.7399 1.1615 10.7416 1.16162C10.7433 1.16174 10.7449 1.16233 10.7463 1.16333C11.7337 1.85538 12.3751 2.95077 12.5227 4.13872C12.5352 4.2394 12.5452 4.34222 12.5527 4.44718C12.5534 4.45692 12.5577 4.4647 12.5657 4.47051C12.7292 4.59068 12.8674 4.7012 12.9802 4.80205C13.049 4.86342 13.0933 4.92325 13.1133 4.98154C13.1653 5.13154 13.092 5.2641 12.9874 5.38C12.7588 5.6341 12.4359 5.81641 12.1101 5.94615C11.847 6.05077 11.5713 6.13547 11.283 6.20026C10.807 6.30709 10.3267 6.37974 9.84212 6.4182C9.71232 6.42863 9.58313 6.43607 9.45453 6.44051C9.4418 6.44102 9.42899 6.44137 9.4161 6.44154C8.95174 6.45026 8.46608 6.45051 7.95914 6.44231C7.94336 6.44205 7.9314 6.43564 7.91536 6.43538C7.68581 6.43367 7.43319 6.42658 7.15749 6.4141C7.13611 6.41308 7.11482 6.41197 7.09361 6.41077C6.74513 6.39111 6.45043 6.35949 6.20951 6.3159C6.04918 6.28684 5.8886 6.25453 5.72776 6.21897C5.68755 6.20991 5.64946 6.20034 5.61349 6.19026C5.57498 6.17932 5.53664 6.16966 5.49846 6.16128C5.43908 6.14812 5.30522 6.10684 5.09688 6.03744C4.85477 5.95692 4.62157 5.85017 4.39728 5.71718C4.13821 5.56333 3.86616 5.31359 3.86183 4.99897C3.86115 4.94991 3.8849 4.9012 3.93309 4.85282C4.08392 4.70137 4.2322 4.5594 4.37794 4.42692C4.38472 4.42077 4.38863 4.41316 4.38965 4.4041C4.4067 4.25795 4.41077 4.09872 4.43138 3.96487C4.47312 3.69581 4.54175 3.43769 4.63726 3.19051C4.96827 2.33581 5.49855 1.6541 6.22809 1.14538C6.22945 1.14447 6.23103 1.14393 6.23267 1.14384C6.23431 1.14375 6.23594 1.1441 6.23739 1.14486C6.23885 1.14562 6.24008 1.14676 6.24095 1.14816C6.24182 1.14956 6.2423 1.15117 6.24234 1.15282C6.24879 1.44974 6.25481 1.73701 6.26041 2.01462C6.26117 2.04795 6.27237 2.07795 6.27186 2.11077C6.26932 2.23949 6.27899 2.34667 6.30087 2.43231C6.33022 2.54632 6.41285 2.60855 6.54875 2.61897C6.6614 2.62769 6.74937 2.58718 6.81265 2.49744C6.8471 2.44855 6.86712 2.37103 6.87271 2.26487C6.87679 2.18521 6.87899 2.10607 6.87933 2.02744C6.88103 1.57991 6.8812 1.16556 6.87984 0.784359C6.87984 0.775299 6.88408 0.769145 6.89256 0.765897C7.12415 0.680769 7.35048 0.606837 7.57155 0.544102C7.6087 0.533333 7.65706 0.533589 7.69116 0.519743C7.70389 0.514479 7.71496 0.505797 7.72317 0.494636C7.73138 0.483475 7.73641 0.470258 7.73773 0.45641C7.74664 0.363076 7.73009 0.250769 7.78201 0.171794C7.88508 0.0148714 7.99935 0.00897393 8.1892 0.0128201C8.42248 0.0176064 8.66094 0.0207688 8.90457 0.0223073C8.96599 0.0228201 9.02308 0.0353842 9.07584 0.0599996C9.11962 0.0805124 9.21938 0.172051 9.2293 0.23923C9.23363 0.268974 9.2461 0.294102 9.24635 0.324359C9.24686 0.391196 9.24745 0.455128 9.24813 0.516153C9.24815 0.518612 9.24899 0.520985 9.25053 0.522859C9.25206 0.524733 9.25419 0.52599 9.25653 0.52641Z" fill="#C6C7C6"/>
<path d="M4.58974 8.51923C4.43433 8.04504 4.38326 7.6012 4.43654 7.18769C4.46428 6.97333 4.52841 6.75282 4.67372 6.59795C4.67971 6.59146 4.68727 6.58665 4.69566 6.584C4.70405 6.58135 4.71298 6.58094 4.72157 6.58282C4.7762 6.59479 4.82862 6.60872 4.87884 6.62461C5.09075 6.69179 5.29858 6.74649 5.50235 6.78872C6.06392 6.90479 6.64908 6.9912 7.25782 7.04795C7.37455 7.05889 7.49136 7.06513 7.60826 7.06667C7.61708 7.06684 7.62539 7.0688 7.6332 7.07256C7.63982 7.07581 7.64669 7.07752 7.65381 7.07769C7.9872 7.08675 8.36062 7.08991 8.77408 7.08718C8.77408 7.08718 8.77417 7.08718 8.77434 7.08718C9.53526 7.06906 10.279 6.99684 11.0055 6.87051C11.3818 6.80521 11.7527 6.71718 12.1183 6.60641C12.1638 6.59273 12.22 6.59111 12.2868 6.60154C12.4082 6.62051 12.5103 6.98359 12.5294 7.08872C12.5582 7.24837 12.5676 7.41667 12.5576 7.59359C12.5276 8.12846 12.3985 8.60393 12.1705 9.02C12.0261 9.28308 11.8438 9.53914 11.6236 9.7882C11.5912 9.82461 11.548 9.89769 11.4941 10.0074C11.434 10.1292 11.3811 10.3092 11.3172 10.4574C11.0319 11.1203 10.5911 11.6969 9.99869 12.1005C9.68703 12.3126 9.36238 12.4559 9.02476 12.5303C8.67458 12.6075 8.32448 12.6096 7.97447 12.5364C7.81228 12.5026 7.65101 12.4506 7.49068 12.3805C6.65443 12.0154 6.01158 11.28 5.65886 10.4369C5.60745 10.314 5.55766 10.1876 5.50947 10.0577C5.45883 9.92179 5.36568 9.7959 5.2705 9.68231C5.02959 9.39478 4.83583 9.09171 4.68925 8.77308C4.65107 8.69 4.6179 8.60538 4.58974 8.51923Z" fill="#C6C7C6"/>
<path d="M7.78556 12.9792C8.32491 13.1066 8.8512 13.0908 9.36442 12.9318C10.1536 12.6874 10.8596 12.1062 11.3609 11.4313C11.3718 11.4169 11.3854 11.4132 11.4019 11.42L12.0577 11.6897C12.0655 11.693 12.0694 11.6989 12.0694 11.7074L12.0684 15.4018C12.0684 15.4107 12.0639 15.4151 12.0549 15.4151L4.9261 15.4128C4.91693 15.4128 4.91235 15.4082 4.91235 15.399L4.91363 11.7051C4.91363 11.6966 4.91744 11.6908 4.92508 11.6877L5.57887 11.419C5.59685 11.4116 5.61161 11.4158 5.62315 11.4315C6.06011 12.0162 6.61592 12.5018 7.27836 12.8026C7.45328 12.8819 7.62234 12.9408 7.78556 12.9792Z" fill="#C6C7C6"/>
<path d="M1.88445 18.3882C1.87139 18.3884 1.85858 18.387 1.84602 18.3841C1.53436 18.3115 1.19071 18.2142 0.815081 18.0923C0.597236 18.0215 0.393304 17.9448 0.203284 17.8621C0.0938532 17.8144 0.0233592 17.7415 0.0134341 17.6123C0.00698696 17.527 0.00452688 17.447 0.00605383 17.3723C0.0125009 17.0602 0.0478752 16.7456 0.112177 16.4287C0.253674 15.7321 0.486872 15.0779 0.811772 14.4659C0.886084 14.3261 0.981942 14.1708 1.09935 14C1.45869 13.478 1.92492 13.0908 2.47971 12.7785C2.83752 12.5771 3.22053 12.3953 3.62873 12.2331C3.64265 12.2274 3.65147 12.2319 3.6552 12.2464C3.66105 12.268 3.672 12.2918 3.67301 12.3136C3.68031 12.4844 3.6843 12.6555 3.68498 12.8269C3.6882 13.6939 3.68896 14.5445 3.68727 15.3787C3.68727 15.3866 3.68345 15.3905 3.67581 15.3905C3.38926 15.3941 3.07751 15.4041 2.80673 15.4903C2.51508 15.5827 2.29452 15.7612 2.14505 16.0256C2.08889 16.1248 2.03112 16.2363 1.97174 16.3603C1.9563 16.3926 1.94858 16.4243 1.94858 16.4554C1.94791 17.0434 1.93917 17.6333 1.92237 18.2249C1.92084 18.2772 1.91194 18.3288 1.89565 18.3797C1.89494 18.3822 1.89346 18.3843 1.89144 18.3858C1.88943 18.3874 1.88697 18.3882 1.88445 18.3882Z" fill="#C6C7C6"/>
<path d="M14.3037 15.478C14.2132 15.4463 14.1163 15.4272 14.013 15.4205C13.7802 15.4056 13.5381 15.3982 13.2867 15.3982C13.2838 15.3982 13.281 15.397 13.279 15.395C13.2769 15.3929 13.2758 15.3901 13.2758 15.3872C13.2751 14.8838 13.2753 14.3664 13.2765 13.8351C13.2768 13.7951 13.2862 13.7577 13.2862 13.7174C13.2865 13.2262 13.2866 12.735 13.2865 12.2441C13.2865 12.2428 13.2868 12.2415 13.2873 12.2403C13.2879 12.2391 13.2887 12.238 13.2897 12.2371C13.2908 12.2363 13.2919 12.2357 13.2932 12.2353C13.2945 12.235 13.2958 12.2349 13.2971 12.2351C13.3796 12.2502 13.4576 12.2737 13.531 12.3056C13.8965 12.4639 14.2695 12.6502 14.6503 12.8644C14.7965 12.9468 14.9291 13.0351 15.048 13.1295C15.5496 13.5273 15.9485 14.0191 16.2449 14.6049C16.4283 14.9671 16.585 15.3659 16.715 15.8013C16.8235 16.1652 16.8999 16.5259 16.944 16.8833C16.9756 17.1375 16.9851 17.3763 16.9728 17.5997C16.9646 17.7467 16.8595 17.8341 16.7267 17.8851C16.6277 17.9233 16.5317 17.9669 16.4299 18.0008C16.304 18.0427 16.181 18.0836 16.0609 18.1236C16.0025 18.1429 15.9444 18.1607 15.8863 18.1769C15.8483 18.1875 15.8097 18.1999 15.7705 18.2141C15.7327 18.2278 15.6936 18.2399 15.6532 18.2505C15.5472 18.2782 15.4465 18.3077 15.3511 18.339C15.3158 18.3504 15.2778 18.3566 15.2371 18.3574C15.2335 18.3575 15.23 18.3562 15.2273 18.3539C15.2246 18.3515 15.2229 18.3482 15.2226 18.3446C15.2184 18.3062 15.2159 18.2677 15.2152 18.2292C15.2057 17.6834 15.1944 17.1464 15.1811 16.6182C15.1791 16.5382 15.1708 16.4571 15.1562 16.3749C15.1445 16.3084 15.1207 16.2392 15.0849 16.1674C14.9528 15.9023 14.759 15.7043 14.5037 15.5733C14.4403 15.5408 14.3711 15.5015 14.3037 15.478Z" fill="#C6C7C6"/>
<path d="M3.30602 18.6544C3.25411 18.6503 3.2083 18.6362 3.15664 18.6328C3.14629 18.6323 3.14111 18.6268 3.14111 18.6162L3.14137 16.6244C3.14137 16.616 3.14552 16.6118 3.15384 16.6118H13.9761C13.9857 16.6118 13.9906 16.6167 13.9906 16.6264V18.5705C13.9906 18.595 13.9786 18.6088 13.9547 18.6121C13.8437 18.6273 13.7318 18.6443 13.6188 18.6631C13.3536 18.7072 13.0826 18.7315 12.8192 18.7649C12.6522 18.7862 12.4874 18.8035 12.3247 18.8167C12.1509 18.8309 11.9853 18.846 11.8277 18.8621C11.6298 18.8822 11.4557 18.8934 11.3052 18.8956C11.2858 18.8959 11.2708 18.9044 11.253 18.9054C10.4948 18.9462 10.0014 18.9694 9.77289 18.9749C8.85825 18.9973 8.0628 18.9981 7.38653 18.9774C7.03754 18.9668 6.65021 18.9503 6.22453 18.9279C6.2146 18.9274 6.20697 18.9236 6.19679 18.9231C5.75787 18.9039 5.31879 18.874 4.87954 18.8333C4.72854 18.8193 4.59527 18.8062 4.47974 18.7938C4.22949 18.7674 3.96931 18.7385 3.69921 18.7072C3.63406 18.6997 3.56908 18.6903 3.50427 18.6792C3.4376 18.6678 3.37151 18.6595 3.30602 18.6544Z" fill="#C6C7C6"/>
</g>
<defs>
<clipPath id="clip0_219_2784">
<rect width="17" height="19" fill="white"/>
</clipPath>
</defs>
</svg>
