<?xml version="1.0" encoding="UTF-8"?>
<!DOCTYPE svg PUBLIC "-//W3C//DTD SVG 1.1//EN" "http://www.w3.org/Graphics/SVG/1.1/DTD/svg11.dtd">
<svg xmlns="http://www.w3.org/2000/svg" version="1.1" width="603px" height="603px" style="shape-rendering:geometricPrecision; text-rendering:geometricPrecision; image-rendering:optimizeQuality; fill-rule:evenodd; clip-rule:evenodd" xmlns:xlink="http://www.w3.org/1999/xlink">
<g><path style="opacity:0.956" fill="#fafcfa" d="M 280.5,-0.5 C 284.167,-0.5 287.833,-0.5 291.5,-0.5C 292.491,26.7593 292.824,54.0926 292.5,81.5C 260.447,80.6224 229.447,74.6224 199.5,63.5C 212.436,42.726 227.103,23.226 243.5,5C 255.943,2.91367 268.277,1.08034 280.5,-0.5 Z"/></g>
<g><path style="opacity:0.954" fill="#fafcfa" d="M 310.5,-0.5 C 313.167,-0.5 315.833,-0.5 318.5,-0.5C 318.833,0.833333 319.167,0.833333 319.5,-0.5C 319.833,-0.5 320.167,-0.5 320.5,-0.5C 320.833,0.833333 321.167,0.833333 321.5,-0.5C 321.833,-0.5 322.167,-0.5 322.5,-0.5C 333.088,1.0016 343.755,2.83493 354.5,5C 369.665,23.8324 383.665,43.499 396.5,64C 369.864,73.5282 342.364,79.3615 314,81.5C 312.564,81.4411 311.231,81.1078 310,80.5C 309.176,53.4279 309.343,26.4279 310.5,-0.5 Z"/></g>
<g><path style="opacity:0.897" fill="#fafcfa" d="M 382.5,12.5 C 382.917,11.8761 383.584,11.5427 384.5,11.5C 408.83,18.4998 431.83,28.4998 453.5,41.5C 445.961,46.1014 437.961,49.9347 429.5,53C 424.261,55.3038 418.928,56.9705 413.5,58C 403.695,42.3814 393.361,27.2147 382.5,12.5 Z"/></g>
<g><path style="opacity:0.884" fill="#fafcfa" d="M 211.5,12.5 C 212.573,13.2506 212.74,14.2506 212,15.5C 201.39,28.7774 191.557,42.6107 182.5,57C 177.687,56.5111 173.021,55.1778 168.5,53C 160.968,49.775 153.635,46.275 146.5,42.5C 167.098,30.0323 188.764,20.0323 211.5,12.5 Z"/></g>
<g><path style="opacity:0.971" fill="#fafcfa" d="M 470.5,53.5 C 472.783,53.6079 474.783,54.4412 476.5,56C 517.918,86.083 549.918,124.083 572.5,170C 538.502,170.5 504.502,170.667 470.5,170.5C 457.981,137.295 442.647,105.462 424.5,75C 439.956,68.1055 455.289,60.9389 470.5,53.5 Z"/></g>
<g><path style="opacity:0.97" fill="#fafcfa" d="M 127.5,54.5 C 142.539,60.9022 157.539,67.4022 172.5,74C 154.726,104.315 140.226,136.149 129,169.5C 95.9049,170.662 62.7382,170.829 29.5,170C 52.6588,123.348 85.3255,84.8484 127.5,54.5 Z"/></g>
<g><path style="opacity:0.975" fill="#fafcfa" d="M 189.5,79.5 C 222.514,91.0028 256.514,97.8361 291.5,100C 292.494,123.425 292.827,146.925 292.5,170.5C 244.162,170.833 195.829,170.5 147.5,169.5C 158.813,138.209 172.813,108.209 189.5,79.5 Z"/></g>
<g><path style="opacity:0.974" fill="#fafcfa" d="M 403.5,80.5 C 405.39,80.2965 406.89,80.9632 408,82.5C 424.066,110.632 438.566,139.632 451.5,169.5C 404.171,170.5 356.838,170.833 309.5,170.5C 309.5,146.833 309.5,123.167 309.5,99.5C 341.832,97.5005 373.165,91.1672 403.5,80.5 Z"/></g>
<g><path style="opacity:0.973" fill="#fafcfa" d="M -0.5,300.5 C -0.5,294.167 -0.5,287.833 -0.5,281.5C 2.42564,249.724 9.75897,218.89 21.5,189C 55.165,188.5 88.8317,188.333 122.5,188.5C 112.687,225.523 107.354,263.19 106.5,301.5C 70.7604,301.826 35.0938,301.493 -0.5,300.5 Z"/></g>
<g><path style="opacity:0.978" fill="#fafcfa" d="M 141.5,188.5 C 191.833,188.5 242.167,188.5 292.5,188.5C 292.83,226.073 292.496,263.573 291.5,301C 235.834,301.5 180.168,301.667 124.5,301.5C 124.829,263.241 130.496,225.575 141.5,188.5 Z"/></g>
<g><path style="opacity:0.978" fill="#fafcfa" d="M 309.5,188.5 C 359.168,188.333 408.834,188.5 458.5,189C 472.569,225.177 479.902,262.677 480.5,301.5C 423.832,301.667 367.166,301.5 310.5,301C 309.504,263.573 309.17,226.073 309.5,188.5 Z"/></g>
<g><path style="opacity:0.973" fill="#fafcfa" d="M 602.5,285.5 C 602.5,290.5 602.5,295.5 602.5,300.5C 568.238,301.659 533.905,301.826 499.5,301C 497.88,262.734 490.547,225.568 477.5,189.5C 511.828,188.333 546.162,188.167 580.5,189C 592.829,220.14 600.162,252.306 602.5,285.5 Z"/></g>
<g><path style="opacity:0.973" fill="#fafcfa" d="M 1.5,318.5 C 36.5016,318.333 71.5016,318.5 106.5,319C 108.037,353.714 113.704,388.047 123.5,422C 90.8333,422.667 58.1667,422.667 25.5,422C 10.4637,389.029 2.46372,354.529 1.5,318.5 Z"/></g>
<g><path style="opacity:0.978" fill="#fafcfa" d="M 125.5,318.5 C 180.834,318.333 236.168,318.5 291.5,319C 292.496,353.427 292.829,387.927 292.5,422.5C 242.167,422.5 191.833,422.5 141.5,422.5C 132.034,390.001 126.367,356.835 124.5,323C 124.605,321.408 124.939,319.908 125.5,318.5 Z"/></g>
<g><path style="opacity:0.978" fill="#fafcfa" d="M 310.5,318.5 C 366.833,318.5 423.167,318.5 479.5,318.5C 477.013,354.114 469.013,388.448 455.5,421.5C 406.838,422.5 358.171,422.833 309.5,422.5C 309.174,387.76 309.507,353.094 310.5,318.5 Z"/></g>
<g><path style="opacity:0.973" fill="#fafcfa" d="M 498.5,318.5 C 532.74,318.171 566.906,318.504 601,319.5C 599.321,355.041 591.155,389.041 576.5,421.5C 542.5,422.833 508.5,422.833 474.5,421.5C 487.075,388.2 495.075,353.867 498.5,318.5 Z"/></g>
<g><path style="opacity:0.966" fill="#fafcfa" d="M 34.5,441.5 C 65.9956,440.502 97.6623,440.168 129.5,440.5C 139.848,472.362 153.848,502.529 171.5,531C 157.323,536.783 142.99,542.283 128.5,547.5C 88.9756,519.316 57.6423,483.983 34.5,441.5 Z"/></g>
<g><path style="opacity:0.972" fill="#fafcfa" d="M 148.5,440.5 C 196.5,440.5 244.5,440.5 292.5,440.5C 292.828,464.408 292.494,488.241 291.5,512C 257.241,512.71 223.575,517.543 190.5,526.5C 189.833,526.167 189.167,525.833 188.5,525.5C 172.194,498.555 158.86,470.221 148.5,440.5 Z"/></g>
<g><path style="opacity:0.971" fill="#fafcfa" d="M 309.5,440.5 C 355.505,440.167 401.505,440.5 447.5,441.5C 434.646,470.212 419.979,497.879 403.5,524.5C 402.667,524.833 401.833,525.167 401,525.5C 370.952,517.946 340.452,513.612 309.5,512.5C 309.5,488.5 309.5,464.5 309.5,440.5 Z"/></g>
<g><path style="opacity:0.968" fill="#fafcfa" d="M 467.5,440.5 C 500.835,440.333 534.168,440.5 567.5,441C 544.002,484.793 511.836,520.96 471,549.5C 454.285,542.597 437.451,536.097 420.5,530C 438.391,501.387 454.057,471.554 467.5,440.5 Z"/></g>
<g><path style="opacity:0.954" fill="#fafcfa" d="M 291.5,602.5 C 288.833,602.5 286.167,602.5 283.5,602.5C 269.485,601.323 255.485,599.157 241.5,596C 226.813,580.653 213.646,564.153 202,546.5C 200.991,544.975 200.491,543.308 200.5,541.5C 230.444,534.341 260.778,530.507 291.5,530C 292.829,554.167 292.829,578.333 291.5,602.5 Z"/></g>
<g><path style="opacity:0.95" fill="#fafcfa" d="M 317.5,602.5 C 315.167,602.5 312.833,602.5 310.5,602.5C 309.51,578.575 309.177,554.575 309.5,530.5C 335.156,531.04 360.49,534.207 385.5,540C 387.78,540.233 389.78,541.066 391.5,542.5C 378.798,561.704 365.131,580.204 350.5,598C 339.378,599.695 328.378,601.195 317.5,602.5 Z"/></g>
<g><path style="opacity:0.894" fill="#fafcfa" d="M 410.5,546.5 C 424.773,550.143 438.439,555.143 451.5,561.5C 429.055,575.525 405.055,585.192 379.5,590.5C 390.335,576.155 400.668,561.488 410.5,546.5 Z"/></g>
<g><path style="opacity:0.875" fill="#fafcfa" d="M 179.5,547.5 C 181.017,547.511 182.184,548.177 183,549.5C 190.892,562.059 199.559,574.059 209,585.5C 209.667,586.5 209.667,587.5 209,588.5C 187.21,581.353 166.71,571.686 147.5,559.5C 158.189,555.274 168.856,551.274 179.5,547.5 Z"/></g>
</svg>
