<svg width="37" height="36" viewBox="0 0 37 36" fill="none" xmlns="http://www.w3.org/2000/svg">
<g clip-path="url(#clip0_1206_136)">
<path d="M5.76364 9.18141C5.80642 9.14797 5.84312 9.11662 5.87373 9.08736C6.69668 8.29909 7.48347 7.47616 8.23407 6.61856C8.29303 6.55064 8.3546 6.48585 8.46103 6.4754C8.73129 6.44771 8.98329 6.27424 9.21129 6.10704C9.27216 6.06245 9.44138 5.93218 9.71894 5.71621C9.79408 5.65769 9.84938 5.65665 9.88486 5.71308C9.88729 5.71725 9.88938 5.7218 9.89112 5.72666C9.92729 5.82559 9.97442 5.88463 10.0325 5.90379C10.2033 5.96022 10.313 5.99714 10.3617 6.01456C10.5871 6.09467 10.7718 6.24463 10.9158 6.46443C10.9868 6.57311 11.0113 6.66507 11.0196 6.80666C11.0468 7.26507 11.1567 7.69003 11.3494 8.08155C11.356 8.09482 11.3579 8.11001 11.3547 8.12456C11.3514 8.13911 11.3433 8.15215 11.3316 8.1615C11.2443 8.23081 11.1807 8.27871 11.1407 8.30518C10.9779 8.41282 10.9205 8.57009 10.9075 8.74669C10.9002 8.84283 10.9141 8.84597 10.9492 8.7561C10.9923 8.64533 11.0468 8.54623 11.1125 8.4588C11.1202 8.44862 11.13 8.44029 11.1413 8.43442C11.1526 8.42856 11.1651 8.4253 11.1778 8.4249C11.1905 8.4245 11.2031 8.42696 11.2148 8.43211C11.2264 8.43725 11.2368 8.44494 11.245 8.45462C11.3275 8.5525 11.4031 8.67145 11.472 8.81148C11.664 9.20231 11.4767 9.52417 11.2325 9.82669C11.2278 9.83245 11.2245 9.83915 11.2226 9.84635C11.2208 9.85355 11.2205 9.86107 11.2219 9.8684C11.2232 9.87574 11.2261 9.88271 11.2304 9.88886C11.2346 9.89501 11.2402 9.90018 11.2466 9.90402C11.4685 10.036 11.6456 10.1762 11.7777 10.3246C11.8167 10.3685 11.8301 10.4377 11.8179 10.5321C11.8155 10.5498 11.8052 10.5587 11.7871 10.5587H2.61599C2.59651 10.5587 2.59077 10.5498 2.59877 10.5321C4.03286 7.4556 6.16347 4.96243 8.9906 3.05253C11.7563 1.18408 15.1283 0.087882 18.4925 0.0460823C18.9798 0.0398123 19.4765 0.0371998 19.9362 0.0607121C23.6645 0.253513 27.2885 1.66164 30.2087 3.99511C30.4702 4.20411 30.741 4.44097 31.021 4.7057C31.5633 5.21914 32.0916 5.76219 32.6061 6.33485C33.125 6.91203 33.6257 7.58344 34.1082 8.34907C34.5687 9.08092 34.9612 9.80214 35.2857 10.5127C35.2868 10.5145 35.2897 10.5178 35.2946 10.5227C35.3002 10.5286 35.304 10.5326 35.3061 10.5347C35.3189 10.5507 35.3151 10.5587 35.2946 10.5587H28.5224C28.5139 10.5587 28.5057 10.5559 28.4991 10.5507C28.4924 10.5454 28.4878 10.5381 28.4859 10.53C28.3706 10.0477 28.2542 9.53409 28.0163 9.05915C27.9029 8.83308 27.8151 8.63871 27.7529 8.47604C27.6579 8.22768 27.5365 7.87256 27.3887 7.41067C27.3748 7.36748 27.365 7.34135 27.3595 7.33229C27.3177 7.26507 27.277 7.26158 27.2374 7.32185C27.1852 7.40126 27.06 7.58623 26.94 7.60713C26.7198 7.64527 26.5993 7.39134 26.5628 7.21055C26.5576 7.18443 26.548 7.05555 26.5341 6.82391C26.5306 6.76121 26.5017 6.71105 26.4475 6.67343C26.269 6.54977 26.105 6.42385 25.9555 6.29566C25.7682 6.13578 25.5715 6.01613 25.3466 5.9226C25.2746 5.89229 25.2054 5.87575 25.1389 5.87296C25.1222 5.87241 25.1059 5.87809 25.093 5.88889C25.0802 5.8997 25.0719 5.91487 25.0696 5.93148C25.0501 6.07221 25.0356 6.21398 25.0262 6.35679C25.0106 6.59662 24.9485 6.78263 24.8155 6.96132C24.7689 7.02367 24.7346 7.06931 24.7127 7.09822C24.7009 7.11389 24.7017 7.12887 24.7153 7.14315C24.8134 7.24399 25.0424 7.49061 25.0649 7.64161C25.0672 7.65749 25.0639 7.67376 25.0555 7.68759C25.0043 7.77468 24.9541 7.84539 24.9047 7.89973C24.7482 8.07145 24.6287 8.20434 24.5462 8.29839C24.4242 8.43685 24.3381 8.58263 24.3042 8.78118C24.2694 8.98251 24.221 9.15616 24.1591 9.30211C24.1496 9.32459 24.1318 9.34253 24.1095 9.35218C24.0872 9.36182 24.0622 9.36241 24.0396 9.35383C23.797 9.26187 23.7344 8.86582 23.6995 8.62443C23.6734 8.44713 23.6031 8.30588 23.4887 8.20068C23.1009 7.84434 22.6522 7.51203 22.1426 7.20376C22.0104 7.12364 21.881 7.01357 21.7544 6.87354C21.4847 6.57572 21.5854 6.09502 21.8003 5.76899C21.8588 5.68016 21.9911 5.56225 22.1974 5.41526C22.4885 5.20835 22.8589 4.88022 23.1777 4.70518C23.3701 4.59929 23.5452 4.519 23.7031 4.46431C23.7142 4.46086 23.7258 4.45927 23.7376 4.45961C23.8662 4.46344 23.901 4.5237 23.8419 4.64039C23.7876 4.7475 23.6812 4.94396 23.7026 5.08608C23.7074 5.11828 23.7239 5.14754 23.749 5.16812C23.7741 5.18871 23.8059 5.19914 23.8382 5.19737C24.0459 5.1864 24.1883 5.1817 24.3897 5.2491C24.5831 5.31389 24.6922 5.35064 24.7169 5.35935C24.7269 5.36299 24.7379 5.36369 24.7483 5.36139C24.7588 5.35908 24.7684 5.35386 24.776 5.34632C24.7837 5.33879 24.789 5.32924 24.7915 5.31879C24.7939 5.30833 24.7934 5.2974 24.7899 5.28724C24.7729 5.23743 24.74 5.18832 24.6913 5.1399C24.3323 4.78565 24.1372 4.59389 24.1059 4.56463C24.0523 4.51447 24.0207 4.4624 24.0109 4.4084C24.0092 4.39891 24.0096 4.38914 24.012 4.37979C24.0145 4.37044 24.019 4.36174 24.0252 4.35431C24.0314 4.34688 24.0392 4.3409 24.048 4.3368C24.0568 4.33269 24.0664 4.33056 24.0762 4.33055C24.1398 4.3302 24.2209 4.33682 24.3193 4.35041C24.5509 4.38176 24.7242 4.30861 24.7748 4.06042C24.821 3.83157 24.8577 3.66002 24.8849 3.54576C24.8903 3.52272 24.9046 3.50272 24.9246 3.49004C24.9445 3.47735 24.9687 3.47297 24.9918 3.47784C25.4139 3.56771 25.7822 3.92823 26.0436 4.23755C26.1442 4.35703 26.1995 4.42878 26.2096 4.45282C26.2409 4.52736 26.2184 4.62193 26.1422 4.73653C26.0129 4.9309 25.9435 5.03348 25.9341 5.04428C25.8569 5.13363 25.7864 5.13729 25.68 5.10489C25.5621 5.06832 25.4562 5.04341 25.3622 5.03018C25.3493 5.02828 25.3362 5.03006 25.3243 5.03531C25.3123 5.04056 25.3021 5.04907 25.2947 5.05988C25.2873 5.07069 25.2831 5.08337 25.2825 5.09649C25.2819 5.10962 25.2849 5.12266 25.2913 5.13415C25.381 5.29351 25.5256 5.34524 25.7233 5.46698C25.8318 5.53351 25.9229 5.59586 25.9967 5.65404C26.2732 5.87279 26.5407 6.1046 26.7991 6.34948C26.8082 6.35819 26.8683 6.40225 26.9796 6.48167C27.1056 6.57154 27.2313 6.56544 27.3569 6.46338C27.4247 6.40835 27.4449 6.34425 27.4174 6.2711C27.3005 5.95865 27.2092 5.77264 27.2076 5.65508C27.2076 5.64455 27.2108 5.63425 27.2168 5.62558C27.2228 5.61691 27.2313 5.61029 27.2411 5.60663C27.2509 5.60297 27.2616 5.60245 27.2717 5.60514C27.2817 5.60782 27.2907 5.61359 27.2974 5.62164L27.5353 5.90745C27.5701 5.9489 27.6009 5.94629 27.6276 5.89961L27.757 5.67546C27.7733 5.64736 27.7821 5.61549 27.7827 5.58286C27.7832 5.55023 27.7755 5.5179 27.7602 5.48893C27.6784 5.33462 27.5452 5.13258 27.3605 4.88283C27.2649 4.75325 27.2144 4.65206 27.2092 4.57926C27.1974 4.41241 27.1755 4.30391 27.1435 4.25375C27.0843 4.16144 26.9363 4.00034 26.6995 3.77044C26.4542 3.53253 26.1602 3.22182 25.8172 2.8383C25.7817 2.79807 25.6826 2.73015 25.6236 2.70245C25.2741 2.53595 24.905 2.41003 24.5165 2.32469C24.2967 2.27662 24.0727 2.31406 23.8445 2.43703C23.6897 2.52028 23.6576 2.63018 23.748 2.76672C23.7577 2.781 23.7675 2.82611 23.7772 2.90205C23.7796 2.91946 23.7861 2.93531 23.7965 2.94959C23.8243 2.98756 23.8464 3.01142 23.8628 3.02118C24.0509 3.13717 24.1758 3.21485 24.2374 3.25421C24.2486 3.26128 24.2582 3.27057 24.2657 3.28149C24.2732 3.29241 24.2784 3.30475 24.281 3.31776C24.2836 3.33076 24.2835 3.34415 24.2808 3.35712C24.278 3.37009 24.2727 3.38236 24.265 3.39319C24.168 3.53044 24.0525 3.64451 23.9186 3.73543C23.9039 3.74548 23.8859 3.74941 23.8683 3.7464C23.8507 3.74338 23.8349 3.73364 23.8242 3.71923C23.7661 3.63912 23.6946 3.5381 23.6097 3.41618C23.5683 3.35697 23.4657 3.28974 23.3019 3.2145C23.2574 3.19395 23.2282 3.13909 23.2142 3.04991C23.1955 2.93009 23.1852 2.68434 23.1835 2.31267C23.1835 2.29456 23.1925 2.28463 23.2106 2.28289C23.3911 2.26617 23.5424 2.29491 23.7146 2.22332C23.721 2.22062 23.7267 2.21645 23.7312 2.21115C23.7357 2.20584 23.7388 2.19956 23.7405 2.1928C23.7421 2.18604 23.7421 2.17899 23.7405 2.17222C23.7389 2.16545 23.7358 2.15916 23.7313 2.15383C23.7059 2.12457 23.668 2.10315 23.6176 2.08957C23.2649 1.99343 22.9429 1.92359 22.6518 1.88004C22.6007 1.87238 22.5309 1.87273 22.4426 1.88109C22.2899 1.89502 22.2092 1.97897 22.2005 2.13293C22.1949 2.23395 22.2026 2.39819 22.2235 2.62565C22.2323 2.72335 22.1765 2.79703 22.0941 2.8545C21.9487 2.95621 21.7736 3.09276 21.5687 3.26414C21.5134 3.31081 21.4391 3.32962 21.3459 3.32057C21.0889 3.29584 20.8574 3.25177 20.6515 3.18838C20.5252 3.14936 20.4282 3.10652 20.3603 3.05984C20.2584 2.98983 20.269 2.94855 20.3922 2.93601C20.7108 2.90431 20.9115 2.88585 20.9942 2.88063C21.0979 2.87401 21.196 2.85624 21.2885 2.82733C21.2972 2.82464 21.3052 2.81991 21.3118 2.81354C21.3183 2.80716 21.3233 2.79932 21.3263 2.79063C21.3293 2.78194 21.3302 2.77265 21.329 2.76351C21.3278 2.75437 21.3245 2.74562 21.3193 2.73798C21.2254 2.59935 21.1986 2.43215 21.2389 2.23639C21.2716 2.07685 21.2984 1.96504 21.3193 1.90094C21.3237 1.88727 21.3251 1.87279 21.3233 1.85853C21.3215 1.84427 21.3167 1.83056 21.3091 1.81837C21.3015 1.80618 21.2913 1.7958 21.2793 1.78795C21.2673 1.7801 21.2537 1.77498 21.2395 1.77293C21.1497 1.76004 21.0509 1.76179 20.9431 1.77816C20.8996 1.78478 20.6965 1.82571 20.3337 1.90094C20.2791 1.91209 20.2219 1.91645 20.1621 1.91401C20.0384 1.9093 19.9179 1.81212 19.812 1.78286C19.7556 1.76684 19.696 1.73705 19.633 1.69351C19.5315 1.6235 19.3856 1.58605 19.1953 1.58118C18.7174 1.56933 18.2675 1.62315 17.8456 1.74263C17.7676 1.76457 17.6948 1.80794 17.6269 1.87273C17.613 1.88597 17.6127 1.89955 17.6259 1.91348C17.6666 1.95633 17.7087 1.97897 17.7522 1.98141C18.1429 2.0044 18.4242 1.96417 18.6428 2.2275C18.648 2.23387 18.6515 2.24146 18.653 2.24955C18.6545 2.25764 18.654 2.26597 18.6514 2.27376C18.6489 2.28154 18.6444 2.28852 18.6384 2.29405C18.6324 2.29958 18.6251 2.30347 18.6172 2.30536L18.4336 2.34872C18.4278 2.3502 18.4225 2.35325 18.4183 2.35752C18.4141 2.3618 18.4111 2.36713 18.4098 2.37293C18.4084 2.37873 18.4087 2.38476 18.4106 2.39036C18.4125 2.39596 18.4159 2.4009 18.4205 2.40463L18.6616 2.60109C18.729 2.65578 18.7202 2.68939 18.6349 2.70193C18.6189 2.70437 18.5845 2.70333 18.5316 2.6988C18.3403 2.68208 18.1176 2.63453 17.8633 2.55615C17.5725 2.46698 17.2734 2.37973 16.9659 2.29438C16.6 2.19267 16.2476 2.17682 15.9089 2.24684C15.7262 2.28446 15.4102 2.35203 14.9609 2.44957C14.8391 2.47569 14.6762 2.47377 14.472 2.44382C14.1193 2.39157 13.8083 2.35656 13.5391 2.3388C13.0612 2.3078 12.7478 2.29038 12.5989 2.28655C12.1896 2.27575 11.8064 2.31929 11.4496 2.41717C11.1782 2.49137 10.8654 2.59517 10.5109 2.72858C10.1944 2.84806 9.96242 2.95203 9.81494 3.04051C9.65216 3.13874 9.47738 3.26675 9.40068 3.43656C9.39581 3.44736 9.37929 3.50692 9.35112 3.61526C9.31181 3.76678 9.22225 3.88399 9.08242 3.9669C9.07389 3.97201 9.06379 3.97387 9.05394 3.97214C9.04409 3.97042 9.03513 3.96522 9.02868 3.95749L8.93425 3.84411C8.92675 3.83505 8.91664 3.8285 8.90527 3.82532C8.89391 3.82215 8.88181 3.82251 8.8706 3.82634C8.53425 3.93885 8.26173 4.14332 8.05303 4.43975C8.01373 4.49514 7.98799 4.55505 7.97581 4.61949C7.97405 4.62893 7.97438 4.63864 7.97679 4.64793C7.97921 4.65723 7.98363 4.66587 7.98976 4.67326C7.99589 4.68064 8.00357 4.68658 8.01225 4.69065C8.02093 4.69473 8.0304 4.69683 8.03999 4.69682H8.42973C8.43732 4.69686 8.44481 4.69873 8.45153 4.70226C8.45826 4.70579 8.46402 4.71089 8.46833 4.7171C8.47264 4.72332 8.47537 4.73048 8.47628 4.73796C8.47719 4.74544 8.47625 4.75302 8.47355 4.76004C8.46103 4.79279 8.43947 4.82205 8.40886 4.84782C8.24816 4.98367 8.08207 5.09566 7.9106 5.18379C7.79512 5.24335 7.62625 5.37276 7.40399 5.572C7.21338 5.74303 7.07825 5.90483 6.9986 6.0574C6.84833 6.34512 6.80294 6.66402 6.86242 7.01409C6.87912 7.11093 6.92068 7.16074 6.98712 7.16353C7.08103 7.16771 7.18886 7.18112 7.3106 7.20376C7.31453 7.20447 7.31822 7.20615 7.32134 7.20864C7.32446 7.21114 7.32691 7.21438 7.32846 7.21806C7.33001 7.22175 7.33063 7.22576 7.33024 7.22974C7.32985 7.23372 7.32848 7.23754 7.32625 7.24086C7.29599 7.28649 7.25025 7.34884 7.18903 7.42791C6.94938 7.73723 6.5906 8.15697 6.11268 8.68713C6.03547 8.77317 5.91303 8.932 5.74538 9.16364C5.74329 9.16643 5.74294 9.16939 5.74433 9.17253C5.74712 9.1781 5.75007 9.18176 5.7532 9.1835C5.75599 9.18524 5.75947 9.18454 5.76364 9.18141ZM23.2096 1.39253C23.2096 1.38408 23.1996 1.37592 23.1819 1.36985C23.1641 1.36378 23.1399 1.36029 23.1148 1.36016C23.1023 1.3601 23.0899 1.36085 23.0784 1.3624C23.0669 1.36394 23.0564 1.36623 23.0476 1.36914C23.0387 1.37206 23.0317 1.37553 23.0269 1.37938C23.0221 1.38322 23.0197 1.38735 23.0196 1.39154C23.0196 1.39999 23.0296 1.40815 23.0473 1.41422C23.0651 1.42029 23.0892 1.42377 23.1144 1.42391C23.1269 1.42397 23.1393 1.42321 23.1508 1.42167C23.1623 1.42013 23.1728 1.41784 23.1816 1.41492C23.1905 1.41201 23.1975 1.40853 23.2023 1.40469C23.2071 1.40085 23.2095 1.39672 23.2096 1.39253ZM23.8002 1.39361C23.8002 1.38956 23.7983 1.38554 23.7945 1.38177C23.7907 1.378 23.7852 1.37456 23.7782 1.37165C23.7712 1.36874 23.7628 1.36641 23.7537 1.3648C23.7445 1.36319 23.7347 1.36232 23.7247 1.36225C23.7148 1.36218 23.7049 1.36291 23.6958 1.36439C23.6866 1.36588 23.6782 1.36809 23.6712 1.37091C23.6641 1.37372 23.6585 1.37708 23.6547 1.38079C23.6509 1.38451 23.6489 1.3885 23.6489 1.39255C23.6488 1.3966 23.6508 1.40062 23.6545 1.40439C23.6583 1.40815 23.6639 1.41159 23.6709 1.4145C23.6779 1.41741 23.6862 1.41974 23.6954 1.42136C23.7045 1.42297 23.7144 1.42384 23.7243 1.42391C23.7342 1.42397 23.7441 1.42325 23.7533 1.42176C23.7625 1.42028 23.7708 1.41806 23.7779 1.41525C23.7849 1.41244 23.7905 1.40908 23.7943 1.40536C23.7981 1.40165 23.8001 1.39765 23.8002 1.39361ZM20.0389 1.53415C20.5854 1.57003 21.0965 1.58187 21.5723 1.56968C21.6791 1.56655 21.7544 1.5561 21.7982 1.53833C21.8013 1.53706 21.8039 1.53494 21.8058 1.53222C21.8077 1.5295 21.8087 1.5263 21.8088 1.52299C21.8089 1.51969 21.8081 1.51642 21.8064 1.51359C21.8047 1.51075 21.8022 1.50845 21.7993 1.50698C21.6327 1.42512 21.4781 1.38524 21.3355 1.38733C20.9191 1.39325 20.4708 1.41868 19.9904 1.46361C19.9862 1.46411 19.9821 1.46585 19.9789 1.46861C19.9756 1.47138 19.9732 1.47504 19.972 1.47916C19.9707 1.48327 19.9707 1.48766 19.972 1.49177C19.9732 1.49588 19.9756 1.49953 19.9789 1.50228L19.9977 1.51795C20.0099 1.52771 20.0236 1.53311 20.0389 1.53415ZM23.3525 1.76196C23.3473 1.75883 23.2767 1.71232 23.1407 1.62245C23.0645 1.57195 22.9977 1.54025 22.9403 1.52736C22.6941 1.47163 22.4395 1.44655 22.1765 1.45212C22.0297 1.45526 22.0261 1.47981 22.1656 1.52579C22.5725 1.65955 22.98 1.76353 23.388 1.83772C23.453 1.84957 23.4666 1.84033 23.4287 1.81003C23.4162 1.80063 23.3908 1.7846 23.3525 1.76196ZM25.4629 2.33984C25.552 2.3273 25.581 2.29508 25.5501 2.24318C25.4697 2.10681 25.2558 2.04777 25.1238 2.01798C24.7687 1.93822 24.381 1.81839 23.9609 1.65851C23.9 1.63552 23.8579 1.66303 23.8346 1.74106L23.8336 1.74629C23.8158 1.82152 23.8509 1.87743 23.9389 1.91401C24.348 2.08364 24.676 2.19859 24.9229 2.25885C25.1052 2.30344 25.2737 2.33078 25.4285 2.34089C25.44 2.34158 25.4515 2.34123 25.4629 2.33984ZM5.01523 10.5413C5.02026 10.5438 5.02944 10.5378 5.04225 10.5238C5.05506 10.5097 5.07125 10.4877 5.0899 10.4592C5.10854 10.4307 5.12927 10.3961 5.15091 10.3575C5.17255 10.3188 5.19467 10.2769 5.21601 10.234C5.2591 10.1475 5.2964 10.0624 5.31969 9.99765C5.34299 9.93286 5.35037 9.8936 5.34022 9.88853C5.33519 9.88601 5.32601 9.89197 5.3132 9.90605C5.30039 9.92013 5.2842 9.94207 5.26556 9.9706C5.24691 9.99913 5.22618 10.0337 5.20454 10.0723C5.1829 10.111 5.16078 10.1529 5.13944 10.1958C5.09635 10.2823 5.05905 10.3674 5.03576 10.4322C5.01247 10.497 5.00508 10.5362 5.01523 10.5413Z" fill="white"/>
<path d="M17.0274 3.51944C16.7994 3.55967 16.4415 3.63805 16.4102 3.32769C16.4081 3.30783 16.4165 3.29459 16.4353 3.28798C16.6168 3.22162 16.9137 3.36635 17.041 3.43689C17.1141 3.47729 17.1095 3.50481 17.0274 3.51944Z" fill="white"/>
<path d="M21.4356 10.5482C21.4344 10.5482 21.4333 10.5479 21.4323 10.5474C21.4312 10.5468 21.4303 10.5461 21.4295 10.5453C21.4287 10.5444 21.4281 10.5434 21.4277 10.5423C21.4274 10.5412 21.4272 10.54 21.4273 10.5388V10.5336C21.4287 10.487 21.4703 10.4433 21.543 10.4123C21.6157 10.3812 21.7135 10.3653 21.8149 10.368L21.8713 10.369C21.9216 10.3703 21.9714 10.3762 22.0177 10.3863C22.0639 10.3964 22.1059 10.4105 22.141 10.4278C22.1761 10.4452 22.2038 10.4654 22.2224 10.4873C22.2411 10.5092 22.2503 10.5324 22.2495 10.5555L22.249 10.5608C22.2489 10.563 22.2479 10.5652 22.2462 10.5667C22.2446 10.5683 22.2424 10.5691 22.2401 10.5691L21.4356 10.5482Z" fill="white"/>
<path d="M26.8096 10.4306C26.9197 10.4228 27.1597 10.5163 27.2186 10.5367C27.2583 10.551 27.257 10.5581 27.215 10.5581H26.7986C26.7902 10.5581 26.7821 10.5548 26.7761 10.5488C26.7701 10.5428 26.7668 10.5347 26.7668 10.5263V10.4766C26.7668 10.4649 26.7712 10.4537 26.7791 10.4452C26.7871 10.4366 26.7979 10.4314 26.8096 10.4306Z" fill="white"/>
<path d="M27.9063 10.5404C27.9642 10.5201 28.2 10.4244 28.3085 10.4307C28.32 10.4314 28.3308 10.4364 28.3388 10.4447C28.3467 10.4531 28.3512 10.4641 28.3513 10.4756L28.3524 10.5248C28.3524 10.5289 28.3517 10.5331 28.3501 10.5369C28.3486 10.5408 28.3463 10.5443 28.3434 10.5473C28.3405 10.5502 28.337 10.5526 28.3331 10.5542C28.3293 10.5558 28.3252 10.5566 28.321 10.5566L27.9104 10.5619C27.8687 10.5622 27.8673 10.5551 27.9063 10.5404Z" fill="white"/>
<path d="M11.7553 10.9468L11.652 11.3784C11.6508 11.383 11.6481 11.3872 11.6443 11.3901C11.6406 11.393 11.6359 11.3946 11.6311 11.3946H2.27424C2.27076 11.3946 2.26734 11.3937 2.26427 11.3921C2.2612 11.3904 2.25857 11.3881 2.25662 11.3852C2.25467 11.3823 2.25345 11.379 2.25306 11.3755C2.25268 11.3721 2.25314 11.3686 2.25441 11.3653L2.4292 10.9338C2.43076 10.9298 2.43349 10.9263 2.43702 10.9239C2.44056 10.9215 2.44474 10.9202 2.44902 10.9202H11.7344C11.7377 10.9201 11.7409 10.9209 11.7438 10.9223C11.7468 10.9237 11.7494 10.9258 11.7514 10.9284C11.7534 10.9309 11.7548 10.9339 11.7555 10.9371C11.7561 10.9403 11.7561 10.9436 11.7553 10.9468Z" fill="white"/>
<path d="M21.4059 10.9532C21.4055 10.9612 21.3516 10.9684 21.2441 10.9746C21.2066 10.9767 21.188 10.9689 21.1883 10.9511C21.1883 10.9334 21.2071 10.926 21.2446 10.9292C21.3521 10.9375 21.4059 10.9455 21.4059 10.9532Z" fill="white"/>
<path d="M28.1514 11.0206C28.0839 11.1338 28.0544 11.2494 28.0627 11.3675C28.0638 11.3856 28.0554 11.3947 28.0377 11.3947H27.3532C27.3372 11.3947 27.3227 11.3898 27.3099 11.3801C27.1603 11.2675 27.0852 11.1258 27.0845 10.9547C27.0845 10.9352 27.0942 10.9253 27.1137 10.925C27.6285 10.9173 27.9817 10.917 28.1733 10.9239C28.1848 10.9243 28.1951 10.9309 28.2041 10.9438C28.2153 10.9598 28.2123 10.9727 28.1953 10.9824C28.174 10.9946 28.1594 11.0073 28.1514 11.0206Z" fill="white"/>
<path d="M28.7901 11.3841L28.6022 10.9452C28.6011 10.9425 28.6007 10.9395 28.601 10.9366C28.6013 10.9337 28.6023 10.9309 28.604 10.9284C28.6056 10.926 28.6079 10.924 28.6105 10.9226C28.6131 10.9213 28.616 10.9206 28.6189 10.9207H35.4589C35.4624 10.9207 35.4658 10.9218 35.4687 10.9237C35.4715 10.9257 35.4738 10.9284 35.4751 10.9316L35.6635 11.3705C35.6646 11.3732 35.665 11.3762 35.6647 11.3791C35.6644 11.3821 35.6634 11.3849 35.6617 11.3873C35.6601 11.3898 35.6578 11.3917 35.6552 11.3931C35.6526 11.3945 35.6497 11.3951 35.6468 11.3951H28.8062C28.8028 11.395 28.7994 11.394 28.7965 11.392C28.7936 11.3901 28.7914 11.3873 28.7901 11.3841Z" fill="white"/>
<path d="M22.9415 11.3909C23.0363 11.3923 23.1133 11.3828 23.1135 11.3695C23.1137 11.3562 23.0371 11.3443 22.9423 11.3428C22.8475 11.3413 22.7705 11.3508 22.7703 11.3641C22.77 11.3774 22.8467 11.3894 22.9415 11.3909Z" fill="white"/>
<path d="M11.5445 11.672L11.2267 12.6376C11.2257 12.6408 11.2237 12.6436 11.221 12.6456C11.2183 12.6475 11.215 12.6486 11.2116 12.6485H1.82814C1.82571 12.6485 1.82332 12.6479 1.82117 12.6467C1.81902 12.6456 1.81716 12.644 1.81574 12.642C1.81433 12.64 1.81339 12.6377 1.813 12.6353C1.81262 12.6329 1.8128 12.6305 1.81353 12.6282L2.13127 11.6626C2.13228 11.6594 2.13429 11.6566 2.13702 11.6546C2.13974 11.6526 2.14303 11.6516 2.1464 11.6516H11.5299C11.5323 11.6517 11.5347 11.6523 11.5368 11.6534C11.539 11.6545 11.5409 11.6562 11.5423 11.6581C11.5437 11.6601 11.5446 11.6624 11.545 11.6648C11.5454 11.6672 11.5452 11.6697 11.5445 11.672Z" fill="white"/>
<path d="M21.8499 11.669C21.8541 11.6589 21.8617 11.6538 21.8729 11.6538H22.2517C22.2528 11.6537 22.254 11.654 22.255 11.6546C22.256 11.6552 22.2568 11.6562 22.2572 11.6573C22.2577 11.6584 22.2578 11.6597 22.2575 11.661C22.2573 11.6622 22.2567 11.6634 22.2558 11.6643C22.0958 11.8496 22.0021 12.0569 21.9746 12.2861C21.9642 12.3723 21.9386 12.4877 21.901 12.5442C21.8005 12.695 21.7383 12.6842 21.7143 12.5118C21.6777 12.2463 21.723 11.9654 21.8499 11.669Z" fill="white"/>
<path d="M23.3066 11.6999C23.2499 11.8733 23.1848 11.9989 23.1114 12.0766C23.1005 12.0882 23.0868 12.097 23.0717 12.1021C23.0565 12.1072 23.0404 12.1084 23.0247 12.1056C23.009 12.1029 22.9942 12.0962 22.9818 12.0863C22.9693 12.0764 22.9595 12.0636 22.9534 12.0489L22.7979 11.6863C22.7963 11.6826 22.7957 11.6787 22.7961 11.6747C22.7964 11.6708 22.7977 11.667 22.7999 11.6637C22.8021 11.6604 22.805 11.6577 22.8085 11.6558C22.812 11.6539 22.8158 11.6529 22.8198 11.6528H23.2727C23.3054 11.6528 23.3167 11.6685 23.3066 11.6999Z" fill="white"/>
<path d="M28.7749 12.0059C28.7895 12.0096 28.805 12.0076 28.8181 12.0002C28.8312 11.9928 28.841 11.9806 28.8454 11.9662C28.8725 11.8725 28.8765 11.7791 28.8574 11.6861C28.8565 11.6819 28.8566 11.6776 28.8576 11.6735C28.8586 11.6693 28.8606 11.6655 28.8633 11.6622C28.866 11.6588 28.8694 11.6562 28.8732 11.6544C28.8771 11.6525 28.8813 11.6516 28.8855 11.6516H35.7396C35.7486 11.6516 35.7573 11.6544 35.7646 11.6596C35.7719 11.6649 35.7774 11.6723 35.7803 11.6809L36.1059 12.6167C36.1132 12.6379 36.1055 12.6485 36.0829 12.6485H25.7697C25.7509 12.6485 25.745 12.64 25.752 12.6229L25.8887 12.2859C25.897 12.265 25.9127 12.2546 25.9356 12.2546C26.009 12.2546 26.0547 12.2558 26.0728 12.2582C26.493 12.3195 26.8476 12.3333 27.1367 12.2995C27.3767 12.2716 27.5772 12.1769 27.7382 12.0153C27.7578 11.9957 27.7702 11.9701 27.7734 11.9426C27.7767 11.9151 27.7705 11.8873 27.756 11.8637C27.7135 11.7951 27.6643 11.7413 27.6083 11.7023C27.5603 11.6689 27.5655 11.6521 27.624 11.6521H28.3622C28.3866 11.6521 28.4038 11.6633 28.4139 11.6856C28.4918 11.8563 28.6121 11.963 28.7749 12.0059Z" fill="white"/>
<path d="M1.30852 14.5626L1.64504 13.1581C1.64798 13.1458 1.65498 13.1348 1.66492 13.1269C1.67486 13.119 1.68716 13.1148 1.69983 13.1147H11.1047C11.1207 13.1147 11.1275 13.1228 11.125 13.1388C11.0426 13.6571 10.9972 14.0641 11.0656 14.5558C11.068 14.5732 11.0603 14.5819 11.0426 14.5819H1.32417C1.32175 14.5819 1.31936 14.5813 1.31718 14.5803C1.315 14.5792 1.31309 14.5777 1.31159 14.5759C1.31008 14.574 1.30903 14.5718 1.3085 14.5696C1.30797 14.5673 1.30798 14.5649 1.30852 14.5626Z" fill="white"/>
<path d="M36.2708 13.1513L36.6031 14.56C36.6066 14.5746 36.6007 14.5819 36.5854 14.5819H24.3365C24.3344 14.5819 24.3324 14.5815 24.3305 14.5805C24.3286 14.5796 24.327 14.5782 24.3258 14.5765C24.3246 14.5748 24.3238 14.5729 24.3235 14.5708C24.3231 14.5688 24.3233 14.5666 24.324 14.5647C24.4485 14.1895 24.6266 13.8205 24.8582 13.4575C24.9694 13.284 25.1233 13.1111 25.3544 13.1111C32.088 13.1174 35.7113 13.1186 36.2243 13.1147C36.235 13.1148 36.2454 13.1184 36.2538 13.125C36.2623 13.1317 36.2682 13.1409 36.2708 13.1513Z" fill="white"/>
<path d="M1.15722 15.457C1.16174 15.4316 1.16608 15.3943 1.17026 15.3452C1.172 15.3205 1.18539 15.3081 1.21043 15.3081H11.2602C11.2653 15.3081 11.2704 15.3091 11.2752 15.3111C11.2799 15.3132 11.2842 15.3161 11.2878 15.3198C11.2914 15.3235 11.2943 15.3279 11.2961 15.3327C11.298 15.3375 11.2989 15.3426 11.2988 15.3478C11.2911 15.6397 11.3979 15.8679 11.6191 16.0323C11.8325 16.1911 12.0235 16.281 12.1325 16.4869C12.2744 16.7551 12.3991 17.07 12.5066 17.4315C12.5111 17.4476 12.5052 17.4556 12.4889 17.4556H1.02835C1.02652 17.4556 1.02471 17.4552 1.02303 17.4545C1.02135 17.4538 1.01983 17.4528 1.01856 17.4515C1.0173 17.4503 1.01631 17.4488 1.01566 17.4471C1.01501 17.4455 1.01471 17.4437 1.01478 17.442C1.0273 17.0163 1.04313 16.6278 1.06226 16.2763C1.07617 16.0213 1.10782 15.7482 1.15722 15.457Z" fill="white"/>
<path d="M22.5662 16.6875C22.7756 16.3339 23.0582 16.0244 23.414 15.759C23.6255 15.6012 23.8071 15.4586 23.9587 15.3311C23.9766 15.3162 23.9991 15.3081 24.0224 15.3081H36.6949C36.7168 15.3081 36.7293 15.3189 36.7325 15.3405C36.8243 16.0281 36.8866 16.7241 36.9193 17.4284C36.92 17.4465 36.9113 17.4556 36.8932 17.4556H22.8234C22.8181 17.4556 22.8129 17.454 22.8086 17.451C22.8043 17.448 22.8011 17.4437 22.7994 17.4388C22.7386 17.2678 22.6587 17.0586 22.56 16.8113C22.5419 16.766 22.544 16.7248 22.5662 16.6875Z" fill="white"/>
<path d="M21.9975 17.4566L18.6667 17.4534C18.6156 17.4534 18.6142 17.4477 18.6626 17.4362C18.6692 17.4345 18.6808 17.4285 18.6975 17.4184C18.7087 17.4118 18.7205 17.4076 18.733 17.4059C18.9431 17.3773 19.2718 17.3476 19.7191 17.3166C19.7789 17.3127 19.869 17.2906 19.9893 17.2502C20.0589 17.2269 20.1431 17.1889 20.2419 17.1363C20.4544 17.0231 20.5753 16.9618 20.6045 16.9524C20.953 16.8399 21.2848 16.8653 21.6 17.0287C21.7732 17.119 21.9057 17.2706 22.0085 17.431C22.0101 17.4335 22.0112 17.4364 22.0115 17.4395C22.0118 17.4425 22.0114 17.4455 22.0102 17.4481C22.0091 17.4508 22.0073 17.4529 22.0051 17.4544C22.0028 17.4559 22.0002 17.4567 21.9975 17.4566Z" fill="white"/>
<path d="M13.8224 19.7823C13.8302 19.7827 13.838 19.7814 13.8452 19.7785C13.8525 19.7757 13.859 19.7713 13.8643 19.7657C13.8697 19.7601 13.8738 19.7533 13.8763 19.746C13.8787 19.7387 13.8796 19.7309 13.8787 19.7232C13.8714 19.6588 13.8535 19.5922 13.825 19.5236C13.6344 19.068 13.508 18.7725 13.4457 18.637C13.4353 18.6136 13.4427 18.6019 13.4681 18.6019H13.9174C13.9251 18.602 13.9327 18.6038 13.9395 18.6074C13.9463 18.6109 13.9522 18.616 13.9565 18.6223C14.2768 19.0853 14.5709 19.5449 14.8387 20.0012C14.8972 20.1008 14.9565 20.2208 15.0167 20.3612C15.1022 20.5608 15.1492 20.6898 15.264 20.8304C15.5389 21.1679 15.8561 21.4334 16.2673 21.5363C17.0161 21.724 17.7662 21.8911 18.5175 22.0374C18.913 22.1142 19.237 22.2077 19.7191 22.3331C19.806 22.3557 19.8047 22.3671 19.7149 22.3671H1.54222C1.52727 22.3671 1.51787 22.3597 1.51405 22.3451C1.32587 21.6164 1.18379 20.8701 1.08779 20.1062C1.05614 19.8526 1.03387 19.3603 1.02101 18.6291C1.02066 18.6096 1.03022 18.5999 1.0497 18.5999H12.866C12.881 18.5999 12.8916 18.6065 12.8979 18.6197C13.0245 18.8935 13.1906 19.1762 13.3961 19.4677C13.4989 19.6135 13.6434 19.7723 13.8224 19.7823Z" fill="white"/>
<path d="M24.0605 18.9395C24.1033 18.9757 24.1191 18.9663 24.108 18.9113C24.0868 18.8054 24.0391 18.7181 23.9651 18.6495C23.9289 18.6164 23.9353 18.5999 23.9844 18.5999H36.8817C36.9009 18.5999 36.9101 18.6094 36.9094 18.6286C36.8725 19.8972 36.7071 21.1355 36.4132 22.3435C36.4094 22.3592 36.3993 22.3671 36.383 22.3671H27.3757C27.3586 22.3671 27.3457 22.3597 27.3371 22.3451C27.2682 22.2302 27.2515 22.1011 27.2457 21.9527C27.2454 21.9432 27.2424 21.9341 27.2372 21.9262C27.2319 21.9183 27.2246 21.912 27.216 21.9081C27.2074 21.9041 27.1979 21.9026 27.1885 21.9038C27.1791 21.9049 27.1702 21.9087 27.1628 21.9146C27.0984 21.9651 27.0536 21.9997 27.0282 22.0185C26.7663 22.2134 26.3291 22.284 25.9727 22.307C25.8857 22.3122 25.7784 22.2922 25.6508 22.2469C25.4341 22.1699 25.1452 22.1173 24.7842 22.0891C24.7661 22.0877 24.7501 22.0929 24.7362 22.1048C24.6433 22.1828 24.5677 22.2493 24.5092 22.3044C24.4654 22.3456 24.4221 22.3665 24.3569 22.3665C23.3906 22.3679 22.4746 22.3677 21.6089 22.366C21.5901 22.366 21.5817 22.3568 21.5838 22.3383C21.6057 22.1401 21.6033 21.9607 21.5765 21.8001C21.5734 21.7824 21.564 21.7697 21.5484 21.762C21.4649 21.7219 21.3703 21.6974 21.2645 21.6883C20.892 21.6559 20.703 21.6396 20.6974 21.6392C20.4584 21.6194 20.3531 21.576 20.2038 21.413C20.1572 21.3621 20.1532 21.3062 20.1918 21.2453C20.4537 20.833 20.64 20.4322 20.6859 19.9735C20.6881 19.9512 20.6816 19.9289 20.668 19.9112C20.6543 19.8935 20.6344 19.8818 20.6124 19.8784C20.5463 19.8683 20.476 19.8716 20.4016 19.8883C20.1261 19.9505 19.8918 20.0555 19.6998 20.2692C19.5402 20.4469 19.4901 20.764 19.1656 20.8832C19.0581 20.9229 18.9583 20.9445 18.8661 20.948C18.7819 20.9511 18.68 20.9528 18.5604 20.9532C18.4908 20.9532 18.3724 20.9401 18.2051 20.914C17.932 20.8711 17.7325 20.7233 17.6066 20.4704C17.5176 20.2917 17.4644 20.1569 17.447 20.066C17.3997 19.8221 17.4026 19.5567 17.4558 19.2697C17.4913 19.08 17.6019 18.8318 17.6666 18.6479C17.6777 18.6162 17.7 18.6004 17.7334 18.6004H23.8346C23.8432 18.6004 23.8515 18.6031 23.8585 18.608C23.8655 18.613 23.8709 18.62 23.8737 18.6281C23.9263 18.7751 23.9885 18.8789 24.0605 18.9395ZM23.3442 18.7791C23.3483 18.7791 23.3524 18.778 23.3563 18.7756C23.3601 18.7732 23.3636 18.7696 23.3666 18.7651C23.3696 18.7606 23.3721 18.7553 23.3737 18.7494C23.3754 18.7434 23.3764 18.7371 23.3765 18.7306C23.3767 18.7242 23.376 18.7178 23.3745 18.7118C23.3731 18.7058 23.3709 18.7003 23.3681 18.6957C23.3653 18.6911 23.3619 18.6874 23.3582 18.6848C23.3544 18.6823 23.3504 18.6809 23.3463 18.6809C23.3421 18.6808 23.338 18.6819 23.3342 18.6843C23.3303 18.6867 23.3268 18.6903 23.3238 18.6948C23.3208 18.6993 23.3184 18.7046 23.3167 18.7106C23.315 18.7165 23.3141 18.7228 23.3139 18.7293C23.3138 18.7357 23.3145 18.7421 23.3159 18.7481C23.3174 18.7541 23.3196 18.7596 23.3224 18.7642C23.3252 18.7688 23.3286 18.7725 23.3323 18.7751C23.336 18.7776 23.3401 18.779 23.3442 18.7791ZM21.6751 19.4014C21.6671 19.4034 21.6598 19.4075 21.6538 19.4131C21.6478 19.4188 21.6433 19.4259 21.6407 19.4338C21.6268 19.4756 21.6477 19.4973 21.7033 19.4991C21.8779 19.5043 22.02 19.5151 22.1296 19.5315C22.5411 19.5938 22.8972 19.7495 23.1981 19.9986C23.3113 20.0921 23.5336 20.0665 23.6489 20.0681C23.852 20.0716 24.0424 20.0508 24.2202 20.0059C24.2278 20.004 24.2349 20.0002 24.2406 19.9948C24.2463 19.9894 24.2506 19.9826 24.2529 19.9751C24.2552 19.9675 24.2555 19.9595 24.2538 19.9518C24.2521 19.9441 24.2484 19.937 24.2431 19.9312C24.1774 19.8587 24.0986 19.8021 24.0068 19.7614C23.5897 19.5757 23.1539 19.4048 22.6993 19.2488C22.6666 19.2378 22.6322 19.2337 22.5981 19.2368C22.283 19.266 21.9753 19.3209 21.6751 19.4014ZM25.0529 20.1046C24.8724 20.1172 24.647 20.1642 24.3767 20.2457C24.256 20.2823 24.2329 20.3514 24.3073 20.4531C24.3101 20.457 24.3117 20.4591 24.312 20.4594C24.3917 20.5608 24.4908 20.6017 24.6094 20.5822C24.8814 20.5373 25.1263 20.4753 25.344 20.3962C25.4146 20.3708 25.4739 20.3363 25.5219 20.2927C25.5316 20.2841 25.5394 20.2735 25.5447 20.2616C25.55 20.2497 25.5527 20.2369 25.5526 20.2238C25.5526 20.2108 25.5498 20.1979 25.5444 20.186C25.539 20.1741 25.5312 20.1635 25.5214 20.1548C25.3664 20.0184 25.2292 20.0926 25.0529 20.1046ZM26.3736 20.2453C26.3719 20.2364 26.3666 20.2282 26.3579 20.2213C26.3492 20.2145 26.3372 20.2089 26.3228 20.2051C26.3083 20.2013 26.2916 20.1992 26.2736 20.199C26.2556 20.1988 26.2367 20.2005 26.2179 20.204C26.1799 20.2111 26.1448 20.225 26.1204 20.2427C26.0959 20.2604 26.084 20.2804 26.0873 20.2984C26.089 20.3073 26.0943 20.3154 26.103 20.3223C26.1117 20.3292 26.1237 20.3347 26.1381 20.3386C26.1526 20.3424 26.1693 20.3445 26.1873 20.3447C26.2053 20.3448 26.2242 20.3431 26.243 20.3397C26.281 20.3326 26.316 20.3187 26.3405 20.301C26.365 20.2833 26.3769 20.2633 26.3736 20.2453ZM27.2165 20.8767C27.2237 20.8741 27.2295 20.8678 27.2336 20.8584C27.2377 20.8489 27.24 20.8364 27.2403 20.8215C27.2407 20.8067 27.2391 20.7898 27.2357 20.7718C27.2322 20.7538 27.227 20.7351 27.2203 20.7168C27.2067 20.6797 27.1879 20.6462 27.1681 20.6238C27.1482 20.6013 27.1289 20.5917 27.1143 20.597C27.1071 20.5997 27.1013 20.6059 27.0972 20.6154C27.0931 20.6248 27.0908 20.6373 27.0905 20.6522C27.0901 20.6671 27.0917 20.6839 27.0951 20.7019C27.0986 20.7199 27.1038 20.7386 27.1105 20.757C27.1241 20.7941 27.1429 20.8275 27.1627 20.85C27.1826 20.8724 27.2019 20.882 27.2165 20.8767ZM23.554 20.6537C23.5499 20.6444 23.5414 20.6372 23.529 20.6324C23.5167 20.6277 23.5007 20.6255 23.4819 20.6259C23.4632 20.6264 23.4422 20.6296 23.4199 20.6352C23.3977 20.6409 23.3748 20.6489 23.3524 20.6589C23.3073 20.679 23.2673 20.7058 23.2413 20.7332C23.2153 20.7607 23.2053 20.7867 23.2137 20.8054C23.2178 20.8147 23.2263 20.8219 23.2386 20.8267C23.251 20.8314 23.267 20.8336 23.2857 20.8331C23.3044 20.8327 23.3255 20.8295 23.3477 20.8238C23.37 20.8182 23.3929 20.8102 23.4152 20.8002C23.4604 20.7801 23.5003 20.7533 23.5264 20.7259C23.5524 20.6984 23.5623 20.6724 23.554 20.6537Z" fill="white"/>
<path d="M21.9991 27.3677C21.9935 27.3796 21.991 27.3928 21.9921 27.406C21.9932 27.4191 21.9978 27.4317 22.0054 27.4425C22.4534 28.074 22.6988 28.4187 22.7416 28.4765C22.8877 28.6733 23.0485 28.8337 23.2242 28.9577C23.267 28.988 23.2621 29.0032 23.2096 29.0032H4.75357C4.74124 29.0032 4.72905 29.0003 4.71792 28.9948C4.7068 28.9892 4.69704 28.9812 4.68939 28.9713C3.53705 27.4703 2.65026 25.837 2.02905 24.0713C2.02035 24.0462 2.02922 24.0337 2.05566 24.0337H23.1104C23.1179 24.0337 23.1252 24.0362 23.1312 24.0408C23.1373 24.0454 23.1417 24.0519 23.1438 24.0593C23.2435 24.4172 23.0843 24.8571 22.8788 25.1382C22.8217 25.2163 22.6849 25.3887 22.4682 25.6555C22.3784 25.7663 22.3327 25.9075 22.331 26.0793C22.3292 26.2409 22.3243 26.3431 22.3163 26.386C22.2485 26.7374 22.1428 27.0647 21.9991 27.3677Z" fill="white"/>
<path d="M28.6883 28.9788C28.8511 28.6575 28.9513 28.4621 29.1125 28.1888C29.3414 27.7994 29.4859 27.4205 29.5461 27.0524C29.6661 26.3191 29.7774 25.4413 29.88 24.419C29.8841 24.3796 29.8867 24.3155 29.8878 24.2267C29.8885 24.1748 29.8902 24.1215 29.893 24.0668C29.8944 24.0452 29.9059 24.0344 29.9274 24.0344H35.8753C35.8786 24.0345 35.8819 24.0353 35.8849 24.0369C35.8878 24.0385 35.8903 24.0407 35.8922 24.0435C35.8941 24.0463 35.8953 24.0495 35.8957 24.0528C35.8961 24.0561 35.8957 24.0595 35.8946 24.0626C35.5881 24.8701 35.2502 25.6296 34.8808 26.3412C34.3678 27.3288 33.8147 28.2062 33.2217 28.9736C33.2147 28.9827 33.2057 28.9901 33.1953 28.9951C33.1848 29.0002 33.1734 29.0029 33.1617 29.0028H28.7034C28.6854 29.0028 28.6803 28.9948 28.6883 28.9788Z" fill="white"/>
<path d="M25.6591 33.3013L25.6028 33.2548C25.5878 33.243 25.5857 33.2292 25.5965 33.2135C25.6299 33.1658 25.6642 33.1348 25.6993 33.1205C25.8249 33.07 25.9329 33.0002 26.0233 32.911C26.2327 32.7037 26.4548 32.5125 26.6896 32.3373C26.7414 32.2986 26.8033 32.2352 26.8753 32.1471C26.9181 32.0945 26.9663 32.0203 27.0198 31.9245C27.1297 31.7277 27.2603 31.5483 27.4116 31.3864C27.4232 31.374 27.4371 31.3641 27.4527 31.3574C27.4682 31.3506 27.485 31.3472 27.5019 31.3472H30.9579C30.9993 31.3472 31.0047 31.3613 30.9741 31.3895C30.1139 32.1805 29.1892 32.8655 28.2 33.4445C27.1704 34.0471 26.1383 34.5407 25.1035 34.9252C23.9897 35.339 22.7796 35.6473 21.4732 35.85C21.1282 35.9033 20.7824 35.9376 20.436 35.953C19.4659 35.9955 18.4786 35.9949 17.4741 35.9514C17.1116 35.9357 16.7663 35.9018 16.4379 35.8495C15.1756 35.6485 13.9929 35.3518 12.8896 34.9592C10.6673 34.1681 8.68103 32.9784 6.93077 31.39C6.89912 31.3614 6.90469 31.3472 6.94747 31.3472H24.48C24.505 31.3472 24.5142 31.3592 24.5076 31.3832C24.4169 31.7218 24.3649 32.0724 24.3516 32.435C24.3499 32.4758 24.3172 32.5688 24.2536 32.714C24.2351 32.7558 24.181 32.837 24.0913 32.9575C23.9264 33.1796 23.9009 33.2872 23.8716 33.4957C23.8574 33.5981 23.8301 33.6761 23.7897 33.7298C23.7247 33.8165 23.6697 33.8856 23.6249 33.9372C23.6143 33.9494 23.6066 33.9637 23.6023 33.9792C23.598 33.9948 23.5971 34.011 23.5998 34.0269C23.6025 34.0428 23.6087 34.0579 23.6179 34.0711C23.6271 34.0843 23.6391 34.0953 23.653 34.1033L23.7229 34.1441C23.7269 34.1463 23.7302 34.1495 23.7325 34.1534C23.7349 34.1573 23.7361 34.1617 23.7362 34.1663C23.7364 34.1708 23.7353 34.1753 23.7331 34.1793C23.731 34.1833 23.7278 34.1866 23.724 34.189C23.557 34.2988 23.3781 34.4069 23.5936 34.6122C23.7581 34.7693 23.9974 34.8778 24.3115 34.9378C24.5567 34.9841 24.7812 34.9446 24.985 34.8192C24.988 34.8174 24.9903 34.8147 24.9919 34.8116C24.9934 34.8085 24.994 34.8051 24.9936 34.8017C24.9932 34.7983 24.9918 34.7952 24.9897 34.7926C24.9875 34.79 24.9846 34.7882 24.9814 34.7873C24.8923 34.7594 24.7986 34.7204 24.7002 34.6702C24.6487 34.6441 24.62 34.6161 24.6141 34.5861C24.5859 34.4471 24.7429 34.3594 24.852 34.2632C24.9678 34.1613 25.0033 34.0182 25.0962 33.9037C25.1473 33.8407 25.1843 33.7991 25.2073 33.7789C25.3541 33.651 25.5052 33.5197 25.6607 33.3849C25.6934 33.3567 25.6929 33.3288 25.6591 33.3013ZM25.8809 34.2988C25.8786 34.2904 25.8585 34.2872 25.8251 34.2899C25.7917 34.2927 25.7476 34.3012 25.7026 34.3135C25.6803 34.3196 25.6585 34.3265 25.6384 34.3337C25.6182 34.3409 25.6002 34.3484 25.5852 34.3557C25.5703 34.3629 25.5588 34.3698 25.5513 34.376C25.5438 34.3822 25.5406 34.3875 25.5417 34.3917C25.544 34.4001 25.5641 34.4033 25.5975 34.4006C25.6309 34.3978 25.675 34.3893 25.72 34.377C25.7422 34.3709 25.7641 34.364 25.7842 34.3568C25.8044 34.3496 25.8224 34.3421 25.8374 34.3348C25.8523 34.3276 25.8638 34.3207 25.8713 34.3145C25.8788 34.3083 25.882 34.303 25.8809 34.2988Z" fill="white"/>
</g>
<defs>
<clipPath id="clip0_1206_136">
<rect width="36" height="36" fill="white" transform="translate(0.973022)"/>
</clipPath>
</defs>
</svg>
