<svg width="588" height="103" viewBox="0 0 588 103" fill="none" xmlns="http://www.w3.org/2000/svg">
<rect width="587.5" height="102.5" fill="white" fill-opacity="0.5"/>
<path d="M112.651 91V16.0977H147.246C153.122 16.0977 157.891 17.0254 161.553 18.8809C165.231 20.7363 168.006 23.3242 169.878 26.6445C171.75 29.9486 173.011 33.7816 173.662 38.1436C174.313 42.5055 174.639 47.6569 174.639 53.5977C174.639 59.3757 174.338 64.4294 173.735 68.7588C173.133 73.0719 171.953 76.9212 170.195 80.3066C168.454 83.6758 165.898 86.3044 162.529 88.1924C159.16 90.0641 154.798 91 149.443 91H112.651ZM120.952 83.5049H145.439C150.501 83.5049 154.521 82.6423 157.5 80.917C160.479 79.1755 162.676 76.1318 164.092 71.7861C165.524 67.4404 166.24 61.3776 166.24 53.5977C166.24 47.6732 165.841 42.766 165.044 38.876C164.246 34.9697 163.018 31.9017 161.357 29.6719C159.697 27.4421 157.565 25.8551 154.961 24.9111C152.373 23.9671 149.167 23.4951 145.342 23.4951H120.952V83.5049ZM194.097 49.0078H232.183V56.3076H194.097V83.5049H233.794V91H185.796V16.0977H233.989V23.4951H194.097V49.0078ZM253.667 49.6914H290.166V56.9912H253.667V91H245.366V16.0977H291.069V23.4951H253.667V49.6914ZM308.062 49.0078H346.147V56.3076H308.062V83.5049H347.759V91H299.761V16.0977H347.954V23.4951H308.062V49.0078ZM354.912 91L382.231 16.0977H394.316L422.222 91H413.335L407.72 75.5947H369.927L363.921 91H354.912ZM405.034 68.2949L388.433 22.2988L371.929 68.2949H405.034ZM450.005 91V23.6904H425.493V16.0977H482.695V23.6904H458.403V91H450.005Z" fill="black"/>
</svg>
