<svg width="196" height="196" viewBox="0 0 196 196" fill="none" xmlns="http://www.w3.org/2000/svg">
<g filter="url(#filter0_d_1351_12274)">
<g filter="url(#filter1_dd_1351_12274)">
<path d="M83.2591 103.502H71.0216L71.0001 103.232V101.265C71.0311 100.817 71.0311 100.368 71.0001 99.9191V99.8084C71.0253 99.7625 71.0253 99.7218 71.0001 99.686V98.0599C71.0284 91.8608 71.0284 85.6616 71.0001 79.4625V77.8428C71.0284 74.7731 71.0284 71.7036 71.0001 68.6343C70.9966 68.6153 70.9966 68.597 71.0001 68.5796C71.0315 67.9453 71.0315 67.3124 71.0001 66.6808V57.7439L71.0199 48.5867C71.0199 48.5841 71.0205 48.5815 71.0217 48.5791C71.0228 48.5768 71.0245 48.5747 71.0266 48.5731C71.0286 48.5714 71.0311 48.5703 71.0336 48.5697C71.0362 48.5692 71.0389 48.5692 71.0414 48.5698C78.2229 50.4944 82.4926 51.6387 83.8505 52.0027C83.9876 52.0396 84.1336 52.0578 84.2886 52.0574C86.4548 52.0547 88.5406 52.0547 90.546 52.0574C90.5541 52.0574 90.5618 52.0606 90.5675 52.0663C90.5731 52.072 90.5763 52.0797 90.5763 52.0877V53.7867C90.5764 53.7919 90.578 53.797 90.5811 53.8011C90.5841 53.8052 90.5884 53.8081 90.5932 53.8094L98.4243 55.9074C98.436 55.9105 98.4418 55.9181 98.4418 55.9301V69.9464C98.4418 69.9748 98.4276 69.9889 98.3993 69.9889H92.5083C92.4878 69.9889 92.4676 69.9929 92.4487 70.0007C92.4298 70.0085 92.4126 70.02 92.3982 70.0344C91.9142 70.516 91.2599 71.1711 90.4353 71.9996C90.4015 72.0334 90.3899 72.101 90.3444 72.1464C89.0662 73.42 87.7894 74.6952 86.5143 75.9719C86.4432 76.0424 86.3762 76.0558 86.315 76.1164C84.6634 77.7653 83.121 79.3067 81.6878 80.7407C81.6798 80.7487 81.6735 80.7582 81.6692 80.7687C81.6649 80.7792 81.6627 80.7905 81.6627 80.8019C81.6619 82.1319 81.6619 83.7749 81.6627 85.7309C81.6627 85.7795 81.6948 85.8096 81.7589 85.8213C81.7779 85.8247 81.7942 85.8333 81.8078 85.8469C82.084 86.1238 82.3353 86.378 82.5617 86.6095C82.6206 86.6701 82.6153 86.7861 82.6159 86.8764C82.6206 88.7385 82.62 90.1535 82.6141 91.1214C82.6141 91.1432 82.6033 91.154 82.5815 91.154H79.5501C79.533 91.154 79.5245 91.1624 79.5245 91.1791V96.7403C79.5245 96.7475 79.5274 96.7545 79.5327 96.7596C79.5379 96.7648 79.545 96.7676 79.5524 96.7676H82.5903C82.5974 96.7676 82.6042 96.7705 82.6092 96.7757C82.6142 96.7808 82.6171 96.7878 82.6171 96.795C82.6194 99.498 82.6206 101.136 82.6206 101.71C82.6209 101.837 82.6242 101.917 82.6305 101.95C82.7186 102.397 82.7672 102.641 82.7761 102.681C82.8146 102.857 82.906 103.049 83.0505 103.254C83.0754 103.29 83.1105 103.33 83.156 103.375C83.1968 103.416 83.2311 103.458 83.2591 103.502ZM83.2352 60.1204C83.2352 60.1148 83.233 60.1095 83.2291 60.1056C83.2252 60.1016 83.2198 60.0994 83.2143 60.0994H79.546C79.5405 60.0994 79.5351 60.1016 79.5312 60.1056C79.5273 60.1095 79.5251 60.1148 79.5251 60.1204V65.6926C79.5251 65.6982 79.5273 65.7035 79.5312 65.7075C79.5351 65.7114 79.5405 65.7136 79.546 65.7136H83.2143C83.2198 65.7136 83.2252 65.7114 83.2291 65.7075C83.233 65.7035 83.2352 65.6982 83.2352 65.6926V60.1204ZM90.0916 60.1198C90.0916 60.1171 90.0911 60.1145 90.09 60.112C90.089 60.1095 90.0875 60.1073 90.0856 60.1054C90.0837 60.1035 90.0815 60.102 90.079 60.101C90.0765 60.1 90.0739 60.0994 90.0712 60.0994H86.4018C86.3964 60.0994 86.3912 60.1016 86.3874 60.1054C86.3836 60.1092 86.3814 60.1144 86.3814 60.1198V65.6932C86.3814 65.6959 86.3819 65.6986 86.383 65.701C86.384 65.7035 86.3855 65.7058 86.3874 65.7076C86.3893 65.7095 86.3915 65.711 86.394 65.7121C86.3965 65.7131 86.3991 65.7136 86.4018 65.7136H90.0712C90.0739 65.7136 90.0765 65.7131 90.079 65.7121C90.0815 65.711 90.0837 65.7095 90.0856 65.7076C90.0875 65.7058 90.089 65.7035 90.09 65.701C90.0911 65.6986 90.0916 65.6959 90.0916 65.6932V60.1198ZM95.972 60.121C95.972 60.1153 95.9698 60.1098 95.9657 60.1057C95.9617 60.1017 95.9562 60.0994 95.9505 60.0994H92.2322C92.2264 60.0994 92.221 60.1017 92.2169 60.1057C92.2129 60.1098 92.2106 60.1153 92.2106 60.121V65.6501C92.2106 65.6558 92.2129 65.6613 92.2169 65.6654C92.221 65.6694 92.2264 65.6717 92.2322 65.6717H95.9505C95.9562 65.6717 95.9617 65.6694 95.9657 65.6654C95.9698 65.6613 95.972 65.6558 95.972 65.6501V60.121ZM77.4055 70.9561C77.4055 70.9508 77.4034 70.9458 77.3997 70.9421C77.3959 70.9384 77.3909 70.9363 77.3857 70.9363H73.6638C73.6586 70.9363 73.6535 70.9384 73.6498 70.9421C73.6461 70.9458 73.644 70.9508 73.644 70.9561V76.4887C73.644 76.494 73.6461 76.499 73.6498 76.5027C73.6535 76.5065 73.6586 76.5085 73.6638 76.5085H77.3857C77.3909 76.5085 77.3959 76.5065 77.3997 76.5027C77.4034 76.499 77.4055 76.494 77.4055 76.4887V70.9561ZM83.2352 70.9538C83.2352 70.9515 83.2348 70.9492 83.2339 70.9471C83.233 70.945 83.2317 70.943 83.2301 70.9414C83.2285 70.9398 83.2266 70.9385 83.2244 70.9376C83.2223 70.9367 83.22 70.9363 83.2177 70.9363H79.5425C79.5402 70.9363 79.538 70.9367 79.5358 70.9376C79.5337 70.9385 79.5318 70.9398 79.5302 70.9414C79.5286 70.943 79.5273 70.945 79.5264 70.9471C79.5255 70.9492 79.5251 70.9515 79.5251 70.9538V76.533C79.5251 76.5376 79.5269 76.5421 79.5302 76.5454C79.5335 76.5486 79.5379 76.5505 79.5425 76.5505H83.2177C83.2224 76.5505 83.2268 76.5486 83.2301 76.5454C83.2334 76.5421 83.2352 76.5376 83.2352 76.533V70.9538ZM77.4055 80.2193C77.4055 80.2142 77.4034 80.2093 77.3998 80.2057C77.3962 80.2021 77.3913 80.2001 77.3862 80.2001H73.6632C73.6581 80.2001 73.6533 80.2021 73.6497 80.2057C73.646 80.2093 73.644 80.2142 73.644 80.2193V85.7531C73.644 85.7582 73.646 85.7631 73.6497 85.7667C73.6533 85.7703 73.6581 85.7723 73.6632 85.7723H77.3862C77.3913 85.7723 77.3962 85.7703 77.3998 85.7667C77.4034 85.7631 77.4055 85.7582 77.4055 85.7531V80.2193ZM77.4055 91.1727C77.4055 91.1702 77.405 91.1677 77.404 91.1653C77.403 91.163 77.4016 91.1609 77.3998 91.1591C77.398 91.1573 77.3959 91.1559 77.3936 91.1549C77.3913 91.154 77.3888 91.1535 77.3862 91.1535H73.6632C73.6607 91.1535 73.6582 91.154 73.6559 91.1549C73.6536 91.1559 73.6514 91.1573 73.6497 91.1591C73.6479 91.1609 73.6464 91.163 73.6455 91.1653C73.6445 91.1677 73.644 91.1702 73.644 91.1727V96.7065C73.644 96.7116 73.646 96.7165 73.6497 96.7201C73.6533 96.7237 73.6581 96.7257 73.6632 96.7257H77.3862C77.3913 96.7257 77.3962 96.7237 77.3998 96.7201C77.4034 96.7165 77.4055 96.7116 77.4055 96.7065V91.1727Z" fill="#CCCCCF"/>
</g>
<g filter="url(#filter2_dd_1351_12274)">
<path d="M126 60.8526V98.5574C125.988 99.535 125.985 100.513 125.99 101.49C125.99 101.604 125.978 101.7 125.954 101.778C125.923 101.876 125.902 101.972 125.891 102.064C125.871 102.215 125.836 102.346 125.784 102.456C125.711 102.611 125.641 102.73 125.573 102.812C125.558 102.831 125.484 102.907 125.349 103.042C125.268 103.124 125.185 103.192 125.101 103.246C124.906 103.373 124.696 103.457 124.472 103.5H114.782C114.896 103.33 114.988 103.151 115.061 102.964C115.079 102.917 115.085 102.876 115.082 102.84C115.077 102.8 115.085 102.769 115.105 102.747C115.111 102.74 115.116 102.732 115.119 102.723C115.122 102.714 115.123 102.705 115.122 102.696C115.116 102.645 115.131 102.562 115.164 102.446C115.191 102.356 115.204 102.276 115.203 102.207C115.2 100.236 115.198 98.5352 115.2 97.1043C115.2 97.0856 115.206 97.0695 115.22 97.0559L116.294 95.9647C116.315 95.9434 116.327 95.9143 116.327 95.8837V92.0389C116.327 92.0143 116.317 91.9906 116.3 91.9731L110.525 86.2878C110.51 86.2723 110.502 86.2536 110.502 86.2319V81.1554C110.502 81.1388 110.499 81.1223 110.492 81.1071C110.485 81.092 110.475 81.0784 110.462 81.0675C110.363 80.9805 110.268 80.8853 110.179 80.782C110.048 80.6305 109.955 80.5274 109.9 80.4726C108.371 78.9558 106.838 77.426 105.3 75.8832C105.285 75.8675 105.276 75.8466 105.276 75.825V60.8643C105.276 60.861 105.277 60.8579 105.28 60.8556C105.282 60.8533 105.285 60.8521 105.288 60.8521L126 60.8526ZM111.664 63.2641C111.664 63.2615 111.663 63.2589 111.662 63.2565C111.661 63.2541 111.66 63.252 111.658 63.2501C111.656 63.2483 111.654 63.2468 111.652 63.2458C111.649 63.2448 111.647 63.2443 111.644 63.2443H107.922C107.917 63.2443 107.912 63.2464 107.908 63.2501C107.905 63.2538 107.902 63.2589 107.902 63.2641V68.7968C107.902 68.802 107.905 68.807 107.908 68.8108C107.912 68.8145 107.917 68.8166 107.922 68.8166H111.644C111.647 68.8166 111.649 68.8161 111.652 68.8151C111.654 68.8141 111.656 68.8126 111.658 68.8108C111.66 68.8089 111.661 68.8067 111.662 68.8043C111.663 68.8019 111.664 68.7994 111.664 68.7968V63.2641ZM117.494 63.2624C117.494 63.2576 117.492 63.253 117.488 63.2496C117.485 63.2462 117.48 63.2443 117.476 63.2443H113.802C113.797 63.2443 113.792 63.2462 113.789 63.2496C113.785 63.253 113.784 63.2576 113.784 63.2624V68.8405C113.784 68.8452 113.785 68.8498 113.789 68.8532C113.792 68.8566 113.797 68.8585 113.802 68.8585H117.476C117.48 68.8585 117.485 68.8566 117.488 68.8532C117.492 68.8498 117.494 68.8452 117.494 68.8405V63.2624ZM111.664 71.8293C111.664 71.8262 111.663 71.8231 111.662 71.8202C111.661 71.8173 111.659 71.8147 111.657 71.8124C111.655 71.8102 111.652 71.8085 111.649 71.8073C111.646 71.8061 111.643 71.8054 111.64 71.8054H107.926C107.92 71.8054 107.914 71.808 107.909 71.8124C107.905 71.8169 107.902 71.823 107.902 71.8293V77.3387C107.902 77.345 107.905 77.3511 107.909 77.3555C107.914 77.36 107.92 77.3625 107.926 77.3625H111.64C111.643 77.3625 111.646 77.3619 111.649 77.3607C111.652 77.3595 111.655 77.3578 111.657 77.3555C111.659 77.3533 111.661 77.3507 111.662 77.3478C111.663 77.3449 111.664 77.3418 111.664 77.3387V71.8293ZM117.494 71.8282C117.494 71.8221 117.491 71.8164 117.487 71.8121C117.483 71.8078 117.477 71.8054 117.471 71.8054H113.806C113.8 71.8054 113.794 71.8078 113.79 71.8121C113.786 71.8164 113.784 71.8221 113.784 71.8282V77.3818C113.784 77.3878 113.786 77.3936 113.79 77.3978C113.794 77.4021 113.8 77.4045 113.806 77.4045H117.471C117.477 77.4045 117.483 77.4021 117.487 77.3978C117.491 77.3936 117.494 77.3878 117.494 77.3818V71.8282ZM123.378 71.8305C123.378 71.8271 123.378 71.8238 123.376 71.8207C123.375 71.8176 123.373 71.8147 123.371 71.8124C123.368 71.81 123.366 71.8081 123.362 71.8068C123.359 71.8055 123.356 71.8049 123.353 71.8049H119.648C119.641 71.8049 119.635 71.8076 119.63 71.8124C119.625 71.8172 119.623 71.8237 119.623 71.8305V77.3375C119.623 77.3443 119.625 77.3508 119.63 77.3556C119.635 77.3604 119.641 77.3631 119.648 77.3631H123.353C123.356 77.3631 123.359 77.3625 123.362 77.3612C123.366 77.3599 123.368 77.358 123.371 77.3556C123.373 77.3532 123.375 77.3504 123.376 77.3473C123.378 77.3442 123.378 77.3409 123.378 77.3375V71.8305ZM117.494 80.398C117.494 80.3915 117.491 80.3853 117.487 80.3807C117.482 80.3761 117.476 80.3736 117.469 80.3736H113.821C113.814 80.3736 113.808 80.3761 113.804 80.3807C113.799 80.3853 113.796 80.3915 113.796 80.398V85.9388C113.796 85.9453 113.799 85.9515 113.804 85.9561C113.808 85.9607 113.814 85.9633 113.821 85.9633H117.469C117.476 85.9633 117.482 85.9607 117.487 85.9561C117.491 85.9515 117.494 85.9453 117.494 85.9388V80.398ZM123.378 80.3922C123.378 80.3873 123.376 80.3825 123.373 80.379C123.369 80.3755 123.365 80.3736 123.36 80.3736H119.655C119.65 80.3736 119.646 80.3755 119.642 80.379C119.639 80.3825 119.637 80.3873 119.637 80.3922V85.8899C119.637 85.8948 119.639 85.8996 119.642 85.9031C119.646 85.9065 119.65 85.9085 119.655 85.9085H123.36C123.365 85.9085 123.369 85.9065 123.373 85.9031C123.376 85.8996 123.378 85.8948 123.378 85.8899V80.3922ZM123.378 88.9661C123.378 88.9578 123.375 88.9498 123.369 88.9439C123.363 88.938 123.355 88.9347 123.347 88.9347H119.668C119.664 88.9347 119.66 88.9355 119.656 88.9371C119.652 88.9387 119.649 88.941 119.646 88.9439C119.643 88.9468 119.641 88.9503 119.639 88.9541C119.637 88.9579 119.637 88.962 119.637 88.9661V94.4382C119.637 94.4465 119.64 94.4545 119.646 94.4604C119.652 94.4663 119.66 94.4696 119.668 94.4696H123.347C123.355 94.4696 123.363 94.4663 123.369 94.4604C123.375 94.4545 123.378 94.4465 123.378 94.4382V88.9661Z" fill="#CCCCCF"/>
</g>
<g filter="url(#filter3_dd_1351_12274)">
<path d="M108.836 84.8327C108.825 84.8673 108.803 84.8873 108.77 84.8927C108.75 84.8962 108.733 84.8908 108.719 84.8764L106.486 82.6438C106.467 82.6243 106.444 82.6146 106.417 82.6146H104.616C104.579 82.6146 104.543 82.6002 104.518 82.5744L98.6816 76.7383C98.6668 76.7235 98.649 76.7161 98.628 76.7161H93.2253C93.2059 76.7161 93.1894 76.7229 93.1758 76.7365L84.053 85.8593C84.0505 85.8617 84.0476 85.8636 84.0444 85.8649C84.0413 85.8662 84.0379 85.8669 84.0345 85.8669C84.031 85.8669 84.0277 85.8662 84.0246 85.8649C84.0214 85.8636 84.0186 85.8617 84.0163 85.8593L82.8044 84.6474C82.7843 84.6272 82.7729 84.6 82.7729 84.5717V81.8805C82.773 81.8663 82.7786 81.8525 82.7887 81.8421L93.1647 71.4661C93.1818 71.449 93.2026 71.4404 93.227 71.4404H98.5866C98.6243 71.4404 98.6563 71.4538 98.6827 71.4806L109.069 81.866C109.083 81.8799 109.09 81.897 109.09 81.9172C109.093 83.4495 109.093 84.3322 109.089 84.5653C109.088 84.6037 109.064 84.633 109.015 84.6532C108.997 84.6606 108.983 84.6723 108.971 84.6882C108.946 84.7247 108.912 84.7579 108.869 84.7878C108.853 84.7991 108.842 84.8141 108.836 84.8327Z" fill="#CCCCCF"/>
</g>
<g filter="url(#filter4_dd_1351_12274)">
<path d="M92.0911 103.501H89.3604L86.2119 103.481C86.1922 103.481 86.173 103.474 86.1571 103.462C86.1054 103.423 86.0355 103.411 85.9473 103.428C85.9182 103.433 85.8864 103.424 85.8518 103.4C85.8355 103.389 85.8176 103.383 85.7982 103.382C85.7201 103.379 85.6112 103.345 85.4713 103.28C85.1921 103.152 85.019 103.054 84.9522 102.987C84.8617 102.896 84.7698 102.804 84.6766 102.711C84.5589 102.592 84.4774 102.494 84.4319 102.415C84.3593 102.289 84.2983 102.166 84.249 102.046C84.2105 101.954 84.1942 101.869 84.2 101.792C84.2016 101.772 84.1967 101.754 84.1855 101.738C84.1525 101.691 84.1431 101.641 84.1575 101.587C84.1626 101.568 84.1602 101.55 84.1505 101.533C84.1214 101.482 84.109 101.429 84.1132 101.373C84.1148 101.353 84.1097 101.335 84.0981 101.319C84.0742 101.284 84.0608 101.262 84.0608 101.215C84.0608 100.05 84.0608 95.345 84.0608 87.0996C84.0608 87.0928 84.0621 87.0861 84.0647 87.0798C84.0673 87.0735 84.0711 87.0677 84.0759 87.0629L93.1766 77.9623C93.1898 77.9491 93.2057 77.9425 93.2244 77.9425C94.3224 77.9417 96.0472 77.9417 98.3987 77.9425C98.4659 77.9425 98.5274 77.9483 98.5834 77.96C98.6366 77.9708 98.6913 78.0044 98.7477 78.0608C99.6973 79.0097 101.208 80.5185 103.279 82.5872C103.292 82.6 103.289 82.6064 103.271 82.6064H100.553C100.544 82.6064 100.536 82.608 100.528 82.6112C100.52 82.6144 100.513 82.6191 100.507 82.6251L94.4234 88.7088C94.4071 88.7252 94.3989 88.7219 94.3989 88.6989V85.7468C94.3989 85.7242 94.3877 85.713 94.3651 85.713H90.4988C90.4367 85.713 90.3838 85.7349 90.3403 85.7788L89.1757 86.9429C89.1555 86.9635 89.1442 86.9911 89.1442 87.0198V89.958C89.1442 89.9809 89.1557 89.9924 89.1786 89.9924C90.6977 89.9955 91.9501 89.9961 92.9359 89.9941C93.0035 89.9941 93.0517 89.9916 93.0804 89.9865C93.1465 89.9749 93.1558 89.9928 93.1084 90.0401L90.9673 92.1813C90.9584 92.1902 90.9513 92.2007 90.9465 92.2123C90.9417 92.2239 90.9393 92.2363 90.9393 92.2489C90.9385 93.0051 90.9333 94.4097 90.9236 96.4624C90.9224 96.6297 91.0179 96.6471 91.1152 96.7439C91.4116 97.0371 91.7066 97.3319 92.0003 97.6283C92.0142 97.6427 92.0313 97.651 92.0515 97.6533C92.064 97.6549 92.0744 97.6605 92.083 97.6702C92.0884 97.6768 92.0911 97.69 92.0911 97.7099C92.09 99.8209 92.0906 101.293 92.0929 102.125C92.0929 102.19 92.0999 102.258 92.1139 102.328C92.1356 102.442 92.1475 102.509 92.1494 102.531C92.1521 102.563 92.1636 102.599 92.1838 102.639C92.197 102.666 92.1999 102.697 92.1925 102.732C92.1886 102.751 92.1898 102.769 92.196 102.788C92.262 102.981 92.3545 103.161 92.4733 103.329C92.4966 103.361 92.5304 103.38 92.5543 103.4C92.6289 103.463 92.6176 103.49 92.5205 103.482C92.3893 103.471 92.2461 103.477 92.0911 103.501Z" fill="#CCCCCF"/>
</g>
<g filter="url(#filter5_dd_1351_12274)">
<path d="M101.177 88.3439C101.166 88.3439 101.158 88.3476 101.151 88.355L93.1951 96.3108C93.173 96.3329 93.1508 96.3329 93.1287 96.3108L92.0939 95.2766C92.0795 95.2622 92.0682 95.2451 92.0605 95.2263C92.0528 95.2075 92.0489 95.1874 92.0491 95.1671C92.0499 93.7241 92.0502 92.9729 92.0502 92.9135C92.0499 92.861 92.084 92.8028 92.1528 92.7387C92.6224 92.3021 93.1605 91.7725 93.7672 91.1499C94.445 90.4538 95.0038 89.891 95.4435 89.4614C95.4606 89.4447 95.5023 89.4039 95.5687 89.3391C95.8006 89.1122 96.3976 88.5197 97.3597 87.5615C97.4291 87.4921 97.5211 87.4263 97.5858 87.3605C99.1938 85.7334 100.368 84.5497 101.108 83.8093C101.123 83.7948 101.143 83.7866 101.163 83.7866H105.855C105.859 83.7866 105.863 83.7875 105.867 83.7891C105.871 83.7907 105.875 83.793 105.878 83.7959L114.862 92.8208C114.867 92.8253 114.869 92.8312 114.869 92.8371V95.17C114.869 95.1805 114.867 95.191 114.863 95.2006C114.859 95.2103 114.853 95.2191 114.846 95.2265L113.801 96.2712C113.785 96.2863 113.77 96.2863 113.754 96.2712C113.026 95.544 112.394 94.909 111.858 94.366C111.836 94.3438 111.806 94.3141 111.77 94.2768C111.393 93.8938 110.211 92.7094 108.224 90.7234C108.122 90.622 108.011 90.5162 107.891 90.4058C107.728 90.2567 107.616 90.1514 107.555 90.0901C106.962 89.4911 106.394 88.9231 105.849 88.3859C105.838 88.375 105.823 88.3696 105.805 88.3696L101.177 88.3439Z" fill="#CCCCCF"/>
</g>
<g filter="url(#filter6_dd_1351_12274)">
<path d="M111.935 103.501H95.0403C94.7509 103.473 94.4806 103.389 94.2293 103.249C94.1252 103.191 94.0213 103.115 93.9176 103.019C93.7649 102.878 93.6696 102.779 93.6315 102.722C93.4699 102.48 93.3792 102.307 93.3594 102.202C93.3489 102.146 93.3375 102.072 93.3251 101.981C93.3185 101.93 93.3019 101.858 93.2755 101.763C93.2394 101.633 93.2215 101.47 93.2219 101.273C93.2243 100.259 93.2283 98.9534 93.2342 97.357C93.2342 97.3444 93.2366 97.332 93.2414 97.3204C93.2462 97.3088 93.2533 97.2983 93.2621 97.2894L101.104 89.4484C101.118 89.4336 101.136 89.4263 101.156 89.4263H105.836C105.85 89.4263 105.861 89.4311 105.871 89.4408L113.733 97.3028C113.748 97.318 113.755 97.3364 113.755 97.3582C113.757 98.9992 113.757 100.326 113.755 101.339C113.755 101.458 113.742 101.589 113.715 101.73C113.68 101.911 113.653 102.04 113.634 102.116C113.57 102.374 113.454 102.598 113.286 102.789C113.014 103.099 112.7 103.309 112.343 103.42C112.339 103.421 112.306 103.426 112.245 103.435C112.217 103.439 112.193 103.448 112.172 103.461C112.156 103.471 112.138 103.475 112.119 103.473C112.05 103.465 111.988 103.474 111.935 103.501ZM97.6458 99.8256C97.6458 99.845 97.6555 99.8547 97.6749 99.8547L102.163 99.8687C102.168 99.8687 102.173 99.8667 102.176 99.8632C102.18 99.8597 102.182 99.855 102.182 99.8501L102.182 96.1789C102.182 96.1759 102.182 96.173 102.18 96.1702C102.179 96.1675 102.178 96.165 102.175 96.1629C102.173 96.1607 102.171 96.1591 102.168 96.1579C102.165 96.1568 102.162 96.1562 102.159 96.1562L98.7872 96.1544C98.7472 96.1544 98.7132 96.1686 98.6852 96.197L97.6557 97.2381C97.65 97.2439 97.6455 97.2506 97.6425 97.258C97.6395 97.2654 97.6381 97.2733 97.6382 97.2812L97.6458 99.8256ZM104.813 99.8332C104.813 99.84 104.816 99.8465 104.821 99.8513C104.826 99.8561 104.832 99.8588 104.839 99.8588H109.331C109.334 99.8588 109.338 99.8581 109.341 99.8568C109.344 99.8556 109.347 99.8537 109.349 99.8513C109.351 99.8489 109.353 99.8461 109.355 99.843C109.356 99.8399 109.357 99.8365 109.357 99.8332V97.2527C109.357 97.2459 109.354 97.2394 109.349 97.2346L108.272 96.1574C108.268 96.1525 108.261 96.1498 108.254 96.1498H104.839C104.832 96.1498 104.826 96.1525 104.821 96.1573C104.816 96.1621 104.813 96.1686 104.813 96.1754V99.8332Z" fill="#CCCCCF"/>
</g>
</g>
<defs>
<filter id="filter0_d_1351_12274" x="58.4999" y="46.0005" width="80" height="80" filterUnits="userSpaceOnUse" color-interpolation-filters="sRGB">
<feFlood flood-opacity="0" result="BackgroundImageFix"/>
<feColorMatrix in="SourceAlpha" type="matrix" values="0 0 0 0 0 0 0 0 0 0 0 0 0 0 0 0 0 0 127 0" result="hardAlpha"/>
<feOffset dy="10"/>
<feGaussianBlur stdDeviation="5"/>
<feComposite in2="hardAlpha" operator="out"/>
<feColorMatrix type="matrix" values="0 0 0 0 0 0 0 0 0 0 0 0 0 0 0 0 0 0 0.25 0"/>
<feBlend mode="normal" in2="BackgroundImageFix" result="effect1_dropShadow_1351_12274"/>
<feBlend mode="normal" in="SourceGraphic" in2="effect1_dropShadow_1351_12274" result="shape"/>
</filter>
<filter id="filter1_dd_1351_12274" x="70.9974" y="48.5693" width="28.6943" height="56.1821" filterUnits="userSpaceOnUse" color-interpolation-filters="sRGB">
<feFlood flood-opacity="0" result="BackgroundImageFix"/>
<feColorMatrix in="SourceAlpha" type="matrix" values="0 0 0 0 0 0 0 0 0 0 0 0 0 0 0 0 0 0 127 0" result="hardAlpha"/>
<feOffset dx="1.25" dy="1.25"/>
<feComposite in2="hardAlpha" operator="out"/>
<feColorMatrix type="matrix" values="0 0 0 0 1 0 0 0 0 0 0 0 0 0 0 0 0 0 0.5 0"/>
<feBlend mode="normal" in2="BackgroundImageFix" result="effect1_dropShadow_1351_12274"/>
<feColorMatrix in="SourceAlpha" type="matrix" values="0 0 0 0 0 0 0 0 0 0 0 0 0 0 0 0 0 0 127 0" result="hardAlpha"/>
<feOffset dx="0.75" dy="0.75"/>
<feComposite in2="hardAlpha" operator="out"/>
<feColorMatrix type="matrix" values="0 0 0 0 0.15 0 0 0 0 0 0 0 0 0 1 0 0 0 0.5 0"/>
<feBlend mode="normal" in2="effect1_dropShadow_1351_12274" result="effect2_dropShadow_1351_12274"/>
<feBlend mode="normal" in="SourceGraphic" in2="effect2_dropShadow_1351_12274" result="shape"/>
</filter>
<filter id="filter2_dd_1351_12274" x="105.276" y="60.8521" width="21.974" height="43.8984" filterUnits="userSpaceOnUse" color-interpolation-filters="sRGB">
<feFlood flood-opacity="0" result="BackgroundImageFix"/>
<feColorMatrix in="SourceAlpha" type="matrix" values="0 0 0 0 0 0 0 0 0 0 0 0 0 0 0 0 0 0 127 0" result="hardAlpha"/>
<feOffset dx="1.25" dy="1.25"/>
<feComposite in2="hardAlpha" operator="out"/>
<feColorMatrix type="matrix" values="0 0 0 0 1 0 0 0 0 0 0 0 0 0 0 0 0 0 0.5 0"/>
<feBlend mode="normal" in2="BackgroundImageFix" result="effect1_dropShadow_1351_12274"/>
<feColorMatrix in="SourceAlpha" type="matrix" values="0 0 0 0 0 0 0 0 0 0 0 0 0 0 0 0 0 0 127 0" result="hardAlpha"/>
<feOffset dx="0.75" dy="0.75"/>
<feComposite in2="hardAlpha" operator="out"/>
<feColorMatrix type="matrix" values="0 0 0 0 0.15 0 0 0 0 0 0 0 0 0 1 0 0 0 0.5 0"/>
<feBlend mode="normal" in2="effect1_dropShadow_1351_12274" result="effect2_dropShadow_1351_12274"/>
<feBlend mode="normal" in="SourceGraphic" in2="effect2_dropShadow_1351_12274" result="shape"/>
</filter>
<filter id="filter3_dd_1351_12274" x="82.7729" y="71.4404" width="27.5692" height="15.6763" filterUnits="userSpaceOnUse" color-interpolation-filters="sRGB">
<feFlood flood-opacity="0" result="BackgroundImageFix"/>
<feColorMatrix in="SourceAlpha" type="matrix" values="0 0 0 0 0 0 0 0 0 0 0 0 0 0 0 0 0 0 127 0" result="hardAlpha"/>
<feOffset dx="1.25" dy="1.25"/>
<feComposite in2="hardAlpha" operator="out"/>
<feColorMatrix type="matrix" values="0 0 0 0 1 0 0 0 0 0 0 0 0 0 0 0 0 0 0.5 0"/>
<feBlend mode="normal" in2="BackgroundImageFix" result="effect1_dropShadow_1351_12274"/>
<feColorMatrix in="SourceAlpha" type="matrix" values="0 0 0 0 0 0 0 0 0 0 0 0 0 0 0 0 0 0 127 0" result="hardAlpha"/>
<feOffset dx="0.75" dy="0.75"/>
<feComposite in2="hardAlpha" operator="out"/>
<feColorMatrix type="matrix" values="0 0 0 0 0.15 0 0 0 0 0 0 0 0 0 1 0 0 0 0.5 0"/>
<feBlend mode="normal" in2="effect1_dropShadow_1351_12274" result="effect2_dropShadow_1351_12274"/>
<feBlend mode="normal" in="SourceGraphic" in2="effect2_dropShadow_1351_12274" result="shape"/>
</filter>
<filter id="filter4_dd_1351_12274" x="84.0608" y="77.9419" width="20.4758" height="26.8091" filterUnits="userSpaceOnUse" color-interpolation-filters="sRGB">
<feFlood flood-opacity="0" result="BackgroundImageFix"/>
<feColorMatrix in="SourceAlpha" type="matrix" values="0 0 0 0 0 0 0 0 0 0 0 0 0 0 0 0 0 0 127 0" result="hardAlpha"/>
<feOffset dx="1.25" dy="1.25"/>
<feComposite in2="hardAlpha" operator="out"/>
<feColorMatrix type="matrix" values="0 0 0 0 1 0 0 0 0 0 0 0 0 0 0 0 0 0 0.5 0"/>
<feBlend mode="normal" in2="BackgroundImageFix" result="effect1_dropShadow_1351_12274"/>
<feColorMatrix in="SourceAlpha" type="matrix" values="0 0 0 0 0 0 0 0 0 0 0 0 0 0 0 0 0 0 127 0" result="hardAlpha"/>
<feOffset dx="0.75" dy="0.75"/>
<feComposite in2="hardAlpha" operator="out"/>
<feColorMatrix type="matrix" values="0 0 0 0 0.15 0 0 0 0 0 0 0 0 0 1 0 0 0 0.5 0"/>
<feBlend mode="normal" in2="effect1_dropShadow_1351_12274" result="effect2_dropShadow_1351_12274"/>
<feBlend mode="normal" in="SourceGraphic" in2="effect2_dropShadow_1351_12274" result="shape"/>
</filter>
<filter id="filter5_dd_1351_12274" x="92.0491" y="83.7866" width="24.0698" height="13.7905" filterUnits="userSpaceOnUse" color-interpolation-filters="sRGB">
<feFlood flood-opacity="0" result="BackgroundImageFix"/>
<feColorMatrix in="SourceAlpha" type="matrix" values="0 0 0 0 0 0 0 0 0 0 0 0 0 0 0 0 0 0 127 0" result="hardAlpha"/>
<feOffset dx="1.25" dy="1.25"/>
<feComposite in2="hardAlpha" operator="out"/>
<feColorMatrix type="matrix" values="0 0 0 0 1 0 0 0 0 0 0 0 0 0 0 0 0 0 0.5 0"/>
<feBlend mode="normal" in2="BackgroundImageFix" result="effect1_dropShadow_1351_12274"/>
<feColorMatrix in="SourceAlpha" type="matrix" values="0 0 0 0 0 0 0 0 0 0 0 0 0 0 0 0 0 0 127 0" result="hardAlpha"/>
<feOffset dx="0.75" dy="0.75"/>
<feComposite in2="hardAlpha" operator="out"/>
<feColorMatrix type="matrix" values="0 0 0 0 0.15 0 0 0 0 0 0 0 0 0 1 0 0 0 0.5 0"/>
<feBlend mode="normal" in2="effect1_dropShadow_1351_12274" result="effect2_dropShadow_1351_12274"/>
<feBlend mode="normal" in="SourceGraphic" in2="effect2_dropShadow_1351_12274" result="shape"/>
</filter>
<filter id="filter6_dd_1351_12274" x="93.2219" y="89.4263" width="21.785" height="15.3252" filterUnits="userSpaceOnUse" color-interpolation-filters="sRGB">
<feFlood flood-opacity="0" result="BackgroundImageFix"/>
<feColorMatrix in="SourceAlpha" type="matrix" values="0 0 0 0 0 0 0 0 0 0 0 0 0 0 0 0 0 0 127 0" result="hardAlpha"/>
<feOffset dx="1.25" dy="1.25"/>
<feComposite in2="hardAlpha" operator="out"/>
<feColorMatrix type="matrix" values="0 0 0 0 1 0 0 0 0 0 0 0 0 0 0 0 0 0 0.5 0"/>
<feBlend mode="normal" in2="BackgroundImageFix" result="effect1_dropShadow_1351_12274"/>
<feColorMatrix in="SourceAlpha" type="matrix" values="0 0 0 0 0 0 0 0 0 0 0 0 0 0 0 0 0 0 127 0" result="hardAlpha"/>
<feOffset dx="0.75" dy="0.75"/>
<feComposite in2="hardAlpha" operator="out"/>
<feColorMatrix type="matrix" values="0 0 0 0 0.15 0 0 0 0 0 0 0 0 0 1 0 0 0 0.5 0"/>
<feBlend mode="normal" in2="effect1_dropShadow_1351_12274" result="effect2_dropShadow_1351_12274"/>
<feBlend mode="normal" in="SourceGraphic" in2="effect2_dropShadow_1351_12274" result="shape"/>
</filter>
</defs>
</svg>
