<svg width="196" height="196" viewBox="0 0 196 196" fill="none" xmlns="http://www.w3.org/2000/svg">
<g filter="url(#filter0_d_1351_12273)">
<g filter="url(#filter1_dd_1351_12273)">
<path d="M99.9566 71.7924C99.9566 71.7625 99.9414 71.7475 99.9111 71.7475C99.7562 71.7491 99.6082 71.7499 99.4672 71.7499C99.3526 71.7499 99.2079 71.7248 99.0331 71.6747C98.7822 71.6029 98.5031 71.5159 98.1959 71.4137C98.1067 71.384 98.0228 71.3916 97.9424 71.3688C96.9726 71.1016 96.4059 70.9468 96.2423 70.9045C96.1837 70.8889 96.139 70.8664 96.1083 70.8369C96.0959 70.8245 96.0811 70.8159 96.064 70.8113L94.59 70.4168C94.5751 70.4128 94.5619 70.404 94.5525 70.3917C94.5432 70.3793 94.5381 70.3642 94.5381 70.3487V69.2725C94.5381 69.2651 94.5351 69.258 94.5298 69.2528C94.5244 69.2475 94.5172 69.2446 94.5096 69.2446H90.102C90.0661 69.2446 90.0304 69.2399 89.996 69.2306L89.2077 69.0191C89.1879 69.0141 89.178 69.0012 89.178 68.9806V48.6324C89.178 48.5838 89.2023 48.5596 89.2508 48.5596H104.923C104.935 48.5596 104.946 48.5642 104.954 48.5724C104.963 48.5806 104.967 48.5917 104.967 48.6033V74.8215C104.967 74.8405 104.957 74.85 104.938 74.85H101.675C101.656 74.85 101.646 74.8599 101.646 74.8797V83.5918C101.646 83.612 101.636 83.624 101.616 83.6279C101.553 83.6395 101.491 83.6413 101.431 83.6331C101.41 83.6304 101.392 83.6217 101.377 83.6069L100.009 82.2383C99.9924 82.2217 99.9792 82.202 99.9702 82.1803C99.9612 82.1586 99.9566 82.1354 99.9566 82.1119V71.7924ZM92.9068 50.2783C92.9068 50.2707 92.9038 50.2635 92.8984 50.2581C92.8931 50.2528 92.8858 50.2498 92.8782 50.2498H91.3622C91.3547 50.2498 91.3474 50.2528 91.3421 50.2581C91.3367 50.2635 91.3337 50.2707 91.3337 50.2783V53.8335C91.3337 53.8411 91.3367 53.8483 91.3421 53.8537C91.3474 53.8591 91.3547 53.8621 91.3622 53.8621H92.8782C92.8858 53.8621 92.8931 53.8591 92.8984 53.8537C92.9038 53.8483 92.9068 53.8411 92.9068 53.8335V50.2783ZM96.1112 50.2777C96.1112 50.2702 96.1082 50.2629 96.1029 50.2576C96.0975 50.2522 96.0903 50.2492 96.0827 50.2492H94.5667C94.5591 50.2492 94.5519 50.2522 94.5465 50.2576C94.5412 50.2629 94.5381 50.2702 94.5381 50.2777V53.8329C94.5381 53.8405 94.5412 53.8478 94.5465 53.8531C94.5519 53.8585 94.5591 53.8615 94.5667 53.8615H96.0827C96.0903 53.8615 96.0975 53.8585 96.1029 53.8531C96.1082 53.8478 96.1112 53.8405 96.1112 53.8329V50.2777ZM99.607 50.2795C99.607 50.2715 99.6038 50.2637 99.5981 50.2581C99.5924 50.2524 99.5847 50.2492 99.5767 50.2492H98.0642C98.0562 50.2492 98.0485 50.2524 98.0428 50.2581C98.0371 50.2637 98.0339 50.2715 98.0339 50.2795V53.8312C98.0339 53.8392 98.0371 53.8469 98.0428 53.8526C98.0485 53.8583 98.0562 53.8615 98.0642 53.8615H99.5767C99.5847 53.8615 99.5924 53.8583 99.5981 53.8526C99.6038 53.8469 99.607 53.8392 99.607 53.8312V50.2795ZM102.811 50.2783C102.811 50.2706 102.808 50.2632 102.803 50.2577C102.797 50.2523 102.79 50.2492 102.782 50.2492H101.267C101.26 50.2492 101.252 50.2523 101.247 50.2577C101.241 50.2632 101.238 50.2706 101.238 50.2783V53.8323C101.238 53.8401 101.241 53.8475 101.247 53.8529C101.252 53.8584 101.26 53.8615 101.267 53.8615H102.782C102.79 53.8615 102.797 53.8584 102.803 53.8529C102.808 53.8475 102.811 53.8401 102.811 53.8323V50.2783ZM92.9068 56.2852C92.9068 56.2806 92.9059 56.2761 92.9041 56.2718C92.9024 56.2676 92.8998 56.2637 92.8966 56.2605C92.8933 56.2572 92.8895 56.2547 92.8852 56.2529C92.881 56.2512 92.8764 56.2502 92.8718 56.2502H91.3687C91.3594 56.2502 91.3505 56.2539 91.3439 56.2605C91.3374 56.267 91.3337 56.2759 91.3337 56.2852V59.8276C91.3337 59.8368 91.3374 59.8457 91.3439 59.8523C91.3505 59.8589 91.3594 59.8625 91.3687 59.8625H92.8718C92.8764 59.8625 92.881 59.8616 92.8852 59.8599C92.8895 59.8581 92.8933 59.8555 92.8966 59.8523C92.8998 59.8491 92.9024 59.8452 92.9041 59.841C92.9059 59.8367 92.9068 59.8322 92.9068 59.8276V56.2852ZM96.1112 56.2852C96.1112 56.2759 96.1076 56.267 96.101 56.2605C96.0944 56.2539 96.0856 56.2502 96.0763 56.2502H94.5731C94.5638 56.2502 94.5549 56.2539 94.5484 56.2605C94.5418 56.267 94.5381 56.2759 94.5381 56.2852V59.8276C94.5381 59.8368 94.5418 59.8457 94.5484 59.8523C94.5549 59.8589 94.5638 59.8625 94.5731 59.8625H96.0763C96.0856 59.8625 96.0944 59.8589 96.101 59.8523C96.1076 59.8457 96.1112 59.8368 96.1112 59.8276V56.2852ZM99.607 56.2899C99.607 56.2847 99.606 56.2795 99.604 56.2747C99.602 56.2699 99.5991 56.2655 99.5954 56.2619C99.5917 56.2582 99.5874 56.2553 99.5825 56.2533C99.5777 56.2513 99.5726 56.2502 99.5674 56.2502H98.0735C98.0683 56.2502 98.0632 56.2513 98.0584 56.2533C98.0536 56.2553 98.0492 56.2582 98.0455 56.2619C98.0418 56.2655 98.0389 56.2699 98.0369 56.2747C98.0349 56.2795 98.0339 56.2847 98.0339 56.2899V59.8229C98.0339 59.8334 98.0381 59.8435 98.0455 59.8509C98.0529 59.8584 98.063 59.8625 98.0735 59.8625H99.5674C99.5779 59.8625 99.588 59.8584 99.5954 59.8509C99.6028 59.8435 99.607 59.8334 99.607 59.8229V56.2899ZM102.811 56.2858C102.811 56.2811 102.811 56.2765 102.809 56.2722C102.807 56.2679 102.804 56.264 102.801 56.2607C102.798 56.2574 102.794 56.2547 102.79 56.253C102.785 56.2512 102.781 56.2502 102.776 56.2502H101.274C101.269 56.2502 101.265 56.2512 101.26 56.253C101.256 56.2547 101.252 56.2574 101.249 56.2607C101.245 56.264 101.243 56.2679 101.241 56.2722C101.239 56.2765 101.238 56.2811 101.238 56.2858V59.827C101.238 59.8364 101.242 59.8455 101.249 59.8521C101.255 59.8588 101.264 59.8625 101.274 59.8625H102.776C102.785 59.8625 102.794 59.8588 102.801 59.8521C102.808 59.8455 102.811 59.8364 102.811 59.827V56.2858ZM92.9068 62.2769C92.9068 62.2701 92.9041 62.2636 92.8993 62.2588C92.8945 62.254 92.888 62.2513 92.8812 62.2513H91.3593C91.3525 62.2513 91.346 62.254 91.3412 62.2588C91.3364 62.2636 91.3337 62.2701 91.3337 62.2769V65.838C91.3337 65.8448 91.3364 65.8513 91.3412 65.8561C91.346 65.8609 91.3525 65.8636 91.3593 65.8636H92.8812C92.888 65.8636 92.8945 65.8609 92.8993 65.8561C92.9041 65.8513 92.9068 65.8448 92.9068 65.838V62.2769ZM96.1112 62.2787C96.1112 62.2751 96.1105 62.2715 96.1092 62.2682C96.1078 62.2649 96.1058 62.2619 96.1032 62.2593C96.1007 62.2568 96.0977 62.2548 96.0943 62.2534C96.091 62.252 96.0875 62.2513 96.0839 62.2513H94.5655C94.5583 62.2513 94.5513 62.2542 94.5462 62.2593C94.541 62.2645 94.5381 62.2714 94.5381 62.2787V65.8362C94.5381 65.8435 94.541 65.8504 94.5462 65.8556C94.5513 65.8607 94.5583 65.8636 94.5655 65.8636H96.0839C96.0875 65.8636 96.091 65.8629 96.0943 65.8615C96.0977 65.8601 96.1007 65.8581 96.1032 65.8556C96.1058 65.853 96.1078 65.85 96.1092 65.8467C96.1105 65.8434 96.1112 65.8398 96.1112 65.8362V62.2787ZM99.607 62.2799C99.607 62.2723 99.604 62.265 99.5986 62.2597C99.5933 62.2543 99.586 62.2513 99.5785 62.2513H98.0625C98.0549 62.2513 98.0476 62.2543 98.0423 62.2597C98.0369 62.265 98.0339 62.2723 98.0339 62.2799V65.835C98.0339 65.8426 98.0369 65.8499 98.0423 65.8552C98.0476 65.8606 98.0549 65.8636 98.0625 65.8636H99.5785C99.586 65.8636 99.5933 65.8606 99.5986 65.8552C99.604 65.8499 99.607 65.8426 99.607 65.835V62.2799ZM102.811 62.2799C102.811 62.2723 102.808 62.265 102.803 62.2597C102.798 62.2543 102.79 62.2513 102.783 62.2513H101.267C101.259 62.2513 101.252 62.2543 101.247 62.2597C101.241 62.265 101.238 62.2723 101.238 62.2799V65.835C101.238 65.8426 101.241 65.8499 101.247 65.8552C101.252 65.8606 101.259 65.8636 101.267 65.8636H102.783C102.79 65.8636 102.798 65.8606 102.803 65.8552C102.808 65.8499 102.811 65.8426 102.811 65.835V62.2799ZM102.811 68.2256C102.811 68.2172 102.808 68.2092 102.802 68.2033C102.796 68.1974 102.788 68.1941 102.78 68.1941H101.27C101.261 68.1941 101.253 68.1974 101.248 68.2033C101.242 68.2092 101.238 68.2172 101.238 68.2256V71.7749C101.238 71.7833 101.242 71.7913 101.248 71.7972C101.253 71.8031 101.261 71.8064 101.27 71.8064H102.78C102.788 71.8064 102.796 71.8031 102.802 71.7972C102.808 71.7913 102.811 71.7833 102.811 71.7749V68.2256Z" fill="#CCCCCF"/>
</g>
<g filter="url(#filter2_dd_1351_12273)">
<path d="M88.8441 103.5H82.3624C81.8477 103.435 81.4636 103.192 81.2099 102.77C81.1443 102.661 81.1049 102.555 81.0917 102.454C81.0827 102.385 81.0678 102.31 81.0468 102.231C81.0371 102.194 81.0322 102.119 81.0322 102.004C81.0342 87.1241 81.0351 78.2524 81.0351 75.389C81.0344 71.1269 81.0342 68.8393 81.0346 68.5263C81.0349 68.4967 81.0493 68.4859 81.0777 68.4936C84.6888 69.4721 87.3836 70.1934 89.1622 70.6575C89.2426 70.6785 89.3306 70.6977 89.4401 70.6977C91.2591 70.7 92.603 70.7006 93.4719 70.6995C93.4741 70.6995 93.4763 70.6999 93.4784 70.7008C93.4804 70.7016 93.4823 70.7028 93.4838 70.7044C93.4854 70.706 93.4867 70.7078 93.4875 70.7099C93.4884 70.7119 93.4888 70.7141 93.4888 70.7164V71.7598C93.4888 71.7754 93.4938 71.7905 93.5032 71.8028C93.5126 71.8152 93.5257 71.824 93.5406 71.828L98.4697 73.1482C98.4899 73.1537 98.5 73.1669 98.5 73.1879V82.0933C98.5 82.1174 98.4877 82.1294 98.4633 82.1294H94.7181C94.6944 82.1294 94.6758 82.1364 94.6622 82.1504L87.7965 89.0161C87.7853 89.027 87.7796 89.0404 87.7796 89.0563V92.1809C87.7796 92.2003 87.7895 92.2101 87.8093 92.2101H87.8548C87.8762 92.2101 87.8944 92.2176 87.9096 92.2328L88.3949 92.7187C88.4034 92.727 88.4101 92.7369 88.4147 92.748C88.4193 92.759 88.4217 92.7708 88.4217 92.7828C88.4174 94.6969 88.4147 96.6429 88.4135 98.6207C88.4135 98.6572 88.4135 98.8514 88.4135 99.2033C88.4131 99.8151 88.4155 100.836 88.4205 102.265C88.4209 102.392 88.4335 102.517 88.4584 102.639C88.5034 102.862 88.5285 102.985 88.5336 103.007C88.5572 103.12 88.6608 103.284 88.8441 103.5ZM88.8179 75.8534C88.8179 75.8467 88.8152 75.8404 88.8105 75.8357C88.8058 75.831 88.7995 75.8283 88.7928 75.8283H86.4751C86.4685 75.8283 86.4621 75.831 86.4574 75.8357C86.4527 75.8404 86.4501 75.8467 86.4501 75.8534V79.3783C86.4501 79.3849 86.4527 79.3913 86.4574 79.396C86.4621 79.4007 86.4685 79.4033 86.4751 79.4033H88.7928C88.7995 79.4033 88.8058 79.4007 88.8105 79.396C88.8152 79.3913 88.8179 79.3849 88.8179 79.3783V75.8534ZM93.1678 75.8499C93.1678 75.8445 93.1656 75.8393 93.1618 75.8355C93.158 75.8316 93.1528 75.8295 93.1474 75.8295H90.8297C90.8243 75.8295 90.8191 75.8316 90.8153 75.8355C90.8114 75.8393 90.8093 75.8445 90.8093 75.8499V79.369C90.8093 79.3744 90.8114 79.3796 90.8153 79.3834C90.8191 79.3872 90.8243 79.3893 90.8297 79.3893H93.1474C93.1528 79.3893 93.158 79.3872 93.1618 79.3834C93.1656 79.3796 93.1678 79.3744 93.1678 79.369V75.8499ZM96.9059 75.8511C96.9059 75.8452 96.9036 75.8396 96.8994 75.8354C96.8953 75.8312 96.8896 75.8289 96.8838 75.8289H94.5614C94.5555 75.8289 94.5499 75.8312 94.5458 75.8354C94.5416 75.8396 94.5393 75.8452 94.5393 75.8511V79.3445C94.5393 79.3504 94.5416 79.356 94.5458 79.3601C94.5499 79.3643 94.5555 79.3666 94.5614 79.3666H96.8838C96.8896 79.3666 96.8953 79.3643 96.8994 79.3601C96.9036 79.356 96.9059 79.3504 96.9059 79.3445V75.8511ZM85.0972 82.7517C85.0972 82.7455 85.0948 82.7396 85.0904 82.7352C85.086 82.7308 85.0801 82.7284 85.0739 82.7284H82.7283C82.7221 82.7284 82.7161 82.7308 82.7118 82.7352C82.7074 82.7396 82.7049 82.7455 82.7049 82.7517V86.2568C82.7049 86.263 82.7074 86.2689 82.7118 86.2733C82.7161 86.2776 82.7221 86.2801 82.7283 86.2801H85.0739C85.0801 86.2801 85.086 86.2776 85.0904 86.2733C85.0948 86.2689 85.0972 86.263 85.0972 86.2568V82.7517ZM88.8179 82.7517C88.8179 82.7455 88.8154 82.7396 88.811 82.7352C88.8067 82.7308 88.8007 82.7284 88.7946 82.7284H86.4734C86.4672 82.7284 86.4613 82.7308 86.4569 82.7352C86.4525 82.7396 86.4501 82.7455 86.4501 82.7517V86.2789C86.4501 86.282 86.4507 86.285 86.4519 86.2878C86.453 86.2907 86.4547 86.2932 86.4569 86.2954C86.4591 86.2976 86.4616 86.2993 86.4645 86.3004C86.4673 86.3016 86.4703 86.3022 86.4734 86.3022H88.7946C88.7976 86.3022 88.8007 86.3016 88.8035 86.3004C88.8063 86.2993 88.8089 86.2976 88.811 86.2954C88.8132 86.2932 88.8149 86.2907 88.8161 86.2878C88.8173 86.285 88.8179 86.282 88.8179 86.2789V82.7517ZM85.0966 88.6508C85.0966 88.6463 85.0949 88.642 85.0917 88.6388C85.0885 88.6357 85.0842 88.6339 85.0797 88.6339H82.7213C82.7168 88.6339 82.7125 88.6357 82.7093 88.6388C82.7061 88.642 82.7044 88.6463 82.7044 88.6508V92.1629C82.7044 92.1673 82.7061 92.1716 82.7093 92.1748C82.7125 92.178 82.7168 92.1798 82.7213 92.1798H85.0797C85.0842 92.1798 85.0885 92.178 85.0917 92.1748C85.0949 92.1716 85.0966 92.1673 85.0966 92.1629V88.6508ZM85.0966 95.619C85.0966 95.6134 85.0944 95.6081 85.0905 95.6042C85.0866 95.6002 85.0812 95.598 85.0757 95.598H82.7253C82.7198 95.598 82.7144 95.6002 82.7105 95.6042C82.7066 95.6081 82.7044 95.6134 82.7044 95.619V99.1311C82.7044 99.1366 82.7066 99.142 82.7105 99.1459C82.7144 99.1499 82.7198 99.1521 82.7253 99.1521H85.0757C85.0812 99.1521 85.0866 99.1499 85.0905 99.1459C85.0944 99.142 85.0966 99.1366 85.0966 99.1311V95.619Z" fill="#CCCCCF"/>
</g>
<g filter="url(#filter3_dd_1351_12273)">
<path d="M116.037 103.5H108.861C108.961 103.366 109.017 103.278 109.031 103.236C109.115 102.975 109.157 102.786 109.157 102.67C109.155 101.606 109.155 100.517 109.156 99.4031C109.156 99.3829 109.163 99.3656 109.178 99.3513L109.827 98.7011C109.849 98.6794 109.861 98.6501 109.861 98.6195V96.1899C109.861 96.1725 109.855 96.1575 109.843 96.1451L106.1 92.4029C106.092 92.3946 106.086 92.3847 106.081 92.3738C106.077 92.3629 106.074 92.3512 106.074 92.3394V89.1262C106.074 89.1141 106.07 89.1038 106.061 89.0953L102.855 85.8885C102.836 85.8695 102.826 85.8466 102.826 85.8198V76.3346C102.826 76.3264 102.829 76.3185 102.835 76.3128C102.841 76.307 102.849 76.3037 102.858 76.3037H116.011C116.015 76.3037 116.018 76.3044 116.021 76.3056C116.024 76.3069 116.027 76.3087 116.03 76.311C116.032 76.3134 116.034 76.3161 116.035 76.3192C116.036 76.3222 116.037 76.3255 116.037 76.3288V103.5ZM110.619 77.857C110.619 77.85 110.616 77.8434 110.611 77.8385C110.606 77.8335 110.599 77.8308 110.592 77.8308H108.281C108.274 77.8308 108.267 77.8335 108.262 77.8385C108.257 77.8434 108.254 77.85 108.254 77.857V81.3796C108.254 81.3865 108.257 81.3932 108.262 81.3981C108.267 81.403 108.274 81.4058 108.281 81.4058H110.592C110.599 81.4058 110.606 81.403 110.611 81.3981C110.616 81.3932 110.619 81.3865 110.619 81.3796V77.857ZM106.907 77.8704C106.907 77.8607 106.903 77.8513 106.897 77.8444C106.89 77.8376 106.88 77.8337 106.871 77.8337H104.565C104.555 77.8337 104.546 77.8376 104.539 77.8444C104.532 77.8513 104.528 77.8607 104.528 77.8704V81.3452C104.528 81.3549 104.532 81.3643 104.539 81.3711C104.546 81.378 104.555 81.3819 104.565 81.3819H106.871C106.88 81.3819 106.89 81.378 106.897 81.3711C106.903 81.3643 106.907 81.3549 106.907 81.3452V77.8704ZM106.907 83.3104C106.907 83.3031 106.904 83.2962 106.899 83.291C106.894 83.2859 106.887 83.283 106.88 83.283H104.555C104.548 83.283 104.541 83.2859 104.536 83.291C104.531 83.2962 104.528 83.3031 104.528 83.3104V86.7898C104.528 86.7971 104.531 86.8041 104.536 86.8092C104.541 86.8143 104.548 86.8172 104.555 86.8172H106.88C106.887 86.8172 106.894 86.8143 106.899 86.8092C106.904 86.8041 106.907 86.7971 106.907 86.7898V83.3104ZM110.619 83.3051C110.619 83.2993 110.616 83.2936 110.612 83.2895C110.608 83.2853 110.602 83.283 110.597 83.283H108.277C108.271 83.283 108.265 83.2853 108.261 83.2895C108.257 83.2936 108.254 83.2993 108.254 83.3051V86.8207C108.254 86.8266 108.257 86.8322 108.261 86.8364C108.265 86.8405 108.271 86.8429 108.277 86.8429H110.597C110.602 86.8429 110.608 86.8405 110.612 86.8364C110.616 86.8322 110.619 86.8266 110.619 86.8207V83.3051ZM114.364 83.3057C114.364 83.2997 114.361 83.2939 114.357 83.2897C114.353 83.2854 114.347 83.283 114.341 83.283H112.001C111.995 83.283 111.989 83.2854 111.985 83.2897C111.981 83.2939 111.979 83.2997 111.979 83.3057V86.7968C111.979 86.8029 111.981 86.8086 111.985 86.8129C111.989 86.8172 111.995 86.8195 112.001 86.8195H114.341C114.344 86.8195 114.347 86.819 114.35 86.8178C114.353 86.8167 114.355 86.815 114.357 86.8129C114.359 86.8108 114.361 86.8083 114.362 86.8055C114.363 86.8028 114.364 86.7998 114.364 86.7968V83.3057ZM110.619 88.7638C110.619 88.7581 110.616 88.7526 110.612 88.7485C110.608 88.7445 110.603 88.7422 110.597 88.7422H108.286C108.281 88.7422 108.275 88.7445 108.271 88.7485C108.267 88.7526 108.265 88.7581 108.265 88.7638V92.284C108.265 92.2897 108.267 92.2952 108.271 92.2993C108.275 92.3033 108.281 92.3056 108.286 92.3056H110.597C110.603 92.3056 110.608 92.3033 110.612 92.2993C110.616 92.2952 110.619 92.2897 110.619 92.284V88.7638ZM114.364 88.7632C114.364 88.7576 114.362 88.7523 114.358 88.7484C114.354 88.7444 114.348 88.7422 114.343 88.7422H112.01C112.004 88.7422 111.999 88.7444 111.995 88.7484C111.991 88.7523 111.989 88.7576 111.989 88.7632V92.238C111.989 92.2435 111.991 92.2489 111.995 92.2528C111.999 92.2567 112.004 92.259 112.01 92.259H114.343C114.348 92.259 114.354 92.2567 114.358 92.2528C114.362 92.2489 114.364 92.2435 114.364 92.238V88.7632ZM114.364 94.2014C114.364 94.1959 114.362 94.1905 114.358 94.1866C114.354 94.1827 114.348 94.1805 114.343 94.1805H112.01C112.004 94.1805 111.999 94.1827 111.995 94.1866C111.991 94.1905 111.989 94.1959 111.989 94.2014V97.6995C111.989 97.7051 111.991 97.7104 111.995 97.7144C111.999 97.7183 112.004 97.7205 112.01 97.7205H114.343C114.348 97.7205 114.354 97.7183 114.358 97.7144C114.362 97.7104 114.364 97.7051 114.364 97.6995V94.2014Z" fill="#CCCCCF"/>
</g>
<g filter="url(#filter4_dd_1351_12273)">
<path d="M98.6268 86.42C98.6163 86.4091 98.6035 86.4036 98.5883 86.4036H95.2073C95.1825 86.4036 95.1611 86.4126 95.1432 86.4304L89.3403 92.2334C89.3361 92.2376 89.3304 92.2399 89.3244 92.2399C89.3184 92.2399 89.3126 92.2376 89.3082 92.2334L88.5566 91.4812C88.531 91.4556 88.5182 91.4245 88.5182 91.388V89.7194C88.5182 89.6999 88.525 89.6831 88.5386 89.6687C89.6265 88.5465 90.4982 87.6687 91.1534 87.0352C91.7473 86.4607 92.2303 85.9824 92.6024 85.6002C93.528 84.6494 94.326 83.85 94.9964 83.2021C95.0652 83.1361 95.1178 83.0885 95.1543 83.0594C95.171 83.0462 95.19 83.0396 95.2114 83.0396H98.5487C98.5713 83.0396 98.5936 83.044 98.6144 83.0526C98.6352 83.0612 98.654 83.0738 98.6699 83.0897L105.261 89.6809C105.266 89.6867 105.269 89.6937 105.269 89.7019V91.3956C105.269 91.4111 105.264 91.4243 105.253 91.4352L105.1 91.5884C105.068 91.6207 105.035 91.6207 105.004 91.5884L103.616 90.2012C103.602 90.1864 103.584 90.1791 103.563 90.1791H102.413C102.404 90.1791 102.396 90.1775 102.389 90.1744C102.381 90.1713 102.374 90.1667 102.368 90.161L98.6268 86.42Z" fill="#CCCCCF"/>
</g>
<g filter="url(#filter5_dd_1351_12273)">
<path d="M92.6117 94.8603H95.0826C95.1125 94.8603 95.1168 94.871 95.0954 94.8924L93.7362 96.2517C93.7304 96.2574 93.7259 96.2642 93.7228 96.2717C93.7197 96.2792 93.7181 96.2872 93.7181 96.2953V98.9073C93.7181 98.9267 93.7249 98.9432 93.7385 98.9568L94.3998 99.6181C94.4106 99.6289 94.4161 99.6418 94.4161 99.6565C94.4324 100.77 94.44 101.707 94.4388 102.468C94.4384 102.58 94.4485 102.682 94.4691 102.775C94.501 102.919 94.5256 103.019 94.5431 103.074C94.5827 103.199 94.6544 103.315 94.7581 103.42C94.7787 103.441 94.7742 103.452 94.7447 103.452C94.6138 103.452 93.2922 103.452 90.7799 103.452C90.7337 103.452 90.6226 103.432 90.4466 103.391C90.3224 103.362 90.2167 103.324 90.1297 103.276C89.8745 103.137 89.6754 102.945 89.5325 102.7C89.4715 102.596 89.4331 102.484 89.4171 102.365C89.4067 102.286 89.389 102.208 89.3641 102.131C89.3455 102.073 89.3364 101.994 89.3367 101.896C89.3433 99.0636 89.3391 96.8554 89.3239 95.2711C89.3235 95.242 89.3247 94.4917 89.3274 93.0204C89.3274 93.0085 89.3322 92.997 89.3408 92.9884L95.1141 87.2151C95.1292 87.2 95.1475 87.1924 95.1688 87.1924H98.5813C98.6104 87.1924 98.6355 87.2027 98.6564 87.2233L101.581 90.148C101.599 90.1663 101.593 90.1754 101.562 90.1754H99.8433C99.8349 90.1754 99.8268 90.177 99.8192 90.1801C99.8116 90.1832 99.8047 90.1878 99.799 90.1935L95.9501 94.0429C95.9284 94.0647 95.9175 94.06 95.9175 94.0289V92.1715C95.9175 92.147 95.9053 92.1348 95.8808 92.1348H93.4204C93.411 92.1348 93.4018 92.1386 93.3947 92.1453L92.6088 92.9027C92.5981 92.913 92.5896 92.9254 92.5838 92.9391C92.578 92.9529 92.575 92.9676 92.575 92.9825V94.823C92.575 94.8479 92.5872 94.8603 92.6117 94.8603Z" fill="#CCCCCF"/>
</g>
<g filter="url(#filter6_dd_1351_12273)">
<path d="M79.9723 103.5H72.3463C72.2508 103.479 72.1552 103.458 72.0597 103.436C71.9466 103.411 71.8548 103.379 71.7841 103.341C71.5099 103.194 71.3001 102.982 71.1549 102.706C71.1199 102.639 71.0902 102.549 71.0657 102.434C71.0455 102.341 71.0236 102.247 70.9999 102.154V89.5773C73.8524 88.8122 76.7059 88.0475 79.5604 87.2835C79.708 87.2439 79.8358 87.2338 79.9438 87.2532C79.9632 87.2567 79.9729 87.2684 79.9729 87.2882L79.9723 103.5ZM75.1167 91.1429C75.1167 91.1354 75.1138 91.1283 75.1085 91.1231C75.1033 91.1178 75.0962 91.1149 75.0888 91.1149H72.7594C72.752 91.1149 72.7449 91.1178 72.7396 91.1231C72.7344 91.1283 72.7314 91.1354 72.7314 91.1429V94.6398C72.7314 94.6435 72.7322 94.6471 72.7336 94.6505C72.735 94.6539 72.737 94.657 72.7396 94.6596C72.7422 94.6622 72.7453 94.6642 72.7487 94.6656C72.7521 94.667 72.7557 94.6677 72.7594 94.6677H75.0888C75.0924 94.6677 75.0961 94.667 75.0995 94.6656C75.1028 94.6642 75.1059 94.6622 75.1085 94.6596C75.1111 94.657 75.1132 94.6539 75.1146 94.6505C75.116 94.6471 75.1167 94.6435 75.1167 94.6398V91.1429ZM78.8409 91.1434C78.8409 91.1397 78.8401 91.136 78.8387 91.1325C78.8373 91.129 78.8352 91.1259 78.8325 91.1233C78.8299 91.1206 78.8267 91.1185 78.8232 91.1171C78.8198 91.1156 78.8161 91.1149 78.8123 91.1149H76.5051C76.5014 91.1149 76.4977 91.1156 76.4942 91.1171C76.4907 91.1185 76.4876 91.1206 76.4849 91.1233C76.4823 91.1259 76.4802 91.129 76.4787 91.1325C76.4773 91.136 76.4766 91.1397 76.4766 91.1434V94.6613C76.4766 94.6689 76.4796 94.6762 76.4849 94.6815C76.4903 94.6869 76.4975 94.6899 76.5051 94.6899H78.8123C78.8199 94.6899 78.8272 94.6869 78.8325 94.6815C78.8379 94.6762 78.8409 94.6689 78.8409 94.6613V91.1434ZM75.1167 98.0697C75.1167 98.0641 75.1145 98.0588 75.1106 98.0549C75.1066 98.0509 75.1013 98.0487 75.0957 98.0487H72.7524C72.7469 98.0487 72.7415 98.0509 72.7376 98.0549C72.7337 98.0588 72.7314 98.0641 72.7314 98.0697V101.581C72.7314 101.586 72.7337 101.592 72.7376 101.595C72.7415 101.599 72.7469 101.602 72.7524 101.602H75.0957C75.1013 101.602 75.1066 101.599 75.1106 101.595C75.1145 101.592 75.1167 101.586 75.1167 101.581V98.0697ZM78.8409 98.0732C78.8409 98.0666 78.8382 98.0602 78.8335 98.0555C78.8288 98.0508 78.8225 98.0482 78.8158 98.0482H76.5016C76.495 98.0482 76.4886 98.0508 76.4839 98.0555C76.4792 98.0602 76.4766 98.0666 76.4766 98.0732V101.598C76.4766 101.605 76.4792 101.611 76.4839 101.616C76.4886 101.621 76.495 101.623 76.5016 101.623H78.8158C78.8225 101.623 78.8288 101.621 78.8335 101.616C78.8382 101.611 78.8409 101.605 78.8409 101.598V98.0732Z" fill="#CCCCCF"/>
</g>
<g filter="url(#filter7_dd_1351_12273)">
<path d="M100.186 93.8553L95.1788 98.8624C95.1752 98.866 95.1704 98.868 95.1652 98.868C95.1601 98.868 95.1551 98.866 95.1514 98.8624L94.4767 98.1877C94.4631 98.1737 94.4563 98.157 94.4563 98.1376V96.667C94.4563 96.6476 94.4635 96.6311 94.4779 96.6175C94.9241 96.191 95.337 95.7834 95.7165 95.3946C96.108 94.9941 96.3805 94.7174 96.5339 94.5643C96.9853 94.1153 97.437 93.6667 97.8891 93.2185C97.9672 93.1416 98.082 93.0495 98.1735 92.958C98.7514 92.3797 99.4181 91.7009 100.174 90.9217C100.188 90.9062 100.206 90.8984 100.228 90.8984H103.181C103.193 90.8984 103.203 90.9029 103.212 90.9118L108.926 96.6257C108.941 96.6404 108.948 96.6583 108.948 96.6793V98.1521C108.948 98.1731 108.941 98.1912 108.926 98.2063L108.281 98.8507C108.275 98.8573 108.266 98.861 108.256 98.861C108.247 98.861 108.238 98.8573 108.231 98.8507L103.237 93.8564C103.23 93.849 103.221 93.8432 103.211 93.8392C103.202 93.8352 103.191 93.8331 103.181 93.8331H100.239C100.218 93.8331 100.201 93.8405 100.186 93.8553Z" fill="#CCCCCF"/>
</g>
<g filter="url(#filter8_dd_1351_12273)">
<path d="M126 95.5028V102.14C125.974 102.244 125.949 102.349 125.927 102.454C125.9 102.576 125.865 102.676 125.82 102.753C125.574 103.181 125.191 103.431 124.673 103.502H117.086V93.223C117.086 93.2036 117.096 93.1929 117.115 93.191C117.241 93.1777 117.377 93.1911 117.524 93.2312C119.094 93.6592 121.92 94.4164 126 95.5028ZM120.581 98.0739C120.581 98.0708 120.581 98.0677 120.58 98.0648C120.578 98.0619 120.577 98.0593 120.574 98.0571C120.572 98.0548 120.57 98.0531 120.567 98.0519C120.564 98.0507 120.561 98.0501 120.558 98.0501H118.241C118.238 98.0501 118.235 98.0507 118.232 98.0519C118.229 98.0531 118.226 98.0548 118.224 98.0571C118.222 98.0593 118.22 98.0619 118.219 98.0648C118.218 98.0677 118.217 98.0708 118.217 98.0739V101.601C118.217 101.604 118.218 101.607 118.219 101.61C118.22 101.613 118.222 101.616 118.224 101.618C118.226 101.62 118.229 101.622 118.232 101.623C118.235 101.624 118.238 101.625 118.241 101.625H120.558C120.564 101.625 120.57 101.623 120.574 101.618C120.579 101.614 120.581 101.608 120.581 101.601V98.0739ZM124.327 98.0734C124.327 98.0704 124.326 98.0674 124.325 98.0647C124.324 98.0619 124.322 98.0594 124.32 98.0573C124.318 98.0552 124.315 98.0535 124.313 98.0524C124.31 98.0512 124.307 98.0506 124.304 98.0506H121.964C121.961 98.0506 121.958 98.0512 121.955 98.0524C121.953 98.0535 121.95 98.0552 121.948 98.0573C121.946 98.0594 121.944 98.0619 121.943 98.0647C121.942 98.0674 121.941 98.0704 121.941 98.0734V101.581C121.941 101.587 121.944 101.593 121.948 101.597C121.952 101.601 121.958 101.604 121.964 101.604H124.304C124.31 101.604 124.316 101.601 124.32 101.597C124.324 101.593 124.327 101.587 124.327 101.581V98.0734Z" fill="#CCCCCF"/>
</g>
<g filter="url(#filter9_dd_1351_12273)">
<path d="M101.704 103.458C98.1648 103.458 96.3927 103.458 96.3876 103.458C96.28 103.457 96.1983 103.449 96.1423 103.434C95.7819 103.34 95.5067 103.124 95.3168 102.786C95.2439 102.656 95.2468 102.492 95.1962 102.343C95.1783 102.291 95.1694 102.231 95.1694 102.163C95.1678 101.099 95.1686 100.23 95.1717 99.5565C95.1721 99.5363 95.1793 99.5193 95.1932 99.5053L100.196 94.5028C100.21 94.4888 100.227 94.482 100.247 94.4824C100.75 94.4945 101.235 94.5005 101.705 94.5005C102.174 94.5005 102.66 94.4945 103.162 94.4824C103.183 94.482 103.2 94.4888 103.214 94.5028L108.216 99.5059C108.23 99.5198 108.237 99.5369 108.237 99.5571C108.24 100.231 108.241 101.1 108.239 102.164C108.239 102.231 108.23 102.291 108.212 102.344C108.161 102.493 108.164 102.656 108.091 102.787C107.902 103.125 107.626 103.341 107.266 103.435C107.21 103.449 107.128 103.457 107.021 103.459C107.016 103.459 105.243 103.459 101.704 103.458ZM98.005 101.138L100.853 101.15C100.859 101.15 100.865 101.148 100.869 101.144C100.873 101.14 100.875 101.134 100.875 101.128V98.7974C100.875 98.7926 100.873 98.788 100.87 98.7846C100.866 98.7812 100.862 98.7793 100.857 98.7793H98.7141C98.6923 98.7793 98.6741 98.7867 98.6593 98.8015L98.0003 99.468C97.986 99.482 97.979 99.4989 97.9794 99.5187L97.9864 101.119C97.9864 101.132 97.9926 101.138 98.005 101.138ZM102.569 98.7752C102.563 98.7752 102.557 98.7777 102.553 98.7821C102.548 98.7864 102.546 98.7924 102.546 98.7985V101.121C102.546 101.127 102.548 101.133 102.553 101.137C102.557 101.142 102.563 101.144 102.569 101.144H105.42C105.426 101.144 105.432 101.142 105.437 101.137C105.441 101.133 105.443 101.127 105.443 101.121V99.489C105.443 99.4858 105.443 99.4827 105.442 99.4798C105.44 99.4769 105.439 99.4743 105.436 99.4721L104.747 98.7822C104.745 98.78 104.742 98.7782 104.739 98.777C104.737 98.7758 104.733 98.7752 104.73 98.7752H102.569Z" fill="#CCCCCF"/>
</g>
</g>
<defs>
<filter id="filter0_d_1351_12273" x="58.4999" y="46.0005" width="80" height="80" filterUnits="userSpaceOnUse" color-interpolation-filters="sRGB">
<feFlood flood-opacity="0" result="BackgroundImageFix"/>
<feColorMatrix in="SourceAlpha" type="matrix" values="0 0 0 0 0 0 0 0 0 0 0 0 0 0 0 0 0 0 127 0" result="hardAlpha"/>
<feOffset dy="10"/>
<feGaussianBlur stdDeviation="5"/>
<feComposite in2="hardAlpha" operator="out"/>
<feColorMatrix type="matrix" values="0 0 0 0 0 0 0 0 0 0 0 0 0 0 0 0 0 0 0.25 0"/>
<feBlend mode="normal" in2="BackgroundImageFix" result="effect1_dropShadow_1351_12273"/>
<feBlend mode="normal" in="SourceGraphic" in2="effect1_dropShadow_1351_12273" result="shape"/>
</filter>
<filter id="filter1_dd_1351_12273" x="89.178" y="48.5596" width="17.0392" height="36.3286" filterUnits="userSpaceOnUse" color-interpolation-filters="sRGB">
<feFlood flood-opacity="0" result="BackgroundImageFix"/>
<feColorMatrix in="SourceAlpha" type="matrix" values="0 0 0 0 0 0 0 0 0 0 0 0 0 0 0 0 0 0 127 0" result="hardAlpha"/>
<feOffset dx="1.25" dy="1.25"/>
<feComposite in2="hardAlpha" operator="out"/>
<feColorMatrix type="matrix" values="0 0 0 0 1 0 0 0 0 0 0 0 0 0 0 0 0 0 0.5 0"/>
<feBlend mode="normal" in2="BackgroundImageFix" result="effect1_dropShadow_1351_12273"/>
<feColorMatrix in="SourceAlpha" type="matrix" values="0 0 0 0 0 0 0 0 0 0 0 0 0 0 0 0 0 0 127 0" result="hardAlpha"/>
<feOffset dx="0.75" dy="0.75"/>
<feComposite in2="hardAlpha" operator="out"/>
<feColorMatrix type="matrix" values="0 0 0 0 0.15 0 0 0 0 0 0 0 0 0 1 0 0 0 0.5 0"/>
<feBlend mode="normal" in2="effect1_dropShadow_1351_12273" result="effect2_dropShadow_1351_12273"/>
<feBlend mode="normal" in="SourceGraphic" in2="effect2_dropShadow_1351_12273" result="shape"/>
</filter>
<filter id="filter2_dd_1351_12273" x="81.0322" y="68.4912" width="18.7178" height="36.2588" filterUnits="userSpaceOnUse" color-interpolation-filters="sRGB">
<feFlood flood-opacity="0" result="BackgroundImageFix"/>
<feColorMatrix in="SourceAlpha" type="matrix" values="0 0 0 0 0 0 0 0 0 0 0 0 0 0 0 0 0 0 127 0" result="hardAlpha"/>
<feOffset dx="1.25" dy="1.25"/>
<feComposite in2="hardAlpha" operator="out"/>
<feColorMatrix type="matrix" values="0 0 0 0 1 0 0 0 0 0 0 0 0 0 0 0 0 0 0.5 0"/>
<feBlend mode="normal" in2="BackgroundImageFix" result="effect1_dropShadow_1351_12273"/>
<feColorMatrix in="SourceAlpha" type="matrix" values="0 0 0 0 0 0 0 0 0 0 0 0 0 0 0 0 0 0 127 0" result="hardAlpha"/>
<feOffset dx="0.75" dy="0.75"/>
<feComposite in2="hardAlpha" operator="out"/>
<feColorMatrix type="matrix" values="0 0 0 0 0.15 0 0 0 0 0 0 0 0 0 1 0 0 0 0.5 0"/>
<feBlend mode="normal" in2="effect1_dropShadow_1351_12273" result="effect2_dropShadow_1351_12273"/>
<feBlend mode="normal" in="SourceGraphic" in2="effect2_dropShadow_1351_12273" result="shape"/>
</filter>
<filter id="filter3_dd_1351_12273" x="102.826" y="76.3037" width="14.4611" height="28.4463" filterUnits="userSpaceOnUse" color-interpolation-filters="sRGB">
<feFlood flood-opacity="0" result="BackgroundImageFix"/>
<feColorMatrix in="SourceAlpha" type="matrix" values="0 0 0 0 0 0 0 0 0 0 0 0 0 0 0 0 0 0 127 0" result="hardAlpha"/>
<feOffset dx="1.25" dy="1.25"/>
<feComposite in2="hardAlpha" operator="out"/>
<feColorMatrix type="matrix" values="0 0 0 0 1 0 0 0 0 0 0 0 0 0 0 0 0 0 0.5 0"/>
<feBlend mode="normal" in2="BackgroundImageFix" result="effect1_dropShadow_1351_12273"/>
<feColorMatrix in="SourceAlpha" type="matrix" values="0 0 0 0 0 0 0 0 0 0 0 0 0 0 0 0 0 0 127 0" result="hardAlpha"/>
<feOffset dx="0.75" dy="0.75"/>
<feComposite in2="hardAlpha" operator="out"/>
<feColorMatrix type="matrix" values="0 0 0 0 0.15 0 0 0 0 0 0 0 0 0 1 0 0 0 0.5 0"/>
<feBlend mode="normal" in2="effect1_dropShadow_1351_12273" result="effect2_dropShadow_1351_12273"/>
<feBlend mode="normal" in="SourceGraphic" in2="effect2_dropShadow_1351_12273" result="shape"/>
</filter>
<filter id="filter4_dd_1351_12273" x="88.5182" y="83.0396" width="18.0011" height="10.4502" filterUnits="userSpaceOnUse" color-interpolation-filters="sRGB">
<feFlood flood-opacity="0" result="BackgroundImageFix"/>
<feColorMatrix in="SourceAlpha" type="matrix" values="0 0 0 0 0 0 0 0 0 0 0 0 0 0 0 0 0 0 127 0" result="hardAlpha"/>
<feOffset dx="1.25" dy="1.25"/>
<feComposite in2="hardAlpha" operator="out"/>
<feColorMatrix type="matrix" values="0 0 0 0 1 0 0 0 0 0 0 0 0 0 0 0 0 0 0.5 0"/>
<feBlend mode="normal" in2="BackgroundImageFix" result="effect1_dropShadow_1351_12273"/>
<feColorMatrix in="SourceAlpha" type="matrix" values="0 0 0 0 0 0 0 0 0 0 0 0 0 0 0 0 0 0 127 0" result="hardAlpha"/>
<feOffset dx="0.75" dy="0.75"/>
<feComposite in2="hardAlpha" operator="out"/>
<feColorMatrix type="matrix" values="0 0 0 0 0.15 0 0 0 0 0 0 0 0 0 1 0 0 0 0.5 0"/>
<feBlend mode="normal" in2="effect1_dropShadow_1351_12273" result="effect2_dropShadow_1351_12273"/>
<feBlend mode="normal" in="SourceGraphic" in2="effect2_dropShadow_1351_12273" result="shape"/>
</filter>
<filter id="filter5_dd_1351_12273" x="89.3239" y="87.1924" width="13.5172" height="17.5098" filterUnits="userSpaceOnUse" color-interpolation-filters="sRGB">
<feFlood flood-opacity="0" result="BackgroundImageFix"/>
<feColorMatrix in="SourceAlpha" type="matrix" values="0 0 0 0 0 0 0 0 0 0 0 0 0 0 0 0 0 0 127 0" result="hardAlpha"/>
<feOffset dx="1.25" dy="1.25"/>
<feComposite in2="hardAlpha" operator="out"/>
<feColorMatrix type="matrix" values="0 0 0 0 1 0 0 0 0 0 0 0 0 0 0 0 0 0 0.5 0"/>
<feBlend mode="normal" in2="BackgroundImageFix" result="effect1_dropShadow_1351_12273"/>
<feColorMatrix in="SourceAlpha" type="matrix" values="0 0 0 0 0 0 0 0 0 0 0 0 0 0 0 0 0 0 127 0" result="hardAlpha"/>
<feOffset dx="0.75" dy="0.75"/>
<feComposite in2="hardAlpha" operator="out"/>
<feColorMatrix type="matrix" values="0 0 0 0 0.15 0 0 0 0 0 0 0 0 0 1 0 0 0 0.5 0"/>
<feBlend mode="normal" in2="effect1_dropShadow_1351_12273" result="effect2_dropShadow_1351_12273"/>
<feBlend mode="normal" in="SourceGraphic" in2="effect2_dropShadow_1351_12273" result="shape"/>
</filter>
<filter id="filter6_dd_1351_12273" x="70.9999" y="87.2437" width="10.223" height="17.5068" filterUnits="userSpaceOnUse" color-interpolation-filters="sRGB">
<feFlood flood-opacity="0" result="BackgroundImageFix"/>
<feColorMatrix in="SourceAlpha" type="matrix" values="0 0 0 0 0 0 0 0 0 0 0 0 0 0 0 0 0 0 127 0" result="hardAlpha"/>
<feOffset dx="1.25" dy="1.25"/>
<feComposite in2="hardAlpha" operator="out"/>
<feColorMatrix type="matrix" values="0 0 0 0 1 0 0 0 0 0 0 0 0 0 0 0 0 0 0.5 0"/>
<feBlend mode="normal" in2="BackgroundImageFix" result="effect1_dropShadow_1351_12273"/>
<feColorMatrix in="SourceAlpha" type="matrix" values="0 0 0 0 0 0 0 0 0 0 0 0 0 0 0 0 0 0 127 0" result="hardAlpha"/>
<feOffset dx="0.75" dy="0.75"/>
<feComposite in2="hardAlpha" operator="out"/>
<feColorMatrix type="matrix" values="0 0 0 0 0.15 0 0 0 0 0 0 0 0 0 1 0 0 0 0.5 0"/>
<feBlend mode="normal" in2="effect1_dropShadow_1351_12273" result="effect2_dropShadow_1351_12273"/>
<feBlend mode="normal" in="SourceGraphic" in2="effect2_dropShadow_1351_12273" result="shape"/>
</filter>
<filter id="filter7_dd_1351_12273" x="94.4563" y="90.8984" width="15.7417" height="9.21973" filterUnits="userSpaceOnUse" color-interpolation-filters="sRGB">
<feFlood flood-opacity="0" result="BackgroundImageFix"/>
<feColorMatrix in="SourceAlpha" type="matrix" values="0 0 0 0 0 0 0 0 0 0 0 0 0 0 0 0 0 0 127 0" result="hardAlpha"/>
<feOffset dx="1.25" dy="1.25"/>
<feComposite in2="hardAlpha" operator="out"/>
<feColorMatrix type="matrix" values="0 0 0 0 1 0 0 0 0 0 0 0 0 0 0 0 0 0 0.5 0"/>
<feBlend mode="normal" in2="BackgroundImageFix" result="effect1_dropShadow_1351_12273"/>
<feColorMatrix in="SourceAlpha" type="matrix" values="0 0 0 0 0 0 0 0 0 0 0 0 0 0 0 0 0 0 127 0" result="hardAlpha"/>
<feOffset dx="0.75" dy="0.75"/>
<feComposite in2="hardAlpha" operator="out"/>
<feColorMatrix type="matrix" values="0 0 0 0 0.15 0 0 0 0 0 0 0 0 0 1 0 0 0 0.5 0"/>
<feBlend mode="normal" in2="effect1_dropShadow_1351_12273" result="effect2_dropShadow_1351_12273"/>
<feBlend mode="normal" in="SourceGraphic" in2="effect2_dropShadow_1351_12273" result="shape"/>
</filter>
<filter id="filter8_dd_1351_12273" x="117.086" y="93.186" width="10.1636" height="11.5664" filterUnits="userSpaceOnUse" color-interpolation-filters="sRGB">
<feFlood flood-opacity="0" result="BackgroundImageFix"/>
<feColorMatrix in="SourceAlpha" type="matrix" values="0 0 0 0 0 0 0 0 0 0 0 0 0 0 0 0 0 0 127 0" result="hardAlpha"/>
<feOffset dx="1.25" dy="1.25"/>
<feComposite in2="hardAlpha" operator="out"/>
<feColorMatrix type="matrix" values="0 0 0 0 1 0 0 0 0 0 0 0 0 0 0 0 0 0 0.5 0"/>
<feBlend mode="normal" in2="BackgroundImageFix" result="effect1_dropShadow_1351_12273"/>
<feColorMatrix in="SourceAlpha" type="matrix" values="0 0 0 0 0 0 0 0 0 0 0 0 0 0 0 0 0 0 127 0" result="hardAlpha"/>
<feOffset dx="0.75" dy="0.75"/>
<feComposite in2="hardAlpha" operator="out"/>
<feColorMatrix type="matrix" values="0 0 0 0 0.15 0 0 0 0 0 0 0 0 0 1 0 0 0 0.5 0"/>
<feBlend mode="normal" in2="effect1_dropShadow_1351_12273" result="effect2_dropShadow_1351_12273"/>
<feBlend mode="normal" in="SourceGraphic" in2="effect2_dropShadow_1351_12273" result="shape"/>
</filter>
<filter id="filter9_dd_1351_12273" x="95.1686" y="94.4824" width="14.3214" height="10.2266" filterUnits="userSpaceOnUse" color-interpolation-filters="sRGB">
<feFlood flood-opacity="0" result="BackgroundImageFix"/>
<feColorMatrix in="SourceAlpha" type="matrix" values="0 0 0 0 0 0 0 0 0 0 0 0 0 0 0 0 0 0 127 0" result="hardAlpha"/>
<feOffset dx="1.25" dy="1.25"/>
<feComposite in2="hardAlpha" operator="out"/>
<feColorMatrix type="matrix" values="0 0 0 0 1 0 0 0 0 0 0 0 0 0 0 0 0 0 0.5 0"/>
<feBlend mode="normal" in2="BackgroundImageFix" result="effect1_dropShadow_1351_12273"/>
<feColorMatrix in="SourceAlpha" type="matrix" values="0 0 0 0 0 0 0 0 0 0 0 0 0 0 0 0 0 0 127 0" result="hardAlpha"/>
<feOffset dx="0.75" dy="0.75"/>
<feComposite in2="hardAlpha" operator="out"/>
<feColorMatrix type="matrix" values="0 0 0 0 0.15 0 0 0 0 0 0 0 0 0 1 0 0 0 0.5 0"/>
<feBlend mode="normal" in2="effect1_dropShadow_1351_12273" result="effect2_dropShadow_1351_12273"/>
<feBlend mode="normal" in="SourceGraphic" in2="effect2_dropShadow_1351_12273" result="shape"/>
</filter>
</defs>
</svg>
