<svg width="196" height="196" viewBox="0 0 196 196" fill="none" xmlns="http://www.w3.org/2000/svg">
<g filter="url(#filter0_d_1351_12280)">
<g filter="url(#filter1_dd_1351_12280)">
<path d="M97.2517 61.0011C107.878 61.0016 114.112 61.0036 115.953 61.0071C115.966 61.0071 115.977 61.012 115.986 61.0207C115.995 61.0294 116 61.0411 116 61.0534V90.2045C116 90.2282 115.989 90.2461 115.969 90.2583C103.907 97.1791 97.6919 100.745 97.3241 100.956C97.3159 100.96 97.3048 100.969 97.2905 100.983C97.2768 100.995 97.2631 101.001 97.2494 101.001C97.2351 101.001 97.2212 100.995 97.2075 100.983C97.1932 100.969 97.1821 100.96 97.1739 100.956C96.8061 100.745 90.5918 97.1784 78.531 90.256C78.5102 90.2439 78.4998 90.2259 78.4998 90.2022L78.5036 61.0511C78.5036 61.0388 78.5085 61.0271 78.5172 61.0184C78.5259 61.0097 78.5377 61.0049 78.5501 61.0049C80.3914 61.0018 86.6253 61.0006 97.2517 61.0011Z" fill="#D9D9D9"/>
</g>
<g filter="url(#filter2_dd_1351_12280)">
<path d="M97.2494 51.0073C102.153 51.0073 105.227 51.0053 106.473 51.0012C106.687 51.0012 106.829 50.9903 106.992 51.1245C107.259 51.3447 107.44 51.4982 107.537 51.585C109.17 53.0625 110.152 53.9617 110.985 54.6634C111.046 54.7151 111.128 54.7429 111.23 54.7465C111.402 54.7533 112.967 54.7556 115.924 54.7533C115.934 54.7533 115.944 54.755 115.953 54.7584C115.962 54.7617 115.971 54.7667 115.978 54.7729C115.985 54.779 115.99 54.7864 115.994 54.7945C115.998 54.8026 116 54.8113 116 54.8201V58.4645C116 58.4737 115.996 58.4826 115.988 58.4891C115.981 58.4956 115.971 58.4993 115.961 58.4993C109.705 58.4997 103.469 58.5002 97.2501 58.5006C91.0313 58.5011 84.7943 58.5011 78.5394 58.5006C78.5291 58.5006 78.5192 58.497 78.5119 58.4905C78.5046 58.4839 78.5005 58.4751 78.5005 58.4659L78.4998 54.8214C78.4998 54.8037 78.5077 54.7867 78.5219 54.7742C78.536 54.7617 78.5552 54.7547 78.5752 54.7547C81.533 54.7569 83.0977 54.7547 83.2695 54.7478C83.3716 54.7442 83.4532 54.7165 83.5141 54.6647C84.348 53.9631 85.3296 53.0639 86.963 51.5857C87.059 51.4989 87.2407 51.3454 87.508 51.1252C87.6695 50.991 87.8121 51.0019 88.0255 51.0026C89.2719 51.0057 92.3465 51.0073 97.2494 51.0073Z" fill="#D9D9D9"/>
</g>
<g filter="url(#filter3_dd_1351_12280)">
<path d="M108.132 48.501L112.262 52.5493C112.295 52.5823 112.34 52.6008 112.387 52.6008C114.48 52.6053 116.01 52.6038 116.977 52.5963C117.106 52.5948 117.195 52.6174 117.243 52.6642C117.573 52.9813 117.896 53.2973 118.213 53.6119C118.344 53.7422 118.44 53.8593 118.5 53.9632V91.6124C118.159 91.9942 117.799 92.3631 117.421 92.719C117.259 92.8706 117.074 93.0059 116.866 93.1247C115.944 93.6491 109.917 97.0811 98.7819 103.42C98.6871 103.475 98.5923 103.501 98.4975 103.501C97.6551 103.495 96.825 103.495 96.0073 103.501C95.909 103.501 95.8112 103.474 95.7139 103.419C92.7409 101.726 86.7125 98.2943 77.6287 93.1232C77.4245 93.0069 77.2427 92.8734 77.0834 92.7227C76.7048 92.3653 76.3436 91.9967 75.9998 91.6169V53.9833C76.4273 53.4404 76.849 52.998 77.2649 52.656C77.3138 52.6157 77.4104 52.5958 77.5546 52.5963C79.0796 52.6058 80.6034 52.6068 82.126 52.5993C82.1647 52.5993 82.202 52.584 82.2296 52.5568L86.3646 48.501H108.132ZM97.2498 102.751C97.6803 102.751 97.9694 102.751 98.1171 102.751C98.22 102.751 98.3158 102.726 98.4045 102.675C102.404 100.398 108.435 96.9642 116.497 92.3752C116.698 92.2604 116.877 92.1284 117.033 91.9793C117.261 91.7635 117.479 91.5458 117.688 91.3261C117.724 91.2887 117.744 91.2391 117.744 91.1874C117.743 79.0296 117.743 66.8639 117.744 54.6902C117.744 54.4494 117.771 54.3047 117.635 54.1675C117.436 53.9669 117.223 53.7708 117.026 53.5642C116.887 53.4176 116.767 53.3442 116.666 53.3442C115.237 53.3482 113.683 53.3492 112.005 53.3472C111.96 53.3472 111.916 53.3295 111.884 53.298L107.863 49.3332C107.836 49.306 107.804 49.2844 107.768 49.2697C107.732 49.255 107.694 49.2474 107.655 49.2474C107.338 49.2469 103.869 49.2467 97.2498 49.2467C90.6302 49.2467 87.1619 49.2469 86.8448 49.2474C86.806 49.2474 86.7675 49.255 86.7317 49.2697C86.6959 49.2844 86.6634 49.306 86.6361 49.3332L82.6152 53.298C82.5832 53.3295 82.54 53.3472 82.495 53.3472C80.8162 53.3492 79.2624 53.3482 77.8336 53.3442C77.7328 53.3442 77.6128 53.4176 77.4736 53.5642C77.2763 53.7708 77.0638 53.9669 76.8641 54.1675C76.7288 54.3047 76.7552 54.4494 76.7552 54.6902C76.7562 66.8639 76.7562 79.0296 76.7552 91.1874C76.7552 91.2391 76.7753 91.2887 76.8112 91.3261C77.0204 91.5458 77.2387 91.7635 77.4661 91.9793C77.6229 92.1284 77.8018 92.2604 78.003 92.3752C86.0649 96.9642 92.0956 100.398 96.095 102.675C96.1837 102.726 96.2795 102.751 96.3824 102.751C96.5301 102.751 96.8192 102.751 97.2498 102.751Z" fill="#D9D9D9"/>
</g>
</g>
<defs>
<filter id="filter0_d_1351_12280" x="58.4999" y="46.0005" width="80" height="80" filterUnits="userSpaceOnUse" color-interpolation-filters="sRGB">
<feFlood flood-opacity="0" result="BackgroundImageFix"/>
<feColorMatrix in="SourceAlpha" type="matrix" values="0 0 0 0 0 0 0 0 0 0 0 0 0 0 0 0 0 0 127 0" result="hardAlpha"/>
<feOffset dy="10"/>
<feGaussianBlur stdDeviation="5"/>
<feComposite in2="hardAlpha" operator="out"/>
<feColorMatrix type="matrix" values="0 0 0 0 0 0 0 0 0 0 0 0 0 0 0 0 0 0 0.25 0"/>
<feBlend mode="normal" in2="BackgroundImageFix" result="effect1_dropShadow_1351_12280"/>
<feBlend mode="normal" in="SourceGraphic" in2="effect1_dropShadow_1351_12280" result="shape"/>
</filter>
<filter id="filter1_dd_1351_12280" x="78.4998" y="61.001" width="38.75" height="41.25" filterUnits="userSpaceOnUse" color-interpolation-filters="sRGB">
<feFlood flood-opacity="0" result="BackgroundImageFix"/>
<feColorMatrix in="SourceAlpha" type="matrix" values="0 0 0 0 0 0 0 0 0 0 0 0 0 0 0 0 0 0 127 0" result="hardAlpha"/>
<feOffset dx="1.25" dy="1.25"/>
<feComposite in2="hardAlpha" operator="out"/>
<feColorMatrix type="matrix" values="0 0 0 0 1 0 0 0 0 0 0 0 0 0 0 0 0 0 0.5 0"/>
<feBlend mode="normal" in2="BackgroundImageFix" result="effect1_dropShadow_1351_12280"/>
<feColorMatrix in="SourceAlpha" type="matrix" values="0 0 0 0 0 0 0 0 0 0 0 0 0 0 0 0 0 0 127 0" result="hardAlpha"/>
<feOffset dx="0.75" dy="0.75"/>
<feComposite in2="hardAlpha" operator="out"/>
<feColorMatrix type="matrix" values="0 0 0 0 0.15 0 0 0 0 0 0 0 0 0 1 0 0 0 0.5 0"/>
<feBlend mode="normal" in2="effect1_dropShadow_1351_12280" result="effect2_dropShadow_1351_12280"/>
<feBlend mode="normal" in="SourceGraphic" in2="effect2_dropShadow_1351_12280" result="shape"/>
</filter>
<filter id="filter2_dd_1351_12280" x="78.4998" y="51.001" width="38.75" height="8.75" filterUnits="userSpaceOnUse" color-interpolation-filters="sRGB">
<feFlood flood-opacity="0" result="BackgroundImageFix"/>
<feColorMatrix in="SourceAlpha" type="matrix" values="0 0 0 0 0 0 0 0 0 0 0 0 0 0 0 0 0 0 127 0" result="hardAlpha"/>
<feOffset dx="1.25" dy="1.25"/>
<feComposite in2="hardAlpha" operator="out"/>
<feColorMatrix type="matrix" values="0 0 0 0 1 0 0 0 0 0 0 0 0 0 0 0 0 0 0.5 0"/>
<feBlend mode="normal" in2="BackgroundImageFix" result="effect1_dropShadow_1351_12280"/>
<feColorMatrix in="SourceAlpha" type="matrix" values="0 0 0 0 0 0 0 0 0 0 0 0 0 0 0 0 0 0 127 0" result="hardAlpha"/>
<feOffset dx="0.75" dy="0.75"/>
<feComposite in2="hardAlpha" operator="out"/>
<feColorMatrix type="matrix" values="0 0 0 0 0.15 0 0 0 0 0 0 0 0 0 1 0 0 0 0.5 0"/>
<feBlend mode="normal" in2="effect1_dropShadow_1351_12280" result="effect2_dropShadow_1351_12280"/>
<feBlend mode="normal" in="SourceGraphic" in2="effect2_dropShadow_1351_12280" result="shape"/>
</filter>
<filter id="filter3_dd_1351_12280" x="75.9998" y="48.501" width="43.75" height="56.25" filterUnits="userSpaceOnUse" color-interpolation-filters="sRGB">
<feFlood flood-opacity="0" result="BackgroundImageFix"/>
<feColorMatrix in="SourceAlpha" type="matrix" values="0 0 0 0 0 0 0 0 0 0 0 0 0 0 0 0 0 0 127 0" result="hardAlpha"/>
<feOffset dx="1.25" dy="1.25"/>
<feComposite in2="hardAlpha" operator="out"/>
<feColorMatrix type="matrix" values="0 0 0 0 1 0 0 0 0 0 0 0 0 0 0 0 0 0 0.5 0"/>
<feBlend mode="normal" in2="BackgroundImageFix" result="effect1_dropShadow_1351_12280"/>
<feColorMatrix in="SourceAlpha" type="matrix" values="0 0 0 0 0 0 0 0 0 0 0 0 0 0 0 0 0 0 127 0" result="hardAlpha"/>
<feOffset dx="0.75" dy="0.75"/>
<feComposite in2="hardAlpha" operator="out"/>
<feColorMatrix type="matrix" values="0 0 0 0 0.15 0 0 0 0 0 0 0 0 0 1 0 0 0 0.5 0"/>
<feBlend mode="normal" in2="effect1_dropShadow_1351_12280" result="effect2_dropShadow_1351_12280"/>
<feBlend mode="normal" in="SourceGraphic" in2="effect2_dropShadow_1351_12280" result="shape"/>
</filter>
</defs>
</svg>
