<svg width="196" height="196" viewBox="0 0 196 196" fill="none" xmlns="http://www.w3.org/2000/svg">
<g filter="url(#filter0_d_1351_12278)">
<g filter="url(#filter1_dd_1351_12278)">
<path d="M98.8332 48.5005C100.77 48.5809 102.557 49.1049 104.195 50.0724C105.4 50.7848 106.443 51.7061 107.323 52.8364C108.427 54.2549 109.154 55.8496 109.503 57.6204C109.507 57.639 109.518 57.6483 109.538 57.6483H110.749C110.788 57.6483 110.807 57.6679 110.807 57.7072V64.6101C110.807 64.618 110.804 64.6256 110.799 64.6311C110.793 64.6367 110.786 64.6398 110.778 64.6398H106.825C106.8 64.6398 106.787 64.6274 106.787 64.6026V58.376C106.787 58.3683 106.784 58.3609 106.779 58.3554C106.773 58.35 106.766 58.3469 106.758 58.3469H90.1678C90.1562 58.3469 90.1451 58.3515 90.1369 58.3597C90.1287 58.3679 90.1241 58.379 90.1241 58.3906V64.6095C90.1241 64.6173 90.121 64.6247 90.1154 64.6301C90.1099 64.6356 90.1023 64.6387 90.0944 64.6387H86.1407C86.1162 64.6387 86.104 64.6264 86.104 64.602V57.6984C86.104 57.685 86.1094 57.6721 86.119 57.6626C86.1286 57.6531 86.1417 57.6477 86.1553 57.6477H87.373C87.3951 57.6477 87.4083 57.6369 87.4126 57.6151C87.773 55.8024 88.5153 54.1858 89.6394 52.7653C90.4943 51.6847 91.5201 50.7871 92.7168 50.0724C94.3334 49.1064 96.1192 48.5824 98.0741 48.5005H98.8332Z" fill="#D9D9D9"/>
</g>
<g filter="url(#filter2_dd_1351_12278)">
<path d="M98.4555 59.6284C100.797 59.6284 103.138 59.6298 105.479 59.6325C105.482 59.6325 105.486 59.6332 105.489 59.6345C105.492 59.6359 105.495 59.6379 105.497 59.6403C105.5 59.6428 105.502 59.6458 105.503 59.649C105.505 59.6523 105.505 59.6558 105.505 59.6593V65.8841C105.505 65.9086 105.518 65.9208 105.543 65.9208H107.194C107.219 65.9208 107.225 65.9319 107.214 65.954C106.351 67.5931 105.168 68.8761 103.667 69.8028C102.982 70.2254 102.25 70.5612 101.472 70.8102C100.632 71.0786 99.7684 71.2314 98.8808 71.2687C98.6598 71.278 98.5181 71.2827 98.4555 71.2827C98.393 71.2827 98.2512 71.278 98.0302 71.2687C97.1427 71.2314 96.279 71.0786 95.4393 70.8102C94.6609 70.5612 93.9293 70.2254 93.2445 69.8028C91.7429 68.8761 90.5605 67.5931 89.6975 65.954C89.6858 65.9319 89.6924 65.9208 89.7173 65.9208H91.3684C91.3933 65.9208 91.4057 65.9086 91.4057 65.8841V59.6593C91.4057 59.6558 91.4064 59.6523 91.4078 59.649C91.4091 59.6458 91.4111 59.6428 91.4136 59.6403C91.4161 59.6379 91.419 59.6359 91.4223 59.6345C91.4255 59.6332 91.429 59.6325 91.4325 59.6325C93.7735 59.6298 96.1145 59.6284 98.4555 59.6284Z" fill="#D9D9D9"/>
</g>
<g filter="url(#filter3_dd_1351_12278)">
<path d="M77.2375 68.2753V73.1263C77.2375 73.1457 77.2276 73.1554 77.2078 73.1554H74.1356C74.1119 73.1554 74.1001 73.1436 74.1001 73.1199V67.7306C74.1001 67.7123 74.109 67.7032 74.1269 67.7032H75.0818C75.1009 67.7032 75.1123 67.6939 75.1162 67.6752C75.4464 66.0225 76.1783 64.5829 77.3121 63.3562C77.5794 63.0672 77.8617 62.8018 78.1593 62.5598C79.8469 61.1879 81.8071 60.5214 84.0397 60.5602C84.0461 60.5604 84.0522 60.563 84.0566 60.5676C84.0611 60.5721 84.0636 60.5783 84.0636 60.5847C84.0652 62.5132 84.0646 64.1511 84.0619 65.4985C84.0613 65.6087 84.0863 65.671 84.1644 65.7566C84.366 65.9788 84.6517 66.263 85.0214 66.609C85.0692 66.6541 85.122 66.6766 85.1799 66.6766C85.6872 66.6786 86.5083 66.6789 87.6433 66.6778C87.649 66.6778 87.6547 66.6789 87.66 66.6812C87.6653 66.6834 87.6702 66.6867 87.6742 66.6908C87.6782 66.6949 87.6813 66.6998 87.6834 66.7052C87.6855 66.7106 87.6865 66.7163 87.6864 66.7221C87.6852 66.7811 87.6827 66.8425 87.6788 66.9062C87.6749 66.9656 87.6875 67.0231 87.7167 67.0786C87.9066 67.4437 88.1156 67.7875 88.3436 68.1099C88.3688 68.1456 88.3947 68.1746 88.4211 68.1967C88.437 68.2099 88.4374 68.2233 88.4222 68.2369C88.4121 68.2458 88.396 68.2503 88.3739 68.2503C87.7291 68.2503 84.0252 68.2505 77.262 68.2509C77.2457 68.2509 77.2375 68.259 77.2375 68.2753Z" fill="#D9D9D9"/>
</g>
<g filter="url(#filter4_dd_1351_12278)">
<path d="M119.674 68.2759C119.674 68.2596 119.665 68.2515 119.649 68.2515C112.885 68.2515 109.181 68.2515 108.536 68.2515C108.514 68.2515 108.498 68.247 108.488 68.2381C108.473 68.2245 108.473 68.2111 108.489 68.1979C108.515 68.1757 108.541 68.1468 108.566 68.111C108.794 67.7883 109.003 67.4443 109.193 67.0792C109.222 67.0237 109.235 66.9662 109.231 66.9068C109.227 66.8431 109.225 66.7817 109.224 66.7226C109.223 66.7169 109.224 66.7112 109.227 66.7058C109.229 66.7004 109.232 66.6955 109.236 66.6914C109.24 66.6873 109.245 66.684 109.25 66.6818C109.255 66.6795 109.261 66.6784 109.267 66.6784C110.402 66.6795 111.223 66.6791 111.73 66.6772C111.788 66.6772 111.841 66.6547 111.889 66.6096C112.258 66.2635 112.544 65.9794 112.746 65.7572C112.824 65.6716 112.849 65.6092 112.848 65.4991C112.845 64.1517 112.845 62.5136 112.846 60.5847C112.846 60.5783 112.849 60.5721 112.853 60.5676C112.858 60.563 112.864 60.5604 112.87 60.5602C115.103 60.5214 117.064 61.1879 118.751 62.5598C119.049 62.8018 119.331 63.0672 119.598 63.3562C120.733 64.5832 121.465 66.0231 121.795 67.6758C121.799 67.6945 121.81 67.7038 121.829 67.7038H122.784C122.802 67.7038 122.811 67.7129 122.811 67.7312V73.1211C122.811 73.1447 122.799 73.1566 122.776 73.1566H119.703C119.684 73.1566 119.674 73.1469 119.674 73.1275V68.2759Z" fill="#D9D9D9"/>
</g>
<g filter="url(#filter5_dd_1351_12278)">
<path d="M78.2116 74.1597C78.2294 74.1597 78.2384 74.1508 78.2384 74.1329V69.2698C78.2384 69.2507 78.2481 69.2412 78.2675 69.2412L89.2139 69.2424C89.2368 69.2424 89.2483 69.2536 89.2483 69.2762V69.5284C89.2483 69.5475 89.239 69.5564 89.2203 69.5552C89.123 69.55 89.0269 69.5442 88.9214 69.5786C87.3344 70.106 85.8992 70.8842 84.6158 71.9131C84.3424 72.1322 84.0546 72.3926 83.7524 72.6944C83.3006 73.1458 82.9594 73.4874 82.7287 73.7193C82.1523 74.298 81.6617 74.9346 81.257 75.6291C80.9066 76.2308 80.6345 76.8742 80.4407 77.5594C80.4318 77.5916 80.4124 77.6004 80.3824 77.5856C78.8583 76.8224 77.7043 75.695 76.9205 74.2034C76.9053 74.1739 76.9143 74.1592 76.9473 74.1592L78.2116 74.1597Z" fill="#D9D9D9"/>
</g>
<g filter="url(#filter6_dd_1351_12278)">
<path d="M118.7 74.16H119.963C119.996 74.16 120.005 74.1748 119.99 74.2043C119.206 75.6955 118.052 76.8225 116.529 77.5853C116.499 77.6001 116.479 77.5913 116.47 77.5591C116.277 76.8739 116.004 76.2307 115.654 75.6294C115.25 74.9349 114.759 74.2983 114.183 73.7196C113.952 73.4877 113.611 73.1461 113.159 72.6947C112.857 72.3929 112.569 72.1325 112.296 71.9134C111.013 70.8845 109.578 70.1063 107.991 69.5789C107.886 69.5445 107.79 69.5503 107.693 69.5555C107.674 69.5567 107.665 69.5478 107.665 69.5287V69.2765C107.665 69.2539 107.676 69.2427 107.699 69.2427H118.644C118.663 69.2427 118.673 69.2522 118.673 69.2712V74.1332C118.673 74.1511 118.682 74.16 118.7 74.16Z" fill="#D9D9D9"/>
</g>
<g filter="url(#filter7_dd_1351_12278)">
<path d="M111.989 103.5H84.9253C84.7116 103.457 84.5464 103.416 84.4294 103.379C83.5912 103.113 82.9595 102.602 82.5342 101.848C82.359 101.537 82.2397 101.201 82.1764 100.84C82.1391 100.628 82.1211 100.275 82.1222 99.7802C82.1281 96.8982 82.1341 94.0161 82.1403 91.134C82.1403 91.0216 82.1199 90.8928 82.1205 90.7839C82.1275 87.6039 82.1345 84.4237 82.1415 81.2434C82.1426 80.7466 82.1591 80.3589 82.191 80.0804C82.245 79.6066 82.3295 79.1589 82.4444 78.7375C82.4961 78.5491 82.5507 78.359 82.6082 78.1671C82.6621 77.9865 82.7311 77.801 82.815 77.6107C83.2166 76.6967 83.7398 75.878 84.3846 75.1543C84.5407 74.9795 84.7382 74.7756 84.9771 74.5426C85.1748 74.3503 85.3871 74.1621 85.6139 73.978C86.5846 73.1907 87.6566 72.5445 88.83 72.0396C89.0479 71.9456 89.2487 71.8675 89.4325 71.8054C89.5513 71.765 89.7539 71.6939 90.0401 71.5921C90.0566 71.5863 90.0743 71.5849 90.0915 71.5881C90.1087 71.5912 90.1247 71.5989 90.138 71.6102C90.8566 72.2305 91.6284 72.7593 92.4534 73.1967C93.4392 73.7195 94.5044 74.0858 95.6491 74.2955C97.2762 74.5935 98.9357 74.628 100.628 74.3992C101.803 74.2408 102.908 73.9252 103.945 73.4525C104.261 73.308 104.604 73.1254 104.971 72.9048C105.449 72.6178 105.779 72.4032 105.962 72.261C106.194 72.0796 106.465 71.864 106.774 71.6143C106.79 71.6015 106.809 71.5931 106.829 71.5898C106.849 71.5865 106.87 71.5885 106.889 71.5956C107.09 71.6706 107.268 71.7339 107.423 71.7856C107.622 71.8524 107.799 71.9182 107.952 71.9831C108.798 72.3408 109.59 72.7659 110.327 73.2585C110.752 73.5428 111.189 73.878 111.638 74.2641C111.741 74.353 111.915 74.52 112.16 74.7651C113.138 75.7451 113.859 76.8892 114.323 78.1974C114.333 78.225 114.339 78.2516 114.342 78.2772C114.345 78.3025 114.35 78.3265 114.357 78.3495C114.63 79.2801 114.767 80.0894 114.769 80.7773C114.772 82.7263 114.78 86.0619 114.791 90.7839C114.791 90.8911 114.771 91.0204 114.771 91.134C114.778 93.9936 114.784 96.8531 114.79 99.7126C114.791 100.272 114.771 100.66 114.731 100.874C114.631 101.412 114.406 101.894 114.057 102.321C113.644 102.827 113.119 103.179 112.482 103.378C112.36 103.416 112.196 103.456 111.989 103.5Z" fill="#D9D9D9"/>
</g>
<g filter="url(#filter8_dd_1351_12278)">
<path d="M80.9313 103.501H73.2319C72.203 103.329 71.5009 102.762 71.1257 101.798C71.0414 101.583 70.9995 101.31 70.9999 100.981C71.0003 97.6705 71.0016 95.2963 71.004 93.858C71.004 93.8347 71.0036 93.7425 71.0028 93.5813C70.9993 92.5524 71.0001 90.1345 71.0051 86.3276C71.0059 85.8028 71.0201 85.4152 71.0477 85.1646C71.1657 84.0984 71.5217 83.1152 72.1156 82.2148C72.497 81.6368 72.9435 81.1263 73.4551 80.6831C74.5597 79.7268 75.8011 79.029 77.1792 78.5897C77.1971 78.5839 77.2132 78.5872 77.2276 78.5996C77.9007 79.1717 78.5668 79.6182 79.226 79.9391C79.3569 80.0032 79.6397 80.1243 80.0743 80.3026C80.0926 80.31 80.1017 80.3234 80.1017 80.3428C80.099 82.8171 80.0953 86.5795 80.0906 91.6301C80.0906 91.7858 80.0908 91.9412 80.0912 92.0962C80.0939 93.4545 80.0935 96.5276 80.09 101.316C80.0896 102.123 80.3701 102.851 80.9313 103.501Z" fill="#D9D9D9"/>
</g>
<g filter="url(#filter9_dd_1351_12278)">
<path d="M123.684 103.501H115.979C116.537 102.857 116.816 102.119 116.816 101.287C116.819 91.8232 116.817 84.8432 116.811 80.3465C116.811 80.3208 116.823 80.3035 116.847 80.2946C117.92 79.8899 118.86 79.3263 119.668 78.6038C119.687 78.5863 119.71 78.5817 119.735 78.5898C121.119 79.0365 122.35 79.7263 123.428 80.6593C124.191 81.3196 124.789 82.0881 125.224 82.9648C125.564 83.6499 125.777 84.3782 125.864 85.1496C125.891 85.3974 125.905 85.7851 125.906 86.3126C125.906 87.0404 125.909 89.4488 125.913 93.5377C125.913 93.6337 125.913 93.7308 125.913 93.829C125.911 96.1553 125.912 98.5302 125.916 100.954C125.916 101.323 125.851 101.679 125.69 102.02C125.299 102.847 124.631 103.34 123.684 103.501Z" fill="#D9D9D9"/>
</g>
</g>
<defs>
<filter id="filter0_d_1351_12278" x="58.4999" y="46.0005" width="80" height="80" filterUnits="userSpaceOnUse" color-interpolation-filters="sRGB">
<feFlood flood-opacity="0" result="BackgroundImageFix"/>
<feColorMatrix in="SourceAlpha" type="matrix" values="0 0 0 0 0 0 0 0 0 0 0 0 0 0 0 0 0 0 127 0" result="hardAlpha"/>
<feOffset dy="10"/>
<feGaussianBlur stdDeviation="5"/>
<feComposite in2="hardAlpha" operator="out"/>
<feColorMatrix type="matrix" values="0 0 0 0 0 0 0 0 0 0 0 0 0 0 0 0 0 0 0.25 0"/>
<feBlend mode="normal" in2="BackgroundImageFix" result="effect1_dropShadow_1351_12278"/>
<feBlend mode="normal" in="SourceGraphic" in2="effect1_dropShadow_1351_12278" result="shape"/>
</filter>
<filter id="filter1_dd_1351_12278" x="86.104" y="48.5005" width="25.9534" height="17.3892" filterUnits="userSpaceOnUse" color-interpolation-filters="sRGB">
<feFlood flood-opacity="0" result="BackgroundImageFix"/>
<feColorMatrix in="SourceAlpha" type="matrix" values="0 0 0 0 0 0 0 0 0 0 0 0 0 0 0 0 0 0 127 0" result="hardAlpha"/>
<feOffset dx="1.25" dy="1.25"/>
<feComposite in2="hardAlpha" operator="out"/>
<feColorMatrix type="matrix" values="0 0 0 0 1 0 0 0 0 0 0 0 0 0 0 0 0 0 0.5 0"/>
<feBlend mode="normal" in2="BackgroundImageFix" result="effect1_dropShadow_1351_12278"/>
<feColorMatrix in="SourceAlpha" type="matrix" values="0 0 0 0 0 0 0 0 0 0 0 0 0 0 0 0 0 0 127 0" result="hardAlpha"/>
<feOffset dx="0.75" dy="0.75"/>
<feComposite in2="hardAlpha" operator="out"/>
<feColorMatrix type="matrix" values="0 0 0 0 0.15 0 0 0 0 0 0 0 0 0 1 0 0 0 0.5 0"/>
<feBlend mode="normal" in2="effect1_dropShadow_1351_12278" result="effect2_dropShadow_1351_12278"/>
<feBlend mode="normal" in="SourceGraphic" in2="effect2_dropShadow_1351_12278" result="shape"/>
</filter>
<filter id="filter2_dd_1351_12278" x="89.6919" y="59.6284" width="18.7772" height="12.9043" filterUnits="userSpaceOnUse" color-interpolation-filters="sRGB">
<feFlood flood-opacity="0" result="BackgroundImageFix"/>
<feColorMatrix in="SourceAlpha" type="matrix" values="0 0 0 0 0 0 0 0 0 0 0 0 0 0 0 0 0 0 127 0" result="hardAlpha"/>
<feOffset dx="1.25" dy="1.25"/>
<feComposite in2="hardAlpha" operator="out"/>
<feColorMatrix type="matrix" values="0 0 0 0 1 0 0 0 0 0 0 0 0 0 0 0 0 0 0.5 0"/>
<feBlend mode="normal" in2="BackgroundImageFix" result="effect1_dropShadow_1351_12278"/>
<feColorMatrix in="SourceAlpha" type="matrix" values="0 0 0 0 0 0 0 0 0 0 0 0 0 0 0 0 0 0 127 0" result="hardAlpha"/>
<feOffset dx="0.75" dy="0.75"/>
<feComposite in2="hardAlpha" operator="out"/>
<feColorMatrix type="matrix" values="0 0 0 0 0.15 0 0 0 0 0 0 0 0 0 1 0 0 0 0.5 0"/>
<feBlend mode="normal" in2="effect1_dropShadow_1351_12278" result="effect2_dropShadow_1351_12278"/>
<feBlend mode="normal" in="SourceGraphic" in2="effect2_dropShadow_1351_12278" result="shape"/>
</filter>
<filter id="filter3_dd_1351_12278" x="74.1001" y="60.5586" width="15.5833" height="13.8467" filterUnits="userSpaceOnUse" color-interpolation-filters="sRGB">
<feFlood flood-opacity="0" result="BackgroundImageFix"/>
<feColorMatrix in="SourceAlpha" type="matrix" values="0 0 0 0 0 0 0 0 0 0 0 0 0 0 0 0 0 0 127 0" result="hardAlpha"/>
<feOffset dx="1.25" dy="1.25"/>
<feComposite in2="hardAlpha" operator="out"/>
<feColorMatrix type="matrix" values="0 0 0 0 1 0 0 0 0 0 0 0 0 0 0 0 0 0 0.5 0"/>
<feBlend mode="normal" in2="BackgroundImageFix" result="effect1_dropShadow_1351_12278"/>
<feColorMatrix in="SourceAlpha" type="matrix" values="0 0 0 0 0 0 0 0 0 0 0 0 0 0 0 0 0 0 127 0" result="hardAlpha"/>
<feOffset dx="0.75" dy="0.75"/>
<feComposite in2="hardAlpha" operator="out"/>
<feColorMatrix type="matrix" values="0 0 0 0 0.15 0 0 0 0 0 0 0 0 0 1 0 0 0 0.5 0"/>
<feBlend mode="normal" in2="effect1_dropShadow_1351_12278" result="effect2_dropShadow_1351_12278"/>
<feBlend mode="normal" in="SourceGraphic" in2="effect2_dropShadow_1351_12278" result="shape"/>
</filter>
<filter id="filter4_dd_1351_12278" x="108.477" y="60.5586" width="15.5844" height="13.8481" filterUnits="userSpaceOnUse" color-interpolation-filters="sRGB">
<feFlood flood-opacity="0" result="BackgroundImageFix"/>
<feColorMatrix in="SourceAlpha" type="matrix" values="0 0 0 0 0 0 0 0 0 0 0 0 0 0 0 0 0 0 127 0" result="hardAlpha"/>
<feOffset dx="1.25" dy="1.25"/>
<feComposite in2="hardAlpha" operator="out"/>
<feColorMatrix type="matrix" values="0 0 0 0 1 0 0 0 0 0 0 0 0 0 0 0 0 0 0.5 0"/>
<feBlend mode="normal" in2="BackgroundImageFix" result="effect1_dropShadow_1351_12278"/>
<feColorMatrix in="SourceAlpha" type="matrix" values="0 0 0 0 0 0 0 0 0 0 0 0 0 0 0 0 0 0 127 0" result="hardAlpha"/>
<feOffset dx="0.75" dy="0.75"/>
<feComposite in2="hardAlpha" operator="out"/>
<feColorMatrix type="matrix" values="0 0 0 0 0.15 0 0 0 0 0 0 0 0 0 1 0 0 0 0.5 0"/>
<feBlend mode="normal" in2="effect1_dropShadow_1351_12278" result="effect2_dropShadow_1351_12278"/>
<feBlend mode="normal" in="SourceGraphic" in2="effect2_dropShadow_1351_12278" result="shape"/>
</filter>
<filter id="filter5_dd_1351_12278" x="76.9133" y="69.2412" width="13.585" height="9.60156" filterUnits="userSpaceOnUse" color-interpolation-filters="sRGB">
<feFlood flood-opacity="0" result="BackgroundImageFix"/>
<feColorMatrix in="SourceAlpha" type="matrix" values="0 0 0 0 0 0 0 0 0 0 0 0 0 0 0 0 0 0 127 0" result="hardAlpha"/>
<feOffset dx="1.25" dy="1.25"/>
<feComposite in2="hardAlpha" operator="out"/>
<feColorMatrix type="matrix" values="0 0 0 0 1 0 0 0 0 0 0 0 0 0 0 0 0 0 0.5 0"/>
<feBlend mode="normal" in2="BackgroundImageFix" result="effect1_dropShadow_1351_12278"/>
<feColorMatrix in="SourceAlpha" type="matrix" values="0 0 0 0 0 0 0 0 0 0 0 0 0 0 0 0 0 0 127 0" result="hardAlpha"/>
<feOffset dx="0.75" dy="0.75"/>
<feComposite in2="hardAlpha" operator="out"/>
<feColorMatrix type="matrix" values="0 0 0 0 0.15 0 0 0 0 0 0 0 0 0 1 0 0 0 0.5 0"/>
<feBlend mode="normal" in2="effect1_dropShadow_1351_12278" result="effect2_dropShadow_1351_12278"/>
<feBlend mode="normal" in="SourceGraphic" in2="effect2_dropShadow_1351_12278" result="shape"/>
</filter>
<filter id="filter6_dd_1351_12278" x="107.665" y="69.2427" width="13.5826" height="9.59961" filterUnits="userSpaceOnUse" color-interpolation-filters="sRGB">
<feFlood flood-opacity="0" result="BackgroundImageFix"/>
<feColorMatrix in="SourceAlpha" type="matrix" values="0 0 0 0 0 0 0 0 0 0 0 0 0 0 0 0 0 0 127 0" result="hardAlpha"/>
<feOffset dx="1.25" dy="1.25"/>
<feComposite in2="hardAlpha" operator="out"/>
<feColorMatrix type="matrix" values="0 0 0 0 1 0 0 0 0 0 0 0 0 0 0 0 0 0 0.5 0"/>
<feBlend mode="normal" in2="BackgroundImageFix" result="effect1_dropShadow_1351_12278"/>
<feColorMatrix in="SourceAlpha" type="matrix" values="0 0 0 0 0 0 0 0 0 0 0 0 0 0 0 0 0 0 127 0" result="hardAlpha"/>
<feOffset dx="0.75" dy="0.75"/>
<feComposite in2="hardAlpha" operator="out"/>
<feColorMatrix type="matrix" values="0 0 0 0 0.15 0 0 0 0 0 0 0 0 0 1 0 0 0 0.5 0"/>
<feBlend mode="normal" in2="effect1_dropShadow_1351_12278" result="effect2_dropShadow_1351_12278"/>
<feBlend mode="normal" in="SourceGraphic" in2="effect2_dropShadow_1351_12278" result="shape"/>
</filter>
<filter id="filter7_dd_1351_12278" x="82.1205" y="71.5864" width="33.9208" height="33.1631" filterUnits="userSpaceOnUse" color-interpolation-filters="sRGB">
<feFlood flood-opacity="0" result="BackgroundImageFix"/>
<feColorMatrix in="SourceAlpha" type="matrix" values="0 0 0 0 0 0 0 0 0 0 0 0 0 0 0 0 0 0 127 0" result="hardAlpha"/>
<feOffset dx="1.25" dy="1.25"/>
<feComposite in2="hardAlpha" operator="out"/>
<feColorMatrix type="matrix" values="0 0 0 0 1 0 0 0 0 0 0 0 0 0 0 0 0 0 0.5 0"/>
<feBlend mode="normal" in2="BackgroundImageFix" result="effect1_dropShadow_1351_12278"/>
<feColorMatrix in="SourceAlpha" type="matrix" values="0 0 0 0 0 0 0 0 0 0 0 0 0 0 0 0 0 0 127 0" result="hardAlpha"/>
<feOffset dx="0.75" dy="0.75"/>
<feComposite in2="hardAlpha" operator="out"/>
<feColorMatrix type="matrix" values="0 0 0 0 0.15 0 0 0 0 0 0 0 0 0 1 0 0 0 0.5 0"/>
<feBlend mode="normal" in2="effect1_dropShadow_1351_12278" result="effect2_dropShadow_1351_12278"/>
<feBlend mode="normal" in="SourceGraphic" in2="effect2_dropShadow_1351_12278" result="shape"/>
</filter>
<filter id="filter8_dd_1351_12278" x="70.9999" y="78.5869" width="11.1815" height="26.1636" filterUnits="userSpaceOnUse" color-interpolation-filters="sRGB">
<feFlood flood-opacity="0" result="BackgroundImageFix"/>
<feColorMatrix in="SourceAlpha" type="matrix" values="0 0 0 0 0 0 0 0 0 0 0 0 0 0 0 0 0 0 127 0" result="hardAlpha"/>
<feOffset dx="1.25" dy="1.25"/>
<feComposite in2="hardAlpha" operator="out"/>
<feColorMatrix type="matrix" values="0 0 0 0 1 0 0 0 0 0 0 0 0 0 0 0 0 0 0.5 0"/>
<feBlend mode="normal" in2="BackgroundImageFix" result="effect1_dropShadow_1351_12278"/>
<feColorMatrix in="SourceAlpha" type="matrix" values="0 0 0 0 0 0 0 0 0 0 0 0 0 0 0 0 0 0 127 0" result="hardAlpha"/>
<feOffset dx="0.75" dy="0.75"/>
<feComposite in2="hardAlpha" operator="out"/>
<feColorMatrix type="matrix" values="0 0 0 0 0.15 0 0 0 0 0 0 0 0 0 1 0 0 0 0.5 0"/>
<feBlend mode="normal" in2="effect1_dropShadow_1351_12278" result="effect2_dropShadow_1351_12278"/>
<feBlend mode="normal" in="SourceGraphic" in2="effect2_dropShadow_1351_12278" result="shape"/>
</filter>
<filter id="filter9_dd_1351_12278" x="115.979" y="78.5859" width="11.1862" height="26.1646" filterUnits="userSpaceOnUse" color-interpolation-filters="sRGB">
<feFlood flood-opacity="0" result="BackgroundImageFix"/>
<feColorMatrix in="SourceAlpha" type="matrix" values="0 0 0 0 0 0 0 0 0 0 0 0 0 0 0 0 0 0 127 0" result="hardAlpha"/>
<feOffset dx="1.25" dy="1.25"/>
<feComposite in2="hardAlpha" operator="out"/>
<feColorMatrix type="matrix" values="0 0 0 0 1 0 0 0 0 0 0 0 0 0 0 0 0 0 0.5 0"/>
<feBlend mode="normal" in2="BackgroundImageFix" result="effect1_dropShadow_1351_12278"/>
<feColorMatrix in="SourceAlpha" type="matrix" values="0 0 0 0 0 0 0 0 0 0 0 0 0 0 0 0 0 0 127 0" result="hardAlpha"/>
<feOffset dx="0.75" dy="0.75"/>
<feComposite in2="hardAlpha" operator="out"/>
<feColorMatrix type="matrix" values="0 0 0 0 0.15 0 0 0 0 0 0 0 0 0 1 0 0 0 0.5 0"/>
<feBlend mode="normal" in2="effect1_dropShadow_1351_12278" result="effect2_dropShadow_1351_12278"/>
<feBlend mode="normal" in="SourceGraphic" in2="effect2_dropShadow_1351_12278" result="shape"/>
</filter>
</defs>
</svg>
