<svg width="196" height="196" viewBox="0 0 196 196" fill="none" xmlns="http://www.w3.org/2000/svg">
<g filter="url(#filter0_dd_1351_12269)">
<path d="M71.0565 69.6421V67.3485C76.9637 67.3557 82.8707 67.3512 88.7774 67.335C90.4142 67.3301 92.0487 67.3135 93.6809 67.2852C93.723 67.2843 93.7441 67.3047 93.7441 67.3465V70.3528C93.744 70.3561 93.7434 70.3594 93.7421 70.3625C93.7408 70.3656 93.7389 70.3683 93.7366 70.3707C93.7342 70.373 93.7314 70.3748 93.7283 70.376C93.7252 70.3772 93.722 70.3778 93.7187 70.3777L71.0565 69.6421Z" fill="#D9D9D6"/>
</g>
<g filter="url(#filter1_dd_1351_12269)">
<path d="M110.297 72.8814C110.293 72.9114 110.304 73.0006 110.331 73.1488C110.371 73.3612 110.309 73.5341 110.146 73.6675C110.104 73.7025 109.963 73.7422 109.723 73.7867C109.609 73.8078 109.418 73.8053 109.151 73.7793C108.983 73.7627 108.792 73.7544 108.578 73.7544C107.141 73.7544 103.724 73.7546 98.3273 73.755C98.277 73.755 98.2276 73.7415 98.1845 73.716L94.591 71.582C94.5658 71.5671 94.5532 71.5451 94.5532 71.5159V66.319C94.5532 66.3069 94.5592 66.3004 94.5711 66.2995L118.152 64.1507C118.174 64.1485 118.186 64.1586 118.186 64.181V71.2964C118.186 71.3197 118.174 71.3338 118.151 71.3388L110.341 72.8356C110.315 72.8405 110.301 72.8558 110.297 72.8814Z" fill="#D9D9D6"/>
</g>
<g filter="url(#filter2_dd_1351_12269)">
<path d="M117.975 81.4275C117.919 81.4297 117.679 81.425 117.253 81.4133C116.983 81.4057 116.742 81.4019 116.53 81.4019C107.398 81.4041 97.8382 81.3909 87.8523 81.3621C86.9651 81.3594 85.7731 81.3325 84.8715 81.3372C81.8911 81.3516 79.5926 81.3579 77.976 81.3561C76.8328 81.3547 75.2584 81.3309 73.2529 81.2847C73.2042 81.2833 73.1596 81.2644 73.115 81.2651C72.588 81.266 72.0322 81.2474 71.4475 81.2092C71.4256 81.2079 71.4089 81.1982 71.3974 81.1802C71.2543 80.9557 71.1598 80.7556 71.1141 80.5801C71.0294 80.2549 71.0861 79.9588 71.2842 79.6916C71.4494 79.4688 71.7131 79.2715 72.0754 79.0995C72.4126 78.9396 72.8028 78.802 73.246 78.6865C73.5896 78.5967 73.9418 78.5143 74.3028 78.4393C74.5896 78.3801 74.9409 78.2952 75.3568 78.1847C80.3294 76.8667 83.3712 76.0624 84.4824 75.7718C84.9646 75.6456 86.0483 75.3726 87.7336 74.9527C87.8539 74.9226 87.9811 74.9076 88.1151 74.9076C88.2373 74.9076 88.3667 74.9076 88.5035 74.9076C98.6106 74.9027 104.192 74.8993 105.247 74.8975C107.768 74.893 109.495 74.8878 110.429 74.882C110.497 74.8815 110.563 74.8723 110.628 74.8544C110.746 74.822 110.847 74.7982 110.933 74.783C111.1 74.7533 111.203 74.7345 111.242 74.7264C116.098 73.6765 121.032 72.6135 126.046 71.5375C126.08 71.5303 126.096 71.5438 126.096 71.5779V81.4039C126.096 81.4183 126.089 81.4254 126.075 81.4254L118.953 81.4167C118.511 81.4162 118.16 81.42 117.975 81.4275Z" fill="#D9D9D6"/>
</g>
<g filter="url(#filter3_dd_1351_12269)">
<path d="M81.2868 83.4399C81.5151 83.2064 81.7328 83.0229 81.94 82.8895C83.368 81.9734 85.4293 82.3918 86.5156 83.6373C87.0467 84.2471 87.3074 84.9957 87.2978 85.8831C87.2882 86.7352 86.9026 87.555 86.3077 88.1646C85.7127 88.7735 84.8941 89.1865 84.0274 89.2316C83.1244 89.2783 82.3515 89.054 81.7088 88.5587C80.3954 87.5455 79.8828 85.5416 80.7557 84.1027C80.8824 83.8939 81.0594 83.673 81.2868 83.4399Z" fill="#D9D9D6"/>
</g>
<g filter="url(#filter4_dd_1351_12269)">
<path d="M89.0279 83.5729C89.2439 83.3277 89.4518 83.1332 89.6517 82.9895C91.0289 82.0007 93.1101 82.3125 94.2615 83.5008C94.8251 84.0828 95.1257 84.8175 95.1632 85.7048C95.1988 86.5563 94.8578 87.3949 94.2958 88.0342C93.7338 88.6734 92.9385 89.1281 92.0746 89.2177C91.1752 89.3111 90.3912 89.1265 89.7224 88.664C88.3561 87.7196 87.7372 85.7446 88.5325 84.262C88.6478 84.0469 88.8129 83.8172 89.0279 83.5729Z" fill="#D9D9D6"/>
</g>
<g filter="url(#filter5_dd_1351_12269)">
<path d="M104.653 83.5823C104.868 83.3357 105.075 83.1404 105.274 82.9962C106.647 82.0006 108.729 82.3031 109.886 83.4859C110.452 84.0652 110.756 84.7984 110.798 85.6853C110.838 86.5367 110.5 87.3767 109.942 88.0187C109.383 88.6599 108.59 89.118 107.727 89.2116C106.828 89.3095 106.043 89.129 105.372 88.67C104.002 87.7317 103.374 85.76 104.161 84.2734C104.276 84.0578 104.44 83.8275 104.653 83.5823Z" fill="#D9D9D6"/>
</g>
<g filter="url(#filter6_dd_1351_12269)">
<path d="M114.148 89.2653C113.832 89.1719 113.567 89.0646 113.352 88.9434C111.87 88.1101 111.314 86.1155 111.951 84.5992C112.264 83.8565 112.826 83.2877 113.637 82.893C114.415 82.5144 115.335 82.4794 116.159 82.7232C116.982 82.9678 117.729 83.4965 118.164 84.2348C118.617 85.0036 118.764 85.7823 118.607 86.5709C118.283 88.1808 116.696 89.5395 114.992 89.4297C114.745 89.4135 114.464 89.3588 114.148 89.2653Z" fill="#D9D9D6"/>
</g>
<g filter="url(#filter7_dd_1351_12269)">
<path d="M101.902 88.1656C101.307 88.7752 100.489 89.1874 99.6214 89.2326C98.7184 89.2797 97.9453 89.0554 97.3021 88.5596C95.9887 87.5465 95.4761 85.5425 96.3489 84.103C96.4757 83.8942 96.6529 83.6733 96.8807 83.4402C97.109 83.2067 97.3268 83.0232 97.534 82.8898C98.962 81.9731 101.023 82.392 102.11 83.6376C102.641 84.2474 102.902 84.9962 102.892 85.884C102.883 86.7362 102.497 87.5559 101.902 88.1656Z" fill="#D9D9D6"/>
</g>
<g filter="url(#filter8_dd_1351_12269)">
<path d="M116.638 89.8466C117.881 89.2467 119.054 88.684 120.159 88.1586C121.359 87.5878 122.279 87.094 122.918 86.6773C123.307 86.4231 123.571 86.2565 123.712 86.1775C123.784 86.1379 123.881 86.04 124.004 85.8838C124.09 85.7746 124.152 85.6547 124.189 85.5241C124.289 85.1688 124.323 84.8565 124.291 84.5871C124.226 84.05 124.179 83.6016 124.147 83.2419C124.131 83.0506 124.147 82.8698 124.193 82.6996C124.251 82.4859 124.402 82.3718 124.647 82.3574C124.903 82.343 125.109 82.3599 125.263 82.4079C125.468 82.4722 125.596 82.5117 125.649 82.5265C125.67 82.5323 125.685 82.5456 125.693 82.5662C126.02 83.4585 126.079 84.3026 125.868 85.0983C125.553 86.292 124.874 87.2294 123.831 87.9107C123.54 88.1011 122.865 88.4998 121.808 89.107C120.766 89.7052 119.756 90.2232 118.777 90.661C118.007 91.0055 117.226 91.2958 116.435 91.532C116.282 91.5773 116.119 91.6 115.943 91.6C103.085 91.6023 92.0463 91.5899 82.8257 91.563C82.7104 91.5625 82.6239 91.5524 82.5663 91.5327C79.9469 90.6404 77.4967 89.4124 75.2158 87.8487C74.7277 87.5137 74.3768 87.2285 74.1632 86.9932C73.5411 86.3084 73.1728 85.4989 73.0584 84.5648C72.9766 83.8917 73.074 83.2253 73.3508 82.5656C73.3596 82.5452 73.3758 82.5291 73.396 82.5204C73.7259 82.3835 74.061 82.3296 74.4013 82.3588C74.7485 82.3884 74.8816 82.7205 74.8741 83.0229C74.865 83.3988 74.8297 83.7963 74.7684 84.2152C74.6939 84.729 74.7394 85.1879 74.905 85.5921C74.9434 85.686 75.0139 85.7895 75.1163 85.9026C75.1735 85.9659 75.2581 86.0389 75.3702 86.1216C76.3158 86.819 77.3858 87.4501 78.5802 88.0151C78.9576 88.1934 79.7106 88.5457 80.8392 89.072C81.083 89.186 81.3172 89.3003 81.5418 89.4148C81.7715 89.5325 82.0055 89.6454 82.2438 89.7537C82.4254 89.8363 82.6932 89.8956 83.0473 89.9315C83.2372 89.9508 83.7404 89.9353 84.5569 89.885C84.8307 89.8688 85.1834 89.9106 85.449 89.9106C101.803 89.9097 112.102 89.9104 116.346 89.9126C116.449 89.9126 116.546 89.8906 116.638 89.8466Z" fill="#D9D9D6"/>
</g>
<defs>
<filter id="filter0_dd_1351_12269" x="71.0565" y="67.2852" width="23.9375" height="4.34277" filterUnits="userSpaceOnUse" color-interpolation-filters="sRGB">
<feFlood flood-opacity="0" result="BackgroundImageFix"/>
<feColorMatrix in="SourceAlpha" type="matrix" values="0 0 0 0 0 0 0 0 0 0 0 0 0 0 0 0 0 0 127 0" result="hardAlpha"/>
<feOffset dx="1.25" dy="1.25"/>
<feComposite in2="hardAlpha" operator="out"/>
<feColorMatrix type="matrix" values="0 0 0 0 1 0 0 0 0 0 0 0 0 0 0 0 0 0 0.5 0"/>
<feBlend mode="normal" in2="BackgroundImageFix" result="effect1_dropShadow_1351_12269"/>
<feColorMatrix in="SourceAlpha" type="matrix" values="0 0 0 0 0 0 0 0 0 0 0 0 0 0 0 0 0 0 127 0" result="hardAlpha"/>
<feOffset dx="0.75" dy="0.75"/>
<feComposite in2="hardAlpha" operator="out"/>
<feColorMatrix type="matrix" values="0 0 0 0 0.15 0 0 0 0 0 0 0 0 0 1 0 0 0 0.5 0"/>
<feBlend mode="normal" in2="effect1_dropShadow_1351_12269" result="effect2_dropShadow_1351_12269"/>
<feBlend mode="normal" in="SourceGraphic" in2="effect2_dropShadow_1351_12269" result="shape"/>
</filter>
<filter id="filter1_dd_1351_12269" x="94.5532" y="64.1504" width="24.8824" height="10.9004" filterUnits="userSpaceOnUse" color-interpolation-filters="sRGB">
<feFlood flood-opacity="0" result="BackgroundImageFix"/>
<feColorMatrix in="SourceAlpha" type="matrix" values="0 0 0 0 0 0 0 0 0 0 0 0 0 0 0 0 0 0 127 0" result="hardAlpha"/>
<feOffset dx="1.25" dy="1.25"/>
<feComposite in2="hardAlpha" operator="out"/>
<feColorMatrix type="matrix" values="0 0 0 0 1 0 0 0 0 0 0 0 0 0 0 0 0 0 0.5 0"/>
<feBlend mode="normal" in2="BackgroundImageFix" result="effect1_dropShadow_1351_12269"/>
<feColorMatrix in="SourceAlpha" type="matrix" values="0 0 0 0 0 0 0 0 0 0 0 0 0 0 0 0 0 0 127 0" result="hardAlpha"/>
<feOffset dx="0.75" dy="0.75"/>
<feComposite in2="hardAlpha" operator="out"/>
<feColorMatrix type="matrix" values="0 0 0 0 0.15 0 0 0 0 0 0 0 0 0 1 0 0 0 0.5 0"/>
<feBlend mode="normal" in2="effect1_dropShadow_1351_12269" result="effect2_dropShadow_1351_12269"/>
<feBlend mode="normal" in="SourceGraphic" in2="effect2_dropShadow_1351_12269" result="shape"/>
</filter>
<filter id="filter2_dd_1351_12269" x="71.076" y="71.5356" width="56.2704" height="11.1426" filterUnits="userSpaceOnUse" color-interpolation-filters="sRGB">
<feFlood flood-opacity="0" result="BackgroundImageFix"/>
<feColorMatrix in="SourceAlpha" type="matrix" values="0 0 0 0 0 0 0 0 0 0 0 0 0 0 0 0 0 0 127 0" result="hardAlpha"/>
<feOffset dx="1.25" dy="1.25"/>
<feComposite in2="hardAlpha" operator="out"/>
<feColorMatrix type="matrix" values="0 0 0 0 1 0 0 0 0 0 0 0 0 0 0 0 0 0 0.5 0"/>
<feBlend mode="normal" in2="BackgroundImageFix" result="effect1_dropShadow_1351_12269"/>
<feColorMatrix in="SourceAlpha" type="matrix" values="0 0 0 0 0 0 0 0 0 0 0 0 0 0 0 0 0 0 127 0" result="hardAlpha"/>
<feOffset dx="0.75" dy="0.75"/>
<feComposite in2="hardAlpha" operator="out"/>
<feColorMatrix type="matrix" values="0 0 0 0 0.15 0 0 0 0 0 0 0 0 0 1 0 0 0 0.5 0"/>
<feBlend mode="normal" in2="effect1_dropShadow_1351_12269" result="effect2_dropShadow_1351_12269"/>
<feBlend mode="normal" in="SourceGraphic" in2="effect2_dropShadow_1351_12269" result="shape"/>
</filter>
<filter id="filter3_dd_1351_12269" x="80.3229" y="82.395" width="8.22522" height="8.09277" filterUnits="userSpaceOnUse" color-interpolation-filters="sRGB">
<feFlood flood-opacity="0" result="BackgroundImageFix"/>
<feColorMatrix in="SourceAlpha" type="matrix" values="0 0 0 0 0 0 0 0 0 0 0 0 0 0 0 0 0 0 127 0" result="hardAlpha"/>
<feOffset dx="1.25" dy="1.25"/>
<feComposite in2="hardAlpha" operator="out"/>
<feColorMatrix type="matrix" values="0 0 0 0 1 0 0 0 0 0 0 0 0 0 0 0 0 0 0.5 0"/>
<feBlend mode="normal" in2="BackgroundImageFix" result="effect1_dropShadow_1351_12269"/>
<feColorMatrix in="SourceAlpha" type="matrix" values="0 0 0 0 0 0 0 0 0 0 0 0 0 0 0 0 0 0 127 0" result="hardAlpha"/>
<feOffset dx="0.75" dy="0.75"/>
<feComposite in2="hardAlpha" operator="out"/>
<feColorMatrix type="matrix" values="0 0 0 0 0.15 0 0 0 0 0 0 0 0 0 1 0 0 0 0.5 0"/>
<feBlend mode="normal" in2="effect1_dropShadow_1351_12269" result="effect2_dropShadow_1351_12269"/>
<feBlend mode="normal" in="SourceGraphic" in2="effect2_dropShadow_1351_12269" result="shape"/>
</filter>
<filter id="filter4_dd_1351_12269" x="88.1805" y="82.3999" width="8.23523" height="8.09131" filterUnits="userSpaceOnUse" color-interpolation-filters="sRGB">
<feFlood flood-opacity="0" result="BackgroundImageFix"/>
<feColorMatrix in="SourceAlpha" type="matrix" values="0 0 0 0 0 0 0 0 0 0 0 0 0 0 0 0 0 0 127 0" result="hardAlpha"/>
<feOffset dx="1.25" dy="1.25"/>
<feComposite in2="hardAlpha" operator="out"/>
<feColorMatrix type="matrix" values="0 0 0 0 1 0 0 0 0 0 0 0 0 0 0 0 0 0 0.5 0"/>
<feBlend mode="normal" in2="BackgroundImageFix" result="effect1_dropShadow_1351_12269"/>
<feColorMatrix in="SourceAlpha" type="matrix" values="0 0 0 0 0 0 0 0 0 0 0 0 0 0 0 0 0 0 127 0" result="hardAlpha"/>
<feOffset dx="0.75" dy="0.75"/>
<feComposite in2="hardAlpha" operator="out"/>
<feColorMatrix type="matrix" values="0 0 0 0 0.15 0 0 0 0 0 0 0 0 0 1 0 0 0 0.5 0"/>
<feBlend mode="normal" in2="effect1_dropShadow_1351_12269" result="effect2_dropShadow_1351_12269"/>
<feBlend mode="normal" in="SourceGraphic" in2="effect2_dropShadow_1351_12269" result="shape"/>
</filter>
<filter id="filter5_dd_1351_12269" x="103.817" y="82.3975" width="8.23486" height="8.08984" filterUnits="userSpaceOnUse" color-interpolation-filters="sRGB">
<feFlood flood-opacity="0" result="BackgroundImageFix"/>
<feColorMatrix in="SourceAlpha" type="matrix" values="0 0 0 0 0 0 0 0 0 0 0 0 0 0 0 0 0 0 127 0" result="hardAlpha"/>
<feOffset dx="1.25" dy="1.25"/>
<feComposite in2="hardAlpha" operator="out"/>
<feColorMatrix type="matrix" values="0 0 0 0 1 0 0 0 0 0 0 0 0 0 0 0 0 0 0.5 0"/>
<feBlend mode="normal" in2="BackgroundImageFix" result="effect1_dropShadow_1351_12269"/>
<feColorMatrix in="SourceAlpha" type="matrix" values="0 0 0 0 0 0 0 0 0 0 0 0 0 0 0 0 0 0 127 0" result="hardAlpha"/>
<feOffset dx="0.75" dy="0.75"/>
<feComposite in2="hardAlpha" operator="out"/>
<feColorMatrix type="matrix" values="0 0 0 0 0.15 0 0 0 0 0 0 0 0 0 1 0 0 0 0.5 0"/>
<feBlend mode="normal" in2="effect1_dropShadow_1351_12269" result="effect2_dropShadow_1351_12269"/>
<feBlend mode="normal" in="SourceGraphic" in2="effect2_dropShadow_1351_12269" result="shape"/>
</filter>
<filter id="filter6_dd_1351_12269" x="111.691" y="82.5684" width="8.22717" height="8.11768" filterUnits="userSpaceOnUse" color-interpolation-filters="sRGB">
<feFlood flood-opacity="0" result="BackgroundImageFix"/>
<feColorMatrix in="SourceAlpha" type="matrix" values="0 0 0 0 0 0 0 0 0 0 0 0 0 0 0 0 0 0 127 0" result="hardAlpha"/>
<feOffset dx="1.25" dy="1.25"/>
<feComposite in2="hardAlpha" operator="out"/>
<feColorMatrix type="matrix" values="0 0 0 0 1 0 0 0 0 0 0 0 0 0 0 0 0 0 0.5 0"/>
<feBlend mode="normal" in2="BackgroundImageFix" result="effect1_dropShadow_1351_12269"/>
<feColorMatrix in="SourceAlpha" type="matrix" values="0 0 0 0 0 0 0 0 0 0 0 0 0 0 0 0 0 0 127 0" result="hardAlpha"/>
<feOffset dx="0.75" dy="0.75"/>
<feComposite in2="hardAlpha" operator="out"/>
<feColorMatrix type="matrix" values="0 0 0 0 0.15 0 0 0 0 0 0 0 0 0 1 0 0 0 0.5 0"/>
<feBlend mode="normal" in2="effect1_dropShadow_1351_12269" result="effect2_dropShadow_1351_12269"/>
<feBlend mode="normal" in="SourceGraphic" in2="effect2_dropShadow_1351_12269" result="shape"/>
</filter>
<filter id="filter7_dd_1351_12269" x="95.9161" y="82.395" width="8.22656" height="8.09375" filterUnits="userSpaceOnUse" color-interpolation-filters="sRGB">
<feFlood flood-opacity="0" result="BackgroundImageFix"/>
<feColorMatrix in="SourceAlpha" type="matrix" values="0 0 0 0 0 0 0 0 0 0 0 0 0 0 0 0 0 0 127 0" result="hardAlpha"/>
<feOffset dx="1.25" dy="1.25"/>
<feComposite in2="hardAlpha" operator="out"/>
<feColorMatrix type="matrix" values="0 0 0 0 1 0 0 0 0 0 0 0 0 0 0 0 0 0 0.5 0"/>
<feBlend mode="normal" in2="BackgroundImageFix" result="effect1_dropShadow_1351_12269"/>
<feColorMatrix in="SourceAlpha" type="matrix" values="0 0 0 0 0 0 0 0 0 0 0 0 0 0 0 0 0 0 127 0" result="hardAlpha"/>
<feOffset dx="0.75" dy="0.75"/>
<feComposite in2="hardAlpha" operator="out"/>
<feColorMatrix type="matrix" values="0 0 0 0 0.15 0 0 0 0 0 0 0 0 0 1 0 0 0 0.5 0"/>
<feBlend mode="normal" in2="effect1_dropShadow_1351_12269" result="effect2_dropShadow_1351_12269"/>
<feBlend mode="normal" in="SourceGraphic" in2="effect2_dropShadow_1351_12269" result="shape"/>
</filter>
<filter id="filter8_dd_1351_12269" x="73.0304" y="82.3511" width="54.2114" height="10.499" filterUnits="userSpaceOnUse" color-interpolation-filters="sRGB">
<feFlood flood-opacity="0" result="BackgroundImageFix"/>
<feColorMatrix in="SourceAlpha" type="matrix" values="0 0 0 0 0 0 0 0 0 0 0 0 0 0 0 0 0 0 127 0" result="hardAlpha"/>
<feOffset dx="1.25" dy="1.25"/>
<feComposite in2="hardAlpha" operator="out"/>
<feColorMatrix type="matrix" values="0 0 0 0 1 0 0 0 0 0 0 0 0 0 0 0 0 0 0.5 0"/>
<feBlend mode="normal" in2="BackgroundImageFix" result="effect1_dropShadow_1351_12269"/>
<feColorMatrix in="SourceAlpha" type="matrix" values="0 0 0 0 0 0 0 0 0 0 0 0 0 0 0 0 0 0 127 0" result="hardAlpha"/>
<feOffset dx="0.75" dy="0.75"/>
<feComposite in2="hardAlpha" operator="out"/>
<feColorMatrix type="matrix" values="0 0 0 0 0.15 0 0 0 0 0 0 0 0 0 1 0 0 0 0.5 0"/>
<feBlend mode="normal" in2="effect1_dropShadow_1351_12269" result="effect2_dropShadow_1351_12269"/>
<feBlend mode="normal" in="SourceGraphic" in2="effect2_dropShadow_1351_12269" result="shape"/>
</filter>
</defs>
</svg>
