<svg width="196" height="196" viewBox="0 0 196 196" fill="none" xmlns="http://www.w3.org/2000/svg">
<g filter="url(#filter0_d_1351_12276)">
<g filter="url(#filter1_dd_1351_12276)">
<path d="M70.9998 68.5665V63.9766C71.0172 63.948 71.0289 63.9148 71.0522 63.8909C82.763 52.1972 88.6625 46.3006 88.7507 46.2012C88.7751 46.1736 88.8056 46.1422 88.8421 46.1068C88.856 46.0937 88.8743 46.0864 88.8934 46.0864H98.1659C98.1744 46.0864 98.1828 46.0881 98.1906 46.0913C98.1984 46.0945 98.2054 46.0991 98.2114 46.1051C106.1 53.9911 111.994 59.8795 115.894 63.7703C115.925 63.8014 115.968 63.8373 116.022 63.8781C116.098 63.9352 116.095 63.9824 116.095 64.0779C116.095 65.7478 116.095 67.2234 116.095 68.5048C116.095 68.5665 116.054 68.6446 116 68.6889C115.832 68.8283 115.692 68.9722 115.582 69.1206C115.572 69.1334 115.561 69.1355 115.547 69.127C115.471 69.0769 115.399 69.0184 115.333 68.9516C114.688 68.3022 113.449 67.0618 111.614 65.2304C111.605 65.2213 111.594 65.2141 111.582 65.2092C111.57 65.2043 111.558 65.2018 111.545 65.2018C110.682 65.2018 109.674 65.2034 108.521 65.2065C108.383 65.2065 108.307 65.1902 108.209 65.0923C102.096 58.9868 98.7612 55.6567 98.2061 55.102C98.1972 55.0931 98.1865 55.0886 98.1741 55.0886H88.8905C88.8734 55.0886 88.8588 55.0946 88.8468 55.1067L73.1829 70.77C73.1813 70.7716 73.1795 70.7728 73.1775 70.7736C73.1755 70.7745 73.1734 70.7749 73.1712 70.7749C73.169 70.7749 73.1669 70.7745 73.1649 70.7736C73.1629 70.7728 73.1611 70.7716 73.1596 70.77L70.9998 68.5665Z" fill="#CCCCCF"/>
</g>
<g filter="url(#filter2_dd_1351_12276)">
<path d="M90.9302 70.5798C90.9302 70.548 90.9143 70.532 90.8824 70.532C88.5305 70.5324 86.2929 70.5322 84.1694 70.5315C84.0616 70.5315 83.9678 70.6422 83.8897 70.7197C83.2842 71.3233 82.6487 71.9585 81.9834 72.6254C81.961 72.6476 81.9433 72.6739 81.9312 72.7029C81.9191 72.7319 81.9129 72.763 81.9129 72.7944V77.8178C81.9129 77.8339 81.9192 77.8493 81.9306 77.8606C81.942 77.872 81.9574 77.8784 81.9735 77.8784H88.736C88.7445 77.8784 88.7459 77.8813 88.7401 77.8871L85.0439 81.5839C85.024 81.6037 85.0082 81.6267 84.9974 81.6519C84.9866 81.677 84.981 81.7036 84.981 81.7301V88.7205C84.981 88.7395 84.9862 88.7568 84.9967 88.7724C85.067 88.8796 85.1587 88.9897 85.2717 89.1027C86.2078 90.0388 86.7067 90.5331 86.7685 90.5855C86.8116 90.6228 86.8504 90.655 86.885 90.6822C86.8906 90.6866 86.8952 90.6921 86.8983 90.6983C86.9014 90.7046 86.9031 90.7114 86.9031 90.7183C86.9116 94.2362 86.9159 96.7716 86.9159 98.3245C86.9159 98.5397 86.9605 98.8893 87.0499 99.3733C87.1412 99.8669 87.3231 100.306 87.5958 100.691C87.6587 100.779 87.7135 100.838 87.7601 100.867C87.8409 100.917 87.8306 100.942 87.7292 100.942C81.814 100.943 78.3254 100.942 77.2635 100.939C76.4676 100.936 75.7207 100.716 75.0227 100.277C74.8673 100.179 74.7036 100.045 74.5316 99.8737C74.3859 99.7281 74.1045 99.4735 73.9629 99.2637C73.7757 98.9868 73.6399 98.7163 73.5557 98.4521C73.3537 97.8178 73.2498 97.1233 73.2439 96.3687C73.237 95.3693 73.2346 87.5585 73.237 72.9366C73.237 72.8884 73.2561 72.8423 73.29 72.8084L88.8694 57.2289C88.883 57.2153 88.8989 57.2112 88.9172 57.2167C88.9568 57.2278 88.9982 57.2359 89.0378 57.2359C92.0679 57.2371 95.047 57.2369 97.9753 57.2353C97.9947 57.2353 98.0322 57.2326 98.0877 57.2272C98.1503 57.2206 98.2039 57.2396 98.2486 57.2843L106.157 65.1917C106.163 65.1983 106.162 65.2016 106.152 65.2016H101.469C101.441 65.2016 101.414 65.2127 101.394 65.2325L90.9348 75.6918C90.9317 75.6949 90.9302 75.6941 90.9302 75.6895V70.5798Z" fill="#CCCCCF"/>
</g>
<g filter="url(#filter3_dd_1351_12276)">
<path d="M126 82.7101V86.7203L124.134 88.6115C124.124 88.622 124.113 88.622 124.103 88.6115L110.591 75.0998C110.569 75.0781 110.543 75.067 110.512 75.0666L102.525 75.0386C102.491 75.0383 102.471 75.0418 102.464 75.0491C100.861 76.6556 99.9854 77.5325 99.8381 77.6797C99.6977 77.8195 99.5649 77.9844 99.4361 78.1132C94.0954 83.452 91.278 86.2649 90.984 86.5519C90.9179 86.6168 90.8517 86.6817 90.7853 86.7465C90.3029 87.222 89.7735 87.749 89.197 88.3278C89.0933 88.4315 89.0147 88.4851 88.9127 88.5696C88.9061 88.575 88.8997 88.5746 88.8935 88.5684L87.0961 86.771C87.0726 86.7476 87.054 86.7197 87.0413 86.689C87.0286 86.6583 87.0221 86.6254 87.0221 86.5921V82.6792C87.0221 82.6526 87.0273 82.6263 87.0374 82.6018C87.0475 82.5773 87.0623 82.5551 87.0809 82.5365C87.5867 82.0276 88.1506 81.4662 88.7729 80.8521C88.8743 80.7525 88.9914 80.6942 89.0881 80.5975C89.8785 79.8078 92.156 77.5313 95.9206 73.7679C96.0551 73.6334 96.2148 73.5063 96.3552 73.3665C97.2124 72.5151 98.1054 71.6212 99.0341 70.6847C99.1303 70.5874 99.2345 70.4528 99.3394 70.3485C100.37 69.3126 101.407 68.2759 102.449 67.2384C102.452 67.2362 102.454 67.2345 102.457 67.2333C102.46 67.2321 102.463 67.2314 102.466 67.2314H110.485C110.531 67.2314 110.571 67.248 110.603 67.281L126 82.7101Z" fill="#CCCCCF"/>
</g>
<g filter="url(#filter4_dd_1351_12276)">
<path d="M120.7 101.001H92.2296C91.1661 100.943 90.3071 100.503 89.6527 99.6818C89.3912 99.3536 89.2147 98.9818 89.123 98.5666C89.0636 98.2986 89.0151 98.0477 88.9774 97.8139C88.9479 97.6301 88.9331 97.3759 88.9331 97.0512C88.9335 96.2301 88.9387 94.0363 88.9488 90.4698C88.9488 90.4275 88.9758 90.3819 89.0298 90.3329C89.0753 90.2918 89.0995 90.2698 89.1027 90.2671C89.3097 90.0643 89.8733 89.4955 90.7934 88.5606C90.8777 88.4751 90.9622 88.3897 91.0469 88.3042C92.2261 87.1126 95.5341 83.8011 100.971 78.3698C101.071 78.2689 101.322 78.0277 101.722 77.6462C101.95 77.4291 102.197 77.1801 102.463 76.8993C102.477 76.8845 102.495 76.8789 102.515 76.8824C102.535 76.8855 102.555 76.889 102.575 76.8929C102.618 76.9007 102.64 76.9045 102.642 76.9045C105.394 76.8886 107.989 76.8828 110.424 76.8871C110.444 76.8871 110.461 76.8824 110.477 76.8731C110.505 76.8568 110.536 76.8659 110.571 76.9005C111.711 78.0253 112.906 79.2263 114.157 80.5034C114.173 80.5197 114.264 80.612 114.431 80.7802C116.667 83.0276 119.854 86.218 123.993 90.3516C124.018 90.3765 124.038 90.4061 124.052 90.4385C124.065 90.471 124.072 90.5058 124.072 90.5409C124.063 93.6797 124.064 95.7634 124.074 96.7919C124.079 97.3746 124.016 97.9552 123.883 98.534C123.78 98.9838 123.586 99.3817 123.3 99.7278C122.723 100.427 121.981 100.835 121.076 100.951C120.95 100.967 120.825 100.984 120.7 101.001ZM104.253 88.4627C104.253 88.4301 104.236 88.4138 104.203 88.4138C101.897 88.4138 100.073 88.4128 98.7317 88.4108C98.5601 88.4105 98.4239 88.4213 98.3233 88.4435C98.3031 88.4481 98.2858 88.4577 98.2715 88.472L96.5463 90.1937C96.4942 90.2458 96.4648 90.3166 96.4647 90.3906L96.4601 94.7458C96.4601 94.7609 96.4674 94.7685 96.4822 94.7685L104.222 94.776C104.238 94.776 104.246 94.7681 104.246 94.7522L104.253 88.4627ZM108.759 88.4569V94.7574C108.759 94.7733 108.767 94.7813 108.783 94.7813H116.536C116.551 94.7813 116.558 94.7737 116.558 94.7586V90.3959C116.558 90.3591 116.551 90.3227 116.537 90.2888C116.523 90.2549 116.503 90.2242 116.477 90.1983L114.75 88.472C114.736 88.4577 114.719 88.4481 114.699 88.4435C114.598 88.4213 114.461 88.4103 114.289 88.4103C112.946 88.411 111.119 88.4103 108.808 88.4079C108.775 88.4079 108.759 88.4242 108.759 88.4569Z" fill="#CCCCCF"/>
</g>
</g>
<defs>
<filter id="filter0_d_1351_12276" x="58.4999" y="43.5005" width="80" height="80" filterUnits="userSpaceOnUse" color-interpolation-filters="sRGB">
<feFlood flood-opacity="0" result="BackgroundImageFix"/>
<feColorMatrix in="SourceAlpha" type="matrix" values="0 0 0 0 0 0 0 0 0 0 0 0 0 0 0 0 0 0 127 0" result="hardAlpha"/>
<feOffset dy="10"/>
<feGaussianBlur stdDeviation="5"/>
<feComposite in2="hardAlpha" operator="out"/>
<feColorMatrix type="matrix" values="0 0 0 0 0 0 0 0 0 0 0 0 0 0 0 0 0 0 0.25 0"/>
<feBlend mode="normal" in2="BackgroundImageFix" result="effect1_dropShadow_1351_12276"/>
<feBlend mode="normal" in="SourceGraphic" in2="effect1_dropShadow_1351_12276" result="shape"/>
</filter>
<filter id="filter1_dd_1351_12276" x="70.9998" y="46.0864" width="46.3453" height="25.9385" filterUnits="userSpaceOnUse" color-interpolation-filters="sRGB">
<feFlood flood-opacity="0" result="BackgroundImageFix"/>
<feColorMatrix in="SourceAlpha" type="matrix" values="0 0 0 0 0 0 0 0 0 0 0 0 0 0 0 0 0 0 127 0" result="hardAlpha"/>
<feOffset dx="1.25" dy="1.25"/>
<feComposite in2="hardAlpha" operator="out"/>
<feColorMatrix type="matrix" values="0 0 0 0 1 0 0 0 0 0 0 0 0 0 0 0 0 0 0.5 0"/>
<feBlend mode="normal" in2="BackgroundImageFix" result="effect1_dropShadow_1351_12276"/>
<feColorMatrix in="SourceAlpha" type="matrix" values="0 0 0 0 0 0 0 0 0 0 0 0 0 0 0 0 0 0 127 0" result="hardAlpha"/>
<feOffset dx="0.75" dy="0.75"/>
<feComposite in2="hardAlpha" operator="out"/>
<feColorMatrix type="matrix" values="0 0 0 0 0.15 0 0 0 0 0 0 0 0 0 1 0 0 0 0.5 0"/>
<feBlend mode="normal" in2="effect1_dropShadow_1351_12276" result="effect2_dropShadow_1351_12276"/>
<feBlend mode="normal" in="SourceGraphic" in2="effect2_dropShadow_1351_12276" result="shape"/>
</filter>
<filter id="filter2_dd_1351_12276" x="73.2361" y="57.2144" width="34.1746" height="44.978" filterUnits="userSpaceOnUse" color-interpolation-filters="sRGB">
<feFlood flood-opacity="0" result="BackgroundImageFix"/>
<feColorMatrix in="SourceAlpha" type="matrix" values="0 0 0 0 0 0 0 0 0 0 0 0 0 0 0 0 0 0 127 0" result="hardAlpha"/>
<feOffset dx="1.25" dy="1.25"/>
<feComposite in2="hardAlpha" operator="out"/>
<feColorMatrix type="matrix" values="0 0 0 0 1 0 0 0 0 0 0 0 0 0 0 0 0 0 0.5 0"/>
<feBlend mode="normal" in2="BackgroundImageFix" result="effect1_dropShadow_1351_12276"/>
<feColorMatrix in="SourceAlpha" type="matrix" values="0 0 0 0 0 0 0 0 0 0 0 0 0 0 0 0 0 0 127 0" result="hardAlpha"/>
<feOffset dx="0.75" dy="0.75"/>
<feComposite in2="hardAlpha" operator="out"/>
<feColorMatrix type="matrix" values="0 0 0 0 0.15 0 0 0 0 0 0 0 0 0 1 0 0 0 0.5 0"/>
<feBlend mode="normal" in2="effect1_dropShadow_1351_12276" result="effect2_dropShadow_1351_12276"/>
<feBlend mode="normal" in="SourceGraphic" in2="effect2_dropShadow_1351_12276" result="shape"/>
</filter>
<filter id="filter3_dd_1351_12276" x="87.0221" y="67.2314" width="40.2278" height="22.6382" filterUnits="userSpaceOnUse" color-interpolation-filters="sRGB">
<feFlood flood-opacity="0" result="BackgroundImageFix"/>
<feColorMatrix in="SourceAlpha" type="matrix" values="0 0 0 0 0 0 0 0 0 0 0 0 0 0 0 0 0 0 127 0" result="hardAlpha"/>
<feOffset dx="1.25" dy="1.25"/>
<feComposite in2="hardAlpha" operator="out"/>
<feColorMatrix type="matrix" values="0 0 0 0 1 0 0 0 0 0 0 0 0 0 0 0 0 0 0.5 0"/>
<feBlend mode="normal" in2="BackgroundImageFix" result="effect1_dropShadow_1351_12276"/>
<feColorMatrix in="SourceAlpha" type="matrix" values="0 0 0 0 0 0 0 0 0 0 0 0 0 0 0 0 0 0 127 0" result="hardAlpha"/>
<feOffset dx="0.75" dy="0.75"/>
<feComposite in2="hardAlpha" operator="out"/>
<feColorMatrix type="matrix" values="0 0 0 0 0.15 0 0 0 0 0 0 0 0 0 1 0 0 0 0.5 0"/>
<feBlend mode="normal" in2="effect1_dropShadow_1351_12276" result="effect2_dropShadow_1351_12276"/>
<feBlend mode="normal" in="SourceGraphic" in2="effect2_dropShadow_1351_12276" result="shape"/>
</filter>
<filter id="filter4_dd_1351_12276" x="88.9331" y="76.8652" width="36.3909" height="25.3857" filterUnits="userSpaceOnUse" color-interpolation-filters="sRGB">
<feFlood flood-opacity="0" result="BackgroundImageFix"/>
<feColorMatrix in="SourceAlpha" type="matrix" values="0 0 0 0 0 0 0 0 0 0 0 0 0 0 0 0 0 0 127 0" result="hardAlpha"/>
<feOffset dx="1.25" dy="1.25"/>
<feComposite in2="hardAlpha" operator="out"/>
<feColorMatrix type="matrix" values="0 0 0 0 1 0 0 0 0 0 0 0 0 0 0 0 0 0 0.5 0"/>
<feBlend mode="normal" in2="BackgroundImageFix" result="effect1_dropShadow_1351_12276"/>
<feColorMatrix in="SourceAlpha" type="matrix" values="0 0 0 0 0 0 0 0 0 0 0 0 0 0 0 0 0 0 127 0" result="hardAlpha"/>
<feOffset dx="0.75" dy="0.75"/>
<feComposite in2="hardAlpha" operator="out"/>
<feColorMatrix type="matrix" values="0 0 0 0 0.15 0 0 0 0 0 0 0 0 0 1 0 0 0 0.5 0"/>
<feBlend mode="normal" in2="effect1_dropShadow_1351_12276" result="effect2_dropShadow_1351_12276"/>
<feBlend mode="normal" in="SourceGraphic" in2="effect2_dropShadow_1351_12276" result="shape"/>
</filter>
</defs>
</svg>
