<svg width="196" height="196" viewBox="0 0 196 196" fill="none" xmlns="http://www.w3.org/2000/svg">
<g filter="url(#filter0_d_1351_12275)">
<g filter="url(#filter1_dd_1351_12275)">
<path d="M126 48.501V97.0414C125.988 98.1892 125.983 99.3369 125.986 100.485C125.986 100.772 125.973 101.005 125.946 101.184C125.906 101.44 125.855 101.669 125.794 101.87C125.701 102.17 125.581 102.399 125.433 102.556C125.19 102.815 125.03 102.971 124.955 103.023C124.568 103.294 124.136 103.453 123.658 103.501H110.871C111.066 103.289 111.222 103.049 111.34 102.781C111.401 102.643 111.431 102.537 111.431 102.463C111.43 102.413 111.442 102.37 111.467 102.333C111.484 102.308 111.48 102.204 111.494 102.146C111.554 101.916 111.583 101.664 111.583 101.389C111.582 99.1284 111.582 97.0668 111.583 95.2044C111.583 95.1861 111.59 95.1706 111.602 95.1578L112.954 93.8061C112.97 93.7897 112.983 93.7701 112.992 93.7486C113.001 93.7271 113.006 93.7041 113.006 93.6808V89.3513C113.006 89.2938 112.983 89.2387 112.943 89.1981L104.914 81.17C104.898 81.1541 104.9 81.1399 104.919 81.1275C105.001 81.072 105.103 80.9776 105.222 80.8444C105.317 80.7395 105.573 80.7849 105.756 80.775C105.774 80.7739 105.783 80.7643 105.783 80.7465V75.5611C105.783 75.5479 105.778 75.5366 105.769 75.5273C103.246 72.9839 101.164 70.8966 99.5211 69.2652C99.4535 69.198 99.4027 69.1409 99.3685 69.0939C99.3331 69.0454 99.3155 68.9827 99.3155 68.9057C99.3143 62.1042 99.3151 55.3026 99.3178 48.501H126ZM107.531 51.6209C107.531 51.6124 107.527 51.6043 107.521 51.5983C107.515 51.5923 107.507 51.5889 107.498 51.5889H102.727C102.718 51.5889 102.71 51.5923 102.704 51.5983C102.698 51.6043 102.695 51.6124 102.695 51.6209V58.7232C102.695 58.7274 102.696 58.7315 102.697 58.7354C102.699 58.7393 102.701 58.7429 102.704 58.7458C102.707 58.7488 102.711 58.7512 102.714 58.7528C102.718 58.7544 102.723 58.7552 102.727 58.7552H107.498C107.503 58.7552 107.507 58.7544 107.511 58.7528C107.515 58.7512 107.518 58.7488 107.521 58.7458C107.524 58.7429 107.526 58.7393 107.528 58.7354C107.53 58.7315 107.531 58.7274 107.531 58.7232V51.6209ZM115.046 51.6297C115.046 51.6189 115.042 51.6085 115.034 51.6008C115.027 51.5932 115.016 51.5889 115.006 51.5889H110.31C110.299 51.5889 110.288 51.5932 110.281 51.6008C110.273 51.6085 110.269 51.6189 110.269 51.6297V58.7727C110.269 58.7835 110.273 58.7939 110.281 58.8015C110.288 58.8092 110.299 58.8135 110.31 58.8135H115.006C115.016 58.8135 115.027 58.8092 115.034 58.8015C115.042 58.7939 115.046 58.7835 115.046 58.7727V51.6297ZM107.531 62.6361C107.531 62.6314 107.53 62.6268 107.528 62.6225C107.526 62.6182 107.523 62.6143 107.52 62.611C107.517 62.6077 107.513 62.605 107.509 62.6033C107.504 62.6015 107.5 62.6006 107.495 62.6006H102.73C102.726 62.6006 102.721 62.6015 102.717 62.6033C102.712 62.605 102.708 62.6077 102.705 62.611C102.702 62.6143 102.699 62.6182 102.697 62.6225C102.696 62.6268 102.695 62.6314 102.695 62.6361V69.7313C102.695 69.736 102.696 69.7406 102.697 69.7449C102.699 69.7492 102.702 69.7532 102.705 69.7565C102.708 69.7598 102.712 69.7624 102.717 69.7642C102.721 69.7659 102.726 69.7669 102.73 69.7669H107.495C107.5 69.7669 107.504 69.7659 107.509 69.7642C107.513 69.7624 107.517 69.7598 107.52 69.7565C107.523 69.7532 107.526 69.7492 107.528 69.7449C107.53 69.7406 107.531 69.736 107.531 69.7313V62.6361ZM115.046 62.632C115.046 62.6237 115.043 62.6157 115.037 62.6098C115.031 62.6039 115.023 62.6006 115.015 62.6006H110.3C110.292 62.6006 110.284 62.6039 110.278 62.6098C110.272 62.6157 110.269 62.6237 110.269 62.632V69.7937C110.269 69.802 110.272 69.81 110.278 69.8159C110.284 69.8218 110.292 69.8251 110.3 69.8251H115.015C115.023 69.8251 115.031 69.8218 115.037 69.8159C115.043 69.81 115.046 69.802 115.046 69.7937V62.632ZM122.621 62.639C122.621 62.6288 122.617 62.619 122.609 62.6118C122.602 62.6046 122.592 62.6006 122.582 62.6006H117.823C117.813 62.6006 117.803 62.6046 117.796 62.6118C117.789 62.619 117.785 62.6288 117.785 62.639V69.7284C117.785 69.7386 117.789 69.7484 117.796 69.7556C117.803 69.7628 117.813 69.7669 117.823 69.7669H122.582C122.592 69.7669 122.602 69.7628 122.609 69.7556C122.617 69.7484 122.621 69.7386 122.621 69.7284V62.639ZM115.046 73.6483C115.046 73.6387 115.043 73.6296 115.036 73.6228C115.029 73.616 115.02 73.6122 115.01 73.6122H110.305C110.295 73.6122 110.286 73.616 110.279 73.6228C110.273 73.6296 110.269 73.6387 110.269 73.6483V80.8007C110.269 80.8102 110.273 80.8194 110.279 80.8262C110.286 80.833 110.295 80.8368 110.305 80.8368H115.01C115.02 80.8368 115.029 80.833 115.036 80.8262C115.043 80.8194 115.046 80.8102 115.046 80.8007V73.6483ZM122.621 73.6361C122.621 73.6298 122.618 73.6237 122.614 73.6192C122.609 73.6147 122.603 73.6122 122.597 73.6122H117.809C117.802 73.6122 117.796 73.6147 117.792 73.6192C117.787 73.6237 117.785 73.6298 117.785 73.6361V80.7546C117.785 80.761 117.787 80.767 117.792 80.7715C117.796 80.776 117.802 80.7785 117.809 80.7785H122.597C122.603 80.7785 122.609 80.776 122.614 80.7715C122.618 80.767 122.621 80.761 122.621 80.7546V73.6361ZM122.621 84.6577C122.621 84.6487 122.617 84.6401 122.611 84.6338C122.604 84.6274 122.596 84.6239 122.587 84.6239H117.819C117.81 84.6239 117.801 84.6274 117.795 84.6338C117.788 84.6401 117.785 84.6487 117.785 84.6577V91.7564C117.785 91.7653 117.788 91.7739 117.795 91.7803C117.801 91.7866 117.81 91.7902 117.819 91.7902H122.587C122.596 91.7902 122.604 91.7866 122.611 91.7803C122.617 91.7739 122.621 91.7653 122.621 91.7564V84.6577Z" fill="#CCCCCF"/>
</g>
<g filter="url(#filter2_dd_1351_12275)">
<path d="M70.9999 79.5832V76.2057C71.0042 76.2003 71.0076 76.1942 71.0104 76.1876C71.0162 76.1733 71.0247 76.1606 71.036 76.1498L84.1509 63.0343C84.1653 63.0199 84.1824 63.0127 84.2022 63.0127H91.0259C91.0379 63.0127 91.0494 63.0175 91.058 63.0261L104.214 76.1474C104.215 76.1492 104.218 76.1552 104.22 76.1647C104.223 76.1741 104.226 76.1865 104.228 76.1999C104.25 76.316 104.26 76.4343 104.259 76.5547C104.254 77.0519 104.25 78.0484 104.248 79.5442C104.248 79.5628 104.244 79.5813 104.237 79.5985C104.23 79.6157 104.22 79.6313 104.207 79.6444L103.85 80.0009C103.844 80.0068 103.836 80.01 103.828 80.01C103.82 80.01 103.812 80.0068 103.806 80.0009L100.95 77.1449C100.931 77.1263 100.909 77.1169 100.882 77.1169C99.8599 77.1196 99.0959 77.1171 98.5902 77.1094C98.5374 77.1086 98.481 77.0783 98.4212 77.0185C95.4933 74.0863 93.0412 71.6365 91.065 69.6692C91.0514 69.6556 91.0351 69.6488 91.016 69.6488H84.1993C84.1814 69.6488 84.1663 69.6552 84.1539 69.668L72.6132 81.2081C72.6115 81.2098 72.6096 81.2111 72.6074 81.2121C72.6053 81.213 72.603 81.2134 72.6006 81.2134C72.5983 81.2134 72.596 81.213 72.5938 81.2121C72.5917 81.2111 72.5897 81.2098 72.5881 81.2081L70.9999 79.5832Z" fill="#CCCCCF"/>
</g>
<g filter="url(#filter3_dd_1351_12275)">
<path d="M79.049 86.4278C79.049 86.4348 79.0517 86.4414 79.0566 86.4464C79.0615 86.4513 79.0682 86.454 79.0752 86.454H84.0747C84.0825 86.454 84.0836 86.457 84.0782 86.4628L81.3544 89.186C81.34 89.2004 81.3286 89.2175 81.3209 89.2363C81.3132 89.2551 81.3094 89.2752 81.3095 89.2955C81.3138 90.0222 81.3115 90.7532 81.3026 91.4885C81.2851 92.9245 81.2849 93.9022 81.302 94.4215C81.3043 94.4867 81.3501 94.5644 81.4395 94.6545C81.8566 95.0736 82.2761 95.4898 82.6979 95.9031C82.7018 95.9068 82.7049 95.9113 82.707 95.9163C82.7091 95.9213 82.7102 95.9267 82.7102 95.9322C82.7102 96.1427 82.7112 96.84 82.7131 98.0238C82.7131 98.1165 82.73 98.2138 82.73 98.2954C82.7269 99.179 82.7275 100.162 82.7317 101.243C82.7333 101.697 82.7873 102.131 82.8937 102.546C82.9718 102.852 83.1413 103.229 83.3948 103.429C83.4192 103.449 83.4159 103.459 83.3849 103.459C82.2577 103.456 79.8287 103.457 76.0979 103.463C75.896 103.463 75.6732 103.455 75.4297 103.439C74.5845 103.385 73.8863 103.039 73.3351 102.403C73.1448 102.183 73.005 101.95 72.9156 101.704C72.7463 101.235 72.6599 100.702 72.6564 100.107C72.6498 98.9129 72.6476 93.1515 72.65 82.8231C72.65 82.7783 72.6678 82.7353 72.6995 82.7037L84.1469 71.2568C84.1625 71.2409 84.1813 71.2329 84.2035 71.2329H91.0173C91.0417 71.2329 91.0625 71.2416 91.0796 71.2591L96.9117 77.0912C96.9218 77.1013 96.9195 77.1064 96.9047 77.1064H93.4672C93.4565 77.1064 93.446 77.1085 93.4362 77.1126C93.4264 77.1167 93.4175 77.1227 93.4101 77.1303L85.7002 84.8396C85.6956 84.8442 85.6932 84.8433 85.6932 84.8367V81.0799C85.6932 81.05 85.6783 81.035 85.6484 81.035C83.2592 81.0331 81.7119 81.0356 81.0066 81.0426C80.9005 81.0438 80.7996 81.0488 80.7036 81.0577C80.6523 81.0624 80.5838 81.1055 80.4979 81.1871C80.0746 81.5895 79.6069 82.0575 79.095 82.5912C79.0655 82.6218 79.049 82.6628 79.049 82.7054V86.4278Z" fill="#CCCCCF"/>
</g>
<g filter="url(#filter4_dd_1351_12275)">
<path d="M100.095 84.3696H94.218C94.2009 84.3696 94.1862 84.3756 94.1737 84.3876C93.696 84.8704 93.0722 85.495 92.3024 86.2613C92.1841 86.379 92.053 86.5381 91.9271 86.6639C89.9466 88.6445 87.9659 90.6248 85.9849 92.605C85.9834 92.6065 85.8752 92.7103 85.6604 92.9161C85.4825 93.0866 85.3267 93.2422 85.1931 93.3828C84.7935 93.8042 84.3833 94.2092 83.9626 94.5976C83.9604 94.5996 83.9575 94.6006 83.9545 94.6005C83.9515 94.6004 83.9486 94.5991 83.9463 94.597L82.6406 93.2913C82.6015 93.2521 82.5795 93.1991 82.5795 93.1439V90.2366C82.5795 90.2247 82.5843 90.2132 82.5929 90.2046L94.186 78.6115C94.1946 78.6032 94.206 78.5986 94.218 78.5986H100.156C100.169 78.5986 100.18 78.6033 100.189 78.6126L111.512 89.9727C111.524 89.9841 111.533 89.9978 111.539 90.0129C111.545 90.028 111.548 90.0442 111.548 90.0607V92.9586C111.548 92.9982 111.533 93.0363 111.505 93.0647L110.197 94.3721C110.193 94.3756 110.189 94.3784 110.185 94.3802C110.18 94.3821 110.175 94.3831 110.17 94.3831C110.165 94.3831 110.161 94.3821 110.156 94.3802C110.152 94.3784 110.148 94.3756 110.144 94.3721C108.962 93.194 108.114 92.3416 107.6 91.8149C107.559 91.7726 107.535 91.7481 107.528 91.7415C106.453 90.6606 104.896 89.1026 102.855 87.0677C102.733 86.9465 102.587 86.837 102.472 86.7245C102.029 86.2872 101.253 85.509 100.144 84.3899C100.13 84.3764 100.114 84.3696 100.095 84.3696Z" fill="#CCCCCF"/>
</g>
<g filter="url(#filter5_dd_1351_12275)">
<path d="M107.812 103.502H86.5486C86.4577 103.459 86.3556 103.444 86.2421 103.457C86.2235 103.46 86.2066 103.455 86.1915 103.443C86.1588 103.417 86.1215 103.406 86.0796 103.411C86.0474 103.414 86.0062 103.406 85.9561 103.387C85.7751 103.319 85.5991 103.237 85.4282 103.14C85.3105 103.075 85.2006 102.992 85.0985 102.893C84.9252 102.725 84.8149 102.612 84.7675 102.554C84.5275 102.259 84.3818 101.907 84.3259 101.527C84.3084 101.409 84.2874 101.3 84.263 101.2C84.2358 101.088 84.222 100.98 84.2216 100.876C84.22 100.209 84.2249 98.4972 84.2362 95.7398C84.2362 95.7002 84.2501 95.6666 84.2781 95.639L94.1653 85.7518C94.1801 85.7367 94.1979 85.7291 94.2189 85.7291C96.6077 85.726 98.536 85.7206 100.004 85.7128C100.046 85.7128 100.075 85.7064 100.11 85.6907C100.13 85.6821 100.147 85.6854 100.162 85.7006C101.591 87.128 102.373 87.9097 102.508 88.0456C102.612 88.1499 102.712 88.2903 102.818 88.3964C105.265 90.8481 106.742 92.3221 107.251 92.8185C107.312 92.8787 107.366 92.9315 107.412 92.977C107.915 93.4714 108.816 94.3701 110.116 95.6728C110.124 95.6808 110.13 95.6902 110.134 95.7006C110.139 95.711 110.141 95.7221 110.141 95.7334C110.14 97.1356 110.14 98.6881 110.141 100.391C110.141 100.725 110.132 100.955 110.114 101.08C110.084 101.294 110.04 101.519 109.982 101.757C109.908 102.059 109.776 102.326 109.586 102.557C109.532 102.624 109.427 102.729 109.272 102.874C109.147 102.991 109.03 103.081 108.92 103.145C108.582 103.343 108.213 103.462 107.812 103.502ZM89.7723 98.8907C89.7723 98.8968 89.7747 98.9028 89.7791 98.9071C89.7835 98.9115 89.7894 98.914 89.7956 98.914H95.4902C95.4964 98.914 95.5023 98.9115 95.5067 98.9071C95.511 98.9028 95.5135 98.8968 95.5135 98.8907V94.2442C95.5135 94.238 95.511 94.2321 95.5067 94.2277C95.5023 94.2234 95.4964 94.2209 95.4902 94.2209H91.1595C91.1564 94.2209 91.1533 94.2215 91.1504 94.2227C91.1475 94.2239 91.1448 94.2256 91.1426 94.2279L89.7793 95.5907C89.777 95.5929 89.7753 95.5955 89.7741 95.5984C89.7729 95.6013 89.7723 95.6044 89.7723 95.6076V98.8907ZM98.8397 94.2524V98.9058C98.8397 98.9167 98.845 98.9221 98.8554 98.9221L104.559 98.9163C104.576 98.9163 104.585 98.9079 104.585 98.8912L104.594 95.6705C104.594 95.6268 104.576 95.5849 104.545 95.554L103.262 94.2704C103.246 94.2539 103.226 94.2409 103.205 94.232C103.183 94.2231 103.16 94.2185 103.137 94.2186L98.8729 94.2192C98.8508 94.2192 98.8397 94.2302 98.8397 94.2524Z" fill="#CCCCCF"/>
</g>
</g>
<defs>
<filter id="filter0_d_1351_12275" x="58.4999" y="46.0005" width="80" height="80" filterUnits="userSpaceOnUse" color-interpolation-filters="sRGB">
<feFlood flood-opacity="0" result="BackgroundImageFix"/>
<feColorMatrix in="SourceAlpha" type="matrix" values="0 0 0 0 0 0 0 0 0 0 0 0 0 0 0 0 0 0 127 0" result="hardAlpha"/>
<feOffset dy="10"/>
<feGaussianBlur stdDeviation="5"/>
<feComposite in2="hardAlpha" operator="out"/>
<feColorMatrix type="matrix" values="0 0 0 0 0 0 0 0 0 0 0 0 0 0 0 0 0 0 0.25 0"/>
<feBlend mode="normal" in2="BackgroundImageFix" result="effect1_dropShadow_1351_12275"/>
<feBlend mode="normal" in="SourceGraphic" in2="effect1_dropShadow_1351_12275" result="shape"/>
</filter>
<filter id="filter1_dd_1351_12275" x="99.3149" y="48.501" width="27.9348" height="56.25" filterUnits="userSpaceOnUse" color-interpolation-filters="sRGB">
<feFlood flood-opacity="0" result="BackgroundImageFix"/>
<feColorMatrix in="SourceAlpha" type="matrix" values="0 0 0 0 0 0 0 0 0 0 0 0 0 0 0 0 0 0 127 0" result="hardAlpha"/>
<feOffset dx="1.25" dy="1.25"/>
<feComposite in2="hardAlpha" operator="out"/>
<feColorMatrix type="matrix" values="0 0 0 0 1 0 0 0 0 0 0 0 0 0 0 0 0 0 0.5 0"/>
<feBlend mode="normal" in2="BackgroundImageFix" result="effect1_dropShadow_1351_12275"/>
<feColorMatrix in="SourceAlpha" type="matrix" values="0 0 0 0 0 0 0 0 0 0 0 0 0 0 0 0 0 0 127 0" result="hardAlpha"/>
<feOffset dx="0.75" dy="0.75"/>
<feComposite in2="hardAlpha" operator="out"/>
<feColorMatrix type="matrix" values="0 0 0 0 0.15 0 0 0 0 0 0 0 0 0 1 0 0 0 0.5 0"/>
<feBlend mode="normal" in2="effect1_dropShadow_1351_12275" result="effect2_dropShadow_1351_12275"/>
<feBlend mode="normal" in="SourceGraphic" in2="effect2_dropShadow_1351_12275" result="shape"/>
</filter>
<filter id="filter2_dd_1351_12275" x="70.9999" y="63.0127" width="34.5088" height="19.4507" filterUnits="userSpaceOnUse" color-interpolation-filters="sRGB">
<feFlood flood-opacity="0" result="BackgroundImageFix"/>
<feColorMatrix in="SourceAlpha" type="matrix" values="0 0 0 0 0 0 0 0 0 0 0 0 0 0 0 0 0 0 127 0" result="hardAlpha"/>
<feOffset dx="1.25" dy="1.25"/>
<feComposite in2="hardAlpha" operator="out"/>
<feColorMatrix type="matrix" values="0 0 0 0 1 0 0 0 0 0 0 0 0 0 0 0 0 0 0.5 0"/>
<feBlend mode="normal" in2="BackgroundImageFix" result="effect1_dropShadow_1351_12275"/>
<feColorMatrix in="SourceAlpha" type="matrix" values="0 0 0 0 0 0 0 0 0 0 0 0 0 0 0 0 0 0 127 0" result="hardAlpha"/>
<feOffset dx="0.75" dy="0.75"/>
<feComposite in2="hardAlpha" operator="out"/>
<feColorMatrix type="matrix" values="0 0 0 0 0.15 0 0 0 0 0 0 0 0 0 1 0 0 0 0.5 0"/>
<feBlend mode="normal" in2="effect1_dropShadow_1351_12275" result="effect2_dropShadow_1351_12275"/>
<feBlend mode="normal" in="SourceGraphic" in2="effect2_dropShadow_1351_12275" result="shape"/>
</filter>
<filter id="filter3_dd_1351_12275" x="72.649" y="71.2329" width="25.5188" height="33.48" filterUnits="userSpaceOnUse" color-interpolation-filters="sRGB">
<feFlood flood-opacity="0" result="BackgroundImageFix"/>
<feColorMatrix in="SourceAlpha" type="matrix" values="0 0 0 0 0 0 0 0 0 0 0 0 0 0 0 0 0 0 127 0" result="hardAlpha"/>
<feOffset dx="1.25" dy="1.25"/>
<feComposite in2="hardAlpha" operator="out"/>
<feColorMatrix type="matrix" values="0 0 0 0 1 0 0 0 0 0 0 0 0 0 0 0 0 0 0.5 0"/>
<feBlend mode="normal" in2="BackgroundImageFix" result="effect1_dropShadow_1351_12275"/>
<feColorMatrix in="SourceAlpha" type="matrix" values="0 0 0 0 0 0 0 0 0 0 0 0 0 0 0 0 0 0 127 0" result="hardAlpha"/>
<feOffset dx="0.75" dy="0.75"/>
<feComposite in2="hardAlpha" operator="out"/>
<feColorMatrix type="matrix" values="0 0 0 0 0.15 0 0 0 0 0 0 0 0 0 1 0 0 0 0.5 0"/>
<feBlend mode="normal" in2="effect1_dropShadow_1351_12275" result="effect2_dropShadow_1351_12275"/>
<feBlend mode="normal" in="SourceGraphic" in2="effect2_dropShadow_1351_12275" result="shape"/>
</filter>
<filter id="filter4_dd_1351_12275" x="82.5795" y="78.5986" width="30.2188" height="17.252" filterUnits="userSpaceOnUse" color-interpolation-filters="sRGB">
<feFlood flood-opacity="0" result="BackgroundImageFix"/>
<feColorMatrix in="SourceAlpha" type="matrix" values="0 0 0 0 0 0 0 0 0 0 0 0 0 0 0 0 0 0 127 0" result="hardAlpha"/>
<feOffset dx="1.25" dy="1.25"/>
<feComposite in2="hardAlpha" operator="out"/>
<feColorMatrix type="matrix" values="0 0 0 0 1 0 0 0 0 0 0 0 0 0 0 0 0 0 0.5 0"/>
<feBlend mode="normal" in2="BackgroundImageFix" result="effect1_dropShadow_1351_12275"/>
<feColorMatrix in="SourceAlpha" type="matrix" values="0 0 0 0 0 0 0 0 0 0 0 0 0 0 0 0 0 0 127 0" result="hardAlpha"/>
<feOffset dx="0.75" dy="0.75"/>
<feComposite in2="hardAlpha" operator="out"/>
<feColorMatrix type="matrix" values="0 0 0 0 0.15 0 0 0 0 0 0 0 0 0 1 0 0 0 0.5 0"/>
<feBlend mode="normal" in2="effect1_dropShadow_1351_12275" result="effect2_dropShadow_1351_12275"/>
<feBlend mode="normal" in="SourceGraphic" in2="effect2_dropShadow_1351_12275" result="shape"/>
</filter>
<filter id="filter5_dd_1351_12275" x="84.2213" y="85.686" width="27.1697" height="19.0659" filterUnits="userSpaceOnUse" color-interpolation-filters="sRGB">
<feFlood flood-opacity="0" result="BackgroundImageFix"/>
<feColorMatrix in="SourceAlpha" type="matrix" values="0 0 0 0 0 0 0 0 0 0 0 0 0 0 0 0 0 0 127 0" result="hardAlpha"/>
<feOffset dx="1.25" dy="1.25"/>
<feComposite in2="hardAlpha" operator="out"/>
<feColorMatrix type="matrix" values="0 0 0 0 1 0 0 0 0 0 0 0 0 0 0 0 0 0 0.5 0"/>
<feBlend mode="normal" in2="BackgroundImageFix" result="effect1_dropShadow_1351_12275"/>
<feColorMatrix in="SourceAlpha" type="matrix" values="0 0 0 0 0 0 0 0 0 0 0 0 0 0 0 0 0 0 127 0" result="hardAlpha"/>
<feOffset dx="0.75" dy="0.75"/>
<feComposite in2="hardAlpha" operator="out"/>
<feColorMatrix type="matrix" values="0 0 0 0 0.15 0 0 0 0 0 0 0 0 0 1 0 0 0 0.5 0"/>
<feBlend mode="normal" in2="effect1_dropShadow_1351_12275" result="effect2_dropShadow_1351_12275"/>
<feBlend mode="normal" in="SourceGraphic" in2="effect2_dropShadow_1351_12275" result="shape"/>
</filter>
</defs>
</svg>
