<svg width="196" height="196" viewBox="0 0 196 196" fill="none" xmlns="http://www.w3.org/2000/svg">
<g filter="url(#filter0_d_1351_12279)">
<g filter="url(#filter1_dd_1351_12279)">
<path d="M98.9505 48.501C100.351 48.5581 101.667 48.8455 102.899 49.3633C106.607 50.9212 109.208 54.3092 109.728 58.3217C109.728 58.325 109.728 58.3282 109.727 58.3314C109.726 58.3345 109.725 58.3373 109.723 58.3398C109.721 58.3422 109.718 58.3441 109.715 58.3454C109.712 58.3468 109.709 58.3474 109.706 58.3474H87.2024C87.1991 58.3473 87.1958 58.3466 87.1928 58.3452C87.1898 58.3437 87.1871 58.3417 87.185 58.3391C87.1828 58.3366 87.1812 58.3336 87.1803 58.3304C87.1794 58.3272 87.1792 58.3239 87.1797 58.3206C87.5374 55.7795 88.598 53.6126 90.3614 51.8196C90.6322 51.545 90.92 51.2842 91.2249 51.0372C93.1646 49.4672 95.4087 48.6218 97.9571 48.501H98.9505Z" fill="#D9D9D9"/>
</g>
<g filter="url(#filter2_dd_1351_12279)">
<path d="M98.4564 59.629C104.723 59.6286 107.959 59.6299 108.166 59.633C108.186 59.6334 108.198 59.6435 108.201 59.6633C108.376 60.6717 108.422 61.6021 108.339 62.4547C108.127 64.6233 107.272 66.5284 105.775 68.1703C105.677 68.2779 105.459 68.4837 105.12 68.7879C104.876 69.0062 104.644 69.1967 104.424 69.3594C103.019 70.3965 101.437 71.016 99.6788 71.218C99.335 71.2576 98.9278 71.2774 98.457 71.2774C97.9862 71.2774 97.579 71.2576 97.2352 71.218C95.4769 71.0164 93.8948 70.3971 92.4891 69.36C92.2689 69.1973 92.037 69.0067 91.7935 68.7885C91.4548 68.4843 91.2365 68.2785 91.1386 68.1709C89.6409 66.5294 88.786 64.6244 88.5739 62.4559C88.4904 61.6033 88.5362 60.6728 88.7114 59.6645C88.7145 59.6447 88.7263 59.6346 88.7469 59.6342C88.9536 59.6311 92.1901 59.6294 98.4564 59.629Z" fill="#D9D9D9"/>
</g>
<g filter="url(#filter3_dd_1351_12279)">
<path d="M86.9608 65.5431C87.2556 66.4726 87.7046 67.3681 88.3079 68.2296C88.3203 68.2474 88.3156 68.2564 88.2939 68.2564H75.063C75.0319 68.2564 75.0187 68.241 75.0234 68.2103C75.3838 65.8227 76.4852 63.8964 78.3275 62.4313C79.4352 61.5507 80.7085 60.9776 82.1472 60.7119C83.6095 60.442 85.0434 60.5354 86.4487 60.9922C86.4638 60.9971 86.4769 61.0066 86.4862 61.0194C86.4955 61.0322 86.5006 61.0475 86.5005 61.0633C86.4967 61.5834 86.4953 62.052 86.4965 62.4691C86.4976 62.9139 86.5182 63.3017 86.5582 63.6326C86.6413 64.3225 86.7755 64.9593 86.9608 65.5431Z" fill="#D9D9D9"/>
</g>
<g filter="url(#filter4_dd_1351_12279)">
<path d="M109.952 65.5432C110.138 64.9594 110.272 64.3226 110.355 63.6327C110.395 63.3018 110.416 62.9138 110.417 62.4686C110.418 62.0515 110.417 61.5829 110.413 61.0628C110.413 61.047 110.418 61.0317 110.427 61.0189C110.437 61.0061 110.45 60.9966 110.465 60.9917C111.87 60.5353 113.304 60.4421 114.767 60.712C116.206 60.9781 117.479 61.5514 118.586 62.4319C120.429 63.8974 121.53 65.8242 121.89 68.2122C121.894 68.2429 121.881 68.2582 121.85 68.2582L108.619 68.2565C108.597 68.2565 108.592 68.2475 108.605 68.2297C109.208 67.3681 109.657 66.4726 109.952 65.5432Z" fill="#D9D9D9"/>
</g>
<g filter="url(#filter5_dd_1351_12279)">
<path d="M80.2784 77.5586C79.5727 77.1939 78.95 76.7478 78.4105 76.2203C77.025 74.8667 76.255 73.2068 76.1004 71.2406C76.0495 70.5939 76.093 69.9375 76.2309 69.2713C76.2316 69.2682 76.2333 69.2654 76.2359 69.2634C76.2384 69.2614 76.2416 69.2603 76.2449 69.2603H89.1332C89.1398 69.2602 89.1464 69.2615 89.1525 69.264C89.1586 69.2665 89.1641 69.2702 89.1687 69.2748L89.4583 69.5638C89.4589 69.5642 89.4593 69.5648 89.4595 69.5654C89.4597 69.5661 89.4596 69.5668 89.4593 69.5674C89.4591 69.568 89.4586 69.5685 89.458 69.5688C89.4573 69.5691 89.4566 69.5692 89.456 69.569C89.113 69.5481 88.9141 69.5465 88.8594 69.5644C87.4168 70.0375 86.0874 70.724 84.8713 71.624C84.7971 71.6791 84.5864 71.8494 84.2391 72.1349C84.0523 72.2887 83.8544 72.4738 83.6454 72.6902C83.6074 72.7298 83.2139 73.1238 82.465 73.8723C82.2862 74.0512 82.1277 74.2452 81.9669 74.4421C81.2021 75.3759 80.6571 76.4071 80.332 77.5359C80.3305 77.5412 80.3278 77.5461 80.3242 77.5503C80.3205 77.5544 80.3159 77.5577 80.3108 77.5599C80.3057 77.5621 80.3001 77.5631 80.2945 77.5628C80.2889 77.5626 80.2834 77.5612 80.2784 77.5586Z" fill="#D9D9D9"/>
</g>
<g filter="url(#filter6_dd_1351_12279)">
<path d="M116.635 77.5569C116.63 77.5594 116.625 77.5609 116.619 77.5611C116.613 77.5613 116.608 77.5603 116.603 77.5581C116.598 77.556 116.593 77.5527 116.589 77.5485C116.586 77.5444 116.583 77.5395 116.582 77.5341C116.256 76.4058 115.712 75.3747 114.948 74.441C114.787 74.2446 114.629 74.0506 114.45 73.8717C113.701 73.1233 113.308 72.7292 113.27 72.6896C113.061 72.4732 112.864 72.2882 112.677 72.1344C112.33 71.8493 112.119 71.6791 112.045 71.624C110.829 70.724 109.501 70.0375 108.059 69.5644C108.004 69.5465 107.805 69.5481 107.462 69.569C107.462 69.5692 107.461 69.5691 107.46 69.5688C107.46 69.5685 107.459 69.568 107.459 69.5674C107.459 69.5668 107.459 69.5661 107.459 69.5654C107.459 69.5648 107.459 69.5642 107.46 69.5638L107.749 69.2748C107.754 69.2702 107.76 69.2665 107.766 69.264C107.772 69.2615 107.778 69.2602 107.785 69.2603L120.668 69.2626C120.671 69.2626 120.675 69.2637 120.677 69.2657C120.68 69.2678 120.681 69.2705 120.682 69.2737C120.82 69.9394 120.863 70.5954 120.812 71.2418C120.657 73.2072 119.888 74.8663 118.502 76.2192C117.963 76.7462 117.34 77.1921 116.635 77.5569Z" fill="#D9D9D9"/>
</g>
<g filter="url(#filter7_dd_1351_12279)">
<path d="M112.902 103.501H84.012C82.9901 103.039 82.3471 102.263 82.083 101.171C82.0418 101 82.021 100.791 82.0206 100.544C82.0171 95.9422 82.0177 92.8154 82.0224 91.1638C82.023 90.9436 82.0043 90.7082 82.0049 90.5043C82.0123 87.5201 82.0191 84.443 82.0253 81.2732C82.0261 80.7597 82.0414 80.372 82.0713 80.1102C82.137 79.5334 82.2591 78.9448 82.4378 78.3443C82.5497 77.9671 82.6905 77.6059 82.8602 77.2606C83.2459 76.4756 83.718 75.7716 84.2766 75.1486C84.9198 74.4308 85.6677 73.7901 86.5203 73.2265C87.5764 72.5285 88.7094 71.9805 89.9193 71.5823C89.9358 71.5768 89.9535 71.5757 89.9706 71.579C89.9878 71.5824 90.0038 71.5902 90.0172 71.6016C90.2584 71.8094 90.4984 72.0045 90.7373 72.1871C91.3856 72.6827 92.0605 73.0911 92.7619 73.4124C93.6584 73.8229 94.5234 74.1067 95.357 74.2636C96.2274 74.4271 96.999 74.5174 97.6717 74.5345C98.3122 74.5508 98.8407 74.551 99.2571 74.5351C99.7259 74.5176 100.235 74.4706 100.785 74.3941C101.793 74.2535 102.733 74.0057 103.606 73.6507C104.525 73.2774 105.376 72.793 106.162 72.1976C106.405 72.0135 106.648 71.8158 106.894 71.6045C106.905 71.594 106.92 71.5868 106.936 71.5837C106.951 71.5805 106.967 71.5814 106.983 71.5864C108.79 72.1694 110.394 73.075 111.793 74.3032C111.858 74.3603 111.988 74.4838 112.182 74.6738C113.144 75.6161 113.854 76.6811 114.312 77.8689C114.561 78.5171 114.734 79.2307 114.828 80.0095C114.866 80.3171 114.885 80.7047 114.886 81.1724C114.901 86.3162 114.905 89.4527 114.898 90.5818C114.897 90.7663 114.897 90.9508 114.897 91.1353C114.895 92.0854 114.896 95.1974 114.9 100.471C114.9 100.712 114.872 100.949 114.816 101.183C114.557 102.268 113.918 103.04 112.902 103.501Z" fill="#D9D9D9"/>
</g>
<g filter="url(#filter8_dd_1351_12279)">
<path d="M79.9867 103.5H72.472C71.9892 103.289 71.6138 102.954 71.3458 102.498C71.1166 102.107 71.002 101.684 71.002 101.228C70.9982 95.5973 70.9995 90.6498 71.0061 86.3857C71.0069 85.8517 71.0201 85.4638 71.0457 85.2222C71.1654 84.104 71.5472 83.0729 72.1912 82.1291C72.5641 81.5826 73.0129 81.0848 73.5376 80.6358C74.5965 79.7304 75.813 79.0538 77.1872 78.6059C77.2027 78.6009 77.2167 78.6038 77.2292 78.6147C78.0308 79.3259 78.9353 79.878 79.9424 80.2711C79.972 80.2823 79.9867 80.3039 79.9867 80.3357V103.5Z" fill="#D9D9D9"/>
</g>
<g filter="url(#filter9_dd_1351_12279)">
<path d="M124.443 103.502H116.926V80.3335C116.926 80.3207 116.93 80.3081 116.938 80.2975C116.945 80.2869 116.955 80.2787 116.967 80.2741C117.973 79.8826 118.88 79.3289 119.689 78.613C119.695 78.6072 119.703 78.6034 119.712 78.6018C119.721 78.6003 119.73 78.6011 119.738 78.6043C120.104 78.741 120.296 78.8131 120.316 78.8205C121.456 79.2578 122.483 79.8702 123.398 80.6575C124.195 81.3426 124.815 82.1443 125.259 83.0626C125.568 83.7031 125.768 84.3937 125.858 85.1344C125.89 85.3973 125.907 85.7854 125.907 86.2985C125.913 90.8643 125.916 95.6135 125.915 100.546C125.915 101.154 125.898 101.541 125.866 101.708C125.78 102.145 125.583 102.541 125.274 102.894C125.042 103.16 124.765 103.362 124.443 103.502Z" fill="#D9D9D9"/>
</g>
</g>
<defs>
<filter id="filter0_d_1351_12279" x="58.4999" y="46.0005" width="80" height="80" filterUnits="userSpaceOnUse" color-interpolation-filters="sRGB">
<feFlood flood-opacity="0" result="BackgroundImageFix"/>
<feColorMatrix in="SourceAlpha" type="matrix" values="0 0 0 0 0 0 0 0 0 0 0 0 0 0 0 0 0 0 127 0" result="hardAlpha"/>
<feOffset dy="10"/>
<feGaussianBlur stdDeviation="5"/>
<feComposite in2="hardAlpha" operator="out"/>
<feColorMatrix type="matrix" values="0 0 0 0 0 0 0 0 0 0 0 0 0 0 0 0 0 0 0.25 0"/>
<feBlend mode="normal" in2="BackgroundImageFix" result="effect1_dropShadow_1351_12279"/>
<feBlend mode="normal" in="SourceGraphic" in2="effect1_dropShadow_1351_12279" result="shape"/>
</filter>
<filter id="filter1_dd_1351_12279" x="87.1794" y="48.501" width="23.7987" height="11.0962" filterUnits="userSpaceOnUse" color-interpolation-filters="sRGB">
<feFlood flood-opacity="0" result="BackgroundImageFix"/>
<feColorMatrix in="SourceAlpha" type="matrix" values="0 0 0 0 0 0 0 0 0 0 0 0 0 0 0 0 0 0 127 0" result="hardAlpha"/>
<feOffset dx="1.25" dy="1.25"/>
<feComposite in2="hardAlpha" operator="out"/>
<feColorMatrix type="matrix" values="0 0 0 0 1 0 0 0 0 0 0 0 0 0 0 0 0 0 0.5 0"/>
<feBlend mode="normal" in2="BackgroundImageFix" result="effect1_dropShadow_1351_12279"/>
<feColorMatrix in="SourceAlpha" type="matrix" values="0 0 0 0 0 0 0 0 0 0 0 0 0 0 0 0 0 0 127 0" result="hardAlpha"/>
<feOffset dx="0.75" dy="0.75"/>
<feComposite in2="hardAlpha" operator="out"/>
<feColorMatrix type="matrix" values="0 0 0 0 0.15 0 0 0 0 0 0 0 0 0 1 0 0 0 0.5 0"/>
<feBlend mode="normal" in2="effect1_dropShadow_1351_12279" result="effect2_dropShadow_1351_12279"/>
<feBlend mode="normal" in="SourceGraphic" in2="effect2_dropShadow_1351_12279" result="shape"/>
</filter>
<filter id="filter2_dd_1351_12279" x="88.5334" y="59.6289" width="21.0958" height="12.8984" filterUnits="userSpaceOnUse" color-interpolation-filters="sRGB">
<feFlood flood-opacity="0" result="BackgroundImageFix"/>
<feColorMatrix in="SourceAlpha" type="matrix" values="0 0 0 0 0 0 0 0 0 0 0 0 0 0 0 0 0 0 127 0" result="hardAlpha"/>
<feOffset dx="1.25" dy="1.25"/>
<feComposite in2="hardAlpha" operator="out"/>
<feColorMatrix type="matrix" values="0 0 0 0 1 0 0 0 0 0 0 0 0 0 0 0 0 0 0.5 0"/>
<feBlend mode="normal" in2="BackgroundImageFix" result="effect1_dropShadow_1351_12279"/>
<feColorMatrix in="SourceAlpha" type="matrix" values="0 0 0 0 0 0 0 0 0 0 0 0 0 0 0 0 0 0 127 0" result="hardAlpha"/>
<feOffset dx="0.75" dy="0.75"/>
<feComposite in2="hardAlpha" operator="out"/>
<feColorMatrix type="matrix" values="0 0 0 0 0.15 0 0 0 0 0 0 0 0 0 1 0 0 0 0.5 0"/>
<feBlend mode="normal" in2="effect1_dropShadow_1351_12279" result="effect2_dropShadow_1351_12279"/>
<feBlend mode="normal" in="SourceGraphic" in2="effect2_dropShadow_1351_12279" result="shape"/>
</filter>
<filter id="filter3_dd_1351_12279" x="75.0225" y="60.5615" width="14.5421" height="8.94482" filterUnits="userSpaceOnUse" color-interpolation-filters="sRGB">
<feFlood flood-opacity="0" result="BackgroundImageFix"/>
<feColorMatrix in="SourceAlpha" type="matrix" values="0 0 0 0 0 0 0 0 0 0 0 0 0 0 0 0 0 0 127 0" result="hardAlpha"/>
<feOffset dx="1.25" dy="1.25"/>
<feComposite in2="hardAlpha" operator="out"/>
<feColorMatrix type="matrix" values="0 0 0 0 1 0 0 0 0 0 0 0 0 0 0 0 0 0 0.5 0"/>
<feBlend mode="normal" in2="BackgroundImageFix" result="effect1_dropShadow_1351_12279"/>
<feColorMatrix in="SourceAlpha" type="matrix" values="0 0 0 0 0 0 0 0 0 0 0 0 0 0 0 0 0 0 127 0" result="hardAlpha"/>
<feOffset dx="0.75" dy="0.75"/>
<feComposite in2="hardAlpha" operator="out"/>
<feColorMatrix type="matrix" values="0 0 0 0 0.15 0 0 0 0 0 0 0 0 0 1 0 0 0 0.5 0"/>
<feBlend mode="normal" in2="effect1_dropShadow_1351_12279" result="effect2_dropShadow_1351_12279"/>
<feBlend mode="normal" in="SourceGraphic" in2="effect2_dropShadow_1351_12279" result="shape"/>
</filter>
<filter id="filter4_dd_1351_12279" x="108.598" y="60.5615" width="14.5427" height="8.94678" filterUnits="userSpaceOnUse" color-interpolation-filters="sRGB">
<feFlood flood-opacity="0" result="BackgroundImageFix"/>
<feColorMatrix in="SourceAlpha" type="matrix" values="0 0 0 0 0 0 0 0 0 0 0 0 0 0 0 0 0 0 127 0" result="hardAlpha"/>
<feOffset dx="1.25" dy="1.25"/>
<feComposite in2="hardAlpha" operator="out"/>
<feColorMatrix type="matrix" values="0 0 0 0 1 0 0 0 0 0 0 0 0 0 0 0 0 0 0.5 0"/>
<feBlend mode="normal" in2="BackgroundImageFix" result="effect1_dropShadow_1351_12279"/>
<feColorMatrix in="SourceAlpha" type="matrix" values="0 0 0 0 0 0 0 0 0 0 0 0 0 0 0 0 0 0 127 0" result="hardAlpha"/>
<feOffset dx="0.75" dy="0.75"/>
<feComposite in2="hardAlpha" operator="out"/>
<feColorMatrix type="matrix" values="0 0 0 0 0.15 0 0 0 0 0 0 0 0 0 1 0 0 0 0.5 0"/>
<feBlend mode="normal" in2="effect1_dropShadow_1351_12279" result="effect2_dropShadow_1351_12279"/>
<feBlend mode="normal" in="SourceGraphic" in2="effect2_dropShadow_1351_12279" result="shape"/>
</filter>
<filter id="filter5_dd_1351_12279" x="76.0798" y="69.2603" width="14.6298" height="9.55273" filterUnits="userSpaceOnUse" color-interpolation-filters="sRGB">
<feFlood flood-opacity="0" result="BackgroundImageFix"/>
<feColorMatrix in="SourceAlpha" type="matrix" values="0 0 0 0 0 0 0 0 0 0 0 0 0 0 0 0 0 0 127 0" result="hardAlpha"/>
<feOffset dx="1.25" dy="1.25"/>
<feComposite in2="hardAlpha" operator="out"/>
<feColorMatrix type="matrix" values="0 0 0 0 1 0 0 0 0 0 0 0 0 0 0 0 0 0 0.5 0"/>
<feBlend mode="normal" in2="BackgroundImageFix" result="effect1_dropShadow_1351_12279"/>
<feColorMatrix in="SourceAlpha" type="matrix" values="0 0 0 0 0 0 0 0 0 0 0 0 0 0 0 0 0 0 127 0" result="hardAlpha"/>
<feOffset dx="0.75" dy="0.75"/>
<feComposite in2="hardAlpha" operator="out"/>
<feColorMatrix type="matrix" values="0 0 0 0 0.15 0 0 0 0 0 0 0 0 0 1 0 0 0 0.5 0"/>
<feBlend mode="normal" in2="effect1_dropShadow_1351_12279" result="effect2_dropShadow_1351_12279"/>
<feBlend mode="normal" in="SourceGraphic" in2="effect2_dropShadow_1351_12279" result="shape"/>
</filter>
<filter id="filter6_dd_1351_12279" x="107.459" y="69.2603" width="14.6241" height="9.55078" filterUnits="userSpaceOnUse" color-interpolation-filters="sRGB">
<feFlood flood-opacity="0" result="BackgroundImageFix"/>
<feColorMatrix in="SourceAlpha" type="matrix" values="0 0 0 0 0 0 0 0 0 0 0 0 0 0 0 0 0 0 127 0" result="hardAlpha"/>
<feOffset dx="1.25" dy="1.25"/>
<feComposite in2="hardAlpha" operator="out"/>
<feColorMatrix type="matrix" values="0 0 0 0 1 0 0 0 0 0 0 0 0 0 0 0 0 0 0.5 0"/>
<feBlend mode="normal" in2="BackgroundImageFix" result="effect1_dropShadow_1351_12279"/>
<feColorMatrix in="SourceAlpha" type="matrix" values="0 0 0 0 0 0 0 0 0 0 0 0 0 0 0 0 0 0 127 0" result="hardAlpha"/>
<feOffset dx="0.75" dy="0.75"/>
<feComposite in2="hardAlpha" operator="out"/>
<feColorMatrix type="matrix" values="0 0 0 0 0.15 0 0 0 0 0 0 0 0 0 1 0 0 0 0.5 0"/>
<feBlend mode="normal" in2="effect1_dropShadow_1351_12279" result="effect2_dropShadow_1351_12279"/>
<feBlend mode="normal" in="SourceGraphic" in2="effect2_dropShadow_1351_12279" result="shape"/>
</filter>
<filter id="filter7_dd_1351_12279" x="82.0049" y="71.5771" width="34.1465" height="33.1738" filterUnits="userSpaceOnUse" color-interpolation-filters="sRGB">
<feFlood flood-opacity="0" result="BackgroundImageFix"/>
<feColorMatrix in="SourceAlpha" type="matrix" values="0 0 0 0 0 0 0 0 0 0 0 0 0 0 0 0 0 0 127 0" result="hardAlpha"/>
<feOffset dx="1.25" dy="1.25"/>
<feComposite in2="hardAlpha" operator="out"/>
<feColorMatrix type="matrix" values="0 0 0 0 1 0 0 0 0 0 0 0 0 0 0 0 0 0 0.5 0"/>
<feBlend mode="normal" in2="BackgroundImageFix" result="effect1_dropShadow_1351_12279"/>
<feColorMatrix in="SourceAlpha" type="matrix" values="0 0 0 0 0 0 0 0 0 0 0 0 0 0 0 0 0 0 127 0" result="hardAlpha"/>
<feOffset dx="0.75" dy="0.75"/>
<feComposite in2="hardAlpha" operator="out"/>
<feColorMatrix type="matrix" values="0 0 0 0 0.15 0 0 0 0 0 0 0 0 0 1 0 0 0 0.5 0"/>
<feBlend mode="normal" in2="effect1_dropShadow_1351_12279" result="effect2_dropShadow_1351_12279"/>
<feBlend mode="normal" in="SourceGraphic" in2="effect2_dropShadow_1351_12279" result="shape"/>
</filter>
<filter id="filter8_dd_1351_12279" x="70.9999" y="78.6035" width="10.2368" height="26.147" filterUnits="userSpaceOnUse" color-interpolation-filters="sRGB">
<feFlood flood-opacity="0" result="BackgroundImageFix"/>
<feColorMatrix in="SourceAlpha" type="matrix" values="0 0 0 0 0 0 0 0 0 0 0 0 0 0 0 0 0 0 127 0" result="hardAlpha"/>
<feOffset dx="1.25" dy="1.25"/>
<feComposite in2="hardAlpha" operator="out"/>
<feColorMatrix type="matrix" values="0 0 0 0 1 0 0 0 0 0 0 0 0 0 0 0 0 0 0.5 0"/>
<feBlend mode="normal" in2="BackgroundImageFix" result="effect1_dropShadow_1351_12279"/>
<feColorMatrix in="SourceAlpha" type="matrix" values="0 0 0 0 0 0 0 0 0 0 0 0 0 0 0 0 0 0 127 0" result="hardAlpha"/>
<feOffset dx="0.75" dy="0.75"/>
<feComposite in2="hardAlpha" operator="out"/>
<feColorMatrix type="matrix" values="0 0 0 0 0.15 0 0 0 0 0 0 0 0 0 1 0 0 0 0.5 0"/>
<feBlend mode="normal" in2="effect1_dropShadow_1351_12279" result="effect2_dropShadow_1351_12279"/>
<feBlend mode="normal" in="SourceGraphic" in2="effect2_dropShadow_1351_12279" result="shape"/>
</filter>
<filter id="filter9_dd_1351_12279" x="116.926" y="78.6011" width="10.2385" height="26.1514" filterUnits="userSpaceOnUse" color-interpolation-filters="sRGB">
<feFlood flood-opacity="0" result="BackgroundImageFix"/>
<feColorMatrix in="SourceAlpha" type="matrix" values="0 0 0 0 0 0 0 0 0 0 0 0 0 0 0 0 0 0 127 0" result="hardAlpha"/>
<feOffset dx="1.25" dy="1.25"/>
<feComposite in2="hardAlpha" operator="out"/>
<feColorMatrix type="matrix" values="0 0 0 0 1 0 0 0 0 0 0 0 0 0 0 0 0 0 0.5 0"/>
<feBlend mode="normal" in2="BackgroundImageFix" result="effect1_dropShadow_1351_12279"/>
<feColorMatrix in="SourceAlpha" type="matrix" values="0 0 0 0 0 0 0 0 0 0 0 0 0 0 0 0 0 0 127 0" result="hardAlpha"/>
<feOffset dx="0.75" dy="0.75"/>
<feComposite in2="hardAlpha" operator="out"/>
<feColorMatrix type="matrix" values="0 0 0 0 0.15 0 0 0 0 0 0 0 0 0 1 0 0 0 0.5 0"/>
<feBlend mode="normal" in2="effect1_dropShadow_1351_12279" result="effect2_dropShadow_1351_12279"/>
<feBlend mode="normal" in="SourceGraphic" in2="effect2_dropShadow_1351_12279" result="shape"/>
</filter>
</defs>
</svg>
