<svg width="196" height="196" viewBox="0 0 196 196" fill="none" xmlns="http://www.w3.org/2000/svg">
<g filter="url(#filter0_d_1351_12277)">
<g filter="url(#filter1_dd_1351_12277)">
<path d="M98.9329 48.501C100.556 48.5662 102.083 48.9488 103.512 49.6488C106.685 51.202 108.925 54.1606 109.602 57.6243C109.605 57.6406 109.615 57.6488 109.632 57.6488H110.881C110.889 57.6488 110.896 57.6519 110.901 57.6573C110.907 57.6628 110.91 57.6702 110.91 57.6779V64.6106C110.91 64.63 110.9 64.6397 110.881 64.6397H106.934C106.904 64.6397 106.89 64.6252 106.89 64.5961V58.3695C106.89 58.3636 106.887 58.358 106.883 58.3539C106.879 58.3497 106.874 58.3474 106.868 58.3474H90.2558C90.2364 58.3474 90.2267 58.3571 90.2267 58.3765V64.6106C90.2267 64.6183 90.2236 64.6258 90.2181 64.6312C90.2127 64.6367 90.2053 64.6397 90.1975 64.6397H86.2357C86.2279 64.6397 86.2205 64.6367 86.2151 64.6312C86.2096 64.6258 86.2065 64.6183 86.2065 64.6106V57.6919C86.2065 57.6628 86.2211 57.6482 86.2502 57.6482H87.4755C87.4976 57.6482 87.5109 57.6373 87.5151 57.6156C87.8841 55.7644 88.6481 54.1206 89.8072 52.6842C90.7619 51.5015 91.9153 50.547 93.2674 49.8206C94.769 49.0143 96.4054 48.5744 98.1766 48.501H98.9329Z" fill="#D9D9D9"/>
</g>
<g filter="url(#filter2_dd_1351_12277)">
<path d="M98.5581 59.6289C102.989 59.6289 105.327 59.6301 105.571 59.6324C105.575 59.6324 105.58 59.6334 105.585 59.6353C105.589 59.6372 105.593 59.64 105.597 59.6435C105.6 59.647 105.603 59.6512 105.605 59.6558C105.607 59.6604 105.608 59.6653 105.608 59.6703V65.8846C105.608 65.909 105.62 65.9213 105.645 65.9213H107.275C107.305 65.9213 107.313 65.9347 107.299 65.9615C106.132 68.1592 104.398 69.7167 102.098 70.6342C102.039 70.6575 101.914 70.7008 101.724 70.7641C101.598 70.8064 101.472 70.8456 101.347 70.8818C101.175 70.9315 101.071 70.9596 101.035 70.9662C100.949 70.9818 100.842 70.9896 100.714 70.9896C100.532 70.9899 99.8134 70.9901 98.5581 70.9901C97.3027 70.9901 96.5841 70.9899 96.4024 70.9896C96.2742 70.9896 96.1672 70.9818 96.0813 70.9662C96.0452 70.9596 95.9413 70.9315 95.7696 70.8818C95.6442 70.8456 95.5183 70.8064 95.3921 70.7641C95.2021 70.7008 95.0777 70.6575 95.0186 70.6342C92.7184 69.7167 90.9845 68.1592 89.8169 65.9615C89.8029 65.9347 89.8111 65.9213 89.8414 65.9213H91.471C91.4959 65.9213 91.5083 65.909 91.5083 65.8846V59.6703C91.5083 59.6653 91.5093 59.6604 91.5111 59.6558C91.513 59.6512 91.5157 59.647 91.5192 59.6435C91.5227 59.64 91.5268 59.6372 91.5313 59.6353C91.5358 59.6334 91.5407 59.6324 91.5456 59.6324C91.7895 59.6301 94.127 59.6289 98.5581 59.6289Z" fill="#D9D9D9"/>
</g>
<g filter="url(#filter3_dd_1351_12277)">
<path d="M77.2382 68.1622V73.0702C77.2382 73.0739 77.2367 73.0775 77.2339 73.0801C77.2312 73.0827 77.2275 73.0842 77.2236 73.0842H74.1182C74.1019 73.0842 74.0938 73.0761 74.0938 73.0597V67.6448C74.0938 67.6223 74.105 67.611 74.1275 67.611H75.0854C75.1036 67.611 75.1145 67.6021 75.118 67.5842C75.4385 66.034 76.0807 64.6932 77.0448 63.5618C78.0076 62.4319 79.1725 61.5966 80.5394 61.0559C81.6817 60.6038 82.8802 60.4033 84.1347 60.4546C84.1569 60.4554 84.168 60.4668 84.168 60.489V65.5794C84.1679 65.627 84.1858 65.6726 84.2181 65.707C84.4985 66.0065 84.8081 66.3149 85.1468 66.6322C85.1844 66.6676 85.2464 66.685 85.3326 66.6846C85.8477 66.6823 86.1256 66.6811 86.1664 66.6811C86.1717 66.6811 86.177 66.6821 86.1819 66.684C86.1869 66.686 86.1914 66.689 86.1952 66.6927C86.199 66.6965 86.202 66.7009 86.204 66.7058C86.2061 66.7107 86.2072 66.716 86.2072 66.7213V68.1202C86.2072 68.1397 86.1974 68.1494 86.178 68.1494H77.2504C77.2472 68.1494 77.2441 68.1507 77.2418 68.1531C77.2395 68.1555 77.2382 68.1588 77.2382 68.1622Z" fill="#D9D9D9"/>
</g>
<g filter="url(#filter4_dd_1351_12277)">
<path d="M119.879 68.1616C119.879 68.1582 119.878 68.1549 119.875 68.1525C119.873 68.1501 119.87 68.1488 119.867 68.1488L110.94 68.1482C110.921 68.1482 110.911 68.1385 110.911 68.1191V66.7208C110.911 66.7154 110.912 66.7102 110.914 66.7052C110.916 66.7003 110.919 66.6959 110.923 66.6921C110.927 66.6884 110.931 66.6854 110.936 66.6835C110.941 66.6815 110.947 66.6805 110.952 66.6806C110.993 66.6806 111.27 66.6817 111.785 66.6841C111.871 66.6844 111.933 66.667 111.971 66.6316C112.31 66.3143 112.619 66.0059 112.9 65.7064C112.932 65.672 112.95 65.6264 112.95 65.5788V60.489C112.95 60.4668 112.961 60.4554 112.983 60.4546C114.238 60.4033 115.436 60.6038 116.578 61.0559C117.945 61.5966 119.109 62.4319 120.072 63.5618C121.036 64.6928 121.678 66.0335 121.999 67.5836C122.002 67.6015 122.013 67.6104 122.031 67.6104H122.989C123.012 67.6104 123.023 67.6217 123.023 67.6442V73.0586C123.023 73.0749 123.015 73.0831 122.998 73.0831L119.893 73.0825C119.889 73.0825 119.885 73.081 119.883 73.0784C119.88 73.0758 119.878 73.0722 119.878 73.0685L119.879 68.1616Z" fill="#D9D9D9"/>
</g>
<g filter="url(#filter5_dd_1351_12277)">
<path d="M78.2431 74.0471V69.1834C78.2431 69.1663 78.2516 69.1577 78.2687 69.1577H86.1977C86.2 69.1577 86.2022 69.1587 86.2039 69.1604C86.2055 69.1622 86.2064 69.1646 86.2064 69.167V70.877C86.2064 70.8988 86.1971 70.9157 86.1785 70.9277C85.4051 71.4148 84.8042 71.8549 84.3758 72.248C84.1933 72.4154 83.6295 72.9763 82.6845 73.9306C82.526 74.0908 82.3908 74.2609 82.2428 74.4404C81.4738 75.3773 80.9241 76.4227 80.594 77.5767C80.593 77.5803 80.5912 77.5836 80.5888 77.5864C80.5864 77.5892 80.5834 77.5915 80.58 77.5931C80.5766 77.5946 80.5729 77.5954 80.5692 77.5954C80.5655 77.5954 80.5618 77.5946 80.5585 77.593C78.9516 76.8286 77.7432 75.6732 76.9333 74.1269C76.9163 74.0947 76.926 74.0786 76.9625 74.0786H78.2116C78.2326 74.0786 78.2431 74.0681 78.2431 74.0471Z" fill="#D9D9D9"/>
</g>
<g filter="url(#filter6_dd_1351_12277)">
<path d="M118.904 74.0792H120.153C120.19 74.0792 120.2 74.0953 120.182 74.1275C119.373 75.6734 118.164 76.8286 116.557 77.593C116.554 77.5946 116.55 77.5954 116.547 77.5954C116.543 77.5954 116.539 77.5946 116.536 77.5931C116.532 77.5915 116.529 77.5892 116.527 77.5864C116.525 77.5836 116.523 77.5803 116.522 77.5767C116.192 76.4227 115.642 75.3773 114.874 74.4404C114.726 74.2609 114.59 74.0908 114.432 73.9306C113.487 72.9763 112.923 72.4154 112.741 72.248C112.312 71.8549 111.711 71.4148 110.938 70.9277C110.919 70.9157 110.91 70.8988 110.91 70.877L110.91 69.167C110.91 69.1646 110.911 69.1622 110.913 69.1604C110.915 69.1587 110.917 69.1577 110.919 69.1577L118.848 69.1583C118.865 69.1583 118.873 69.1668 118.873 69.1839L118.873 74.0477C118.873 74.0687 118.883 74.0792 118.904 74.0792Z" fill="#D9D9D9"/>
</g>
<g filter="url(#filter7_dd_1351_12277)">
<path d="M98.5581 72.7417C101.142 72.7417 102.678 72.7394 103.166 72.7347C103.206 72.7343 103.239 72.7272 103.265 72.7132C104.033 72.2894 104.716 71.7907 105.314 71.217C105.315 71.2153 105.317 71.2141 105.32 71.2136C105.322 71.2131 105.324 71.2134 105.326 71.2143C105.328 71.2152 105.33 71.2167 105.331 71.2186C105.332 71.2206 105.333 71.2229 105.333 71.2251C105.334 71.6959 105.333 73.2634 105.332 75.9275C105.332 76.1408 105.306 76.3018 105.254 76.4105C105.165 76.5981 105.025 76.7292 104.833 76.8038C104.726 76.8454 104.544 76.8663 104.289 76.8667C103.13 76.8683 101.22 76.8691 98.5581 76.8691C95.8967 76.8691 93.9865 76.8683 92.8274 76.8667C92.5718 76.8663 92.3904 76.8454 92.2832 76.8038C92.0918 76.7292 91.9513 76.5981 91.862 76.4105C91.8103 76.3018 91.7845 76.1408 91.7845 75.9275C91.783 73.2634 91.7826 71.6959 91.7833 71.2251C91.7832 71.2229 91.7838 71.2206 91.785 71.2186C91.7862 71.2167 91.788 71.2152 91.7901 71.2143C91.7922 71.2134 91.7945 71.2131 91.7968 71.2136C91.799 71.2141 91.801 71.2153 91.8026 71.217C92.4007 71.7907 93.0838 72.2894 93.8517 72.7132C93.8769 72.7272 93.9099 72.7343 93.9507 72.7347C94.439 72.7394 95.9748 72.7417 98.5581 72.7417Z" fill="#D9D9D9"/>
</g>
<g filter="url(#filter8_dd_1351_12277)">
<path d="M112.034 103.501H85.0856C84.6459 103.421 84.2695 103.293 83.9564 103.115C83.084 102.621 82.5445 101.864 82.3379 100.843C82.3158 100.733 82.3035 100.623 82.3012 100.514C82.3008 100.485 82.2954 100.41 82.2849 100.29C82.2806 100.24 82.2791 100.167 82.2802 100.07C82.2872 99.516 82.2853 99.0057 82.2744 98.5392C82.2693 98.3248 82.2699 98.1273 82.2761 97.9466C82.2855 97.6712 82.2893 97.4739 82.2878 97.3547C82.2843 97.0991 82.2853 96.7105 82.2907 96.1889C82.2954 95.7367 82.2961 95.3485 82.293 95.0242C82.2806 93.6216 82.2775 92.7719 82.2837 92.4752C82.2938 91.9726 82.2956 91.6199 82.289 91.4171C82.2878 91.3899 82.2913 91.2994 82.2994 91.1456C82.3059 91.0244 82.282 90.8893 82.282 90.7827C82.2936 87.3801 82.3004 83.9776 82.3024 80.575C82.3027 80.3334 82.3505 79.9528 82.4457 79.4331C82.4954 79.1624 82.5807 78.8169 82.7015 78.3966C82.8075 78.0284 82.931 77.6949 83.072 77.3962C83.4628 76.5681 83.9539 75.8214 84.5455 75.156C84.8104 74.8589 85.1021 74.5681 85.4206 74.2838C86.1636 73.6208 86.9886 73.0547 87.8956 72.5855C87.9255 72.5699 87.9404 72.5791 87.9404 72.6128V77.3578C87.9404 77.3791 87.9329 77.3976 87.9177 77.4131C87.0818 78.2439 86.3806 78.9483 85.8139 79.5263C85.7272 79.6145 85.6655 79.717 85.6286 79.8339C85.6049 79.9093 85.5926 80.0256 85.5919 80.1829C85.581 82.6133 85.5761 84.4916 85.5773 85.8181C85.5773 86.4293 85.5948 87.2572 85.5884 87.975C85.5829 88.5537 85.5806 88.9419 85.5814 89.1396C85.5837 89.8338 85.5868 90.329 85.5907 90.6253C85.5919 90.71 85.589 90.7879 85.582 90.859C85.5715 90.9689 85.5662 91.0464 85.5662 91.0914C85.5616 93.4181 85.5641 94.8407 85.5738 95.3592C85.5758 95.48 85.5775 95.5618 85.5791 95.6045C85.5884 95.9121 85.7486 96.1819 86.0218 96.3124C86.1329 96.3648 86.3209 96.391 86.5858 96.391C94.5667 96.3906 102.548 96.3906 110.529 96.391C110.804 96.391 110.994 96.3646 111.1 96.3118C111.361 96.1824 111.528 95.9168 111.537 95.6167C111.538 95.5872 111.539 95.5111 111.54 95.3883C111.552 94.3105 111.556 92.8655 111.551 91.0536C111.551 90.9644 111.527 90.8735 111.527 90.8013C111.54 86.359 111.539 82.7754 111.526 80.0507C111.525 79.9563 111.499 79.851 111.447 79.7349C111.415 79.6646 111.359 79.5871 111.278 79.5024C111.126 79.3436 111.003 79.2165 110.908 79.1214C110.281 78.4949 109.716 77.9282 109.211 77.4213C109.197 77.4077 109.19 77.391 109.19 77.3712C109.173 75.9639 109.167 74.585 109.171 73.2345C109.171 73.1258 109.178 72.9145 109.191 72.6006C109.192 72.5808 109.201 72.5754 109.219 72.5843C110.332 73.1592 111.326 73.8845 112.199 74.7604C112.924 75.4887 113.515 76.3164 113.971 77.2436C114.148 77.6029 114.289 77.9635 114.395 78.3255C114.521 78.7547 114.622 79.1649 114.697 79.556C114.73 79.7296 114.761 79.9497 114.787 80.2161C114.806 80.4014 114.815 80.6224 114.815 80.8792C114.816 85.2943 114.824 88.5333 114.838 90.5962C114.839 90.7225 114.834 90.9023 114.822 91.1357C114.821 91.1649 114.822 91.1942 114.825 91.2237C114.83 91.2614 114.832 91.2901 114.831 91.3099C114.822 91.5861 114.822 91.9454 114.831 92.3878C114.839 92.7537 114.836 93.6133 114.823 94.9665C114.82 95.3231 114.82 95.6917 114.825 96.0723C114.83 96.5955 114.832 96.9647 114.831 97.1799C114.829 97.486 114.831 97.713 114.837 97.861C114.849 98.1236 114.851 98.35 114.844 98.5403C114.832 98.8697 114.829 99.4119 114.836 100.167C114.84 100.567 114.78 100.952 114.656 101.321C114.534 101.685 114.348 102.019 114.1 102.324C113.584 102.955 112.896 103.347 112.034 103.501Z" fill="#D9D9D9"/>
</g>
<g filter="url(#filter9_dd_1351_12277)">
<path d="M80.0721 79.3959C80.1067 79.4146 80.1603 79.425 80.233 79.4274C80.2531 79.4278 80.2632 79.4382 80.2632 79.4588V82.6138C80.2632 82.6359 80.2522 82.6472 80.23 82.6475C79.6179 82.6549 79.2361 82.6553 79.0846 82.6487C78.8306 82.6374 78.65 82.5335 78.5428 82.337C78.4868 82.2345 78.4587 82.0812 78.4583 81.8773C78.4571 81.3021 78.4573 80.0943 78.4589 78.254C78.4589 78.2299 78.4676 78.226 78.4851 78.2423C78.9912 78.7076 79.5202 79.0922 80.0721 79.3959Z" fill="#D9D9D9"/>
</g>
<g filter="url(#filter10_dd_1351_12277)">
<path d="M117.045 79.3978C117.597 79.094 118.125 78.7097 118.63 78.2447C118.648 78.2284 118.656 78.2323 118.656 78.2564C118.659 80.0952 118.66 81.3018 118.659 81.8763C118.658 82.0802 118.63 82.2334 118.574 82.336C118.467 82.5321 118.287 82.6358 118.033 82.6471C117.882 82.6541 117.501 82.6539 116.889 82.6465C116.867 82.6461 116.856 82.6348 116.856 82.6127L116.854 79.4607C116.854 79.4401 116.864 79.4296 116.885 79.4292C116.957 79.4269 117.011 79.4164 117.045 79.3978Z" fill="#D9D9D9"/>
</g>
<g filter="url(#filter11_dd_1351_12277)">
<path d="M126 84.9578V101.579C125.696 102.655 124.976 103.296 123.841 103.501H116.025C116.592 102.841 116.872 102.074 116.864 101.2C116.861 100.836 116.866 99.7581 116.88 97.9667C116.88 97.9473 116.89 97.9376 116.909 97.9376C117.844 97.9352 119.775 97.9345 122.702 97.9352C122.911 97.9352 123.057 97.9174 123.141 97.8816C123.287 97.8195 123.397 97.708 123.471 97.5472C123.499 97.4851 123.513 97.3394 123.513 97.1102C123.51 91.2168 123.51 87.2258 123.512 85.1373C123.512 85.0192 123.474 84.9096 123.399 84.8087C123.388 84.7927 123.313 84.7156 123.176 84.5774C122.679 84.0775 122.181 83.5774 121.681 83.0771C121.67 83.0655 121.664 83.0503 121.664 83.0346V79.3087C121.664 79.3057 121.665 79.3029 121.666 79.3004C121.668 79.2978 121.67 79.2958 121.672 79.2943C121.675 79.2928 121.678 79.292 121.681 79.292C121.683 79.292 121.686 79.2927 121.689 79.2941C122.482 79.7132 123.2 80.2263 123.841 80.8334C124.723 81.6689 125.352 82.6393 125.729 83.7448C125.853 84.1083 125.943 84.5127 126 84.9578Z" fill="#D9D9D9"/>
</g>
<g filter="url(#filter12_dd_1351_12277)">
<path d="M81.0835 103.502H73.2815C72.5536 103.392 71.9782 103.062 71.5552 102.51C71.2285 102.085 71.0553 101.58 71.0355 100.997C71.0196 100.524 71.0172 99.5004 71.0285 97.9273C71.0304 97.6453 71.0304 97.2569 71.0285 96.7621C71.0246 95.5642 71.023 94.6258 71.0238 93.9468C71.0269 92.2459 71.0333 89.6727 71.043 86.227C71.0442 85.7271 71.0621 85.3397 71.0967 85.0647C71.273 83.6543 71.8348 82.4162 72.7822 81.3504C73.5311 80.5079 74.4135 79.8232 75.4296 79.2961C75.432 79.2949 75.4347 79.2943 75.4374 79.2944C75.44 79.2946 75.4426 79.2954 75.4449 79.2968C75.4472 79.2982 75.449 79.3001 75.4503 79.3024C75.4517 79.3048 75.4524 79.3074 75.4524 79.3101V83.0249C75.4524 83.0451 75.4452 83.0626 75.4308 83.0773C74.5064 84.0103 73.968 84.5518 73.8158 84.7017C73.6427 84.8718 73.6089 85.0087 73.6095 85.2657C73.613 91.0399 73.6089 95.0163 73.5973 97.195C73.5957 97.5177 73.7078 97.7384 73.9335 97.8568C74.0352 97.91 74.1937 97.9364 74.4089 97.9361C76.4729 97.9333 78.4049 97.9341 80.2049 97.9384C80.2148 97.9384 80.2242 97.9423 80.2312 97.9493C80.2382 97.9563 80.2422 97.9658 80.2422 97.9757C80.2422 98.2526 80.2453 99.2806 80.2515 101.06C80.253 101.494 80.282 101.829 80.3383 102.066C80.4331 102.463 80.6125 102.845 80.8766 103.211C80.9458 103.307 81.0147 103.404 81.0835 103.502Z" fill="#D9D9D9"/>
</g>
<g filter="url(#filter13_dd_1351_12277)">
<path d="M106.233 81.8335H90.8845C90.4907 81.8335 90.1714 82.1528 90.1714 82.5466V83.6711C90.1714 84.065 90.4907 84.3842 90.8845 84.3842H106.233C106.627 84.3842 106.946 84.065 106.946 83.6711V82.5466C106.946 82.1528 106.627 81.8335 106.233 81.8335Z" fill="#D9D9D9"/>
</g>
<g filter="url(#filter14_dd_1351_12277)">
<path d="M106.232 85.564H90.8844C90.4902 85.564 90.1707 85.8835 90.1707 86.2777V87.401C90.1707 87.7952 90.4902 88.1147 90.8844 88.1147H106.232C106.626 88.1147 106.946 87.7952 106.946 87.401V86.2777C106.946 85.8835 106.626 85.564 106.232 85.564Z" fill="#D9D9D9"/>
</g>
<g filter="url(#filter15_dd_1351_12277)">
<path d="M80.2542 88.5079C80.2542 88.5149 80.2514 88.5216 80.2465 88.5265C80.2416 88.5314 80.2349 88.5342 80.228 88.5342H77.7757C77.6209 88.5342 77.4724 88.4705 77.3629 88.357C77.2534 88.2436 77.1919 88.0898 77.1919 87.9294V87.1429C77.1919 86.9825 77.2534 86.8286 77.3629 86.7152C77.4724 86.6018 77.6209 86.5381 77.7757 86.5381H80.228C80.2349 86.5381 80.2416 86.5409 80.2465 86.5458C80.2514 86.5507 80.2542 86.5574 80.2542 86.5643V88.5079Z" fill="#D9D9D9"/>
</g>
<g filter="url(#filter16_dd_1351_12277)">
<path d="M116.861 86.5679C116.861 86.5606 116.864 86.5537 116.869 86.5485C116.874 86.5434 116.881 86.5405 116.889 86.5405H119.351C119.503 86.5405 119.648 86.603 119.755 86.7141C119.862 86.8252 119.922 86.9759 119.922 87.1331V87.9429C119.922 88.1001 119.862 88.2508 119.755 88.3619C119.648 88.473 119.503 88.5354 119.351 88.5354H116.889C116.881 88.5354 116.874 88.5326 116.869 88.5274C116.864 88.5223 116.861 88.5153 116.861 88.5081V86.5679Z" fill="#D9D9D9"/>
</g>
<g filter="url(#filter17_dd_1351_12277)">
<path d="M106.232 89.292H90.8844C90.4902 89.292 90.1707 89.6115 90.1707 90.0057V91.129C90.1707 91.5232 90.4902 91.8427 90.8844 91.8427H106.232C106.626 91.8427 106.946 91.5232 106.946 91.129V90.0057C106.946 89.6115 106.626 89.292 106.232 89.292Z" fill="#D9D9D9"/>
</g>
<g filter="url(#filter18_dd_1351_12277)">
<path d="M80.2509 91.4326C80.2509 91.4393 80.2482 91.4457 80.2435 91.4504C80.2388 91.4551 80.2325 91.4577 80.2258 91.4577L77.7735 91.453C77.6969 91.4529 77.621 91.4371 77.5502 91.4066C77.4794 91.376 77.4152 91.3314 77.3611 91.2751C77.307 91.2188 77.2641 91.1521 77.2349 91.0786C77.2057 91.0052 77.1908 90.9265 77.1909 90.8471L77.1921 90.0641C77.1924 89.9037 77.2542 89.75 77.3639 89.6368C77.4736 89.5236 77.6222 89.4601 77.777 89.4605L80.2293 89.4651C80.236 89.4651 80.2423 89.4678 80.247 89.4724C80.2517 89.4771 80.2544 89.4835 80.2544 89.4902L80.2509 91.4326Z" fill="#D9D9D9"/>
</g>
<g filter="url(#filter19_dd_1351_12277)">
<path d="M116.864 89.4885C116.864 89.4817 116.867 89.4752 116.872 89.4704C116.876 89.4656 116.883 89.4629 116.89 89.4629H119.346C119.499 89.4629 119.646 89.525 119.754 89.6354C119.862 89.7459 119.923 89.8957 119.923 90.0519V90.8664C119.923 91.0227 119.862 91.1725 119.754 91.283C119.646 91.3934 119.499 91.4555 119.346 91.4555H116.89C116.883 91.4555 116.876 91.4528 116.872 91.448C116.867 91.4432 116.864 91.4366 116.864 91.4298V89.4885Z" fill="#D9D9D9"/>
</g>
<g filter="url(#filter20_dd_1351_12277)">
<path d="M80.2484 94.357C80.2484 94.3618 80.2465 94.3664 80.2431 94.3698C80.2397 94.3732 80.2351 94.3751 80.2303 94.3751H77.7728C77.6187 94.3751 77.471 94.3107 77.362 94.1962C77.2531 94.0817 77.1919 93.9264 77.1919 93.7645V92.9861C77.1919 92.8241 77.2531 92.6688 77.362 92.5543C77.471 92.4398 77.6187 92.3755 77.7728 92.3755H80.2303C80.2327 92.3755 80.235 92.376 80.2372 92.3769C80.2394 92.3778 80.2414 92.3791 80.2431 92.3808C80.2447 92.3825 80.2461 92.3844 80.247 92.3866C80.2479 92.3888 80.2484 92.3912 80.2484 92.3935V94.357Z" fill="#D9D9D9"/>
</g>
<g filter="url(#filter21_dd_1351_12277)">
<path d="M116.868 92.3935C116.868 92.3912 116.868 92.3888 116.869 92.3866C116.87 92.3844 116.871 92.3825 116.873 92.3808C116.875 92.3791 116.877 92.3778 116.879 92.3769C116.881 92.376 116.883 92.3755 116.886 92.3755H119.342C119.418 92.3755 119.494 92.3911 119.565 92.4215C119.635 92.4519 119.7 92.4965 119.754 92.5526C119.808 92.6088 119.851 92.6754 119.88 92.7488C119.909 92.8222 119.924 92.9008 119.924 92.9803V93.7703C119.924 93.9307 119.863 94.0845 119.754 94.1979C119.644 94.3113 119.496 94.3751 119.342 94.3751H116.886C116.881 94.3751 116.876 94.3732 116.873 94.3698C116.87 94.3664 116.868 94.3618 116.868 94.357V92.3935Z" fill="#D9D9D9"/>
</g>
</g>
<defs>
<filter id="filter0_d_1351_12277" x="58.4999" y="46.0005" width="80" height="80" filterUnits="userSpaceOnUse" color-interpolation-filters="sRGB">
<feFlood flood-opacity="0" result="BackgroundImageFix"/>
<feColorMatrix in="SourceAlpha" type="matrix" values="0 0 0 0 0 0 0 0 0 0 0 0 0 0 0 0 0 0 127 0" result="hardAlpha"/>
<feOffset dy="10"/>
<feGaussianBlur stdDeviation="5"/>
<feComposite in2="hardAlpha" operator="out"/>
<feColorMatrix type="matrix" values="0 0 0 0 0 0 0 0 0 0 0 0 0 0 0 0 0 0 0.25 0"/>
<feBlend mode="normal" in2="BackgroundImageFix" result="effect1_dropShadow_1351_12277"/>
<feBlend mode="normal" in="SourceGraphic" in2="effect1_dropShadow_1351_12277" result="shape"/>
</filter>
<filter id="filter1_dd_1351_12277" x="86.2065" y="48.501" width="25.9534" height="17.3887" filterUnits="userSpaceOnUse" color-interpolation-filters="sRGB">
<feFlood flood-opacity="0" result="BackgroundImageFix"/>
<feColorMatrix in="SourceAlpha" type="matrix" values="0 0 0 0 0 0 0 0 0 0 0 0 0 0 0 0 0 0 127 0" result="hardAlpha"/>
<feOffset dx="1.25" dy="1.25"/>
<feComposite in2="hardAlpha" operator="out"/>
<feColorMatrix type="matrix" values="0 0 0 0 1 0 0 0 0 0 0 0 0 0 0 0 0 0 0.5 0"/>
<feBlend mode="normal" in2="BackgroundImageFix" result="effect1_dropShadow_1351_12277"/>
<feColorMatrix in="SourceAlpha" type="matrix" values="0 0 0 0 0 0 0 0 0 0 0 0 0 0 0 0 0 0 127 0" result="hardAlpha"/>
<feOffset dx="0.75" dy="0.75"/>
<feComposite in2="hardAlpha" operator="out"/>
<feColorMatrix type="matrix" values="0 0 0 0 0.15 0 0 0 0 0 0 0 0 0 1 0 0 0 0.5 0"/>
<feBlend mode="normal" in2="effect1_dropShadow_1351_12277" result="effect2_dropShadow_1351_12277"/>
<feBlend mode="normal" in="SourceGraphic" in2="effect2_dropShadow_1351_12277" result="shape"/>
</filter>
<filter id="filter2_dd_1351_12277" x="89.8103" y="59.6289" width="18.7456" height="12.6113" filterUnits="userSpaceOnUse" color-interpolation-filters="sRGB">
<feFlood flood-opacity="0" result="BackgroundImageFix"/>
<feColorMatrix in="SourceAlpha" type="matrix" values="0 0 0 0 0 0 0 0 0 0 0 0 0 0 0 0 0 0 127 0" result="hardAlpha"/>
<feOffset dx="1.25" dy="1.25"/>
<feComposite in2="hardAlpha" operator="out"/>
<feColorMatrix type="matrix" values="0 0 0 0 1 0 0 0 0 0 0 0 0 0 0 0 0 0 0.5 0"/>
<feBlend mode="normal" in2="BackgroundImageFix" result="effect1_dropShadow_1351_12277"/>
<feColorMatrix in="SourceAlpha" type="matrix" values="0 0 0 0 0 0 0 0 0 0 0 0 0 0 0 0 0 0 127 0" result="hardAlpha"/>
<feOffset dx="0.75" dy="0.75"/>
<feComposite in2="hardAlpha" operator="out"/>
<feColorMatrix type="matrix" values="0 0 0 0 0.15 0 0 0 0 0 0 0 0 0 1 0 0 0 0.5 0"/>
<feBlend mode="normal" in2="effect1_dropShadow_1351_12277" result="effect2_dropShadow_1351_12277"/>
<feBlend mode="normal" in="SourceGraphic" in2="effect2_dropShadow_1351_12277" result="shape"/>
</filter>
<filter id="filter3_dd_1351_12277" x="74.0938" y="60.4468" width="13.3634" height="13.8872" filterUnits="userSpaceOnUse" color-interpolation-filters="sRGB">
<feFlood flood-opacity="0" result="BackgroundImageFix"/>
<feColorMatrix in="SourceAlpha" type="matrix" values="0 0 0 0 0 0 0 0 0 0 0 0 0 0 0 0 0 0 127 0" result="hardAlpha"/>
<feOffset dx="1.25" dy="1.25"/>
<feComposite in2="hardAlpha" operator="out"/>
<feColorMatrix type="matrix" values="0 0 0 0 1 0 0 0 0 0 0 0 0 0 0 0 0 0 0.5 0"/>
<feBlend mode="normal" in2="BackgroundImageFix" result="effect1_dropShadow_1351_12277"/>
<feColorMatrix in="SourceAlpha" type="matrix" values="0 0 0 0 0 0 0 0 0 0 0 0 0 0 0 0 0 0 127 0" result="hardAlpha"/>
<feOffset dx="0.75" dy="0.75"/>
<feComposite in2="hardAlpha" operator="out"/>
<feColorMatrix type="matrix" values="0 0 0 0 0.15 0 0 0 0 0 0 0 0 0 1 0 0 0 0.5 0"/>
<feBlend mode="normal" in2="effect1_dropShadow_1351_12277" result="effect2_dropShadow_1351_12277"/>
<feBlend mode="normal" in="SourceGraphic" in2="effect2_dropShadow_1351_12277" result="shape"/>
</filter>
<filter id="filter4_dd_1351_12277" x="110.911" y="60.4468" width="13.3617" height="13.8862" filterUnits="userSpaceOnUse" color-interpolation-filters="sRGB">
<feFlood flood-opacity="0" result="BackgroundImageFix"/>
<feColorMatrix in="SourceAlpha" type="matrix" values="0 0 0 0 0 0 0 0 0 0 0 0 0 0 0 0 0 0 127 0" result="hardAlpha"/>
<feOffset dx="1.25" dy="1.25"/>
<feComposite in2="hardAlpha" operator="out"/>
<feColorMatrix type="matrix" values="0 0 0 0 1 0 0 0 0 0 0 0 0 0 0 0 0 0 0.5 0"/>
<feBlend mode="normal" in2="BackgroundImageFix" result="effect1_dropShadow_1351_12277"/>
<feColorMatrix in="SourceAlpha" type="matrix" values="0 0 0 0 0 0 0 0 0 0 0 0 0 0 0 0 0 0 127 0" result="hardAlpha"/>
<feOffset dx="0.75" dy="0.75"/>
<feComposite in2="hardAlpha" operator="out"/>
<feColorMatrix type="matrix" values="0 0 0 0 0.15 0 0 0 0 0 0 0 0 0 1 0 0 0 0.5 0"/>
<feBlend mode="normal" in2="effect1_dropShadow_1351_12277" result="effect2_dropShadow_1351_12277"/>
<feBlend mode="normal" in="SourceGraphic" in2="effect2_dropShadow_1351_12277" result="shape"/>
</filter>
<filter id="filter5_dd_1351_12277" x="76.9252" y="69.1577" width="10.5312" height="9.6875" filterUnits="userSpaceOnUse" color-interpolation-filters="sRGB">
<feFlood flood-opacity="0" result="BackgroundImageFix"/>
<feColorMatrix in="SourceAlpha" type="matrix" values="0 0 0 0 0 0 0 0 0 0 0 0 0 0 0 0 0 0 127 0" result="hardAlpha"/>
<feOffset dx="1.25" dy="1.25"/>
<feComposite in2="hardAlpha" operator="out"/>
<feColorMatrix type="matrix" values="0 0 0 0 1 0 0 0 0 0 0 0 0 0 0 0 0 0 0.5 0"/>
<feBlend mode="normal" in2="BackgroundImageFix" result="effect1_dropShadow_1351_12277"/>
<feColorMatrix in="SourceAlpha" type="matrix" values="0 0 0 0 0 0 0 0 0 0 0 0 0 0 0 0 0 0 127 0" result="hardAlpha"/>
<feOffset dx="0.75" dy="0.75"/>
<feComposite in2="hardAlpha" operator="out"/>
<feColorMatrix type="matrix" values="0 0 0 0 0.15 0 0 0 0 0 0 0 0 0 1 0 0 0 0.5 0"/>
<feBlend mode="normal" in2="effect1_dropShadow_1351_12277" result="effect2_dropShadow_1351_12277"/>
<feBlend mode="normal" in="SourceGraphic" in2="effect2_dropShadow_1351_12277" result="shape"/>
</filter>
<filter id="filter6_dd_1351_12277" x="110.91" y="69.1577" width="10.5306" height="9.6875" filterUnits="userSpaceOnUse" color-interpolation-filters="sRGB">
<feFlood flood-opacity="0" result="BackgroundImageFix"/>
<feColorMatrix in="SourceAlpha" type="matrix" values="0 0 0 0 0 0 0 0 0 0 0 0 0 0 0 0 0 0 127 0" result="hardAlpha"/>
<feOffset dx="1.25" dy="1.25"/>
<feComposite in2="hardAlpha" operator="out"/>
<feColorMatrix type="matrix" values="0 0 0 0 1 0 0 0 0 0 0 0 0 0 0 0 0 0 0.5 0"/>
<feBlend mode="normal" in2="BackgroundImageFix" result="effect1_dropShadow_1351_12277"/>
<feColorMatrix in="SourceAlpha" type="matrix" values="0 0 0 0 0 0 0 0 0 0 0 0 0 0 0 0 0 0 127 0" result="hardAlpha"/>
<feOffset dx="0.75" dy="0.75"/>
<feComposite in2="hardAlpha" operator="out"/>
<feColorMatrix type="matrix" values="0 0 0 0 0.15 0 0 0 0 0 0 0 0 0 1 0 0 0 0.5 0"/>
<feBlend mode="normal" in2="effect1_dropShadow_1351_12277" result="effect2_dropShadow_1351_12277"/>
<feBlend mode="normal" in="SourceGraphic" in2="effect2_dropShadow_1351_12277" result="shape"/>
</filter>
<filter id="filter7_dd_1351_12277" x="91.783" y="71.2134" width="14.8004" height="6.90576" filterUnits="userSpaceOnUse" color-interpolation-filters="sRGB">
<feFlood flood-opacity="0" result="BackgroundImageFix"/>
<feColorMatrix in="SourceAlpha" type="matrix" values="0 0 0 0 0 0 0 0 0 0 0 0 0 0 0 0 0 0 127 0" result="hardAlpha"/>
<feOffset dx="1.25" dy="1.25"/>
<feComposite in2="hardAlpha" operator="out"/>
<feColorMatrix type="matrix" values="0 0 0 0 1 0 0 0 0 0 0 0 0 0 0 0 0 0 0.5 0"/>
<feBlend mode="normal" in2="BackgroundImageFix" result="effect1_dropShadow_1351_12277"/>
<feColorMatrix in="SourceAlpha" type="matrix" values="0 0 0 0 0 0 0 0 0 0 0 0 0 0 0 0 0 0 127 0" result="hardAlpha"/>
<feOffset dx="0.75" dy="0.75"/>
<feComposite in2="hardAlpha" operator="out"/>
<feColorMatrix type="matrix" values="0 0 0 0 0.15 0 0 0 0 0 0 0 0 0 1 0 0 0 0.5 0"/>
<feBlend mode="normal" in2="effect1_dropShadow_1351_12277" result="effect2_dropShadow_1351_12277"/>
<feBlend mode="normal" in="SourceGraphic" in2="effect2_dropShadow_1351_12277" result="shape"/>
</filter>
<filter id="filter8_dd_1351_12277" x="82.271" y="72.5781" width="33.8269" height="32.1733" filterUnits="userSpaceOnUse" color-interpolation-filters="sRGB">
<feFlood flood-opacity="0" result="BackgroundImageFix"/>
<feColorMatrix in="SourceAlpha" type="matrix" values="0 0 0 0 0 0 0 0 0 0 0 0 0 0 0 0 0 0 127 0" result="hardAlpha"/>
<feOffset dx="1.25" dy="1.25"/>
<feComposite in2="hardAlpha" operator="out"/>
<feColorMatrix type="matrix" values="0 0 0 0 1 0 0 0 0 0 0 0 0 0 0 0 0 0 0.5 0"/>
<feBlend mode="normal" in2="BackgroundImageFix" result="effect1_dropShadow_1351_12277"/>
<feColorMatrix in="SourceAlpha" type="matrix" values="0 0 0 0 0 0 0 0 0 0 0 0 0 0 0 0 0 0 127 0" result="hardAlpha"/>
<feOffset dx="0.75" dy="0.75"/>
<feComposite in2="hardAlpha" operator="out"/>
<feColorMatrix type="matrix" values="0 0 0 0 0.15 0 0 0 0 0 0 0 0 0 1 0 0 0 0.5 0"/>
<feBlend mode="normal" in2="effect1_dropShadow_1351_12277" result="effect2_dropShadow_1351_12277"/>
<feBlend mode="normal" in="SourceGraphic" in2="effect2_dropShadow_1351_12277" result="shape"/>
</filter>
<filter id="filter9_dd_1351_12277" x="78.4575" y="78.2324" width="3.05579" height="5.6709" filterUnits="userSpaceOnUse" color-interpolation-filters="sRGB">
<feFlood flood-opacity="0" result="BackgroundImageFix"/>
<feColorMatrix in="SourceAlpha" type="matrix" values="0 0 0 0 0 0 0 0 0 0 0 0 0 0 0 0 0 0 127 0" result="hardAlpha"/>
<feOffset dx="1.25" dy="1.25"/>
<feComposite in2="hardAlpha" operator="out"/>
<feColorMatrix type="matrix" values="0 0 0 0 1 0 0 0 0 0 0 0 0 0 0 0 0 0 0.5 0"/>
<feBlend mode="normal" in2="BackgroundImageFix" result="effect1_dropShadow_1351_12277"/>
<feColorMatrix in="SourceAlpha" type="matrix" values="0 0 0 0 0 0 0 0 0 0 0 0 0 0 0 0 0 0 127 0" result="hardAlpha"/>
<feOffset dx="0.75" dy="0.75"/>
<feComposite in2="hardAlpha" operator="out"/>
<feColorMatrix type="matrix" values="0 0 0 0 0.15 0 0 0 0 0 0 0 0 0 1 0 0 0 0.5 0"/>
<feBlend mode="normal" in2="effect1_dropShadow_1351_12277" result="effect2_dropShadow_1351_12277"/>
<feBlend mode="normal" in="SourceGraphic" in2="effect2_dropShadow_1351_12277" result="shape"/>
</filter>
<filter id="filter10_dd_1351_12277" x="116.854" y="78.2349" width="3.05469" height="5.66748" filterUnits="userSpaceOnUse" color-interpolation-filters="sRGB">
<feFlood flood-opacity="0" result="BackgroundImageFix"/>
<feColorMatrix in="SourceAlpha" type="matrix" values="0 0 0 0 0 0 0 0 0 0 0 0 0 0 0 0 0 0 127 0" result="hardAlpha"/>
<feOffset dx="1.25" dy="1.25"/>
<feComposite in2="hardAlpha" operator="out"/>
<feColorMatrix type="matrix" values="0 0 0 0 1 0 0 0 0 0 0 0 0 0 0 0 0 0 0.5 0"/>
<feBlend mode="normal" in2="BackgroundImageFix" result="effect1_dropShadow_1351_12277"/>
<feColorMatrix in="SourceAlpha" type="matrix" values="0 0 0 0 0 0 0 0 0 0 0 0 0 0 0 0 0 0 127 0" result="hardAlpha"/>
<feOffset dx="0.75" dy="0.75"/>
<feComposite in2="hardAlpha" operator="out"/>
<feColorMatrix type="matrix" values="0 0 0 0 0.15 0 0 0 0 0 0 0 0 0 1 0 0 0 0.5 0"/>
<feBlend mode="normal" in2="effect1_dropShadow_1351_12277" result="effect2_dropShadow_1351_12277"/>
<feBlend mode="normal" in="SourceGraphic" in2="effect2_dropShadow_1351_12277" result="shape"/>
</filter>
<filter id="filter11_dd_1351_12277" x="116.025" y="79.292" width="11.2246" height="25.459" filterUnits="userSpaceOnUse" color-interpolation-filters="sRGB">
<feFlood flood-opacity="0" result="BackgroundImageFix"/>
<feColorMatrix in="SourceAlpha" type="matrix" values="0 0 0 0 0 0 0 0 0 0 0 0 0 0 0 0 0 0 127 0" result="hardAlpha"/>
<feOffset dx="1.25" dy="1.25"/>
<feComposite in2="hardAlpha" operator="out"/>
<feColorMatrix type="matrix" values="0 0 0 0 1 0 0 0 0 0 0 0 0 0 0 0 0 0 0.5 0"/>
<feBlend mode="normal" in2="BackgroundImageFix" result="effect1_dropShadow_1351_12277"/>
<feColorMatrix in="SourceAlpha" type="matrix" values="0 0 0 0 0 0 0 0 0 0 0 0 0 0 0 0 0 0 127 0" result="hardAlpha"/>
<feOffset dx="0.75" dy="0.75"/>
<feComposite in2="hardAlpha" operator="out"/>
<feColorMatrix type="matrix" values="0 0 0 0 0.15 0 0 0 0 0 0 0 0 0 1 0 0 0 0.5 0"/>
<feBlend mode="normal" in2="effect1_dropShadow_1351_12277" result="effect2_dropShadow_1351_12277"/>
<feBlend mode="normal" in="SourceGraphic" in2="effect2_dropShadow_1351_12277" result="shape"/>
</filter>
<filter id="filter12_dd_1351_12277" x="71.0215" y="79.2944" width="11.312" height="25.4575" filterUnits="userSpaceOnUse" color-interpolation-filters="sRGB">
<feFlood flood-opacity="0" result="BackgroundImageFix"/>
<feColorMatrix in="SourceAlpha" type="matrix" values="0 0 0 0 0 0 0 0 0 0 0 0 0 0 0 0 0 0 127 0" result="hardAlpha"/>
<feOffset dx="1.25" dy="1.25"/>
<feComposite in2="hardAlpha" operator="out"/>
<feColorMatrix type="matrix" values="0 0 0 0 1 0 0 0 0 0 0 0 0 0 0 0 0 0 0.5 0"/>
<feBlend mode="normal" in2="BackgroundImageFix" result="effect1_dropShadow_1351_12277"/>
<feColorMatrix in="SourceAlpha" type="matrix" values="0 0 0 0 0 0 0 0 0 0 0 0 0 0 0 0 0 0 127 0" result="hardAlpha"/>
<feOffset dx="0.75" dy="0.75"/>
<feComposite in2="hardAlpha" operator="out"/>
<feColorMatrix type="matrix" values="0 0 0 0 0.15 0 0 0 0 0 0 0 0 0 1 0 0 0 0.5 0"/>
<feBlend mode="normal" in2="effect1_dropShadow_1351_12277" result="effect2_dropShadow_1351_12277"/>
<feBlend mode="normal" in="SourceGraphic" in2="effect2_dropShadow_1351_12277" result="shape"/>
</filter>
<filter id="filter13_dd_1351_12277" x="90.1714" y="81.8335" width="18.025" height="3.80078" filterUnits="userSpaceOnUse" color-interpolation-filters="sRGB">
<feFlood flood-opacity="0" result="BackgroundImageFix"/>
<feColorMatrix in="SourceAlpha" type="matrix" values="0 0 0 0 0 0 0 0 0 0 0 0 0 0 0 0 0 0 127 0" result="hardAlpha"/>
<feOffset dx="1.25" dy="1.25"/>
<feComposite in2="hardAlpha" operator="out"/>
<feColorMatrix type="matrix" values="0 0 0 0 1 0 0 0 0 0 0 0 0 0 0 0 0 0 0.5 0"/>
<feBlend mode="normal" in2="BackgroundImageFix" result="effect1_dropShadow_1351_12277"/>
<feColorMatrix in="SourceAlpha" type="matrix" values="0 0 0 0 0 0 0 0 0 0 0 0 0 0 0 0 0 0 127 0" result="hardAlpha"/>
<feOffset dx="0.75" dy="0.75"/>
<feComposite in2="hardAlpha" operator="out"/>
<feColorMatrix type="matrix" values="0 0 0 0 0.15 0 0 0 0 0 0 0 0 0 1 0 0 0 0.5 0"/>
<feBlend mode="normal" in2="effect1_dropShadow_1351_12277" result="effect2_dropShadow_1351_12277"/>
<feBlend mode="normal" in="SourceGraphic" in2="effect2_dropShadow_1351_12277" result="shape"/>
</filter>
<filter id="filter14_dd_1351_12277" x="90.1707" y="85.564" width="18.025" height="3.80078" filterUnits="userSpaceOnUse" color-interpolation-filters="sRGB">
<feFlood flood-opacity="0" result="BackgroundImageFix"/>
<feColorMatrix in="SourceAlpha" type="matrix" values="0 0 0 0 0 0 0 0 0 0 0 0 0 0 0 0 0 0 127 0" result="hardAlpha"/>
<feOffset dx="1.25" dy="1.25"/>
<feComposite in2="hardAlpha" operator="out"/>
<feColorMatrix type="matrix" values="0 0 0 0 1 0 0 0 0 0 0 0 0 0 0 0 0 0 0.5 0"/>
<feBlend mode="normal" in2="BackgroundImageFix" result="effect1_dropShadow_1351_12277"/>
<feColorMatrix in="SourceAlpha" type="matrix" values="0 0 0 0 0 0 0 0 0 0 0 0 0 0 0 0 0 0 127 0" result="hardAlpha"/>
<feOffset dx="0.75" dy="0.75"/>
<feComposite in2="hardAlpha" operator="out"/>
<feColorMatrix type="matrix" values="0 0 0 0 0.15 0 0 0 0 0 0 0 0 0 1 0 0 0 0.5 0"/>
<feBlend mode="normal" in2="effect1_dropShadow_1351_12277" result="effect2_dropShadow_1351_12277"/>
<feBlend mode="normal" in="SourceGraphic" in2="effect2_dropShadow_1351_12277" result="shape"/>
</filter>
<filter id="filter15_dd_1351_12277" x="77.1919" y="86.5381" width="4.31226" height="3.24609" filterUnits="userSpaceOnUse" color-interpolation-filters="sRGB">
<feFlood flood-opacity="0" result="BackgroundImageFix"/>
<feColorMatrix in="SourceAlpha" type="matrix" values="0 0 0 0 0 0 0 0 0 0 0 0 0 0 0 0 0 0 127 0" result="hardAlpha"/>
<feOffset dx="1.25" dy="1.25"/>
<feComposite in2="hardAlpha" operator="out"/>
<feColorMatrix type="matrix" values="0 0 0 0 1 0 0 0 0 0 0 0 0 0 0 0 0 0 0.5 0"/>
<feBlend mode="normal" in2="BackgroundImageFix" result="effect1_dropShadow_1351_12277"/>
<feColorMatrix in="SourceAlpha" type="matrix" values="0 0 0 0 0 0 0 0 0 0 0 0 0 0 0 0 0 0 127 0" result="hardAlpha"/>
<feOffset dx="0.75" dy="0.75"/>
<feComposite in2="hardAlpha" operator="out"/>
<feColorMatrix type="matrix" values="0 0 0 0 0.15 0 0 0 0 0 0 0 0 0 1 0 0 0 0.5 0"/>
<feBlend mode="normal" in2="effect1_dropShadow_1351_12277" result="effect2_dropShadow_1351_12277"/>
<feBlend mode="normal" in="SourceGraphic" in2="effect2_dropShadow_1351_12277" result="shape"/>
</filter>
<filter id="filter16_dd_1351_12277" x="116.861" y="86.5405" width="4.31116" height="3.24512" filterUnits="userSpaceOnUse" color-interpolation-filters="sRGB">
<feFlood flood-opacity="0" result="BackgroundImageFix"/>
<feColorMatrix in="SourceAlpha" type="matrix" values="0 0 0 0 0 0 0 0 0 0 0 0 0 0 0 0 0 0 127 0" result="hardAlpha"/>
<feOffset dx="1.25" dy="1.25"/>
<feComposite in2="hardAlpha" operator="out"/>
<feColorMatrix type="matrix" values="0 0 0 0 1 0 0 0 0 0 0 0 0 0 0 0 0 0 0.5 0"/>
<feBlend mode="normal" in2="BackgroundImageFix" result="effect1_dropShadow_1351_12277"/>
<feColorMatrix in="SourceAlpha" type="matrix" values="0 0 0 0 0 0 0 0 0 0 0 0 0 0 0 0 0 0 127 0" result="hardAlpha"/>
<feOffset dx="0.75" dy="0.75"/>
<feComposite in2="hardAlpha" operator="out"/>
<feColorMatrix type="matrix" values="0 0 0 0 0.15 0 0 0 0 0 0 0 0 0 1 0 0 0 0.5 0"/>
<feBlend mode="normal" in2="effect1_dropShadow_1351_12277" result="effect2_dropShadow_1351_12277"/>
<feBlend mode="normal" in="SourceGraphic" in2="effect2_dropShadow_1351_12277" result="shape"/>
</filter>
<filter id="filter17_dd_1351_12277" x="90.1707" y="89.292" width="18.025" height="3.80078" filterUnits="userSpaceOnUse" color-interpolation-filters="sRGB">
<feFlood flood-opacity="0" result="BackgroundImageFix"/>
<feColorMatrix in="SourceAlpha" type="matrix" values="0 0 0 0 0 0 0 0 0 0 0 0 0 0 0 0 0 0 127 0" result="hardAlpha"/>
<feOffset dx="1.25" dy="1.25"/>
<feComposite in2="hardAlpha" operator="out"/>
<feColorMatrix type="matrix" values="0 0 0 0 1 0 0 0 0 0 0 0 0 0 0 0 0 0 0.5 0"/>
<feBlend mode="normal" in2="BackgroundImageFix" result="effect1_dropShadow_1351_12277"/>
<feColorMatrix in="SourceAlpha" type="matrix" values="0 0 0 0 0 0 0 0 0 0 0 0 0 0 0 0 0 0 127 0" result="hardAlpha"/>
<feOffset dx="0.75" dy="0.75"/>
<feComposite in2="hardAlpha" operator="out"/>
<feColorMatrix type="matrix" values="0 0 0 0 0.15 0 0 0 0 0 0 0 0 0 1 0 0 0 0.5 0"/>
<feBlend mode="normal" in2="effect1_dropShadow_1351_12277" result="effect2_dropShadow_1351_12277"/>
<feBlend mode="normal" in="SourceGraphic" in2="effect2_dropShadow_1351_12277" result="shape"/>
</filter>
<filter id="filter18_dd_1351_12277" x="77.1909" y="89.4604" width="4.31348" height="3.24707" filterUnits="userSpaceOnUse" color-interpolation-filters="sRGB">
<feFlood flood-opacity="0" result="BackgroundImageFix"/>
<feColorMatrix in="SourceAlpha" type="matrix" values="0 0 0 0 0 0 0 0 0 0 0 0 0 0 0 0 0 0 127 0" result="hardAlpha"/>
<feOffset dx="1.25" dy="1.25"/>
<feComposite in2="hardAlpha" operator="out"/>
<feColorMatrix type="matrix" values="0 0 0 0 1 0 0 0 0 0 0 0 0 0 0 0 0 0 0.5 0"/>
<feBlend mode="normal" in2="BackgroundImageFix" result="effect1_dropShadow_1351_12277"/>
<feColorMatrix in="SourceAlpha" type="matrix" values="0 0 0 0 0 0 0 0 0 0 0 0 0 0 0 0 0 0 127 0" result="hardAlpha"/>
<feOffset dx="0.75" dy="0.75"/>
<feComposite in2="hardAlpha" operator="out"/>
<feColorMatrix type="matrix" values="0 0 0 0 0.15 0 0 0 0 0 0 0 0 0 1 0 0 0 0.5 0"/>
<feBlend mode="normal" in2="effect1_dropShadow_1351_12277" result="effect2_dropShadow_1351_12277"/>
<feBlend mode="normal" in="SourceGraphic" in2="effect2_dropShadow_1351_12277" result="shape"/>
</filter>
<filter id="filter19_dd_1351_12277" x="116.864" y="89.4629" width="4.30884" height="3.24268" filterUnits="userSpaceOnUse" color-interpolation-filters="sRGB">
<feFlood flood-opacity="0" result="BackgroundImageFix"/>
<feColorMatrix in="SourceAlpha" type="matrix" values="0 0 0 0 0 0 0 0 0 0 0 0 0 0 0 0 0 0 127 0" result="hardAlpha"/>
<feOffset dx="1.25" dy="1.25"/>
<feComposite in2="hardAlpha" operator="out"/>
<feColorMatrix type="matrix" values="0 0 0 0 1 0 0 0 0 0 0 0 0 0 0 0 0 0 0.5 0"/>
<feBlend mode="normal" in2="BackgroundImageFix" result="effect1_dropShadow_1351_12277"/>
<feColorMatrix in="SourceAlpha" type="matrix" values="0 0 0 0 0 0 0 0 0 0 0 0 0 0 0 0 0 0 127 0" result="hardAlpha"/>
<feOffset dx="0.75" dy="0.75"/>
<feComposite in2="hardAlpha" operator="out"/>
<feColorMatrix type="matrix" values="0 0 0 0 0.15 0 0 0 0 0 0 0 0 0 1 0 0 0 0.5 0"/>
<feBlend mode="normal" in2="effect1_dropShadow_1351_12277" result="effect2_dropShadow_1351_12277"/>
<feBlend mode="normal" in="SourceGraphic" in2="effect2_dropShadow_1351_12277" result="shape"/>
</filter>
<filter id="filter20_dd_1351_12277" x="77.1919" y="92.3755" width="4.30652" height="3.24951" filterUnits="userSpaceOnUse" color-interpolation-filters="sRGB">
<feFlood flood-opacity="0" result="BackgroundImageFix"/>
<feColorMatrix in="SourceAlpha" type="matrix" values="0 0 0 0 0 0 0 0 0 0 0 0 0 0 0 0 0 0 127 0" result="hardAlpha"/>
<feOffset dx="1.25" dy="1.25"/>
<feComposite in2="hardAlpha" operator="out"/>
<feColorMatrix type="matrix" values="0 0 0 0 1 0 0 0 0 0 0 0 0 0 0 0 0 0 0.5 0"/>
<feBlend mode="normal" in2="BackgroundImageFix" result="effect1_dropShadow_1351_12277"/>
<feColorMatrix in="SourceAlpha" type="matrix" values="0 0 0 0 0 0 0 0 0 0 0 0 0 0 0 0 0 0 127 0" result="hardAlpha"/>
<feOffset dx="0.75" dy="0.75"/>
<feComposite in2="hardAlpha" operator="out"/>
<feColorMatrix type="matrix" values="0 0 0 0 0.15 0 0 0 0 0 0 0 0 0 1 0 0 0 0.5 0"/>
<feBlend mode="normal" in2="effect1_dropShadow_1351_12277" result="effect2_dropShadow_1351_12277"/>
<feBlend mode="normal" in="SourceGraphic" in2="effect2_dropShadow_1351_12277" result="shape"/>
</filter>
<filter id="filter21_dd_1351_12277" x="116.868" y="92.3755" width="4.30652" height="3.24951" filterUnits="userSpaceOnUse" color-interpolation-filters="sRGB">
<feFlood flood-opacity="0" result="BackgroundImageFix"/>
<feColorMatrix in="SourceAlpha" type="matrix" values="0 0 0 0 0 0 0 0 0 0 0 0 0 0 0 0 0 0 127 0" result="hardAlpha"/>
<feOffset dx="1.25" dy="1.25"/>
<feComposite in2="hardAlpha" operator="out"/>
<feColorMatrix type="matrix" values="0 0 0 0 1 0 0 0 0 0 0 0 0 0 0 0 0 0 0.5 0"/>
<feBlend mode="normal" in2="BackgroundImageFix" result="effect1_dropShadow_1351_12277"/>
<feColorMatrix in="SourceAlpha" type="matrix" values="0 0 0 0 0 0 0 0 0 0 0 0 0 0 0 0 0 0 127 0" result="hardAlpha"/>
<feOffset dx="0.75" dy="0.75"/>
<feComposite in2="hardAlpha" operator="out"/>
<feColorMatrix type="matrix" values="0 0 0 0 0.15 0 0 0 0 0 0 0 0 0 1 0 0 0 0.5 0"/>
<feBlend mode="normal" in2="effect1_dropShadow_1351_12277" result="effect2_dropShadow_1351_12277"/>
<feBlend mode="normal" in="SourceGraphic" in2="effect2_dropShadow_1351_12277" result="shape"/>
</filter>
</defs>
</svg>
