<svg width="196" height="196" viewBox="0 0 196 196" fill="none" xmlns="http://www.w3.org/2000/svg">
<g filter="url(#filter0_dd_1351_12270)">
<path d="M98.4942 48.501C101.436 48.5789 104.257 49.1241 106.957 50.1367C110.25 51.3712 113.202 53.2 115.813 55.623C115.829 55.6375 115.844 55.6371 115.859 55.6218L121.496 49.7406C121.51 49.7257 121.525 49.7255 121.539 49.74L123.485 51.7707C123.494 51.7807 123.5 51.7943 123.5 51.8086C123.5 51.8228 123.494 51.8366 123.485 51.8468L73.9867 103.489C73.9719 103.505 73.9572 103.505 73.9425 103.489L72.0098 101.473C71.9774 101.439 71.977 101.405 72.0087 101.372L77.8232 95.3061C77.8395 95.2892 77.84 95.2719 77.8249 95.2542C76.0582 93.1932 74.612 90.8883 73.4865 88.3393C71.9287 84.8117 71.0998 81.1003 70.9999 77.205V75.9436C71.0946 72.1786 71.8616 68.5992 73.3009 65.2054C74.7629 61.7574 76.9078 58.5934 79.5896 56.0079C82.6241 53.0827 86.0988 50.9907 90.0136 49.7318C92.3514 48.9801 94.7796 48.5698 97.2981 48.501H98.4942ZM81.0165 58.9499C80.9347 59.0353 80.8013 59.1872 80.6165 59.4056C79.0648 61.2387 77.7768 63.2101 76.7528 65.3199C75.1139 68.6948 74.1615 72.2699 73.8956 76.0451C73.8707 76.4001 73.8714 76.7607 73.8978 77.1271C74.0547 79.3093 74.4395 81.4206 75.052 83.4611C76.0093 86.6499 77.4675 89.5741 79.4267 92.2336C79.6073 92.4787 79.7954 92.7255 79.9908 92.9738C80.0058 92.9931 80.0222 92.9941 80.04 92.9768C80.0554 92.961 85.6539 87.1206 96.8353 75.4554C108.017 63.7902 113.615 57.9496 113.63 57.9334C113.647 57.9149 113.646 57.8978 113.627 57.8821C113.389 57.6782 113.153 57.482 112.918 57.2935C110.369 55.2495 107.566 53.7279 104.51 52.7287C102.554 52.0896 100.531 51.688 98.4393 51.5239C98.0881 51.4964 97.7424 51.4956 97.4022 51.5216C93.7838 51.7986 90.3572 52.7921 87.1225 54.502C85.1003 55.5701 83.2106 56.9136 81.4533 58.5326C81.2443 58.7254 81.0987 58.8645 81.0165 58.9499Z" fill="#D9D9D9"/>
</g>
<g filter="url(#filter1_dd_1351_12270)">
<path d="M126 76.2239V77.4254C125.891 81.4384 124.961 85.2029 123.207 88.7189C121.311 92.5214 118.646 95.7023 115.21 98.2617C114.911 98.4846 114.605 98.7006 114.294 98.9096C109.978 101.81 105.193 103.341 99.9394 103.501H98.7365C93.1087 103.327 88.0323 101.595 83.5074 98.3033C83.5052 98.3017 83.5034 98.2996 83.5021 98.2973C83.5008 98.2949 83.5001 98.2923 83.4999 98.2895C83.4998 98.2868 83.5002 98.2841 83.5012 98.2815C83.5022 98.2789 83.5037 98.2766 83.5057 98.2746L85.7068 96.0836C85.7123 96.0784 85.7195 96.0748 85.7277 96.0735C85.7359 96.0721 85.7448 96.0729 85.7534 96.0757C85.756 96.0765 85.7584 96.081 85.7607 96.0892C85.7629 96.0974 85.7674 96.1038 85.7741 96.1083C89.7465 98.7645 94.0964 100.273 98.824 100.632C99.1365 100.656 99.4637 100.656 99.8054 100.632C103.587 100.362 107.171 99.3236 110.557 97.5174C112.424 96.5215 114.178 95.2846 115.819 93.8067C116.004 93.6399 116.165 93.4795 116.304 93.3254C118.872 90.4616 120.74 87.2255 121.907 83.6171C122.568 81.5731 122.976 79.4641 123.132 77.2902C123.155 76.9742 123.153 76.6393 123.126 76.2856C122.769 71.5714 121.258 67.2229 118.592 63.2402C118.58 63.2223 118.582 63.2054 118.597 63.1897L120.78 61.0071C120.782 61.005 120.784 61.0033 120.787 61.0023C120.79 61.0012 120.793 61.0008 120.796 61.001C120.799 61.0012 120.802 61.0021 120.804 61.0035C120.807 61.005 120.809 61.007 120.811 61.0093C124.095 65.538 125.825 70.6096 126 76.2239Z" fill="#D9D9D9"/>
</g>
<defs>
<filter id="filter0_dd_1351_12270" x="70.9999" y="48.501" width="53.75" height="56.25" filterUnits="userSpaceOnUse" color-interpolation-filters="sRGB">
<feFlood flood-opacity="0" result="BackgroundImageFix"/>
<feColorMatrix in="SourceAlpha" type="matrix" values="0 0 0 0 0 0 0 0 0 0 0 0 0 0 0 0 0 0 127 0" result="hardAlpha"/>
<feOffset dx="1.25" dy="1.25"/>
<feComposite in2="hardAlpha" operator="out"/>
<feColorMatrix type="matrix" values="0 0 0 0 1 0 0 0 0 0 0 0 0 0 0 0 0 0 0.5 0"/>
<feBlend mode="normal" in2="BackgroundImageFix" result="effect1_dropShadow_1351_12270"/>
<feColorMatrix in="SourceAlpha" type="matrix" values="0 0 0 0 0 0 0 0 0 0 0 0 0 0 0 0 0 0 127 0" result="hardAlpha"/>
<feOffset dx="0.75" dy="0.75"/>
<feComposite in2="hardAlpha" operator="out"/>
<feColorMatrix type="matrix" values="0 0 0 0 0.15 0 0 0 0 0 0 0 0 0 1 0 0 0 0.5 0"/>
<feBlend mode="normal" in2="effect1_dropShadow_1351_12270" result="effect2_dropShadow_1351_12270"/>
<feBlend mode="normal" in="SourceGraphic" in2="effect2_dropShadow_1351_12270" result="shape"/>
</filter>
<filter id="filter1_dd_1351_12270" x="83.4999" y="61.001" width="43.75" height="43.75" filterUnits="userSpaceOnUse" color-interpolation-filters="sRGB">
<feFlood flood-opacity="0" result="BackgroundImageFix"/>
<feColorMatrix in="SourceAlpha" type="matrix" values="0 0 0 0 0 0 0 0 0 0 0 0 0 0 0 0 0 0 127 0" result="hardAlpha"/>
<feOffset dx="1.25" dy="1.25"/>
<feComposite in2="hardAlpha" operator="out"/>
<feColorMatrix type="matrix" values="0 0 0 0 1 0 0 0 0 0 0 0 0 0 0 0 0 0 0.5 0"/>
<feBlend mode="normal" in2="BackgroundImageFix" result="effect1_dropShadow_1351_12270"/>
<feColorMatrix in="SourceAlpha" type="matrix" values="0 0 0 0 0 0 0 0 0 0 0 0 0 0 0 0 0 0 127 0" result="hardAlpha"/>
<feOffset dx="0.75" dy="0.75"/>
<feComposite in2="hardAlpha" operator="out"/>
<feColorMatrix type="matrix" values="0 0 0 0 0.15 0 0 0 0 0 0 0 0 0 1 0 0 0 0.5 0"/>
<feBlend mode="normal" in2="effect1_dropShadow_1351_12270" result="effect2_dropShadow_1351_12270"/>
<feBlend mode="normal" in="SourceGraphic" in2="effect2_dropShadow_1351_12270" result="shape"/>
</filter>
</defs>
</svg>
