<svg width="196" height="196" viewBox="0 0 196 196" fill="none" xmlns="http://www.w3.org/2000/svg">
<g filter="url(#filter0_d_1351_12272)">
<g filter="url(#filter1_dd_1351_12272)">
<path d="M105.018 48.501L105.32 48.5202C105.342 48.5214 105.353 48.5332 105.353 48.5557V48.579C105.353 48.586 105.355 48.5926 105.36 48.5976C105.365 48.6026 105.372 48.6055 105.378 48.6058C105.615 48.6128 105.846 48.6344 106.073 48.6705C106.079 48.6717 106.117 48.6837 106.185 48.7066C106.216 48.7171 106.25 48.7202 106.287 48.716C106.306 48.7136 106.326 48.7142 106.346 48.7177L107.338 48.896C107.356 48.8991 107.372 48.9061 107.386 48.917C107.437 48.9543 107.476 48.9356 107.523 48.9479C107.855 49.0356 108.04 49.0854 108.078 49.097C108.093 49.1009 108.107 49.1013 108.121 49.0982C108.131 49.0962 108.138 49.0958 108.143 49.097C108.708 49.2489 109.095 49.3543 109.305 49.4134C109.447 49.4534 109.631 49.5132 109.858 49.5928C110.042 49.6577 110.226 49.7185 110.409 49.7752C110.873 49.9205 111.348 50.1127 111.833 50.352C111.906 50.3875 111.926 50.4411 111.943 50.5151C112.087 51.1475 112.127 51.7792 112.062 52.4104C112.051 52.5114 112.028 52.6367 111.991 52.7862C111.944 52.9734 111.919 53.0983 111.914 53.1608C111.896 53.4164 111.906 53.6632 111.946 53.9013C111.948 53.9161 111.955 53.9285 111.966 53.9386C111.974 53.9464 111.978 53.9553 111.978 53.9654C111.978 54.0897 112.003 54.2096 112.054 54.3249C112.143 54.5292 112.224 54.7042 112.297 54.8499C112.301 54.8596 112.306 54.8794 112.309 54.9093C112.313 54.9349 112.323 54.9575 112.34 54.9769C112.38 55.0219 112.425 55.0876 112.473 55.1738C112.533 55.281 112.656 55.4496 112.841 55.6795C112.99 55.864 113.128 56.0204 113.255 56.1485C114.084 56.9852 115.065 57.5818 116.197 57.9384C116.35 57.9865 116.544 58.0151 116.778 58.024C116.833 58.0263 116.861 58.0642 116.91 58.0648C117.194 58.066 117.336 58.0665 117.338 58.0665C117.394 58.0685 117.458 58.0564 117.529 58.0304C117.572 58.0145 117.639 58.0126 117.73 58.0246C117.75 58.0273 117.768 58.0229 117.784 58.0112C117.816 57.9887 117.861 57.9735 117.919 57.9658C117.968 57.9595 118.013 57.9471 118.054 57.9285C118.235 57.845 118.335 57.7966 118.356 57.7834C118.711 57.5581 119.1 57.4072 119.523 57.3307C119.568 57.3229 119.641 57.3049 119.741 57.2765C119.818 57.2548 119.886 57.2456 119.945 57.2491C119.99 57.2518 120.038 57.2483 120.089 57.2386C120.262 57.2072 120.445 57.2194 120.685 57.2212C120.705 57.2215 120.72 57.2293 120.732 57.2445C120.818 57.3555 120.881 57.4379 120.922 57.4915C120.953 57.5329 121.02 57.5754 121.051 57.6325C121.066 57.6601 121.082 57.6843 121.098 57.7053C121.299 57.9621 121.524 58.2742 121.775 58.6416C122.267 59.3637 122.69 60.0558 123.043 60.7181C123.077 60.781 123.113 60.8408 123.153 60.8975C123.192 60.9535 123.225 61.0139 123.253 61.0787C123.388 61.3887 123.522 61.6649 123.655 61.9072C123.665 61.9251 123.669 61.9441 123.668 61.9643C123.667 61.9993 123.68 62.0259 123.709 62.0441C123.726 62.0554 123.739 62.0704 123.748 62.089C123.95 62.5372 124.122 62.9944 124.265 63.4605C124.27 63.4785 124.269 63.4978 124.261 63.5147C123.95 64.155 123.369 64.7493 122.781 65.1041C122.347 65.3667 122.018 65.723 121.793 66.1732C121.756 66.249 121.729 66.3169 121.712 66.3771C121.694 66.442 121.667 66.5102 121.633 66.5816C121.603 66.6428 121.613 66.7022 121.595 66.7698C121.573 66.8561 121.508 66.8939 121.515 66.9906C121.517 67.0112 121.511 67.0295 121.499 67.0454C121.477 67.0718 121.47 67.1035 121.478 67.1404C121.482 67.1589 121.48 67.1782 121.472 67.1952C121.449 67.241 121.441 67.293 121.446 67.3513C121.448 67.3707 121.444 67.3888 121.434 67.4055C121.413 67.4428 121.402 67.4952 121.402 67.5628C121.403 67.6611 121.403 67.7133 121.402 67.7195C121.331 68.4167 121.357 69.1398 121.481 69.8886C121.504 70.0312 121.54 70.1766 121.589 70.325C121.639 70.4788 121.669 70.7008 121.721 70.8575C121.899 71.4009 122.158 71.8929 122.497 72.3333C122.794 72.7202 123.15 72.9905 123.597 73.1461C123.755 73.2009 124.017 73.2949 124.382 73.4281C124.438 73.4487 124.541 73.498 124.691 73.5761C124.811 73.639 124.908 73.6971 124.981 73.7503C125.264 73.9565 125.516 74.1772 125.735 74.4122C125.746 74.4232 125.762 74.4337 125.783 74.4424L125.804 74.4512C125.81 74.4535 125.814 74.4582 125.814 74.4652V75.081C125.813 75.0851 125.813 75.0891 125.811 75.0928C125.809 75.0964 125.806 75.0996 125.803 75.102C125.8 75.1045 125.796 75.1061 125.792 75.1068C125.788 75.1075 125.784 75.1072 125.78 75.1061L125.758 75.0991C125.742 75.0944 125.734 75.1012 125.732 75.1195C125.73 75.1331 125.722 75.2325 125.706 75.4178C125.697 75.5207 125.685 75.6174 125.669 75.7079C125.513 76.5784 125.264 77.5548 124.92 78.6374C124.897 78.7084 124.881 78.756 124.871 78.7801C124.844 78.8438 124.827 78.8904 124.821 78.9199C124.789 79.0551 124.761 79.152 124.737 79.2107C124.687 79.3325 124.642 79.4565 124.601 79.5818C124.56 79.7088 124.437 80.0619 124.233 80.641C124.217 80.6853 124.199 80.7224 124.179 80.7523C124.147 80.7981 124.127 80.8323 124.118 80.8548C124.089 80.931 124.024 81.1135 123.922 81.4025C123.917 81.4165 123.905 81.4256 123.886 81.4299L123.54 81.5132C123.511 81.5202 123.493 81.5227 123.488 81.5208C123.456 81.5111 123.433 81.5163 123.417 81.5365C123.404 81.5528 123.387 81.56 123.367 81.5581C123.298 81.5519 123.168 81.5569 122.978 81.5732C122.691 81.5973 122.346 81.5936 121.942 81.5622C121.813 81.5524 121.698 81.5321 121.598 81.501C121.509 81.4734 121.395 81.4452 121.258 81.4165C121.156 81.3951 121.046 81.3841 120.928 81.3833C120.751 81.3815 120.623 81.3687 120.487 81.3914C120.122 81.4513 119.815 81.5342 119.565 81.6402C119.189 81.8003 118.824 82.0139 118.471 82.2811C118.34 82.3806 118.206 82.499 118.07 82.6365C117.873 82.8358 117.747 82.963 117.694 83.0181C117.482 83.2388 117.25 83.5452 117 83.9375C116.991 83.9511 116.964 84.0092 116.917 84.1117C116.881 84.1916 116.807 84.2545 116.775 84.3285C116.761 84.3584 116.718 84.4438 116.644 84.5848C116.601 84.6672 116.565 84.7559 116.538 84.8511C116.496 84.9905 116.45 85.1286 116.401 85.2653C116.372 85.345 116.323 85.5642 116.253 85.9231C116.229 86.0482 116.22 86.1834 116.226 86.3286C116.23 86.4444 116.234 86.5801 116.236 86.7359C116.236 86.7922 116.27 86.9775 116.337 87.2917C116.359 87.3974 116.393 87.4991 116.439 87.597C116.503 87.7326 116.549 87.8302 116.578 87.8901C116.591 87.9165 116.625 87.9689 116.68 88.0474C116.71 88.0893 116.741 88.1447 116.773 88.2134C116.992 88.6768 117.131 89.0188 117.19 89.2394C117.244 89.4406 117.272 89.7384 117.272 90.1326C117.272 90.152 117.266 90.1693 117.254 90.1845C117.16 90.3064 117.055 90.4144 116.94 90.5084C116.522 90.8494 116.206 91.0873 115.993 91.2221C115.681 91.4202 115.452 91.5711 115.306 91.6748C115.176 91.768 115.022 91.8618 114.846 91.9562C114.747 92.009 114.592 92.1005 114.381 92.2306C114.147 92.3747 113.87 92.5192 113.549 92.6641C113.535 92.6703 113.491 92.6965 113.416 92.7428C113.368 92.7727 113.322 92.7987 113.279 92.8208C113.095 92.9168 112.923 92.9917 112.766 93.0457C112.702 93.0679 112.648 93.0972 112.603 93.1337C112.567 93.1632 112.529 93.1811 112.487 93.1873C112.461 93.1916 112.422 93.2073 112.371 93.2345C112.048 93.4054 111.692 93.5483 111.304 93.6633C111.294 93.6664 111.283 93.6746 111.269 93.6878C111.259 93.6989 111.246 93.7073 111.232 93.7123C111.129 93.7499 111.02 93.7876 110.906 93.8253C110.864 93.8393 110.827 93.8451 110.795 93.8428C110.763 93.84 110.736 93.84 110.714 93.8428C110.693 93.8455 110.676 93.8383 110.663 93.8212C110.639 93.7878 110.555 93.7196 110.412 93.6167C110.29 93.5293 110.202 93.4596 110.147 93.4075C109.812 93.0867 109.535 92.7585 109.318 92.4229C109.176 92.2046 109.091 92.0714 109.063 92.0232C109.006 91.9246 108.942 91.8455 108.874 91.7861C108.843 91.7585 108.79 91.7026 108.716 91.6183C108.663 91.5585 108.594 91.5 108.508 91.4429C108.201 91.2386 107.88 91.0765 107.546 90.9564C107.506 90.9417 107.476 90.9355 107.457 90.9378C107.426 90.9413 107.403 90.9339 107.39 90.9156C107.386 90.9108 107.379 90.9068 107.37 90.9046L106.973 90.809C106.865 90.7834 106.733 90.7686 106.577 90.7648C106.537 90.764 106.488 90.7632 106.43 90.7624C106.372 90.7613 106.312 90.7529 106.251 90.7374C106.189 90.7214 106.126 90.715 106.063 90.7181C105.994 90.7212 105.902 90.7197 105.787 90.7135C105.699 90.7092 105.609 90.7125 105.517 90.7234C105.201 90.7603 104.972 90.7844 104.828 90.7956C104.809 90.7972 104.778 90.8065 104.733 90.8236C104.713 90.8317 104.679 90.8343 104.632 90.8312C104.613 90.83 104.596 90.8345 104.58 90.8446C104.558 90.8582 104.522 90.8683 104.472 90.8749C104.136 90.9215 103.816 91.0085 103.512 91.1359C103.456 91.1592 103.396 91.1802 103.331 91.1988C103.194 91.2378 103.107 91.3136 102.979 91.3538C102.938 91.3666 102.881 91.3944 102.807 91.4371C102.438 91.6507 102.141 91.8576 101.915 92.0576C101.472 92.4495 101.189 92.955 101.066 93.5742C101.063 93.5928 101.053 93.6072 101.038 93.6173C101.017 93.6313 101.005 93.6493 101.002 93.6715C100.998 93.7029 100.995 93.7206 100.994 93.7245C100.798 94.3324 100.483 94.8606 100.048 95.3092C100.033 95.3248 100.034 95.3395 100.05 95.3535C100.057 95.3586 100.06 95.364 100.06 95.3698C100.061 95.3854 100.054 95.3933 100.039 95.3937C99.787 95.4015 99.5277 95.3877 99.2609 95.3524C99.2057 95.345 99.1754 95.3409 99.17 95.3401C98.6041 95.2586 98.2259 95.1952 98.0356 95.1502C97.8414 95.1043 97.6559 95.0663 97.4792 95.036C97.3669 95.017 97.2568 94.9896 97.1488 94.9538L96.7742 94.8309C96.7649 94.8282 96.7583 94.8313 96.7544 94.8402C96.7532 94.8429 96.7494 94.8466 96.7428 94.8513C96.7342 94.8575 96.7264 94.8565 96.7195 94.8484C96.6884 94.8123 96.6493 94.7956 96.6023 94.7983C96.5841 94.7994 96.5662 94.7963 96.5487 94.789C96.4516 94.7474 96.3539 94.7185 96.2557 94.7021C96.1524 94.6851 96.052 94.6592 95.9545 94.6247C95.7758 94.5617 95.6464 94.5206 95.5664 94.5011C95.4435 94.4708 95.3252 94.3858 95.1778 94.3776C95.1603 94.3769 95.1435 94.371 95.1295 94.3607C95.079 94.3246 95.0331 94.3046 94.992 94.3007C94.9294 94.2949 94.883 94.2827 94.8527 94.264C94.8065 94.2357 94.7187 94.2003 94.5894 94.158C94.065 93.9867 93.6026 93.8171 93.2021 93.6493C93.1819 93.6408 93.1357 93.6146 93.0635 93.5707C93.0472 93.5606 93.0295 93.5553 93.0104 93.555C92.9596 93.5534 92.9215 93.5346 92.8963 93.4984C92.885 93.4821 92.8811 93.4643 92.8846 93.4448C92.8997 93.3602 92.8976 93.2918 92.8782 93.2397C92.8564 93.1815 92.8423 93.1211 92.8357 93.0586C92.8213 92.9121 92.8096 92.8115 92.8007 92.7568C92.7821 92.6367 92.7722 92.5359 92.771 92.4544C92.7702 92.3883 92.7704 92.2654 92.7716 92.0856C92.7716 92.0832 92.7696 91.9834 92.7657 91.7861C92.7607 91.5426 92.7912 91.3169 92.8572 91.1091C92.8844 91.0232 92.904 90.9329 92.9161 90.8382C92.9269 90.7515 92.9464 90.6595 92.9743 90.562C92.9747 90.5608 92.9889 90.5331 93.0169 90.4787C93.0355 90.4433 93.0248 90.4091 92.9848 90.3761C92.9801 90.3723 92.9763 90.3675 92.9736 90.3621C92.971 90.3566 92.9697 90.3507 92.9697 90.3447V89.9945C92.9696 89.9879 92.971 89.9813 92.9736 89.9751C92.9762 89.9689 92.98 89.9632 92.9848 89.9584L99.2288 83.7144C99.2432 83.7 99.2601 83.6959 99.2795 83.7021C99.497 83.7713 99.6394 83.813 99.7066 83.8274C99.9361 83.876 100.073 83.9078 100.117 83.923C100.176 83.9435 100.256 83.9548 100.356 83.9567C100.452 83.9583 100.536 83.9804 100.607 84.0232C100.624 84.0333 100.642 84.0381 100.663 84.0377C100.73 84.0366 100.794 84.0449 100.853 84.0628C100.906 84.0787 100.97 84.0878 101.047 84.0902C101.173 84.0941 101.268 84.1044 101.332 84.1211C101.463 84.1554 101.59 84.1368 101.733 84.1438C101.76 84.1453 101.812 84.1585 101.889 84.1834C101.938 84.1993 101.993 84.2063 102.055 84.2044C102.618 84.1865 103.117 84.1832 103.553 84.1945C103.571 84.1948 103.588 84.1915 103.605 84.1846C103.632 84.1733 103.654 84.1659 103.671 84.1624C103.689 84.1585 103.77 84.1552 103.914 84.1525C104.003 84.151 104.083 84.143 104.153 84.1286C104.36 84.0855 104.567 84.0564 104.774 84.0412C104.835 84.037 104.897 84.0245 104.96 84.0039C105.065 83.9705 105.127 83.9513 105.145 83.9463C105.165 83.9408 105.182 83.9459 105.197 83.9614C105.223 83.9882 105.248 83.9861 105.274 83.955C105.287 83.9391 105.304 83.9284 105.324 83.923C105.511 83.874 105.644 83.8433 105.722 83.8309C105.873 83.8072 106.001 83.7777 106.108 83.7423C106.159 83.7256 106.299 83.6851 106.527 83.6206C106.592 83.6025 106.659 83.5652 106.705 83.5303C106.72 83.5189 106.738 83.5124 106.757 83.5116C106.818 83.5097 106.877 83.4918 106.932 83.458C106.948 83.4483 106.965 83.4425 106.984 83.4405C106.998 83.439 107.01 83.4363 107.02 83.4324C107.186 83.371 107.469 83.2545 107.869 83.0828C108.209 82.9375 108.633 82.7218 109.142 82.4355C109.174 82.4176 109.211 82.3932 109.254 82.3621C109.323 82.312 109.359 82.2864 109.361 82.2852C109.431 82.2444 109.502 82.1997 109.575 82.1512C110.11 81.7954 110.636 81.38 111.153 80.9049C111.769 80.339 112.341 79.6931 112.869 78.9671C112.908 78.9141 112.928 78.8576 112.958 78.8186C113.169 78.5471 113.357 78.2608 113.523 77.9598C113.58 77.8553 113.697 77.6319 113.874 77.2897C113.955 77.1313 114.032 76.9604 114.104 76.777C114.173 76.6022 114.244 76.428 114.315 76.2544C114.315 76.254 114.33 76.2321 114.358 76.1886C114.369 76.1711 114.374 76.1509 114.371 76.128C114.369 76.109 114.373 76.0911 114.382 76.0744C114.429 75.992 114.455 75.9381 114.46 75.9124C114.507 75.717 114.56 75.5407 114.62 75.3834C114.674 75.2424 114.681 75.1171 114.736 74.9866C114.756 74.9385 114.772 74.8854 114.784 74.8276C114.862 74.4446 114.907 74.2249 114.92 74.1686C114.924 74.1495 114.933 74.1321 114.946 74.1179C114.998 74.0612 115.006 74.0026 114.969 73.942C114.959 73.9253 114.956 73.9076 114.961 73.889C115.035 73.5844 115.073 73.4096 115.076 73.3646C115.093 73.1397 115.112 72.9228 115.133 72.7138C115.162 72.4392 115.174 72.2228 115.169 72.0647C115.163 71.8896 115.163 71.687 115.168 71.4571C115.171 71.2893 115.161 71.0861 115.138 70.8476C115.1 70.4592 115.06 70.1135 115.018 69.8106C115.014 69.7818 114.999 69.7317 114.973 69.6602C114.966 69.6416 114.966 69.623 114.973 69.6043C114.996 69.5457 114.988 69.4915 114.949 69.4418C114.937 69.4258 114.929 69.4082 114.925 69.3887C114.892 69.2039 114.859 69.0384 114.826 68.8923C114.779 68.681 114.736 68.5185 114.699 68.4047C114.669 68.3103 114.619 68.152 114.548 67.9298C114.493 67.7566 114.437 67.5993 114.381 67.4579C114.294 67.2412 114.204 67.0192 114.111 66.792C114.009 66.5434 113.91 66.3257 113.813 66.1388C113.141 64.847 112.278 63.7054 111.223 62.7142C111.114 62.6124 110.901 62.4223 110.582 62.1438C110.465 62.0412 110.318 61.928 110.141 61.8041C109.99 61.6977 109.841 61.5872 109.695 61.4726C109.613 61.4085 109.413 61.2871 109.095 61.1084C109.037 61.0758 108.96 61.0282 108.866 60.9657C108.772 60.9036 108.689 60.8552 108.617 60.8206C108.279 60.6594 107.993 60.5254 107.757 60.4186C107.755 60.4174 107.692 60.3833 107.569 60.3161C107.456 60.2549 107.321 60.2432 107.214 60.1961C107.055 60.1261 106.952 60.0867 106.904 60.0778C106.804 60.0591 106.711 60.0283 106.627 59.9851C106.588 59.9649 106.552 59.951 106.52 59.9432C106.464 59.9296 106.425 59.9205 106.405 59.9158C106.386 59.9115 106.37 59.9032 106.356 59.8908C106.3 59.8424 106.245 59.8686 106.179 59.843C106.075 59.803 106.003 59.7787 105.962 59.7702C105.572 59.6909 105.303 59.6299 105.156 59.5872C105.11 59.574 105.041 59.5631 104.951 59.5546C104.901 59.5503 104.831 59.5398 104.742 59.5231C103.974 59.3798 103.183 59.3198 102.367 59.3431C102.131 59.3501 101.903 59.3681 101.686 59.3973C101.508 59.4214 101.281 59.447 101.006 59.4742C100.926 59.4823 100.83 59.4985 100.716 59.5225C100.572 59.554 100.454 59.5441 100.329 59.5855C100.271 59.6049 100.175 59.6262 100.043 59.6495C99.9216 59.6705 99.8266 59.6905 99.7579 59.7096C99.1678 59.8719 98.5774 60.0646 97.9867 60.2875C97.975 60.2918 97.9395 60.312 97.88 60.3481C97.8253 60.3819 97.7734 60.3732 97.7204 60.4017C97.6058 60.4631 97.4497 60.5427 97.252 60.6406C96.3473 61.0884 95.5074 61.6342 94.7321 62.2778C94.5235 62.451 94.3287 62.6305 94.1477 62.8161C94.044 62.9226 93.9186 63.0474 93.7714 63.1908C93.6455 63.3127 93.5239 63.4417 93.4066 63.5776C92.7945 64.2857 92.2594 65.0623 91.8015 65.9075C91.704 66.0874 91.5582 66.3855 91.3639 66.8019C91.256 67.0342 91.16 67.2775 91.0761 67.5319C90.9658 67.8659 90.8839 68.1153 90.8303 68.28C90.7786 68.4396 90.7365 68.595 90.7038 68.7461C90.6646 68.9287 90.6232 69.0846 90.5797 69.214C90.5723 69.2357 90.5632 69.2843 90.5523 69.3596C90.5465 69.4 90.5351 69.4484 90.518 69.5047C90.5063 69.5431 90.4999 69.6086 90.4987 69.701C90.4976 69.7764 90.4927 69.8395 90.4842 69.8904C90.3824 70.5021 90.3344 70.9028 90.3403 71.0923C90.3546 71.5507 90.3556 72.0024 90.3432 72.4475C90.3408 72.5349 90.3469 72.6118 90.3612 72.6783C90.3721 72.7264 90.3744 72.7785 90.3682 72.8344C90.364 72.8732 90.3663 72.9253 90.3752 72.9905C90.4238 73.3514 90.4599 73.5769 90.4836 73.667C90.4976 73.7202 90.5015 73.7909 90.4952 73.879C90.4933 73.9043 90.502 73.9528 90.5215 74.0247C90.5576 74.1605 90.5564 74.2997 90.5966 74.4279C90.604 74.4506 90.6049 74.475 90.5992 74.4983C90.5936 74.5215 90.5816 74.5427 90.5646 74.5596L81.7856 83.3386C81.7704 83.3537 81.7576 83.352 81.7471 83.3333C81.7141 83.2755 81.6323 83.1189 81.5018 82.8637C81.3499 82.5674 81.1608 82.1992 80.9343 81.7591C80.8605 81.6154 80.805 81.495 80.7677 81.3979C80.7207 81.2751 80.6743 81.151 80.6285 81.0256C80.6075 80.9673 80.5778 80.9185 80.5393 80.8793C80.5246 80.8646 80.5199 80.8471 80.5253 80.8269C80.5269 80.8214 80.5286 80.8154 80.5306 80.8088C80.5341 80.7991 80.5327 80.7898 80.5265 80.7808C80.4333 80.6488 80.4187 80.5264 80.4828 80.4138C80.5717 80.2592 80.644 80.1231 80.6995 80.0054C80.7729 79.8516 80.8708 79.7735 80.9681 79.6337C80.9833 79.6119 81.0268 79.5684 81.0986 79.5031C81.1934 79.4177 81.2841 79.3282 81.3707 79.2346C81.4775 79.1192 81.6613 78.9823 81.9219 78.8238C82.2299 78.6358 82.4212 78.5121 82.4958 78.4527C83.0803 77.987 83.5008 77.3826 83.7572 76.6395C83.7638 76.6213 83.7735 76.6052 83.7863 76.5912C83.8096 76.5663 83.8162 76.5335 83.8061 76.4927C83.8014 76.4729 83.8086 76.4589 83.8277 76.4508C83.849 76.4418 83.855 76.4141 83.8457 76.3675C83.8451 76.3647 83.8455 76.36 83.8467 76.3538C83.8479 76.3476 83.85 76.3401 83.8527 76.3319L83.9454 76.0639C83.9457 76.0624 83.9465 76.0609 83.9477 76.0598L83.9657 76.0418C83.9708 76.0367 83.9733 76.0307 83.9733 76.0237C83.9749 75.8971 83.9929 75.7734 84.0275 75.6526C84.0496 75.5745 84.0535 75.4881 84.0392 75.3933C84.0291 75.328 84.0261 75.2389 84.0304 75.1259C84.0308 75.1072 84.0382 75.0919 84.0526 75.0798C84.0607 75.0732 84.0652 75.0661 84.066 75.0583C84.0796 74.9581 84.0799 74.8462 84.0671 74.7227C84.0512 74.5658 84.045 74.4471 84.0485 74.3667C84.0531 74.2657 84.0483 74.1849 84.0339 74.1243C83.9955 73.9647 83.9756 73.8825 83.9745 73.8779C83.8323 73.2222 83.588 72.6363 83.2415 72.1201C83.073 71.8692 82.822 71.6029 82.4888 71.3213C82.3435 71.1986 82.1563 71.0834 81.9271 70.9758C81.6009 70.8224 81.3966 70.7336 81.3142 70.7096C81.2159 70.6804 81.081 70.6396 80.9093 70.5872C80.7726 70.5456 80.6413 70.4932 80.5154 70.4299C80.1697 70.2547 79.92 70.1196 79.7662 70.0244C79.4589 69.8345 79.2022 69.6096 78.9959 69.3497C78.9948 69.3483 78.9934 69.3471 78.9916 69.3463C78.9899 69.3455 78.988 69.345 78.986 69.345H78.9493C78.9388 69.345 78.9336 69.3398 78.9336 69.3293V68.7251C78.9336 68.7073 78.9418 68.6948 78.9581 68.6878C78.9825 68.677 78.9957 68.6581 78.9977 68.6313C79.0159 68.4126 79.0556 68.2091 79.1165 68.0207C79.1329 67.9706 79.14 67.9201 79.1381 67.8692C79.1369 67.8304 79.1416 67.7949 79.1521 67.7626C79.1645 67.7246 79.1732 67.6904 79.1783 67.6601C79.202 67.5152 79.222 67.3824 79.2383 67.2616C79.243 67.2297 79.2577 67.1604 79.2826 67.0536C79.3016 66.972 79.3152 66.9019 79.3234 66.8432C79.3296 66.797 79.3508 66.7256 79.3869 66.6288C79.4129 66.5585 79.4341 66.4878 79.4504 66.4168C79.5692 65.8928 79.693 65.4018 79.8215 64.9439C79.8708 64.7675 79.9021 64.6646 79.9153 64.6351C79.9491 64.5599 79.9468 64.504 79.9567 64.437C79.9593 64.417 79.9677 64.3994 79.9806 64.3869C80.0062 64.3609 80.0225 64.3294 80.0295 64.2925C80.0404 64.2358 80.0464 64.2059 80.0476 64.2028C80.1171 63.988 80.1583 63.8617 80.1711 63.8241C80.1932 63.7577 80.2319 63.6302 80.287 63.4419C80.3562 63.2065 80.4449 62.9779 80.5533 62.7561C80.5828 62.6959 80.5982 62.6598 80.5993 62.6477C80.6032 62.6067 80.6199 62.5679 80.647 62.5368C80.674 62.5058 80.7102 62.4841 80.7502 62.4747C80.8034 62.4623 80.8638 62.4423 80.9314 62.4147C80.9376 62.4124 80.9635 62.4065 81.0089 62.3972C81.0291 62.3933 81.0445 62.3869 81.0549 62.378C81.0674 62.3679 81.0814 62.3615 81.0969 62.3588L81.5251 62.2807C81.5422 62.2776 81.5591 62.277 81.5758 62.2789C81.6193 62.2828 81.6572 62.2737 81.6894 62.2516C81.7058 62.2406 81.7248 62.2347 81.7442 62.2347C82.0961 62.2296 82.4086 62.2271 82.6816 62.2271C82.7387 62.2271 82.7731 62.2349 82.7848 62.2504C82.7995 62.2706 82.8154 62.2787 82.8325 62.2749C82.8681 62.2673 82.938 62.2731 82.9788 62.2894C83.077 62.3283 83.1794 62.3485 83.2858 62.35C83.3017 62.3504 83.3161 62.3541 83.3289 62.3611C83.3336 62.3634 83.3416 62.3693 83.3528 62.3786C83.3656 62.3887 83.3802 62.3929 83.3965 62.3914C83.4886 62.3844 83.5661 62.4263 83.6709 62.4229C83.7855 62.419 83.9506 62.4164 84.1662 62.4153C84.3615 62.4141 84.6064 62.3568 84.9009 62.2434C84.9183 62.2364 84.9352 62.2319 84.9515 62.23C84.971 62.2277 84.9886 62.2226 85.0046 62.2149C85.3561 62.042 85.6993 61.8354 86.0341 61.5949C86.0721 61.5674 86.1053 61.5342 86.1337 61.4953C86.1527 61.4693 86.1772 61.4475 86.2071 61.4301C86.2316 61.4157 86.2574 61.3963 86.2846 61.3718C86.9628 60.76 87.5132 60.0496 87.9358 59.2405C87.9579 59.1986 87.9806 59.1483 88.0039 59.0896C88.0401 58.9991 88.0616 58.9485 88.0686 58.9376C88.1166 58.8675 88.1648 58.759 88.2079 58.6247C88.275 58.415 88.3438 58.205 88.4141 57.9949C88.4331 57.9378 88.4427 57.8902 88.4427 57.8521C88.4427 57.8152 88.4491 57.7665 88.4619 57.7059C88.5058 57.4942 88.5285 57.2303 88.53 56.9141C88.5304 56.8287 88.5207 56.7463 88.5009 56.6671C88.4912 56.6294 88.4728 56.5482 88.4456 56.4235C88.4052 56.2371 88.3483 56.0831 88.2749 55.9615C88.0612 55.6069 87.9245 55.2327 87.8647 54.8388C87.8173 54.5265 87.7701 54.1567 87.7231 53.7295C87.7087 53.6005 87.7023 53.5089 87.7039 53.4545C87.7047 53.4347 87.713 53.4193 87.7289 53.4084C88.1232 53.1369 88.3902 52.9456 88.53 52.8346C88.6501 52.7394 88.7674 52.6572 88.882 52.5881C89.0501 52.4863 89.1698 52.4094 89.2408 52.3574C89.4273 52.2199 89.7454 52.0249 90.1952 51.7724C90.2212 51.7577 90.2467 51.7415 90.2715 51.7241C90.3589 51.6619 90.536 51.56 90.8029 51.4182C90.9858 51.3211 91.1357 51.2387 91.2527 51.1712C91.4659 51.0473 91.6164 50.9653 91.7042 50.9253C91.9124 50.8301 92.1097 50.7301 92.2961 50.6252C92.4259 50.5526 92.5451 50.4932 92.6539 50.447C92.7141 50.4209 92.8357 50.3671 93.0186 50.2856C93.0811 50.258 93.1441 50.236 93.2074 50.2197C93.273 50.2026 93.3346 50.1762 93.3921 50.1405C93.406 50.1316 93.4907 50.0927 93.6461 50.024C93.6985 50.0007 93.7585 49.9853 93.8261 49.9779C93.8657 49.9737 93.9215 49.9915 93.9933 50.0315C94.2695 50.185 94.4377 50.2854 94.4979 50.3328C94.7997 50.5709 95.0733 50.8375 95.3188 51.1327C95.3448 51.1642 95.4635 51.3337 95.6748 51.6413C95.836 51.8759 96.0302 52.0919 96.2574 52.2892C96.3806 52.396 96.5348 52.4916 96.72 52.5759C96.7624 52.5953 96.9255 52.6664 97.2094 52.7891C97.3046 52.8303 97.3772 52.8536 97.4273 52.859C97.4743 52.8641 97.5231 52.8792 97.5736 52.9045C97.5907 52.913 97.6383 52.9253 97.7163 52.9412C98.3242 53.067 98.9525 53.1088 99.6011 53.0664C99.6027 53.0664 99.6549 53.0556 99.7579 53.0338C99.8122 53.0222 99.8654 53.0249 99.9175 53.042C99.9357 53.0482 99.9542 53.0495 99.9728 53.0461C100.164 53.0092 100.294 52.9901 100.361 52.989C100.404 52.9882 100.447 52.9829 100.49 52.9732C101.073 52.8404 101.631 52.6448 102.164 52.3865C102.257 52.3415 102.344 52.2877 102.425 52.2251C102.464 52.1952 102.523 52.1593 102.602 52.1173C102.637 52.0983 102.693 52.0585 102.769 51.9979C103.043 51.7769 103.272 51.5071 103.454 51.1886C103.522 51.069 103.578 50.949 103.62 50.8286C103.684 50.6437 103.727 50.5182 103.748 50.4522C103.807 50.2735 103.88 50.0937 103.97 49.9127C104.034 49.7822 104.13 49.613 104.259 49.4052C104.269 49.3905 104.297 49.3479 104.345 49.2776C104.53 49.0073 104.751 48.7484 105.008 48.501H105.018Z" fill="#CCCCCF"/>
</g>
<g filter="url(#filter2_dd_1351_12272)">
<path d="M75.0061 103.502H71.1188C71.1165 101.488 71.1159 99.4726 71.117 97.4575C71.117 97.3546 71.1444 97.2756 71.1992 97.2204C71.6059 96.811 72.0172 96.4063 72.4332 96.0062C72.8391 95.6158 73.9397 94.5221 75.7349 92.7249C76.612 91.8474 77.7495 90.7111 79.1474 89.3159C79.2425 89.2207 79.3305 89.1374 79.4113 89.066C79.5026 88.9852 79.5884 88.8993 79.6688 88.8084C79.7057 88.7665 80.2122 88.258 81.1883 87.2831C81.292 87.1794 81.3981 87.0784 81.5064 86.9801C81.5969 86.8982 81.703 86.7966 81.8246 86.6754C85.2426 83.2597 88.2096 80.2943 90.7254 77.7793C90.7277 77.7774 90.8028 77.7096 90.9508 77.576C91.0662 77.4717 91.1635 77.3318 91.2509 77.2479C91.8762 76.6502 92.4565 76.0211 92.9918 75.3608C93.1852 75.1223 93.3711 74.8664 93.5493 74.5929C93.8249 74.1711 93.9665 73.6642 94.0568 73.1765C94.1275 72.7928 94.1745 72.4589 94.1978 72.175C94.1982 72.1723 94.2122 72.0727 94.2398 71.8761C94.2666 71.6846 94.2677 71.5058 94.2433 71.3395C94.2269 71.2304 94.2477 71.0839 94.3056 70.9002C94.3307 70.8204 94.2992 70.7959 94.3056 70.7184C94.3413 70.2958 94.4107 69.8886 94.5136 69.4967C94.6526 68.968 94.8315 68.4522 95.0502 67.9492C95.1477 67.7255 95.2533 67.5256 95.3671 67.3497C95.5169 67.1184 95.6567 66.8358 95.8408 66.5771C96.4829 65.676 97.2455 64.9221 98.1288 64.3154C98.9188 63.772 99.7901 63.3637 100.742 63.0907C101.056 63.001 101.407 62.9285 101.798 62.8734C102.255 62.8093 102.613 62.7722 102.873 62.7621C103.356 62.7434 103.812 62.7702 104.241 62.8425C104.33 62.8572 104.43 62.8714 104.544 62.885C104.709 62.9048 104.811 62.9182 104.85 62.9252C105.37 63.0215 105.875 63.1657 106.367 63.3575C106.441 63.3863 106.563 63.4412 106.734 63.5224C106.786 63.5473 106.908 63.6009 107.102 63.6832C107.285 63.7613 107.36 64.0678 107.412 64.2577C107.452 64.4076 107.458 64.5325 107.43 64.6323C107.386 64.7904 107.288 64.9089 107.138 64.9877C107.062 65.0277 107.023 65.0485 107.02 65.0501C106.228 65.5131 105.415 65.9825 104.581 66.4583C104.215 66.6672 103.94 66.8273 103.757 66.9384C103.518 67.0836 103.242 67.2425 102.928 67.4149C102.792 67.4903 102.579 67.614 102.29 67.7861C102.016 67.9492 101.802 68.072 101.649 68.1543C101.443 68.2646 101.31 68.4225 101.251 68.628C101.217 68.7449 101.187 68.9043 101.163 69.1063C101.146 69.2415 101.151 69.4021 101.178 69.5881C101.251 70.0865 101.37 70.5295 101.535 70.9171C101.84 71.6357 102.203 72.303 102.624 72.919C102.806 73.1851 103.036 73.471 103.316 73.7767C103.659 74.1511 104.062 74.4476 104.526 74.6663C104.704 74.7502 104.893 74.7937 105.092 74.7968C105.182 74.798 105.259 74.7795 105.325 74.7415C106.651 73.9678 107.482 73.4869 107.816 73.2989C108.043 73.1715 108.301 73.022 108.59 72.8503C108.962 72.6304 109.22 72.4809 109.366 72.4017C109.677 72.2319 110.137 71.9691 110.747 71.6134C110.915 71.5151 111.045 71.465 111.137 71.463C111.291 71.4599 111.431 71.5159 111.558 71.6308C111.718 71.7749 111.847 71.908 111.945 72.0299C111.996 72.0936 112.021 72.1659 112.019 72.2467C112.015 72.3892 112.009 72.5011 112 72.5823C111.911 73.4294 111.714 74.2288 111.41 74.9804C111.26 75.3521 111.07 75.7384 110.839 76.1392C110.262 77.1405 109.505 78.0034 108.566 78.7278C108.471 78.8008 108.226 78.9677 107.829 79.2283C107.662 79.3378 107.51 79.4262 107.374 79.4934C107.127 79.615 106.969 79.6923 106.9 79.7253C106.169 80.0725 105.41 80.3071 104.625 80.4291C104.434 80.4586 104.287 80.478 104.184 80.4873C103.959 80.5072 103.812 80.5219 103.742 80.5316C103.617 80.5487 103.462 80.558 103.277 80.5596C103.099 80.5608 102.85 80.5689 102.659 80.538C102.395 80.4949 102.082 80.4932 101.778 80.4442C101.581 80.4124 101.351 80.3811 101.088 80.3504C100.666 80.3007 100.436 80.2747 100.398 80.2724C99.7961 80.2331 99.274 80.2749 98.832 80.3976C98.5232 80.4831 98.1822 80.6468 97.8089 80.8888C97.452 81.1199 97.1183 81.3937 96.808 81.7103C96.6476 81.8742 96.566 81.9573 96.5633 81.9596C95.8579 82.6576 95.0607 83.4547 94.1716 84.3507C94.0426 84.4805 93.9358 84.584 93.8511 84.6613C93.7311 84.7708 93.6239 84.8741 93.5295 84.9712C93.0261 85.4906 86.988 91.5357 75.4151 103.107C75.4135 103.108 75.3599 103.164 75.2543 103.275C75.1758 103.357 75.0931 103.433 75.0061 103.502Z" fill="#CCCCCF"/>
</g>
</g>
<defs>
<filter id="filter0_d_1351_12272" x="58.4999" y="46.0005" width="80" height="80" filterUnits="userSpaceOnUse" color-interpolation-filters="sRGB">
<feFlood flood-opacity="0" result="BackgroundImageFix"/>
<feColorMatrix in="SourceAlpha" type="matrix" values="0 0 0 0 0 0 0 0 0 0 0 0 0 0 0 0 0 0 127 0" result="hardAlpha"/>
<feOffset dy="10"/>
<feGaussianBlur stdDeviation="5"/>
<feComposite in2="hardAlpha" operator="out"/>
<feColorMatrix type="matrix" values="0 0 0 0 0 0 0 0 0 0 0 0 0 0 0 0 0 0 0.25 0"/>
<feBlend mode="normal" in2="BackgroundImageFix" result="effect1_dropShadow_1351_12272"/>
<feBlend mode="normal" in="SourceGraphic" in2="effect1_dropShadow_1351_12272" result="shape"/>
</filter>
<filter id="filter1_dd_1351_12272" x="78.9336" y="48.501" width="48.1299" height="48.145" filterUnits="userSpaceOnUse" color-interpolation-filters="sRGB">
<feFlood flood-opacity="0" result="BackgroundImageFix"/>
<feColorMatrix in="SourceAlpha" type="matrix" values="0 0 0 0 0 0 0 0 0 0 0 0 0 0 0 0 0 0 127 0" result="hardAlpha"/>
<feOffset dx="1.25" dy="1.25"/>
<feComposite in2="hardAlpha" operator="out"/>
<feColorMatrix type="matrix" values="0 0 0 0 1 0 0 0 0 0 0 0 0 0 0 0 0 0 0.5 0"/>
<feBlend mode="normal" in2="BackgroundImageFix" result="effect1_dropShadow_1351_12272"/>
<feColorMatrix in="SourceAlpha" type="matrix" values="0 0 0 0 0 0 0 0 0 0 0 0 0 0 0 0 0 0 127 0" result="hardAlpha"/>
<feOffset dx="0.75" dy="0.75"/>
<feComposite in2="hardAlpha" operator="out"/>
<feColorMatrix type="matrix" values="0 0 0 0 0.15 0 0 0 0 0 0 0 0 0 1 0 0 0 0.5 0"/>
<feBlend mode="normal" in2="effect1_dropShadow_1351_12272" result="effect2_dropShadow_1351_12272"/>
<feBlend mode="normal" in="SourceGraphic" in2="effect2_dropShadow_1351_12272" result="shape"/>
</filter>
<filter id="filter2_dd_1351_12272" x="71.1165" y="62.7563" width="42.1523" height="41.9961" filterUnits="userSpaceOnUse" color-interpolation-filters="sRGB">
<feFlood flood-opacity="0" result="BackgroundImageFix"/>
<feColorMatrix in="SourceAlpha" type="matrix" values="0 0 0 0 0 0 0 0 0 0 0 0 0 0 0 0 0 0 127 0" result="hardAlpha"/>
<feOffset dx="1.25" dy="1.25"/>
<feComposite in2="hardAlpha" operator="out"/>
<feColorMatrix type="matrix" values="0 0 0 0 1 0 0 0 0 0 0 0 0 0 0 0 0 0 0.5 0"/>
<feBlend mode="normal" in2="BackgroundImageFix" result="effect1_dropShadow_1351_12272"/>
<feColorMatrix in="SourceAlpha" type="matrix" values="0 0 0 0 0 0 0 0 0 0 0 0 0 0 0 0 0 0 127 0" result="hardAlpha"/>
<feOffset dx="0.75" dy="0.75"/>
<feComposite in2="hardAlpha" operator="out"/>
<feColorMatrix type="matrix" values="0 0 0 0 0.15 0 0 0 0 0 0 0 0 0 1 0 0 0 0.5 0"/>
<feBlend mode="normal" in2="effect1_dropShadow_1351_12272" result="effect2_dropShadow_1351_12272"/>
<feBlend mode="normal" in="SourceGraphic" in2="effect2_dropShadow_1351_12272" result="shape"/>
</filter>
</defs>
</svg>
