<svg width="196" height="196" viewBox="0 0 196 196" fill="none" xmlns="http://www.w3.org/2000/svg">
<circle cx="96.75" cy="76.75" r="47.5" fill="url(#paint0_linear_1351_12268)" fill-opacity="0.85" stroke="#D9D9D9" stroke-width="2.5"/>
<g filter="url(#filter0_d_1351_12268)">
<path d="M127.031 136.77L127.039 136.785C127.043 136.793 127.043 136.8 127.038 136.807L98.7208 175.176C98.7191 175.179 98.7169 175.18 98.7143 175.182C98.7117 175.183 98.7089 175.184 98.706 175.184C98.7031 175.184 98.7002 175.183 98.6976 175.182C98.6951 175.18 98.6928 175.179 98.6911 175.176C95.9063 171.403 86.4697 158.615 70.3811 136.812C70.371 136.798 70.3732 136.784 70.3877 136.77H127.031Z" fill="#D9D9D9"/>
</g>
<defs>
<filter id="filter0_d_1351_12268" x="70.3749" y="136.77" width="64.1672" height="43.4141" filterUnits="userSpaceOnUse" color-interpolation-filters="sRGB">
<feFlood flood-opacity="0" result="BackgroundImageFix"/>
<feColorMatrix in="SourceAlpha" type="matrix" values="0 0 0 0 0 0 0 0 0 0 0 0 0 0 0 0 0 0 127 0" result="hardAlpha"/>
<feOffset dx="5" dy="2.5"/>
<feGaussianBlur stdDeviation="1.25"/>
<feComposite in2="hardAlpha" operator="out"/>
<feColorMatrix type="matrix" values="0 0 0 0 0 0 0 0 0 0 0 0 0 0 0 0 0 0 0.45 0"/>
<feBlend mode="normal" in2="BackgroundImageFix" result="effect1_dropShadow_1351_12268"/>
<feBlend mode="normal" in="SourceGraphic" in2="effect1_dropShadow_1351_12268" result="shape"/>
</filter>
<linearGradient id="paint0_linear_1351_12268" x1="96.75" y1="28" x2="96.75" y2="125.5" gradientUnits="userSpaceOnUse">
<stop stop-color="#F7271F"/>
<stop offset="1" stop-color="#BA2822"/>
</linearGradient>
</defs>
</svg>
