<svg width="419" height="836" viewBox="0 0 419 836" fill="none" xmlns="http://www.w3.org/2000/svg"
        preserveAspectRatio="none"
>
<g opacity="0.05" clip-path="url(#clip0_340_1969)">
<path fill-rule="evenodd" clip-rule="evenodd" d="M-0.431152 0.5C-0.431152 0.166667 -0.431152 -0.166667 -0.431152 -0.5C139.236 -0.5 278.902 -0.5 418.569 -0.5C418.569 -0.166667 418.569 0.166667 418.569 0.5C278.902 0.5 139.236 0.5 -0.431152 0.5Z" fill="#727372"/>
<path fill-rule="evenodd" clip-rule="evenodd" d="M-0.431152 4.5C139.236 4.5 278.902 4.5 418.569 4.5C418.569 5.5 418.569 6.5 418.569 7.5C278.902 7.5 139.236 7.5 -0.431152 7.5C-0.431152 6.5 -0.431152 5.5 -0.431152 4.5Z" fill="#727372"/>
<path fill-rule="evenodd" clip-rule="evenodd" d="M-0.431152 10.5C139.236 10.5 278.902 10.5 418.569 10.5C418.569 11.5 418.569 12.5 418.569 13.5C278.902 13.5 139.236 13.5 -0.431152 13.5C-0.431152 12.5 -0.431152 11.5 -0.431152 10.5Z" fill="#727372"/>
<path fill-rule="evenodd" clip-rule="evenodd" d="M-0.431152 17.5C139.236 17.5 278.902 17.5 418.569 17.5C418.569 18.5 418.569 19.5 418.569 20.5C278.902 20.5 139.236 20.5 -0.431152 20.5C-0.431152 19.5 -0.431152 18.5 -0.431152 17.5Z" fill="#727372"/>
<path fill-rule="evenodd" clip-rule="evenodd" d="M-0.431152 23.5C139.236 23.5 278.902 23.5 418.569 23.5C418.569 24.5 418.569 25.5 418.569 26.5C278.902 26.5 139.236 26.5 -0.431152 26.5C-0.431152 25.5 -0.431152 24.5 -0.431152 23.5Z" fill="#727372"/>
<path fill-rule="evenodd" clip-rule="evenodd" d="M-0.431152 28.5C139.236 28.5 278.902 28.5 418.569 28.5C418.569 29.5 418.569 30.5 418.569 31.5C278.902 31.5 139.236 31.5 -0.431152 31.5C-0.431152 30.5 -0.431152 29.5 -0.431152 28.5Z" fill="#727372"/>
<path fill-rule="evenodd" clip-rule="evenodd" d="M-0.431152 34.5C139.236 34.5 278.902 34.5 418.569 34.5C418.569 35.5 418.569 36.5 418.569 37.5C278.902 37.5 139.236 37.5 -0.431152 37.5C-0.431152 36.5 -0.431152 35.5 -0.431152 34.5Z" fill="#727372"/>
<path fill-rule="evenodd" clip-rule="evenodd" d="M-0.431152 41.5C139.236 41.5 278.902 41.5 418.569 41.5C418.569 42.5 418.569 43.5 418.569 44.5C278.902 44.5 139.236 44.5 -0.431152 44.5C-0.431152 43.5 -0.431152 42.5 -0.431152 41.5Z" fill="#727372"/>
<path fill-rule="evenodd" clip-rule="evenodd" d="M-0.431152 47.5C139.236 47.5 278.902 47.5 418.569 47.5C418.569 48.5 418.569 49.5 418.569 50.5C278.902 50.5 139.236 50.5 -0.431152 50.5C-0.431152 49.5 -0.431152 48.5 -0.431152 47.5Z" fill="#727372"/>
<path fill-rule="evenodd" clip-rule="evenodd" d="M-0.431152 54.5C139.236 54.5 278.902 54.5 418.569 54.5C418.569 55.5 418.569 56.5 418.569 57.5C278.902 57.5 139.236 57.5 -0.431152 57.5C-0.431152 56.5 -0.431152 55.5 -0.431152 54.5Z" fill="#727372"/>
<path fill-rule="evenodd" clip-rule="evenodd" d="M-0.431152 60.5C139.236 60.5 278.902 60.5 418.569 60.5C418.569 61.5 418.569 62.5 418.569 63.5C278.902 63.5 139.236 63.5 -0.431152 63.5C-0.431152 62.5 -0.431152 61.5 -0.431152 60.5Z" fill="#727372"/>
<path fill-rule="evenodd" clip-rule="evenodd" d="M-0.431152 67.5C139.236 67.5 278.902 67.5 418.569 67.5C418.569 68.5 418.569 69.5 418.569 70.5C278.902 70.5 139.236 70.5 -0.431152 70.5C-0.431152 69.5 -0.431152 68.5 -0.431152 67.5Z" fill="#727372"/>
<path fill-rule="evenodd" clip-rule="evenodd" d="M-0.431152 73.5C139.236 73.5 278.902 73.5 418.569 73.5C418.569 74.5 418.569 75.5 418.569 76.5C278.902 76.5 139.236 76.5 -0.431152 76.5C-0.431152 75.5 -0.431152 74.5 -0.431152 73.5Z" fill="#727372"/>
<path fill-rule="evenodd" clip-rule="evenodd" d="M-0.431152 80.5C139.236 80.5 278.902 80.5 418.569 80.5C418.569 81.5 418.569 82.5 418.569 83.5C278.902 83.5 139.236 83.5 -0.431152 83.5C-0.431152 82.5 -0.431152 81.5 -0.431152 80.5Z" fill="#727372"/>
<path fill-rule="evenodd" clip-rule="evenodd" d="M-0.431152 86.5C139.236 86.5 278.902 86.5 418.569 86.5C418.569 87.5 418.569 88.5 418.569 89.5C278.902 89.5 139.236 89.5 -0.431152 89.5C-0.431152 88.5 -0.431152 87.5 -0.431152 86.5Z" fill="#727372"/>
<path fill-rule="evenodd" clip-rule="evenodd" d="M-0.431152 93.5C139.236 93.5 278.902 93.5 418.569 93.5C418.569 94.5 418.569 95.5 418.569 96.5C278.902 96.5 139.236 96.5 -0.431152 96.5C-0.431152 95.5 -0.431152 94.5 -0.431152 93.5Z" fill="#727372"/>
<path fill-rule="evenodd" clip-rule="evenodd" d="M-0.431152 99.5C139.236 99.5 278.902 99.5 418.569 99.5C418.569 100.5 418.569 101.5 418.569 102.5C278.902 102.5 139.236 102.5 -0.431152 102.5C-0.431152 101.5 -0.431152 100.5 -0.431152 99.5Z" fill="#727372"/>
<path fill-rule="evenodd" clip-rule="evenodd" d="M-0.431152 106.5C139.236 106.5 278.902 106.5 418.569 106.5C418.569 107.5 418.569 108.5 418.569 109.5C278.902 109.5 139.236 109.5 -0.431152 109.5C-0.431152 108.5 -0.431152 107.5 -0.431152 106.5Z" fill="#727372"/>
<path fill-rule="evenodd" clip-rule="evenodd" d="M-0.431152 112.5C139.236 112.5 278.902 112.5 418.569 112.5C418.569 113.5 418.569 114.5 418.569 115.5C278.902 115.5 139.236 115.5 -0.431152 115.5C-0.431152 114.5 -0.431152 113.5 -0.431152 112.5Z" fill="#727372"/>
<path fill-rule="evenodd" clip-rule="evenodd" d="M-0.431152 119.5C139.236 119.5 278.902 119.5 418.569 119.5C418.569 120.5 418.569 121.5 418.569 122.5C278.902 122.5 139.236 122.5 -0.431152 122.5C-0.431152 121.5 -0.431152 120.5 -0.431152 119.5Z" fill="#727372"/>
<path fill-rule="evenodd" clip-rule="evenodd" d="M-0.431152 125.5C139.236 125.5 278.902 125.5 418.569 125.5C418.569 126.5 418.569 127.5 418.569 128.5C278.902 128.5 139.236 128.5 -0.431152 128.5C-0.431152 127.5 -0.431152 126.5 -0.431152 125.5Z" fill="#727372"/>
<path fill-rule="evenodd" clip-rule="evenodd" d="M-0.431152 132.5C139.236 132.5 278.902 132.5 418.569 132.5C418.569 133.5 418.569 134.5 418.569 135.5C278.902 135.5 139.236 135.5 -0.431152 135.5C-0.431152 134.5 -0.431152 133.5 -0.431152 132.5Z" fill="#727372"/>
<path fill-rule="evenodd" clip-rule="evenodd" d="M-0.431152 138.5C139.236 138.5 278.902 138.5 418.569 138.5C418.569 139.5 418.569 140.5 418.569 141.5C278.902 141.5 139.236 141.5 -0.431152 141.5C-0.431152 140.5 -0.431152 139.5 -0.431152 138.5Z" fill="#727372"/>
<path fill-rule="evenodd" clip-rule="evenodd" d="M-0.431152 145.5C139.236 145.5 278.902 145.5 418.569 145.5C418.569 146.5 418.569 147.5 418.569 148.5C278.902 148.5 139.236 148.5 -0.431152 148.5C-0.431152 147.5 -0.431152 146.5 -0.431152 145.5Z" fill="#727372"/>
<path fill-rule="evenodd" clip-rule="evenodd" d="M-0.431152 151.5C139.236 151.5 278.902 151.5 418.569 151.5C418.569 152.5 418.569 153.5 418.569 154.5C278.902 154.5 139.236 154.5 -0.431152 154.5C-0.431152 153.5 -0.431152 152.5 -0.431152 151.5Z" fill="#727372"/>
<path fill-rule="evenodd" clip-rule="evenodd" d="M-0.431152 158.5C139.236 158.5 278.902 158.5 418.569 158.5C418.569 159.5 418.569 160.5 418.569 161.5C278.902 161.5 139.236 161.5 -0.431152 161.5C-0.431152 160.5 -0.431152 159.5 -0.431152 158.5Z" fill="#727372"/>
<path fill-rule="evenodd" clip-rule="evenodd" d="M-0.431152 164.5C139.236 164.5 278.902 164.5 418.569 164.5C418.569 165.5 418.569 166.5 418.569 167.5C278.902 167.5 139.236 167.5 -0.431152 167.5C-0.431152 166.5 -0.431152 165.5 -0.431152 164.5Z" fill="#727372"/>
<path fill-rule="evenodd" clip-rule="evenodd" d="M-0.431152 171.5C139.236 171.5 278.902 171.5 418.569 171.5C418.569 172.5 418.569 173.5 418.569 174.5C278.902 174.5 139.236 174.5 -0.431152 174.5C-0.431152 173.5 -0.431152 172.5 -0.431152 171.5Z" fill="#727372"/>
<path fill-rule="evenodd" clip-rule="evenodd" d="M-0.431152 177.5C139.236 177.5 278.902 177.5 418.569 177.5C418.569 178.5 418.569 179.5 418.569 180.5C278.902 180.5 139.236 180.5 -0.431152 180.5C-0.431152 179.5 -0.431152 178.5 -0.431152 177.5Z" fill="#727372"/>
<path fill-rule="evenodd" clip-rule="evenodd" d="M-0.431152 184.5C139.236 184.5 278.902 184.5 418.569 184.5C418.569 185.5 418.569 186.5 418.569 187.5C278.902 187.5 139.236 187.5 -0.431152 187.5C-0.431152 186.5 -0.431152 185.5 -0.431152 184.5Z" fill="#727372"/>
<path fill-rule="evenodd" clip-rule="evenodd" d="M-0.431152 190.5C139.236 190.5 278.902 190.5 418.569 190.5C418.569 191.5 418.569 192.5 418.569 193.5C278.902 193.5 139.236 193.5 -0.431152 193.5C-0.431152 192.5 -0.431152 191.5 -0.431152 190.5Z" fill="#727372"/>
<path fill-rule="evenodd" clip-rule="evenodd" d="M-0.431152 197.5C139.236 197.5 278.902 197.5 418.569 197.5C418.569 198.5 418.569 199.5 418.569 200.5C278.902 200.5 139.236 200.5 -0.431152 200.5C-0.431152 199.5 -0.431152 198.5 -0.431152 197.5Z" fill="#727372"/>
<path fill-rule="evenodd" clip-rule="evenodd" d="M-0.431152 203.5C139.236 203.5 278.902 203.5 418.569 203.5C418.569 204.5 418.569 205.5 418.569 206.5C278.902 206.5 139.236 206.5 -0.431152 206.5C-0.431152 205.5 -0.431152 204.5 -0.431152 203.5Z" fill="#727372"/>
<path fill-rule="evenodd" clip-rule="evenodd" d="M-0.431152 210.5C139.236 210.5 278.902 210.5 418.569 210.5C418.569 211.5 418.569 212.5 418.569 213.5C278.902 213.5 139.236 213.5 -0.431152 213.5C-0.431152 212.5 -0.431152 211.5 -0.431152 210.5Z" fill="#727372"/>
<path fill-rule="evenodd" clip-rule="evenodd" d="M-0.431152 216.5C139.236 216.5 278.902 216.5 418.569 216.5C418.569 217.5 418.569 218.5 418.569 219.5C278.902 219.5 139.236 219.5 -0.431152 219.5C-0.431152 218.5 -0.431152 217.5 -0.431152 216.5Z" fill="#727372"/>
<path fill-rule="evenodd" clip-rule="evenodd" d="M-0.431152 223.5C139.236 223.5 278.902 223.5 418.569 223.5C418.569 224.5 418.569 225.5 418.569 226.5C278.902 226.5 139.236 226.5 -0.431152 226.5C-0.431152 225.5 -0.431152 224.5 -0.431152 223.5Z" fill="#727372"/>
<path fill-rule="evenodd" clip-rule="evenodd" d="M-0.431152 229.5C139.236 229.5 278.902 229.5 418.569 229.5C418.569 230.5 418.569 231.5 418.569 232.5C278.902 232.5 139.236 232.5 -0.431152 232.5C-0.431152 231.5 -0.431152 230.5 -0.431152 229.5Z" fill="#727372"/>
<path fill-rule="evenodd" clip-rule="evenodd" d="M-0.431152 236.5C139.236 236.5 278.902 236.5 418.569 236.5C418.569 237.5 418.569 238.5 418.569 239.5C278.902 239.5 139.236 239.5 -0.431152 239.5C-0.431152 238.5 -0.431152 237.5 -0.431152 236.5Z" fill="#727372"/>
<path fill-rule="evenodd" clip-rule="evenodd" d="M-0.431152 242.5C139.236 242.5 278.902 242.5 418.569 242.5C418.569 243.5 418.569 244.5 418.569 245.5C278.902 245.5 139.236 245.5 -0.431152 245.5C-0.431152 244.5 -0.431152 243.5 -0.431152 242.5Z" fill="#727372"/>
<path fill-rule="evenodd" clip-rule="evenodd" d="M-0.431152 249.5C139.236 249.5 278.902 249.5 418.569 249.5C418.569 250.5 418.569 251.5 418.569 252.5C278.902 252.5 139.236 252.5 -0.431152 252.5C-0.431152 251.5 -0.431152 250.5 -0.431152 249.5Z" fill="#727372"/>
<path fill-rule="evenodd" clip-rule="evenodd" d="M-0.431152 255.5C139.236 255.5 278.902 255.5 418.569 255.5C418.569 256.5 418.569 257.5 418.569 258.5C278.902 258.5 139.236 258.5 -0.431152 258.5C-0.431152 257.5 -0.431152 256.5 -0.431152 255.5Z" fill="#727372"/>
<path fill-rule="evenodd" clip-rule="evenodd" d="M-0.431152 262.5C139.236 262.5 278.902 262.5 418.569 262.5C418.569 263.5 418.569 264.5 418.569 265.5C278.902 265.5 139.236 265.5 -0.431152 265.5C-0.431152 264.5 -0.431152 263.5 -0.431152 262.5Z" fill="#727372"/>
<path fill-rule="evenodd" clip-rule="evenodd" d="M-0.431152 268.5C139.236 268.5 278.902 268.5 418.569 268.5C418.569 269.5 418.569 270.5 418.569 271.5C278.902 271.5 139.236 271.5 -0.431152 271.5C-0.431152 270.5 -0.431152 269.5 -0.431152 268.5Z" fill="#727372"/>
<path fill-rule="evenodd" clip-rule="evenodd" d="M-0.431152 275.5C139.236 275.5 278.902 275.5 418.569 275.5C418.569 276.5 418.569 277.5 418.569 278.5C278.902 278.5 139.236 278.5 -0.431152 278.5C-0.431152 277.5 -0.431152 276.5 -0.431152 275.5Z" fill="#727372"/>
<path fill-rule="evenodd" clip-rule="evenodd" d="M-0.431152 281.5C139.236 281.5 278.902 281.5 418.569 281.5C418.569 282.5 418.569 283.5 418.569 284.5C278.902 284.5 139.236 284.5 -0.431152 284.5C-0.431152 283.5 -0.431152 282.5 -0.431152 281.5Z" fill="#727372"/>
<path fill-rule="evenodd" clip-rule="evenodd" d="M-0.431152 288.5C139.236 288.5 278.902 288.5 418.569 288.5C418.569 289.5 418.569 290.5 418.569 291.5C278.902 291.5 139.236 291.5 -0.431152 291.5C-0.431152 290.5 -0.431152 289.5 -0.431152 288.5Z" fill="#727372"/>
<path fill-rule="evenodd" clip-rule="evenodd" d="M-0.431152 294.5C139.236 294.5 278.902 294.5 418.569 294.5C418.569 295.5 418.569 296.5 418.569 297.5C278.902 297.5 139.236 297.5 -0.431152 297.5C-0.431152 296.5 -0.431152 295.5 -0.431152 294.5Z" fill="#727372"/>
<path fill-rule="evenodd" clip-rule="evenodd" d="M-0.431152 301.5C139.236 301.5 278.902 301.5 418.569 301.5C418.569 302.5 418.569 303.5 418.569 304.5C278.902 304.5 139.236 304.5 -0.431152 304.5C-0.431152 303.5 -0.431152 302.5 -0.431152 301.5Z" fill="#727372"/>
<path fill-rule="evenodd" clip-rule="evenodd" d="M-0.431152 307.5C139.236 307.5 278.902 307.5 418.569 307.5C418.569 308.5 418.569 309.5 418.569 310.5C278.902 310.5 139.236 310.5 -0.431152 310.5C-0.431152 309.5 -0.431152 308.5 -0.431152 307.5Z" fill="#727372"/>
<path fill-rule="evenodd" clip-rule="evenodd" d="M-0.431152 314.5C139.236 314.5 278.902 314.5 418.569 314.5C418.569 315.5 418.569 316.5 418.569 317.5C278.902 317.5 139.236 317.5 -0.431152 317.5C-0.431152 316.5 -0.431152 315.5 -0.431152 314.5Z" fill="#727372"/>
<path fill-rule="evenodd" clip-rule="evenodd" d="M-0.431152 320.5C139.236 320.5 278.902 320.5 418.569 320.5C418.569 321.5 418.569 322.5 418.569 323.5C278.902 323.5 139.236 323.5 -0.431152 323.5C-0.431152 322.5 -0.431152 321.5 -0.431152 320.5Z" fill="#727372"/>
<path fill-rule="evenodd" clip-rule="evenodd" d="M-0.431152 327.5C139.236 327.5 278.902 327.5 418.569 327.5C418.569 328.5 418.569 329.5 418.569 330.5C278.902 330.5 139.236 330.5 -0.431152 330.5C-0.431152 329.5 -0.431152 328.5 -0.431152 327.5Z" fill="#727372"/>
<path fill-rule="evenodd" clip-rule="evenodd" d="M-0.431152 333.5C139.236 333.5 278.902 333.5 418.569 333.5C418.569 334.5 418.569 335.5 418.569 336.5C278.902 336.5 139.236 336.5 -0.431152 336.5C-0.431152 335.5 -0.431152 334.5 -0.431152 333.5Z" fill="#727372"/>
<path fill-rule="evenodd" clip-rule="evenodd" d="M-0.431152 340.5C139.236 340.5 278.902 340.5 418.569 340.5C418.569 341.5 418.569 342.5 418.569 343.5C278.902 343.5 139.236 343.5 -0.431152 343.5C-0.431152 342.5 -0.431152 341.5 -0.431152 340.5Z" fill="#727372"/>
<path fill-rule="evenodd" clip-rule="evenodd" d="M-0.431152 346.5C139.236 346.5 278.902 346.5 418.569 346.5C418.569 347.5 418.569 348.5 418.569 349.5C278.902 349.5 139.236 349.5 -0.431152 349.5C-0.431152 348.5 -0.431152 347.5 -0.431152 346.5Z" fill="#727372"/>
<path fill-rule="evenodd" clip-rule="evenodd" d="M-0.431152 353.5C139.236 353.5 278.902 353.5 418.569 353.5C418.569 354.5 418.569 355.5 418.569 356.5C278.902 356.5 139.236 356.5 -0.431152 356.5C-0.431152 355.5 -0.431152 354.5 -0.431152 353.5Z" fill="#727372"/>
<path fill-rule="evenodd" clip-rule="evenodd" d="M-0.431152 359.5C139.236 359.5 278.902 359.5 418.569 359.5C418.569 360.5 418.569 361.5 418.569 362.5C278.902 362.5 139.236 362.5 -0.431152 362.5C-0.431152 361.5 -0.431152 360.5 -0.431152 359.5Z" fill="#727372"/>
<path fill-rule="evenodd" clip-rule="evenodd" d="M-0.431152 366.5C139.236 366.5 278.902 366.5 418.569 366.5C418.569 367.5 418.569 368.5 418.569 369.5C278.902 369.5 139.236 369.5 -0.431152 369.5C-0.431152 368.5 -0.431152 367.5 -0.431152 366.5Z" fill="#727372"/>
<path fill-rule="evenodd" clip-rule="evenodd" d="M-0.431152 372.5C139.236 372.5 278.902 372.5 418.569 372.5C418.569 373.5 418.569 374.5 418.569 375.5C278.902 375.5 139.236 375.5 -0.431152 375.5C-0.431152 374.5 -0.431152 373.5 -0.431152 372.5Z" fill="#727372"/>
<path fill-rule="evenodd" clip-rule="evenodd" d="M-0.431152 379.5C139.236 379.5 278.902 379.5 418.569 379.5C418.569 380.5 418.569 381.5 418.569 382.5C278.902 382.5 139.236 382.5 -0.431152 382.5C-0.431152 381.5 -0.431152 380.5 -0.431152 379.5Z" fill="#727372"/>
<path fill-rule="evenodd" clip-rule="evenodd" d="M-0.431152 385.5C139.236 385.5 278.902 385.5 418.569 385.5C418.569 386.5 418.569 387.5 418.569 388.5C278.902 388.5 139.236 388.5 -0.431152 388.5C-0.431152 387.5 -0.431152 386.5 -0.431152 385.5Z" fill="#727372"/>
<path fill-rule="evenodd" clip-rule="evenodd" d="M-0.431152 392.5C139.236 392.5 278.902 392.5 418.569 392.5C418.569 393.5 418.569 394.5 418.569 395.5C278.902 395.5 139.236 395.5 -0.431152 395.5C-0.431152 394.5 -0.431152 393.5 -0.431152 392.5Z" fill="#727372"/>
<path fill-rule="evenodd" clip-rule="evenodd" d="M-0.431152 398.5C139.236 398.5 278.902 398.5 418.569 398.5C418.569 399.5 418.569 400.5 418.569 401.5C278.902 401.5 139.236 401.5 -0.431152 401.5C-0.431152 400.5 -0.431152 399.5 -0.431152 398.5Z" fill="#727372"/>
<path fill-rule="evenodd" clip-rule="evenodd" d="M-0.431152 405.5C139.236 405.5 278.902 405.5 418.569 405.5C418.569 406.5 418.569 407.5 418.569 408.5C278.902 408.5 139.236 408.5 -0.431152 408.5C-0.431152 407.5 -0.431152 406.5 -0.431152 405.5Z" fill="#727372"/>
<path fill-rule="evenodd" clip-rule="evenodd" d="M-0.431152 411.5C139.236 411.5 278.902 411.5 418.569 411.5C418.569 412.5 418.569 413.5 418.569 414.5C278.902 414.5 139.236 414.5 -0.431152 414.5C-0.431152 413.5 -0.431152 412.5 -0.431152 411.5Z" fill="#727372"/>
<path fill-rule="evenodd" clip-rule="evenodd" d="M-0.431152 418.5C139.236 418.5 278.902 418.5 418.569 418.5C418.569 419.5 418.569 420.5 418.569 421.5C278.902 421.5 139.236 421.5 -0.431152 421.5C-0.431152 420.5 -0.431152 419.5 -0.431152 418.5Z" fill="#727372"/>
<path fill-rule="evenodd" clip-rule="evenodd" d="M-0.431152 424.5C139.236 424.5 278.902 424.5 418.569 424.5C418.569 425.5 418.569 426.5 418.569 427.5C278.902 427.5 139.236 427.5 -0.431152 427.5C-0.431152 426.5 -0.431152 425.5 -0.431152 424.5Z" fill="#727372"/>
<path fill-rule="evenodd" clip-rule="evenodd" d="M-0.431152 431.5C139.236 431.5 278.902 431.5 418.569 431.5C418.569 432.5 418.569 433.5 418.569 434.5C278.902 434.5 139.236 434.5 -0.431152 434.5C-0.431152 433.5 -0.431152 432.5 -0.431152 431.5Z" fill="#727372"/>
<path fill-rule="evenodd" clip-rule="evenodd" d="M-0.431152 437.5C139.236 437.5 278.902 437.5 418.569 437.5C418.569 438.5 418.569 439.5 418.569 440.5C278.902 440.5 139.236 440.5 -0.431152 440.5C-0.431152 439.5 -0.431152 438.5 -0.431152 437.5Z" fill="#727372"/>
<path fill-rule="evenodd" clip-rule="evenodd" d="M-0.431152 444.5C139.236 444.5 278.902 444.5 418.569 444.5C418.569 445.5 418.569 446.5 418.569 447.5C278.902 447.5 139.236 447.5 -0.431152 447.5C-0.431152 446.5 -0.431152 445.5 -0.431152 444.5Z" fill="#727372"/>
<path fill-rule="evenodd" clip-rule="evenodd" d="M-0.431152 450.5C139.236 450.5 278.902 450.5 418.569 450.5C418.569 451.5 418.569 452.5 418.569 453.5C278.902 453.5 139.236 453.5 -0.431152 453.5C-0.431152 452.5 -0.431152 451.5 -0.431152 450.5Z" fill="#727372"/>
<path fill-rule="evenodd" clip-rule="evenodd" d="M-0.431152 457.5C139.236 457.5 278.902 457.5 418.569 457.5C418.569 458.5 418.569 459.5 418.569 460.5C278.902 460.5 139.236 460.5 -0.431152 460.5C-0.431152 459.5 -0.431152 458.5 -0.431152 457.5Z" fill="#727372"/>
<path fill-rule="evenodd" clip-rule="evenodd" d="M-0.431152 463.5C139.236 463.5 278.902 463.5 418.569 463.5C418.569 464.5 418.569 465.5 418.569 466.5C278.902 466.5 139.236 466.5 -0.431152 466.5C-0.431152 465.5 -0.431152 464.5 -0.431152 463.5Z" fill="#727372"/>
<path fill-rule="evenodd" clip-rule="evenodd" d="M-0.431152 470.5C139.236 470.5 278.902 470.5 418.569 470.5C418.569 471.5 418.569 472.5 418.569 473.5C278.902 473.5 139.236 473.5 -0.431152 473.5C-0.431152 472.5 -0.431152 471.5 -0.431152 470.5Z" fill="#727372"/>
<path fill-rule="evenodd" clip-rule="evenodd" d="M-0.431152 476.5C139.236 476.5 278.902 476.5 418.569 476.5C418.569 477.5 418.569 478.5 418.569 479.5C278.902 479.5 139.236 479.5 -0.431152 479.5C-0.431152 478.5 -0.431152 477.5 -0.431152 476.5Z" fill="#727372"/>
<path fill-rule="evenodd" clip-rule="evenodd" d="M-0.431152 483.5C139.236 483.5 278.902 483.5 418.569 483.5C418.569 484.5 418.569 485.5 418.569 486.5C278.902 486.5 139.236 486.5 -0.431152 486.5C-0.431152 485.5 -0.431152 484.5 -0.431152 483.5Z" fill="#727372"/>
<path fill-rule="evenodd" clip-rule="evenodd" d="M-0.431152 489.5C139.236 489.5 278.902 489.5 418.569 489.5C418.569 490.5 418.569 491.5 418.569 492.5C278.902 492.5 139.236 492.5 -0.431152 492.5C-0.431152 491.5 -0.431152 490.5 -0.431152 489.5Z" fill="#727372"/>
<path fill-rule="evenodd" clip-rule="evenodd" d="M-0.431152 496.5C139.236 496.5 278.902 496.5 418.569 496.5C418.569 497.5 418.569 498.5 418.569 499.5C278.902 499.5 139.236 499.5 -0.431152 499.5C-0.431152 498.5 -0.431152 497.5 -0.431152 496.5Z" fill="#727372"/>
<path fill-rule="evenodd" clip-rule="evenodd" d="M-0.431152 502.5C139.236 502.5 278.902 502.5 418.569 502.5C418.569 503.5 418.569 504.5 418.569 505.5C278.902 505.5 139.236 505.5 -0.431152 505.5C-0.431152 504.5 -0.431152 503.5 -0.431152 502.5Z" fill="#727372"/>
<path fill-rule="evenodd" clip-rule="evenodd" d="M-0.431152 509.5C139.236 509.5 278.902 509.5 418.569 509.5C418.569 510.5 418.569 511.5 418.569 512.5C278.902 512.5 139.236 512.5 -0.431152 512.5C-0.431152 511.5 -0.431152 510.5 -0.431152 509.5Z" fill="#727372"/>
<path fill-rule="evenodd" clip-rule="evenodd" d="M-0.431152 515.5C139.236 515.5 278.902 515.5 418.569 515.5C418.569 516.5 418.569 517.5 418.569 518.5C278.902 518.5 139.236 518.5 -0.431152 518.5C-0.431152 517.5 -0.431152 516.5 -0.431152 515.5Z" fill="#727372"/>
<path fill-rule="evenodd" clip-rule="evenodd" d="M-0.431152 522.5C139.236 522.5 278.902 522.5 418.569 522.5C418.569 523.5 418.569 524.5 418.569 525.5C278.902 525.5 139.236 525.5 -0.431152 525.5C-0.431152 524.5 -0.431152 523.5 -0.431152 522.5Z" fill="#727372"/>
<path fill-rule="evenodd" clip-rule="evenodd" d="M-0.431152 528.5C139.236 528.5 278.902 528.5 418.569 528.5C418.569 529.5 418.569 530.5 418.569 531.5C278.902 531.5 139.236 531.5 -0.431152 531.5C-0.431152 530.5 -0.431152 529.5 -0.431152 528.5Z" fill="#727372"/>
<path fill-rule="evenodd" clip-rule="evenodd" d="M-0.431152 535.5C139.236 535.5 278.902 535.5 418.569 535.5C418.569 536.5 418.569 537.5 418.569 538.5C278.902 538.5 139.236 538.5 -0.431152 538.5C-0.431152 537.5 -0.431152 536.5 -0.431152 535.5Z" fill="#727372"/>
<path fill-rule="evenodd" clip-rule="evenodd" d="M-0.431152 541.5C139.236 541.5 278.902 541.5 418.569 541.5C418.569 542.5 418.569 543.5 418.569 544.5C278.902 544.5 139.236 544.5 -0.431152 544.5C-0.431152 543.5 -0.431152 542.5 -0.431152 541.5Z" fill="#727372"/>
<path fill-rule="evenodd" clip-rule="evenodd" d="M-0.431152 548.5C139.236 548.5 278.902 548.5 418.569 548.5C418.569 549.5 418.569 550.5 418.569 551.5C278.902 551.5 139.236 551.5 -0.431152 551.5C-0.431152 550.5 -0.431152 549.5 -0.431152 548.5Z" fill="#727372"/>
<path fill-rule="evenodd" clip-rule="evenodd" d="M-0.431152 554.5C139.236 554.5 278.902 554.5 418.569 554.5C418.569 555.5 418.569 556.5 418.569 557.5C278.902 557.5 139.236 557.5 -0.431152 557.5C-0.431152 556.5 -0.431152 555.5 -0.431152 554.5Z" fill="#727372"/>
<path fill-rule="evenodd" clip-rule="evenodd" d="M-0.431152 561.5C139.236 561.5 278.902 561.5 418.569 561.5C418.569 562.5 418.569 563.5 418.569 564.5C278.902 564.5 139.236 564.5 -0.431152 564.5C-0.431152 563.5 -0.431152 562.5 -0.431152 561.5Z" fill="#727372"/>
<path fill-rule="evenodd" clip-rule="evenodd" d="M-0.431152 567.5C139.236 567.5 278.902 567.5 418.569 567.5C418.569 568.5 418.569 569.5 418.569 570.5C278.902 570.5 139.236 570.5 -0.431152 570.5C-0.431152 569.5 -0.431152 568.5 -0.431152 567.5Z" fill="#727372"/>
<path fill-rule="evenodd" clip-rule="evenodd" d="M-0.431152 574.5C139.236 574.5 278.902 574.5 418.569 574.5C418.569 575.5 418.569 576.5 418.569 577.5C278.902 577.5 139.236 577.5 -0.431152 577.5C-0.431152 576.5 -0.431152 575.5 -0.431152 574.5Z" fill="#727372"/>
<path fill-rule="evenodd" clip-rule="evenodd" d="M-0.431152 580.5C139.236 580.5 278.902 580.5 418.569 580.5C418.569 581.5 418.569 582.5 418.569 583.5C278.902 583.5 139.236 583.5 -0.431152 583.5C-0.431152 582.5 -0.431152 581.5 -0.431152 580.5Z" fill="#727372"/>
<path fill-rule="evenodd" clip-rule="evenodd" d="M-0.431152 587.5C139.236 587.5 278.902 587.5 418.569 587.5C418.569 588.5 418.569 589.5 418.569 590.5C278.902 590.5 139.236 590.5 -0.431152 590.5C-0.431152 589.5 -0.431152 588.5 -0.431152 587.5Z" fill="#727372"/>
<path fill-rule="evenodd" clip-rule="evenodd" d="M-0.431152 593.5C139.236 593.5 278.902 593.5 418.569 593.5C418.569 594.5 418.569 595.5 418.569 596.5C278.902 596.5 139.236 596.5 -0.431152 596.5C-0.431152 595.5 -0.431152 594.5 -0.431152 593.5Z" fill="#727372"/>
<path fill-rule="evenodd" clip-rule="evenodd" d="M-0.431152 600.5C139.236 600.5 278.902 600.5 418.569 600.5C418.569 601.5 418.569 602.5 418.569 603.5C278.902 603.5 139.236 603.5 -0.431152 603.5C-0.431152 602.5 -0.431152 601.5 -0.431152 600.5Z" fill="#727372"/>
<path fill-rule="evenodd" clip-rule="evenodd" d="M-0.431152 606.5C139.236 606.5 278.902 606.5 418.569 606.5C418.569 607.5 418.569 608.5 418.569 609.5C278.902 609.5 139.236 609.5 -0.431152 609.5C-0.431152 608.5 -0.431152 607.5 -0.431152 606.5Z" fill="#727372"/>
<path fill-rule="evenodd" clip-rule="evenodd" d="M-0.431152 613.5C139.236 613.5 278.902 613.5 418.569 613.5C418.569 614.5 418.569 615.5 418.569 616.5C278.902 616.5 139.236 616.5 -0.431152 616.5C-0.431152 615.5 -0.431152 614.5 -0.431152 613.5Z" fill="#727372"/>
<path fill-rule="evenodd" clip-rule="evenodd" d="M-0.431152 619.5C139.236 619.5 278.902 619.5 418.569 619.5C418.569 620.5 418.569 621.5 418.569 622.5C278.902 622.5 139.236 622.5 -0.431152 622.5C-0.431152 621.5 -0.431152 620.5 -0.431152 619.5Z" fill="#727372"/>
<path fill-rule="evenodd" clip-rule="evenodd" d="M-0.431152 626.5C139.236 626.5 278.902 626.5 418.569 626.5C418.569 627.5 418.569 628.5 418.569 629.5C278.902 629.5 139.236 629.5 -0.431152 629.5C-0.431152 628.5 -0.431152 627.5 -0.431152 626.5Z" fill="#727372"/>
<path fill-rule="evenodd" clip-rule="evenodd" d="M-0.431152 632.5C139.236 632.5 278.902 632.5 418.569 632.5C418.569 633.5 418.569 634.5 418.569 635.5C278.902 635.5 139.236 635.5 -0.431152 635.5C-0.431152 634.5 -0.431152 633.5 -0.431152 632.5Z" fill="#727372"/>
<path fill-rule="evenodd" clip-rule="evenodd" d="M-0.431152 639.5C139.236 639.5 278.902 639.5 418.569 639.5C418.569 640.5 418.569 641.5 418.569 642.5C278.902 642.5 139.236 642.5 -0.431152 642.5C-0.431152 641.5 -0.431152 640.5 -0.431152 639.5Z" fill="#727372"/>
<path fill-rule="evenodd" clip-rule="evenodd" d="M-0.431152 645.5C139.236 645.5 278.902 645.5 418.569 645.5C418.569 646.5 418.569 647.5 418.569 648.5C278.902 648.5 139.236 648.5 -0.431152 648.5C-0.431152 647.5 -0.431152 646.5 -0.431152 645.5Z" fill="#727372"/>
<path fill-rule="evenodd" clip-rule="evenodd" d="M-0.431152 652.5C139.236 652.5 278.902 652.5 418.569 652.5C418.569 653.5 418.569 654.5 418.569 655.5C278.902 655.5 139.236 655.5 -0.431152 655.5C-0.431152 654.5 -0.431152 653.5 -0.431152 652.5Z" fill="#727372"/>
<path fill-rule="evenodd" clip-rule="evenodd" d="M-0.431152 658.5C139.236 658.5 278.902 658.5 418.569 658.5C418.569 659.5 418.569 660.5 418.569 661.5C278.902 661.5 139.236 661.5 -0.431152 661.5C-0.431152 660.5 -0.431152 659.5 -0.431152 658.5Z" fill="#727372"/>
<path fill-rule="evenodd" clip-rule="evenodd" d="M-0.431152 665.5C139.236 665.5 278.902 665.5 418.569 665.5C418.569 666.5 418.569 667.5 418.569 668.5C278.902 668.5 139.236 668.5 -0.431152 668.5C-0.431152 667.5 -0.431152 666.5 -0.431152 665.5Z" fill="#727372"/>
<path fill-rule="evenodd" clip-rule="evenodd" d="M-0.431152 671.5C139.236 671.5 278.902 671.5 418.569 671.5C418.569 672.5 418.569 673.5 418.569 674.5C278.902 674.5 139.236 674.5 -0.431152 674.5C-0.431152 673.5 -0.431152 672.5 -0.431152 671.5Z" fill="#727372"/>
<path fill-rule="evenodd" clip-rule="evenodd" d="M-0.431152 678.5C139.236 678.5 278.902 678.5 418.569 678.5C418.569 679.5 418.569 680.5 418.569 681.5C278.902 681.5 139.236 681.5 -0.431152 681.5C-0.431152 680.5 -0.431152 679.5 -0.431152 678.5Z" fill="#727372"/>
<path fill-rule="evenodd" clip-rule="evenodd" d="M-0.431152 684.5C139.236 684.5 278.902 684.5 418.569 684.5C418.569 685.5 418.569 686.5 418.569 687.5C278.902 687.5 139.236 687.5 -0.431152 687.5C-0.431152 686.5 -0.431152 685.5 -0.431152 684.5Z" fill="#727372"/>
<path fill-rule="evenodd" clip-rule="evenodd" d="M-0.431152 691.5C139.236 691.5 278.902 691.5 418.569 691.5C418.569 692.5 418.569 693.5 418.569 694.5C278.902 694.5 139.236 694.5 -0.431152 694.5C-0.431152 693.5 -0.431152 692.5 -0.431152 691.5Z" fill="#727372"/>
<path fill-rule="evenodd" clip-rule="evenodd" d="M-0.431152 697.5C139.236 697.5 278.902 697.5 418.569 697.5C418.569 698.5 418.569 699.5 418.569 700.5C278.902 700.5 139.236 700.5 -0.431152 700.5C-0.431152 699.5 -0.431152 698.5 -0.431152 697.5Z" fill="#727372"/>
<path fill-rule="evenodd" clip-rule="evenodd" d="M-0.431152 704.5C139.236 704.5 278.902 704.5 418.569 704.5C418.569 705.5 418.569 706.5 418.569 707.5C278.902 707.5 139.236 707.5 -0.431152 707.5C-0.431152 706.5 -0.431152 705.5 -0.431152 704.5Z" fill="#727372"/>
<path fill-rule="evenodd" clip-rule="evenodd" d="M-0.431152 710.5C139.236 710.5 278.902 710.5 418.569 710.5C418.569 711.5 418.569 712.5 418.569 713.5C278.902 713.5 139.236 713.5 -0.431152 713.5C-0.431152 712.5 -0.431152 711.5 -0.431152 710.5Z" fill="#727372"/>
<path fill-rule="evenodd" clip-rule="evenodd" d="M-0.431152 717.5C139.236 717.5 278.902 717.5 418.569 717.5C418.569 718.5 418.569 719.5 418.569 720.5C278.902 720.5 139.236 720.5 -0.431152 720.5C-0.431152 719.5 -0.431152 718.5 -0.431152 717.5Z" fill="#727372"/>
<path fill-rule="evenodd" clip-rule="evenodd" d="M-0.431152 723.5C139.236 723.5 278.902 723.5 418.569 723.5C418.569 724.5 418.569 725.5 418.569 726.5C278.902 726.5 139.236 726.5 -0.431152 726.5C-0.431152 725.5 -0.431152 724.5 -0.431152 723.5Z" fill="#727372"/>
<path fill-rule="evenodd" clip-rule="evenodd" d="M-0.431152 730.5C139.236 730.5 278.902 730.5 418.569 730.5C418.569 731.5 418.569 732.5 418.569 733.5C278.902 733.5 139.236 733.5 -0.431152 733.5C-0.431152 732.5 -0.431152 731.5 -0.431152 730.5Z" fill="#727372"/>
<path fill-rule="evenodd" clip-rule="evenodd" d="M-0.431152 736.5C139.236 736.5 278.902 736.5 418.569 736.5C418.569 737.5 418.569 738.5 418.569 739.5C278.902 739.5 139.236 739.5 -0.431152 739.5C-0.431152 738.5 -0.431152 737.5 -0.431152 736.5Z" fill="#727372"/>
<path fill-rule="evenodd" clip-rule="evenodd" d="M-0.431152 743.5C139.236 743.5 278.902 743.5 418.569 743.5C418.569 744.5 418.569 745.5 418.569 746.5C278.902 746.5 139.236 746.5 -0.431152 746.5C-0.431152 745.5 -0.431152 744.5 -0.431152 743.5Z" fill="#727372"/>
<path fill-rule="evenodd" clip-rule="evenodd" d="M-0.431152 749.5C139.236 749.5 278.902 749.5 418.569 749.5C418.569 750.5 418.569 751.5 418.569 752.5C278.902 752.5 139.236 752.5 -0.431152 752.5C-0.431152 751.5 -0.431152 750.5 -0.431152 749.5Z" fill="#727372"/>
<path fill-rule="evenodd" clip-rule="evenodd" d="M-0.431152 756.5C139.236 756.5 278.902 756.5 418.569 756.5C418.569 757.5 418.569 758.5 418.569 759.5C278.902 759.5 139.236 759.5 -0.431152 759.5C-0.431152 758.5 -0.431152 757.5 -0.431152 756.5Z" fill="#727372"/>
<path fill-rule="evenodd" clip-rule="evenodd" d="M-0.431152 762.5C139.236 762.5 278.902 762.5 418.569 762.5C418.569 763.5 418.569 764.5 418.569 765.5C278.902 765.5 139.236 765.5 -0.431152 765.5C-0.431152 764.5 -0.431152 763.5 -0.431152 762.5Z" fill="#727372"/>
<path fill-rule="evenodd" clip-rule="evenodd" d="M-0.431152 769.5C139.236 769.5 278.902 769.5 418.569 769.5C418.569 770.5 418.569 771.5 418.569 772.5C278.902 772.5 139.236 772.5 -0.431152 772.5C-0.431152 771.5 -0.431152 770.5 -0.431152 769.5Z" fill="#727372"/>
<path fill-rule="evenodd" clip-rule="evenodd" d="M-0.431152 775.5C139.236 775.5 278.902 775.5 418.569 775.5C418.569 776.5 418.569 777.5 418.569 778.5C278.902 778.5 139.236 778.5 -0.431152 778.5C-0.431152 777.5 -0.431152 776.5 -0.431152 775.5Z" fill="#727372"/>
<path fill-rule="evenodd" clip-rule="evenodd" d="M-0.431152 782.5C139.236 782.5 278.902 782.5 418.569 782.5C418.569 783.5 418.569 784.5 418.569 785.5C278.902 785.5 139.236 785.5 -0.431152 785.5C-0.431152 784.5 -0.431152 783.5 -0.431152 782.5Z" fill="#727372"/>
<path fill-rule="evenodd" clip-rule="evenodd" d="M-0.431152 788.5C139.236 788.5 278.902 788.5 418.569 788.5C418.569 789.5 418.569 790.5 418.569 791.5C278.902 791.5 139.236 791.5 -0.431152 791.5C-0.431152 790.5 -0.431152 789.5 -0.431152 788.5Z" fill="#727372"/>
<path fill-rule="evenodd" clip-rule="evenodd" d="M-0.431152 795.5C139.236 795.5 278.902 795.5 418.569 795.5C418.569 796.5 418.569 797.5 418.569 798.5C278.902 798.5 139.236 798.5 -0.431152 798.5C-0.431152 797.5 -0.431152 796.5 -0.431152 795.5Z" fill="#727372"/>
<path fill-rule="evenodd" clip-rule="evenodd" d="M-0.431152 801.5C139.236 801.5 278.902 801.5 418.569 801.5C418.569 802.5 418.569 803.5 418.569 804.5C278.902 804.5 139.236 804.5 -0.431152 804.5C-0.431152 803.5 -0.431152 802.5 -0.431152 801.5Z" fill="#727372"/>
<path fill-rule="evenodd" clip-rule="evenodd" d="M-0.431152 808.5C139.236 808.5 278.902 808.5 418.569 808.5C418.569 809.5 418.569 810.5 418.569 811.5C278.902 811.5 139.236 811.5 -0.431152 811.5C-0.431152 810.5 -0.431152 809.5 -0.431152 808.5Z" fill="#727372"/>
<path fill-rule="evenodd" clip-rule="evenodd" d="M-0.431152 814.5C139.236 814.5 278.902 814.5 418.569 814.5C418.569 815.5 418.569 816.5 418.569 817.5C278.902 817.5 139.236 817.5 -0.431152 817.5C-0.431152 816.5 -0.431152 815.5 -0.431152 814.5Z" fill="#727372"/>
<path fill-rule="evenodd" clip-rule="evenodd" d="M-0.431152 822.5C139.236 822.5 278.902 822.5 418.569 822.5C418.569 823.5 418.569 824.5 418.569 825.5C278.902 825.5 139.236 825.5 -0.431152 825.5C-0.431152 824.5 -0.431152 823.5 -0.431152 822.5Z" fill="#727372"/>
<path fill-rule="evenodd" clip-rule="evenodd" d="M-0.431152 827.5C139.236 827.5 278.902 827.5 418.569 827.5C418.569 828.5 418.569 829.5 418.569 830.5C278.902 830.5 139.236 830.5 -0.431152 830.5C-0.431152 829.5 -0.431152 828.5 -0.431152 827.5Z" fill="#727372"/>
</g>
<defs>
<clipPath id="clip0_340_1969">
<rect width="419" height="849" fill="white"/>
</clipPath>
</defs>
</svg>
