<svg width="87" height="30" viewBox="0 0 87 30" fill="none" xmlns="http://www.w3.org/2000/svg"
 preserveAspectRatio="none">
<g clip-path="url(#clip0_433_3)">
<path d="M86.7805 0L87 0.10107V24.6722C85.3026 26.5353 83.4943 28.3112 81.5752 30H0.13435L0 29.8941V5.31979C1.69194 3.46738 3.50239 1.69412 5.43136 0H86.7805ZM30.6876 28.8947C47.2301 28.8947 63.7743 28.8963 80.3202 28.8995C80.7757 28.8995 81.1574 28.9091 81.4851 28.5866C82.8144 27.2807 84.201 25.923 85.645 24.5134C85.9383 24.2278 85.8744 23.6005 85.8728 23.1016C85.8575 15.9754 85.8564 8.71444 85.8695 1.31872C85.8695 1.29301 85.8643 1.26756 85.8543 1.24382C85.8442 1.22007 85.8295 1.19849 85.8109 1.18032C85.7924 1.16215 85.7704 1.14773 85.7461 1.13789C85.7218 1.12806 85.6959 1.12299 85.6696 1.12299L30.4402 1.12781C22.508 1.1246 14.5868 1.12299 6.67655 1.12299C6.18175 1.12299 5.81966 1.09412 5.43627 1.47273C4.00429 2.88342 2.67335 4.18663 1.44345 5.38235C1.2239 5.59572 1.12887 5.82995 1.12887 6.13155C1.12232 13.4631 1.1245 20.9786 1.13542 28.6781C1.13542 28.8 1.19714 28.861 1.32057 28.861L30.6876 28.8947Z" fill="url(#paint0_linear_433_3)"/>
<path d="M30.4402 1.12776C30.6336 1.22508 30.6904 1.53043 30.6106 2.0438C30.1683 2.16786 29.7745 2.22989 29.4293 2.22989C21.9822 2.22134 14.3684 2.22294 6.58814 2.23471C6.42023 2.23464 6.25887 2.2998 6.13921 2.41599C5.00324 3.52615 3.87874 4.62241 2.76571 5.70476C2.63245 5.83417 2.51176 5.96893 2.40362 6.10904C2.37085 6.15182 2.35283 6.19995 2.34955 6.25342C2.31678 6.80102 2.29931 7.35182 2.29712 7.90583C2.272 14.1475 2.27255 20.4823 2.29876 26.9101C2.29985 27.1176 2.30586 27.3288 2.31678 27.5438C2.31931 27.5936 2.34131 27.6405 2.37821 27.6749C2.41512 27.7092 2.46411 27.7284 2.51503 27.7283C11.2609 27.7283 20.0122 27.7267 28.769 27.7235C29.3873 27.7235 30.0066 27.7588 30.627 27.8294L30.6876 28.8946L1.32063 28.8609C1.1972 28.8609 1.13548 28.7999 1.13548 28.678C1.12456 20.9786 1.12238 13.463 1.12893 6.1315C1.12893 5.82989 1.22396 5.59567 1.44351 5.3823C2.67341 4.18658 4.00435 2.88337 5.43633 1.47268C5.81972 1.09407 6.18181 1.12294 6.67661 1.12294C14.5869 1.12294 22.5081 1.12455 30.4402 1.12776Z" fill="#84721D"/>
<path d="M30.6876 28.8946L30.627 27.8293L30.6827 27.6416C31.1463 27.6882 31.6182 27.7395 32.0802 27.7395C48.1291 27.732 64.185 27.7336 80.2481 27.7443C80.5168 27.7443 80.7298 27.7684 80.9346 27.563C82.1645 26.3374 83.3775 25.132 84.5735 23.947C84.6348 23.8859 84.6715 23.8055 84.6767 23.7208C84.6986 23.4117 84.7095 23.0924 84.7095 22.763C84.6888 15.6379 84.6871 8.83897 84.7046 2.36624C84.7048 2.35241 84.7023 2.33868 84.6971 2.32584C84.6919 2.313 84.6842 2.30131 84.6745 2.29146C84.6647 2.2816 84.6531 2.27378 84.6402 2.26844C84.6274 2.2631 84.6136 2.26035 84.5997 2.26036L30.6859 2.2379L30.6106 2.04378C30.6903 1.53041 30.6335 1.22506 30.4402 1.12774L85.6696 1.12292C85.6959 1.12292 85.7219 1.12799 85.7461 1.13782C85.7704 1.14766 85.7924 1.16208 85.811 1.18025C85.8295 1.19842 85.8442 1.22 85.8543 1.24375C85.8643 1.26749 85.8695 1.29294 85.8695 1.31865C85.8564 8.71437 85.8575 15.9753 85.8728 23.1015C85.8744 23.6005 85.9383 24.2277 85.645 24.5133C84.201 25.9229 82.8144 27.2807 81.4851 28.5866C81.1574 28.909 80.7757 28.8994 80.3202 28.8994C63.7743 28.8962 47.2301 28.8946 30.6876 28.8946Z" fill="#84721D"/>
<path d="M30.6105 2.04382L30.6859 2.23794L30.6302 3.20051C30.1769 3.30425 29.7798 3.35612 29.439 3.35612C21.5375 3.35291 14.7146 3.34115 8.97028 3.32083C8.38154 3.31869 7.80646 3.37698 7.24503 3.49569C6.91188 3.56628 6.61205 3.72725 6.34554 3.97858C5.35047 4.91548 4.42804 5.8235 3.57825 6.70265C3.53783 6.74329 3.51435 6.79195 3.5078 6.84864C3.47394 7.12992 3.45701 7.41708 3.45701 7.71013C3.46028 14.1615 3.46192 20.3502 3.46192 26.2764C3.46185 26.3502 3.48954 26.4214 3.53972 26.4765C3.58989 26.5315 3.65902 26.5665 3.7339 26.5748C4.75627 26.6855 5.7983 26.6069 6.83378 26.6278C7.69669 26.6449 8.68793 26.654 9.80751 26.655C16.087 26.6615 22.3665 26.6599 28.646 26.6502C29.4827 26.6492 30.1441 26.7107 30.6302 26.8347L30.6826 27.6417L30.6269 27.8294C30.0065 27.7588 29.3872 27.7235 28.7689 27.7235C20.0121 27.7267 11.2608 27.7283 2.51492 27.7283C2.464 27.7284 2.41501 27.7092 2.3781 27.6749C2.34119 27.6406 2.31919 27.5936 2.31667 27.5438C2.30574 27.3288 2.29974 27.1176 2.29864 26.9101C2.27243 20.4823 2.27188 14.1476 2.29701 7.90585C2.29919 7.35184 2.31667 6.80104 2.34943 6.25345C2.35271 6.19997 2.37073 6.15184 2.4035 6.10906C2.51164 5.96896 2.63233 5.8342 2.76559 5.70479C3.87862 4.62243 5.00313 3.52618 6.1391 2.41602C6.25875 2.29983 6.42012 2.23466 6.58802 2.23473C14.3683 2.22297 21.9821 2.22136 29.4292 2.22992C29.7744 2.22992 30.1681 2.16789 30.6105 2.04382Z" fill="#B39714"/>
<path d="M30.6827 27.6417L30.6303 26.8347C30.6215 26.7417 30.6374 26.6625 30.6778 26.5973C31.2501 26.6187 31.8241 26.6299 32.3998 26.631C48.9718 26.6588 64.1348 26.6673 77.8888 26.6566C79.1799 26.6566 79.927 26.7336 80.7118 25.9668C81.4371 25.2609 82.1629 24.5459 82.8892 23.8219C83.3677 23.3454 83.5479 22.7727 83.5512 22.1245C83.5872 16.1342 83.5839 9.95396 83.5413 3.5839C83.5409 3.52504 83.5169 3.46874 83.4745 3.42726C83.4322 3.38579 83.3749 3.36252 83.3152 3.36251L30.6729 3.40262C30.6379 3.34059 30.6237 3.27321 30.6303 3.20048L30.686 2.23792L84.5997 2.26037C84.6137 2.26037 84.6274 2.26312 84.6403 2.26846C84.6531 2.2738 84.6647 2.28162 84.6745 2.29147C84.6842 2.30133 84.6919 2.31301 84.6971 2.32585C84.7023 2.33869 84.7048 2.35243 84.7046 2.36626C84.6871 8.83898 84.6888 15.6379 84.7095 22.763C84.7095 23.0925 84.6986 23.4117 84.6768 23.7208C84.6715 23.8056 84.6348 23.8859 84.5735 23.947C83.3775 25.132 82.1645 26.3374 80.9346 27.563C80.7298 27.7684 80.5168 27.7443 80.2481 27.7443C64.1851 27.7336 48.1291 27.732 32.0803 27.7395C31.6182 27.7395 31.1464 27.6882 30.6827 27.6417Z" fill="#B39714"/>
<path d="M30.6302 3.20044C30.6236 3.27317 30.6378 3.34055 30.6728 3.40258L30.6367 4.48065C23.4834 4.47958 16.3295 4.46675 9.17511 4.44215C8.64972 4.44001 8.15438 4.49509 7.68906 4.60739C7.38323 4.68012 7.11944 4.8213 6.89771 5.03092C6.43567 5.46942 5.94579 5.93787 5.42805 6.43627C4.76285 7.07638 4.57771 7.5352 4.57443 8.45605C4.55586 13.4924 4.56406 18.9566 4.59901 24.8486C4.59901 24.9897 4.60229 25.1384 4.60884 25.2946C4.61095 25.3499 4.63496 25.4023 4.67586 25.4409C4.71676 25.4794 4.7714 25.5012 4.82839 25.5015L30.6204 25.548L30.6777 26.5972C30.6373 26.6625 30.6215 26.7416 30.6302 26.8347C30.1441 26.7106 29.4828 26.6491 28.6461 26.6502C22.3666 26.6598 16.087 26.6614 9.80754 26.655C8.68795 26.6539 7.69671 26.6448 6.83381 26.6277C5.79833 26.6069 4.7563 26.6855 3.73392 26.5748C3.65905 26.5665 3.58992 26.5315 3.53974 26.4764C3.48957 26.4214 3.46187 26.3502 3.46195 26.2764C3.46195 20.3502 3.46031 14.1614 3.45703 7.71007C3.45703 7.41702 3.47396 7.12985 3.50782 6.84857C3.51438 6.79188 3.53786 6.74322 3.57827 6.70258C4.42807 5.82343 5.3505 4.91541 6.34556 3.97851C6.61208 3.72718 6.91191 3.56621 7.24505 3.49563C7.80649 3.37691 8.38157 3.31862 8.97031 3.32076C14.7146 3.34108 21.5375 3.35285 29.4391 3.35605C29.7799 3.35605 30.1769 3.30418 30.6302 3.20044Z" fill="#CCAF25"/>
<path d="M30.6777 26.5973L30.6204 25.5481L30.6761 25.4631C30.8006 25.4866 30.9251 25.4984 31.0496 25.4984C46.9772 25.4973 62.9043 25.4973 78.8308 25.4984C79.2617 25.4984 79.5681 25.4855 79.8974 25.1775C80.5648 24.554 81.2682 23.877 82.0077 23.1465C82.2917 22.8652 82.4348 22.5267 82.437 22.131C82.4632 15.9246 82.4523 10.1091 82.4042 4.68447C82.4038 4.63199 82.3822 4.58181 82.3441 4.54485C82.3061 4.50788 82.2546 4.48715 82.201 4.48715L30.7613 4.48554C30.7209 4.48554 30.6914 4.50533 30.6728 4.5449L30.6384 4.6203C30.6591 4.60105 30.6586 4.55453 30.6367 4.48073L30.6728 3.40266L83.3152 3.36255C83.3748 3.36255 83.4321 3.38583 83.4745 3.4273C83.5168 3.46877 83.5408 3.52508 83.5413 3.58394C83.5839 9.95399 83.5871 16.1342 83.5511 22.1246C83.5478 22.7727 83.3676 23.3454 82.8892 23.8219C82.1628 24.546 81.437 25.2609 80.7117 25.9668C79.9269 26.7337 79.1798 26.6567 77.8887 26.6567C64.1347 26.6674 48.9717 26.6588 32.3997 26.631C31.8241 26.6299 31.2501 26.6187 30.6777 26.5973Z" fill="#CCAF25"/>
<path d="M30.6369 4.4807C30.6588 4.5545 30.6593 4.60102 30.6386 4.62027L30.6762 25.4631L30.6205 25.5481L4.82856 25.5016C4.77157 25.5012 4.71694 25.4795 4.67603 25.4409C4.63513 25.4024 4.61112 25.35 4.60901 25.2946C4.60246 25.1385 4.59918 24.9898 4.59918 24.8486C4.56423 18.9566 4.55604 13.4925 4.5746 8.4561C4.57788 7.53525 4.76302 7.07642 5.42822 6.43632C5.94596 5.93792 6.43585 5.46947 6.89788 5.03097C7.11961 4.82134 7.3834 4.68017 7.68924 4.60744C8.15455 4.49514 8.6499 4.44006 9.17528 4.4422C16.3297 4.4668 23.4836 4.47963 30.6369 4.4807Z" fill="#C5A821"/>
<path d="M30.6761 25.463L30.6384 4.62023L30.6728 4.54483C30.6914 4.50526 30.7209 4.48547 30.7613 4.48547L82.2011 4.48708C82.2547 4.48708 82.3061 4.50781 82.3442 4.54478C82.3822 4.58174 82.4038 4.63192 82.4043 4.6844C82.4523 10.109 82.4632 15.9245 82.437 22.1309C82.4348 22.5266 82.2917 22.8652 82.0078 23.1464C81.2683 23.8769 80.5649 24.5539 79.8975 25.1775C79.5682 25.4855 79.2618 25.4983 78.8309 25.4983C62.9043 25.4972 46.9773 25.4972 31.0497 25.4983C30.9252 25.4983 30.8006 25.4865 30.6761 25.463Z" fill="#F9D323"/>
</g>
<defs>
<linearGradient id="paint0_linear_433_3" x1="48.5" y1="-6" x2="48.4333" y2="37.5007" gradientUnits="userSpaceOnUse">
<stop offset="0.00899963" stop-color="#FFD823"/>
<stop offset="1" stop-color="#CCAD1E"/>
</linearGradient>
<clipPath id="clip0_433_3">
<rect width="87" height="30" fill="white"/>
</clipPath>
</defs>
</svg>
