<svg width="840" height="160" viewBox="0 0 840 160" fill="none" xmlns="http://www.w3.org/2000/svg">
<path d="M87.05 0C87.1417 0.373333 87.2917 0.653333 87.5 0.84V159.267C87.25 159.462 87.0542 159.707 86.9125 160H0V36L35.7 0H87.05Z" fill="#151515"/>
<path d="M747.976 160C747.879 159.627 747.72 159.347 747.5 159.16L747.5 0.733328C747.764 0.537772 747.971 0.293324 748.121 -9.53674e-06L840 -9.53674e-06L840 124L802.26 160L747.976 160Z" fill="#151515"/>
<rect x="70" width="696" height="160" fill="#151515"/>
<path d="M87.0757 5C87.1621 5.35 87.3036 5.6125 87.5 5.7875V154.312C87.2643 154.496 87.0796 154.725 86.9461 155H5V38.75L38.66 5H87.0757Z" fill="#1D1C1D"/>
<path d="M747.95 155C747.858 154.65 747.708 154.387 747.5 154.212V5.6875C747.75 5.50417 747.946 5.27499 748.087 4.99999L835 4.99999L835 121.25L799.3 155L747.95 155Z" fill="#1D1C1D"/>
<rect x="70" y="5" width="696" height="150" fill="#1D1C1D"/>
</svg>
