  <svg
        width="100%"
        height="2rem"
        viewBox="0 0 87 30"
        fill="none"
        xmlns="http://www.w3.org/2000/svg"
        preserveAspectRatio="none"
      >
        <g clip-path="url(#clip0_331_3)">
          <path
            d="M30.6876 28.8946C47.2301 28.8946 63.7743 28.8962 80.3202 28.8995C80.7757 28.8995 81.1574 28.9091 81.4851 28.5866C82.8144 27.2807 84.201 25.923 85.645 24.5134C85.9383 24.2278 85.8744 23.6005 85.8728 23.1016C85.8575 15.9754 85.8564 8.71443 85.8695 1.31871C85.8695 1.29301 85.8643 1.26755 85.8543 1.24381C85.8442 1.22006 85.8295 1.19849 85.811 1.18031C85.7924 1.16214 85.7704 1.14772 85.7461 1.13788C85.7219 1.12805 85.6959 1.12299 85.6696 1.12299L30.4402 1.1278"
            stroke="#C7C7C7"
            stroke-width="2"
          />
          <path
            d="M30.4402 1.1278C22.5081 1.12459 14.5869 1.12299 6.67661 1.12299C6.18181 1.12299 5.81972 1.09411 5.43633 1.47272C4.00435 2.88342 2.67341 4.18662 1.44351 5.38235C1.22396 5.59572 1.12893 5.82994 1.12893 6.13154C1.12238 13.4631 1.12456 20.9786 1.13548 28.6781C1.13548 28.8 1.1972 28.861 1.32063 28.861L30.6876 28.8946"
            stroke="#B3B3B3"
            stroke-width="2"
          />
          <path
            d="M30.4402 1.12781C30.6335 1.22513 30.6903 1.53048 30.6106 2.04385"
            stroke="#7B7B7B"
            stroke-width="2"
          />
          <path
            d="M30.6106 2.04384C30.1683 2.1679 29.7745 2.22993 29.4293 2.22993C21.9822 2.22138 14.3684 2.22298 6.58814 2.23475C6.42024 2.23468 6.25887 2.29984 6.13922 2.41603C5.00325 3.52619 3.87875 4.62245 2.76571 5.7048C2.63246 5.83421 2.51176 5.96897 2.40362 6.10908C2.37086 6.15186 2.35283 6.19999 2.34956 6.25346C2.31679 6.80106 2.29931 7.35186 2.29713 7.90587C2.27201 14.1476 2.27255 20.4823 2.29877 26.9101C2.29986 27.1176 2.30587 27.3289 2.31679 27.5438C2.31931 27.5936 2.34131 27.6406 2.37822 27.6749C2.41513 27.7093 2.46412 27.7284 2.51504 27.7283C11.2609 27.7283 20.0123 27.7267 28.769 27.7235C29.3873 27.7235 30.0066 27.7588 30.627 27.8294"
            stroke="#6D6D6D"
            stroke-width="2"
          />
          <path
            d="M30.627 27.8294L30.6876 28.8946"
            stroke="#7B7B7B"
            stroke-width="2"
          />
          <path
            d="M30.686 2.23796L30.6302 3.20053"
            stroke="#878787"
            stroke-width="2"
          />
          <path
            d="M30.6303 3.20053C30.177 3.30427 29.78 3.35615 29.4392 3.35615C21.5376 3.35294 14.7147 3.34117 8.97043 3.32085C8.38169 3.31871 7.80661 3.377 7.24518 3.49572C6.91203 3.56631 6.6122 3.72727 6.34568 3.97861C5.35062 4.9155 4.42819 5.82353 3.5784 6.70267C3.53798 6.74331 3.5145 6.79197 3.50794 6.84866C3.47408 7.12994 3.45715 7.41711 3.45715 7.71016C3.46043 14.1615 3.46207 20.3503 3.46207 26.2765C3.46199 26.3502 3.48969 26.4215 3.53987 26.4765C3.59004 26.5316 3.65917 26.5666 3.73405 26.5749C4.75642 26.6856 5.79845 26.6069 6.83393 26.6278C7.69683 26.6449 8.68808 26.654 9.80766 26.6551C16.0872 26.6615 22.3667 26.6599 28.6462 26.6503C29.4829 26.6492 30.1443 26.7107 30.6303 26.8348"
            stroke="#7A7A7A"
            stroke-width="2"
          />
          <path
            d="M30.6302 26.8347L30.6827 27.6417"
            stroke="#878787"
            stroke-width="2"
          />
          <path
            d="M30.627 27.8294L30.6827 27.6417"
            stroke="#818181"
            stroke-width="2"
          />
          <path
            d="M30.6827 27.6417C31.1464 27.6882 31.6183 27.7396 32.0803 27.7396C48.1292 27.7321 64.1851 27.7337 80.2482 27.7444C80.5169 27.7444 80.7299 27.7684 80.9347 27.5631C82.1646 26.3374 83.3775 25.1321 84.5736 23.9471C84.6349 23.8859 84.6715 23.8056 84.6768 23.7208C84.6986 23.4118 84.7096 23.0925 84.7096 22.7631C84.6888 15.638 84.6872 8.83903 84.7047 2.3663C84.7049 2.35247 84.7023 2.33874 84.6971 2.3259C84.692 2.31306 84.6843 2.30137 84.6745 2.29152C84.6648 2.28167 84.6531 2.27384 84.6403 2.2685C84.6275 2.26316 84.6137 2.26042 84.5998 2.26042L30.686 2.23796"
            stroke="#959595"
            stroke-width="2"
          />
          <path
            d="M30.686 2.23796L30.6106 2.04384"
            stroke="#818181"
            stroke-width="2"
          />
          <path
            d="M30.6729 3.40266L30.6368 4.48074"
            stroke="#979797"
            stroke-width="2"
          />
          <path
            d="M30.6368 4.48075C23.4835 4.47968 16.3296 4.46684 9.17516 4.44224C8.64977 4.44011 8.15443 4.49519 7.68912 4.60748C7.38328 4.68021 7.11949 4.82139 6.89776 5.03101C6.43573 5.46952 5.94584 5.93797 5.4281 6.43636C4.7629 7.07647 4.57776 7.53529 4.57448 8.45615C4.55591 13.4925 4.56411 18.9567 4.59906 24.8487C4.59906 24.9898 4.60234 25.1385 4.60889 25.2947C4.611 25.35 4.63501 25.4024 4.67591 25.441C4.71681 25.4795 4.77145 25.5012 4.82844 25.5016L30.6204 25.5481"
            stroke="#888888"
            stroke-width="2"
          />
          <path
            d="M30.6205 25.5481L30.6778 26.5973"
            stroke="#979797"
            stroke-width="2"
          />
          <path
            d="M30.6303 26.8348C30.6215 26.7417 30.6374 26.6626 30.6778 26.5973"
            stroke="#8E8E8E"
            stroke-width="2"
          />
          <path
            d="M30.6778 26.5973C31.2501 26.6187 31.8241 26.6299 32.3997 26.631C48.9718 26.6588 64.1348 26.6674 77.8888 26.6567C79.1799 26.6567 79.927 26.7337 80.7118 25.9668C81.437 25.261 82.1629 24.546 82.8892 23.8219C83.3677 23.3455 83.5479 22.7727 83.5512 22.1246C83.5872 16.1342 83.5839 9.95401 83.5413 3.58395C83.5409 3.52509 83.5169 3.46879 83.4745 3.42731C83.4322 3.38584 83.3749 3.36257 83.3152 3.36256L30.6729 3.40267"
            stroke="#A4A4A4"
            stroke-width="2"
          />
          <path
            d="M30.6729 3.40267C30.638 3.34064 30.6238 3.27326 30.6303 3.20053"
            stroke="#8E8E8E"
            stroke-width="2"
          />
          <path
            d="M30.6205 25.5481L30.6762 25.4631"
            stroke="#9E9E9E"
            stroke-width="2"
          />
          <path
            d="M30.6761 25.4631C30.8006 25.4866 30.9252 25.4984 31.0497 25.4984C46.9773 25.4973 62.9043 25.4973 78.8309 25.4984C79.2618 25.4984 79.5682 25.4856 79.8975 25.1775C80.5649 24.554 81.2683 23.877 82.0078 23.1465C82.2917 22.8652 82.4348 22.5267 82.437 22.131C82.4632 15.9246 82.4523 10.1091 82.4043 4.68448C82.4038 4.632 82.3822 4.58181 82.3442 4.54485C82.3061 4.50789 82.2547 4.48715 82.2011 4.48715L30.7613 4.48555C30.7209 4.48555 30.6914 4.50534 30.6728 4.54491L30.6384 4.62031"
            stroke="#B7B7B7"
            stroke-width="2"
          />
          <path
            d="M30.6385 4.62032C30.6592 4.60106 30.6587 4.55454 30.6368 4.48074"
            stroke="#9E9E9E"
            stroke-width="2"
          />
          <path
            d="M30.6384 4.62032L30.6761 25.4631"
            stroke="#A8A8A8"
            stroke-width="2"
          />
          <path
            d="M86.7805 0L87 0.10107V24.6722C85.3026 26.5353 83.4943 28.3112 81.5752 30H0.13435L0 29.8941V5.31979C1.69194 3.46738 3.50239 1.69412 5.43136 0H86.7805ZM30.6876 28.8947C47.2301 28.8947 63.7743 28.8963 80.3202 28.8995C80.7757 28.8995 81.1574 28.9091 81.4851 28.5866C82.8144 27.2807 84.201 25.923 85.645 24.5134C85.9383 24.2278 85.8744 23.6005 85.8728 23.1016C85.8575 15.9754 85.8564 8.71444 85.8695 1.31872C85.8695 1.29301 85.8643 1.26756 85.8543 1.24382C85.8442 1.22007 85.8295 1.19849 85.8109 1.18032C85.7924 1.16215 85.7704 1.14773 85.7461 1.13789C85.7218 1.12806 85.6959 1.12299 85.6696 1.12299L30.4402 1.12781C22.508 1.1246 14.5868 1.12299 6.67655 1.12299C6.18175 1.12299 5.81966 1.09412 5.43627 1.47273C4.00429 2.88342 2.67335 4.18663 1.44345 5.38235C1.2239 5.59572 1.12887 5.82995 1.12887 6.13155C1.12232 13.4631 1.1245 20.9786 1.13542 28.6781C1.13542 28.8 1.19714 28.861 1.32057 28.861L30.6876 28.8947Z"
            fill="url(#paint0_linear_331_3)"
          />
          <path
            d="M30.4402 1.1278C30.6336 1.22513 30.6904 1.53047 30.6106 2.04384C30.1683 2.16791 29.7745 2.22994 29.4293 2.22994C21.9822 2.22138 14.3684 2.22299 6.58814 2.23475C6.42023 2.23468 6.25887 2.29985 6.13921 2.41604C5.00324 3.5262 3.87874 4.62245 2.76571 5.70481C2.63245 5.83422 2.51176 5.96898 2.40362 6.10908C2.37085 6.15187 2.35283 6.19999 2.34955 6.25347C2.31678 6.80106 2.29931 7.35187 2.29712 7.90588C2.272 14.1476 2.27255 20.4823 2.29876 26.9102C2.29985 27.1176 2.30586 27.3289 2.31678 27.5438C2.31931 27.5936 2.34131 27.6406 2.37821 27.6749C2.41512 27.7093 2.46411 27.7284 2.51503 27.7283C11.2609 27.7283 20.0122 27.7267 28.769 27.7235C29.3873 27.7235 30.0066 27.7588 30.627 27.8294L30.6876 28.8946L1.32063 28.861C1.1972 28.861 1.13548 28.8 1.13548 28.6781C1.12456 20.9786 1.12238 13.4631 1.12893 6.13154C1.12893 5.82994 1.22396 5.59572 1.44351 5.38235C2.67341 4.18662 4.00435 2.88342 5.43633 1.47272C5.81972 1.09411 6.18181 1.12299 6.67661 1.12299C14.5869 1.12299 22.5081 1.12459 30.4402 1.1278Z"
            fill="#676767"
          />
          <path
            d="M30.6876 28.8946L30.627 27.8294L30.6827 27.6417C31.1463 27.6882 31.6182 27.7396 32.0802 27.7396C48.1291 27.7321 64.185 27.7337 80.2481 27.7444C80.5168 27.7444 80.7298 27.7684 80.9346 27.5631C82.1645 26.3374 83.3775 25.1321 84.5735 23.9471C84.6348 23.8859 84.6715 23.8056 84.6767 23.7208C84.6986 23.4118 84.7095 23.0925 84.7095 22.7631C84.6888 15.638 84.6871 8.83903 84.7046 2.3663C84.7048 2.35247 84.7023 2.33874 84.6971 2.3259C84.6919 2.31306 84.6842 2.30137 84.6745 2.29152C84.6647 2.28166 84.6531 2.27384 84.6402 2.2685C84.6274 2.26316 84.6136 2.26041 84.5997 2.26042L30.6859 2.23796L30.6106 2.04384C30.6903 1.53047 30.6335 1.22512 30.4402 1.1278L85.6696 1.12299C85.6959 1.12299 85.7219 1.12805 85.7461 1.13788C85.7704 1.14772 85.7924 1.16214 85.811 1.18031C85.8295 1.19849 85.8442 1.22006 85.8543 1.24381C85.8643 1.26755 85.8695 1.29301 85.8695 1.31871C85.8564 8.71443 85.8575 15.9754 85.8728 23.1016C85.8744 23.6005 85.9383 24.2278 85.645 24.5134C84.201 25.923 82.8144 27.2807 81.4851 28.5866C81.1574 28.9091 80.7757 28.8995 80.3202 28.8995C63.7743 28.8962 47.2301 28.8946 30.6876 28.8946Z"
            fill="#8F8F8F"
          />
          <path
            d="M30.6106 2.04384L30.686 2.23796L30.6303 3.20052C30.177 3.30427 29.78 3.35614 29.4392 3.35614C21.5376 3.35293 14.7147 3.34116 8.9704 3.32084C8.38167 3.3187 7.80658 3.37699 7.24515 3.49571C6.91201 3.5663 6.61217 3.72726 6.34566 3.9786C5.35059 4.9155 4.42816 5.82352 3.57837 6.70266C3.53796 6.7433 3.51447 6.79197 3.50792 6.84865C3.47406 7.12993 3.45713 7.4171 3.45713 7.71015C3.4604 14.1615 3.46204 20.3503 3.46204 26.2765C3.46197 26.3502 3.48967 26.4215 3.53984 26.4765C3.59001 26.5316 3.65914 26.5666 3.73402 26.5749C4.75639 26.6855 5.79843 26.6069 6.83391 26.6278C7.69681 26.6449 8.68805 26.654 9.80764 26.6551C16.0871 26.6615 22.3667 26.6599 28.6462 26.6503C29.4829 26.6492 30.1442 26.7107 30.6303 26.8347L30.6827 27.6417L30.627 27.8294C30.0066 27.7588 29.3873 27.7235 28.769 27.7235C20.0123 27.7267 11.2609 27.7283 2.51504 27.7283C2.46412 27.7284 2.41513 27.7093 2.37822 27.6749C2.34131 27.6406 2.31931 27.5936 2.31679 27.5438C2.30587 27.3289 2.29986 27.1176 2.29877 26.9101C2.27255 20.4823 2.27201 14.1476 2.29713 7.90587C2.29931 7.35186 2.31679 6.80106 2.34956 6.25346C2.35283 6.19999 2.37086 6.15186 2.40362 6.10908C2.51176 5.96897 2.63246 5.83421 2.76571 5.7048C3.87875 4.62245 5.00325 3.52619 6.13922 2.41603C6.25887 2.29984 6.42024 2.23468 6.58814 2.23475C14.3684 2.22298 21.9822 2.22138 29.4293 2.22993C29.7745 2.22993 30.1683 2.1679 30.6106 2.04384Z"
            fill="#737373"
          />
          <path
            d="M30.6827 27.6417L30.6303 26.8348C30.6215 26.7417 30.6374 26.6626 30.6778 26.5973C31.2501 26.6187 31.8241 26.6299 32.3998 26.631C48.9718 26.6588 64.1348 26.6674 77.8888 26.6567C79.1799 26.6567 79.927 26.7337 80.7118 25.9668C81.4371 25.261 82.1629 24.546 82.8892 23.8219C83.3677 23.3454 83.5479 22.7727 83.5512 22.1246C83.5872 16.1342 83.5839 9.954 83.5413 3.58395C83.5409 3.52509 83.5169 3.46878 83.4745 3.42731C83.4322 3.38584 83.3749 3.36256 83.3152 3.36256L30.6729 3.40267C30.6379 3.34063 30.6237 3.27326 30.6303 3.20053L30.686 2.23796L84.5997 2.26042C84.6137 2.26042 84.6274 2.26316 84.6403 2.2685C84.6531 2.27384 84.6647 2.28167 84.6745 2.29152C84.6842 2.30137 84.6919 2.31306 84.6971 2.3259C84.7023 2.33874 84.7048 2.35247 84.7046 2.3663C84.6871 8.83903 84.6888 15.638 84.7095 22.7631C84.7095 23.0925 84.6986 23.4118 84.6768 23.7208C84.6715 23.8056 84.6348 23.8859 84.5735 23.9471C83.3775 25.1321 82.1645 26.3374 80.9346 27.5631C80.7298 27.7684 80.5168 27.7444 80.2481 27.7444C64.1851 27.7337 48.1291 27.7321 32.0803 27.7396C31.6182 27.7396 31.1464 27.6882 30.6827 27.6417Z"
            fill="#9B9B9B"
          />
          <path
            d="M30.6303 3.20053C30.6238 3.27326 30.638 3.34064 30.6729 3.40267L30.6369 4.48074C23.4835 4.47968 16.3297 4.46684 9.17523 4.44224C8.64985 4.4401 8.1545 4.49518 7.68919 4.60748C7.38335 4.68021 7.11956 4.82139 6.89783 5.03101C6.4358 5.46951 5.94591 5.93796 5.42817 6.43636C4.76297 7.07647 4.57783 7.53529 4.57455 8.45615C4.55599 13.4925 4.56418 18.9567 4.59913 24.8487C4.59913 24.9898 4.60241 25.1385 4.60896 25.2946C4.61107 25.35 4.63508 25.4024 4.67598 25.441C4.71689 25.4795 4.77152 25.5012 4.82851 25.5016L30.6205 25.5481L30.6778 26.5973C30.6374 26.6626 30.6216 26.7417 30.6303 26.8348C30.1443 26.7107 29.4829 26.6492 28.6462 26.6503C22.3667 26.6599 16.0872 26.6615 9.80766 26.6551C8.68808 26.654 7.69683 26.6449 6.83393 26.6278C5.79845 26.6069 4.75642 26.6856 3.73405 26.5749C3.65917 26.5666 3.59004 26.5316 3.53987 26.4765C3.48969 26.4215 3.46199 26.3502 3.46207 26.2765C3.46207 20.3503 3.46043 14.1615 3.45715 7.71016C3.45715 7.41711 3.47408 7.12994 3.50794 6.84866C3.5145 6.79197 3.53798 6.74331 3.5784 6.70267C4.42819 5.82353 5.35062 4.9155 6.34568 3.97861C6.6122 3.72727 6.91203 3.56631 7.24518 3.49572C7.80661 3.377 8.38169 3.31871 8.97043 3.32085C14.7147 3.34117 21.5376 3.35294 29.4392 3.35615C29.78 3.35615 30.177 3.30427 30.6303 3.20053Z"
            fill="#808080"
          />
          <path
            d="M30.6778 26.5973L30.6205 25.5481L30.6762 25.4631C30.8007 25.4866 30.9252 25.4984 31.0497 25.4984C46.9774 25.4973 62.9044 25.4973 78.8309 25.4984C79.2618 25.4984 79.5682 25.4856 79.8975 25.1775C80.5649 24.554 81.2684 23.877 82.0078 23.1465C82.2918 22.8652 82.4349 22.5267 82.4371 22.131C82.4633 15.9246 82.4524 10.1091 82.4043 4.68449C82.4039 4.63201 82.3823 4.58182 82.3442 4.54486C82.3062 4.5079 82.2548 4.48716 82.2012 4.48716L30.7614 4.48556C30.721 4.48556 30.6915 4.50535 30.6729 4.54492L30.6385 4.62032C30.6593 4.60107 30.6587 4.55454 30.6369 4.48075L30.6729 3.40267L83.3153 3.36256C83.375 3.36257 83.4322 3.38584 83.4746 3.42731C83.5169 3.46879 83.541 3.52509 83.5414 3.58395C83.584 9.95401 83.5873 16.1342 83.5512 22.1246C83.5479 22.7727 83.3677 23.3455 82.8893 23.8219C82.1629 24.546 81.4371 25.261 80.7118 25.9668C79.927 26.7337 79.1799 26.6567 77.8888 26.6567C64.1349 26.6674 48.9719 26.6588 32.3998 26.631C31.8242 26.6299 31.2502 26.6187 30.6778 26.5973Z"
            fill="#ADADAD"
          />
          <path
            d="M30.6368 4.48075C30.6586 4.55454 30.6592 4.60107 30.6384 4.62032L30.6761 25.4631L30.6204 25.5481L4.82844 25.5016C4.77145 25.5012 4.71681 25.4795 4.67591 25.441C4.63501 25.4024 4.611 25.35 4.60889 25.2947C4.60234 25.1385 4.59906 24.9898 4.59906 24.8487C4.56411 18.9567 4.55591 13.4925 4.57448 8.45615C4.57776 7.53529 4.7629 7.07647 5.4281 6.43636C5.94584 5.93797 6.43573 5.46952 6.89776 5.03101C7.11949 4.82139 7.38328 4.68021 7.68912 4.60748C8.15443 4.49519 8.64977 4.44011 9.17516 4.44224C16.3296 4.46684 23.4835 4.47968 30.6368 4.48075Z"
            fill="#8F8F8F"
          />
          <path
            d="M30.6761 25.4631L30.6384 4.62031L30.6728 4.54491C30.6914 4.50534 30.7209 4.48555 30.7613 4.48555L82.2011 4.48715C82.2547 4.48715 82.3061 4.50789 82.3442 4.54485C82.3822 4.58181 82.4038 4.632 82.4043 4.68448C82.4523 10.1091 82.4632 15.9246 82.437 22.131C82.4348 22.5267 82.2917 22.8652 82.0078 23.1465C81.2683 23.877 80.5649 24.554 79.8975 25.1775C79.5682 25.4856 79.2618 25.4984 78.8309 25.4984C62.9043 25.4973 46.9773 25.4973 31.0497 25.4984C30.9252 25.4984 30.8006 25.4866 30.6761 25.4631Z"
            fill="#C1C1C1"
          />
        </g>
        <defs>
          <linearGradient
            id="paint0_linear_331_3"
            x1="74.2294"
            y1="-1.97369"
            x2="24.2684"
            y2="30.4977"
            gradientUnits="userSpaceOnUse"
          >
            <stop offset="1" stop-color="#898989" />
          </linearGradient>
          <clipPath id="clip0_331_3">
            <rect width="87" height="30" fill="white" />
          </clipPath>
        </defs>
      </svg>