<svg width="451" height="166" viewBox="0 0 451 166" fill="none" xmlns="http://www.w3.org/2000/svg">
<path d="M390.516 64.585V67.2971C390.493 67.4461 390.474 67.5978 390.459 67.7524C390.44 67.9298 390.411 68.0798 390.37 68.2025C389.895 69.5968 388.939 70.5566 387.5 71.0819C386.824 71.3283 386.126 71.3989 385.379 71.3989C367.26 71.401 354.757 71.3979 347.87 71.3896C346.771 71.3875 345.779 71.0784 344.893 70.4623C344.056 69.8802 343.494 69.0964 343.207 68.111C343.154 67.9315 343.128 67.7905 343.127 67.6879C343.127 67.5937 343.116 67.4991 343.095 67.4041C343.076 67.3272 343.067 67.2323 343.067 67.1193C343.067 66.3279 343.067 65.584 343.067 64.8875C343.067 64.7212 343.079 64.5646 343.103 64.4176C343.121 64.3061 343.132 64.2007 343.136 64.1016C343.14 64.0171 343.161 63.9135 343.198 63.7908C343.584 62.5407 344.37 61.6238 345.556 61.0403C345.982 60.831 346.441 60.6813 346.933 60.5912C347.256 60.5323 347.732 60.5029 348.361 60.5029C360.817 60.4994 373.274 60.4991 385.73 60.5018C386.887 60.5018 387.939 60.8567 388.884 61.5663C389.867 62.305 390.412 63.3113 390.516 64.585ZM352.869 65.9457C352.869 65.2355 352.585 64.5544 352.079 64.0523C351.574 63.5501 350.888 63.268 350.174 63.268C349.459 63.268 348.773 63.5501 348.268 64.0523C347.762 64.5544 347.478 65.2355 347.478 65.9457C347.478 66.6559 347.762 67.337 348.268 67.8392C348.773 68.3414 349.459 68.6235 350.174 68.6235C350.888 68.6235 351.574 68.3414 352.079 67.8392C352.585 67.337 352.869 66.6559 352.869 65.9457Z" fill="#F7271F" fill-opacity="0.25"/>
<path d="M366.803 73.5226C378.989 73.5219 385.294 73.5243 385.72 73.5299C388.128 73.559 390.372 75.1691 390.506 77.7003C390.51 77.7599 390.511 78.1747 390.511 78.9446C390.511 79.7152 390.51 80.1303 390.506 80.1899C390.372 82.7211 388.128 84.3313 385.722 84.3604C385.295 84.366 378.989 84.3687 366.803 84.3687C354.617 84.3694 348.311 84.367 347.885 84.3615C345.478 84.3323 343.234 82.7222 343.099 80.191C343.096 80.1314 343.095 79.7163 343.095 78.9457C343.095 78.1757 343.096 77.761 343.099 77.7014C343.234 75.1702 345.478 73.56 347.885 73.5299C348.311 73.525 354.617 73.5226 366.803 73.5226ZM352.904 78.9498C352.904 78.2308 352.616 77.5412 352.104 77.0328C351.593 76.5244 350.899 76.2388 350.175 76.2388C349.451 76.2388 348.757 76.5244 348.246 77.0328C347.734 77.5412 347.446 78.2308 347.446 78.9498C347.446 79.6688 347.734 80.3584 348.246 80.8668C348.757 81.3752 349.451 81.6608 350.175 81.6608C350.899 81.6608 351.593 81.3752 352.104 80.8668C352.616 80.3584 352.904 79.6688 352.904 78.9498Z" fill="#F7271F" fill-opacity="0.25"/>
<path d="M343.097 91.9487C343.097 91.1781 343.099 90.763 343.103 90.7034C343.237 88.1722 345.481 86.562 347.887 86.5329C348.313 86.5281 354.619 86.5249 366.803 86.5236C378.988 86.5229 385.293 86.5253 385.719 86.5308C388.125 86.5589 390.369 88.1691 390.504 90.7003C390.508 90.7599 390.51 91.1746 390.51 91.9446C390.51 92.7152 390.508 93.1303 390.504 93.1899C390.37 95.7211 388.126 97.3312 385.72 97.3604C385.294 97.3659 378.988 97.369 366.803 97.3697C354.619 97.3704 348.314 97.3683 347.888 97.3635C345.482 97.3344 343.238 95.7242 343.103 93.193C343.099 93.1334 343.097 92.7186 343.097 91.9487ZM352.905 91.9529C352.905 91.2336 352.617 90.5438 352.106 90.0352C351.594 89.5265 350.899 89.2408 350.175 89.2408C349.451 89.2408 348.757 89.5265 348.245 90.0352C347.733 90.5438 347.446 91.2336 347.446 91.9529C347.446 92.309 347.516 92.6617 347.653 92.9907C347.791 93.3198 347.992 93.6187 348.245 93.8706C348.499 94.1224 348.8 94.3222 349.131 94.4585C349.462 94.5948 349.817 94.6649 350.175 94.6649C350.534 94.6649 350.889 94.5948 351.22 94.4585C351.551 94.3222 351.852 94.1224 352.106 93.8706C352.359 93.6187 352.56 93.3198 352.697 92.9907C352.834 92.6617 352.905 92.309 352.905 91.9529Z" fill="#F7271F" fill-opacity="0.25"/>
<path d="M366.802 100.075C367.862 100.075 368.847 100.076 369.757 100.081C369.769 100.081 369.781 100.085 369.789 100.094C369.798 100.102 369.802 100.113 369.802 100.125V105.417C369.802 105.464 369.826 105.487 369.873 105.487H374.089C374.107 105.487 374.125 105.494 374.138 105.507C374.151 105.52 374.158 105.537 374.158 105.556V110.317C374.158 110.324 374.157 110.331 374.154 110.338C374.151 110.345 374.147 110.351 374.141 110.356C374.136 110.361 374.13 110.366 374.123 110.368C374.116 110.371 374.109 110.373 374.102 110.373C373.813 110.377 371.381 110.38 366.805 110.381C362.228 110.382 359.795 110.38 359.507 110.376C359.492 110.376 359.478 110.37 359.467 110.359C359.457 110.349 359.451 110.335 359.451 110.32L359.449 105.559C359.449 105.541 359.456 105.523 359.469 105.51C359.482 105.497 359.499 105.49 359.518 105.49L363.734 105.488C363.781 105.488 363.804 105.465 363.804 105.418L363.802 100.126C363.802 100.114 363.807 100.103 363.815 100.095C363.824 100.086 363.835 100.082 363.847 100.082C364.757 100.077 365.742 100.075 366.802 100.075Z" fill="#F7271F" fill-opacity="0.25"/>
<path d="M388.016 62.085V64.7971C387.993 64.9461 387.974 65.0978 387.959 65.2524C387.94 65.4298 387.911 65.5798 387.87 65.7025C387.395 67.0968 386.439 68.0566 385 68.5819C384.324 68.8283 383.626 68.8989 382.879 68.8989C364.76 68.901 352.257 68.8979 345.37 68.8896C344.271 68.8875 343.279 68.5784 342.393 67.9623C341.556 67.3802 340.994 66.5964 340.707 65.611C340.654 65.4315 340.628 65.2905 340.627 65.1879C340.627 65.0937 340.616 64.9991 340.595 64.9041C340.576 64.8272 340.567 64.7323 340.567 64.6193C340.567 63.8279 340.567 63.084 340.567 62.3875C340.567 62.2212 340.579 62.0646 340.603 61.9176C340.621 61.8061 340.632 61.7007 340.636 61.6016C340.64 61.5171 340.661 61.4135 340.698 61.2908C341.084 60.0407 341.87 59.1238 343.056 58.5403C343.482 58.331 343.941 58.1813 344.433 58.0912C344.756 58.0323 345.232 58.0029 345.861 58.0029C358.317 57.9994 370.774 57.9991 383.23 58.0018C384.387 58.0018 385.439 58.3567 386.384 59.0663C387.367 59.805 387.912 60.8113 388.016 62.085ZM350.369 63.4457C350.369 62.7355 350.085 62.0544 349.579 61.5523C349.074 61.0501 348.388 60.768 347.674 60.768C346.959 60.768 346.273 61.0501 345.768 61.5523C345.262 62.0544 344.978 62.7355 344.978 63.4457C344.978 64.1559 345.262 64.837 345.768 65.3392C346.273 65.8414 346.959 66.1235 347.674 66.1235C348.388 66.1235 349.074 65.8414 349.579 65.3392C350.085 64.837 350.369 64.1559 350.369 63.4457Z" fill="#3E0EFF" fill-opacity="0.25"/>
<path d="M364.303 71.0226C376.489 71.0219 382.794 71.0243 383.22 71.0299C385.628 71.059 387.872 72.6691 388.006 75.2003C388.01 75.2599 388.011 75.6747 388.011 76.4446C388.011 77.2152 388.01 77.6303 388.006 77.6899C387.872 80.2211 385.628 81.8313 383.222 81.8604C382.795 81.866 376.489 81.8687 364.303 81.8687C352.117 81.8694 345.811 81.867 345.385 81.8615C342.978 81.8323 340.734 80.2222 340.599 77.691C340.596 77.6314 340.595 77.2163 340.595 76.4457C340.595 75.6757 340.596 75.261 340.599 75.2014C340.734 72.6702 342.978 71.06 345.385 71.0299C345.811 71.025 352.117 71.0226 364.303 71.0226ZM350.404 76.4498C350.404 75.7308 350.116 75.0412 349.604 74.5328C349.093 74.0244 348.399 73.7388 347.675 73.7388C346.951 73.7388 346.257 74.0244 345.746 74.5328C345.234 75.0412 344.946 75.7308 344.946 76.4498C344.946 77.1688 345.234 77.8584 345.746 78.3668C346.257 78.8752 346.951 79.1608 347.675 79.1608C348.399 79.1608 349.093 78.8752 349.604 78.3668C350.116 77.8584 350.404 77.1688 350.404 76.4498Z" fill="#3E0EFF" fill-opacity="0.25"/>
<path d="M340.597 89.4487C340.597 88.6781 340.599 88.263 340.603 88.2034C340.737 85.6722 342.981 84.062 345.387 84.0329C345.813 84.0281 352.119 84.0249 364.303 84.0236C376.488 84.0229 382.793 84.0253 383.219 84.0308C385.625 84.0589 387.869 85.6691 388.004 88.2003C388.008 88.2599 388.01 88.6746 388.01 89.4446C388.01 90.2152 388.008 90.6303 388.004 90.6899C387.87 93.2211 385.626 94.8312 383.22 94.8604C382.794 94.8659 376.488 94.869 364.303 94.8697C352.119 94.8704 345.814 94.8683 345.388 94.8635C342.982 94.8344 340.738 93.2242 340.603 90.693C340.599 90.6334 340.597 90.2186 340.597 89.4487ZM350.405 89.4529C350.405 88.7336 350.117 88.0438 349.606 87.5352C349.094 87.0265 348.399 86.7408 347.675 86.7408C346.951 86.7408 346.257 87.0265 345.745 87.5352C345.233 88.0438 344.946 88.7336 344.946 89.4529C344.946 89.809 345.016 90.1617 345.153 90.4907C345.291 90.8198 345.492 91.1187 345.745 91.3706C345.999 91.6224 346.3 91.8222 346.631 91.9585C346.962 92.0948 347.317 92.1649 347.675 92.1649C348.034 92.1649 348.389 92.0948 348.72 91.9585C349.051 91.8222 349.352 91.6224 349.606 91.3706C349.859 91.1187 350.06 90.8198 350.197 90.4907C350.334 90.1617 350.405 89.809 350.405 89.4529Z" fill="#3E0EFF" fill-opacity="0.25"/>
<path d="M364.302 97.5753C365.362 97.5747 366.347 97.5764 367.257 97.5805C367.269 97.5805 367.281 97.5853 367.289 97.5936C367.298 97.602 367.302 97.6134 367.302 97.6252V102.917C367.302 102.964 367.326 102.987 367.373 102.987H371.589C371.607 102.987 371.625 102.994 371.638 103.007C371.651 103.02 371.658 103.037 371.658 103.056V107.817C371.658 107.824 371.657 107.831 371.654 107.838C371.651 107.845 371.647 107.851 371.641 107.856C371.636 107.861 371.63 107.866 371.623 107.868C371.616 107.871 371.609 107.873 371.602 107.873C371.313 107.877 368.881 107.88 364.305 107.881C359.728 107.882 357.295 107.88 357.007 107.876C356.992 107.876 356.978 107.87 356.967 107.859C356.957 107.849 356.951 107.835 356.951 107.82L356.949 103.059C356.949 103.041 356.956 103.023 356.969 103.01C356.982 102.997 356.999 102.99 357.018 102.99L361.234 102.988C361.281 102.988 361.304 102.965 361.304 102.918L361.302 97.6263C361.302 97.6144 361.307 97.6031 361.315 97.5947C361.324 97.5863 361.335 97.5816 361.347 97.5816C362.257 97.5774 363.242 97.5753 364.302 97.5753Z" fill="#3E0EFF" fill-opacity="0.25"/>
<path d="M385.516 59.6709V62.383C385.493 62.532 385.474 62.6838 385.459 62.8383C385.44 63.0157 385.411 63.1657 385.37 63.2884C384.895 64.6827 383.939 65.6425 382.5 66.1678C381.824 66.4142 381.126 66.4849 380.379 66.4849C362.26 66.487 349.757 66.4838 342.87 66.4755C341.771 66.4734 340.779 66.1644 339.893 65.5483C339.056 64.9662 338.494 64.1824 338.207 63.1969C338.154 63.0174 338.128 62.8764 338.127 62.7739C338.127 62.6796 338.116 62.585 338.095 62.4901C338.076 62.4131 338.067 62.3182 338.067 62.2052C338.067 61.4138 338.067 60.6699 338.067 59.9734C338.067 59.8071 338.079 59.6505 338.103 59.5036C338.121 59.392 338.132 59.2867 338.136 59.1876C338.14 59.103 338.161 58.9994 338.198 58.8768C338.584 57.6266 339.37 56.7098 340.556 56.1262C340.982 55.917 341.441 55.7673 341.933 55.6772C342.256 55.6183 342.732 55.5888 343.361 55.5888C355.817 55.5854 368.274 55.585 380.73 55.5878C381.887 55.5878 382.939 55.9426 383.884 56.6522C384.867 57.391 385.412 58.3972 385.516 59.6709ZM347.869 61.0317C347.869 60.3215 347.585 59.6404 347.079 59.1382C346.574 58.636 345.888 58.3539 345.174 58.3539C344.459 58.3539 343.773 58.636 343.268 59.1382C342.762 59.6404 342.478 60.3215 342.478 61.0317C342.478 61.7418 342.762 62.4229 343.268 62.9251C343.773 63.4273 344.459 63.7094 345.174 63.7094C345.888 63.7094 346.574 63.4273 347.079 62.9251C347.585 62.4229 347.869 61.7418 347.869 61.0317Z" fill="white"/>
<path d="M361.803 68.6075C373.989 68.6068 380.294 68.6093 380.72 68.6148C383.128 68.6439 385.372 70.2541 385.506 72.7853C385.51 72.8449 385.511 73.2597 385.511 74.0296C385.511 74.8002 385.51 75.2153 385.506 75.2749C385.372 77.8061 383.128 79.4163 380.722 79.4454C380.295 79.4509 373.989 79.4537 361.803 79.4537C349.617 79.4544 343.311 79.452 342.885 79.4464C340.478 79.4173 338.234 77.8071 338.099 75.2759C338.096 75.2163 338.095 74.8012 338.095 74.0306C338.095 73.2607 338.096 72.8459 338.099 72.7863C338.234 70.2551 340.478 68.645 342.885 68.6148C343.311 68.61 349.617 68.6075 361.803 68.6075ZM347.904 74.0348C347.904 73.3158 347.616 72.6262 347.104 72.1178C346.593 71.6094 345.899 71.3238 345.175 71.3238C344.451 71.3238 343.757 71.6094 343.246 72.1178C342.734 72.6262 342.446 73.3158 342.446 74.0348C342.446 74.7538 342.734 75.4433 343.246 75.9518C343.757 76.4602 344.451 76.7458 345.175 76.7458C345.899 76.7458 346.593 76.4602 347.104 75.9518C347.616 75.4433 347.904 74.7538 347.904 74.0348Z" fill="white"/>
<path d="M338.097 87.0337C338.097 86.2631 338.099 85.8479 338.103 85.7883C338.237 83.2572 340.481 81.647 342.887 81.6179C343.313 81.613 349.619 81.6099 361.803 81.6085C373.988 81.6078 380.293 81.6102 380.719 81.6158C383.125 81.6439 385.369 83.254 385.504 85.7852C385.508 85.8448 385.51 86.2596 385.51 87.0295C385.51 87.8001 385.508 88.2152 385.504 88.2748C385.37 90.806 383.126 92.4162 380.72 92.4453C380.294 92.4509 373.988 92.454 361.803 92.4547C349.619 92.4554 343.314 92.4533 342.888 92.4484C340.482 92.4193 338.238 90.8091 338.103 88.278C338.099 88.2184 338.097 87.8036 338.097 87.0337ZM347.905 87.0378C347.905 86.3185 347.617 85.6287 347.106 85.1201C346.594 84.6115 345.899 84.3258 345.175 84.3258C344.451 84.3258 343.757 84.6115 343.245 85.1201C342.733 85.6287 342.446 86.3185 342.446 87.0378C342.446 87.394 342.516 87.7466 342.653 88.0757C342.791 88.4047 342.992 88.7037 343.245 88.9555C343.499 89.2074 343.8 89.4072 344.131 89.5434C344.462 89.6797 344.817 89.7499 345.175 89.7499C345.534 89.7499 345.889 89.6797 346.22 89.5434C346.551 89.4072 346.852 89.2074 347.106 88.9555C347.359 88.7037 347.56 88.4047 347.697 88.0757C347.834 87.7466 347.905 87.394 347.905 87.0378Z" fill="white"/>
<path d="M361.802 95.1632C362.862 95.1625 363.847 95.1643 364.757 95.1684C364.769 95.1684 364.781 95.1731 364.789 95.1815C364.798 95.1899 364.802 95.2013 364.802 95.2131V100.505C364.802 100.552 364.826 100.575 364.873 100.575H369.089C369.107 100.575 369.125 100.582 369.138 100.595C369.151 100.608 369.158 100.625 369.158 100.643V105.404C369.158 105.412 369.157 105.419 369.154 105.426C369.151 105.433 369.147 105.439 369.141 105.444C369.136 105.449 369.13 105.453 369.123 105.456C369.116 105.459 369.109 105.461 369.102 105.461C368.813 105.465 366.381 105.467 361.805 105.469C357.228 105.47 354.795 105.468 354.507 105.464C354.492 105.464 354.478 105.458 354.467 105.447C354.457 105.437 354.451 105.422 354.451 105.408L354.449 100.647C354.449 100.628 354.456 100.611 354.469 100.598C354.482 100.585 354.499 100.578 354.518 100.578L358.734 100.576C358.781 100.576 358.804 100.553 358.804 100.506L358.802 95.2142C358.802 95.2023 358.807 95.1909 358.815 95.1826C358.824 95.1742 358.835 95.1695 358.847 95.1695C359.757 95.1653 360.742 95.1632 361.802 95.1632Z" fill="white"/>
<path d="M200.002 72.541H220.002V77.1406H200.002V72.541ZM200.002 81.7402H220.002V86.3398H200.002V81.7402Z" fill="white"/>
<path d="M105.324 65.5V95.5H97.3164V72.5801L89.5625 79.6602L85.041 74.543L95.959 65.5H105.324Z" fill="#F7271F"/>
<path d="M260.324 60.5V90.5H252.316V67.5801L244.562 74.6602L240.041 69.543L250.959 60.5H260.324ZM282.229 80.0215C282.229 78.4329 282.124 77.2513 281.916 76.4766C281.708 75.7018 281.356 75.1875 280.861 74.9336C280.367 74.6732 279.608 74.543 278.586 74.543C277.466 74.543 276.672 74.6667 276.203 74.9141C275.741 75.1615 275.435 75.6497 275.285 76.3789C275.142 77.1081 275.07 78.3223 275.07 80.0215C275.07 81.5319 275.158 82.6419 275.334 83.3516C275.516 84.0547 275.848 84.543 276.33 84.8164C276.818 85.0833 277.57 85.2168 278.586 85.2168C279.68 85.2168 280.484 85.041 280.998 84.6895C281.519 84.3379 281.854 83.8105 282.004 83.1074C282.154 82.4043 282.229 81.3757 282.229 80.0215ZM282.473 73.2246L282.229 69.5039H289.113V89.543C289.113 92.2578 288.846 94.3379 288.312 95.7832C287.785 97.235 286.822 98.2702 285.422 98.8887C284.029 99.5072 281.965 99.8164 279.23 99.8164C277.303 99.8164 275.718 99.6992 274.475 99.4648C273.238 99.2305 272.225 98.8366 271.438 98.2832C270.656 97.7298 270.077 96.9779 269.699 96.0273C269.322 95.0833 269.097 93.8691 269.025 92.3848H275.549C275.549 93.4525 275.868 94.1589 276.506 94.5039C276.936 94.7122 277.642 94.8164 278.625 94.8164C279.68 94.8164 280.448 94.735 280.93 94.5723C281.418 94.4095 281.757 94.0938 281.945 93.625C282.134 93.1562 282.229 92.4206 282.229 91.418V87.0625H281.984C281.21 89.3542 279.305 90.5 276.271 90.5C274.481 90.5 273.036 90.2428 271.936 89.7285C270.842 89.2142 270.028 88.5013 269.494 87.5898C268.967 86.6719 268.615 85.6172 268.439 84.4258C268.27 83.2279 268.186 81.7598 268.186 80.0215C268.186 77.4629 268.368 75.4382 268.732 73.9473C269.097 72.4499 269.865 71.2943 271.037 70.4805C272.215 69.6667 273.96 69.2598 276.271 69.2598C277.912 69.2598 279.214 69.5397 280.178 70.0996C281.148 70.6595 281.831 71.7012 282.229 73.2246H282.473ZM300.48 79.9824C300.48 81.5254 300.549 82.6582 300.686 83.3809C300.829 84.097 301.167 84.6243 301.701 84.9629C302.235 85.2949 303.094 85.4609 304.279 85.4609C305.262 85.4609 305.995 85.3145 306.477 85.0215C306.965 84.722 307.294 84.1947 307.463 83.4395C307.632 82.6777 307.717 81.5254 307.717 79.9824C307.717 78.6413 307.648 77.5996 307.512 76.8574C307.375 76.1152 307.056 75.5456 306.555 75.1484C306.06 74.7448 305.301 74.543 304.279 74.543C303.27 74.543 302.502 74.6732 301.975 74.9336C301.447 75.1875 301.066 75.6986 300.832 76.4668C300.598 77.235 300.48 78.4069 300.48 79.9824ZM300.314 86.8574L300.48 90.5H293.596V60.5H300.48V72.502H300.803C301.317 71.2389 302.056 70.3828 303.02 69.9336C303.99 69.4844 305.197 69.2598 306.643 69.2598C308.101 69.2598 309.331 69.429 310.334 69.7676C311.337 70.0996 312.147 70.6172 312.766 71.3203C313.391 72.0234 313.853 72.9447 314.152 74.084C314.452 75.2168 314.602 76.597 314.602 78.2246V83.0195C314.602 85.7148 313.931 87.6777 312.59 88.9082C311.249 90.1322 309.266 90.7441 306.643 90.7441C304.995 90.7441 303.674 90.4674 302.678 89.9141C301.688 89.3542 301.008 88.3353 300.637 86.8574H300.314Z" fill="#FCFCFC"/>
<path d="M150.454 50.5L150.51 50.52C150.527 50.5262 150.541 50.5372 150.552 50.5518C150.562 50.5663 150.568 50.5836 150.568 50.6013V60.4065C150.568 60.4188 150.565 60.431 150.56 60.4423C150.556 60.4536 150.549 60.4639 150.54 60.4726C150.531 60.4813 150.52 60.4882 150.509 60.4929C150.497 60.4976 150.485 60.5 150.472 60.5H143.147C143.126 60.5 143.106 60.4917 143.091 60.4769C143.076 60.462 143.068 60.4419 143.068 60.421L143.078 50.5H150.454Z" fill="#2609FF" fill-opacity="0.35"/>
<path d="M165.565 50.5045L165.568 60.4188C165.568 60.4403 165.559 60.461 165.543 60.4762C165.528 60.4914 165.507 60.5 165.485 60.5H158.192C158.109 60.5 158.068 60.4596 158.068 60.3788V50.6146C158.068 50.5745 158.087 50.5475 158.125 50.5334C158.206 50.503 158.299 50.4933 158.404 50.5045H165.565Z" fill="#2609FF" fill-opacity="0.35"/>
<path d="M183 68.0993V90.4001C182.932 91.0208 182.865 91.4363 182.798 91.6467C182.332 93.109 181.418 94.1649 180.057 94.8144C178.812 95.4088 177.393 95.2962 176.065 95.2972C170.348 95.3014 164.632 95.2951 158.916 95.2783C158.062 95.2751 157.068 95.3057 156.144 95.3036C148.988 95.2916 145.174 95.2878 144.702 95.292C144.133 95.2976 143.564 95.2997 142.995 95.2983C141.546 95.2948 137.528 95.2948 130.941 95.2983C128.974 95.299 127.455 94.5612 126.384 93.0848C126.15 92.7608 125.967 92.3579 125.868 91.9886C125.701 91.3679 125.578 90.6918 125.5 89.9603V68.2445C125.519 67.9661 125.546 67.6908 125.581 67.4187C125.67 66.7173 125.909 66.0682 126.297 65.4714C127.123 64.1991 128.298 63.4357 129.822 63.1811C130.213 63.1159 130.764 63.0868 131.474 63.0938C131.768 63.0966 136.027 63.1029 144.249 63.1127C146.466 63.1155 148.573 63.1131 150.57 63.1054C152.306 63.0984 154.904 63.0966 158.362 63.1001C169.41 63.1106 175.873 63.1176 177.751 63.1211C179.557 63.124 180.984 63.8299 182.033 65.2389C182.558 65.9416 182.861 66.7292 182.945 67.6017C182.961 67.7693 182.979 67.9352 183 68.0993ZM153.131 67.8079C153.131 67.7948 153.126 67.7822 153.116 67.7729C153.107 67.7637 153.094 67.7585 153.081 67.7585H132.484C132.471 67.7585 132.458 67.7637 132.449 67.7729C132.439 67.7822 132.434 67.7948 132.434 67.8079V89.7762C132.434 89.7827 132.435 89.7892 132.438 89.7951C132.44 89.8011 132.444 89.8066 132.449 89.8112C132.453 89.8158 132.459 89.8194 132.465 89.8219C132.471 89.8244 132.478 89.8257 132.484 89.8257H140.922C140.935 89.8258 140.947 89.8209 140.957 89.812L153.116 78.2387C153.121 78.234 153.125 78.2285 153.127 78.2223C153.13 78.2162 153.131 78.2096 153.131 78.2029V67.8079ZM154.303 71.3816C154.303 71.3906 154.307 71.3991 154.313 71.4054C154.32 71.4117 154.328 71.4153 154.337 71.4153H158.222C158.231 71.4153 158.239 71.4188 158.246 71.4251C158.252 71.4315 158.256 71.44 158.256 71.449V76.7964C158.256 76.8009 158.255 76.8054 158.253 76.8096C158.251 76.8137 158.248 76.8175 158.245 76.8206L148.219 86.3635C148.213 86.3695 148.205 86.3729 148.196 86.3729H145.756C145.747 86.373 145.739 86.3764 145.733 86.3824L142.064 89.873C142.059 89.8777 142.056 89.8836 142.054 89.8902C142.053 89.8967 142.054 89.9035 142.056 89.9097C142.059 89.9159 142.063 89.9212 142.069 89.925C142.074 89.9288 142.081 89.9308 142.088 89.9309H149.889C149.898 89.9308 149.906 89.9274 149.912 89.9214L162.081 78.3386C162.085 78.3355 162.087 78.3318 162.089 78.3276C162.091 78.3235 162.092 78.319 162.092 78.3144V67.8973C162.092 67.8884 162.088 67.8798 162.082 67.8735C162.076 67.8672 162.067 67.8637 162.058 67.8637H154.337C154.328 67.8637 154.32 67.8672 154.313 67.8735C154.307 67.8798 154.303 67.8884 154.303 67.8973V71.3816ZM163.264 71.471C163.264 71.4777 163.266 71.4842 163.268 71.4904C163.271 71.4965 163.275 71.5021 163.279 71.5068C163.284 71.5114 163.29 71.5152 163.296 71.5177C163.302 71.5202 163.309 71.5215 163.316 71.5215H165.133C165.14 71.5215 165.147 71.5228 165.153 71.5254C165.159 71.5279 165.165 71.5316 165.17 71.5363C165.174 71.541 165.178 71.5466 165.181 71.5527C165.183 71.5588 165.185 71.5654 165.185 71.572V89.9519C165.185 89.9585 165.186 89.9651 165.188 89.9712C165.191 89.9774 165.195 89.9829 165.2 89.9876C165.204 89.9923 165.21 89.996 165.216 89.9986C165.222 90.0011 165.229 90.0024 165.236 90.0024H168.971C168.984 90.0024 168.997 89.9971 169.007 89.9876C169.016 89.9781 169.022 89.9653 169.022 89.9519V71.571C169.022 71.5576 169.027 71.5448 169.037 71.5353C169.046 71.5258 169.059 71.5205 169.073 71.5205H177.655C177.669 71.5205 177.682 71.5152 177.692 71.5057C177.701 71.4962 177.707 71.4834 177.707 71.47V68.0194C177.707 68.006 177.701 67.9931 177.692 67.9837C177.682 67.9742 177.669 67.9689 177.655 67.9689H163.316C163.309 67.9689 163.302 67.9702 163.296 67.9727C163.29 67.9752 163.284 67.979 163.279 67.9837C163.275 67.9883 163.271 67.9939 163.268 68C163.266 68.0062 163.264 68.0127 163.264 68.0194V71.471Z" fill="#2609FF" fill-opacity="0.35"/>
<path d="M136.273 86.1947V71.3801C136.273 71.3612 136.28 71.343 136.294 71.3295C136.308 71.3161 136.326 71.3086 136.345 71.3086H149.222C149.242 71.3086 149.26 71.3161 149.274 71.3295C149.287 71.343 149.295 71.3612 149.295 71.3801V76.6739C149.295 76.6835 149.293 76.6931 149.289 76.7019C149.285 76.7108 149.28 76.7188 149.273 76.7255L139.27 86.2463C139.257 86.259 139.239 86.2662 139.22 86.2662H136.345C136.326 86.2662 136.308 86.2587 136.294 86.2453C136.28 86.2319 136.273 86.2137 136.273 86.1947Z" fill="#2609FF" fill-opacity="0.35"/>
<path d="M150.568 108H143.076L143.068 98.0889C143.068 98.0653 143.077 98.0427 143.094 98.026C143.111 98.0094 143.135 98 143.159 98H150.483C150.505 98 150.526 98.0088 150.542 98.0244C150.558 98.04 150.567 98.0613 150.567 98.0834L150.568 108Z" fill="#2609FF" fill-opacity="0.35"/>
<path d="M152.954 50.5L153.01 50.52C153.027 50.5262 153.041 50.5372 153.052 50.5518C153.062 50.5663 153.068 50.5836 153.068 50.6013V60.4065C153.068 60.4188 153.065 60.431 153.06 60.4423C153.056 60.4536 153.049 60.4639 153.04 60.4726C153.031 60.4813 153.02 60.4882 153.009 60.4929C152.997 60.4976 152.985 60.5 152.972 60.5H145.647C145.626 60.5 145.606 60.4917 145.591 60.4769C145.576 60.462 145.568 60.4419 145.568 60.421L145.578 50.5H152.954Z" fill="#F7271F" fill-opacity="0.2"/>
<path d="M168.065 50.5045L168.068 60.4188C168.068 60.4403 168.059 60.461 168.043 60.4762C168.028 60.4914 168.007 60.5 167.985 60.5H160.692C160.609 60.5 160.568 60.4596 160.568 60.3788V50.6146C160.568 50.5745 160.587 50.5475 160.625 50.5334C160.706 50.503 160.799 50.4933 160.904 50.5045H168.065Z" fill="#F7271F" fill-opacity="0.2"/>
<path d="M185.5 70.5993V92.9001C185.432 93.5208 185.365 93.9363 185.298 94.1467C184.832 95.609 183.918 96.6649 182.557 97.3144C181.312 97.9088 179.893 97.7962 178.565 97.7972C172.848 97.8014 167.132 97.7951 161.416 97.7783C160.562 97.7751 159.568 97.8057 158.644 97.8036C151.488 97.7916 147.674 97.7878 147.202 97.792C146.633 97.7976 146.064 97.7997 145.495 97.7983C144.046 97.7948 140.028 97.7948 133.441 97.7983C131.474 97.799 129.955 97.0612 128.884 95.5848C128.65 95.2608 128.467 94.8579 128.368 94.4886C128.201 93.8679 128.078 93.1918 128 92.4603V70.7445C128.019 70.4661 128.046 70.1908 128.081 69.9187C128.17 69.2173 128.409 68.5682 128.797 67.9714C129.623 66.6991 130.798 65.9357 132.322 65.6811C132.713 65.6159 133.264 65.5868 133.974 65.5938C134.268 65.5966 138.527 65.6029 146.749 65.6127C148.966 65.6155 151.073 65.6131 153.07 65.6054C154.806 65.5984 157.404 65.5966 160.862 65.6001C171.91 65.6106 178.373 65.6176 180.251 65.6211C182.057 65.624 183.484 66.3299 184.533 67.7389C185.058 68.4416 185.361 69.2292 185.445 70.1017C185.461 70.2693 185.479 70.4352 185.5 70.5993ZM155.631 70.3079C155.631 70.2948 155.626 70.2822 155.616 70.2729C155.607 70.2637 155.594 70.2585 155.581 70.2585H134.984C134.971 70.2585 134.958 70.2637 134.949 70.2729C134.939 70.2822 134.934 70.2948 134.934 70.3079V92.2762C134.934 92.2827 134.935 92.2892 134.938 92.2951C134.94 92.3011 134.944 92.3066 134.949 92.3112C134.953 92.3158 134.959 92.3194 134.965 92.3219C134.971 92.3244 134.978 92.3257 134.984 92.3257H143.422C143.435 92.3258 143.447 92.3209 143.457 92.312L155.616 80.7387C155.621 80.734 155.625 80.7285 155.627 80.7223C155.63 80.7162 155.631 80.7096 155.631 80.7029V70.3079ZM156.803 73.8816C156.803 73.8906 156.807 73.8991 156.813 73.9054C156.82 73.9117 156.828 73.9153 156.837 73.9153H160.722C160.731 73.9153 160.739 73.9188 160.746 73.9251C160.752 73.9315 160.756 73.94 160.756 73.949V79.2964C160.756 79.3009 160.755 79.3054 160.753 79.3096C160.751 79.3137 160.748 79.3175 160.745 79.3206L150.719 88.8635C150.713 88.8695 150.705 88.8729 150.696 88.8729H148.256C148.247 88.873 148.239 88.8764 148.233 88.8824L144.564 92.373C144.559 92.3777 144.556 92.3836 144.554 92.3902C144.553 92.3967 144.554 92.4035 144.556 92.4097C144.559 92.4159 144.563 92.4212 144.569 92.425C144.574 92.4288 144.581 92.4308 144.588 92.4309H152.389C152.398 92.4308 152.406 92.4274 152.412 92.4214L164.581 80.8386C164.585 80.8355 164.587 80.8318 164.589 80.8276C164.591 80.8235 164.592 80.819 164.592 80.8144V70.3973C164.592 70.3884 164.588 70.3798 164.582 70.3735C164.576 70.3672 164.567 70.3637 164.558 70.3637H156.837C156.828 70.3637 156.82 70.3672 156.813 70.3735C156.807 70.3798 156.803 70.3884 156.803 70.3973V73.8816ZM165.764 73.971C165.764 73.9777 165.766 73.9842 165.768 73.9904C165.771 73.9965 165.775 74.0021 165.779 74.0068C165.784 74.0114 165.79 74.0152 165.796 74.0177C165.802 74.0202 165.809 74.0215 165.816 74.0215H167.633C167.64 74.0215 167.647 74.0228 167.653 74.0254C167.659 74.0279 167.665 74.0316 167.67 74.0363C167.674 74.041 167.678 74.0466 167.681 74.0527C167.683 74.0588 167.685 74.0654 167.685 74.072V92.4519C167.685 92.4585 167.686 92.4651 167.688 92.4712C167.691 92.4774 167.695 92.4829 167.7 92.4876C167.704 92.4923 167.71 92.496 167.716 92.4986C167.722 92.5011 167.729 92.5024 167.736 92.5024H171.471C171.484 92.5024 171.497 92.4971 171.507 92.4876C171.516 92.4781 171.522 92.4653 171.522 92.4519V74.071C171.522 74.0576 171.527 74.0448 171.537 74.0353C171.546 74.0258 171.559 74.0205 171.573 74.0205H180.155C180.169 74.0205 180.182 74.0152 180.192 74.0057C180.201 73.9962 180.207 73.9834 180.207 73.97V70.5194C180.207 70.506 180.201 70.4931 180.192 70.4837C180.182 70.4742 180.169 70.4689 180.155 70.4689H165.816C165.809 70.4689 165.802 70.4702 165.796 70.4727C165.79 70.4752 165.784 70.479 165.779 70.4837C165.775 70.4883 165.771 70.4939 165.768 70.5C165.766 70.5062 165.764 70.5127 165.764 70.5194V73.971Z" fill="#F7271F" fill-opacity="0.2"/>
<path d="M138.773 88.6947V73.8801C138.773 73.8612 138.78 73.843 138.794 73.8295C138.808 73.8161 138.826 73.8086 138.845 73.8086H151.722C151.742 73.8086 151.76 73.8161 151.774 73.8295C151.787 73.843 151.795 73.8612 151.795 73.8801V79.1739C151.795 79.1835 151.793 79.1931 151.789 79.2019C151.785 79.2108 151.78 79.2188 151.773 79.2255L141.77 88.7463C141.757 88.759 141.739 88.7662 141.72 88.7662H138.845C138.826 88.7662 138.808 88.7587 138.794 88.7453C138.78 88.7319 138.773 88.7137 138.773 88.6947Z" fill="#F7271F" fill-opacity="0.2"/>
<path d="M153 110.5H145.508L145.5 98.1111C145.5 98.0817 145.51 98.0534 145.527 98.0326C145.544 98.0117 145.567 98 145.591 98H152.915C152.937 98 152.958 98.011 152.974 98.0305C152.99 98.0501 152.999 98.0766 152.999 98.1042L153 110.5Z" fill="#F7271F" fill-opacity="0.2"/>
<path d="M168 110.5H160.511L160.5 98.1251C160.5 98.0417 160.534 98 160.602 98H167.893C167.907 98 167.92 98.0033 167.933 98.0096C167.945 98.016 167.957 98.0253 167.966 98.037C167.976 98.0488 167.984 98.0627 167.989 98.0781C167.994 98.0934 167.997 98.1098 167.997 98.1264L168 110.5Z" fill="#F7271F" fill-opacity="0.2"/>
<path d="M165.568 108H158.079L158.068 98.1C158.068 98.0333 158.102 98 158.17 98H165.461C165.475 98 165.488 98.0026 165.501 98.0077C165.513 98.0128 165.525 98.0202 165.534 98.0296C165.544 98.039 165.551 98.0502 165.556 98.0624C165.562 98.0747 165.564 98.0879 165.564 98.1012L165.568 108Z" fill="#2609FF" fill-opacity="0.35"/>
<path d="M147.954 48L148.01 48.02C148.027 48.0262 148.041 48.0372 148.052 48.0518C148.062 48.0663 148.068 48.0836 148.068 48.1013V57.9065C148.068 57.9188 148.065 57.931 148.06 57.9423C148.056 57.9536 148.049 57.9639 148.04 57.9726C148.031 57.9813 148.02 57.9882 148.009 57.9929C147.997 57.9976 147.985 58 147.972 58H140.647C140.626 58 140.606 57.9917 140.591 57.9769C140.576 57.962 140.568 57.9419 140.568 57.921L140.578 48H147.954Z" fill="#F7271F"/>
<path d="M163.065 48.0045L163.068 57.9188C163.068 57.9403 163.059 57.961 163.043 57.9762C163.028 57.9914 163.007 58 162.985 58H155.692C155.609 58 155.568 57.9596 155.568 57.8788V48.1146C155.568 48.0745 155.587 48.0475 155.625 48.0334C155.706 48.003 155.799 47.9933 155.904 48.0045H163.065Z" fill="#F7271F"/>
<path d="M180.5 65.5993V87.9001C180.432 88.5208 180.365 88.9363 180.298 89.1467C179.832 90.609 178.918 91.6649 177.557 92.3144C176.312 92.9088 174.893 92.7962 173.565 92.7972C167.848 92.8014 162.132 92.7951 156.416 92.7783C155.562 92.7751 154.568 92.8057 153.644 92.8036C146.488 92.7916 142.674 92.7878 142.202 92.792C141.633 92.7976 141.064 92.7997 140.495 92.7983C139.046 92.7948 135.028 92.7948 128.441 92.7983C126.474 92.799 124.955 92.0612 123.884 90.5848C123.65 90.2608 123.467 89.8579 123.368 89.4886C123.201 88.8679 123.078 88.1918 123 87.4603V65.7445C123.019 65.4661 123.046 65.1908 123.081 64.9187C123.17 64.2173 123.409 63.5682 123.797 62.9714C124.623 61.6991 125.798 60.9357 127.322 60.6811C127.713 60.6159 128.264 60.5868 128.974 60.5938C129.268 60.5966 133.527 60.6029 141.749 60.6127C143.966 60.6155 146.073 60.6131 148.07 60.6054C149.806 60.5984 152.404 60.5966 155.862 60.6001C166.91 60.6106 173.373 60.6176 175.251 60.6211C177.057 60.624 178.484 61.3299 179.533 62.7389C180.058 63.4416 180.361 64.2292 180.445 65.1017C180.461 65.2693 180.479 65.4352 180.5 65.5993ZM150.631 65.3079C150.631 65.2948 150.626 65.2822 150.616 65.2729C150.607 65.2637 150.594 65.2585 150.581 65.2585H129.984C129.971 65.2585 129.958 65.2637 129.949 65.2729C129.939 65.2822 129.934 65.2948 129.934 65.3079V87.2762C129.934 87.2827 129.935 87.2892 129.938 87.2951C129.94 87.3011 129.944 87.3066 129.949 87.3112C129.953 87.3158 129.959 87.3194 129.965 87.3219C129.971 87.3244 129.978 87.3257 129.984 87.3257H138.422C138.435 87.3258 138.447 87.3209 138.457 87.312L150.616 75.7387C150.621 75.734 150.625 75.7285 150.627 75.7223C150.63 75.7162 150.631 75.7096 150.631 75.7029V65.3079ZM151.803 68.8816C151.803 68.8906 151.807 68.8991 151.813 68.9054C151.82 68.9117 151.828 68.9153 151.837 68.9153H155.722C155.731 68.9153 155.739 68.9188 155.746 68.9251C155.752 68.9315 155.756 68.94 155.756 68.949V74.2964C155.756 74.3009 155.755 74.3054 155.753 74.3096C155.751 74.3137 155.748 74.3175 155.745 74.3206L145.719 83.8635C145.713 83.8695 145.705 83.8729 145.696 83.8729H143.256C143.247 83.873 143.239 83.8764 143.233 83.8824L139.564 87.373C139.559 87.3777 139.556 87.3836 139.554 87.3902C139.553 87.3967 139.554 87.4035 139.556 87.4097C139.559 87.4159 139.563 87.4212 139.569 87.425C139.574 87.4288 139.581 87.4308 139.588 87.4309H147.389C147.398 87.4308 147.406 87.4274 147.412 87.4214L159.581 75.8386C159.585 75.8355 159.587 75.8318 159.589 75.8276C159.591 75.8235 159.592 75.819 159.592 75.8144V65.3973C159.592 65.3884 159.588 65.3798 159.582 65.3735C159.576 65.3672 159.567 65.3637 159.558 65.3637H151.837C151.828 65.3637 151.82 65.3672 151.813 65.3735C151.807 65.3798 151.803 65.3884 151.803 65.3973V68.8816ZM160.764 68.971C160.764 68.9777 160.766 68.9842 160.768 68.9904C160.771 68.9965 160.775 69.0021 160.779 69.0068C160.784 69.0114 160.79 69.0152 160.796 69.0177C160.802 69.0202 160.809 69.0215 160.816 69.0215H162.633C162.64 69.0215 162.647 69.0228 162.653 69.0254C162.659 69.0279 162.665 69.0316 162.67 69.0363C162.674 69.041 162.678 69.0466 162.681 69.0527C162.683 69.0588 162.685 69.0654 162.685 69.072V87.4519C162.685 87.4585 162.686 87.4651 162.688 87.4712C162.691 87.4774 162.695 87.4829 162.7 87.4876C162.704 87.4923 162.71 87.496 162.716 87.4986C162.722 87.5011 162.729 87.5024 162.736 87.5024H166.471C166.484 87.5024 166.497 87.4971 166.507 87.4876C166.516 87.4781 166.522 87.4653 166.522 87.4519V69.071C166.522 69.0576 166.527 69.0448 166.537 69.0353C166.546 69.0258 166.559 69.0205 166.573 69.0205H175.155C175.169 69.0205 175.182 69.0152 175.192 69.0057C175.201 68.9962 175.207 68.9834 175.207 68.97V65.5194C175.207 65.506 175.201 65.4931 175.192 65.4837C175.182 65.4742 175.169 65.4689 175.155 65.4689H160.816C160.809 65.4689 160.802 65.4702 160.796 65.4727C160.79 65.4752 160.784 65.479 160.779 65.4837C160.775 65.4883 160.771 65.4939 160.768 65.5C160.766 65.5062 160.764 65.5127 160.764 65.5194V68.971Z" fill="#F7271F"/>
<path d="M133.773 83.6947V68.8801C133.773 68.8612 133.78 68.843 133.794 68.8295C133.808 68.8161 133.826 68.8086 133.845 68.8086H146.722C146.742 68.8086 146.76 68.8161 146.774 68.8295C146.787 68.843 146.795 68.8612 146.795 68.8801V74.1739C146.795 74.1835 146.793 74.1931 146.789 74.2019C146.785 74.2108 146.78 74.2188 146.773 74.2255L136.77 83.7463C136.757 83.759 136.739 83.7662 136.72 83.7662H133.845C133.826 83.7662 133.808 83.7587 133.794 83.7453C133.78 83.7319 133.773 83.7137 133.773 83.6947Z" fill="#F7271F"/>
<path d="M148.068 105.5H140.576L140.568 95.5889C140.568 95.5653 140.577 95.5427 140.594 95.526C140.611 95.5094 140.635 95.5 140.659 95.5H147.983C148.005 95.5 148.026 95.5088 148.042 95.5244C148.058 95.54 148.067 95.5613 148.067 95.5834L148.068 105.5Z" fill="#F7271F"/>
<path d="M163.068 105.5H155.579L155.568 95.6C155.568 95.5333 155.602 95.5 155.67 95.5H162.961C162.975 95.5 162.988 95.5026 163.001 95.5077C163.013 95.5128 163.025 95.5202 163.034 95.5296C163.044 95.539 163.051 95.5502 163.056 95.5624C163.062 95.5747 163.064 95.5879 163.064 95.6012L163.068 105.5Z" fill="#F7271F"/>
</svg>
