      <svg
        width="100%"
        height="2.75rem"
        viewBox="0 0 99 34"
        fill="none"
        xmlns="http://www.w3.org/2000/svg"
        preserveAspectRatio="none"
      >
        <g clip-path="url(#clip0_219_2743)">
          <path
            opacity="0.2"
            fill-rule="evenodd"
            clip-rule="evenodd"
            d="M3.46875 -0.0944443C33.3437 -0.0944443 63.2188 -0.0944443 93.0938 -0.0944443C94.9688 1.92038 96.9062 3.87222 98.9063 5.76111C98.9063 13.3796 98.9063 20.9982 98.9063 28.6167C98.4062 28.6167 97.9063 28.6167 97.4063 28.6167C97.4376 21.5645 97.4063 14.5127 97.3125 7.46111C95.4062 5.54073 93.5001 3.62038 91.5938 1.7C62.2189 1.60556 32.8438 1.57407 3.46875 1.60556C3.46875 1.03889 3.46875 0.472222 3.46875 -0.0944443Z"
            fill="#0C00FF"
          />
          <path
            opacity="0.2"
            fill-rule="evenodd"
            clip-rule="evenodd"
            d="M3.46875 1.60555C3.46875 2.48704 3.46875 3.36851 3.46875 4.25C2.96874 4.25 2.46876 4.25 1.96875 4.25C1.96875 3.36851 1.96875 2.48704 1.96875 1.60555C2.46876 1.60555 2.96874 1.60555 3.46875 1.60555Z"
            fill="#0CFF00"
          />
          <path
            opacity="0.361"
            fill-rule="evenodd"
            clip-rule="evenodd"
            d="M3.46875 1.60556C32.8438 1.57407 62.2189 1.60556 91.5938 1.7C93.5001 3.62038 95.4062 5.54073 97.3125 7.46111C97.4062 14.5127 97.4376 21.5645 97.4062 28.6167C97.2188 28.6167 97.0312 28.6167 96.8438 28.6167C96.8751 22.446 96.8438 16.2756 96.75 10.1056C94.8437 8.18518 92.9376 6.26482 91.0312 4.34444C61.8439 4.25 32.6563 4.21851 3.46875 4.25C3.46875 3.36851 3.46875 2.48704 3.46875 1.60556Z"
            fill="#0C8D71"
          />
          <path
            fill-rule="evenodd"
            clip-rule="evenodd"
            d="M1.96875 4.25C2.46875 4.25 2.96874 4.25 3.46875 4.25C32.6563 4.21851 61.8439 4.25 91.0312 4.34444C92.9376 6.26482 94.8437 8.18518 96.75 10.1056C96.8437 16.2756 96.8751 22.446 96.8437 28.6167C96.8437 29.1833 96.8437 29.75 96.8437 30.3167C96.8437 31.1982 96.8437 32.0796 96.8437 32.9611C96.3437 32.9611 95.8438 32.9611 95.3437 32.9611C65.9687 32.9927 36.5936 32.9611 7.21875 32.8667C5.31249 30.9462 3.40625 29.026 1.5 27.1056C1.40625 19.8022 1.375 12.4984 1.40625 5.19444C1.40625 4.87962 1.40625 4.56482 1.40625 4.25C1.59375 4.25 1.78125 4.25 1.96875 4.25Z"
            fill="#1D1E1D"
          />
          <path
            opacity="0.2"
            fill-rule="evenodd"
            clip-rule="evenodd"
            d="M-0.09375 5.19444C0.406251 5.19444 0.906249 5.19444 1.40625 5.19444C1.375 12.4984 1.40625 19.8022 1.5 27.1056C3.40626 29.026 5.31249 30.9462 7.21875 32.8667C36.5936 32.9611 65.9687 32.9927 95.3438 32.9611C95.3438 33.276 95.3438 33.5907 95.3438 33.9056C65.4688 33.9056 35.5937 33.9056 5.71875 33.9056C3.84375 31.8907 1.90626 29.9389 -0.09375 28.05C-0.09375 20.4315 -0.09375 12.813 -0.09375 5.19444Z"
            fill="#FE0000"
          />
          <path
            opacity="0.2"
            fill-rule="evenodd"
            clip-rule="evenodd"
            d="M96.8438 28.6167C97.0312 28.6167 97.2187 28.6167 97.4062 28.6167C97.4062 29.1833 97.4062 29.75 97.4062 30.3167C97.2187 30.3167 97.0312 30.3167 96.8438 30.3167C96.8438 29.75 96.8438 29.1833 96.8438 28.6167Z"
            fill="#0CFF00"
          />
        </g>
        <defs>
          <clipPath id="clip0_219_2743">
            <rect width="99" height="34" fill="white" />
          </clipPath>
        </defs>
      </svg>
