<svg width="297" height="55" viewBox="0 0 297 55" fill="none" xmlns="http://www.w3.org/2000/svg"  preserveAspectRatio="none">
<g opacity="0.2">
<g opacity="0.699">
<path fill-rule="evenodd" clip-rule="evenodd" d="M0.530518 12.9761C0.530518 14.2452 0.530518 15.5431 0.530518 16.8122C5.98809 11.5051 11.4165 6.16921 16.8449 0.833313H12.9341C8.81903 4.87129 4.67477 8.93811 0.530518 12.9761Z" fill="#101110"/>
<path fill-rule="evenodd" clip-rule="evenodd" d="M0.530518 18.7446C0.530518 19.8118 0.530518 20.879 0.530518 21.9462C7.71 14.9086 14.8895 7.87093 22.069 0.833313H18.8003C12.7006 6.80376 6.63016 12.7742 0.530518 18.7446Z" fill="#101110"/>
<path fill-rule="evenodd" clip-rule="evenodd" d="M0.530518 23.8498C0.530518 25.1189 0.530518 26.4168 0.530518 27.6859C9.66539 18.7446 18.8003 9.77455 27.906 0.833313H24.0244C16.2028 8.50547 8.35207 16.1776 0.530518 23.8498Z" fill="#101110"/>
<path fill-rule="evenodd" clip-rule="evenodd" d="M0.530518 29.6183C0.530518 30.6855 0.530518 31.7527 0.530518 32.8199C11.3873 22.1481 22.2441 11.5051 33.1009 0.833313H29.8613C20.0844 10.4379 10.3075 20.0137 0.530518 29.6183Z" fill="#101110"/>
<path fill-rule="evenodd" clip-rule="evenodd" d="M0.530518 34.7235C0.530518 35.9926 0.530518 37.2905 0.530518 38.5596C13.3427 26.013 26.1549 13.4087 38.9378 0.833313H35.0562C23.5574 12.1397 12.0585 23.446 0.530518 34.7235Z" fill="#101110"/>
<path fill-rule="evenodd" clip-rule="evenodd" d="M0.530518 40.492C0.530518 41.5592 0.530518 42.6264 0.530518 43.6936C15.0938 29.4164 29.6279 15.1105 44.1327 0.833313H40.8932C27.439 14.0433 14.0139 27.2821 0.530518 40.492Z" fill="#101110"/>
<path fill-rule="evenodd" clip-rule="evenodd" d="M0.530518 45.5972C0.530518 46.8663 0.530518 48.1642 0.530518 49.4333C17.02 33.2525 33.5094 17.0429 49.9697 0.833313H46.0881C30.912 15.7738 15.7358 30.6855 0.530518 45.5972Z" fill="#101110"/>
<path fill-rule="evenodd" clip-rule="evenodd" d="M55.1646 0.833313H51.9251C34.8228 17.6775 17.6912 34.5216 0.530518 51.3658C0.530518 52.4041 0.530518 53.4424 0.530518 54.5096H0.588887C18.8003 36.6271 36.9824 18.7158 55.1646 0.833313Z" fill="#101110"/>
<path fill-rule="evenodd" clip-rule="evenodd" d="M0.588885 54.4807H0.530518C0.530518 54.5099 0.530518 54.5099 0.530518 54.539C0.559701 54.539 0.559701 54.5099 0.588885 54.4807Z" fill="#101110"/>
<path fill-rule="evenodd" clip-rule="evenodd" d="M61.0015 0.833313H57.1199C38.9378 18.7158 20.7556 36.6271 2.54419 54.4808H6.45497C24.6663 36.6271 42.8485 18.7158 61.0015 0.833313Z" fill="#101110"/>
<path fill-rule="evenodd" clip-rule="evenodd" d="M66.1673 0.833313H62.9278C44.7748 18.7158 26.5926 36.6271 8.4104 54.4808H11.6499C29.8613 36.6271 48.0143 18.7158 66.1673 0.833313Z" fill="#101110"/>
<path fill-rule="evenodd" clip-rule="evenodd" d="M72.0043 0.833313H68.1227C49.9697 18.7158 31.7875 36.6271 13.6053 54.4808H17.5161C35.6983 36.6271 53.8513 18.7158 72.0043 0.833313Z" fill="#101110"/>
<path fill-rule="evenodd" clip-rule="evenodd" d="M77.1993 0.833313H73.9598C55.8068 18.7158 37.6537 36.6271 19.4716 54.4808H22.7111C40.8933 36.6271 59.0463 18.7158 77.1993 0.833313Z" fill="#101110"/>
<path fill-rule="evenodd" clip-rule="evenodd" d="M83.0071 0.833313H79.1255C61.0017 18.7158 42.8195 36.6271 24.6665 54.4808H28.5773C46.7303 36.6271 64.8541 18.7158 83.0071 0.833313Z" fill="#101110"/>
<path fill-rule="evenodd" clip-rule="evenodd" d="M88.1728 0.833313H84.9332C66.8094 18.7158 48.6564 36.6271 30.5034 54.4808H33.7429C51.9251 36.6271 70.0489 18.7158 88.1728 0.833313Z" fill="#101110"/>
<path fill-rule="evenodd" clip-rule="evenodd" d="M94.0097 0.833313H90.1281C72.0043 18.7158 53.8512 36.6271 35.6982 54.4808H39.5798C57.7328 36.6271 75.8858 18.7158 94.0097 0.833313Z" fill="#101110"/>
<path fill-rule="evenodd" clip-rule="evenodd" d="M99.1754 0.833313H95.9359C77.8121 18.7158 59.6883 36.6271 41.5353 54.4808H44.7748C62.9278 36.6271 81.0516 18.7158 99.1754 0.833313Z" fill="#101110"/>
<path fill-rule="evenodd" clip-rule="evenodd" d="M105.012 0.833313H101.131C83.007 18.7446 64.8832 36.6271 46.7302 54.5096H50.6118C68.7648 36.5983 86.8886 18.7158 105.012 0.833313Z" fill="#101110"/>
<path fill-rule="evenodd" clip-rule="evenodd" d="M110.178 0.833313H106.297C88.1727 18.7446 70.0489 36.6271 51.925 54.5096H55.8066C73.9596 36.5983 92.0835 18.7158 110.178 0.833313Z" fill="#101110"/>
<path fill-rule="evenodd" clip-rule="evenodd" d="M116.015 0.833313H112.134C94.0097 18.7446 75.8859 36.6271 57.7621 54.5096H61.6437C79.7967 36.5983 97.8913 18.7158 116.015 0.833313Z" fill="#101110"/>
<path fill-rule="evenodd" clip-rule="evenodd" d="M121.181 0.833313H117.299C99.2047 18.7158 81.0808 36.5983 62.957 54.4808H66.8386C84.9624 36.5983 103.086 18.7158 121.181 0.833313Z" fill="#101110"/>
<path fill-rule="evenodd" clip-rule="evenodd" d="M127.018 0.833313H123.136C105.042 18.7446 86.9178 36.6271 68.7939 54.5096H72.6755C90.7994 36.5983 108.894 18.7158 127.018 0.833313Z" fill="#101110"/>
<path fill-rule="evenodd" clip-rule="evenodd" d="M132.184 0.833313H128.302C110.207 18.7446 92.0835 36.6271 73.9597 54.5096H77.8413C95.9651 36.5983 114.089 18.7158 132.184 0.833313Z" fill="#101110"/>
<path fill-rule="evenodd" clip-rule="evenodd" d="M138.02 0.833313H134.139C116.044 18.7446 97.9204 36.6271 79.7966 54.5096H83.6782C101.802 36.5983 119.897 18.7158 138.02 0.833313Z" fill="#101110"/>
<path fill-rule="evenodd" clip-rule="evenodd" d="M143.186 0.833313H139.305C121.21 18.7158 103.086 36.6271 84.9624 54.5096H88.844C106.968 36.5983 125.092 18.7158 143.186 0.833313Z" fill="#101110"/>
<path fill-rule="evenodd" clip-rule="evenodd" d="M148.994 0.833313H145.113C127.018 18.7158 108.894 36.6271 90.7994 54.5096H94.681C112.805 36.5983 130.899 18.7158 148.994 0.833313Z" fill="#101110"/>
<path fill-rule="evenodd" clip-rule="evenodd" d="M154.189 0.833313H150.307C132.213 18.7158 114.118 36.6271 95.9943 54.5096H99.8758C117.97 36.5983 136.094 18.7158 154.189 0.833313Z" fill="#101110"/>
<path fill-rule="evenodd" clip-rule="evenodd" d="M159.997 0.833313H156.115C138.021 18.7158 119.926 36.6271 101.802 54.5096H105.684C123.808 36.5983 141.902 18.7158 159.997 0.833313Z" fill="#101110"/>
<path fill-rule="evenodd" clip-rule="evenodd" d="M165.192 0.833313H161.31C143.216 18.7158 125.121 36.6271 106.997 54.5096H110.879C129.002 36.5983 147.097 18.7158 165.192 0.833313Z" fill="#101110"/>
<path fill-rule="evenodd" clip-rule="evenodd" d="M170.357 0.833313H167.118C149.023 18.7158 130.929 36.6271 112.805 54.5096H116.074C134.168 36.5983 152.263 18.7158 170.357 0.833313Z" fill="#101110"/>
<path fill-rule="evenodd" clip-rule="evenodd" d="M176.165 0.833313H172.284C154.189 18.7158 136.094 36.6271 118 54.5096H121.881C139.976 36.5983 158.071 18.7158 176.165 0.833313Z" fill="#101110"/>
<path fill-rule="evenodd" clip-rule="evenodd" d="M181.389 0.833313H178.15C160.026 18.7158 141.931 36.5983 123.837 54.5096H127.076C145.2 36.5983 163.295 18.7158 181.389 0.833313Z" fill="#101110"/>
<path fill-rule="evenodd" clip-rule="evenodd" d="M187.226 0.833313H183.345C165.221 18.7158 147.126 36.5983 129.032 54.5096H132.913C151.008 36.5983 169.102 18.7158 187.226 0.833313Z" fill="#101110"/>
<path fill-rule="evenodd" clip-rule="evenodd" d="M192.421 0.833313H189.182C171.058 18.7158 152.963 36.5983 134.869 54.5096H138.108C156.174 36.5983 174.297 18.7158 192.421 0.833313Z" fill="#101110"/>
<path fill-rule="evenodd" clip-rule="evenodd" d="M198.229 0.833313H194.347C176.223 18.7158 158.129 36.5983 140.034 54.5096H143.916C162.01 36.5983 180.105 18.7158 198.229 0.833313Z" fill="#101110"/>
<path fill-rule="evenodd" clip-rule="evenodd" d="M203.424 0.833313H200.184C182.061 18.7158 163.966 36.5983 145.842 54.5096H149.082C167.176 36.5983 185.3 18.7158 203.424 0.833313Z" fill="#101110"/>
<path fill-rule="evenodd" clip-rule="evenodd" d="M209.232 0.833313H205.35C187.226 18.7158 169.132 36.5983 151.008 54.5096H154.89C173.013 36.5983 191.137 18.7158 209.232 0.833313Z" fill="#101110"/>
<path fill-rule="evenodd" clip-rule="evenodd" d="M214.427 0.833313H211.187C193.063 18.7158 174.939 36.5983 156.845 54.5096H160.084C178.179 36.5983 196.303 18.687 214.427 0.833313Z" fill="#101110"/>
<path fill-rule="evenodd" clip-rule="evenodd" d="M220.264 0.833313H216.382C198.258 18.7158 180.134 36.5983 162.04 54.5096H165.921C184.016 36.5983 202.14 18.687 220.264 0.833313Z" fill="#101110"/>
<path fill-rule="evenodd" clip-rule="evenodd" d="M225.429 0.833313H222.19C204.066 18.7158 185.942 36.5983 167.848 54.5096H171.087C189.182 36.5983 207.306 18.687 225.429 0.833313Z" fill="#101110"/>
<path fill-rule="evenodd" clip-rule="evenodd" d="M231.266 0.833313H227.385C209.261 18.7158 191.137 36.5983 173.013 54.5096H176.895C195.019 36.5983 213.142 18.687 231.266 0.833313Z" fill="#101110"/>
<path fill-rule="evenodd" clip-rule="evenodd" d="M236.461 0.833313H233.222C215.098 18.7158 196.974 36.5983 178.85 54.5096H182.09C200.184 36.5983 218.308 18.687 236.461 0.833313Z" fill="#101110"/>
<path fill-rule="evenodd" clip-rule="evenodd" d="M242.298 0.833313H238.417C220.264 18.7158 202.14 36.5983 184.016 54.5096H187.898C206.021 36.5983 224.145 18.687 242.298 0.833313Z" fill="#101110"/>
<path fill-rule="evenodd" clip-rule="evenodd" d="M247.493 0.833313H244.254C226.101 18.7158 207.977 36.5983 189.853 54.5096H193.092C211.187 36.5983 229.34 18.687 247.493 0.833313Z" fill="#101110"/>
<path fill-rule="evenodd" clip-rule="evenodd" d="M253.33 0.833313H249.449C231.295 18.7158 213.172 36.5983 195.048 54.5096H198.929C217.024 36.5983 235.177 18.687 253.33 0.833313Z" fill="#101110"/>
<path fill-rule="evenodd" clip-rule="evenodd" d="M258.525 0.833313H255.285C237.132 18.7158 218.979 36.5983 200.856 54.5096H204.095C222.219 36.5983 240.343 18.687 258.525 0.833313Z" fill="#101110"/>
<path fill-rule="evenodd" clip-rule="evenodd" d="M264.362 0.833313H260.451C242.298 18.7158 224.145 36.5983 206.021 54.5096H209.903C228.056 36.5694 246.209 18.687 264.362 0.833313Z" fill="#101110"/>
<path fill-rule="evenodd" clip-rule="evenodd" d="M269.557 0.833313H266.317C248.135 18.7158 229.982 36.5983 211.858 54.5096H215.098C233.222 36.5694 251.404 18.687 269.557 0.833313Z" fill="#101110"/>
<path fill-rule="evenodd" clip-rule="evenodd" d="M275.394 0.833313H271.483C253.301 18.7158 235.148 36.5983 216.995 54.5096H220.876C239.059 36.5694 257.241 18.687 275.394 0.833313Z" fill="#101110"/>
<path fill-rule="evenodd" clip-rule="evenodd" d="M280.618 0.833313H277.378C259.196 18.7158 241.043 36.5983 222.89 54.5096H226.1C244.253 36.5694 262.406 18.687 280.618 0.833313Z" fill="#101110"/>
<path fill-rule="evenodd" clip-rule="evenodd" d="M286.455 0.833313H282.544C264.362 18.7158 246.18 36.5983 228.027 54.5096H231.938C250.091 36.5694 268.273 18.687 286.455 0.833313Z" fill="#101110"/>
<path fill-rule="evenodd" clip-rule="evenodd" d="M291.65 0.833313H288.41C270.199 18.7158 252.046 36.5983 233.864 54.5096H237.103C255.285 36.5694 273.468 18.687 291.65 0.833313Z" fill="#101110"/>
<path fill-rule="evenodd" clip-rule="evenodd" d="M296.203 2.13124C296.203 1.69859 296.203 1.26595 296.203 0.833313H293.634C275.423 18.687 257.241 36.5983 239.088 54.5096H242.969C260.685 37.0021 278.429 19.5522 296.203 2.13124Z" fill="#101110"/>
<path fill-rule="evenodd" clip-rule="evenodd" d="M296.203 7.23641C296.203 5.96733 296.203 4.66941 296.203 3.40033C278.867 20.4175 261.56 37.4347 244.254 54.4808H248.135C264.129 38.7327 280.151 22.9557 296.203 7.23641Z" fill="#101110"/>
<path fill-rule="evenodd" clip-rule="evenodd" d="M296.203 12.9761C296.203 11.707 296.203 10.4091 296.203 9.14001C280.822 24.2248 265.442 39.3383 250.091 54.4808H253.972C268.039 40.6363 282.106 26.8206 296.203 12.9761Z" fill="#101110"/>
<path fill-rule="evenodd" clip-rule="evenodd" d="M296.203 18.1101C296.203 16.841 296.203 15.5431 296.203 14.274C282.544 27.657 268.915 41.0689 255.285 54.4807H259.167C271.483 42.3379 283.828 30.224 296.203 18.1101Z" fill="#101110"/>
<path fill-rule="evenodd" clip-rule="evenodd" d="M296.203 23.8498C296.203 22.5807 296.203 21.2828 296.203 20.0137C284.47 31.4931 272.796 43.0013 261.093 54.4807H264.975C275.394 44.2704 285.784 34.0601 296.203 23.8498Z" fill="#101110"/>
<path fill-rule="evenodd" clip-rule="evenodd" d="M296.203 28.9838C296.203 27.7147 296.203 26.4168 296.203 25.1477C286.221 34.9254 276.24 44.7031 266.288 54.4807H270.199C278.867 45.9721 287.506 37.4635 296.203 28.9838Z" fill="#101110"/>
<path fill-rule="evenodd" clip-rule="evenodd" d="M296.203 34.7235C296.203 33.4545 296.203 32.1565 296.203 30.8875C288.177 38.7327 280.18 46.6067 272.154 54.4808H276.065C282.778 47.9046 289.461 41.2997 296.203 34.7235Z" fill="#101110"/>
<path fill-rule="evenodd" clip-rule="evenodd" d="M296.203 39.8575C296.203 38.5884 296.203 37.2905 296.203 36.0214C289.928 42.1649 283.653 48.3373 277.379 54.5096H281.26C286.222 49.6063 291.212 44.7319 296.203 39.8575Z" fill="#101110"/>
<path opacity="0.724" fill-rule="evenodd" clip-rule="evenodd" d="M0.530518 12.9761C0.530518 14.2452 0.530518 15.5431 0.530518 16.8122C5.98809 11.5051 11.4165 6.16921 16.8449 0.833313H12.9341C8.81903 4.87129 4.67477 8.93811 0.530518 12.9761Z" fill="#101110"/>
<path opacity="0.834" fill-rule="evenodd" clip-rule="evenodd" d="M0.530518 18.7446C0.530518 19.8118 0.530518 20.879 0.530518 21.9462C7.71 14.9086 14.8895 7.87093 22.069 0.833313H18.8003C12.7006 6.80376 6.63016 12.7742 0.530518 18.7446Z" fill="#101110"/>
<path opacity="0.724" fill-rule="evenodd" clip-rule="evenodd" d="M0.530518 23.8498C0.530518 25.1189 0.530518 26.4168 0.530518 27.6859C9.66539 18.7446 18.8003 9.77455 27.906 0.833313H24.0244C16.2028 8.50547 8.35207 16.1776 0.530518 23.8498Z" fill="#101110"/>
<path opacity="0.834" fill-rule="evenodd" clip-rule="evenodd" d="M0.530518 29.6183C0.530518 30.6855 0.530518 31.7527 0.530518 32.8199C11.3873 22.1481 22.2441 11.5051 33.1009 0.833313H29.8613C20.0844 10.4379 10.3075 20.0137 0.530518 29.6183Z" fill="#101110"/>
<path opacity="0.724" fill-rule="evenodd" clip-rule="evenodd" d="M0.530518 34.7235C0.530518 35.9926 0.530518 37.2905 0.530518 38.5596C13.3427 26.013 26.1549 13.4087 38.9378 0.833313H35.0562C23.5574 12.1397 12.0585 23.446 0.530518 34.7235Z" fill="#101110"/>
<path opacity="0.834" fill-rule="evenodd" clip-rule="evenodd" d="M0.530518 40.492C0.530518 41.5592 0.530518 42.6264 0.530518 43.6936C15.0938 29.4164 29.6279 15.1105 44.1327 0.833313H40.8932C27.439 14.0433 14.0139 27.2821 0.530518 40.492Z" fill="#101110"/>
<path opacity="0.724" fill-rule="evenodd" clip-rule="evenodd" d="M0.530518 45.5972C0.530518 46.8663 0.530518 48.1642 0.530518 49.4333C17.02 33.2525 33.5094 17.0429 49.9697 0.833313H46.0881C30.912 15.7738 15.7358 30.6855 0.530518 45.5972Z" fill="#101110"/>
<path opacity="0.834" fill-rule="evenodd" clip-rule="evenodd" d="M55.1646 0.833313H51.9251C34.8228 17.6775 17.6912 34.5216 0.530518 51.3658C0.530518 52.4041 0.530518 53.4424 0.530518 54.5096H0.588887C18.8003 36.6271 36.9824 18.7158 55.1646 0.833313Z" fill="#101110"/>
<path opacity="0.834" fill-rule="evenodd" clip-rule="evenodd" d="M0.588885 54.4807H0.530518C0.530518 54.5099 0.530518 54.5099 0.530518 54.539C0.559701 54.539 0.559701 54.5099 0.588885 54.4807Z" fill="#101110"/>
<path opacity="0.724" fill-rule="evenodd" clip-rule="evenodd" d="M61.0015 0.833313H57.1199C38.9378 18.7158 20.7556 36.6271 2.54419 54.4808H6.45497C24.6663 36.6271 42.8485 18.7158 61.0015 0.833313Z" fill="#101110"/>
<path opacity="0.834" fill-rule="evenodd" clip-rule="evenodd" d="M66.1673 0.833313H62.9278C44.7748 18.7158 26.5926 36.6271 8.4104 54.4808H11.6499C29.8613 36.6271 48.0143 18.7158 66.1673 0.833313Z" fill="#101110"/>
<path opacity="0.724" fill-rule="evenodd" clip-rule="evenodd" d="M72.0043 0.833313H68.1227C49.9697 18.7158 31.7875 36.6271 13.6053 54.4808H17.5161C35.6983 36.6271 53.8513 18.7158 72.0043 0.833313Z" fill="#101110"/>
<path opacity="0.834" fill-rule="evenodd" clip-rule="evenodd" d="M77.1993 0.833313H73.9598C55.8068 18.7158 37.6537 36.6271 19.4716 54.4808H22.7111C40.8933 36.6271 59.0463 18.7158 77.1993 0.833313Z" fill="#101110"/>
<path opacity="0.721" fill-rule="evenodd" clip-rule="evenodd" d="M83.0071 0.833313H79.1255C61.0017 18.7158 42.8195 36.6271 24.6665 54.4808H28.5773C46.7303 36.6271 64.8541 18.7158 83.0071 0.833313Z" fill="#101110"/>
<path opacity="0.834" fill-rule="evenodd" clip-rule="evenodd" d="M88.1728 0.833313H84.9332C66.8094 18.7158 48.6564 36.6271 30.5034 54.4808H33.7429C51.9251 36.6271 70.0489 18.7158 88.1728 0.833313Z" fill="#101110"/>
<path opacity="0.717" fill-rule="evenodd" clip-rule="evenodd" d="M94.0097 0.833313H90.1281C72.0043 18.7158 53.8512 36.6271 35.6982 54.4808H39.5798C57.7328 36.6271 75.8858 18.7158 94.0097 0.833313Z" fill="#101110"/>
<path opacity="0.834" fill-rule="evenodd" clip-rule="evenodd" d="M99.1754 0.833313H95.9359C77.8121 18.7158 59.6883 36.6271 41.5353 54.4808H44.7748C62.9278 36.6271 81.0516 18.7158 99.1754 0.833313Z" fill="#101110"/>
<path opacity="0.713" fill-rule="evenodd" clip-rule="evenodd" d="M105.012 0.833313H101.131C83.007 18.7446 64.8832 36.6271 46.7302 54.5096H50.6118C68.7648 36.5983 86.8886 18.7158 105.012 0.833313Z" fill="#101110"/>
<path opacity="0.697" fill-rule="evenodd" clip-rule="evenodd" d="M110.178 0.833313H106.297C88.1727 18.7446 70.0489 36.6271 51.925 54.5096H55.8066C73.9596 36.5983 92.0835 18.7158 110.178 0.833313Z" fill="#101110"/>
<path opacity="0.711" fill-rule="evenodd" clip-rule="evenodd" d="M116.015 0.833313H112.134C94.0097 18.7446 75.8859 36.6271 57.7621 54.5096H61.6437C79.7967 36.5983 97.8913 18.7158 116.015 0.833313Z" fill="#101110"/>
<path opacity="0.701" fill-rule="evenodd" clip-rule="evenodd" d="M121.181 0.833313H117.299C99.2047 18.7158 81.0808 36.5983 62.957 54.4808H66.8386C84.9624 36.5983 103.086 18.7158 121.181 0.833313Z" fill="#101110"/>
<path opacity="0.707" fill-rule="evenodd" clip-rule="evenodd" d="M127.018 0.833313H123.136C105.042 18.7446 86.9178 36.6271 68.7939 54.5096H72.6755C90.7994 36.5983 108.894 18.7158 127.018 0.833313Z" fill="#101110"/>
<path opacity="0.704" fill-rule="evenodd" clip-rule="evenodd" d="M132.184 0.833313H128.302C110.207 18.7446 92.0835 36.6271 73.9597 54.5096H77.8413C95.9651 36.5983 114.089 18.7158 132.184 0.833313Z" fill="#101110"/>
<path opacity="0.703" fill-rule="evenodd" clip-rule="evenodd" d="M138.02 0.833313H134.139C116.044 18.7446 97.9204 36.6271 79.7966 54.5096H83.6782C101.802 36.5983 119.897 18.7158 138.02 0.833313Z" fill="#101110"/>
<path opacity="0.708" fill-rule="evenodd" clip-rule="evenodd" d="M143.186 0.833313H139.305C121.21 18.7158 103.086 36.6271 84.9624 54.5096H88.844C106.968 36.5983 125.092 18.7158 143.186 0.833313Z" fill="#101110"/>
<path opacity="0.7" fill-rule="evenodd" clip-rule="evenodd" d="M148.994 0.833313H145.113C127.018 18.7158 108.894 36.6271 90.7994 54.5096H94.681C112.805 36.5983 130.899 18.7158 148.994 0.833313Z" fill="#101110"/>
<path opacity="0.712" fill-rule="evenodd" clip-rule="evenodd" d="M154.189 0.833313H150.307C132.213 18.7158 114.118 36.6271 95.9943 54.5096H99.8758C117.97 36.5983 136.094 18.7158 154.189 0.833313Z" fill="#101110"/>
<path opacity="0.696" fill-rule="evenodd" clip-rule="evenodd" d="M159.997 0.833313H156.115C138.021 18.7158 119.926 36.6271 101.802 54.5096H105.684C123.808 36.5983 141.902 18.7158 159.997 0.833313Z" fill="#101110"/>
<path opacity="0.714" fill-rule="evenodd" clip-rule="evenodd" d="M165.192 0.833313H161.31C143.216 18.7158 125.121 36.6271 106.997 54.5096H110.879C129.002 36.5983 147.097 18.7158 165.192 0.833313Z" fill="#101110"/>
<path opacity="0.835" fill-rule="evenodd" clip-rule="evenodd" d="M170.357 0.833313H167.118C149.023 18.7158 130.929 36.6271 112.805 54.5096H116.074C134.168 36.5983 152.263 18.7158 170.357 0.833313Z" fill="#101110"/>
<path opacity="0.718" fill-rule="evenodd" clip-rule="evenodd" d="M176.165 0.833313H172.284C154.189 18.7158 136.094 36.6271 118 54.5096H121.881C139.976 36.5983 158.071 18.7158 176.165 0.833313Z" fill="#101110"/>
<path opacity="0.834" fill-rule="evenodd" clip-rule="evenodd" d="M181.389 0.833313H178.15C160.026 18.7158 141.931 36.5983 123.837 54.5096H127.076C145.2 36.5983 163.295 18.7158 181.389 0.833313Z" fill="#101110"/>
<path opacity="0.721" fill-rule="evenodd" clip-rule="evenodd" d="M187.226 0.833313H183.345C165.221 18.7158 147.126 36.5983 129.032 54.5096H132.913C151.008 36.5983 169.102 18.7158 187.226 0.833313Z" fill="#101110"/>
<path opacity="0.834" fill-rule="evenodd" clip-rule="evenodd" d="M192.421 0.833313H189.182C171.058 18.7158 152.963 36.5983 134.869 54.5096H138.108C156.174 36.5983 174.297 18.7158 192.421 0.833313Z" fill="#101110"/>
<path opacity="0.724" fill-rule="evenodd" clip-rule="evenodd" d="M198.229 0.833313H194.347C176.223 18.7158 158.129 36.5983 140.034 54.5096H143.916C162.01 36.5983 180.105 18.7158 198.229 0.833313Z" fill="#101110"/>
<path opacity="0.834" fill-rule="evenodd" clip-rule="evenodd" d="M203.424 0.833313H200.184C182.061 18.7158 163.966 36.5983 145.842 54.5096H149.082C167.176 36.5983 185.3 18.7158 203.424 0.833313Z" fill="#101110"/>
<path opacity="0.724" fill-rule="evenodd" clip-rule="evenodd" d="M209.232 0.833313H205.35C187.226 18.7158 169.132 36.5983 151.008 54.5096H154.89C173.013 36.5983 191.137 18.7158 209.232 0.833313Z" fill="#101110"/>
<path opacity="0.834" fill-rule="evenodd" clip-rule="evenodd" d="M214.427 0.833313H211.187C193.063 18.7158 174.939 36.5983 156.845 54.5096H160.084C178.179 36.5983 196.303 18.687 214.427 0.833313Z" fill="#101110"/>
<path opacity="0.724" fill-rule="evenodd" clip-rule="evenodd" d="M220.264 0.833313H216.382C198.258 18.7158 180.134 36.5983 162.04 54.5096H165.921C184.016 36.5983 202.14 18.687 220.264 0.833313Z" fill="#101110"/>
<path opacity="0.834" fill-rule="evenodd" clip-rule="evenodd" d="M225.429 0.833313H222.19C204.066 18.7158 185.942 36.5983 167.848 54.5096H171.087C189.182 36.5983 207.306 18.687 225.429 0.833313Z" fill="#101110"/>
<path opacity="0.724" fill-rule="evenodd" clip-rule="evenodd" d="M231.266 0.833313H227.385C209.261 18.7158 191.137 36.5983 173.013 54.5096H176.895C195.019 36.5983 213.142 18.687 231.266 0.833313Z" fill="#101110"/>
<path opacity="0.834" fill-rule="evenodd" clip-rule="evenodd" d="M236.461 0.833313H233.222C215.098 18.7158 196.974 36.5983 178.85 54.5096H182.09C200.184 36.5983 218.308 18.687 236.461 0.833313Z" fill="#101110"/>
<path opacity="0.724" fill-rule="evenodd" clip-rule="evenodd" d="M242.298 0.833313H238.417C220.264 18.7158 202.14 36.5983 184.016 54.5096H187.898C206.021 36.5983 224.145 18.687 242.298 0.833313Z" fill="#101110"/>
<path opacity="0.834" fill-rule="evenodd" clip-rule="evenodd" d="M247.493 0.833313H244.254C226.101 18.7158 207.977 36.5983 189.853 54.5096H193.092C211.187 36.5983 229.34 18.687 247.493 0.833313Z" fill="#101110"/>
<path opacity="0.724" fill-rule="evenodd" clip-rule="evenodd" d="M253.33 0.833313H249.449C231.295 18.7158 213.172 36.5983 195.048 54.5096H198.929C217.024 36.5983 235.177 18.687 253.33 0.833313Z" fill="#101110"/>
<path opacity="0.834" fill-rule="evenodd" clip-rule="evenodd" d="M258.525 0.833313H255.285C237.132 18.7158 218.979 36.5983 200.856 54.5096H204.095C222.219 36.5983 240.343 18.687 258.525 0.833313Z" fill="#101110"/>
<path opacity="0.723" fill-rule="evenodd" clip-rule="evenodd" d="M264.362 0.833313H260.451C242.298 18.7158 224.145 36.5983 206.021 54.5096H209.903C228.056 36.5694 246.209 18.687 264.362 0.833313Z" fill="#101110"/>
<path opacity="0.834" fill-rule="evenodd" clip-rule="evenodd" d="M269.557 0.833313H266.317C248.135 18.7158 229.982 36.5983 211.858 54.5096H215.098C233.222 36.5694 251.404 18.687 269.557 0.833313Z" fill="#101110"/>
<path opacity="0.719" fill-rule="evenodd" clip-rule="evenodd" d="M275.394 0.833313H271.483C253.301 18.7158 235.148 36.5983 216.995 54.5096H220.876C239.059 36.5694 257.241 18.687 275.394 0.833313Z" fill="#101110"/>
<path opacity="0.835" fill-rule="evenodd" clip-rule="evenodd" d="M280.618 0.833313H277.378C259.196 18.7158 241.043 36.5983 222.89 54.5096H226.1C244.253 36.5694 262.406 18.687 280.618 0.833313Z" fill="#101110"/>
<path opacity="0.717" fill-rule="evenodd" clip-rule="evenodd" d="M286.455 0.833313H282.544C264.362 18.7158 246.18 36.5983 228.027 54.5096H231.938C250.091 36.5694 268.273 18.687 286.455 0.833313Z" fill="#101110"/>
<path opacity="0.835" fill-rule="evenodd" clip-rule="evenodd" d="M291.65 0.833313H288.41C270.199 18.7158 252.046 36.5983 233.864 54.5096H237.103C255.285 36.5694 273.468 18.687 291.65 0.833313Z" fill="#101110"/>
<path opacity="0.713" fill-rule="evenodd" clip-rule="evenodd" d="M296.203 2.13124C296.203 1.69859 296.203 1.26595 296.203 0.833313H293.634C275.423 18.687 257.241 36.5983 239.088 54.5096H242.969C260.685 37.0021 278.429 19.5522 296.203 2.13124Z" fill="#101110"/>
<path opacity="0.698" fill-rule="evenodd" clip-rule="evenodd" d="M296.203 7.23641C296.203 5.96733 296.203 4.66941 296.203 3.40033C278.867 20.4175 261.56 37.4347 244.254 54.4808H248.135C264.129 38.7327 280.151 22.9557 296.203 7.23641Z" fill="#101110"/>
<path opacity="0.709" fill-rule="evenodd" clip-rule="evenodd" d="M296.203 12.9761C296.203 11.707 296.203 10.4091 296.203 9.14001C280.822 24.2248 265.442 39.3383 250.091 54.4808H253.972C268.039 40.6363 282.106 26.8206 296.203 12.9761Z" fill="#101110"/>
<path opacity="0.701" fill-rule="evenodd" clip-rule="evenodd" d="M296.203 18.1101C296.203 16.841 296.203 15.5431 296.203 14.274C282.544 27.657 268.915 41.0689 255.285 54.4807H259.167C271.483 42.3379 283.828 30.224 296.203 18.1101Z" fill="#101110"/>
<path opacity="0.707" fill-rule="evenodd" clip-rule="evenodd" d="M296.203 23.8498C296.203 22.5807 296.203 21.2828 296.203 20.0137C284.47 31.4931 272.796 43.0013 261.093 54.4807H264.975C275.394 44.2704 285.784 34.0601 296.203 23.8498Z" fill="#101110"/>
<path opacity="0.705" fill-rule="evenodd" clip-rule="evenodd" d="M296.203 28.9838C296.203 27.7147 296.203 26.4168 296.203 25.1477C286.221 34.9254 276.24 44.7031 266.288 54.4807H270.199C278.867 45.9721 287.506 37.4635 296.203 28.9838Z" fill="#101110"/>
<path opacity="0.703" fill-rule="evenodd" clip-rule="evenodd" d="M296.203 34.7235C296.203 33.4545 296.203 32.1565 296.203 30.8875C288.177 38.7327 280.18 46.6067 272.154 54.4808H276.065C282.778 47.9046 289.461 41.2997 296.203 34.7235Z" fill="#101110"/>
<path opacity="0.709" fill-rule="evenodd" clip-rule="evenodd" d="M296.203 39.8575C296.203 38.5884 296.203 37.2905 296.203 36.0214C289.928 42.1649 283.653 48.3373 277.379 54.5096H281.26C286.222 49.6063 291.212 44.7319 296.203 39.8575Z" fill="#101110"/>
</g>
<path opacity="0.699" fill-rule="evenodd" clip-rule="evenodd" d="M282.748 54.4808H284.178C288.118 50.6158 292.117 46.6932 296.203 42.7129C296.203 42.3092 296.203 41.9054 296.203 41.5304" fill="#101110"/>
</g>
</svg>
